<?xml version="1.0" encoding="UTF-8" standalone="no"?>
<!-- Created with Inkscape (http://www.inkscape.org/) -->

<svg
   xmlns:svg="http://www.w3.org/2000/svg"
   xmlns="http://www.w3.org/2000/svg"
   version="1.1"
   width="2219.3491"
   height="2084.8958"
   id="svg2">
  <defs
     id="defs4" />
  <g
     transform="translate(760.12073,761.23234)"
     id="layer2"
     style="display:inline">
    <path
       d="m 678.71542,-121.1357 -8.1228,-10.1809 -14.36185,-5.25435 -3.1526,-8.05665 -5.6046,-10.85895 -4.90405,-2.8023 -5.60465,-11.90985 -5.25435,-8.05665 -6.65545,-8.75725 -6.6555,-5.9549 -6.6555,-11.20925 -11.90985,-17.16415 -5.25435,-7.7064 -4.20345,-8.05665 -10.50865,-8.05665 -1.0509,-8.7572 -4.55375,-11.90985 -4.90405,-9.1075 -11.20925,-23.4694 -7.3561,-7.35605 -1.7514,-11.20925 -7.0058,-10.1584 c 0,0 -4.90405,-10.5087 -7.3561,-11.20925 -2.452,-0.7006 -9.8081,-8.05665 -9.8081,-8.05665 l -3.1526,-5.60465 -5.9549,-9.1075 -12.2601,-16.1133 -8.40695,-8.05665 -3.1526,-11.90985 c 0,0 -4.55375,-9.1075 -5.25435,-10.50865 -0.7006,-1.40115 -3.5029,-4.5538 -4.55375,-6.3052 -1.05085,-1.75145 -3.5029,-10.1584 -3.5029,-10.1584 l -3.8532,-7.3561 -7.70635,-16.1133 c 0,0 -1.40115,-11.20925 -2.10175,-12.6104 -0.70055,-1.40115 -4.9043,-11.90985 -5.2543,-13.311 -0.3505,-1.40115 -4.2035,-12.9607 -4.2035,-12.9607 l -3.85315,-8.4069 -3.1526,-16.8139 -1.75145,-10.85895 -5.95495,-11.55955 -6.3052,-12.6104 -11.55955,-18.56535 -5.9549,-14.36185 -5.25435,-9.8081 -4.90405,-24.16995 -4.20345,-16.11331 -5.25435,-15.76302 -5.25435,-25.22082 -4.20345,-19.2659 -5.25435,-24.52024 -3.5029,-14.36186 c 0,0 -3.50285,-15.06244 -3.50285,-16.46359 0,-1.40116 -1.40115,-8.40694 -1.40115,-8.40694 l -1.94685,-4.95186 -48.56265,8.3385 -59.44605,11.88921 -25.75995,15.85228 -27.7415,13.87074 -13.87075,11.88921 -15.33135,0.20905 -45.53755,-0.70058 -10.859,5.60463 -15.763,7.35607 -1.40115,13.66128 c 0,0 -3.1526,17.86475 -3.1526,19.2659 0,1.40116 0,17.16417 0,17.16417 l -3.8532,6.6555 -10.85895,10.50868 -8.75725,8.75725 -7.35605,5.2543 c 0,0 -11.55955,0.7006 -12.9607,0.7006 -1.40115,0 -12.26015,1.05085 -12.26015,1.05085 l -3.50285,3.8532 -11.55955,0.70055 -5.25435,-3.1526 -21.71795,-4.55375 -8.05665,-3.5029 -6.6555,0 -3.85315,4.2035 -19.6162,3.85315 -15.763,4.5538 -7.3561,5.6046 -4.55375,5.25435 -6.3052,-2.10175 -6.6555,-10.1584 -8.40695,-5.2543 -8.05665,-5.60465 -11.55955,0 -8.05665,9.10755 c 0,0 -4.20345,7.35605 -4.90405,9.4578 -0.70055,2.1017 -4.55375,9.1075 -5.2543,11.55955 -0.7006,2.452 -5.25435,8.7572 -5.25435,10.15835 0,1.40115 -6.3052,9.4578 -6.3052,9.4578 l -10.1584,17.1642 c 0,0 -7.0058,9.1075 -7.70635,10.85895 -0.7006,1.75145 -7.3561,12.6104 -7.3561,12.6104 0,0 -3.1526,22.41855 -3.1526,24.16995 0,1.75145 -2.452,9.45785 -2.452,9.45785 l -7.3561,6.6555 -14.01155,2.452 -11.90985,4.20345 -9.8081,2.45205 -14.71215,-0.7006 -7.00575,9.10755 -5.60465,10.85895 -3.85315,18.56535 -3.1526,13.66125 -2.80235,8.40695 -22.7688,2.10175 -33.97805,3.85315 -25.5711,4.90405 -12.2601,0 -16.8139,2.45205 -3.8532,10.85895 1.0509,13.311 3.5029,11.55955 14.01155,10.15835 10.85895,10.5087 12.26015,3.85315 5.9549,5.95495 17.16415,0.70055 4.5538,9.10755 5.2543,8.05665 -1.40115,11.20925 -4.55375,10.85895 -3.8532,9.4578 -4.90405,8.05665 -2.452,16.1133 c 0,0 -2.102,12.26015 -2.452,13.6613 -0.3505,1.40115 -7.0058,10.50865 -7.0058,10.50865 l -3.42255,12.70225 8.0123,8.4867 9.39125,9.1703 5.08235,10.71705 6.5186,10.27515 2.76215,19.44545 1.6573,14.4736 4.75085,10.93805 c 0,0 5.3033,13.5897 5.9662,14.69455 0.66295,1.10485 7.40255,10.6066 7.40255,10.6066 l 3.65405,7.5539 9.6875,3.437496 9.0625,7.1875 12.1875,10.625 6.5625,10.3125 9.0625,9.375 10,11.25 2.5,6.5625 5,5 13.125,3.4375 13.125,5.625 c 0,0 4.375,8.75 5.625,8.75 1.25,0 13.125,3.125 13.125,3.125 l 7.8125,6.25 11.5625,2.1875 8.75,15.3125 7.5,7.8125 5.3125,4.0625 c 0,0 16.5625,3.4375 18.125,3.125 1.5625,-0.3125 9.6875,0.9375 9.6875,0.9375 l 8.4375,0 12.5,-1.875 16.875,-4.0625 14.375,-1.5625 7.5,0.3125 18.4375,4.375 21.25,4.375 25.625,4.375 19.6875,0 23.125,-0.9375 11.875,-2.5 20.625,0 10,5.3125 9.6875,5 10.9375,1.25 10.3125,11.5625 7.3047,9.3837 8.38495,-4.63665 8.3969,-11.04855 12.37435,-13.25825 12.3744,-3.7565 14.80505,-9.7227 c 0,0 6.40815,-5.3033 6.40815,-6.8501 0,-1.5468 -0.221,-7.734 -0.221,-7.734 l -9.50175,-4.86135 -5.74525,-2.2097 -4.86135,-5.3033 0,-4.86135 4.19845,-5.5243 2.87265,-5.3033 14.58405,-8.39685 14.80505,-3.75655 8.3969,-3.7565 6.1872,-4.64035 11.49045,-0.221 3.53555,2.87265 26.07455,2.65165 3.7565,3.7565 13.25825,2.2097 1.32585,-3.53555 20.5503,-11.4905 20.5503,-7.292 6.40815,-6.62915 14.80505,-6.18715 15.6889,-7.29205 12.1534,-12.1534 2.2097,-9.280796 7.29205,-15.6889 7.95495,-6.62915 15.68895,-11.04855 8.61785,-5.0823 8.3969,-4.8614 5.9662,-5.0823 6.1872,0.8839 5.08235,6.18715 9.5017,3.0936 14.80505,4.6404 10.38565,6.8501 5.74525,3.0936 37.56505,2.8726 43.7522,5.52425 14.36315,3.53555 9.7227,-0.221 11.04855,-1.98875 17.01475,-3.7565 12.8163,0 11.516,-2.89515 z"
       id="path3714"
       style="fill:#e45c36;fill-opacity:1;stroke:#ffffff;stroke-width:2;stroke-linecap:butt;stroke-linejoin:round;stroke-miterlimit:4;stroke-opacity:1;stroke-dasharray:none" />
  </g>
  <g
     transform="translate(760.12073,761.23234)"
     id="layer5"
     style="display:inline">
    <path
       d="m 815.33942,26.583046 -3.71095,-6.1328 -6.71875,-5.46875 -5.3125,-5 -9.0625,-4.375 -7.65625,-9.375 -9.53125,-7.96875 -6.5625,-8.75 -12.1875,-7.1875 -8.75,-7.1875 -9.0625,-9.6875 -4.0625,-10 -5.46875,-5 -4.21875,-8.125 -5.9375,-7.34375 -8.28125,-6.40625 c 0,0 -7.18775,-6.71875 -7.34375,-7.34375 -0.156,-0.625 -3.4375,-8.125 -3.4375,-8.125 l -6.5625,-8.593746 -5.3125,-9.0625 -6.71695,-6.79735 -12.24315,3.1066 -12.8163,0 -17.01475,3.7565 -11.04855,1.98875 -9.7227,0.221 -14.36315,-3.53555 -43.7522,-5.52425 -37.56505,-2.8726 -5.74525,-3.0936 -10.38565,-6.8501 -14.80505,-4.6404 -9.5017,-3.0936 -5.08235,-6.18715 -6.1872,-0.8839 -5.9662,5.0823 -8.3969,4.8614 -8.61785,5.0823 -15.68895,11.04855 -7.95495,6.62915 -7.29205,15.6889 -2.2097,9.280796 -12.1534,12.1534 -15.6889,7.29205 -14.80505,6.18715 -6.40815,6.62915 -20.5503,7.292 -20.5503,11.4905 -1.32585,3.53555 -13.25825,-2.2097 -3.7565,-3.7565 -26.07455,-2.65165 -3.53555,-2.87265 -11.49045,0.221 -6.1872,4.64035 -8.3969,3.7565 -14.80505,3.75655 -14.58405,8.39685 -2.87265,5.3033 -4.19845,5.5243 0,4.86135 4.86135,5.3033 5.74525,2.2097 9.50175,4.86135 c 0,0 0.221,6.1872 0.221,7.734 0,1.5468 -6.40815,6.8501 -6.40815,6.8501 l -14.80505,9.7227 -12.3744,3.7565 -12.37435,13.25825 -8.3969,11.04855 -8.222,4.86385 1.8135,8.17345 5.0823,9.0598 4.41945,9.7227 7.29205,5.74525 9.50175,11.490504 8.61785,8.61785 8.83885,8.3969 13.03725,12.59535 7.95495,8.83885 2.4307,6.40815 -2.87265,6.18715 -3.7565,7.29205 -5.9662,6.62915 -3.7565,9.28075 0,10.16465 4.4194,11.93245 2.65165,8.61785 3.7565,12.1534 6.62915,13.47925 4.4194,19.4454 3.0936,17.6777 4.6404,20.5503 c 0,0 0.88385,12.8163 0.88385,13.70015 0,0.8839 0.442,12.1534 0.442,12.1534 l -1.76775,22.981 -3.31455,7.29205 -4.86135,5.0823 -7.51305,8.3969 -4.19845,8.17595 -6.40815,7.07105 -3.0936,5.74525 0.221,5.52425 3.0936,7.734 3.7565,6.18715 3.31455,6.62915 4.4194,7.513 0.442,8.61785 -1.10485,8.6179 -5.0823,12.59535 -4.6404,19.6664 -0.6629,5.9662 0.221,8.83885 -3.9775,12.1534 -3.31455,11.49045 c 0,0 -3.97745,12.5954 -4.86135,12.1534 -0.8839,-0.442 -1.5468,13.9212 -1.5468,13.9212 l -5.08235,2.8726 0.221,4.6404 5.3033,3.31455 4.86135,0.221 10.38565,2.4307 5.3033,-1.76775 7.73395,-4.8614 5.3033,-3.97745 8.3969,-0.221 13.0373,0 8.3969,3.7565 12.5953,-1.10485 7.29205,-3.53555 3.53555,-4.86135 10.16465,-6.1872 7.07105,-3.0936 5.74525,-5.3033 6.62915,-6.6291 4.86135,-0.8839 4.4194,6.6291 4.41945,7.51305 7.07105,7.513 6.62915,10.6066 7.07105,6.1872 3.53555,9.7227 11.9324,7.95495 12.8163,3.97745 7.51305,7.955 17.67765,7.95495 7.513,2.65165 7.95495,10.16465 14.0622,13.1131 8.90625,11.875 14.0625,13.4375 c 0,0 14.6875,4.68775 15.3125,4.84375 0.625,0.156 20,3.28125 20,3.28125 l 11.5625,2.03125 38.4375,0.625 24.375,-0.469 12.9005,0.9475 1.63075,-5.16605 8.90625,-12.5 5.3125,-7.8125 6.5625,-7.8125 -1.5625,-18.125 -4.375,-8.125 -1.875,-17.1875 3.75,-11.5625 3.4375,-9.0625 7.1875,-9.375 -0.3125,-10.625 -5.9375,-9.6875 -5,-12.1875 -3.75,-10.3125 -7.1875,-15.3125 -0.9375,-16.25 12.1875,-15.625 8.75,-11.875 6.5625,-19.375 1.875,-35.3125 c 0,0 5.3125,-9.375 6.25,-10.9375 0.9375,-1.5625 3.75,-8.4375 3.75,-8.4375 l -2.1875,-7.8125 -12.1875,-12.1875 -6.71875,-5.78125 -10.39065,-4.4531 -4.1406,-6.40625 1.71875,-6.7969 8.35935,-12.2656 3.59375,-9.14065 c 0,0 3.90615,-5.93775 4.14065,-6.40625 0.2345,-0.4685 -7.03125,-3.5156 -7.03125,-3.5156 l -7.1875,-5 -9.53125,-2.57815 -9.53125,-10.9375 -6.01565,-6.25 -3.75,-8.125 5,-6.25 5.39065,-10.0781 8.90625,-5.3125 10.46875,-5.07815 11.17185,-5.0781 3.28125,-7.4219 1.7969,-6.17185 4.375,-9.375 4.29685,-11.64065 5.3125,-10.625 5.2344,-9.21875 9.7656,-10.78125 4.6094,-9.84375 5,-11.40625 5.23435,-8.125 0.78125,-19.84375 2.1875,-10.937504 3.20315,-6.09375 2.65625,-11.71875 10.9375,-10.9375 1.17185,-8.59375 8.0469,-5.85935 15.78125,-6.25 10.3125,-2.7344 c 0,0 8.75,3.04675 9.4531,3.28125 0.70315,0.2345 16.7969,4.14065 16.7969,4.14065 l 2.96875,2.96875 15.3906,-2.8125 10.07815,-4.45315 10.0781,-5.15625 8.0469,-4.21875 14.0625,-4.92185 6.3672,-4.41405 z"
       id="path3761"
       style="fill:#e45c36;fill-opacity:1;stroke:#ffffff;stroke-width:2;stroke-linecap:butt;stroke-linejoin:round;stroke-miterlimit:4;stroke-opacity:1;stroke-dasharray:none" />
  </g>
  <g
     transform="translate(760.12073,761.23234)"
     id="layer4"
     style="display:inline">
    <path
       d="m 593.03472,641.85645 5.9375,6.40625 c 0,0 4.0625,4.375 5.9375,4.375 1.875,0 4.0625,10 4.0625,10 l 5.625,8.4375 0.9375,9.375 -2.8125,9.375 -1.25,12.1875 -0.3125,23.125 -2.1875,14.6875 -2.8125,20.3125 -4.0625,10 0.3125,20.625 3.4375,15.9375 4.0625,10.625 5.625,4.6875 -0.3125,11.875 -4.0625,11.5625 -6.25,10.625 -5,9.6875 -4.6875,10.9375 0.9375,15.625 2.5,14.0625 3.4375,17.1875 3.4375,9.375 3.4375,8.4375 4.375,7.5 5.625,5 6.875,-1.25 8.75,-3.125 5.3125,-3.4375 3.4375,3.125 c 0,0 2.8125,5.3125 3.4375,6.5625 0.625,1.25 3.4375,2.1875 3.4375,2.1875 l 2.8125,8.125 3.125,8.4375 5.9375,0.625 6.5625,-2.1875 4.375,-3.4375 5.3125,-2.5 5.625,-3.125 10.625,-4.0625 6.875,-3.125 5,-7.5 7.1875,0 5.3125,5.3125 6.5625,5 11.40625,5.625 9.53135,5.4688 7.1875,7.1875 13.75,7.96875 4.61275,4.35905 2.90025,3.05195 -5.85565,12.44325 -2.65165,9.9437 -5.74525,7.513 -5.96625,6.8501 -10.16465,5.5243 -7.73395,11.7114 -4.8614,11.9325 -4.64035,3.5355 -16.57285,-3.7565 -7.95495,-2.4307 -11.2695,-3.7565 -6.6291,-0.221 -5.3033,4.1985 -5.96625,4.4194 -5.3033,7.292 -4.86135,7.513 -0.8839,4.8614 2.4307,5.0823 4.86135,9.2808 7.734,11.9324 5.52425,9.2808 5.96625,11.0486 1.9887,7.7339 4.41945,7.513 3.97745,11.4905 5.9662,5.0824 7.29205,6.1871 8.17595,3.9775 4.4194,6.4082 1.76775,11.4905 -12.5953,6.8501 -6.4082,0 -14.1421,4.8613 -17.4567,1.1049 -10.6066,5.0823 -11.93245,6.6291 -13.25825,5.0824 -9.50175,6.8501 -8.61785,4.4194 -4.19845,7.9549 -3.31455,15.026 -1.7678,6.4082 -8.61785,-2.4307 -7.07105,-5.3033 -5.96625,-5.0823 -8.8388,1.1048 -3.3146,-4.4194 -10.3856,-0.6629 c 0,0 -5.08235,5.7453 -5.9662,6.4082 -0.8839,0.6629 -5.96625,6.6291 -5.96625,6.6291 l -4.19845,8.1759 -8.61785,13.4792 c 0,0 -8.39685,8.8389 -8.61785,9.7228 -0.221,0.8838 -9.72275,6.4081 -9.72275,6.4081 l -5.0823,2.8726 -10.16465,0.442 -4.86135,5.7453 -5.96625,6.6291 -5.74525,6.1872 -2.8726,5.3033 -5.3033,2.4307 -8.83885,-2.4307 -5.9662,-3.3146 -10.38565,-5.9662 -10.82755,-3.5355 -11.93245,-0.6629 -9.28075,3.5355 -4.6404,1.7678 -2.2097,4.8613 -4.4194,0.221 -3.75655,-3.9774 -7.292,-11.7115 -11.93245,-11.0485 -7.73395,-8.8389 -10.8276,-3.9775 -13.0373,-13.7001 -6.18715,-8.3969 -13.7002,-13.2583 -4.86135,-2.2097 -11.71145,0 -7.51305,2.4307 -5.3033,1.7677 -17.01475,1.9888 -5.3033,-2.4307 -6.6291,-9.2808 -10.38565,-10.1646 -14.3631,-5.5243 -9.0598,-9.7227 -11.2695,-6.8501 -6.62915,0.442 -5.3033,6.6291 -18.3406,7.513 -18.1196,0.221 -15.9099,-5.3033 c 0,0 -8.61785,-6.6291 -9.28075,-7.7339 -0.66295,-1.1049 -7.95495,-7.734 -7.95495,-7.734 l -5.96625,-15.689 c 0,0 -5.96615,-15.4679 -6.18715,-16.7937 -0.221,-1.3259 -6.62915,-13.0373 -6.62915,-13.0373 l -7.07105,-13.7002 -4.41945,-9.2808 -5.52425,0.442 -6.1872,2.4307 -6.40815,4.6404 -3.97745,2.4307 -7.95495,0.6629 -7.51305,-4.4194 -9.50175,-7.513 -10.6066,-9.0598 -10.3856,-8.8389 -6.1872,-2.2097 -14.3631,1.7678 -11.2695,9.0598 -8.3969,9.9437 -9.7227,7.0711 -13.0373,12.5953 -12.37435,13.4792 -13.7002,7.2921 -11.71145,4.4194 -26.95845,5.0823 -3.0936,4.4194 c 0,0 -16.7938,-0.8839 -18.56155,-1.5468 -1.7678,-0.6629 -15.9099,-8.8388 -15.9099,-8.8388 l -11.26955,-5.3033 -6.6291,-12.5953 c 0,0 -3.9775,-19.6665 -3.9775,-20.5503 0,-0.8839 -7.292,-11.7115 -7.292,-11.7115 l -8.6179,-7.513 -35.5763,-1.5468 -8.3969,-6.1872 -8.1759,-8.1759 -19.2245,-10.8276 -15.9099,-6.8501 -13.03725,-5.5242 -19.8874,-2.6517 -13.25825,-1.1049 -17.67765,2.4307 -10.8276,3.9775 -4.86135,3.3146 -5.74525,0.221 -5.9662,-7.513 -1.76775,-9.2808 -2.4307,-21.8761 -0.8839,-24.5278 -0.442,-8.8388 5.0823,-9.28075 2.2097,-10.1647 1.5468,-6.8501 4.41945,-9.28075 7.07105,-7.95495 0.442,-16.5728 -2.65165,-15.468 c 0,0 -8.8388,-10.6066 -9.2808,-11.49045 -0.442,-0.8839 -8.1759,-4.86135 -8.1759,-4.86135 l -15.247,-4.41945 -11.71145,-2.43065 -5.74525,-7.95495 -7.95495,-9.9437 -5.9662,-9.9437 -16.1309,-3.53555 -18.1196,-2.8726 -19.22445,-3.31455 c 0,0 -11.4905,-5.0823 -12.3744,-5.5243 -0.88385,-0.442 -9.50175,-6.8501 -9.50175,-6.8501 l -10.6066,-8.3969 -10.16465,-9.50175 -21.65515,-14.3631 -11.2695,-9.50175 -13.0373,-9.28075 -8.39685,-4.19845 -18.78255,-6.40815 -8.61785,-3.31455 -5.9663,-5.30335 -17.89865,-8.6179 -7.51305,-3.7565 -17.01475,-9.50175 -13.4792,-8.1759 -10.38565,-5.5243 -8.61785,-6.8501 -9.0598,-3.5355 -4.86135,-2.65165 -8.3969,0.221 -3.9775,0.6629 -7.95495,8.6179 -3.7565,3.97745 -4.19845,4.41945 -15.026,0 -5.9662,-5.5243 -9.2808,-3.0936 -7.95495,-5.74525 -13.7002,-4.19845 -6.40815,-5.7452 -8.61785,-13.47925 -5.5243,-9.28075 -1.9887,-11.4905 -3.0936,-18.56155 -0.221,-32.0408 -3.31455,-5.9662 -2.2097,-23.6439 1.3258,-23.64385 5.08235,-3.3146 11.04855,-4.1984 3.97745,-1.98875 9.2808,-5.5243 8.1759,-3.09355 9.05985,-5.30335 7.513,-7.95495 9.28075,-8.39685 9.2808,-8.3969 1.76775,-6.62915 3.53555,-9.28075 5.52425,-8.3969 4.41945,-8.17595 0.442,-12.1534 4.6404,-16.3518 3.53555,-5.96625 5.3033,2.2097 7.513,3.75655 8.3969,2.8726 c 0,0 8.61785,4.19845 10.6066,6.1872 1.98875,1.9887 17.89865,5.0823 17.89865,5.0823 l 7.29205,3.9775 8.61785,3.0936 11.2695,3.31455 13.47925,3.97745 4.19845,3.0936 5.9662,3.7565 8.61785,4.6404 9.9437,4.6404 9.50175,4.19845 c 0,0 9.7227,6.18715 9.7227,7.07105 0,0.8839 13.47925,6.40815 13.47925,6.40815 l 8.61785,5.74525 3.53555,5.5243 8.8388,5.9662 9.72275,0 5.7452,-3.31455 3.75655,-3.53555 14.1421,-8.17595 3.3146,-7.292 6.85005,-4.41945 c 0,0 3.9775,3.3146 5.3033,4.41945 1.32585,1.10485 5.08235,7.73395 5.08235,7.73395 l 8.61785,9.9437 7.0711,2.65165 5.3033,-4.19845 9.28075,-3.7565 5.96625,-3.97745 5.3033,-7.51305 4.1984,-6.40815 0.221,-6.40815 -3.31455,-4.86135 -3.9775,-10.8276 -2.65165,-4.1984 2.65165,-5.74525 2.2097,-11.93245 7.95495,-6.8501 17.6777,-2.8726 43.9732,-0.221 3.97745,-1.5468 4.6404,-5.7452 1.98875,-5.96625 -1.98875,-7.95495 -4.4194,-5.52425 -21.4342,-3.9775 -9.50175,-2.2097 -19.4454,-1.98875 -6.62915,-2.2097 -4.19845,-5.52425 -2.65165,-11.4905 -4.19845,-7.73395 -1.98875,-11.04855 -7.73395,-6.62915 -10.16465,-2.43065 -7.734,-3.53555 -10.82755,-4.86135 -6.1872,-2.20975 -4.6404,-8.61785 -3.0936,-8.8388 -9.28075,-9.50175 -4.41945,-13.0373 -8.39685,-9.50175 -7.51305,-5.08235 -11.9324,-9.94365 -8.3969,-5.96625 -3.7565,-7.95495 -2.87265,-7.73395 -3.5355,-9.0598 -2.65165,-16.57285 -2.2097,-8.61785 -2.87265,-15.68895 -3.31455,-9.7227 -3.31455,-9.0598 -10.8276,-5.74525 -8.3969,-1.98875 -4.86135,-5.52425 -6.6291,-6.40815 -6.1872,-3.31455 -6.1872,-3.3146 -8.1759,-3.97745 -6.8501,-1.5468 -2.65165,-8.3969 -4.19845,-14.5841 -2.87265,-6.6291 1.5468,-9.0598 3.9775,-2.65165 3.53555,-6.40815 5.7452,-9.50175 3.3146,-8.6179 3.97745,-9.0598 2.4307,-10.3856 3.97745,-5.08235 5.08235,-7.513 0.221,-3.31455 -3.7565,-4.861404 -11.2695,-7.07105 -8.83885,-4.86135 -5.9662,-5.3033 -11.04855,-4.19845 -5.08235,-4.86135 -4.86135,-3.53555 -6.40815,-12.8163 -3.97745,-10.16465 -4.41945,-7.734 -3.7565,-4.86135 0.221,-7.29205 2.43065,-6.1872 0,-8.61785 4.86135,-10.16465 10.6066,-4.86135 c 0,0 7.29205,-3.7565 7.955,-4.6404 0.6629,-0.8839 8.1759,-5.3033 8.1759,-5.3033 l 10.82755,-7.07105 3.9775,-6.8501 3.97745,-11.71145 1.98875,-7.29205 -1.98875,-8.3969 -3.97745,-26.95845 -3.7565,-12.37435 -4.86135,-9.722746 -12.59535,-11.04855 -8.3969,-5.7452 -5.74525,-8.17595 -0.221,-9.0598 2.2097,-6.1872 4.19845,-4.4194 10.16465,-3.7565 22.53905,-7.07105 6.6291,-5.08235 1.76775,-39.3328 3.53555,-4.19845 7.734,-9.72275 5.9662,-6.6291 3.9775,-2.2097 c 0,0 5.0823,3.5355 8.1759,4.4194 3.0936,0.8839 7.07105,2.65165 7.07105,2.65165 l 16.1309,6.40815 13.03725,1.5468 c 0,0 42.6474,1.9887 44.8571,2.4307 2.2097,0.442 11.2695,3.31455 11.2695,3.31455 l 10.8276,7.513 10.82755,6.40815 17.01475,0 14.5841,-3.97745 34.2505,-2.65165 9.0598,-6.62915 15.46795,-4.19845 10.3005,-7.8711 8.0401,8.42355 9.39125,9.1703 5.08235,10.71705 6.5186,10.27515 2.76215,19.44545 1.6573,14.4736 4.75085,10.93805 c 0,0 5.3033,13.5897 5.9662,14.69455 0.66295,1.10485 7.40255,10.6066 7.40255,10.6066 l 3.65405,7.5539 9.6875,3.437496 9.0625,7.1875 12.1875,10.625 6.5625,10.3125 9.0625,9.375 10,11.25 2.5,6.5625 5,5 13.125,3.4375 13.125,5.625 c 0,0 4.375,8.75 5.625,8.75 1.25,0 13.125,3.125 13.125,3.125 l 7.8125,6.25 11.5625,2.1875 8.75,15.3125 7.5,7.8125 5.3125,4.0625 c 0,0 16.5625,3.4375 18.125,3.125 1.5625,-0.3125 9.6875,0.9375 9.6875,0.9375 l 8.4375,0 12.5,-1.875 16.875,-4.0625 14.375,-1.5625 7.5,0.3125 18.4375,4.375 21.25,4.375 25.625,4.375 19.6875,0 23.125,-0.9375 11.875,-2.5 20.625,0 10,5.3125 9.6875,5 10.9375,1.25 10.3125,11.5625 7.3505,9.60325 1.93075,8.1832 5.0823,9.0598 4.41945,9.7227 7.29205,5.74525 9.50175,11.490504 8.61785,8.61785 8.83885,8.3969 13.03725,12.59535 7.95495,8.83885 2.4307,6.40815 -2.87265,6.18715 -3.7565,7.29205 -5.9662,6.62915 -3.7565,9.28075 0,10.16465 4.4194,11.93245 2.65165,8.61785 3.7565,12.1534 6.62915,13.47925 4.4194,19.4454 3.0936,17.6777 4.6404,20.5503 c 0,0 0.88385,12.8163 0.88385,13.70015 0,0.8839 0.442,12.1534 0.442,12.1534 l -1.76775,22.981 -3.31455,7.29205 -4.86135,5.0823 -7.51305,8.3969 -4.19845,8.17595 -6.40815,7.07105 -3.0936,5.74525 0.221,5.52425 3.0936,7.734 3.7565,6.18715 3.31455,6.62915 4.4194,7.513 0.442,8.61785 -1.10485,8.6179 -5.0823,12.59535 -4.6404,19.6664 -0.6629,5.9662 0.221,8.83885 -3.9775,12.1534 -3.31455,11.49045 c 0,0 -3.97745,12.5954 -4.86135,12.1534 -0.8839,-0.442 -1.5468,13.9212 -1.5468,13.9212 l -5.08235,2.8726 0.221,4.6404 5.3033,3.31455 4.86135,0.221 10.38565,2.4307 5.3033,-1.76775 7.73395,-4.8614 5.3033,-3.97745 8.3969,-0.221 13.0373,0 8.3969,3.7565 12.5953,-1.10485 7.29205,-3.53555 3.53555,-4.86135 10.16465,-6.1872 7.07105,-3.0936 5.74525,-5.3033 6.62915,-6.6291 4.86135,-0.8839 4.4194,6.6291 4.41945,7.51305 7.07105,7.513 6.62915,10.6066 7.07105,6.1872 3.53555,9.7227 11.9324,7.95495 12.8163,3.97745 7.51305,7.955 17.67765,7.95495 7.513,2.65165 7.95495,10.16465 14.0622,13.1131 8.90625,11.875 14.0625,13.4375 c 0,0 14.6875,4.68775 15.3125,4.84375 0.625,0.156 20,3.28125 20,3.28125 l 11.5625,2.03125 38.4375,0.625 24.375,-0.469 13.125,0.93775 z"
       id="path3741"
       style="fill:#e45c36;fill-opacity:1;stroke:#ffffff;stroke-width:2;stroke-linecap:butt;stroke-linejoin:round;stroke-miterlimit:4;stroke-opacity:1;stroke-dasharray:none" />
  </g>
  <g
     transform="translate(760.12073,761.23234)"
     id="layer6"
     style="display:inline">
    <path
       d="m 775.32302,993.02755 -3.30055,-2.9058 -4.61275,-4.35905 -13.75,-7.96875 -7.1875,-7.1875 -9.53125,-5.46875 -11.40625,-5.625 -6.5625,-5 -5.3125,-5.3125 -7.1875,0 -5,7.5 -6.875,3.125 -10.625,4.0625 -5.625,3.125 -5.3125,2.5 -4.375,3.4375 -6.5625,2.1875 -5.9375,-0.625 -3.125,-8.4375 -2.8125,-8.125 c 0,0 -2.8125,-0.9375 -3.4375,-2.1875 -0.625,-1.25 -3.4375,-6.5625 -3.4375,-6.5625 l -3.4375,-3.125 -5.3125,3.4375 -8.75,3.125 -6.875,1.25 -5.625,-5 -4.375,-7.5 -3.4375,-8.4375 -3.4375,-9.375 -3.4375,-17.1875 -2.5,-14.0625 -0.9375,-15.625 4.6875,-10.9375 5,-9.6875 6.25,-10.625 4.0625,-11.5625 0.3125,-11.875 -5.625,-4.6875 -4.0625,-10.625 -3.4375,-15.9375 -0.3125,-20.625 4.0625,-10 2.8125,-20.3125 2.1875,-14.6875 0.3125,-23.125 1.25,-12.1875 2.8125,-9.375 -0.9375,-9.375 -5.625,-8.4375 c 0,0 -2.1875,-10 -4.0625,-10 -1.875,0 -5.9375,-4.375 -5.9375,-4.375 l -5.8495,-6.24025 1.31825,-5.32225 8.90625,-12.5 5.3125,-7.8125 6.5625,-7.8125 -1.5625,-18.125 -4.375,-8.125 -1.875,-17.1875 3.75,-11.5625 3.4375,-9.0625 7.1875,-9.375 -0.3125,-10.625 -5.9375,-9.6875 -5,-12.1875 -3.75,-10.3125 -7.1875,-15.3125 -0.9375,-16.25 12.1875,-15.625 8.75,-11.875 6.5625,-19.375 1.875,-35.3125 c 0,0 5.3125,-9.375 6.25,-10.9375 0.9375,-1.5625 3.75,-8.4375 3.75,-8.4375 l -2.1875,-7.8125 -12.1875,-12.1875 -6.71875,-5.78125 -10.39065,-4.4531 -4.1406,-6.40625 1.71875,-6.7969 8.35935,-12.2656 3.59375,-9.14065 c 0,0 3.90615,-5.93775 4.14065,-6.40625 0.2345,-0.4685 -7.03125,-3.5156 -7.03125,-3.5156 l -7.1875,-5 -9.53125,-2.57815 -9.53125,-10.9375 -6.01565,-6.25 -3.75,-8.125 5,-6.25 5.39065,-10.0781 8.90625,-5.3125 10.46875,-5.07815 11.17185,-5.0781 3.28125,-7.4219 1.7969,-6.17185 4.375,-9.375 4.29685,-11.64065 5.3125,-10.625 5.2344,-9.21875 9.7656,-10.78125 4.6094,-9.84375 5,-11.40625 5.23435,-8.125 0.78125,-19.84375 2.1875,-10.937504 3.20315,-6.09375 2.65625,-11.71875 10.9375,-10.9375 1.17185,-8.59375 8.0469,-5.85935 15.78125,-6.25 10.3125,-2.7344 c 0,0 8.75,3.04675 9.4531,3.28125 0.70315,0.2345 16.7969,4.14065 16.7969,4.14065 l 2.96875,2.96875 15.3906,-2.8125 10.07815,-4.45315 10.0781,-5.15625 8.0469,-4.21875 14.0625,-4.92185 6.41335,-4.5031 4.9466,3.5369 5.74525,6.6291 12.8163,8.83885 8.3969,7.513 8.83885,8.3969 8.83885,5.74525 14.1421,8.3969 10.6066,11.4905 13.7002,7.07105 10.1647,6.629154 13.70015,7.07105 7.0711,5.74525 11.04855,4.4194 9.7227,4.4194 7.513,7.0711 7.95495,4.4194 11.4905,7.07105 10.6066,12.3744 8.39693,15.026 4.4194,21.2132 5.3033,10.6066 6.6291,5.3033 9.2808,15.02605 9.2808,13.25825 5.7452,11.9324 7.0711,7.513 15.026,6.62915 12.3744,14.14215 9.2807,7.95495 14.5841,13.25825 9.7227,7.513 10.1647,6.62915 c 0,0 4.4194,13.70015 4.8614,15.9099 0.442,2.2097 2.2097,17.67765 2.2097,17.67765 l 19.0035,10.6066 9.2807,3.53555 11.4905,10.16465 10.6066,8.83885 3.5356,10.6066 7.513,4.86135 2.2097,8.8388 9.2807,3.53555 14.1422,5.74525 14.1421,4.4194 9.7227,4.41945 8.3969,6.6291 15.468,6.1872 6.6291,4.86135 10.1647,3.9775 11.9324,2.65165 9.2808,7.95495 c 0,0 7.9549,3.5355 17.6777,4.4194 9.7227,0.8839 7.071,4.86135 7.071,4.86135 0,0 8.8389,3.9775 13.2583,4.86135 4.4194,0.8839 9.2807,6.1872 11.0485,6.1872 1.7678,0 14.1421,6.1872 14.1421,6.1872 l 11.4905,4.4194 17.2358,3.53555 5.7452,11.04855 0,17.67765 -6.1872,5.74525 c 0,0 -1.3258,7.513 -1.3258,9.28075 0,1.7678 2.6516,7.95495 2.6516,7.95495 l 4.4195,14.5841 6.1871,28.28425 1.3259,26.95845 3.0936,5.74525 5.7452,9.2808 5.7452,4.86135 7.955,8.3969 14.1421,9.28075 8.3969,7.0711 1.7678,10.16465 4.8614,2.65165 0.442,7.07105 -3.5355,7.0711 -4.4195,3.09355 -5.7452,13.25825 -5.3033,6.1872 -3.0936,19.44545 0.442,26.07455 -3.0936,7.95495 -6.1872,11.04855 -7.513,3.97745 -4.4194,6.1872 -10.6066,9.72275 -11.9324,3.97745 -8.8389,10.6066 -7.071,10.6066 -3.9775,4.86135 -1.7678,8.83885 -8.8388,7.513 -7.0711,8.3969 -5.3033,8.3969 -8.8388,5.74525 -6.6291,4.4194 -17.6777,3.53555 -9.7227,3.97745 c 0,0 0,7.95495 0,9.72275 0,1.76775 0,16.79375 0,19.88735 0,3.0936 0,9.72275 0,11.93245 0,2.2097 -1.7678,16.35185 -1.7678,16.35185 l -8.8388,10.6066 -7.0711,6.6291 -8.8388,3.53555 -12.8163,11.9324 -10.6066,8.3969 -6.1872,7.95495 -3.0936,9.72275 -1.7678,8.3969 -6.6291,8.8388 -7.955,7.513 -4.8613,4.8614 -2.2097,7.9549 -5.3033,8.3969 -6.1872,11.4905 -7.955,15.4679 -4.8613,8.8389 -11.0486,10.6066 -5.3033,9.7227 -11.0485,0.8839 -6.6291,10.1646 -6.1872,7.955 -4.4194,11.9324 -1.7678,15.026 -2.6517,9.7228 -4.4194,7.9549 -7.9549,0.8839 -7.513,3.9775 c 0,0 -9.2808,3.9774 -11.0486,4.8613 -1.7677,0.8839 -9.2808,3.5356 -11.0485,4.4194 -1.7678,0.8839 -12.3744,7.5131 -12.3744,7.5131 l -13.2582,3.9774 -2.2098,6.1872 -13.7001,1.3258 -12.3744,0 -6.1872,-2.6516 3.0936,-4.4194 2.2097,-6.6292 4.8614,-6.6291 4.4194,-7.513 0,-7.513 -7.0711,-3.5355 -3.5355,-9.2808 -7.513,-10.1647 -6.6292,-11.9324 -6.1871,-8.3969 0,-7.9549 5.7452,-6.6292 -0.442,-15.026 -3.0936,-9.7227 -2.6517,-7.955 -4.4194,-8.3968 -7.0711,-3.9775 -7.071,-6.6292 -7.0711,-2.6516 -8.39693,-7.955 -7.513,-7.071 -10.6066,-4.4194 -5.74525,-7.513 -5.7452,-6.6292 -4.8614,-8.39685 -6.6291,0.442 -3.9775,4.86135 -4.86135,5.7452 -3.0936,8.8389 -4.86135,8.8388 -3.97745,2.2097 -7.0711,-3.5355 -5.3033,-5.7453 -8.8388,-8.3969 -7.51305,-3.9774 -3.97745,-6.62915 -5.3033,-11.04855 -2.65165,-11.49045 -6.62915,-3.9775 -8.3969,-3.0936 -10.16465,-6.18715 -5.74525,-4.41945 -6.6291,-2.65165 -4.4194,-5.3033 -1.7678,-8.8388 -7.95495,-3.0936 -7.513,7.07105 -6.1872,5.3033 -8.3969,8.3969 -6.18715,3.53555 -6.62915,7.07105 -8.3969,5.3033 -7.6468,5.02085 -5.78125,4.6875 -8.0469,6.875 -2.32105,5.07735 z"
       id="path3771"
       style="fill:#e45c36;fill-opacity:1;stroke:#ffffff;stroke-width:2;stroke-linecap:butt;stroke-linejoin:round;stroke-miterlimit:4;stroke-opacity:1;stroke-dasharray:none" />
  </g>
</svg>
