<?xml version="1.0" encoding="UTF-8" standalone="no"?>
<!-- Created with Inkscape (http://www.inkscape.org/) -->

<svg
   xmlns:svg="http://www.w3.org/2000/svg"
   xmlns="http://www.w3.org/2000/svg"
   version="1.1"
   width="488.93359"
   height="522"
   id="svg45670"
   style="display:inline">
  <defs
     id="defs434" />
  <g
     id="layer2"
     style="display:inline">
    <path
       d="m 339.08374,453.84224 0.051,0.0732 -1.39161,2.29287 -0.3975,2.32611 -0.11691,0.80738 -0.005,0.10482 0.30481,2.90189 0.40661,2.60251 0.13599,0.37399 0.2391,0.70209 0.0743,0.24872 0.64399,2.8685 0.0269,0.2033 0.0163,0.12909 -0.002,0.10889 -0.009,0.125 -0.009,0.112 -0.0398,0.16571 -0.19101,0.55688 -2.15011,5.13913 -0.066,0.14667 -0.0535,0.10822 -0.30981,0.52063 -0.0571,0.0891 -0.0571,0.0835 -0.97571,0.97742 -2.25454,2.80128 -1.69866,1.9878 -0.15121,0.177 -0.17871,0.22363 -0.1785,0.2273 -0.12949,0.20709 -0.14541,0.24701 -0.11139,0.23108 -0.0889,0.23303 -0.0439,0.19757 -0.004,0.0182 -0.0105,0.18512 0.004,0.21826 0.0462,0.39282 -0.4538,1.69959 -0.61922,0.91133 -1.62852,1.89221 -0.18601,0.23993 -0.11749,0.15729 -0.20242,0.3269 -0.0964,0.22864 -0.007,0.17786 0.0162,0.17608 0.0538,0.15485 0.09,0.17096 0.1807,0.36835 0.2995,0.62445 0.0568,0.19641 0.005,0.16943 -0.0356,0.62079 -0.0687,0.62732 -0.0467,0.11627 -0.0576,0.14172 -0.1275,0.29175 -0.98062,1.85095 -0.0728,0.13477 -0.0793,0.0892 -0.083,0.0888 -0.2258,0.17645 -0.15042,0.0888 -0.116,0.0504 -0.2846,0.11139 -0.20539,0.0467 -0.19751,0.0229 -0.1496,0.0288 -0.0968,0.0313 -0.18338,0.0617 -0.367,0.159 -0.15341,0.0698 -0.22889,0.11798 -0.42062,0.26349 -0.21438,0.15112 -0.15091,0.14136 -0.1211,0.12891 -0.1289,0.14514 -0.061,0.11517 -2.82959,5.3974 -0.021,0.14288 0.0203,0.14454 0.027,0.16949 0.0828,0.18543 0.203,0.37945 2.89261,3.82849 0.12479,0.1156 0.32779,0.21546 1.11801,0.61206 2.1738,1.12719 -0.12311,1.04364 -0.95789,2.31501 -0.18991,2.49585 -0.14499,1.75384 -0.017,0.11688 -0.10901,0.0848 -0.98099,0.7182 -0.10132,0.0704 -0.0974,0.0444 -0.16101,0.073 -0.0935,0.0203 -0.0781,-0.005 -0.0964,-0.0475 -1.94879,-1.40302 -0.12509,-0.10998 -0.63702,-0.92505 -2.35608,-3.37195 -2.08762,-2.5603 -3.46338,-4.1496 -3.70501,-1.78534 -0.14289,0.0839 -0.37091,0.19837 -0.25799,0.10065 -0.20591,0.0655 -0.2015,0.0453 -0.2052,0.0393 -4.4354,0.37158 -1.2612,4.9e-4 -0.0748,-0.0174 -0.1239,-0.14368 -0.058,-0.10999 -0.1059,-0.13092 -0.1474,-0.1062 -2.07989,-1.01977 -0.913,-0.40064 -0.17801,-0.0561 -0.25909,-0.0741 -0.20401,-0.0451 -0.15619,-0.0204 -0.14511,0.009 -5.5846,1.67798 -0.36319,0.156 -0.2662,0.15088 -0.2514,0.15772 -0.2601,0.23028 -0.3509,0.39002 -0.1026,0.14929 -0.0759,0.10089 -0.404,0.39124 -0.10852,0.085 -0.0975,0.0633 -0.13498,0.0734 -0.13891,0.075 -0.1381,0.0713 -1.2688,0.56231 -0.12731,0.0477 -0.56629,0.0322 -4.4e-4,-2.5e-4 -3.35461,-0.5318 -1.5441,-0.52911 -0.17029,-0.0479 -0.48279,-0.0472 -0.14532,0.005 -0.34668,0.0447 -0.1228,0.0313 -0.0901,0.0583 -0.71738,0.51409 -0.0461,0.0826 0.0588,0.34295 0.0596,0.27552 0.0642,0.1668 0.0367,0.0857 0.621,1.0957 0.41901,0.66193 0.1159,0.16357 0.13498,0.2497 0.0718,0.21069 0.0422,0.14441 0.0175,0.10101 0.0234,0.18231 -0.0275,1.21515 -0.0152,0.56433 -0.12411,1.23908 -0.0667,0.49994 -0.0238,0.12396 -0.028,0.14612 -1.09659,4.94678 -0.1048,0.28833 -0.37399,-0.1059 -0.22552,-0.0636 -0.2081,-0.0622 -0.71418,-0.2146 -0.12912,-0.0463 -2.5,-1.00549 -0.23278,-0.11872 -1.08402,-0.74456 -2.2951,-1.57465 -0.0625,-0.084 -0.46118,-0.8479 0.0691,-0.15747 0.28329,-0.61744 0.0996,-0.19476 0.16361,-0.32104 0.1109,-0.19758 0.0676,-0.0959 3.53519,-4.61572 -0.61618,-1.20038 -0.36331,-0.90723 -0.9542,-2.42859 -0.0629,-0.27569 -0.94748,-2.77806 -0.069,0.13047 -0.068,0.0771 -0.0837,0.0946 -3.93811,4.44598 -4e-4,1.3e-4 -0.60259,0.58315 -0.80889,6.5209 -5.35541,-3.25513 -0.18429,0.16352 -2.19501,2.0982 -1.52069,2.08185 -0.0577,0.0949 -2.15179,2.84241 -0.24192,0.31659 -0.0734,0.088 -0.1369,0.10528 -1.03009,-0.87084 -0.0584,-0.0762 -0.1066,-0.46521 -0.14069,-0.5957 -0.1427,-0.18451 -0.0769,-0.0964 -0.1919,-0.0964 -0.238,-0.0606 -0.0811,-10e-4 -3.46995,0.89639 -0.63417,-1.6e-4 -4.1022,-0.24579 -0.16309,-0.0452 -0.0656,-0.0748 -0.0364,-0.0913 -0.0316,-0.11713 -0.1102,-0.0916 -0.20819,-0.0732 -0.12921,-0.0105 -0.246,0.0534 -2.0975,0.57258 -0.0859,0.0475 -1.4837,0.9079 -0.0638,0.0437 -1.60019,1.68579 -0.86679,0.99347 -0.1134,0.0961 -0.0936,0.0563 -0.20501,0.0342 -1.66278,0.067 -1.98063,-0.35296 -2.8081,-0.59052 -0.2153,-0.0135 -1.79508,-0.0861 -0.13022,0.003 -0.13009,0.014 -0.1312,0.0627 -0.1268,0.0725 -0.13199,0.12658 -1.29001,1.26801 -1.51821,-4.39069 -0.5207,-2.55572 -0.0551,-0.0739 -1.42541,-1.82978 -0.0881,-0.0728 -4.78149,-3.12232 -0.43601,-3.82086 0.0948,-0.16711 0.091,-0.16559 0.0245,-0.2254 -0.0541,-0.13959 -1.19909,-1.5633 -0.12851,-0.13244 -1.13211,-0.88336 -0.69761,-1.77301 -1.5231,-4.87909 -0.0474,-0.15412 -0.0243,-0.15411 -0.009,-0.15857 0.0289,-0.19122 0.0498,-0.15009 0.072,-0.1427 3.94501,-6.60681 0.0723,-0.11639 0.083,-0.0929 0.0892,-0.0887 0.93762,-0.90021 0.61512,0.72833 0.36152,-0.1604 0.26361,-0.16669 0.1351,-0.10009 0.17249,-0.13092 0.49551,-0.41688 0.12439,-0.1347 0.10922,-0.11902 0.4151,-0.46838 0.0675,-0.0791 0.0878,-0.17151 0.40051,-0.79279 0.0694,-0.17291 0.0285,-0.2514 -0.009,-0.25238 -0.0394,-0.13282 -0.97518,-2.94173 0.0649,-0.31612 0.0109,-0.17389 -0.011,-0.2395 -0.054,-0.11713 -0.0628,-0.0351 -2.15152,-1.0102 -0.1149,-0.0355 -1.03018,-0.11059 -0.99741,-0.0967 -0.61691,-0.0418 -0.65238,-0.003 -1.40332,0.0289 -0.0906,0.0472 -0.35599,0.2854 -0.0877,0.0982 -0.36349,0.6004 -0.0495,0.10498 -0.10871,0.68854 -0.008,0.67578 0.003,0.11298 0.043,0.12182 0.0578,0.0873 0.0921,0.0881 -3.80051,1.72046 -4.51111,1.20623 -0.16369,0.0433 -0.12699,-0.0782 -0.10202,-0.0903 -0.0337,-0.0628 -0.0426,-0.16309 -0.29221,-1.50757 -2.79622,-1.99632 -1.3582,0.16677 -3.82291,-1.22565 -1.19431,-0.63941 -0.15159,-0.0834 -0.108,-0.0762 -1.26979,-0.69245 -1.9592,-0.94586 -3.0079,-0.40327 -1.71629,0.58648 -0.13499,0.16406 -0.46351,0.59674 -0.0759,0.11609 -0.0669,0.2409 -0.0713,0.5105 -3.9e-4,0.008 -0.005,0.0898 -3.02881,3.40497 -1.12728,0.30401 -0.43221,0.06 -0.2905,0.0899 -0.1056,0.0555 -0.116,0.0886 -0.17261,0.14618 -0.0828,0.0743 -1.6498,1.5614 -0.0789,0.005 -0.10989,-0.0763 -0.2444,-0.2052 -0.0772,-0.0662 -0.0589,-0.0685 -1.0082,-1.5824 -0.0179,-0.0822 0.005,-0.12183 0.0432,-0.25397 0.0864,-0.77862 -0.524,-1.6496 -0.1017,-0.2185 -0.2187,-0.17865 -0.1444,-0.0809 -4.16521,-0.8471 -0.10829,0.007 -0.1082,0.0291 -0.1239,0.0993 -0.1094,0.12292 -0.47161,0.65827 -0.0636,0.0965 -0.5766,1.42053 -1.47319,0.24549 -2.2971,-2.29163 -1.1369,-2.28729 -3.9756,-1.33618 -5.5728,0.72168 -2.14962,0.29917 -0.13975,1.57291 -0.0468,0.19928 -0.0567,0.1159 -0.1136,0.19782 -0.10469,0.16101 -0.11721,0.12237 -0.30799,0.23542 -0.0896,0.0664 -0.1951,0.14447 -0.10491,0.0595 -0.1116,0.0553 -0.1342,0.0403 -2.25951,2.75232 -3.37169,4.93628 -0.16771,0.87024 -0.0308,0.14789 -0.0804,0.1911 -0.0458,0.1073 -0.0937,0.13928 -0.0941,0.13184 -0.26071,0.36127 -0.10151,0.11993 -0.0899,0.0889 -0.1273,0.11603 -0.10451,0.0784 -0.263,0.19013 -1.08088,0.66986 -0.16881,0.0809 -0.13851,0.0494 -0.28329,0.0533 -0.17818,0.0103 -0.79093,0.25154 -0.2581,0.0891 -0.5599,0.23859 -0.1983,0.0974 -0.1239,0.0656 -0.134,0.0818 -0.12779,0.0859 -0.14971,0.11811 -0.23649,0.20904 -0.12401,0.11646 -1.48169,1.42645 -0.1203,0.14673 -0.0757,0.10498 -0.11319,0.16412 -0.0563,0.0934 -0.1026,0.18377 -0.15129,0.27393 -0.0716,0.18622 -0.0498,0.1427 -0.0425,0.13196 -0.0572,0.19854 -0.046,0.17878 -0.0241,0.19543 -0.006,0.19305 0.0318,0.27491 0.0423,0.20813 0.04,0.17218 0.14369,0.5899 0.0597,0.37293 0.0453,0.4281 -0.005,0.12549 -0.2829,2.20495 -1.6582,6.05975 -0.0812,0.27778 -0.0533,0.12738 -0.0714,0.1524 -0.0793,0.15363 -0.1019,0.13116 -0.4511,0.56476 -0.23649,0.23547 -0.10511,0.10077 -1.4674,1.0672 -0.51219,0.35712 -0.0793,0.0523 -0.28022,-0.72602 -1.0235,-2.61078 -0.0912,-0.20727 -0.10919,-0.22815 -0.0492,-0.0853 -0.0516,-0.0738 -0.12781,-0.1709 -0.13269,-0.12512 -0.1194,-0.095 -0.1421,-0.0953 -0.1311,-0.0562 -0.1245,-0.0217 -0.1246,-0.0126 -0.1159,0.0289 0.0239,0.11951 -0.1588,0.25189 -0.0645,0.0984 -0.0788,0.10858 -0.1978,0.0618 -0.13381,-0.0309 -0.9992,-0.64801 -2.4273,-3.38818 -0.41931,-3.34882 0.2041,-0.4541 0.0795,-0.0935 0.36771,-0.36829 0.0433,-0.008 0.0461,-0.008 0.0891,0.02 -4.7e-4,9e-5 -0.3862,-0.70721 -1.1469,-2.818 -0.0632,-0.18591 0.0878,-0.19556 0.06,-0.0813 0.0992,-0.26642 -0.002,-0.3899 -0.0239,-0.112 -3.797,-5.57678 -0.9238,-0.41424 -0.31269,-0.11481 -0.11881,-0.13458 -0.5114,-0.60987 -0.7991,-0.9989 -0.19929,-0.42395 -0.12452,-0.31097 -0.0187,-0.0785 -0.001,-0.0553 0.1473,-1.034 0.0864,-0.22381 -2.61369,-0.65589 -7.2314,-7.09741 -0.0559,-0.0664 -0.14591,-0.29327 0.1272,-0.72772 -0.5471,-0.655 -0.8859,-1.634 0.0625,-2.37171 0.3074,-2.1842 0.0109,-0.0516 -0.6935,-1.61431 -3.02479,-3.9918 -0.1819,-0.2117 -0.42961,-0.18539 -0.10781,-0.0457 -0.20019,-0.0603 -0.13809,-0.0199 -0.11551,0.0213 -0.0638,0.044 -0.0866,0.10059 -0.31791,0.20892 -0.1347,0.0856 -0.0823,0.037 -0.1046,0.0296 -0.0895,0.003 -3.5316,-0.0966 -0.2155,-0.0859 -0.73131,-0.87091 0.0422,-0.2702 0.043,-0.19498 0.0205,-0.0505 0.0196,-0.0212 0.1468,-0.046 0.4476,-0.60101 0.15011,-0.10318 7.85949,-4.11871 0.0406,-0.0143 0.1062,-0.0375 0.3593,-0.0834 0.25869,-0.0171 0.28701,-0.012 0.2876,0.007 0.0579,-0.31735 0.0244,-0.25561 0.005,-0.2218 -0.13001,-2.46549 -0.0423,-0.36209 -0.043,-0.24762 -1.0896,-2.3609 -0.1508,-0.21948 -1.0387,-1.2121 -0.3492,-0.16 -0.45351,-0.1828 -4.0699,-1.57731 -0.50599,0.10489 2.9e-4,4.9e-4 -0.0408,-0.2843 0.0272,-0.13058 0.0384,-0.11551 0.0528,-0.1163 0.0866,-0.1005 0.48649,-0.29391 0.18421,-0.1044 0.3663,-0.1507 0.2531,-0.0109 0.2861,0.0968 0.2495,0.15609 0.2297,0.11521 0.23101,0.0739 0.32339,0.0884 0.43961,0.0541 0.27659,-0.0824 2.0591,-0.69681 0.52701,-0.19479 0.16829,-0.0774 0.3219,-0.1785 1.4797,-0.92102 1.68401,-1.7529 0.2258,-0.35489 1.54039,-2.44961 0.5364,-1.4249 0.1496,-0.3826 0.2348,-0.43469 0.276,-0.43701 1.5815,-1.9375 2.93978,-4.71667 -0.35754,-0.36319 -0.278,-0.29181 -0.2173,-0.29099 0.009,-0.77161 0.11479,-0.81988 0.62531,-4.50971 0.1967,-0.36029 0.4227,-0.19513 0.4608,-0.16198 0.16299,-0.36719 0.0165,-0.23361 -0.0265,-0.35721 -0.0518,-0.52069 -0.0897,-0.46729 -0.1015,-0.39111 -0.1485,-0.54691 -0.39241,-1.3623 -0.22679,-0.53979 -0.0815,-0.12461 -0.34571,-0.1673 -0.155,-0.21298 -0.9257,-1.74811 -0.2522,-1.26019 -0.0425,-0.29642 -0.0241,-0.2687 0.017,-0.3031 0.1138,-0.65839 0.0619,-0.3222 0.2155,-0.35569 0.17641,-0.10861 0.63339,-0.33499 0.5097,-0.2579 1.34729,-0.88541 1.70501,-1.31281 0.1396,-0.15087 0.1779,-0.33591 0.0194,-0.1265 -0.0102,-0.10391 -0.0251,-0.12411 -0.4688,-1.53458 -0.7752,-1.81342 1.8229,-1.7828 3.6523,-1.50898 0.1146,-0.27682 0.766,-3.7645 -0.0416,-0.37979 -0.36152,-1.009 1.02381,-0.9809 0.4501,-0.22851 1.04,-0.22458 0.4056,0.1684 3.4226,0.23318 4.57139,-3.97528 0.20081,-0.24762 0.192,-0.6185 0.2047,-0.32989 2.10279,-1.32029 3.56341,-0.41601 0.5341,0.0413 0.30814,0.21438 0.16562,0.0398 0.2146,0.0464 0.1094,0.0125 0.1396,-0.0254 0.394,-0.1437 0.12421,-0.12421 1.16259,-1.3288 0.1625,-0.22458 0.20871,-0.36352 0.19259,-0.36728 0.063,-0.49002 -0.11451,-0.0985 -0.85,-0.63901 -1.1556,-1.12869 -0.2828,-0.548 -0.6615,-2.16141 -0.0592,-0.34711 0.78141,-3.10348 0.2847,0.005 0.8383,-0.21689 0.34199,-0.14071 0.4655,-0.31531 3.01322,-2.40179 -0.0575,-0.0955 -0.5781,-0.95072 -0.1729,-0.23508 -0.35569,-0.33392 -0.22692,-0.2055 -0.23109,-0.40128 -0.0992,-0.28952 -0.093,-0.38879 -9e-4,-0.004 -0.0519,-0.30969 0.0395,-3.62241 0.0528,-0.50329 0.10041,-0.32291 0.24089,-0.18991 1.0986,-0.7341 0.22861,-0.0593 0.4498,-0.059 -2e-4,-0.004 -0.0271,-0.40268 -0.0764,-0.22732 -0.11301,-0.3169 -0.2648,-0.449 -0.7907,-1.15879 -0.23309,-0.22532 -0.53059,-0.0688 -0.3055,-0.13831 -0.34869,-0.37851 -0.24671,-0.4231 -0.85,-1.88678 -0.1111,-0.4634 -2.3638,-1.29551 -6.915,-3.46231 -3.4102,-0.5787 -0.88479,0.36032 -0.36011,0.0681 -0.3779,-0.0103 -0.4843,-0.2027 -1.2355,-0.67761 -0.33451,-0.28131 -0.36419,-0.35691 -0.3183,-0.35897 -0.33679,-0.3866 -0.0925,-0.1087 -0.26381,-0.3096 -3.3716,-3.9516 -0.2811,-0.34482 -0.0338,-0.4216 0.16828,-0.45688 -0.36199,-1.97842 -1.6462,-0.9249 -0.19963,-0.94637 -0.16184,-0.12836 -0.31211,-0.32648 -0.2558,-0.29211 -2.90339,-3.34549 -1.15911,-1.96231 -0.16909,-0.4076 -0.0725,-0.73871 -0.0733,-6.34759 0.3488,-2.31851 0.7036,-0.99478 0.2612,-0.39341 0.24341,-0.4418 0.10038,-0.3305 0.19631,-3.07309 -0.0823,-0.079 -3.39731,-2.6897 -4.6781,-3.31149 -0.4948,-0.3346 -0.3922,-0.2366 -0.17365,-0.0729 -1.23735,-1.36254 -0.5272,-0.2149 -1.4553,-0.4534 -2.62339,2.409 -8e-5,-1.6e-4 -0.37561,-0.3422 -0.3046,-0.27679 -3.07429,-5.66642 -0.1523,-0.29339 -0.49102,-1.38849 -0.29305,-1.01622 -2.13596,-0.43632 -0.3163,-0.18561 -0.44,-0.3829 -0.2413,-0.25131 -0.1635,-0.189 -0.5454,-0.69909 -0.167,-0.24939 -0.0842,-0.27512 -0.1216,-0.35498 -0.1362,-0.28662 -0.18631,-0.16068 -1.30449,-0.92752 -1.0412,-0.7026 -1.8923,-1.00379 -0.449,-0.17111 -0.38919,-0.0144 -0.37081,-0.09 -0.44369,-0.21768 -0.52282,-0.26691 -3.3199,-1.81021 -0.27549,-0.25748 -3.8642,-2.75662 -1.0564,-0.67328 3e-4,5.3e-4 1.60559,-1.01162 -1.63389,-2.5066 -1.0706,-1.3735 -1.4945,-3.1134 0.1209,-0.2146 0.0763,-0.6464 0.0347,-0.3092 -0.10861,-1.1214 -0.0734,-0.26239 -0.2563,-0.24289 -3.6709,-3.04172 -0.57719,0.0676 -0.50991,0.005 -0.5659,-0.0969 -1.4382,-0.34451 -0.3137,-0.2471 -1.806,-1.44498 -2.727,-2.22592 -0.8175,-0.43179 0.2133,-1.57291 0.0214,-0.3649 -0.4768,-1.10489 -0.5543,-0.71039 -0.1825,-0.36322 -0.0769,-0.30829 -0.0947,-0.41491 0.1066,-0.20618 0.0999,-0.15851 0.0472,-0.0749 0.0531,-0.0655 0.1357,-0.11209 0.2668,-0.1868 0.3553,-0.22339 0.7188,-0.36172 0.9968,-0.5795 0.6152,-0.47458 0.6752,-0.61291 0.688,-0.7905 0.08825,-0.16757 -2.095045,-2.36456 -1.2988,-1.21701 -0.6361,-0.8237 -0.7821,-1.0281 0.2539,-0.1969 -4.6e-4,3.6e-4 0.7948,-0.21601 0.3555,-0.13308 0.007,-0.003 1.5849,-2.6987 0.1714,-0.4833 0.009,-0.19291 -2.9244,-6.64379 -1.6798,-3.49491 -0.678,-0.2066 -0.5701,-0.20221 -0.1004,-0.1767 2.6654,-3.56348 1.390845,-0.91677 -2.13937,-2.08357 -2.608315,1.08957 -0.5407,0.0631 -0.5601,0.0278 -0.3371,-0.10779 -1.8125,-1.5238 -0.0955,-0.38882 0.0247,-0.4039 0.0443,-0.53418 0.1098,-0.18351 0.2786,-0.10141 0.1814,-0.22708 -0.0312,-0.3612 -1.0256,-1.79782 -0.0871,-0.12857 -0.6895,-0.72223 -0.2361,-0.1492 -0.2954,-0.15909 -0.6336,-0.1655 -0.2739,-0.058 -0.3881,0.14792 -0.226,0.13919 -0.4666,0.18139 -0.4703,0.10602 -0.4392,-0.0288 -0.9122,-0.15979 -1.7784,-0.31421 -0.277,-0.21231 -0.265,-0.32409 -0.1293,-0.28769 -0.0583,-0.31632 -2e-4,-0.004 -0.0166,-0.36011 -2e-4,-0.004 0.0196,-0.2974 0.0349,-0.22778 -0.096,-0.17511 -1.111,-0.78519 -1.6278,0.21579 -0.4025,0.0736 -0.3983,0.1077 -0.6003,0.25708 -7.1e-4,9.3e-4 -0.006,0.002 -0.4275,-0.0861 -0.5922,-0.3219 -0.078,-0.1261 -0.8998,-1.69211 -1.1609,-1.4371 -1.436,-1.34259 -0.3632,-0.11511 -2.0252,-0.80719 -0.2319,-0.12979 -0.1458,-0.0854 -0.498,-0.43378 -0.369,-0.3797 0.728,-0.73102 3.6808,-6.83229 0.61685,-1.55631 0.14205,-1.10951 0.0621,-0.5064 0.0779,-0.5186 0.1237,-0.658 0.053,-0.1277 0.2317,-0.4226 0.0986,-0.12429 1.4424,-0.4628 1.427,-0.50711 0.8552,-0.3088 0.7725,-0.29611 0.373,-0.21299 0.6487,-0.3729 2.2137,-1.2886 1.9738,-1.9903 0.0645,-0.091 0.8832,-1.32891 0.7319,-3.04089 0.0312,-0.14239 -0.0181,-0.16102 -0.0448,-0.0729 -0.1118,-0.1324 -0.2841,-0.2917 -0.0823,-0.0606 -0.0751,-0.0451 -0.0865,-0.0496 -0.116,-0.05 -0.2401,-0.0873 -0.1084,-0.0225 -3.180852,0.20269 -0.166568,-0.0908 -0.0298,-0.0793 -0.0254,-0.0939 -0.0223,-0.1051 -0.0556,-0.1695 -0.0104,-0.15111 -0.005,-0.24839 -0.026,-0.327 0.0158,-0.1304 -0.0107,-0.0835 -0.0259,-0.1203 -0.0483,-0.14081 -0.0444,-0.11608 -0.0333,-0.0644 -0.0556,-0.12441 -0.0558,-0.10939 -0.0523,-0.10541 -0.0548,-0.16569 -0.03,-0.1469 0.0158,-0.14351 -0.007,-0.12458 -0.0514,-0.1015 -0.0757,-0.0752 -0.0213,-0.0861 -0.0183,-0.1179 -0.2515,-0.1201 -0.2185,-0.0831 -0.2104,0.1393 -0.3878,0.13481 -0.004,9e-5 -0.2936,0.004 -0.3796,-0.0691 -0.3227,-0.1104 -0.3459,-0.0444 -0.4207,-0.0875 -0.4002,-0.097 -0.4908,0.0718 -0.004,6.1e-4 -0.5265,0.0428 -0.3194,0.0987 -0.2392,-0.034 -0.3094,0.0611 -0.34,-0.0454 -0.1756,-0.2084 -0.1151,-0.25661 -0.2481,-0.14799 -0.3445,-0.19631 -0.2297,0.009 -0.1946,-0.0385 -0.2578,-0.22391 -0.3083,-0.15059 -0.3381,-0.179 -0.3709,-0.1421 -0.3304,-0.18219 -0.2476,-0.23072 -0.4013,-0.16299 -0.1651,-0.0799 -0.2807,-0.19741 -0.2582,-0.18249 -0.2507,-0.25341 -0.3068,-0.4418 -0.0585,-0.25239 -0.2164,-0.33541 0.0335,-0.1643 0.008,-0.0394 -0.2241,-0.2007 -0.1044,-0.1505 -0.0022,-0.2858 -0.2761,-0.291 -0.1095,-0.12091 -0.0745,-0.1427 -0.0807,-0.3517 0.0498,-0.17299 -0.0289,-0.207 -0.1345,-0.087 -0.1689,-0.1552 -0.3028,-0.069 -0.2538,0.0521 -0.6601,0.42501 -0.0041,0 -0.1546,0.003 -0.0039,9e-5 -0.2095,-0.16018 -0.2402,-0.0909 -0.32999,-0.17849 -0.1945,-0.28299 -0.2551,-0.20491 -0.3156,-0.0837 -0.2966,-0.027 -0.004,-3.9e-4 -0.1535,-0.0846 -0.30399,-0.0656 -0.19531,-0.11411 -0.4549,-0.0203 -0.004,-2.2e-4 -0.237,-0.0644 -0.2591,-0.1375 -0.2773,-0.0655 -0.1801,-0.2143 -0.1954,-0.0839 -0.3104,-0.0532 -0.054,-0.009 -0.274,-0.1104 -0.32719,-0.0353 -0.3894,-0.21279 -0.1464,-0.24561 -0.1037,-0.2896 -0.2018,-0.21969 -0.5215,-0.26941 -0.2405,-0.2789 0.0177,-0.4141 -0.1045,-0.28199 -0.3066,-0.32891 -0.1107,-0.3708 -0.0552,-0.2973 -0.1791,-0.3833 -0.0915,-0.50479 -0.598,-0.13971 -0.2658,-0.1962 -0.2356,-0.37621 -0.39761,-0.21339 -0.401,-0.2249 -0.21349,-0.30499 -0.3635,-0.26541 -0.0622,-0.3503 0.1974,-0.3333 -0.0066,-0.19211 -0.1245,-0.1351 -0.2359,-0.16009 -0.3078,-0.1673 -0.16109,-0.1546 -0.0398,-0.15891 -0.1431,-0.15149 -0.1949,-0.14579 -0.0739,-0.26101 -0.0938,-0.2174 -0.5457,-0.50791 -0.8447,-0.62008 -1.2193,-0.75481 -0.37189,0.0779 -0.9604,-0.1017 -0.004,-5.1e-4 -0.3573,-0.0429 -1.5148,-0.42461 -0.6307,-0.40509 -1.5343,-1.4044 -0.3173,-0.1687 -0.3717,-0.2659 -0.3524,-0.2719 -0.2959,-0.25461 -0.1071,-0.3517 -0.083,-0.79309 0.12,-0.18721 0.3778,-0.3145 0.2389,-0.38659 0.0744,-0.5076 -0.0015,-0.61659 -0.0143,-1.10231 -0.03429,-0.6552 -0.0975,-0.1871 -0.0993,-0.0381 -0.4842,-0.6942 -0.49631,-2.68061 -0.1624,-2.66949 0.0266,-0.15379 0.2656,-1.17591 0.076,-0.30079 1.1006,-3.67481 0.2348,-0.2742 0.18909,-0.18719 1.2749,-1.20942 0.670198,0.15904 -0.902627,-1.25141 -1.0146,-1.5024 -1.19379,-1.7617 -0.1685,-0.2491 -0.1334,-0.44009 0.002,-0.36261 0.1104,-0.3377 1.52931,-4.23359 0.185189,-2.37412 -1.814311,0.80988 -0.46349,0.1673 -0.3512,0.0665 -1.3776,-0.36358 -0.2819,-0.0919 -0.6395,-0.2646 -0.83479,-0.44051 -0.4352,-0.33989 -0.1675,-0.9125 1.29021,-0.8024 2.27769,-1.36011 0.65331,-0.22679 0.04179,-0.1873 0.24641,-1.3647 0.0628,-0.4261 -0.5324,-0.51399 -0.2597,-0.1205 -0.7119,-0.1985 -0.3498,-0.0856 -0.3279,0.0287 -0.9018,0.18429 -0.3845,0.1467 -0.3662,0.12559 -0.3847,0.0509 -0.2449,-0.1137 -0.9192,-1.0348 -1.9759,-2.31439 -1.2043,-1.6987 -6.1e-4,-2.3e-4 -0.1722,-0.18491 -0.2814,-0.26289 -1.0213,-0.93122 -0.2746,-0.23419 -0.4514,-0.23379 -0.4183,-0.0811 -0.4634,-0.002 -0.3617,0.0546 -0.2872,0.0224 -0.4021,-0.10058 -0.2673,-0.3013 -0.2628,-0.3329 -0.2133,-0.32001 -1.0293,-1.53999 5.8287,-1.1859 0.4485,-0.15401 0.1136,-0.0331 1.7733,-0.4104 0.1055,-0.0154 0.223,0.05 0.46999,0.1827 0.2823,0.1258 2.0991,0.94591 1.1162,0.50619 0.2698,-0.102 0.7976,-0.4399 0.0426,-0.12849 0.2065,-1.79671 -0.021,-0.118 -0.019,-0.0747 -0.38229,-1.4318 -0.18951,-0.5495 -0.37949,-5.67151 0.1735,-1.67318 0.8287,-1.72301 -2.7508,-1.49941 -0.3233,-0.14009 -0.1652,-0.0345 -0.5283,-0.10991 -0.083,-0.008 -0.3716,-0.0323 -1.3831,0.1901 -0.1846,0.0257 -0.2158,0.052 -0.15421,0.047 -0.1589,0.0599 -0.2644,0.12359 -0.2003,0.3012 -0.9077,-5.232 0.2567,-0.1261 0.4085,-0.1902 5.456,-1.0255 0.374,0.005 0.0057,2e-4 0.1937,0.005 0.0078,2.2e-4 0.1172,0.0668 0.1427,0.12511 0.0672,0.10629 0.01859,0.15361 -0.03979,0.3918 0.7643,1.26799 1.5766,1.76711 0.12431,0.0936 0.13949,0.0347 0.4742,0.1154 0.1661,0.0347 0.5405,0.1105 0.2926,-0.0284 0.19669,-0.0327 2.8209,-0.544 2.0952,-1.5479 2.2695,-0.2198 1.109,0.0415 4.5016,0.6563 3.7778,1.21161 2.8949,1.89979 4.4506,0.85829 2.386531,-1.30529 0.19663,-0.45478 0.0389,-0.25081 -0.1053,-0.16189 -0.571898,-0.87309 -0.2962,-0.4523 -0.11971,-0.14791 -0.1421,-0.1665 -0.2455,-0.6929 -0.3108,-2.5037 -0.02641,-0.703 0.0039,-0.1407 0.0624,-0.28101 0.159,-0.11979 0.5556,-0.26329 5.674498,-2.56202 0.1893,-0.0743 0.1923,-0.0665 1.4703,-0.44024 0.4458,-0.075 0.3828,-0.13701 0.5592,-0.20841 0.2759,-0.1411 0.1138,-0.0592 0.0914,-0.0571 0.1363,-0.1082 0.47,-0.41051 0.1024,-0.0939 0.1639,-0.1644 3.3659,-1.376397 4.4379,-1.1541 0.1629,-0.1044 0.126,-0.2217 0.1001,-0.297 0.0613,-0.19461 0.0547,-0.24398 0.0896,-0.45191 -0.0103,-0.2019 -0.0242,-0.27989 -0.0292,-0.20701 -0.0104,-0.21321 0.0313,-0.1969 0.0726,-0.13739 0.3627,-0.6419 0.0875,-0.1231 0.1025,-0.1352 0.5666,-0.70749 0.1263,-0.14281 0.0528,-0.0562 0.1672,-0.16791 0.0988,-0.0904 0.1626,-0.1194 0.24723,-0.141045 1.39373,-5.050945 1.1221,-4.9087 -0.0935,-0.1712 -0.0669,-0.1704 -0.0704,-0.1913 -0.0332,-0.166 0.009,-0.2079 0.0847,-0.2662 1.7164,-2.713 0.1102,-0.1345 0.0615,-0.073 0.068,-0.0808 0.1671,-0.1454 0.1858,-0.1232 0.273,-0.1487 1.0978,-1.0077 1.8672,-1.991 0.62968,-0.81977 0.67048,-0.97797 0.4857,-0.4507 0.0565,-0.0784 0.22158,-0.3724 0.065,-0.1229 0.0498,-0.109 0.0774,-0.3118 0.0238,-0.1091 0.023,-0.1167 0.7789,-4.1361 0.89211,-6.9672 0.013,-0.1907 -0.003,-0.1693 -0.0357,-0.3692 -0.0476,-0.199 -3.5233,-11.5992 -2.0538,-4.58759 -2.5966,-6.3745 -1.0953,-1.2352 0.3404,-3.7016 1.724,-3.917 4.6502,-6.392 1.1539,-0.5597 1.65171,-0.8962 0.13299,-0.0896 0.23689,-0.2622 0.11461,-0.1417 0.6443,-0.5303 1.09301,-0.6281 1.88459,-0.5927 0.24711,-0.0358 0.3291,-0.0128 1.15199,0.3519 4.93179,0.5795 0.24671,-0.0546 0.2277,-0.1331 0.5466,-0.3044 1.24939,-0.5068 0.95221,-0.2605 0.1856,-0.0404 0.3554,0.0438 0.2262,0.0397 0.0294,0.0063 0.20549,0.0435 0.2453,0.0693 3.02541,0.94 1.90511,1.9242 0.23019,0.0892 2.8313,0.8525 1.754605,0.2369 4.66699,0.3229 2.40311,-0.4373 1.83158,1.0757 0.75802,0.2425 11.21449,-1.449 2.87401,-1.5434 -0.0808,-0.2918 -0.0372,-0.1589 -0.002,-0.1204 0.0324,-0.27 0.0134,-0.0168 0.1281,-0.1602 1.29829,-1.3432 2.0383,-0.2243 0.34452,0.0078 1.54759,0.0613 0.2606,0.022 2.1532,0.5366 0.2683,0.0696 0.2408,0.1239 0.20739,0.11 3.73201,4.2711 0.59433,0.881 0.10015,0.198901 0.153,0.2073 0.0712,0.0919 0.16121,0.1742 0.0867,0.0574 0.12458,0.0266 0.18221,-0.0817 0.52051,-0.2678 0.2668,-0.1842 1.14448,-0.9974 1.98921,-1.129 0.2206,-0.0825 1.49449,-0.3912 0.0456,-0.0039 0.1628,-0.0137 0.261,0.0165 0.0928,0.1895 0.0546,0.2373 -0.0174,0.2147 -0.0432,0.1771 -0.0996,0.1482 0.0522,0.1055 0.0632,0.1215 0.0977,0.032 0.5533,-0.034 0.0244,-0.0092 0.15381,-0.0578 1.45298,-0.8058 0.17501,-0.1029 0.4841,-0.3494 0.22149,-0.2383 0.0925,-0.1622 0.5522,-1.5936 0.97661,-2.8761 0.77471,-3.5252 0.67469,-1.074 1.2361,-1.2143 0.13691,-0.0926 0.61718,-0.3972 0.23221,-0.1078 0.2502,-0.0425 1.40491,-0.0612 1.50949,0.1518 1.4338,-2.2387 -0.0164,-0.2644 0.003,-0.3493 0.008,-0.4353 0.10772,-0.5347 0.0859,-0.2658 0.1494,-0.1912 0.352,-0.4066 0.30899,-0.1994 0.28551,-0.1825 0.25841,-0.0868 0.22358,-0.0164 0.58732,-0.0404 0.27659,0.0066 0.25231,0.1157 0.27839,0.1928 0.0588,0.1944 0.0319,0.2111 -0.0365,0.2395 -0.0251,0.0882 2.2227,0.9524 5.8537,-2.2405 0.12801,-0.1088 0.0787,-0.0669 0.14621,-0.1974 0.0417,-0.0563 0.0768,-0.1274 0.86099,-1.6125 0.0906,-0.196 0.0257,-0.0558 0.0938,-0.3327 0.1194,-0.5452 0.004,-0.4392 1.48669,1.2897 0.12091,0.0208 0.25479,-0.1002 0.27001,-0.129 0.23289,-0.1621 0.0996,-0.1162 0.081,-0.1495 0.2928,-0.0953 1.0906,1.4747 0.1979,0.2806 1.3012,2.0213 1.45009,2.2192 0.16422,0.2234 0.18649,0.2515 0.16521,0.1333 0.1178,-0.0301 1.16819,-0.5222 0.2979,-0.2602 0.2294,-0.2074 0.20281,-0.217 0.29449,-0.283 1.82179,1.7903 1.11571,1.1062 0.0417,0.0416 0.1351,0.1347 1.4941,1.5954 1.30749,1.3044 0.49932,0.4004 3.46539,0.9159 1.8038,-1.9294 5.0345,1.1562 1.388,2.5065 0.2257,0.454 0.39,1.0308 0.0725,0.2895 0.0127,0.2115 -0.10741,0.4875 -0.194,0.413 -0.19999,0.3166 -0.3382,0.4598 -1.00876,1.217943 1.97323,-0.07196 5.0565,-0.3648 0.27399,0.206 0.1951,0.1641 1.54769,1.706 0.1377,0.167 0.29291,1.2036 -0.56351,1.3097 -0.25598,0.2088 -0.3891,0.2883 0.67859,1.7399 5.26761,9.7856 0.0649,0.0728 0.0599,0.0593 0.0923,0.0676 0.62289,-0.37099 0.29801,-0.2448 0.9996,-1.0829 0.39588,-0.5076 0.13391,-0.1301 0.11999,0.081 4.57422,3.2202 5.078,5.14429 0.0599,0.0706 0.15832,0.1951 0.59089,0.7861 0.0265,0.051 0.0361,0.1081 0.0493,0.46059 -0.13449,2.72331 -2.35672,0.3549 -0.77539,0.3378 -0.2326,0.1955 -0.457,0.6265 -0.1623,0.27251 -0.0337,0.2567 -0.16162,2.4692 0.0299,1.7424 0.0548,0.7524 0.0865,0.3245 0.0578,0.2113 0.15969,0.2365 0.14112,0.1974 0.23849,0.29539 0.49631,1.25021 0.2146,2.89229 0.003,0.1036 -1.57221,2.994503 -0.5086,0.8066 -0.68457,0.9878 -4.68012,6.1218 -0.0661,0.0698 -1.74771,0.7862 -1.89639,0.0591 -1.12421,0.0352 -3.05878,0.007 -0.8699,-0.0752 -1.6651,-0.3059 -0.0319,-0.008 -0.2248,-0.0558 -0.4772,-0.2016 -0.2663,-0.1265 -0.2522,-0.13109 1.53076,5.71262 0.16306,0.16931 0.0273,0.0283 1.53012,1.2629 0.28958,0.1923 4.42032,1.4569 2.31,0.4877 0.25928,0.0829 2.37543,1.008 1.96222,1.08009 0.36896,0.06519 0.70819,0.1284 1.25531,0.2437 3.83209,1.6146 2.45981,1.1267 1.47601,0.8951 1.21799,0.7974 0.7409,0.5992 0.13749,0.1295 0.13342,0.2081 0.0791,0.3841 0.0989,0.1865 0.3305,0.1958 2.24552,0.6814 2.37808,0.63791 1.42682,0.26219 0.69299,0.1896 1.0864,0.37751 2.66949,1.16929 0.24292,0.1306 0.27429,0.1557 1.4816,1.2892 1.17081,1.19631 4.5477,5.06779 1.51937,1.86382 0.0722,-0.63496 0.2746,-0.5319 0.1311,-0.2204 0.19489,-0.21519 0.1759,-0.1398 0.818,-0.21691 2.31762,-1.5151 0.22559,-0.21641 0.0621,-0.11898 0.0812,-0.16811 0.0664,-0.143 -0.0635,-1.5197 -0.0386,-0.5161 0.0751,-0.5463 0.5375,-1.2808 0.21979,-0.3559 0.2529,-0.27811 2.6882,-2.33558 5.2276,-1.93541 2.63559,0.53019 0.37223,0.11132 0.44467,0.32219 0.26522,0.236 0.28379,0.22249 1.203,0.64762 0.40921,0.17079 0.9389,0.3591 3.36557,1.18651 2.63532,0.82798 1.27679,1.87342 2.4961,3.72169 0.49081,1.87261 1.29901,4.26548 0.17209,0.36 0.2573,0.23171 0.28421,0.1738 0.33978,0.24231 0.16711,0.18299 0.76261,2.3498 0.0506,0.1958 0.0193,0.0959 0.0427,0.2122 0.0156,0.0779 -0.0211,0.1579 -0.0562,0.2622 -0.18051,0.2049 1.7167,9.6797 0.13449,0.35311 3.6254,6.50659 0.16022,0.1448 0.15378,0.0459 -1.21106,1.0649 -0.11112,0.0847 -0.51709,0.33101 -0.13659,0.0695 -3.19022,1.38932 -0.19238,0.0386 -0.23422,0.0313 -0.2688,0.0342 -0.259,-0.0384 -0.28968,-0.0596 -0.23691,-0.061 -0.2666,-0.0596 -0.28531,-0.0499 -0.31329,-0.003 -0.31711,-0.002 -0.6084,0.15069 -0.34149,0.13341 -0.3031,0.12531 -4.96539,4.18618 -6.44632,4.23452 -0.67218,0.43139 -1.63382,0.9368 -1.08899,0.55141 -0.51709,0.10219 -1.86441,0.2379 -1.6955,0.2256 -0.1221,0.0191 -2.26391,0.3531 -1.50339,0.2434 -2.5527,0.4208 -0.55481,0.11071 -0.34589,0.1615 -0.33371,0.16819 -2.5029,1.2576 -0.3453,0.1955 -0.228,0.1355 -0.1153,0.1616 -0.108,0.2054 -0.12808,0.634 -0.0568,0.28099 -0.1103,0.69381 -0.041,0.2597 -0.034,0.28281 -0.003,0.22898 0.0256,0.3835 0.0776,0.39161 0.28381,0.8442 0.0456,0.21421 0.0766,0.48349 0.0369,2.1394 -0.1535,1.6711 -0.0241,0.11081 -0.55261,1.09919 -0.0958,0.1482 -1.42679,2.02211 4.82599,8.00609 0.5907,1.2308 0.59671,1.03889 0.29968,0.43972 0.15552,0.16868 0.59219,0.52932 0.43189,0.31149 1.0661,0.8444 1.8663,2.0635 0.15982,0.18969 0.13639,0.17652 0.0585,0.10589 0.10031,0.1814 0.0683,0.2047 0.008,0.5493 -0.082,1.3856 -0.057,0.6098 -0.0355,0.46869 0.0586,1.22431 0.0318,0.16231 0.10071,0.11349 0.21249,0.1019 0.35882,0.10929 -0.61436,0.67197 -0.0459,0.0563 -0.0511,0.0642 -0.029,0.0364 -0.0537,0.082 -0.14242,0.2345 -0.0923,0.1578 -0.0965,0.1688 -0.0544,0.1195 -0.0238,0.1014 -0.0618,0.709 -0.006,0.7417 0.006,0.0944 0.0205,0.18019 0.10889,0.61582 0.0772,0.31869 0.0222,0.0916 0.0766,0.2298 0.0741,0.3518 0.0173,0.1556 0.003,0.0246 0.11807,1.0487 0.002,0.1505 0.003,0.3046 -0.0404,0.2353 -0.0438,0.1844 -0.0912,0.33451 -0.2602,0.90689 -0.52301,1.45849 -0.12399,0.0143 -0.3237,-1.1e-4 -0.2391,-0.13789 -1.0983,-0.31531 -0.8887,-0.23039 -0.11951,-0.021 -0.1059,0.0139 -0.0985,0.0333 -1.7283,0.70259 -0.84012,0.3768 -0.92099,0.7761 -0.0912,0.0809 -0.0992,0.11589 -0.81341,0.9785 -0.69589,0.8752 -0.0575,0.1006 -0.032,0.1045 -1.36399,1.657 -2.5271,2.6919 -1.16369,0.97081 -0.7944,0.66449 -0.13251,0.07 -10.4075,5.0586 -0.86151,-0.25 -0.42368,-0.1075 -0.12021,0.0166 -0.15829,0.0361 -0.54822,0.2488 -0.23868,0.14799 -0.40662,0.3486 -0.5223,0.53281 -0.2016,0.2412 -0.1377,0.1824 -0.1419,0.2403 -0.0925,0.18611 -0.098,0.30778 -0.0741,0.26641 -0.0744,2.106 0.0156,0.8732 -0.47958,2.08459 -1.80411,3.07141 1.05319,1.59751 4.11221,3.6465 0.40561,0.0797 0.15308,0.08 1.3016,0.71588 0.14261,0.1224 0.46521,0.9339 0.0512,0.1037 0.80802,1.90112 0.0436,0.13318 0.30399,1.19901 0.0105,0.6773 0.0258,0.30271 0.8023,1.7767 0.2421,0.47049 0.31631,0.5499 0.17371,0.19629 0.18579,0.1391 3.0622,1.5765 0.0864,-0.0418 0.22321,-0.10971 0.21981,-0.125 0.15809,-0.0999 0.11029,-0.0474 0.1806,-0.0229 0.56772,-0.031 0.11178,0.0617 1.63312,1.28808 0.11099,0.11802 1.0669,1.18768 0.58871,0.6886 0.75028,0.99102 0.5227,0.82978 0.0693,0.16351 0.0962,0.12051 1.00482,0.7244 0.1189,0.0547 1.10269,0.14801 0.1586,-0.0416 0.57961,-0.3711 -1.33221,2.55129 2e-4,-0.002 -3.67815,7.33153 -1.04714,1.19091 -2.17349,1.74582 -0.12052,0.0466 -0.47098,0.1911 -1.78582,0.7778 -2.00629,1.08521 -0.1669,0.0992 -1.60941,1.26779 1.7948,1.64841 3.40192,4.49569 0.34049,0.61762 3.14621,5.30969 1.81909,2.14511 0.93661,1.2955 0.10709,0.18158 0.1691,0.2956 0.99609,1.9317 0.1315,0.27942 0.0519,0.1564 0.0232,0.0959 0.0156,0.23049 -0.008,0.0782 -0.90662,1.96869 -0.25818,0.55209 -0.27542,0.44171 -0.12188,0.14039 -0.133,0.12262 -0.1022,0.0932 -0.0605,0.0477 -0.33939,0.1847 -1.33251,0.64151 -0.1023,0.0481 -0.12759,0.0272 -0.16489,-0.006 -0.17551,-0.0123 -0.15411,-0.0407 -0.13098,-0.0125 -0.13532,0.0397 -1.71319,1.42062 -0.10639,0.1116 -0.0868,0.0963 -0.0848,0.134 -0.0508,0.16501 -0.0181,0.27099 0.4401,1.08789 4.48071,6.34821 3.21158,3.08331 0.0238,-0.0976 0.1359,-0.066 0.2214,-0.0233 0.2211,-0.008 0.43012,0.0876 0.24618,0.0877 4.91642,2.21377 0.1148,0.0958 0.129,0.46521 0.0209,0.14639 0.0335,0.30902 0.0185,0.15046 -0.48621,0.35251 -0.18921,0.14621 -0.1289,0.10028 -0.0949,0.0749 -0.1323,0.13019 -0.2702,0.2973 -0.1029,0.11569 -0.5792,0.75501 -0.21011,0.30609 -0.14539,0.22491 -0.0765,0.129 -0.56571,1.42331 -0.023,0.0708 -0.0512,0.15799 -0.0179,0.2334 0.0156,0.2587 0.0693,0.1672 0.0358,0.095 -0.1756,1.13001 -0.0752,0.33389 -0.0963,0.21952 -0.38458,0.75219 -0.70794,1.1862 -4.19484,0.3426 -0.6329,0.3526 -0.7797,0.6601 -0.24792,0.3237 -1.28079,2.31802 -0.0697,0.186 -0.0351,0.1211 -0.0127,0.12298 0.009,0.16611 0.24539,3.79849 0.0159,0.19672 0.0377,0.27548 0.0538,0.1922 0.10968,0.22321 0.5958,1.1625 0.0843,0.14399 0.24209,0.16442 0.1608,0.0243 0.15649,0.0146 0.1608,0.0356 0.168,0.0512 0.14911,0.0648 0.1336,0.1066 0.11429,0.13709 0.10602,0.19842 0.0617,0.14588 0.0724,0.21631 0.0463,0.203 -0.0221,0.27441 -0.1467,0.92749 1.98919,0.8306 5.69458,5.42401 4.03364,2.30948 0.22668,0.0861 0.14551,0.0683 0.1113,0.0917 0.64959,1.00199 0.0617,0.12149 0.0506,0.14322 0.4754,1.7561 -0.24112,1.2467 -0.0691,0.16718 -0.055,0.17032 -0.0545,0.18338 -0.029,0.19122 -0.002,0.18768 0.0759,0.211 1.5557,3.2536 2.1463,3.3321 0.11001,0.18191 0.069,0.18039 -0.7886,3.63501 -0.17792,0.44949 3.64794,0.026 -0.0247,0.21006 0.0124,2.24618 0.002,0.0885 0.0146,0.15341 0.0477,0.1955 0.0896,0.26099 0.0458,0.0434 0.0431,0.0409 0.20462,0.14459 0.12909,0.0726 0.23832,0.0683 0.0614,0.0145 0.26211,0.0402 0.27799,0.13742 0.8515,0.45129 0.15762,0.0899 0.12708,0.0912 0.10522,0.1026 0.16589,0.18271 0.0885,0.1069 0.0633,0.0953 1.7214,2.8356 0.0327,0.11539 -0.0112,0.2471 -0.0183,0.24841 -0.37772,0.8389 -0.12808,0.0759 -0.15042,0.0403 -0.0242,-0.002 -4.33609,-0.47001 -0.12021,-0.0268 -0.32138,-0.0808 -0.866,3.35998 0.87958,3.7941 0.0318,0.1341 0.0232,0.0977 0.0421,0.103 0.1961,0.21341 0.556,0.52649 1.30451,1.19479 1.05438,0.63132 0.12842,0.0575 1.2771,1.01788 0.1857,0.15051 0.13879,0.23499 0.0788,0.2713 1.67511,6.17062 0.62078,3.87259 -6e-4,4.4e-4 0.2168,0.0629 0.17862,0.0466 0.2052,0.0488 0.2276,0.0187 0.23569,-0.0239 0.2922,-0.0342 2.43729,-0.3313 2.79562,-0.17951 0.6547,-0.0287 0.8818,0.009 4.5217,0.0556 0.8566,-0.0138 0.62848,-0.0326 0.29532,-0.0226 0.25088,-0.0262 0.66452,-0.1875 0.25199,-0.10883 0.20721,-0.1369 0.35559,-0.3031 0.15189,-0.1622 0.23312,-0.3396 0.11139,-0.22748 0.12189,-0.16092 0.14761,-0.14368 0.18201,-0.1709 0.33709,-0.30471 0.17371,-0.13221 0.2605,-0.17758 0.31988,-0.1745 0.1847,-0.0956 0.1279,-0.0626 0.4512,-0.1637 0.33011,-0.0929 0.1954,-0.0496 0.22079,-0.023 0.2836,0.0197 0.7233,0.15579 0.3833,0.1294 0.24161,0.099 0.59421,0.2785 0.23388,0.11331 0.17441,0.099 0.37549,0.14951 1.25452,0.35968 0.35418,0.0914 2.86921,0.6441 0.37329,0.0348 0.68341,0.0381 0.4039,-0.002 0.49359,-0.0153 0.47522,-0.0356 0.41608,-0.0537 0.98931,-0.16938 3.2938,-0.8096 0.64608,-0.20541 1.48572,-0.59751 0.36539,-0.19119 0.3811,-0.22369 0.51282,-0.31601 0.43189,-0.38101 0.27059,-0.3494 0.0914,-0.11829 0.1792,-0.2424 0.18732,-0.2568 0.16788,-0.25269 0.1875,-0.2868 0.12311,-0.22461 0.6625,-1.551 1.04801,-2.86581 0.49588,-1.37888 0.10531,-0.29181 0.0896,-0.26489 0.12311,-0.42752 0.005,-0.0199 0.0824,-0.3504 0.74228,-1.63629 0.077,-0.13449 0.20288,-0.3024 0.37061,-0.52881 0.22351,-0.19549 0.242,-0.17701 0.16898,-0.0497 0.5144,-0.11658 3.79541,-1.1849 1.5098,-0.87447 7.45083,-0.26396 -0.008,0.78386 -0.0124,0.56451 -0.0353,0.8049 -0.14002,3.28159 -0.0662,0.4021 -1.01831,1.03399 -0.62299,0.6258 -0.18841,0.0875 -0.11639,0.0353 -0.62781,0.69491 -0.15979,0.19321 -0.698,0.87698 1.17551,2.83622 1.4208,1.4779 0.73539,1.05759 0.3211,0.5043 -0.3685,0.8519 -1.30029,1.1738 -0.8086,2.76321 0.24198,2.2392 0.3508,0.46158 0.0486,0.0568 0.41145,1.47387 0.0244,0.1167 0.0135,0.10068 0.01,0.0797 0.001,0.0408 10e-4,0.0533 -0.002,0.14261 -0.1905,0.294 -0.10351,0.11151 -2.1453,2.2056 -0.88888,4.38168 0.0603,0.2117 0.0451,0.23301 0.0375,0.2568 -0.0366,0.43091 -0.0286,0.17038 -0.46912,2.0986 -0.0865,0.2558 -0.0814,0.21671 -0.0699,0.18579 -0.6167,0.7279 -0.1366,0.15192 -0.15921,0.15948 -0.20358,0.12201 -0.20331,0.10129 -0.28519,0.0869 -0.16992,0.10971 -0.16269,0.12909 -0.16681,0.17771 -0.82888,0.95059 -0.0914,0.11249 -0.058,0.12671 -0.0771,0.17581 -0.025,0.16128 0.007,0.2786 0.43661,3.3996 -5.1e-4,-2e-5 -0.41299,0.80331 -0.0599,0.21671 0.82739,2.10589 2.6583,5.4874 2.5498,1.5068 2.78211,1.9061 1.34201,1.23279 1.94919,0.0759 0.33831,0.0398 0.11539,0.036 0.12601,0.0651 0.22879,0.26922 2.57139,3.30687 -0.5066,0.30838 -0.11762,0.13662 -0.0529,0.1045 -0.54409,1.09259 -0.0221,0.12591 -0.032,0.18329 0.005,0.22589 0.034,0.20761 0.0408,0.23831 0.0609,0.34888 0.0446,0.17102 0.24259,0.71939 0.57881,1.66827 -4.11631,0.8989 -2.93589,2.16699 -1.4963,1.85989 -2.36731,1.6084 -1.26248,1.8028 -2.43552,4.3854 4.1e-4,2.7e-4 0.99881,2.09592 3.142,2.62338 2.36831,2.6395 -0.3298,0.363 -2.5795,3.08042 -0.7359,0.88699 -0.29681,0.40909 -1.0521,1.44852 0.30579,0.3168 0.41721,0.26239 0.4067,0.21631 0.69849,0.36859 2.62341,1.34949 -1.45599,3.2706 -0.7269,1.73321 0.0211,0.0769 0.10391,0.0388 0.10028,0.0309 0.6073,0.01 0.1864,0.002 0.15711,-0.004 0.1897,-0.009 1.32131,-1.82028 0.0677,-0.0582 0.0764,-0.0631 3.33972,-1.7048 0.17258,-0.0456 0.22311,0.0207 0.0667,0.0657 0.009,0.13599 -0.0144,0.1792 -0.0138,0.151 -0.0595,0.26932 -0.22378,0.44888 -0.15082,0.3555 -0.38119,1.08771 -0.0402,0.19949 -0.0308,0.26602 0.005,0.14328 0.009,0.151 0.0321,0.5232 0.14032,0.59982 0.039,0.14789 0.73199,2.78009 0.0436,0.1145 0.0611,0.1329 0.0869,0.1821 0.0751,0.1547 0.23379,0.30151 0.12482,0.14389 0.50928,0.57651 0.64352,0.33029 2.1062,0.9028 0.90865,0.37025 z"
       id="path3868"
       style="fill:#e45c36;fill-opacity:1;stroke:#ffffff;stroke-width:1;stroke-linejoin:round;stroke-miterlimit:4;stroke-opacity:1;stroke-dasharray:none;display:inline" />
    <g
       id="g3888"
       style="fill:#e45c36;fill-opacity:1;display:inline">
      <g
         id="g3884"
         style="fill:#e45c36;fill-opacity:1">
        <path
           d="m 206.98573,207.1438 -0.40509,-0.75949 -0.1449,-0.26711 -0.0965,0.0806 -0.19843,0.1514 -0.7551,0.4207 -0.1213,0.0561 -1.0943,0.4426 -0.2392,0.0749 -0.95099,-0.1002 -1.3183,-0.17461 -2.0307,-0.93399 -0.4884,-0.0388 -0.42301,0.0358 -0.63868,0.0921 -0.4364,0.0874 -0.25301,0.2354 -1.26089,1.2734 -0.15542,0.2658 -0.457,0.7848 -0.3033,0.5228 -1.42959,1.27139 1.44189,2.35051 1.50771,3.61769 -0.0528,0.10952 -0.0525,0.11228 0.22771,1.963 0.1714,1.26502 0.0206,0.14819 0.042,0.2514 0.0522,0.1113 0.0747,0.11109 0.75869,1.10171 2.02089,0.99469 0.0828,0.0385 4.6035,1.6427 0.0787,0.025 0.9039,0.0778 1.65179,-0.49018 0.1836,-2.31161 -0.2537,-1.2153 -0.12381,-0.21851 -0.31399,-0.44589 -0.3909,-0.3826 -0.13721,-0.9223 -0.3674,-6.0874 -0.0132,-0.2773 0.0263,-0.3831 0.16129,-1.2461 0.041,-0.2673 0.43738,-1.47209 0.0468,-0.15221 0.3323,-1.08211 0.0388,-0.48739 z"
           id="path90"
           style="fill:#e45c36;fill-opacity:1;stroke:#ffffff;stroke-width:1;stroke-linejoin:round;stroke-miterlimit:4;stroke-opacity:1;stroke-dasharray:none" />
        <path
           d="m 289.94582,127.08675 -1.21104,1.06504 -0.11112,0.0847 -0.51709,0.33101 -0.13659,0.0695 -3.19022,1.38932 -0.19238,0.0386 -0.23422,0.0313 -0.2688,0.0342 -0.259,-0.0384 -0.28968,-0.0596 -0.23691,-0.061 -0.2666,-0.0596 -0.28531,-0.0499 -0.31329,-0.003 -0.31711,-0.002 -0.6084,0.15069 -0.34149,0.13341 -0.3031,0.12531 -4.96539,4.18618 -6.44632,4.23452 -0.67218,0.43139 -1.63382,0.9368 -1.08899,0.55141 -0.51709,0.10219 -1.86441,0.2379 -1.6955,0.2256 -0.1221,0.0191 -2.26391,0.3531 -1.50339,0.2434 -2.5527,0.4208 -0.55481,0.11071 -0.34589,0.1615 -0.33371,0.16819 -2.5029,1.2576 -0.3453,0.1955 -0.228,0.1355 -0.1153,0.1616 -0.108,0.2054 -0.12808,0.634 -0.0568,0.28099 -0.1103,0.69381 -0.041,0.2597 -0.034,0.28281 -0.003,0.22898 0.0256,0.3835 0.0776,0.39161 0.28381,0.8442 0.0456,0.21421 0.0766,0.48349 0.0369,2.1394 -0.1535,1.6711 -0.0241,0.11081 -0.55261,1.09919 -0.0958,0.1482 -1.42679,2.02211 4.82599,8.00609 0.5907,1.2308 0.59671,1.03889 0.29968,0.43972 0.15552,0.16868 0.59219,0.52932 0.43189,0.31149 1.0661,0.8444 1.8663,2.0635 0.15982,0.18969 0.13639,0.17652 0.0585,0.10589 0.10031,0.1814 0.0683,0.2047 0.008,0.5493 -0.082,1.3856 -0.057,0.6098 -0.0355,0.46869 0.0586,1.22431 0.0318,0.16231 0.10071,0.11349 0.21249,0.1019 0.35882,0.10929 -0.61436,0.67197 -0.0459,0.0563 -0.0511,0.0642 -0.029,0.0364 -0.0537,0.082 -0.14242,0.2345 -0.0923,0.1578 -0.0965,0.1688 -0.0544,0.1195 -0.0238,0.1014 -0.0618,0.709 -0.006,0.7417 0.006,0.0944 0.0205,0.18019 0.10889,0.61582 0.0772,0.31869 0.0222,0.0916 0.0766,0.2298 0.0741,0.3518 0.0173,0.1556 0.003,0.0246 0.11807,1.0487 0.002,0.1505 0.003,0.3046 -0.0404,0.2353 -0.0438,0.1844 -0.0912,0.33451 -0.2602,0.90689 -0.52301,1.45849 -0.12399,0.0143 -0.3237,-1.1e-4 -0.2391,-0.13789 -1.0983,-0.31531 -0.8887,-0.23039 -0.11951,-0.021 -0.1059,0.0139 -0.0985,0.0333 -1.7283,0.70259 -0.84012,0.3768 -0.92099,0.7761 -0.0912,0.0809 -0.0992,0.11589 -0.81341,0.9785 -0.69589,0.8752 -0.0575,0.1006 -0.032,0.1045 -1.36399,1.657 -2.5271,2.6919 -1.16369,0.97081 -0.7944,0.66449 -0.13251,0.07 -10.4075,5.0586 -0.86151,-0.25 -0.42368,-0.1075 -0.12021,0.0166 -0.15829,0.0361 -0.54822,0.2488 -0.23868,0.14799 -0.40662,0.3486 -0.5223,0.53281 -0.2016,0.2412 -0.1377,0.1824 -0.1419,0.2403 -0.0925,0.18611 -0.098,0.30778 -0.0741,0.26641 -0.0744,2.106 0.0156,0.8732 -0.47958,2.08459 -1.80411,3.07141 1.05319,1.59751 4.11221,3.6465 0.40561,0.0797 0.15308,0.08 1.3016,0.71588 0.14261,0.1224 0.46521,0.9339 0.0512,0.1037 0.80802,1.90112 0.0436,0.13318 0.30399,1.19901 0.0105,0.6773 0.0258,0.30271 0.8023,1.7767 0.2421,0.47049 0.31631,0.5499 0.17371,0.19629 0.18579,0.1391 3.0622,1.5765 0.0864,-0.0418 0.22321,-0.10971 0.21981,-0.125 0.15809,-0.0999 0.11029,-0.0474 0.1806,-0.0229 0.56772,-0.031 0.11178,0.0617 1.63312,1.28808 0.11099,0.11802 1.0669,1.18768 0.58871,0.6886 0.75028,0.99102 0.5227,0.82978 0.0693,0.16351 0.0962,0.12051 1.00482,0.7244 0.1189,0.0547 1.10269,0.14801 0.1586,-0.0416 0.57961,-0.3711 -1.33221,2.55129 2e-4,-0.002 -3.67815,7.33153 -1.04714,1.19091 -2.17349,1.74582 -0.12052,0.0466 -0.47098,0.1911 -1.78582,0.7778 -2.00629,1.08521 -0.1669,0.0992 -1.60941,1.26779 1.7948,1.64841 3.40192,4.49569 0.34049,0.61762 3.14621,5.30969 1.81909,2.14511 0.93661,1.2955 0.10709,0.18158 0.1691,0.2956 0.99609,1.9317 0.1315,0.27942 0.0519,0.1564 0.0232,0.0959 0.0156,0.23049 -0.008,0.0782 -0.90662,1.96869 -0.25818,0.55209 -0.27542,0.44171 -0.12188,0.14039 -0.133,0.12262 -0.1022,0.0932 -0.0605,0.0477 -0.33939,0.1847 -1.33251,0.64151 -0.1023,0.0481 -0.12759,0.0272 -0.16489,-0.006 -0.17551,-0.0123 -0.15411,-0.0407 -0.13098,-0.0125 -0.13532,0.0397 -1.71319,1.42062 -0.10639,0.1116 -0.0868,0.0963 -0.0848,0.134 -0.0508,0.16501 -0.0181,0.27099 0.4401,1.08789 4.48071,6.34821 3.21158,3.08331 0.0238,-0.0976 0.1359,-0.066 0.2214,-0.0233 0.2211,-0.008 0.43012,0.0876 0.24618,0.0877 4.91642,2.21377 0.1148,0.0958 0.129,0.46521 0.0209,0.14639 0.0335,0.30902 0.0185,0.15046 -0.48621,0.35251 -0.18921,0.14621 -0.1289,0.10028 -0.0949,0.0749 -0.1323,0.13019 -0.2702,0.2973 -0.1029,0.11569 -0.5792,0.75501 -0.21011,0.30609 -0.14539,0.22491 -0.0765,0.129 -0.56571,1.42331 -0.023,0.0708 -0.0512,0.15799 -0.0179,0.2334 0.0156,0.2587 0.0693,0.1672 0.0358,0.095 -0.1756,1.13001 -0.0752,0.33389 -0.0963,0.21952 -0.38458,0.75219 -0.70794,1.1862 -4.19484,0.3426 -0.6329,0.3526 -0.7797,0.6601 -0.24792,0.3237 -1.28079,2.31802 -0.0697,0.186 -0.0351,0.1211 -0.0127,0.12298 0.009,0.16611 0.24539,3.79849 0.0159,0.19672 0.0377,0.27548 0.0538,0.1922 0.10968,0.22321 0.5958,1.1625 0.0843,0.14399 0.24209,0.16442 0.1608,0.0243 0.15649,0.0146 0.1608,0.0356 0.168,0.0512 0.14911,0.0648 0.1336,0.1066 0.11429,0.13709 0.10602,0.19842 0.0617,0.14588 0.0724,0.21631 0.0463,0.203 -0.0221,0.27441 -0.1467,0.92749 1.98919,0.8306 5.69458,5.42401 4.03364,2.30948 0.22668,0.0861 0.14551,0.0683 0.1113,0.0917 0.64959,1.00199 0.0617,0.12149 0.0506,0.14322 0.4754,1.7561 -0.24112,1.2467 -0.0691,0.16718 -0.055,0.17032 -0.0545,0.18338 -0.029,0.19122 -0.002,0.18768 0.0759,0.211 1.5557,3.2536 2.1463,3.3321 0.11001,0.18191 0.069,0.18039 -0.7886,3.63501 -0.17792,0.44949 3.64794,0.026 -0.0247,0.21006 0.0124,2.24618 0.002,0.0885 0.0146,0.15341 0.0477,0.1955 0.0896,0.26099 0.0458,0.0434 0.0431,0.0409 0.20462,0.14459 0.12909,0.0726 0.23832,0.0683 0.0614,0.0145 0.26211,0.0402 0.27799,0.13742 0.8515,0.45129 0.15762,0.0899 0.12708,0.0912 0.10522,0.1026 0.16589,0.18271 0.0885,0.1069 0.0633,0.0953 1.7214,2.8356 0.0327,0.11539 -0.0112,0.2471 -0.0183,0.24841 -0.37772,0.8389 -0.12808,0.0759 -0.15042,0.0403 -0.0242,-0.002 -4.33609,-0.47001 -0.12021,-0.0268 -0.32138,-0.0808 -0.866,3.35998 0.87958,3.7941 0.0318,0.1341 0.0232,0.0977 0.0421,0.103 0.1961,0.21341 0.556,0.52649 1.30451,1.19479 1.05438,0.63132 0.12842,0.0575 1.2771,1.01788 0.1857,0.15051 0.13879,0.23499 0.0788,0.2713 1.67511,6.17062 0.62078,3.87259 -6e-4,4.4e-4 0.2168,0.0629 0.17862,0.0466 0.2052,0.0488 0.2276,0.0187 0.23569,-0.0239 0.2922,-0.0342 2.43729,-0.3313 2.79562,-0.17951 0.6547,-0.0287 0.8818,0.009 4.5217,0.0556 0.8566,-0.0138 0.62848,-0.0326 0.29532,-0.0226 0.25088,-0.0262 0.66452,-0.1875 0.25199,-0.10883 0.20721,-0.1369 0.35559,-0.3031 0.15189,-0.1622 0.23312,-0.3396 0.11139,-0.22748 0.12189,-0.16092 0.14761,-0.14368 0.18201,-0.1709 0.33709,-0.30471 0.17371,-0.13221 0.2605,-0.17758 0.31988,-0.1745 0.1847,-0.0956 0.1279,-0.0626 0.4512,-0.1637 0.33011,-0.0929 0.1954,-0.0496 0.22079,-0.023 0.2836,0.0197 0.7233,0.15579 0.3833,0.1294 0.24161,0.099 0.59421,0.2785 0.23388,0.11331 0.17441,0.099 0.37549,0.14951 1.25452,0.35968 0.35418,0.0914 2.86921,0.6441 0.37329,0.0348 0.68341,0.0381 0.4039,-0.002 0.49359,-0.0153 0.47522,-0.0356 0.41608,-0.0537 0.98931,-0.16938 3.2938,-0.8096 0.64608,-0.20541 1.48572,-0.59751 0.36539,-0.19119 0.3811,-0.22369 0.51282,-0.31601 0.43189,-0.38101 0.27059,-0.3494 0.0914,-0.11829 0.1792,-0.2424 0.18732,-0.2568 0.16788,-0.25269 0.1875,-0.2868 0.12311,-0.22461 0.6625,-1.551 1.04801,-2.86581 0.49588,-1.37888 0.10531,-0.29181 0.0896,-0.26489 0.12311,-0.42752 0.005,-0.0199 0.0824,-0.3504 0.74228,-1.63629 0.077,-0.13449 0.20288,-0.3024 0.37061,-0.52881 0.22351,-0.19549 0.242,-0.17701 0.16898,-0.0497 0.5144,-0.11658 3.79541,-1.1849 1.5098,-0.87447 7.45083,-0.26396 -0.008,0.78386 -0.0124,0.56451 -0.0353,0.8049 -0.14002,3.28159 -0.0662,0.4021 -1.01831,1.03399 -0.62299,0.6258 -0.18841,0.0875 -0.11639,0.0353 -0.62781,0.69491 -0.15979,0.19321 -0.698,0.87698 1.17551,2.83622 1.4208,1.4779 0.73539,1.05759 0.3211,0.5043 -0.3685,0.8519 -1.30029,1.1738 -0.8086,2.76321 0.24198,2.2392 0.3508,0.46158 0.0486,0.0568 0.41145,1.47387 0.0244,0.1167 0.0135,0.10068 0.01,0.0797 10e-4,0.0408 0.001,0.0533 -0.002,0.14261 -0.1905,0.294 -0.10351,0.11151 -2.1453,2.2056 -0.88888,4.38168 0.0603,0.2117 0.0451,0.23301 0.0375,0.2568 -0.0366,0.43091 -0.0286,0.17038 -0.46912,2.0986 -0.0865,0.2558 -0.0814,0.21671 -0.0699,0.18579 -0.6167,0.7279 -0.1366,0.15192 -0.15921,0.15948 -0.20358,0.12201 -0.20331,0.10129 -0.28519,0.0869 -0.16992,0.10971 -0.16269,0.12909 -0.16681,0.17771 -0.82888,0.95059 -0.0914,0.11249 -0.058,0.12671 -0.0771,0.17581 -0.025,0.16128 0.007,0.2786 0.43661,3.3996 -5.1e-4,-2e-5 -0.41299,0.80331 -0.0599,0.21671 0.82739,2.10589 2.6583,5.4874 2.5498,1.5068 2.78211,1.9061 1.34201,1.23279 1.94919,0.0759 0.33831,0.0398 0.11539,0.036 0.12601,0.0651 0.22879,0.26922 2.57139,3.30687 -0.5066,0.30838 -0.11762,0.13662 -0.0529,0.1045 -0.54409,1.09259 -0.0221,0.12591 -0.032,0.18329 0.005,0.22589 0.034,0.20761 0.0408,0.23831 0.0609,0.34888 0.0446,0.17102 0.24259,0.71939 0.57881,1.66827 -4.11631,0.8989 -2.93589,2.16699 -1.4963,1.85989 -2.36731,1.6084 -1.26248,1.8028 -2.43552,4.3854 4.1e-4,2.7e-4 0.99881,2.09592 3.142,2.62338 2.36831,2.6395 -0.3298,0.363 -2.5795,3.08042 -0.7359,0.88699 -0.29681,0.40909 -1.0521,1.44852 0.30579,0.3168 0.41721,0.26239 0.4067,0.21631 0.69849,0.36859 2.62341,1.34949 -1.45599,3.2706 -0.7269,1.73321 0.0211,0.0769 0.10391,0.0388 0.10028,0.0309 0.6073,0.01 0.1864,0.002 0.15711,-0.004 0.1897,-0.009 1.32131,-1.82028 0.0677,-0.0582 0.0764,-0.0631 3.33972,-1.7048 0.17258,-0.0456 0.22311,0.0207 0.0667,0.0657 0.009,0.13599 -0.0144,0.1792 -0.0138,0.151 -0.0595,0.26932 -0.22378,0.44888 -0.15082,0.3555 -0.38119,1.08771 -0.0402,0.19949 -0.0308,0.26602 0.005,0.14328 0.009,0.151 0.0321,0.5232 0.14032,0.59982 0.039,0.14789 0.73199,2.78009 0.0436,0.1145 0.0611,0.1329 0.0869,0.1821 0.0751,0.1547 0.23379,0.30151 0.12482,0.14389 0.50928,0.57651 0.64352,0.33029 2.1062,0.9028 0.90863,0.37009 0.71282,-0.83174 0.24121,-2.05371 0.78269,-2.4213 0.6644,-1.68359 0.50381,-0.8009 0.1561,-0.16532 0.12121,-0.13818 0.13999,-0.1666 0.66449,-0.80242 0.841,-1.09559 0.0598,-0.10089 0.0398,-0.0672 0.0439,-0.1466 0.35169,-1.7024 -0.41031,-0.681 -0.63208,-1.08111 -0.0719,-0.1488 -0.0313,-0.15479 -9e-5,-0.21802 0.0135,-0.16787 0.0416,-0.33841 0.46771,-3.58631 0.0381,-0.27301 0.06,-0.26349 0.1065,-0.38559 0.0658,-0.18042 -0.13669,-2.95538 -0.6799,-1.51541 -0.86459,-3.1673 0.0215,-0.18039 0.0919,-0.37741 0.13739,-0.2081 0.2182,-0.1094 1.4346,-0.5756 0.48441,-0.23709 0.38769,-0.24902 0.10321,-0.0927 0.0725,-0.0934 0.23682,-0.4064 0.0778,-0.1456 0.2229,-0.48468 0.0561,-0.21499 0.0477,-0.18201 0.0412,-0.25952 0.0453,-0.48838 0.0181,-0.4024 -0.0161,-0.17041 -0.0379,-0.18729 -0.0102,-1.27652 0.005,-2.40808 0.0242,-0.10123 0.2055,-0.74144 0.0986,0.18312 0.19961,0.32691 3.82029,6.27731 0.17651,-0.0282 0.25211,-0.097 0.1658,-0.10621 0.51669,-0.34878 0.20761,-0.14392 0.2226,-0.17279 0.20068,-0.167 0.6561,-0.4403 0.5303,-0.34391 0.2005,-0.10318 2.10321,-0.86392 0.18769,-0.0723 0.14203,-0.05 0.13177,-0.0395 3.84702,0.1658 2.1249,0.13602 0.31549,0.10388 1.62729,0.88092 0.20691,0.11529 1.11469,0.71879 0.76282,0.57052 0.194,0.2251 0.18789,0.15698 0.17639,0.1127 0.18171,0.10382 0.18869,0.1044 0.20752,0.0685 2.00549,0.54519 0.42709,0.0535 0.80512,-0.3595 0.12448,-0.0852 1.74661,-1.56891 3.79682,0.4911 4.76279,4.4401 0.16831,-0.0247 0.10519,-0.0492 0.35821,-0.2398 1.6774,-1.24219 0.14389,-0.11002 0.159,-0.1513 0.52759,-0.51819 1.1998,-0.56549 3.50122,-1.42862 2.2785,-0.5925 0.24579,0.0344 0.1889,0.0614 0.24399,0.1319 0.54621,0.3627 0.10311,0.069 0.10599,0.09 0.0701,0.0905 0.12741,0.17261 0.45538,0.1915 0.99622,0.2063 0.2421,0.0228 0.14618,-0.0381 2.28262,-1.47272 1.73828,-1.23599 0.56781,-0.0391 1.2547,0.1463 1.13379,0.20898 0.1189,0.0366 0.15902,0.085 0.0586,0.0367 0.0705,0.0442 0.16971,0.1011 0.1702,0.0899 0.41748,0.21088 0.5924,0.2562 0.63743,0.2297 0.20428,0.0669 0.14499,0.0369 2.17831,0.22458 0.19391,-0.013 0.1803,-0.067 0.77899,-0.35871 0.775,-0.36099 0.143,-0.0664 1.16431,-0.44171 0.17618,-0.041 0.21481,0.0863 1.6687,0.76489 0.2847,0.13959 3.92059,3.25702 1.19791,1.20718 0.4433,0.38022 0.833,-0.75983 4.7566,-4.50488 0.259,-0.51749 7.21094,-5.83726 0.61093,-0.7931 1.12711,-1.59949 0.79721,-1.68292 1.03649,-2.1929 0.90479,-1.96378 1.37952,-2.76511 0.36889,-0.61041 0.71039,-1.11838 2.15512,-3.25811 1.53058,-2.28589 2.00351,-2.96491 1.6561,-2.46979 1.55761,-2.64532 0.35416,-0.64779 0.26382,-1.94435 3.61191,-12.7561 0.49179,-1.17081 0.9762,-1.95679 6.0835,-11.6893 0.31628,-0.51721 0.32218,-0.13028 -0.0127,-0.5493 0.009,-0.047 0.4126,-1.01349 1.82452,-4.22211 0.22339,-0.5021 0.65588,-1.22739 0.37213,-0.68371 0.0483,-0.072 4.63849,-6.60299 2.69183,-3.534 2.61597,-3.75851 1.50271,-2.50282 0.0392,-0.0666 1.20899,-1.64451 6.76111,-10.19378 0.23981,-0.40521 0.18328,-0.32059 0.14533,-0.25412 0.16443,-0.2904 0.40509,-0.7323 1.32336,-2.42108 3.67542,-6.78562 -0.11432,-0.3063 -1.7652,-0.83499 -3.91071,-1.2266 -4.08197,-3.09729 -3.859,-3.78692 -1.6883,-2.0933 -2.85663,-3.5765 -0.0224,-0.22177 -0.14978,-1.45603 -0.0471,-2.1138 0.10041,-0.51507 0.29535,-0.48642 0.005,-0.25889 -0.0819,-0.738 -0.15039,-0.35721 -1.46772,-3.18359 -0.18231,-0.29242 -0.20312,-0.30899 -0.16181,-0.21799 -0.0207,-0.0278 -1.51977,-1.03162 -0.26343,-0.13248 -1.46246,-0.71832 -3.021,-1.02429 -0.12531,0.004 -0.0728,0.0611 -0.0589,0.0793 -0.0686,0.25131 -0.0266,0.17981 -0.0131,0.31259 -1.20379,0.0544 -3.90042,-0.16641 -1.92981,-0.0868 -1.39249,-0.56122 0.0911,-0.0934 0.38388,-1.47812 -5.8e-4,-0.094 -1.0242,-1.08828 -0.1182,-0.018 -0.0991,0.14151 -1.12287,2.15088 -0.11329,0.0558 -0.3226,0.0972 -0.3157,0.0885 -0.1211,0.0194 -0.0903,0.0107 -0.4981,0.0123 -0.3469,-0.0514 -2.61209,-1.35089 -4.76419,-4.68911 -0.12231,-0.28129 -0.20041,-0.6621 0.16052,-0.36152 2.11029,-3.42788 1.4758,-2.19522 0.7207,-1.15168 0.68109,-1.2435 0.4086,-0.98202 0.0436,-0.49579 -0.0518,-1.1618 -0.26272,-1.7403 -0.40198,-0.16891 -0.4277,0.0392 -0.37851,-0.026 -0.43381,-0.10599 -1.82538,-0.63101 -0.33331,-0.20981 -0.28211,-0.3443 -2.40109,-3.68359 0.0123,-0.082 0.0351,-0.23319 1.34521,-2.40793 0.95688,-1.34698 0.2904,-0.2655 0.0801,-0.27661 -0.1806,-0.3541 -1.2077,-1.56598 -1.29059,-1.58331 -0.4476,-0.53739 -1.18671,-1.13412 -0.2474,-0.20789 -0.27201,-0.0991 -0.40899,-0.0116 -0.4477,-0.35508 -0.25119,-0.3735 -0.10382,-2.0267 0.0197,-0.43222 0.71939,-3.04749 0.6311,-1.75159 0.53711,-1.1568 0.18848,-0.46991 0.1441,-0.43441 1.3291,-4.06629 -0.24869,-2.0809 -1.28852,-2.33209 5.24858,-3.59631 -0.51581,-0.002 -0.14569,-0.0336 -0.11212,-0.0531 -0.13339,-0.0719 -0.45661,-0.2677 -3.60849,-5.50742 -0.10488,-0.24219 -0.20502,-1.24109 -0.5362,-4.94641 -0.002,-0.0258 -0.0341,-0.35541 -0.0267,-0.37239 0.0511,-0.31489 0.1246,-0.58831 0.1272,-0.5655 0.5441,-1.6953 0.27249,-0.686 0.85071,-2.9363 1.7026,-6.35541 1.3808,-5.55488 0.13699,-1.24651 0.35401,-3.25439 -2.09201,-0.38411 -1.11499,-0.093 -0.5134,0.0806 -5.99851,-5.32728 -0.0445,-0.22 0.0872,-0.21592 0.0548,-0.12658 0.2637,-0.40142 0.10449,-0.15229 2.03171,-2.71019 0.0808,0.0842 1.26569,1.31771 -0.0241,0.4375 -0.11258,0.3658 0.13489,0.22789 2.99209,-1.9543 1.69031,-1.15219 0.46631,-0.40801 -1.55652,-0.9001 -2.87439,-1.7738 -10.4166,-6.5031 -0.22311,-0.1398 -0.6568,-0.4636 -0.4501,-0.3251 -0.2601,-0.19 -0.3021,-0.29151 -0.71389,-0.90058 -0.4946,-0.71972 -1.6211,-2.42089 -0.41549,3.6044 -0.17002,1.4223 -2.75189,0.2227 -0.54681,-0.356 -0.56919,-0.3693 0.7414,-1.1862 0.44671,-0.517 0.14908,-0.5317 -0.12378,-0.2175 -4.63122,-3.0019 -1.8367,-1.03421 -4.40378,0.10952 -1.46781,0.1689 -2.03741,0.44799 -3.17499,-1.0016 -0.001,-3.8e-4 -2.90509,-1.75 -1.06091,-1.7191 -3.00519,-0.4225 -0.44791,0.20911 -1.28549,1.56059 -1.1434,2.0258 -0.0378,0.20709 0.007,0.26362 0.1623,0.3936 0.40741,0.71159 0.0935,0.1246 0.2034,0.2074 0.14069,0.1118 1.01211,0.687 0.8299,1.1598 0.57239,1.051 0.0543,0.1212 0.057,0.1665 -1.7622,2.1129 -1.40229,-0.0877 -0.13879,-0.0252 -1.24591,-1.06801 -0.99939,-2.01969 -0.0496,-0.1659 0.01,-0.13251 0.094,-0.2117 0.1401,-0.22828 0.12882,-0.28202 0.0531,-0.21139 0.0222,-0.20101 -0.0382,-0.1893 -0.0746,-0.22819 -0.93591,-2.44631 -0.93689,-0.8777 -0.33749,-0.27719 -0.59259,-0.14891 -2.34781,0.526 -0.53382,0.17182 -2.12219,1.43629 -0.33871,0.4047 -0.40229,0.6248 -0.10489,0.175 -0.12841,0.2238 -0.7992,1.80229 0.03,0.21862 0.37241,0.004 0.28958,0.0156 0.27691,0.114 2.00712,1.0318 0.0725,0.1679 0.9975,6.64479 -0.22299,0.0352 -0.6004,0.091 -0.89319,0.10879 -2.77811,-3.01069 -6.81531,-8.842 -2.07809,-3.29741 -0.26791,-0.43258 -1.5799,1.66958 -0.21298,0.3237 -0.8364,1.58911 -0.7352,1.40799 -1.32092,2.39301 -0.34079,0.5589 -1.4931,2.38209 -0.27261,0.31861 -4.54569,4.6087 -0.67721,0.6767 -6.76279,5.20421 -1.95661,0.91929 -0.3186,0.18331 -0.31808,0.33738 -0.56052,0.70201 -0.2934,0.41649 -0.19659,0.3347 -3.2962,1.16282 -2.02176,0.0462 -4.33163,-2.31536 -0.21867,-0.16505 -0.1919,-0.23609 -0.13971,-0.2692 -0.10778,-0.28529 -0.13572,-0.42301 -0.2134,-0.77521 0.0607,-0.49459 -0.0509,-0.181 -3.4574,-7.2103 -0.19442,-0.2513 -0.23258,-0.2902 -1.40002,-1.5275 -0.30448,-0.23421 -1.80481,-1.08429 -2.582,-1.4786 -0.5375,-0.282 -0.50791,-0.2645 -4.91308,-3.1681 -4.59311,-6.03189 -4.32361,-5.76252 -0.39078,-0.5663 -0.4378,-0.6342 -1.013,-0.80249 -3.4549,-2.54561 -0.5437,-0.39869 -0.2348,-0.16809 -0.5701,-0.40461 -2.35382,-1.36151 -1.0618,-0.57329 -4.11368,-3.958 -0.345,-0.64679 -1.31152,-2.3414 -0.2446,-0.25521 -1.49698,-1.2444 -1.36121,-1.04699 -0.35321,-0.30181 -0.36798,-0.3331 -0.27102,-0.30059 -0.1214,-0.22051 -0.418,-1.8836 -0.7616,-2.1695 -0.006,-0.005 -0.151,-0.1178 -0.29461,-0.23 -0.0539,-0.0421 -2.05086,-1.57677 z"
           id="path3877"
           style="fill:#e45c36;fill-opacity:1;stroke:#ffffff;stroke-width:1;stroke-linejoin:round;stroke-miterlimit:4;stroke-opacity:1;stroke-dasharray:none;display:inline" />
      </g>
      <path
         d="m 417.67581,162.77789 0.1894,-0.66909 -0.007,-0.23349 -0.1535,-0.222 -3.25849,-1.36541 -0.12301,-0.0446 -0.3331,0.99671 -0.0801,0.27479 -0.0792,0.288 -0.002,0.2948 0.38031,0.1986 0.27259,0.14029 1.70831,0.6642 0.35138,0.0721 1.13412,-0.39492 z"
         id="path206"
         style="fill:#e45c36;fill-opacity:1;stroke:#ffffff;stroke-width:1;stroke-linejoin:round;stroke-miterlimit:4;stroke-opacity:1;stroke-dasharray:none;display:inline" />
    </g>
  </g>
</svg>
