<?xml version="1.0" encoding="UTF-8" standalone="no"?>
<!-- Created with Inkscape (http://www.inkscape.org/) -->

<svg
   xmlns:svg="http://www.w3.org/2000/svg"
   xmlns="http://www.w3.org/2000/svg"
   version="1.1"
   width="288.18518"
   height="522"
   id="svg94950">
  <defs
     id="defs1272" />
  <g
     id="layer3"
     style="display:inline">
    <g
       transform="translate(-155.90739,-39)"
       id="CUTRO"
       style="fill:#e45c36;fill-opacity:1;stroke:#ffffff;stroke-width:0.5;stroke-linejoin:round;stroke-miterlimit:4;stroke-opacity:1;stroke-dasharray:none;display:inline" />
    <g
       transform="translate(-155.90739,-39)"
       id="CRUCOLI"
       style="fill:#e45c36;fill-opacity:1;stroke:#ffffff;stroke-width:0.5;stroke-linejoin:round;stroke-miterlimit:4;stroke-opacity:1;stroke-dasharray:none;display:inline" />
    <path
       d="m 259.25863,165.42846 0.0376,0.11218 0.694,0.5751 4.32541,3.3812 0.0625,0.0392 1.01718,0.6224 0.1745,0.0988 0.31412,0.17839 0.5773,0.28441 0.3652,0.1743 0.0677,0.0308 1.95051,0.88214 0.58749,0.338 0.90751,0.5486 0.0259,0.0612 0.0108,0.0578 0.0192,0.0569 0.0178,0.051 0.2236,0.177 0.084,0.0444 0.50901,0.1817 0.11459,0.036 0.21722,0.0627 0.0694,0.0198 0.12988,0.0303 2.3049,0.53309 0.2266,0.0508 0.10571,0.0237 0.38699,0.0759 0.6026,0.0748 0.0626,0.006 0.0891,8.1e-4 0.83029,-0.008 0.7699,-0.0194 0.0984,-0.005 0.2858,-0.0133 0.10291,0.0135 0.4046,0.1006 0.0753,0.029 0.0356,0.0342 0.0233,0.043 0.005,0.0547 -0.004,0.0453 -0.0133,0.0482 -0.0226,0.0571 -0.43778,1.0321 -0.15671,0.3297 -0.0287,0.0599 -1.48899,2.27828 -0.70901,0.93821 -1.10358,2.73311 -0.40491,1.97 -0.0128,0.0602 -0.0751,0.29351 -0.80172,2.27639 -0.1958,0.5282 -0.0862,0.1937 -0.1,0.1818 -4e-4,-2.6e-4 -0.0907,0.2845 -0.10199,0.31791 -0.20132,0.55899 -0.7399,1.78601 -0.9899,2.3622 -0.14266,0.20727 -0.28656,0.96639 -0.0569,0.20041 -0.0332,0.13429 -0.0899,0.44591 -0.27518,1.45979 -0.003,0.0584 -5.2e-4,0.0209 0.1413,3.41369 0.0312,0.16771 0.021,0.0696 0.10029,0.32476 -0.62523,2.96535 -0.3865,2.0981 -0.0179,0.10701 -0.0625,0.38201 -0.0297,0.28689 -0.002,0.2531 0.003,0.0461 0.009,0.1076 0.1456,1.64099 0.006,0.069 0.0574,0.33501 0.0743,0.26649 0.0153,0.0539 0.30338,0.9197 0.315,0.6325 0.0809,0.1476 0.096,0.1594 2.88229,4.6157 0.3425,0.4337 0.12671,0.1525 0.34671,0.4185 0.1008,0.1136 0.29209,0.29059 0.0862,0.0826 0.8854,0.8147 0.15079,0.1033 0.1022,0.0561 0.24693,-0.0182 0.25223,0.76546 0.11329,0.232 0.272,0.33761 0.25561,0.3118 0.1569,0.18201 0.0669,0.044 0.0855,0.0676 0.0792,0.14389 -0.0307,0.56879 -0.023,0.24112 -0.28418,1.0805 -0.5824,1.51358 -0.20932,0.50022 -1.07949,2.05008 -0.1941,0.32492 -0.22161,0.35928 -0.0536,0.1001 -0.1706,0.3193 -0.35211,0.7616 -1.42599,3.49481 -0.0204,0.0544 -0.2456,0.656 -0.70173,2.1113 -0.28439,0.91312 -0.61368,2.22879 -0.1455,0.60061 -0.15751,0.64698 -0.12591,0.5819 -0.17398,1.1243 -0.1405,0.97971 -0.0672,0.7699 10e-4,0.0686 -0.0167,0.9996 0.29749,2.02201 0.01,0.0635 0.0323,0.0928 0.13242,0.35412 0.14239,0.29679 1.20209,1.6889 0.0139,0.0176 0.0379,0.0354 0.0618,0.0575 0.22098,0.185 0.298,0.2048 0.1561,0.077 0.13772,0.0608 0.26499,0.0817 0.0528,0.0128 0.08,0.0177 1.40418,0.0247 0.071,-0.0166 0.19669,-0.51858 -0.375,-0.5972 -0.60679,-0.78452 -0.49911,-0.62799 0.20911,0.12241 0.29709,0.37729 0.2911,0.37051 0.37451,0.48618 0.40699,0.64853 0.63971,1.61529 0.004,0.0431 -0.0647,0.21369 -0.0554,0.12793 -0.0656,0.15148 -0.0401,0.0804 -0.0708,-0.0304 -0.0838,-0.0904 0.0243,-0.0186 0.0218,-0.0138 0.14429,-0.14969 -0.12848,-0.14099 -0.19382,-0.09 -0.0431,0.002 -0.0236,-8.8e-4 -0.5957,0.50888 -0.32831,0.51501 -0.0286,0.14401 -0.0208,0.4704 0.0812,0.47748 0.0966,0.5618 0.0978,0.4234 0.13691,0.46362 0.2496,0.81058 0.10831,0.30161 0.112,0.23571 0.23529,0.362 0.78369,1.11319 1.11261,1.36621 0.11072,0.10758 0.51419,0.4306 4.09649,2.55811 0.064,0.0331 1.16031,0.40329 2.98318,1.02789 0.3776,0.0719 0.1813,-0.003 0.3555,-0.0299 0.7489,-0.70591 0.2594,0.31311 -0.0272,0.61261 -0.2464,1.20539 -0.35141,0.15139 -0.9223,-0.31597 -0.70688,-0.17203 -0.0207,2.1e-4 -0.44818,0.0988 -0.2645,0.1481 -0.25281,0.18371 -1.49319,1.62742 -1.2471,1.56558 -0.444,0.60339 -0.0209,0.0345 -0.0116,0.0192 -0.55577,0.98216 -0.7023,1.14515 -0.0244,0.0671 -0.0229,0.0662 -0.77301,3.01218 -0.009,0.0445 -0.007,0.0504 -0.005,0.0427 -0.002,0.0954 0.20431,2.56461 0.19049,0.71411 0.0244,0.0487 0.0559,0.0638 0.0297,0.0231 0.0818,0.0516 0.19778,0.0656 0.26361,0.0479 0.0459,0.0155 0.086,0.0296 0.16839,0.13831 0.0246,0.0358 0.026,0.0487 0.19092,0.42398 0.36169,1.18402 -0.33261,0.7685 -1.01928,0.82998 -0.029,0.003 -0.0625,-0.0224 -1.31842,0.6886 -0.43548,0.23868 -0.0644,0.0461 -0.20859,0.1665 -0.11939,0.10129 -0.25851,0.22702 -0.0701,0.0645 -0.0786,0.0882 -0.0628,0.0939 -0.0139,0.0315 -0.009,0.0342 -0.0537,0.38019 -0.7146,0.44671 -0.651,0.85291 -0.62391,0.76748 -1.2369,1.49732 -2.23059,2.11828 -2.74329,2.56272 -0.17941,0.14728 -0.0402,0.0345 -0.21731,0.26169 -0.525,0.95911 -0.14028,0.27569 0.0152,0.0222 0.0455,0.0845 0.0261,0.0506 0.1308,0.41998 0.002,0.0757 -0.0118,0.15948 -0.0165,0.0773 -0.0451,0.0515 -0.094,0.0819 -0.13871,0.12082 -0.26766,0.17429 -0.11112,0.01 -0.0705,-0.0378 -0.37101,-0.24738 -0.13119,-0.1188 -0.0998,-0.22302 -0.0211,-0.0743 -0.0156,-0.0592 -0.009,-0.0637 0.0141,-0.0733 0.0762,-0.30271 0.30551,-0.9161 0.215,-0.60929 0.034,-0.0827 0.0394,-0.1546 0.0146,-0.0745 -0.19299,-0.37458 -0.0294,-0.0375 -0.1333,-0.16492 -0.29242,-0.3158 -0.0296,-0.0312 -0.1854,-0.18679 -0.21319,-0.15552 -0.1192,-0.0844 -0.0565,-0.0366 -0.16971,-0.1048 -0.085,-0.0484 -0.13092,-0.0623 -0.25919,-0.12091 -0.0272,-0.0122 -0.0431,-0.0192 -0.11877,-0.0389 -0.0367,0.004 -0.0234,0.0459 0.002,-10e-5 -3.0911,-0.94812 -0.2392,-0.0738 -0.30859,-0.095 -0.0888,-0.0197 -1.51129,-0.20169 -0.9751,-0.1153 -0.20962,0.0128 -0.4473,0.0398 -0.3041,0.0359 -0.1453,0.0364 -0.0465,0.0116 -0.19641,0.0822 -0.0589,0.0251 -0.104,0.0443 -0.0221,0.0116 -0.9526,0.23529 -0.1521,0.0662 -0.34949,0.17981 -0.032,0.0287 -0.10471,0.137 -0.0257,0.0352 -0.008,0.0321 -0.25961,1.22009 0.061,0.22559 0.0306,0.022 0.0287,0.0285 6.1e-4,0.046 -0.0205,0.0405 -0.13629,0.1102 -0.81842,0.41769 -0.34939,0.0319 -0.0589,-0.0159 -0.0181,-0.0115 -2.061,-1.3642 -0.75891,-0.82409 -1.16041,-1.9899 -0.15939,-0.84641 0.0194,-0.14828 4.9e-4,-0.0215 -0.001,-0.0167 -0.01,-0.0218 -0.18518,-0.3656 -0.0141,-0.0233 -0.0197,-0.0166 -1.74579,-1.31769 -0.23871,-0.1697 -0.0864,-0.047 -0.0644,-0.033 -0.2753,-0.13681 -0.26894,-0.0947 -0.24065,-0.0605 -0.0427,-0.0105 -0.10669,-0.0239 -0.25381,-0.051 -0.0666,-0.006 -0.18082,-0.0135 -2.8071,-0.0992 -0.13818,-5.8e-4 -0.1503,0.009 -0.31732,0.0195 -0.0573,0.006 -0.12421,0.0141 -0.59591,0.1001 -0.12638,0.0256 -5.87802,1.20501 -4.31418,0.922 -1.33802,0.24042 -0.005,-0.19226 0.006,-0.1044 0.0217,-0.2479 0.0693,-0.7077 0.0426,-0.0456 0.0751,-0.0794 0.0745,-0.0701 0.0787,-0.0488 0.0823,-0.0264 0.0753,-0.0102 0.31079,-0.0337 0.10251,0.002 0.10879,0.0105 0.1362,-5.8e-4 0.13611,-0.002 0.15509,-0.0116 0.16812,-0.0283 0.4126,-0.0898 0.12018,-0.0419 0.16659,-0.0652 0.0852,-0.066 0.0665,-0.0677 0.1102,-0.1582 0.29791,-0.52908 0.10229,-0.19782 0.0418,-0.0898 0.0189,-0.1001 0.10151,-0.65652 -0.009,-0.0722 -0.0193,-0.072 -0.12009,-0.36838 -0.028,-0.0717 -0.0349,-0.1333 -0.0611,-0.28339 -0.013,-0.0757 0.0487,-0.12061 0.0411,-0.073 0.0684,-0.0591 0.0905,-0.0194 0.9213,-0.19311 1.34149,-0.42798 0.061,-0.11221 -0.0234,-0.0913 -0.26218,-0.57508 -0.0445,-0.0868 -0.0483,-0.084 -0.0611,-0.0914 -9e-5,-3.1e-4 -0.29931,0.18988 -0.11771,0.018 -0.9483,-0.7287 -0.8415,-0.7413 -2.55389,-2.5285 -0.0624,-0.0926 -0.027,-0.0401 -0.0422,-0.095 0.002,-0.0796 0.84646,-2.3252 -0.71959,-1.28992 0.46491,-1.8937 -0.6915,-1.3389 -2.55438,-2.48828 -2.13321,-1.50131 -1.3204,-1.05771 -1.297,-1.60129 -0.42209,-0.5983 -0.42581,-1.03 -2.608,-1.11261 -0.41089,-0.20889 -0.28038,-0.23444 -0.61941,-0.5766 -0.91059,-0.83362 -2.04971,-0.7413 -0.0833,-0.0125 -1.0094,-0.12561 -1.26932,-0.1745 -1.49039,-0.61371 -0.80459,-0.483 -0.88422,-0.577 -0.0685,-0.0532 -0.0806,-0.052 -0.0938,-0.048 -0.8627,-0.19198 -0.18579,-0.037 -1.767,-0.32639 -2.3956,0.0857 -0.40042,0.0811 -0.34509,0.1781 -0.0415,0.0752 -0.0378,0.1206 -0.008,0.076 -0.0557,0.16101 -0.0394,0.0869 -0.0368,0.0756 -0.26159,0.40472 -0.0522,0.0753 -0.0662,0.0573 -0.0743,0.0556 -0.0634,0.0302 -0.60131,0.18139 -0.24778,-0.004 -0.0971,-0.008 -0.0223,-0.002 -0.93341,-0.88202 -0.0662,-0.0624 -0.0346,-0.0481 -0.009,-0.0847 0.0332,-0.0853 0.0476,-0.0768 -0.10099,-0.42749 -0.724,-0.54171 -3.27822,-3.33609 -0.015,-0.0758 -0.0256,-0.1124 -0.0174,-0.0603 -0.0781,-0.22079 -0.10831,-0.2591 -0.0812,-0.15081 -0.14578,-0.16669 -0.59891,-0.54349 -0.0576,-0.049 -0.0558,-0.0425 -0.0832,-0.0439 -0.0606,-0.0115 -0.1026,-0.0129 -1.40329,-0.16068 -0.82471,-0.02 -0.09,-0.01 -0.88162,-0.22211 -0.19809,-0.0672 -2.3339,-4.02798 0.004,-0.345 -1.51151,-1.8552 -0.0473,-0.0534 -0.0684,-0.0562 -1.23013,-0.95315 0.23675,-0.31344 -0.27698,-0.46121 -0.544,-0.23297 -0.91702,-0.27512 -0.75753,-0.71822 0.98015,-0.18975 0.0822,-10e-4 0.42798,0.0247 0.0941,0.0122 0.50919,0.0705 0.62832,0.10159 0.3751,0.0424 0.14679,0.003 2.06829,-0.4267 0.10361,-0.0384 0.0406,-0.049 0.0247,-0.0693 0.1355,-0.48089 1.04849,0.83679 0.7858,0.33249 0.1762,0.001 0.11161,-0.008 -0.42972,-1.18179 -0.69898,-0.5896 -0.51971,-0.40222 -0.1102,-0.0755 -0.0724,-0.0482 -0.0577,-0.0679 -0.15969,-0.8082 -0.008,-0.1015 -0.17242,-2.04691 0.003,-0.0595 0.1178,-0.376 -0.5961,-0.005 -1.80789,0.39222 -1.14651,0.32559 -3.84388,-2.26889 -0.0387,-0.0599 -0.0486,-0.10181 -0.0111,-0.0261 -0.01,-0.0226 -0.0155,-0.0362 -0.034,-0.0911 -0.0453,-0.1749 -0.22241,-1.0791 -0.006,-0.1076 0.005,-0.13401 0.01,-0.0904 -0.27451,-0.7518 -0.76819,-1.45801 -1.026,-1.87338 -0.055,-0.1001 -0.0529,-0.0969 -0.0322,-0.0856 -0.0318,-0.10138 -0.0476,-0.17511 -0.0335,-0.21909 -0.0863,-0.57531 0.15993,-0.1657 0.0942,-0.097 0.24588,-0.23962 1.29861,-0.5473 0.38101,-0.15668 0.25568,-0.0823 0.18191,-0.0507 0.23661,-0.065 0.19638,-0.0453 0.17932,-0.0362 0.0927,-0.0132 0.33472,-0.0241 0.51538,-0.0235 0.2084,-0.001 0.0712,0.008 0.0986,0.0126 0.33942,0.0624 0.0796,0.0203 0.35721,0.11218 0.13998,0.057 0.1084,0.0523 0.78021,0.3276 0.12329,0.0461 0.40772,0.005 0.1138,-0.0208 0.0633,-0.0135 0.15479,-0.0771 0.1105,-0.0568 1.54782,-0.60528 2.01349,-0.7807 0.90329,-0.29669 0.42072,0.001 2.19558,0.61779 0.38221,0.14179 0.0622,0.0431 0.1611,0.82938 0.009,0.0732 4.2796,0.24341 0.12088,0.0565 0.46881,0.4339 0.15939,0.24249 -0.0462,0.10413 0.009,0.0952 0.0193,0.0993 0.0361,0.0892 0.28058,0.16889 1.4617,0.27661 2.56442,0.22561 0.0988,-0.008 1.78311,-0.57391 0.97339,-0.66241 0.0881,-0.3032 1.14941,-0.20419 0.1055,-0.0129 0.0495,0.0473 0.10559,0.10462 0.14759,0.17959 0.0616,0.0767 0.10819,0.1626 0.1279,0.22312 0.79541,-0.4719 -2.94681,-5.9676 -0.52469,-0.79041 -1.5947,-2.6954 -0.62481,-2.0744 -0.019,-0.093 -9.1e-4,-0.0819 0.023,-0.0841 0.0312,-0.0813 0.23752,-0.42889 0.139,-0.2431 1.27628,-2.68219 0.47391,-0.99732 -8.7e-4,0.001 -0.015,-0.3078 -0.22961,-0.74399 -0.31271,-0.4878 -0.078,-0.097 -0.0546,-0.0971 -0.0508,-0.1083 -0.4647,-1.42661 -0.18151,-0.82809 -0.0132,-0.0778 0.22208,-0.70829 0.0385,-0.0691 1.56909,-1.22509 -3.11371,-2.80642 -0.0769,-0.26899 -0.3197,-0.6615 -0.0561,-0.0626 -1.81018,-1.31551 -0.75562,-0.34621 -2.03509,-0.83389 -1.77006,-0.94098 0.12992,-1.30604 0.1449,-2.75039 -0.0932,0.0319 -0.0771,-0.0412 -0.024,-0.0703 -0.40189,-1.59109 -0.0221,-0.28431 -0.008,-0.1298 0.002,-0.4795 0.0721,-0.68251 0.0171,-0.10449 0.0757,-0.009 1.11462,-0.11129 0.83518,-0.0722 0.52871,0.26368 0.0328,0.049 0.0237,0.0766 0.026,0.082 0.0218,0.0617 0.11808,0.2064 0.10702,0.1404 0.066,0.077 0.1236,0.11461 0.13952,0.1243 0.24958,0.0382 0.86862,-0.0126 0.11139,-0.002 0.12549,-0.0596 0.0876,-0.0523 0.0708,-0.0705 0.0623,-0.064 0.0606,-0.0871 0.17871,-0.3101 0.0636,-0.1184 0.0717,-0.2216 0.0144,-0.10901 0,-0.0944 -0.0132,-0.0946 -0.0496,-0.0557 -0.0867,-0.0925 -0.11368,-0.1053 -0.0793,-0.0372 -0.1008,-0.0297 -0.0455,-0.0364 -0.0217,-0.0649 0.01,-0.0779 0.085,-0.37269 0.0162,-0.0689 0.0833,-0.16081 0.0819,-0.0864 0.1127,-0.0638 0.14481,-0.0747 0.0679,-0.034 0.0911,-0.0321 0.0887,0.001 0.25451,0.0344 0.13735,0.0537 1.38924,0.76022 0.0748,0.0348 0.1052,0.009 0.1206,-0.002 2.20352,-0.64042 0.061,-0.22149 0.0476,-0.0484 0.4805,-0.10759 0.13092,-0.0149 0.0542,0.0204 0.27118,0.142 0.23801,0.3239 1.00769,1.3782 0.16482,0.61569 0.0456,0.24431 0.005,0.0697 -0.004,0.0805 0.008,0.24521 0.0448,0.0501 0.18039,0.1877 0.8783,0.1022 1.513,-0.3488 0.6405,0.0103 -0.12228,-0.1019 -0.051,-0.0821 -0.0239,-0.0787 0.0127,-0.10071 0.0245,-0.0609 0.0238,-0.0536 0.1445,-0.15539 0.17072,-0.10379 0.0613,-0.0157 0.4021,-0.0922 0.11602,0.002 2.784,0.47439 0.0878,0.0308 0.2912,0.1911 0.1752,0.19471 0.25659,0.22799 0.35361,0.22391 0.0582,0.0344 0.0732,0.0253 0.19531,0.0369 0.0649,0.0119 0.90018,0.0772 0.30182,-0.0272 0.4071,-0.0381 0.2338,0.0109 0.11788,0.0103 1.072,0.1017 0.10421,0.0531 0.0832,0.0587 0.66352,1.0393 0.0508,-0.1142 0.0311,-0.076 0.0398,-0.1015 0.009,-0.3519 -0.007,-0.30918 -0.0921,-0.94951 0.6811,-1.35981 1.35,-0.59489 1.2049,-0.5089 0.0636,-0.0217 0.0782,-0.0131 0.0651,0.0162 0.0606,0.0284 0.12311,0.0632 0.51428,0.28951 0.86112,0.23279 0.11929,0.0304 0.0456,-0.0643 0.21951,-0.31981 0.0182,-0.0541 0.0606,-0.28331 0.77591,-1.24729 0.99228,-1.1149 0.99982,-0.8371 0.074,-0.007 0.99531,-0.12149 0.0739,-0.024 0.0808,-0.0275 4.10629,-2.04379 0.0393,-0.0585 0.0722,-0.22141 0.0193,-0.10218 0.0193,-1.51191 -0.002,-0.1072 -0.17029,-0.8998 -0.99921,-0.50459 -1.32538,-1.64901 -0.0323,-0.0595 -0.0299,-0.0761 -0.0195,-0.0805 -0.0809,-0.34089 -0.0155,-0.0801 -0.0185,-0.4225 0.0148,-0.1141 0.0299,-0.0877 0.0302,-0.0844 0.52289,-0.63398 0.1307,9e-4 1.9423,0.28639 0.59722,0.2677 2.7981,1.95452 0.0804,0.091 0.0495,0.0611 0.0863,0.19859 0.052,0.1232 0.0467,0.0839 0.0551,0.0846 0.1603,0.20101 0.0883,0.10749 0.61261,0.6146 0.57138,0.2006 1.50812,0.18261 0.0891,-0.053 0.1221,-0.0983 0.32852,-0.27431 0.13779,-0.14209 0.0607,-0.0702 0.0418,-0.0686 -0.32422,-1.3806 -0.2084,-0.91059 -0.0178,-0.14949 0.003,-0.11211 0.008,-0.0853 0.11368,-0.5861 0.0164,-0.0721 0.0484,-0.0765 0.1665,-0.38941 0.18628,-0.438 0.0297,-0.0855 0.083,-4.12809 0.0124,-0.87742 1.25599,-0.59412 0.12131,-0.0669 0.23239,-0.2093 0.2132,-0.2687 0.18991,-0.2991 0.2818,-0.44099 0.2008,-0.30341 0.27579,-0.3618 0.26941,-0.3519 0.25931,-0.274 0.52118,-0.489 0.16672,-0.11011 1.08078,-0.49279 0.1426,-0.0577 0.29532,-0.1071 0.17679,-0.0577 0.15869,-0.0384 0.28272,-0.1071 0.3587,-0.1602 0.14929,-0.077 0.16001,-0.0907 0.44528,-0.2742 0.11572,-0.08 0.3512,-0.3287 0.23318,-0.249 0.10494,-0.10843 0.81291,-1.19425 2.32858,-2.2253 0.0842,-0.0838 0.2695,-0.3286 0.16299,-0.2258 0.37552,-0.53053 0.39692,0.28477 0.0779,0.0764 0.0916,0.0955 0.0364,0.0475 0.036,0.0662 0.24881,0.46181 0.0192,0.037 0.0169,0.038 0.0201,0.0458 0.0441,0.11169 0.24463,0.6277 0.0303,0.0815 0.0647,0.18519 0.0197,0.0591 0.56299,1.71859 0.50061,1.7195 0.053,0.2115 0.0249,0.0769 0.028,0.0848 0.25241,0.6608 0.039,0.073 0.16299,0.29 0.096,0.1532 1.07068,1.7027 0.0469,0.0703 0.37641,0.4406 0.42279,0.44351 0.1763,0.15458 0.0196,0.017 0.0762,-0.0109 z"
       id="path5228"
       style="fill:#e45c36;fill-opacity:1;stroke:#ffffff;stroke-width:0.5;stroke-linejoin:round;stroke-miterlimit:4;stroke-opacity:1;stroke-dasharray:none;display:inline" />
  </g>
  <g
     id="layer1"
     style="display:inline">
    <path
       d="m 172.94591,56.219301 -0.15891,0.10828 -0.2412,0.176993 -0.3598,0.3339 -1.3205,1.3611 -1.7135,2.1027 -0.26099,0.3415 -2.759,3.7497 -0.26199,0.3651 -0.6677,1.026 -0.65802,1.0922 -0.18109,0.3111 -0.2637,0.4653 -0.31329,0.5649 -1.34882,2.6027 -0.0828,0.1758 -0.006,0.069 -0.2492,0.2416 -1.1218,1.2918 -0.14941,0.1763 -0.29731,0.3873 -0.0213,0.0306 -0.67349,1.0552 -0.0357,0.0579 -0.27789,0.4757 -0.36609,0.6832 -0.12552,0.2421 -0.12188,0.2354 -0.1221,0.2491 -0.40592,0.8326 -0.0468,0.099 -0.0579,0.1435 -0.1811,0.458 -0.0656,0.1846 -0.0291,0.0821 -0.25479,0.7148 -0.0548,0.1676 -0.1099,0.3491 -0.1618,0.5477 -0.0479,0.1713 -0.0593,0.2226 -0.0637,0.2845 -0.0525,0.2365 -0.14291,0.6615 -0.0686,0.3704 -0.56873,3.642455 0.0942,0.335155 0.10932,1.3815 0.006,0.1235 -2.1e-4,0.2013 0,0.1913 -0.0156,0.5552 0.003,0.6949 0.003,0.0735 0.0428,0.4683 0.0422,0.2713 0.0142,0.0813 0.32342,1.37741 0.0586,0.2213 0.41098,1.25509 0.0598,0.14791 0.12039,0.24549 0.1319,0.25721 0.0378,0.0702 0.2832,0.5149 0.1587,0.28859 0.3316,0.46271 0.3035,0.41741 0.17929,0.21559 0.20212,0.24299 0.3208,0.3609 0.38269,0.38131 0.1806,0.13819 0.0904,-0.1042 0.189,-0.0312 0.23071,0 2.96149,2.21489 0.59054,0.495765 -0.0294,0.818535 -0.24621,1.757486 -1.7e-4,2.6e-4 -0.33548,3.29702 -0.17002,2.12838 -0.0151,0.44391 -0.0125,0.6436 0.0706,0.8701 0.0465,0.43599 -0.38809,1.46691 -0.22721,0.16681 -0.44229,0.33729 -0.0592,0.0528 -0.0847,0.08 -0.0743,0.0936 -0.0492,0.0877 -0.0398,0.0828 -0.0185,0.0818 -0.008,0.058 -0.004,0.0501 0.008,0.12621 0.89389,2.1162 0.14771,0.1016 0.0551,0.0264 0.0384,0.002 3.48608,1.10058 2.75562,1.93261 1.87271,1.2068 0.82073,0.44901 2.29421,1.34061 1.13491,0.6483 0.0907,0.052 0.12549,0.0721 0.0984,0.056 0.19809,0.1123 0.0763,0.0369 0.44632,0.21451 0.348,0.16519 1.04419,0.4797 0.6488,0.21849 1.62109,0.4899 0.084,0.0208 0.5235,0.11999 0.1379,0.0285 0.0738,0.0136 0.2453,0.0429 0.1896,0.0329 0.54129,0.0921 0.3458,0.0525 0.96161,0.0754 0.73739,0.0322 0.40839,0.0138 0.42972,0.0108 0.68728,5e-4 0.1359,-0.001 2.79901,-0.0581 0.20401,-0.004 0.3833,-0.0144 0.0813,-0.003 0.91229,-0.0482 0.51099,-0.0283 0.10891,-0.006 0.37571,-0.024 0.52948,-0.0382 0.62692,-0.0775 4.89169,0.5793 2.11289,0.34079 0.20831,0.0334 0.97321,0.1179 0.14279,0.0163 0.4021,0.0199 0.0632,10e-4 0.20111,-0.003 0.12918,-0.008 0.0677,-0.005 0.0529,-0.005 0.0402,-0.004 0.1401,-0.0331 0.20841,-0.0503 0.48031,-0.23199 0.074,-0.0463 0.0911,-0.0627 1.1362,-0.71761 1.1951,-0.63921 2.98946,0.75425 0.008,-0.0786 0.0527,0.0129 0.461,0.3004 1.02179,0.8101 0.023,0.0207 0.0873,0.1052 0.4349,0.5476 0.15632,0.2561 0.0154,0.0407 0.0196,0.0398 0.11529,0.17459 0.22721,0.31759 0.21438,0.29721 0.0406,0.0524 0.19998,0.20549 0.0459,0.0413 0.63242,0.5646 0.0549,0.0476 0.117,0.0897 0.093,0.0695 0.16141,0.10579 0.0922,0.0604 0.39951,0.2515 0.51529,0.3222 0.23709,0.14609 0.2225,0.13851 0.14942,0.1038 0.17559,0.13381 0.89231,0.72989 0.1036,0.0849 0.5055,0.4263 0.84378,0.912 0.25808,0.30372 0.11158,0.49497 0.0138,0.06 0.68329,2.32759 0.0582,0.16102 0.0171,0.0451 0.17109,0.44681 0.0442,0.0993 0.30253,0.62159 0.097,0.1722 0.0319,0.0529 0.1091,0.165 1.21543,1.58955 1.30792,1.34966 0.55511,0.4742 0.90799,0.68719 0.4928,0.3638 0.1214,0.0779 1.65083,1.06171 0.40315,0.67351 0.0323,0.0515 0.0249,0.0354 0.0439,0.0582 0.0466,0.0601 0.1059,0.1131 0.0519,0.055 0.1073,0.0996 0.17801,0.14878 0.0369,0.0246 0.1222,0.0792 0.037,0.0236 0.49579,0.2808 1.8035,1.0046 0.215,0.1195 0.90912,0.4709 0.1781,0.0888 1.07989,0.46 1.51592,0.64451 1.88932,1.63183 0.1646,0.11444 0.10369,0.072 0.0728,0.0463 0.0458,0.025 0.0638,0.0312 1.2196,0.4991 0.957,0.3663 0.45221,0.30231 2.1629,1.64949 0.48588,0.649 0.0822,0.0503 0.1235,0.0701 0.32261,0.17298 0.47219,0.24941 1.72651,0.8228 0.0814,0.0376 2.2117,0.71231 0.19491,0.0574 1.34571,0.3367 0.64337,0.1107 0.69021,0.11281 1.00849,0.14419 0.5361,0.0576 1.58581,0.239 0.4878,0.0775 1.11819,0.1964 0.29651,0.081 1.7265,0.67138 0.0731,0.0485 -0.0316,0.0791 -0.0456,0.0704 -0.0607,0.0681 -0.0501,0.0532 -0.0222,0.0218 -0.37571,0.5307 -0.16299,0.2258 -0.2695,0.3286 -0.0842,0.0838 -2.32858,2.2253 -0.81291,1.19425 -0.10494,0.10843 -0.23318,0.249 -0.3512,0.3287 -0.11572,0.08 -0.44528,0.2742 -0.16001,0.0907 -0.14929,0.077 -0.3587,0.1602 -0.28272,0.1071 -0.15869,0.0384 -0.17679,0.0577 -0.29532,0.1071 -0.1426,0.0577 -1.08078,0.49279 -0.16672,0.11011 -0.52118,0.489 -0.25931,0.274 -0.26941,0.3519 -0.27579,0.3618 -0.2008,0.30341 -0.2818,0.44099 -0.18991,0.2991 -0.2132,0.2687 -0.23239,0.2093 -0.12131,0.0669 -1.25599,0.59412 -0.0124,0.87742 -0.083,4.12809 -0.0297,0.0855 -0.18628,0.438 -0.1665,0.38941 -0.0484,0.0765 -0.0164,0.0721 -0.11368,0.5861 -0.008,0.0853 -0.003,0.11211 0.0178,0.14949 0.2084,0.91059 0.32422,1.3806 -0.0418,0.0686 -0.0607,0.0702 -0.13779,0.14209 -0.32852,0.27431 -0.1221,0.0983 -0.0891,0.053 -1.50812,-0.18261 -0.57138,-0.2006 -0.61261,-0.6146 -0.0883,-0.10749 -0.1603,-0.20101 -0.0551,-0.0846 -0.0467,-0.0839 -0.052,-0.1232 -0.0863,-0.19859 -0.0495,-0.0611 -0.0804,-0.091 -2.7981,-1.95452 -0.59722,-0.2677 -1.9423,-0.28639 -0.1307,-9e-4 -0.52289,0.63398 -0.0302,0.0844 -0.0299,0.0877 -0.0148,0.1141 0.0185,0.4225 0.0155,0.0801 0.0809,0.34089 0.0195,0.0805 0.0299,0.0761 0.0323,0.0595 1.32538,1.64901 0.99921,0.50459 0.17029,0.8998 0.002,0.1072 -0.0193,1.51191 -0.0193,0.10218 -0.0722,0.22141 -0.0393,0.0585 -4.10629,2.04379 -0.0808,0.0275 -0.0739,0.024 -0.99531,0.12149 -0.074,0.007 -0.99982,0.8371 -0.99228,1.1149 -0.77591,1.24729 -0.0606,0.28331 -0.0182,0.0541 -0.21951,0.31981 -0.0456,0.0643 -0.11929,-0.0304 -0.86112,-0.23279 -0.51428,-0.28951 -0.12311,-0.0632 -0.0606,-0.0284 -0.0651,-0.0162 -0.0782,0.0131 -0.0636,0.0217 -1.2049,0.5089 -1.35,0.59489 -0.6811,1.35981 0.0921,0.94951 0.007,0.30918 -0.009,0.3519 -0.0398,0.1015 -0.0311,0.076 -0.0508,0.1142 -0.66352,-1.0393 -0.0832,-0.0587 -0.10421,-0.0531 -1.072,-0.1017 -0.11788,-0.0103 -0.2338,-0.0109 -0.4071,0.0381 -0.30182,0.0272 -0.90018,-0.0772 -0.0649,-0.0119 -0.19531,-0.0369 -0.0732,-0.0253 -0.0582,-0.0344 -0.35361,-0.22391 -0.25659,-0.22799 -0.1752,-0.1947 -0.2912,-0.19111 -0.0878,-0.0308 -2.784,-0.47439 -0.11602,-0.002 -0.4021,0.0922 -0.0613,0.0157 -0.17072,0.10379 -0.1445,0.1554 -0.0238,0.0536 -0.0245,0.0609 -0.0127,0.10071 0.0239,0.0787 0.051,0.0821 0.12228,0.1019 -0.6405,-0.0103 -1.513,0.3488 -0.8783,-0.1022 -0.18039,-0.1877 -0.0448,-0.0501 -0.008,-0.2452 0.004,-0.0805 -0.005,-0.0697 -0.0456,-0.24431 -0.16482,-0.61569 -1.00769,-1.3782 -0.23801,-0.3239 -0.27118,-0.142 -0.0542,-0.0204 -0.13092,0.0149 -0.4805,0.10759 -0.0476,0.0484 -0.061,0.22149 -2.20352,0.64042 -0.1206,0.002 -0.1052,-0.009 -0.0748,-0.0348 -1.38924,-0.76022 -0.13735,-0.0537 -0.25451,-0.0344 -0.0887,-0.001 -0.0911,0.0321 -0.0679,0.034 -0.14481,0.0747 -0.1127,0.0638 -0.0819,0.0864 -0.0833,0.16081 -0.0162,0.0689 -0.085,0.37269 -0.01,0.0779 0.0217,0.0649 0.0455,0.0364 0.1008,0.0297 0.0793,0.0372 0.11368,0.1053 0.0867,0.0925 0.0496,0.0557 0.0132,0.0946 0,0.0944 -0.0144,0.10901 -0.0717,0.2216 -0.0636,0.1184 -0.17871,0.3101 -0.0606,0.0871 -0.0623,0.064 -0.0708,0.0705 -0.0876,0.0523 -0.12549,0.0596 -0.11139,0.002 -0.86862,0.0126 -0.24958,-0.0382 -0.13952,-0.1243 -0.1236,-0.11461 -0.066,-0.077 -0.10702,-0.1404 -0.11808,-0.2064 -0.0218,-0.0617 -0.026,-0.082 -0.0237,-0.0766 -0.0328,-0.049 -0.52871,-0.26368 -0.83518,0.0722 -1.11462,0.11129 -0.0757,0.009 -0.0171,0.10449 -0.0721,0.68251 -0.002,0.4795 0.008,0.1298 0.0221,0.28431 0.40189,1.59109 0.024,0.0703 0.0771,0.0412 0.0932,-0.0319 -0.1449,2.75039 -0.12992,1.30604 1.77006,0.94098 2.03509,0.83389 0.75562,0.34621 1.81018,1.31551 0.0561,0.0626 0.3197,0.6615 0.0769,0.26899 3.11371,2.80642 -1.56909,1.22509 -0.0385,0.0691 -0.22208,0.70829 0.0132,0.0778 0.18151,0.82809 0.4647,1.42661 0.0508,0.1083 0.0546,0.0971 0.078,0.097 0.31271,0.4878 0.22961,0.74399 0.015,0.3078 8.7e-4,-0.001 -0.47391,0.99732 -1.27628,2.68219 -0.139,0.2431 -0.23752,0.42889 -0.0312,0.0813 -0.023,0.0841 9.1e-4,0.0819 0.019,0.093 0.62481,2.07439 1.5947,2.69541 0.52469,0.79041 2.94681,5.9676 -0.79541,0.4719 -0.1279,-0.22312 -0.10819,-0.1626 -0.0616,-0.0767 -0.14759,-0.17959 -0.10559,-0.10462 -0.0495,-0.0473 -0.1055,0.0129 -1.14941,0.20419 -0.0881,0.3032 -0.97339,0.66241 -1.78311,0.57391 -0.0988,0.008 -2.56442,-0.22561 -1.4617,-0.27661 -0.28058,-0.16889 -0.0361,-0.0892 -0.0193,-0.0993 -0.009,-0.0952 0.0462,-0.10413 -0.15939,-0.24249 -0.46881,-0.4339 -0.12088,-0.0565 -4.2796,-0.24341 -0.009,-0.0732 -0.1611,-0.82938 -0.0622,-0.0431 -0.38221,-0.14179 -2.19558,-0.61779 -0.42072,-0.001 -0.90329,0.29669 -2.01349,0.7807 -1.54782,0.60528 -0.1105,0.0568 -0.15479,0.0771 -0.0633,0.0135 -0.1138,0.0208 -0.40772,-0.005 -0.12329,-0.0461 -0.78021,-0.3276 -0.1084,-0.0523 -0.13998,-0.057 -0.35721,-0.11218 -0.0796,-0.0203 -0.33942,-0.0624 -0.0986,-0.0126 -0.0712,-0.008 -0.2084,10e-4 -0.51538,0.0235 -0.33472,0.0241 -0.0927,0.0132 -0.17932,0.0362 -0.19638,0.0453 -0.23661,0.065 -0.18191,0.0507 -0.25568,0.0823 -0.38101,0.15668 -1.29861,0.5473 -0.24588,0.23962 -0.0942,0.097 -0.15992,0.16551 -2.45092,0.50349 -1.5776,1.81122 -0.83411,2.2676 -1.15122,1.43259 -0.51309,-0.229 -0.1026,-0.0149 -0.50457,0.0101 -0.10303,0.003 -0.0969,0.0234 -1.5444,0.7153 -2.5614,1.9834 -0.40509,0.702 -0.36301,0.72332 -0.69958,0.73709 -1.07862,0.9281 -1.85229,-1.65069 -0.0661,-0.0601 -0.0271,-0.0548 -0.32721,-1.87592 0.0235,-0.27209 0.0397,-0.0499 0.003,-0.004 -0.11048,-0.0964 -0.15081,-0.10599 -0.97031,-0.27521 -0.0763,0.0283 -2.22519,0.9032 -0.28461,1.82498 -0.0901,1.39081 -0.008,0.0896 -0.17041,0.80569 -0.0138,0.065 -0.007,0.004 -0.0648,0.0325 -0.0968,0.0129 -0.057,-0.005 -0.0665,-0.0266 -0.0584,-0.0258 -0.0772,-0.0367 -1.93149,0.82809 -0.70272,1.11951 -0.0393,0.0881 -0.91351,2.3103 -0.0117,0.082 0.004,0.0907 0.007,0.0594 0.74439,1.34769 0.0676,0.10751 0.0683,0.077 0.0644,0.0516 0.0577,0.0373 0.38471,0.10022 1.83679,0.43399 0.3981,0.0488 0.15301,0.006 0.0926,-0.004 0.4353,-0.0331 0.25299,-0.065 0.0864,-0.0432 0.0908,-0.005 0.084,-0.005 0.1008,-0.002 0.009,4e-4 0.062,0.002 0.51089,0.095 0.23819,0.1889 0.15122,0.12281 0.10928,0.10049 0.0536,0.0611 0.043,0.0687 0.0217,0.0994 -0.0253,0.13019 -0.0439,0.11599 -0.0614,0.11502 -0.0122,0.0227 -0.26887,0.36356 -0.31662,0.005 -0.77111,0.0376 -0.77549,0.0384 -0.0735,0.1408 -0.1532,0.23609 -0.0811,0.0678 -0.0637,0.0514 -0.0755,0.003 -0.11108,0.004 -0.44541,-0.003 -0.69879,-0.006 -0.9465,-0.276 -0.62,-0.23928 -0.72592,-0.31901 -0.5917,3.88489 0.2695,1.1467 0.40881,2.97232 0.42661,3.47229 -0.34381,0.74939 -0.0627,-0.0178 -0.0759,0.0221 -0.46368,0.25132 -0.0764,0.0598 -0.90154,0.74501 -0.99753,-0.59081 -2.41489,-0.95138 -0.4129,-0.3858 -0.1713,-0.16422 -0.0455,-0.0458 -0.0475,-0.049 -0.0616,-0.0723 -0.0749,-0.15622 -0.67068,-1.69739 -0.1814,-0.16299 -0.172,0.52539 -0.16311,0.35931 -0.30549,0.49338 -0.3124,0.3836 -0.55701,0.3299 -0.0871,0.0496 -0.15619,0.0564 -0.0651,0.0114 -1.10788,-0.26758 -0.3652,-0.10251 -0.47001,-0.6875 -0.64251,-0.9284 -0.5228,-0.51331 -0.62616,-0.57778 -0.001,-0.18083 -0.002,-0.13041 -0.007,-0.0594 -0.54849,-1.14841 -0.36939,-0.56891 -0.15591,-0.2196 -0.066,-0.0831 -0.0811,-0.0938 -0.12509,-0.12372 -0.26462,-0.14029 -0.05,-0.0262 -0.0604,-0.0291 -0.28741,-0.13699 -0.29129,-0.18662 -0.0866,-0.0648 -0.47821,-0.73529 -0.47449,-0.94491 -0.0302,-0.0886 -0.0153,-0.10202 -8.9e-4,-0.0693 0.0824,-2.00812 -1.86172,-0.26468 -0.22089,0.0428 -1.58661,0.79199 -0.2522,0.1536 -0.1376,0.1011 -0.133,0.1687 -0.85088,1.10117 -0.29732,0.0168 -0.20328,-0.0155 -0.26642,-0.0207 -0.0943,-0.0161 -0.24838,-0.0833 -0.0669,-0.0243 -0.1596,-0.1348 -0.0743,-0.0775 -0.1171,-0.17441 -0.0429,-0.0822 -0.0574,-0.1055 -0.0758,-0.1153 -0.2817,-0.3894 -0.44651,-0.47952 -0.0725,-0.0678 -0.0684,-0.0518 -0.0625,-0.0366 -0.11871,-0.0548 -0.0669,-0.0181 -0.0673,0.006 -0.10114,0.0275 -0.31874,-0.85907 0.44918,-0.54331 -0.0412,-0.0412 -0.26981,-0.23718 -0.0809,-0.0685 -0.1207,-0.0687 -0.0709,-0.0204 -0.0777,-0.0116 -0.1131,-0.0145 -0.0695,-0.003 -3.3186,0.3295 -0.18698,0.0541 -0.20612,0.17749 -0.10449,0.11221 -0.0556,0.0617 -0.20111,0.25449 -0.0452,0.0856 -1.077,0.57501 -1.76409,0.76929 -0.344,0.12329 -0.93939,0.2326 -0.10541,0.0135 -0.19491,-0.0158 -0.0817,-0.0139 -2.2388,-0.38678 -0.0813,-0.0244 -4.28598,-2.3352 -0.30792,-0.21268 -0.15189,-0.10571 -0.0493,-0.049 -1.5291,3.08973 -0.91461,0.0231 -0.9592,0.5603 -2.73562,0.7959 -0.0159,-0.0632 -0.2251,-0.8884 -0.0323,-0.11179 -0.0411,-0.0589 -0.0499,-0.0576 -0.211,-0.23209 -1.01209,-0.77292 -0.0497,-0.0365 -0.0856,-0.031 -0.0668,-0.02 -0.0734,-0.0196 -0.0878,-0.0217 -0.126,-0.004 -0.10639,0.006 0.2764,1.11831 0.018,0.0739 0.0143,0.1586 -0.0373,0.76449 -0.0136,0.2331 -0.02,0.0761 -0.0487,0.0433 -0.0616,0.11929 -0.0202,0.039 -0.10892,0.27899 -0.02,0.0792 0.007,0.1308 0.0551,0.59759 0.007,0.0677 0.0199,0.0825 0.29519,0.65829 -0.0932,0.18413 -0.0431,0.0774 -0.0874,0.0812 -0.0929,0.0514 -0.0842,0.0279 -0.57321,0.16519 -0.12198,0.0291 -0.62481,0.11389 -0.0588,-0.003 -0.0835,-0.0371 -0.0898,-0.0366 -0.0794,-0.0221 -0.16519,-0.0342 -1.0329,0.19271 -0.14132,0.0507 -0.15439,0.0842 -0.0533,0.0409 -0.25482,0.23691 -0.0467,0.0436 -0.1105,0.10559 -0.28309,0.29789 -0.48498,0.52305 -0.36793,0.40972 -0.1637,0.156 -0.1615,0.15409 -0.36322,0.3396 -0.0508,0.0432 -0.0849,0.0594 -1.382785,0.64492 -0.7069,0.31229 -0.4896,0.21729 -0.3351,0.13192 -0.4011,0.16339 -1.4553,0.60581 -0.6897,0.46088 -0.7336,0.60232 -0.0662,0.0997 -0.10309,0.18189 -0.0968,0.19491 -0.0517,0.1041 -0.04117,0.0924 -0.07247,0.24399 -0.0456,0.1297 -0.0432,0.1026 -0.18719,0.38001 -0.0692,0.1405 -1.482,0.0969 -0.0899,-0.0187 -0.0772,-0.0638 -1.03331,-0.89331 -0.1893,-0.1672 -0.0409,-0.0526 -0.0324,-0.0907 0.0139,-1.1297 -0.6409,0.068 -0.18329,0.0202 -0.42469,0.1261 -0.24392,0.35239 -0.46719,0.48388 -0.3396,0.32392 -0.2034,0.14261 -0.537,0.3136 -0.0568,0.0301 -0.065,0.0243 -1.0991,0.33032 -0.5304,0.12939 -0.0467,0.003 -0.0209,0.001 -1.26758,0.0523 -6.9e-4,-0.054 -0.002,-0.0391 -0.0599,-0.457 -0.46792,-2.26062 -0.37049,-1.7222 -0.53589,-1.83939 -0.0787,-1.31781 -0.0216,-0.22638 -0.006,-0.0505 -0.0624,-0.48072 -0.0181,-0.1206 -0.0817,-0.49558 -0.1122,-0.6651 -0.10001,-0.59512 -0.0383,-0.19238 -1.24029,-4.45542 -0.0729,-0.24798 -0.7249,-2.3501 -0.11819,-0.18152 -0.0804,-0.0307 -0.028,-0.009 -0.0214,0.003 -0.0379,-0.005 -0.01,-0.008 -0.0178,-0.0267 -0.013,-0.0199 -0.19069,-0.46991 -0.1725,-0.4729 -0.2276,-0.97909 -0.0223,-0.21 -0.0312,-0.30921 -0.21651,-2.23871 -0.0125,-0.13847 -0.006,-0.12232 -0.0145,-0.31818 -1.1e-4,-0.11551 -0.001,-0.40751 0.003,-0.20457 0.003,-0.19501 0.003,-0.12272 0.0032,-0.0239 -0.376105,-1.49136 -0.0315,-2.1227 -0.03831,-3.76607 0.01099,-0.10139 -7.9e-4,-0.0545 -0.1134,-2.4249 -0.0157,-0.13061 -0.008,-0.0575 -0.0511,-0.28879 -0.0245,-0.10501 -0.025,-0.0677 -0.0744,-0.0152 -0.0359,-0.11521 -0.0165,-0.0561 -0.0881,-0.30362 -0.0956,-0.5245 -0.01,-0.12778 -0.0354,-0.77051 -0.142885,-3.46315 -0.105305,-2.58656 -0.0799,-1.4503 -0.0758,-1.2674 -0.1418,-2.2305 -0.0834,-1.30503 -0.420885,-5.08645 -0.27181,-2.43562 -0.21218,-1.62829 -0.031,-0.17691 -0.0231,-0.1079 -0.007,-0.023 -0.3307,-0.87111 -0.0342,-0.0888 -0.0501,-0.0827 -0.0517,-0.067 -0.0439,-0.0539 -0.77629,-3.42529 -0.189925,-1.08597 -0.03262,-0.11066 -0.0579,-0.3903 -0.0238,-0.1019 -0.047,-0.1048 -0.0281,-0.0378 -0.0152,-0.23111 0.006,-0.0587 -0.004,-0.0892 -0.0189,-0.0636 -0.0418,-0.0896 -0.10131,-0.1964 0.0328,-0.0513 0.0276,-0.0746 8e-4,-0.0749 -0.006,-0.11589 -0.0155,-0.0439 -0.0527,-0.0719 -0.0442,-0.038 -0.0721,-0.55619 -0.0261,-0.2152 -0.1266,-0.94381 -0.088,-0.57599 -0.1223,-0.5416 -0.0203,-0.0912 -0.1883,-0.8634 -0.017,-0.0679 -0.0315,-0.0539 -0.0551,-0.0273 -0.0641,-0.0115 -0.0465,0.003 -0.006,0.0356 -0.0271,0.0282 -0.041,-0.004 -0.0383,-0.0896 -0.0105,-0.0346 -0.0205,-0.0673 -0.0924,-0.3408 -0.0247,-0.1821 -0.007,-0.1383 -0.0187,-0.0804 -0.17821,-0.3969 -0.19991,-0.30949 -0.0431,-0.0454 -0.0462,-0.005 -0.0526,0.0144 -0.0495,-0.0318 -0.0322,-0.1337 -0.0308,-0.14179 -0.0363,-0.20611 -0.0504,-0.19911 -0.1122,-0.38409 -0.11951,-0.3737 -0.18399,-0.6606 -0.0164,-0.062 -0.0407,-0.19839 -0.0687,-0.24151 -0.1388,-0.4905 -0.0239,-0.15529 -0.0542,-0.26232 -0.062,-0.24809 -0.0379,-0.10561 -0.0883,-0.28309 -0.0832,-0.3925 -0.14861,-0.5094 -0.0534,-0.16491 -0.0783,-0.21539 -0.321,-0.9275 -0.0189,-0.0661 -0.0241,-0.0928 -0.0385,-0.16161 -0.07229,-0.0543 0.02861,-0.0691 -0.0524,-0.2337 -0.0757,-0.2473 -0.74051,-2.3898 -0.63629,-1.73909 -0.61239,-1.75952 -1.05651,-3.02991 -0.86419,-2.50148 -0.24901,-0.80381 -0.0461,-0.1129 -0.0722,-0.1752 -0.42749,-1.00969 -0.0404,-0.0951 -0.21361,-0.25949 -0.131695,-0.0848 -0.149085,-0.30644 -0.7399,-1.46291 -0.218,-0.3331 -0.7943,-1.131 -0.0605,-0.0823 -0.0644,-0.0381 -0.0768,0.004 -0.032,-0.017 -0.4132,-0.4352 -0.34899,-0.44949 -0.0408,-0.0577 -0.0871,-0.12299 -0.18703,-0.36959 -0.27569,-0.13859 -0.0409,-0.0237 -0.26832,-0.2047 -1.597,-1.41631 -0.53138,-0.63949 -0.0365,-0.0472 -0.032,-0.0742 -0.9157,-2.1826 -0.5876,-1.4989 -0.4125,-0.54649 0.0367,-0.24366 -0.43271,-0.9984 -0.12129,-0.23511 -3.1226,-4.793 -0.51329,-0.7534 -0.13971,-0.1205 -3.94609,-2.4586 -0.36712,-0.0408 -0.2742,-0.0493 -1.19119,-0.23098 -0.0885,-0.0288 -0.3421,-0.22789 -0.0116,-0.0166 -0.02917,-0.0442 -0.81096,-0.3487 -0.50341,-0.32209 -0.055,-0.043 -0.13401,-0.1122 -0.0592,-0.0937 -1.0341,-1.69819 -0.3141,-0.5524 -0.008,-0.0258 -0.009,-0.029 -0.4358,-1.5791 -0.0333,-0.1204 -0.0754,-0.3488 -0.24721,-1.1592 -0.17189,-0.8007 -0.158,-0.71959 -0.045,-0.18672 -0.0215,-0.0713 -0.0216,-0.0566 -0.0267,-0.037 -0.0268,-0.0272 -0.1807,-0.1586 -0.26874,-0.20027 -0.66219,-3.69488 -0.19878,-0.85214 -0.21029,-0.77059 -0.3055,-1.00251 -0.9994,-3.26519 -0.0801,-0.22811 -0.1643,-0.3425 -0.11609,-0.1134 -0.11672,-0.0767 -0.10209,-0.0191 -0.1025,0.0626 -0.18969,-0.23509 -0.40961,-1.15571 -0.0557,-0.2339 -0.0498,-0.2126 -0.1022,-0.47529 -0.39859,-2.0103 -0.38991,-1.96471 -1.263755,-4.46685 -0.0019,-0.0142 -0.0235,-0.11191 -0.0193,-0.0481 -0.0427,-0.0853 -0.0249,-0.0403 -0.1737,-0.20601 -0.0621,-0.0625 -0.86439,-0.8532 -0.15441,-0.1293 -0.0628,-0.0468 -1.1667,-0.6366 -0.0289,-0.0128 -0.3193,-1.04601 -0.27809,-2.2168 -0.25501,-0.9669 -0.71249,-3.55361 -0.039,-1.54748 0.014,-0.0162 0.0508,-0.0972 0.007,-0.0208 0.0145,-0.0555 0.007,-0.0347 0.008,-0.0763 0.007,-0.1407 -0.004,-0.185906 -0.13552,-2.45194 -0.675545,-3.072935 -1.047705,-4.161135 -0.02136,-0.04916 -0.0343,-0.1222 -0.3766,-1.4042 -0.12069,-0.466 -0.0563,-0.2236 -0.1244,-0.5156 -0.0719,-0.3477 -0.19921,-1.0039 -0.12889,-0.7099 -0.0219,-0.12 -0.01,-0.0745 -0.0305,-0.3143 -0.0132,-0.1592 -0.0554,-0.5194 -0.0973,-0.796 -0.15181,-0.9221 -0.4456,-2.6205 -0.35069,-2.0176 -0.0612,-0.3253 -0.0205,-0.0887 -0.0217,-0.0805 -0.0111,-0.0412 -0.0519,-0.1145 -0.34939,-0.6188 -0.0379,-0.0646 -0.0206,-0.0184 -0.0229,-0.009 -0.21969,-0.0632 -0.30071,0.0827 -0.1138,0.0443 -0.0591,0.063 -0.0839,-0.0261 -0.18029,-0.0796 -0.12709,-0.1081 -0.23181,-0.4375 -0.031,-0.0801 -0.0164,-0.0751 -0.0801,-0.702 0.43696,-1.35745 -1.00537,-0.05515 -0.04,-0.008 -0.18212,-0.0966 -0.0728,-0.1589 -0.17408,-0.407 -0.0334,-0.0865 0.0149,-0.2634 0.0374,-0.0914 0.2491,-0.6107 0.31601,-0.4587 0.1801,-0.1938 1.10289,-1.0924 1.2664,-0.1643 0.0654,-0.0161 0.0913,-0.0435 0.10888,-0.0726 0.0695,-0.071 0.0694,-0.0801 0.0721,-0.0977 0.0785,-0.1672 0.0441,-0.115399 0.0309,-0.1321 0.1907,-1.0172 0.1805,-1.0313 0.006,-0.0553 -0.001,-0.0652 -0.0353,-0.269901 -0.0424,-0.3025 -0.0414,-0.1858 -0.0496,-0.201099 -0.0898,-0.208201 -0.0645,-0.142799 -0.29194,-0.642706 -0.85114,-2.529405 -0.0477,-0.3125 -0.0206,-0.0965 -0.0298,-0.1409 -0.0842,-0.3745 -0.0431,-0.1815 -0.11821,-0.4923 -0.0357,-0.1351 -0.19821,-0.65411 -0.0985,-0.29369 -0.11431,-0.2784 -0.10659,-0.2553 -0.0995,-0.1896 -0.38649,-0.7124 -0.15339,-0.24789 -0.0384,-0.062 -1.33584,-2.051602 -2.17397,-3.712202 -5.8e-4,7e-5 0.0453,-0.0292 0.29249,-0.1996 0.83811,-0.5964 0.06,-0.0564 0.135,-0.131599 0.2577,-0.315601 0.0582,-0.0733 0.0453,-0.0858 0.0408,-0.0852 0.0304,-0.0712 0.0464,-0.1552 0.947,-3.3867 0.16161,-1.232199 0.003,-0.0702 -0.0259,-0.2393 -0.0341,-0.2084 -0.082,-0.32961 -0.0229,-0.0963 -0.0242,-0.1162 -0.0181,-0.1537 0.003,-0.1079 0.0137,-0.109201 0.0263,-0.0999 0.0327,-0.111 0.0242,-0.0738 0.0285,-0.07971 0.0409,-0.1041 0.0863,-0.1531 0.0586,-0.1027 0.0322,-0.0521 0.0647,-0.0918 0.0432,-0.0587 0.0687,-0.08199 0.84621,-0.7972 0.0709,-0.065 0.13499,-0.1169 0.0855,-0.066 0.073,-0.048 0.0765,-0.0457 0.0708,-0.0367 0.11332,-0.0544 0.31968,-0.133401 0.1474,-0.0497 0.45162,-0.1405 0.1019,-0.0057 0.16178,-0.0297 0.0791,-0.0276 0.0964,-0.0453 0.61729,-0.3744 0.15021,-0.1062 0.0597,-0.0438 0.0727,-0.0648 0.0513,-0.04971 0.058,-0.067 0.1489,-0.2019 0.0537,-0.0737 0.0536,-0.0778 0.0261,-0.06 0.046,-0.1068 0.0175,-0.0827 0.0958,-0.4863 1.92569,-2.7588 1.2904,-1.53809 0.0766,-0.02261 0.0638,-0.0308 0.0599,-0.03329 0.11139,-0.0808 0.0512,-0.0371 0.1759,-0.1315 0.0669,-0.0684 0.0598,-0.09 0.0649,-0.1106 0.0324,-0.06471 0.0267,-0.1114 0.0811,-0.8847 1.22639,-0.16161 3.18269,-0.4033 2.2706,0.7467 0.64931,1.2783 1.31191,1.2808 0.8414,-0.1372 0.3293,-0.7939 0.0363,-0.0539 0.26939,-0.3679 0.0624,-0.0688 0.0708,-0.0555 0.0618,-0.0162 0.0619,-0.0037 2.3788,0.4734 0.0824,0.0452 0.12491,0.0999 0.0581,0.1221 0.2993,0.9219 -0.0493,0.4352 -0.0247,0.1419 -0.003,0.0681 0.0102,0.0459 0.57579,0.8844 0.0337,0.0383 0.044,0.037 0.1397,0.1146 0.0627,0.04269 0.04613,-0.0029 0.943225,-0.872615 0.0473,-0.0415 0.0985,-0.08169 0.0663,-0.0495 0.0603,-0.03111 0.16589,-0.05019 0.2469,-0.0335 0.6438,-0.1699 1.7298,-1.903 0.003,-0.0501 2.2e-4,-0.0045 0.0407,-0.2853 0.0383,-0.1346 0.0433,-0.0649 0.2648,-0.3335 0.077,-0.0917 0.9804,-0.32771 1.71811,0.2254 1.11889,0.5286 0.72521,0.38699 0.0617,0.0426 0.0865,0.0466 0.6821,0.3573 2.18339,0.685 0.77571,-0.0932 1.5969,1.1156 0.1669,0.84251 0.0243,0.09119 0.0193,0.0351 0.0583,0.0505 0.0725,0.0437 0.0935,-0.0243 2.57631,-0.674 2.17059,-0.96159 -0.0526,-0.0493 -0.033,-0.04871 -0.0246,-0.0681 -0.002,-0.06319 0.004,-0.3776 0.062,-0.3848 0.0283,-0.0587 0.20761,-0.33549 0.0501,-0.0549 0.20329,-0.1595 0.0518,-0.0264 0.8014,-0.0161 0.37259,0.0018 0.35231,0.0234 0.56971,0.054 0.58839,0.06181 0.0655,0.0198 1.22879,0.5646 0.0359,0.0197 0.0308,0.0654 0.006,0.1338 -0.006,0.0972 -0.0367,0.1767 0.5573,1.64401 0.0224,0.0742 0.005,0.14111 -0.0163,0.1405 -0.0396,0.0966 -0.22869,0.4431 -0.0502,0.09579 -0.0385,0.04421 -0.23711,0.2618 -0.0624,0.0665 -0.071,0.07529 -0.28301,0.233 -0.0985,0.0732 -0.0772,0.0559 -0.1505,0.0932 -0.211,0.08639 -0.34652,-0.404123 -0.53562,0.502978 -0.0509,0.0496 -0.0475,0.0519 -0.0412,0.0651 -2.2531,3.6923 -0.0411,0.0798 -0.0285,0.0838 -0.0165,0.1069 0.005,0.0886 0.0138,0.0862 0.0271,0.08611 0.86991,2.7268 0.398245,0.990913 0.646445,0.493713 0.0734,0.074 0.6848,0.87369 0.0309,0.078 -0.014,0.1259 -0.052,0.0926 -0.0541,0.0934 0.2495,2.13583 2.7308,1.7449 0.0503,0.04069 0.8141,1.02261 0.0314,0.0413 0.29741,1.4284 0.8667,2.453291 0.73631,-0.709209 0.0754,-0.0707 0.0725,-0.0405 0.0749,-0.0351 0.0743,-0.0078 0.0744,-0.0015 1.02519,0.0481 0.12291,0.0075 1.60379,0.32999 1.13121,0.1973 0.94961,-0.0374 0.11709,-0.0191 0.0534,-0.03149 0.0648,-0.0537 0.4951,-0.5552 0.9138,-0.9422 0.0365,-0.0244 0.8473,-0.5074 0.0491,-0.0266 1.19791,-0.32 0.14059,-0.0298 0.0737,0.0059 0.11892,0.04089 0.063,0.0512 0.018,0.0654 0.0208,0.051 0.0375,0.0419 0.0931,0.0252 2.34291,0.1374 0.36158,2.1e-4 1.98121,-0.5009 0.0463,5e-4 0.13589,0.0339 0.1097,0.0539 0.0438,0.0539 0.0816,0.1031 0.0803,0.33289 0.0609,0.26 0.0334,0.0426 0.5882,0.4867 0.0782,-0.05891 0.0419,-0.04909 0.1382,-0.177 1.22889,-1.5885 0.033,-0.053 0.8685,-1.1636 1.2536,-1.1726 0.1053,-0.0914 3.0585,1.8192 2.21614,0.920135 0.17395,0.162845 0.2634,0.4739 0.0357,0.0469 1.31079,0.88 0.61911,0.41621 0.1329,0.0663 1.4278,0.5619 0.0737,0.0259 0.40799,0.12 0.1188,0.03471 0.12882,0.0356 0.214,0.05925 0.0602,-0.160955 0.62628,-2.76459 0.016,-0.0817 0.0136,-0.0692 0.0381,-0.2794 0.0709,-0.6926 0.009,-0.3153 0.0158,-0.6791 -0.0134,-0.1019 -0.01,-0.0565 -0.0241,-0.0807 -0.041,-0.1177 -0.0771,-0.1396 -0.0662,-0.0914 -0.23932,-0.3699 -0.35458,-0.6124 -0.021,-0.0479 -0.0367,-0.0932 -0.034,-0.1539 -0.0336,-0.1917 0.0263,-0.0462 0.40969,-0.2873 0.0515,-0.0326 0.0701,-0.0175 0.19812,-0.025 0.0829,-0.0028 0.27582,0.0264 0.0972,0.0268 0.8819,0.2957 1.9161,0.297113 0.3236,-0.0181 0.0727,-0.0267 0.7247,-0.3142 0.0788,-0.0399 0.0793,-0.0419 0.0771,-0.041 0.0557,-0.0354 0.062,-0.04749 0.23072,-0.2187 0.0434,-0.0563 0.0586,-0.0835 0.2004,-0.2179 0.1485,-0.1287 0.14359,-0.0882 0.15201,-0.0843 0.20739,-0.0872 3.18952,-0.9377 0.0829,-0.0049 0.0892,0.0115 0.11651,0.0251 0.14798,0.0414 0.1016,0.0314 0.52151,0.2239 1.18781,0.5699 0.0842,0.0594 0.0605,0.0731 0.0331,0.0615 0.0708,0.0803 0.0427,0.0098 0.7203,-3e-4 2.53321,-0.2077 0.11709,-0.022 0.11511,-0.0253 0.11759,-0.0366 0.1474,-0.05621 0.21179,-0.11089 0.0816,-0.04691 2.116,0.9977 1.978,2.3192 1.19232,1.4308 1.34558,1.8845 0.3638,0.517 0.0714,0.0615 1.11301,0.7841 0.0551,0.0266 0.0446,0.0026 0.0534,-0.0114 0.0919,-0.0408 0.0556,-0.0248 0.0579,-0.0394 0.5603,-0.4013 0.0623,-0.0474 0.01,-0.0654 0.0827,-0.9801 0.10849,-1.3949 0.54662,-1.293703 0.0697,-0.583102 -1.24162,-0.629998 -0.63849,-0.3421 -0.18732,-0.1203 -0.0712,-0.0647 -1.65201,-2.1396 -0.116,-0.21211 -0.0473,-0.1036 -0.0154,-0.0947 -0.0115,-0.0808 0.0119,-0.0798 1.61608,-3.0165 0.0348,-0.0644 0.0736,-0.0811 0.0692,-0.072 0.0862,-0.079 0.1224,-0.08449 0.24021,-0.1473 0.13071,-0.0659 0.0877,-0.039 0.2096,-0.0889 0.1047,-0.0344 0.0553,-0.0175 0.0855,-0.0161 0.1127,-0.0128 0.11731,-0.0261 0.1626,-0.06229 0.0662,-0.02811 0.0859,-0.0497 0.129,-0.0986 0.0474,-0.0497 0.0453,-0.0498 0.0416,-0.0753 0.56,-1.0344 0.0728,-0.1631 0.0329,-0.0792 0.0267,-0.06499 0.0392,-0.3506 0.0204,-0.3469 -0.003,-0.0947 -0.0324,-0.1098 -0.17108,-0.349 -0.10321,-0.2058 -0.0514,-0.0956 -0.0307,-0.0865 -0.009,-0.0984 0.004,-0.0994 0.055,-0.1278 0.1156,-0.1827 0.0671,-0.0879 0.10629,-0.1341 0.9299,-1.0576 0.3534,-0.5094 0.25921,-0.9499 -0.0264,-0.2195 -0.002,-0.122 0.006,-0.1034 0.002,-0.0102 0.0251,-0.1104 0.0507,-0.1302 0.0637,-0.1292 0.083,-0.1381 0.0739,-0.1157 0.10202,-0.12701 0.10208,-0.125 0.0863,-0.0989 0.97021,-1.11079 1.28824,-1.565425 0.55792,-0.546315 0.0326,-0.0467 0.0326,-0.0498 0.17688,-0.29089 0.0306,-0.0605 0.0377,-0.0819 1.22791,-2.8722 0.1091,-0.3112 0.0227,-0.0926 0.005,-0.0626 0.005,-0.0699 8.8e-4,-0.0608 -0.009,-0.0722 -0.0154,-0.11359 -0.36779,-1.6031 -0.0424,-0.139 -0.1366,-0.3924 -0.0777,-0.209 -0.23218,-1.4544 -0.17401,-1.6219 0.003,-0.0585 0.0668,-0.4512 0.22699,-1.3 0.79396,-1.281501 -0.0343,-0.051 0.4115,-0.4543 0.13779,-1.1477 0.44702,-1.3532 0.3794,-0.9409 0.28769,-0.4476 0.0892,-0.0924 0.0692,-0.0772 0.08,-0.0932 0.37949,-0.4484 0.48031,-0.6123 0.0342,-0.0564 0.0227,-0.0375 0.025,-0.082 0.2009,-0.9514 -0.23432,-0.3806 -0.36099,-0.6041 -0.0411,-0.0832 -0.0179,-0.0866 0,-0.1218 0.008,-0.0938 0.0237,-0.1891 0.26719,-2.0043 0.0217,-0.1526 0.0343,-0.1473 0.0608,-0.2154 0.0376,-0.1009 -0.0781,-1.6516995 -0.38828,-0.8469 -0.4938,-1.7701 0.0123,-0.1008 0.0525,-0.2109 0.0785,-0.1163 0.1246,-0.0611 0.81971,-0.3218015 0.27711,-0.1324015 0.22141,-0.1392 0.0589,-0.0518 0.0414,-0.0522 0.13531,-0.2272 0.0444,-0.0813 0.12729,-0.2709 0.032,-0.1202 0.0273,-0.1016 0.0235,-0.1451 0.0259,-0.2729 0.0103,-0.2249 -0.009,-0.0953 -0.0216,-0.1047 -0.006,-0.7133 0.003,-1.3458 0.0139,-0.0566 0.11722,-0.4145 0.0562,0.1023 0.11402,0.1827 2.18188,3.5082 0.1008,-0.0158 0.14401,-0.0542 0.0947,-0.0593 0.29501,-0.1949 0.11859,-0.0805 0.12711,-0.0965 0.11459,-0.0934 0.37479,-0.2461 0.3028,-0.1921 0.1145,-0.0577 1.2012,-0.4828 0.10721,-0.0405 0.0811,-0.0279 0.0753,-0.0221 2.19711,0.0927 1.2136,0.076 0.18008,0.0581 0.92941,0.4923 0.1182,0.0644 0.63659,0.4018 0.4357,0.3188 0.11072,0.1258 0.10739,0.0877 0.10071,0.063 0.10379,0.058 0.10779,0.0584 0.1185,0.0382 1.14532,0.3048 0.24399,0.0298 0.45981,-0.2009 0.0711,-0.0476 0.99752,-0.8771 2.16792,0.274202 2.7202,2.4814015 0.0965,-0.013801 0.0601,-0.0275 0.20462,-0.134 0.95798,-0.6942 0.0822,-0.0615 0.0908,-0.0846 0.3013,-0.2896 0.68531,-0.316 1.9996,-0.7984 1.30121,-0.3311 0.14038,0.0192 0.10791,0.0343 0.1394,0.0737 0.31189,0.2027 0.0589,0.0386 0.0605,0.0503 0.04,0.0506 0.0728,0.0964 0.2601,0.1071 0.569,0.1152 0.13819,0.0128 0.0835,-0.0213 1.30359,-0.823 0.9928,-0.6908 0.32431,-0.0219 0.71658,0.0818 0.64753,0.1168 0.0679,0.0205 0.0908,0.0474 0.0335,0.0206 0.0403,0.0247 0.0969,0.0565 0.0972,0.0502 0.2384,0.1179 0.33832,0.1432 0.36408,0.1284 0.11669,0.0373 0.0828,0.0207 1.24399,0.1255 0.11081,-0.0073 0.10299,-0.0374 0.44489,-0.2005 0.4426,-0.2017 0.0817,-0.0372 0.66489,-0.2468 0.10071,-0.0229 0.12259,0.0482 0.95309,0.4275 0.16251,0.078 2.23919,1.8203 0.68412,0.6746 -0.63297,1.0521 -1.12491,1.0837 -0.45029,0.458 -0.8895,1.0352 -0.8283,0.99 -0.2089,0.2574 -0.0686,0.0881 -0.25049,0.3393 -0.28512,0.3949 -1.292,1.8348 -0.1134,0.1632 -0.1239,0.1896 -0.0483,0.0784 -0.47751,0.861 -0.0796,0.144 -0.0559,0.128 -0.0565,0.1609 -0.0851,0.2442 -0.0398,0.1363 -0.1998,0.9163 -0.21442,1.6624 -0.008,0.0825 -0.0134,0.1849 -0.005,0.0792 0.001,0.1025 0.009,0.0729 0.30778,2.160184 -0.0755,0.159783 -0.25638,0.5595 -0.0269,0.0671 -0.17508,0.4458 -0.0622,0.1612 -0.0825,0.2407 -0.0199,0.0609 -0.0517,0.1774 -0.0318,0.1192 -0.0174,0.0689 -0.0696,0.2755 -0.0359,0.199 -0.0452,0.2627 -0.006,0.1677 -0.0121,0.3745 0.011,0.1902 0.0444,0.626 0.0108,0.0922 0.0233,0.0801 0.0551,0.1521 0.0551,0.1522 0.0316,0.0782 0.0419,0.0825 1.08298,1.9719 -0.0974,0.823525 -0.007,0.1404 0.009,0.133 0.0298,0.0942 0.2753,0.497 0.0689,0.1203 0.28141,1.2371 0.21841,1.2281 0.0371,0.5649 0.006,0.1095 -0.002,0.13271 -0.0252,0.3003 -0.0402,0.255 -0.011,0.1717 0.0309,0.4691 0.0413,0.3307 0.0142,0.0901 0.53851,2.71 0.8671,2.2117 0.071,0.1359 0.0502,0.07 1.89208,2.5792 -0.45659,1.72549 -0.0138,0.04501 -0.0455,0.1067 -0.0452,0.0953 -0.0557,0.1159 -0.0748,0.12631 -0.0304,0.04 -0.12341,0.1283 -2.38849,3.1292 -2.52972,3.5474 -2.78079,3.63229 -0.0608,0.0733 -0.121,0.1169 -0.0543,0.0486 -0.0656,0.0492 -0.12451,0.0734 -0.48349,0.2728 -0.0441,0.0148 z M 29.72982,68.1463 l 0.0156,-0.006 0.024,-0.0129 0.0289,-0.0457 0.032,-0.0116 0.0458,3e-4 0.0272,-0.0337 0.0182,-0.0186 -0.013,-0.0136 -0.0429,-0.0148 -0.0341,-0.005 -0.0186,0.0217 -0.0241,0.0235 -0.0439,0.009 -0.034,0.008 -0.0177,0.0102 0.009,0.0258 0.0103,0.0355 -0.003,0.0292 0.0205,-0.002 -2e-4,7e-4 z m -1.7498,2.0206 0.0475,-0.0248 0.0229,-0.0297 0.0216,-0.0331 0.0137,-0.0126 -0.0128,-0.0125 -0.0219,-0.0111 -0.0252,-0.0166 -0.0147,-0.0127 -0.0229,0.007 -0.0267,0.007 -0.0166,0.0229 -0.01,0.0152 -0.009,0.0138 0.006,0.0202 -0.0237,0.0257 -0.0215,0.0383 0.0211,0.002 0.0139,0.002 0.0291,0.002 0.0297,-0.004 -5e-4,0.001 z"
       id="path5199"
       style="fill:#e45c36;fill-opacity:1;stroke:#ffffff;stroke-width:0.5;stroke-linejoin:round;stroke-miterlimit:4;stroke-opacity:1;stroke-dasharray:none;display:inline" />
  </g>
  <g
     id="layer4"
     style="display:inline">
    <path
       d="m 170.71323,359.08001 -0.13358,-0.25832 -0.0782,-0.1763 -0.0565,-0.14978 -0.12259,-0.3855 -0.25741,-0.92011 -0.0727,-0.28409 -0.0444,-0.20922 -0.0401,-0.2464 -0.009,-0.0969 -0.3052,-3.99258 -0.0501,-0.73841 -0.37307,-3.10217 0.0573,-3.14404 0.34146,-2.5842 -0.001,-0.1761 -0.001,-0.0311 -0.004,-0.0418 -0.0203,-0.13781 -0.027,-0.1196 -0.0886,-0.38361 -0.2124,-0.7991 -0.046,-0.16568 -0.1583,-0.47189 -0.0459,-0.12403 -0.0901,-0.21048 -0.046,-0.0525 -0.044,-0.0345 -0.0421,-0.0119 -0.51578,-0.0808 -0.0379,-0.003 -0.0425,0.008 -0.0448,0.0105 -0.0425,0.0127 -0.0405,0.0196 -0.0606,0.0282 -0.0471,0.0149 -0.0559,0.008 -0.12512,0.0159 -0.1,-0.0175 -0.0465,-0.0165 -0.0683,-0.0483 -0.0506,-0.0436 -0.0483,-0.0435 -0.0197,-0.0206 -0.0219,-0.0251 -0.059,-0.0684 -1.83187,-2.42481 -0.0231,-0.0553 -0.0518,-0.15448 -0.0435,-0.13672 -0.0703,-0.4388 -0.007,-0.0841 -0.02,-0.24759 -0.0316,-0.4863 0.005,-0.38998 0.009,-0.12851 0.0299,-0.2638 0.005,-0.0442 0.1065,-0.52258 0.009,-0.0399 0.0226,-0.081 0.066,-0.2175 0.0179,-0.0512 0.107,-0.29538 0.0252,-0.0681 0.0192,-0.044 0.13111,-0.29498 0.0559,-0.11911 0.1279,-0.27219 0.6781,-1.2059 0.0248,-0.0396 0.048,-0.0706 0.0189,-0.0268 0.0232,-0.0311 0.0826,-0.10428 0.29688,-0.3693 0.0607,-0.0661 0.0708,-0.0723 2.08601,-2.42105 0.15017,-1.23219 0.0278,-0.0834 1.49359,-4.3982 0.60186,-0.91104 0.16355,-0.56945 0.0178,-0.0541 0.12961,-0.25028 2.15759,-2.87811 0.0798,-0.10321 0.4422,-0.57309 0.35348,-0.39805 0.18886,-0.22635 0.0567,-0.0702 0.8042,-1.06509 0.23499,-0.36271 0.40701,-0.63049 0.098,-0.186 0.26792,-0.51331 0.2243,-0.44488 0.14169,-0.40302 0.10111,-0.30139 0.0622,-0.16062 0.0344,-0.0837 0.0289,-0.0557 0.0849,-0.12302 0.0608,-0.0879 0.1449,-0.19961 0.10702,-0.12958 0.11609,-0.13681 0.0742,-0.0867 0.68089,-0.70142 0.29694,-0.36794 0.38782,-0.42428 0.13449,-0.14661 0.1683,-0.16629 1.10919,-0.86792 0.094,-0.0715 0.30691,-0.23319 0.23899,-0.15829 0.2828,-0.1174 0.7388,-0.24332 0.26062,-0.048 0.11039,0.0119 0.0588,0.0109 0.098,0.0216 0.1257,0.0947 0.0659,0.0496 0.0142,0.03 0.001,0.0667 -0.006,0.0741 0.51669,-0.16129 1.63752,-0.98151 4.8587,-2.98959 1.03668,-0.7522 1.21635,-0.91308 4.09021,-2.88565 2.1486,-1.47631 2.85699,-1.82269 2.12189,-1.323 4.05111,-2.3299 1.0766,-0.57012 1.23539,-0.6456 0.22311,-0.10968 2.62712,-1.17996 4.35071,-1.76923 1.48672,-0.56112 1.07892,-0.38141 0.23328,-0.0786 1.23541,-0.40329 1.56861,-0.47001 1.38168,-0.4132 2.84367,-0.91143 2.56864,-0.68092 -0.006,-0.1922 0.006,-0.1044 0.0217,-0.2479 0.0693,-0.7077 0.0426,-0.0456 0.0751,-0.0794 0.0745,-0.0701 0.0787,-0.0488 0.0823,-0.0264 0.0753,-0.0102 0.31079,-0.0337 0.10251,0.002 0.10879,0.0105 0.1362,-5.8e-4 0.13611,-0.002 0.15509,-0.0116 0.16812,-0.0283 0.4126,-0.0898 0.12018,-0.0419 0.16659,-0.0652 0.0852,-0.066 0.0665,-0.0677 0.1102,-0.1582 0.29791,-0.52908 0.10229,-0.19782 0.0418,-0.0898 0.0189,-0.1001 0.10151,-0.65652 -0.009,-0.0722 -0.0193,-0.072 -0.12009,-0.36838 -0.028,-0.0717 -0.0349,-0.1333 -0.0611,-0.28339 -0.013,-0.0757 0.0487,-0.12061 0.0411,-0.073 0.0684,-0.0591 0.0905,-0.0194 0.9213,-0.19311 1.34149,-0.42798 0.061,-0.11221 -0.0234,-0.0913 -0.26218,-0.57508 -0.0445,-0.0868 -0.0483,-0.084 -0.0611,-0.0914 -9e-5,-3.1e-4 -0.29931,0.18988 -0.11771,0.018 -0.9483,-0.7287 -0.8415,-0.7413 -2.55389,-2.5285 -0.0624,-0.0926 -0.027,-0.0401 -0.0422,-0.095 0.002,-0.0796 0.84646,-2.3252 -0.71959,-1.28992 0.46491,-1.8937 -0.6915,-1.3389 -2.55438,-2.48828 -2.13321,-1.50131 -1.3204,-1.05771 -1.297,-1.60129 -0.42209,-0.5983 -0.42581,-1.03 -2.608,-1.11261 -0.41089,-0.20889 -0.28038,-0.23444 -0.61941,-0.5766 -0.91059,-0.83362 -2.04971,-0.7413 -0.0833,-0.0125 -1.0094,-0.12561 -1.26932,-0.1745 -1.49039,-0.61371 -0.80459,-0.483 -0.88422,-0.577 -0.0685,-0.0532 -0.0806,-0.052 -0.0938,-0.048 -0.8627,-0.19198 -0.18579,-0.037 -1.767,-0.32639 -2.3956,0.0857 -0.40042,0.0811 -0.34509,0.1781 -0.0415,0.0752 -0.0378,0.1206 -0.008,0.076 -0.0557,0.16101 -0.0394,0.0869 -0.0368,0.0756 -0.26159,0.40472 -0.0522,0.0753 -0.0662,0.0573 -0.0743,0.0556 -0.0634,0.0302 -0.60131,0.18139 -0.24778,-0.004 -0.0971,-0.008 -0.0223,-0.002 -0.93341,-0.88202 -0.0662,-0.0624 -0.0346,-0.0481 -0.009,-0.0847 0.0332,-0.0853 0.0476,-0.0768 -0.10099,-0.42749 -0.724,-0.54171 -3.27822,-3.33609 -0.015,-0.0758 -0.0256,-0.1124 -0.0174,-0.0603 -0.0781,-0.22079 -0.10831,-0.2591 -0.0812,-0.15081 -0.14578,-0.16669 -0.59891,-0.54349 -0.0576,-0.049 -0.0558,-0.0425 -0.0832,-0.0439 -0.0606,-0.0115 -0.1026,-0.0129 -1.40329,-0.16068 -0.82471,-0.02 -0.09,-0.01 -0.88162,-0.22211 -0.19809,-0.0672 -2.3339,-4.02798 0.004,-0.345 -1.51151,-1.8552 -0.0473,-0.0534 -0.0684,-0.0562 -1.23013,-0.95315 0.23675,-0.31344 -0.27698,-0.46121 -0.544,-0.23297 -0.91702,-0.27512 -0.75753,-0.71822 0.98015,-0.18975 0.0822,-0.001 0.42798,0.0247 0.0941,0.0122 0.50919,0.0705 0.62832,0.10159 0.3751,0.0424 0.14679,0.003 2.06829,-0.4267 0.10361,-0.0384 0.0406,-0.049 0.0247,-0.0693 0.1355,-0.48089 1.04849,0.83679 0.7858,0.33249 0.1762,0.001 0.11161,-0.008 -0.42972,-1.18179 -0.69898,-0.5896 -0.51971,-0.40222 -0.1102,-0.0755 -0.0724,-0.0482 -0.0577,-0.0679 -0.15969,-0.8082 -0.008,-0.1015 -0.17242,-2.04691 0.003,-0.0595 0.1178,-0.376 -0.5961,-0.005 -1.80789,0.39222 -1.14651,0.32559 -3.84388,-2.26889 -0.0387,-0.0599 -0.0486,-0.10181 -0.0111,-0.0261 -0.01,-0.0226 -0.0155,-0.0362 -0.034,-0.0911 -0.0453,-0.1749 -0.22241,-1.0791 -0.006,-0.1076 0.005,-0.13401 0.01,-0.0904 -0.27451,-0.7518 -0.76819,-1.45801 -1.026,-1.87338 -0.055,-0.1001 -0.0529,-0.0969 -0.0322,-0.0856 -0.0318,-0.10138 -0.0476,-0.17511 -0.0335,-0.21909 -0.0858,-0.57431 -2.45139,0.50269 -1.5776,1.81122 -0.83411,2.2676 -1.15122,1.43259 -0.51309,-0.229 -0.1026,-0.0149 -0.50457,0.0101 -0.10303,0.003 -0.0969,0.0234 -1.5444,0.7153 -2.5614,1.9834 -0.40509,0.702 -0.36301,0.72332 -0.69958,0.73709 -1.07862,0.9281 -1.85229,-1.65069 -0.0661,-0.0601 -0.0271,-0.0548 -0.32721,-1.87592 0.0235,-0.27209 0.0397,-0.0499 0.003,-0.004 -0.11048,-0.0964 -0.15081,-0.10599 -0.97031,-0.27521 -0.0763,0.0283 -2.22519,0.9032 -0.28461,1.82498 -0.0901,1.39081 -0.008,0.0896 -0.17041,0.80569 -0.0138,0.065 -0.007,0.004 -0.0648,0.0325 -0.0968,0.0129 -0.057,-0.005 -0.0665,-0.0266 -0.0584,-0.0258 -0.0772,-0.0367 -1.93149,0.82809 -0.70272,1.11951 -0.0393,0.0881 -0.91351,2.3103 -0.0117,0.082 0.004,0.0907 0.007,0.0594 0.74439,1.34769 0.0676,0.10751 0.0683,0.077 0.0644,0.0516 0.0577,0.0373 0.38471,0.10022 1.83679,0.43399 0.3981,0.0488 0.15301,0.006 0.0926,-0.004 0.4353,-0.0331 0.25299,-0.065 0.0864,-0.0432 0.0908,-0.005 0.084,-0.005 0.1008,-0.002 0.009,4e-4 0.062,0.002 0.51089,0.095 0.23819,0.1889 0.15122,0.12281 0.10928,0.10049 0.0536,0.0611 0.043,0.0687 0.0217,0.0994 -0.0253,0.13019 -0.0439,0.11599 -0.0614,0.11502 -0.0122,0.0227 -0.26887,0.36356 -0.31662,0.005 -0.77111,0.0376 -0.77549,0.0384 -0.0735,0.1408 -0.1532,0.23609 -0.0811,0.0678 -0.0637,0.0514 -0.0755,0.003 -0.11108,0.004 -0.44541,-0.003 -0.69879,-0.006 -0.9465,-0.276 -0.62,-0.23928 -0.72592,-0.31901 -0.5917,3.88489 0.2695,1.1467 0.40881,2.97232 0.42661,3.47229 -0.34381,0.74939 -0.0627,-0.0178 -0.0759,0.0221 -0.46368,0.25132 -0.0764,0.0598 -0.90154,0.74501 -0.99753,-0.59081 -2.41489,-0.95138 -0.4129,-0.3858 -0.1713,-0.16422 -0.0455,-0.0458 -0.0475,-0.049 -0.0616,-0.0723 -0.0749,-0.15622 -0.67068,-1.69739 -0.1814,-0.16299 -0.172,0.52539 -0.16311,0.35931 -0.30549,0.49338 -0.3124,0.3836 -0.55701,0.3299 -0.0871,0.0496 -0.15619,0.0564 -0.0651,0.0114 -1.10788,-0.26758 -0.3652,-0.10251 -0.47001,-0.6875 -0.64251,-0.9284 -0.5228,-0.51331 -0.62616,-0.57778 -0.001,-0.18083 -0.002,-0.13041 -0.007,-0.0594 -0.54849,-1.14841 -0.36939,-0.56891 -0.15591,-0.2196 -0.066,-0.0831 -0.0811,-0.0938 -0.12509,-0.12372 -0.26462,-0.14029 -0.05,-0.0262 -0.0604,-0.0291 -0.28741,-0.13699 -0.29129,-0.18662 -0.0866,-0.0648 -0.47821,-0.73529 -0.47449,-0.94491 -0.0302,-0.0886 -0.0153,-0.10202 -8.9e-4,-0.0693 0.0824,-2.00812 -1.86172,-0.26468 -0.22089,0.0428 -1.58661,0.79199 -0.2522,0.1536 -0.1376,0.1011 -0.133,0.1687 -0.85088,1.10117 -0.29732,0.0168 -0.20328,-0.0155 -0.26642,-0.0207 -0.0943,-0.0161 -0.24838,-0.0833 -0.0669,-0.0243 -0.1596,-0.1348 -0.0743,-0.0775 -0.1171,-0.17441 -0.0429,-0.0822 -0.0574,-0.1055 -0.0758,-0.1153 -0.2817,-0.3894 -0.44651,-0.47952 -0.0725,-0.0678 -0.0684,-0.0518 -0.0625,-0.0366 -0.11871,-0.0548 -0.0669,-0.0181 -0.0673,0.006 -0.10114,0.0275 -0.31874,-0.85907 0.44918,-0.54331 -0.0412,-0.0412 -0.26981,-0.23718 -0.0809,-0.0685 -0.1207,-0.0687 -0.0709,-0.0204 -0.0777,-0.0116 -0.1131,-0.0145 -0.0695,-0.003 -3.3186,0.3295 -0.18698,0.0541 -0.20612,0.17749 -0.10449,0.11221 -0.0556,0.0617 -0.20111,0.25449 -0.0452,0.0856 -1.077,0.57501 -1.76409,0.76929 -0.344,0.12329 -0.93939,0.2326 -0.10541,0.0135 -0.19491,-0.0158 -0.0817,-0.0139 -2.2388,-0.38678 -0.0813,-0.0244 -4.28598,-2.3352 -0.30792,-0.21268 -0.15189,-0.10571 -0.0493,-0.049 -1.5291,3.08973 -0.91461,0.0231 -0.9592,0.5603 -2.73562,0.7959 -0.0159,-0.0632 -0.2251,-0.8884 -0.0323,-0.11179 -0.0411,-0.0589 -0.0499,-0.0576 -0.211,-0.23209 -1.01209,-0.77292 -0.0497,-0.0365 -0.0856,-0.031 -0.0668,-0.02 -0.0734,-0.0196 -0.0878,-0.0217 -0.126,-0.004 -0.10639,0.006 0.2764,1.11831 0.018,0.0739 0.0143,0.1586 -0.0373,0.76449 -0.0136,0.2331 -0.02,0.0761 -0.0487,0.0433 -0.0616,0.11929 -0.0202,0.039 -0.10892,0.27899 -0.02,0.0792 0.007,0.1308 0.0551,0.59759 0.007,0.0677 0.0199,0.0825 0.29519,0.65829 -0.0932,0.18413 -0.0431,0.0774 -0.0874,0.0812 -0.0929,0.0514 -0.0842,0.0279 -0.57321,0.16519 -0.12198,0.0291 -0.62481,0.11389 -0.0588,-0.003 -0.0835,-0.0371 -0.0898,-0.0366 -0.0794,-0.0221 -0.16519,-0.0342 -1.0329,0.19271 -0.14132,0.0507 -0.15439,0.0842 -0.0533,0.0409 -0.25482,0.23691 -0.0467,0.0436 -0.1105,0.10559 -0.28309,0.29789 -0.48498,0.52305 -0.36793,0.40972 -0.1637,0.156 -0.1615,0.15409 -0.36322,0.3396 -0.0508,0.0432 -0.0849,0.0594 -1.38281,0.64492 -0.7069,0.31229 -0.4896,0.21729 -0.3351,0.13192 -0.4011,0.16339 -1.4553,0.60581 -0.6897,0.46088 -0.7336,0.60232 -0.0662,0.0997 -0.10309,0.18189 -0.0968,0.19491 -0.0517,0.1041 -0.04117,0.0924 -0.07247,0.24399 -0.0456,0.1297 -0.0432,0.1026 -0.18719,0.38001 -0.0692,0.1405 -1.482,0.0969 -0.0899,-0.0187 -0.0772,-0.0638 -1.03331,-0.89331 -0.1893,-0.1672 -0.0409,-0.0526 -0.0324,-0.0907 0.0139,-1.1297 -0.6409,0.068 -0.18329,0.0202 -0.42469,0.1261 -0.24392,0.35239 -0.46719,0.48388 -0.3396,0.32392 -0.2034,0.14261 -0.537,0.3136 -0.0568,0.0301 -0.065,0.0243 -1.0991,0.33032 -0.5304,0.12939 -0.0467,0.003 -0.0209,10e-4 -1.2659,0.0522 0.10879,1.17798 0.0717,0.42651 0.5264,1.83719 0.10539,0.36252 0.4263,1.24329 0.0946,0.21871 0.10701,0.22138 1.57679,2.35031 0.76481,1.05991 0.28559,0.2836 1.40674,1.27229 0.52724,0.21259 0.1084,0.0962 0.35581,0.40708 0.32449,0.47781 0.0494,0.092 1.0656,2.70038 1.12759,2.7601 0.732079,1.44541 0.248401,0.71804 0.41099,1.2334 0.0349,0.11661 0.27639,0.93091 0.0782,0.2767 0.0172,0.0732 0.0174,0.0572 0.0267,0.0459 0.3764,0.55158 0.0424,0.0575 0.3425,0.37299 0.12649,0.11709 0.1859,0.11072 0.4382,0.15149 0.1129,0.0379 1.1507,0.31321 3.6667,2.5632 0.0989,0.0742 0.4404,0.31341 0.75848,0.45209 0.11481,0.063 0.0474,0.0234 0.0451,0.0143 0.0498,0.0143 0.0498,0.008 0.0612,0.003 0.0613,-0.006 0.0749,-0.008 0.14792,-0.0345 0.0566,-0.0157 0.20532,-0.0628 1.58069,0.35358 0.0903,0.0286 0.0989,0.0674 0.10529,0.0971 0.60752,0.88262 0.0638,0.079 0.0437,0.0711 0.0749,0.12601 0.0591,0.11288 0.059,0.12262 0.0616,0.16098 0.0892,0.24802 0.0491,0.1416 0.0762,0.2702 0.0329,0.16068 0.0746,0.38232 0.0637,0.48789 0.0951,0.7575 0.10971,1.34729 0.0115,0.57062 0.002,1.0799 0.0491,6.1307 0.0667,1.69278 0.01,1.91962 -0.0678,2.14419 10e-4,0.0312 -10e-4,0.10159 -0.0252,0.5192 -0.10181,1.31781 -0.10171,1.0451 -0.0208,0.18018 -0.0159,0.0956 -0.3378,2 -0.103,0.5881 -0.1456,0.7645 -0.18781,0.91501 -0.2568,1.14618 -0.0231,0.0844 -0.0266,0.077 -0.0315,0.086 0.87635,0.0887 1.76318,-0.51629 0.0776,0.008 0.49481,0.20651 0.17643,0.0824 2.79814,0.38801 0.93521,0.58419 1.34259,1.19651 0.2222,0.40521 0.7251,0.92438 0.2464,0.1658 0.58761,0.3002 0.24311,0.11511 0.17428,0.0781 0.73602,0.2839 0.1063,0.0348 0.15198,0.0364 0.0667,0.0137 0.0584,0.011 0.13009,-0.0144 -0.4956,-0.25909 -0.0778,-0.0944 -0.0175,-0.69861 0.0153,-0.36929 0.0207,-0.13269 0.0449,-0.22 0.0246,-0.1135 0.0216,-0.0707 0.0306,-0.09 0.0195,-0.0551 0.0637,-0.80429 -0.12802,-1.0234 -0.10269,-0.7526 -0.0117,-0.0671 -0.19162,-0.6506 -0.77578,-0.74478 -0.0867,-0.0773 -0.72501,-0.3281 -0.0627,-0.0114 -0.0628,0.0118 -0.36062,0.0686 -0.0664,0.0965 -0.56,0.11148 -0.0957,-0.01 -0.2721,-0.13629 -0.0473,-0.0521 -0.0208,-0.0237 -0.0136,-0.0746 0.22531,-0.12051 0.0823,-0.0406 0.72598,-0.18421 1.8707,-0.4049 1.46792,-0.28601 0.0587,-0.0115 0.0442,-0.009 0.18613,0.002 0.29218,0.0236 0.0753,0.0155 0.0793,0.02 1.9791,0.6636 1.19751,0.9282 1.0129,0.8367 1.38558,1.22491 0.0884,0.0817 0.38941,0.40219 0.281,0.68411 0.1428,0.51758 0.0106,0.0514 0.009,0.0411 0.002,0.0121 0.008,0.0195 0.0387,0.0935 0.0398,0.0505 0.007,0.009 0.0467,0.0552 0.0556,0.0612 0.0791,0.0673 0.0131,0.01 0.047,0.0351 0.10361,0.0682 0.17868,0.0974 0.0581,0.0142 1.19091,0.18051 0.60569,0.0429 1.17181,0.48459 0.573,0.28381 0.69089,0.91278 1.38131,2.71692 0.0264,0.2142 0.0192,0.10129 0.0957,0.29859 0.0301,0.0864 0.70651,1.3971 0.0513,0.0861 0.19429,0.32017 0.39421,1.1331 0.32678,0.82339 8.3e-4,6.1e-4 -0.0734,0.45609 0.0421,0.13891 0.67319,2.23529 0.0589,0.094 0.0154,0.0779 0.11679,0.7286 -0.002,0.12061 -0.0119,0.0904 -0.0134,0.0566 -0.0299,0.0606 -0.84809,1.00482 -0.0468,0.0413 -0.4035,0.29889 -0.0735,0.0329 -0.4154,0.11942 -0.15732,0.0439 -0.2132,0.0413 -0.55929,-0.34042 -0.0931,-0.0506 -0.1232,-0.002 -0.084,0.0205 -0.0588,0.0277 -0.49439,0.37771 -0.0931,0.10792 -1.15307,1.98177 -0.93979,1.29343 1.70535,1.84994 -0.9241,2.26672 -0.59339,0.6203 -0.3118,0.63928 -0.0498,0.98801 -0.003,1.39181 0.004,0.10108 -0.039,0.2478 -0.0264,0.086 -0.50982,0.48041 -0.0677,0.0554 -0.0672,0.0229 -0.11731,0.0336 -0.11307,0.0234 -0.0611,0.0265 -0.0628,0.0306 -0.0634,0.0495 -0.401,0.44619 -0.3927,0.4679 -0.0703,0.0972 -0.0363,0.0632 0.10412,0.15121 0.85709,1.06989 0.0823,0.0686 0.0599,0.0385 0.0788,0.041 0.10168,0.0334 0.0979,0.0164 0.20371,0.0511 0.0811,0.0245 0.0724,0.0258 0.3531,0.1336 0.0996,0.0417 0.87289,0.37631 0.0663,0.0369 0.0891,0.0523 0.0887,0.0597 0.037,0.045 0.0509,0.0934 0.0414,0.0968 0.004,0.0132 0.0229,0.0719 0.0401,0.12086 0.0367,0.37878 0.004,0.10321 -0.0326,1.51541 -0.0266,0.11539 -0.8081,1.34009 -0.1073,0.17401 -0.0572,0.0804 -0.12851,0.0935 -0.0926,0.0386 -0.0814,0.0155 -0.22821,0.0571 -0.13019,0.0367 -0.1066,0.0407 -0.1178,0.0607 -0.72531,0.68982 -0.1037,0.0997 -0.0681,0.0932 -0.10239,0.16488 -0.18324,0.54803 0.0277,0.28496 0.0112,0.0849 0.0262,0.063 0.60101,0.84549 0.0757,0.1048 0.0637,0.0597 1.2305,0.99838 1.53989,0.54392 0.96561,0.13818 0.0859,-0.0255 0.54978,-0.49072 0.1228,-0.1601 1.7225,0.95621 0.63092,0.42279 0.10898,0.1059 0.0477,0.0533 0.8638,0.96729 -1.27011,2.03747 0.0431,0.45013 0.0643,0.1522 0.0387,0.0725 0.80939,0.6716 1.5632,1.0187 1.49799,0.5915 0.43112,-0.24399 0.94568,-0.23551 0.70572,0.0902 1.06448,0.44608 0.10761,0.0456 1.51229,1.32099 -0.49588,1.06329 -0.0264,0.0755 0.0206,0.0521 0.0647,0.10398 0.2486,0.2355 0.32739,0.26831 0.0401,0.0254 0.0379,0.024 0.0582,0.0363 0.176,0.0784 0.36471,0.15069 0.67969,0.25311 0.11041,0.0143 0.34439,0.008 0.0736,0.0456 0.0696,0.0718 0.30991,0.32461 0.0655,0.081 0.0291,0.1294 0.0443,0.2146 -0.005,0.07 -0.0301,0.0542 -0.2038,0.24459 -0.2929,0.35291 -0.0451,0.0624 -0.0263,0.0587 -0.0213,0.0812 -0.0329,1.98969 -0.003,0.44821 -0.9942,0.44211 -0.55072,2.17088 2.01598,2.20047 0.38519,0.4032 0.75751,0.64059 0.50989,0.38721 -2.59631,1.68381 -0.93589,0.64081 -0.1516,0.1719 -0.0509,0.0651 -0.0283,0.0964 0.0367,0.32633 0.10611,0.1409 0.17178,0.21249 0.0947,0.0729 0.0534,0.0243 0.0836,-0.0247 0.0408,-0.0743 0.0939,0.0119 0.0485,0.0617 0.009,0.0753 -0.004,0.11621 -0.007,0.20618 -0.0177,0.0752 -0.0332,0.12528 -0.0448,0.0919 -0.1231,0.1327 -0.70011,0.2922 -0.0626,0.0158 -0.0599,-0.007 -1.2211,-0.37708 -0.0912,-0.0326 -0.0535,-0.0453 -0.0446,-0.0824 -0.0154,-0.0737 -0.0258,-0.0703 -0.0284,-0.0633 -0.11572,-0.0672 -0.0937,0.0281 -0.0591,0.0497 -0.26089,0.4353 0.0434,1.28012 0.0249,0.1175 0.0305,0.0571 0.043,0.0623 0.0878,0.1048 0.18298,0.1535 0.12101,0.1012 0.12841,0.0735 0.15458,0.0882 0.384,0.0966 1.68451,0.4003 0.0892,-0.0199 0.1239,-0.0644 0.17301,-0.13281 0.0737,-0.0569 0.0488,-0.0685 0.0347,-0.0633 0.0402,-0.0565 0.0441,-0.0447 0.055,-0.0249 0.0685,-0.009 0.467,-0.031 5.17218,-0.26459 0.0576,0.0131 0.0659,0.06 0.0877,0.13641 0.0224,0.12461 7e-4,0.0778 -0.006,0.13171 -0.003,0.16458 0.0327,0.0678 0.0551,0.0675 2.33481,1.6138 0.0667,0.0275 0.0579,0.0164 0.57888,0.1391 0.18051,0.0348 0.1832,-0.0205 0.18491,-0.095 0.43518,0.11359 0.7749,0.25302 0.0676,0.056 0.16861,0.5199 0.0115,0.0817 -0.0499,0.11981 -0.0345,0.0601 -0.0936,0.12659 -0.6615,0.63501 -0.10949,0.0886 -0.31441,0.25318 0.79467,0.17469 0.93899,0.7515 3.2558,1.14603 0.9368,0.9888 0.29752,0.40048 0.0488,0.0555 0.22579,0.19498 1.37871,0.949 1.48291,0.82132 0.9237,0.504 0.0621,0.034 0.0125,0.007 0.0734,0.0649 0.61596,0.62807 0.47493,-0.66731 1.63542,-0.7528 2.40657,-0.197 1.38431,0.0831 0.88822,0.31989 0.0449,0.003 0.0895,0.004 0.0662,-0.008 0.01,-10e-4 0.0251,-0.008 0.0877,-0.0378 0.079,-0.0574 0.0274,-0.0208 0.0675,-0.0542 0.13659,-0.1145 0.0129,-0.0552 -0.19235,-2.28508 -0.0784,-0.91868 0.007,-0.6351 0.0236,-0.6784 -0.10181,-1.85822 -0.1405,-1.27868 -0.19809,-0.4397 -0.13548,-0.14887 -0.0758,-0.0781 -0.0443,-0.0581 -0.0456,-0.0632 -0.0481,-0.0829 -0.0438,-0.1149 -0.0257,-0.0735 -0.0255,-0.0914 -0.031,-0.1474 -0.1091,-0.81531 -0.53061,-4.99878 -0.0381,-0.39792 -0.0185,-0.49689 -0.007,-0.31759 -0.0164,-0.76761 -10e-4,-0.21772 -5.1e-4,-0.11007 0.0145,-0.36612 0.009,-0.20038 0.0225,-0.48761 0.0611,-1.08981 0.11055,-1.93486 0.0499,-0.75637 0.001,-0.0575 -0.0198,-0.12411 -0.0587,-0.27839 -0.0203,-0.0932 -0.1124,-0.46939 -0.0536,-0.19992 -0.11838,-0.36999 -0.0524,-0.138 -0.0264,-0.11978 -0.0752,-0.34281 -0.047,-0.45721 -0.0344,-0.55429 -0.0299,-0.5586 -0.1642,-3.29114 -0.67351,-3.64129 z"
       id="path1259"
       style="fill:#e45c36;fill-opacity:1;stroke:#ffffff;stroke-width:0.5;stroke-linejoin:round;stroke-miterlimit:4;stroke-opacity:1;stroke-dasharray:none" />
  </g>
  <g
     id="layer5"
     style="display:inline">
    <g
       transform="translate(-155.90739,-39)"
       id="MILETO"
       style="fill:#e45c36;fill-opacity:1;stroke:#ffffff;stroke-width:0.5;stroke-linejoin:round;stroke-miterlimit:4;stroke-opacity:1;stroke-dasharray:none;display:inline" />
    <path
       d="m 53.374075,383.11624 0.05034,-0.072 0.0483,-0.0968 0.0328,-0.0815 0.0191,-0.0528 0.3492,-1.07618 0.3511,-1.07901 0.7148,-2.2362 0.2132,-0.73529 0.14799,-0.53562 0.19222,-0.80938 0.0554,-0.24592 0.0194,-0.1044 0.0423,-0.31808 0.007,-0.0581 0.0291,-0.37631 0.0156,-0.63458 -0.0233,-0.43741 -0.0282,-0.1676 -0.009,-0.0513 -0.0802,-0.26819 -0.0739,-0.20532 -0.1577,-0.3411 -0.0351,-0.0694 -0.0259,-0.0324 -0.0411,-0.0411 -0.0525,-0.0447 -0.055,-0.0238 -0.993,-0.38901 -1.4976,-0.81079 -0.0576,-0.0421 -0.2042,-0.14962 -0.963765,-1.03035 -0.864575,-0.61164 -0.28459,-0.23132 -0.0548,-0.0932 -0.0998,-0.2363 -0.0169,-0.17328 -0.0205,-0.1958 -0.0146,-0.0515 -0.0113,-0.0397 -0.0405,-0.12281 -0.31199,-0.71148 -0.0189,-0.0335 -0.0314,-0.0554 -0.0256,-0.0439 -0.65199,-1.07769 -0.0406,-0.0664 -0.0999,-0.1322 -0.0161,-0.0211 -0.0383,-0.0376 -0.034,-0.033 -4.32949,-3.16742 -0.0557,-0.0349 -0.3781,-0.25632 -0.0593,-0.0845 -0.4834,-0.77988 -0.0642,-0.19671 -0.0826,-0.15949 -0.1281,-0.23172 -0.3871,-0.587 -0.0988,-0.14038 -0.47181,-0.31179 -3.2205,-2.4471 -3.9e-4,-7.2e-4 0.0406,-0.0225 0.003,-0.0418 -0.0455,-0.0795 -0.0582,-0.0832 -0.0885,-0.0974 -0.0948,-0.0997 -0.0644,-0.0553 -0.8598,-0.55271 -0.07,-0.0221 -0.0458,0.003 -0.0553,0.007 -0.24881,0.10401 -0.0598,0.029 -0.0705,0.0326 -0.0928,0.0292 -0.0446,-0.0133 -0.12568,-0.1036 -0.21541,-0.29398 -0.0326,-0.88001 0.10868,-0.37799 1.61371,-4.77252 0.0674,-0.17389 0.61479,-0.9787 1.42871,-2.06939 0.0603,-0.0849 0.6176,-0.58872 0.22529,-0.15948 0.7892,-0.40332 0.7184,-0.36469 0.175,-0.0838 0.2659,-0.12509 0.1814,-0.13892 0.95931,-0.94989 0.221823,-0.24401 1.388997,-0.085 0.25461,-0.015 0.17119,-0.0168 0.0652,-0.01 0.55709,-0.14032 0.0653,-0.022 0.0675,-0.028 0.31869,-0.16703 0.24179,-0.25378 0.0271,-0.0284 0.56411,-0.55979 0.5832,-0.51571 0.86369,-0.26648 1.247485,0.18289 0.470875,-0.0953 0.0942,-0.0249 0.0832,-0.0244 0.0774,-0.0303 1.12959,-0.58221 0.85392,-0.4906 2.46199,-0.91531 1.1615,-0.10147 0.053,0.008 0.0574,-0.008 0.0447,-0.007 0.989,-0.1546 0.11411,-0.0633 0.0418,-0.0275 0.3244,-0.2609 0.62641,-0.5217 0.39469,-0.36789 0.28299,-0.27462 0.0831,-0.0805 0.15682,-0.16101 0.31349,-0.3714 0.17509,-0.2352 0.15882,-0.25839 0.05313,-0.19295 0.09613,-0.0692 0.12989,-0.16491 0.3974,-0.6174 0.323,-0.51981 0.0997,-0.18359 0.0686,-0.1409 0.0439,-0.11029 0.075,-0.15921 0.16159,-0.263 0.21721,-0.34571 0.1989,-0.20068 1.3766,-1.2497 0.3107,-0.27291 0.256,-0.15491 0.10989,-0.0482 0.39112,-0.1694 0.22299,-0.0386 0.13119,-0.021 0.64411,-0.0449 0.361788,-0.0265 1.058232,-0.11306 3.5182,-0.52789 0.42129,-0.0674 1.62891,-0.2626 0.28439,-0.0326 0.55172,0.0349 1.20259,0.12909 0.04,0.005 0.20199,0.11188 0.3049,0.25601 2.427,0.9729 0.0728,0.0181 2.4731,0.42129 0.1995,-0.038 0.0402,-0.0168 0.08444,-0.0374 1.08024,0.53891 1.4201,0.5943 0.1323,0.0427 2.19371,0.58191 0.13018,0.027 0.66941,0.11032 0.2267,-0.0219 4.2306,-0.95191 0.11161,-0.0278 0.0535,-0.0172 0.76821,-0.30252 0.48529,-0.27799 0.0536,-0.0325 0.3347,-0.24081 1.4399,-1.03284 0.5859,-0.59244 1.2545,-1.59781 3.0847,-2.06491 0.467785,-0.3696 0.99521,-0.8165 0.0275,-0.025 0.10282,-0.17169 0.0493,-0.088 0.9375,-1.69729 0.478,-1.15228 0.4678,-1.13642 0.5326,-1.32779 0.362,-0.9527 0.90832,-2.52822 0.5318,-1.51658 0.4635,-1.40222 0.0764,-0.24859 0.71811,-2.4549 0.87649,0.0886 1.76318,-0.51629 0.0776,0.008 0.49481,0.20651 0.17643,0.0824 2.79814,0.38801 0.93521,0.58419 1.34259,1.19651 0.2222,0.40521 0.7251,0.92438 0.2464,0.1658 0.58761,0.3002 0.24311,0.11511 0.17428,0.0781 0.73602,0.2839 0.1063,0.0348 0.15198,0.0364 0.0667,0.0137 0.0584,0.011 0.13009,-0.0144 -0.4956,-0.25909 -0.0778,-0.0944 -0.0175,-0.69861 0.0153,-0.36929 0.0207,-0.13269 0.0449,-0.22 0.0246,-0.1135 0.0216,-0.0707 0.0306,-0.09 0.0195,-0.0551 0.0637,-0.80429 -0.12802,-1.0234 -0.10269,-0.7526 -0.0117,-0.0671 -0.19162,-0.6506 -0.77578,-0.74478 -0.0867,-0.0773 -0.72501,-0.3281 -0.0627,-0.0114 -0.0628,0.0118 -0.36062,0.0686 -0.0664,0.0965 -0.56,0.11148 -0.0957,-0.01 -0.2721,-0.13629 -0.0473,-0.0521 -0.0208,-0.0237 -0.0136,-0.0746 0.22531,-0.12051 0.0823,-0.0406 0.72598,-0.18421 1.8707,-0.4049 1.46792,-0.28601 0.0587,-0.0115 0.0442,-0.009 0.18613,0.002 0.29218,0.0236 0.0753,0.0155 0.0793,0.02 1.9791,0.6636 1.19751,0.9282 1.0129,0.8367 1.38558,1.22491 0.0884,0.0817 0.38941,0.40219 0.281,0.68411 0.1428,0.51758 0.0106,0.0514 0.009,0.0411 0.002,0.0121 0.008,0.0195 0.0387,0.0935 0.0398,0.0505 0.007,0.009 0.0467,0.0552 0.0556,0.0612 0.0791,0.0673 0.0131,0.01 0.047,0.0351 0.10361,0.0682 0.17868,0.0974 0.0581,0.0142 1.19091,0.18051 0.60569,0.0429 1.17181,0.48459 0.573,0.28381 0.69089,0.91278 1.38131,2.71692 0.0264,0.2142 0.0192,0.10129 0.0957,0.29859 0.0301,0.0864 0.70651,1.3971 0.0513,0.0861 0.19429,0.32017 0.39421,1.1331 0.32678,0.82339 8.3e-4,6.1e-4 -0.0734,0.45609 0.0421,0.13891 0.67319,2.23529 0.0589,0.094 0.0154,0.0779 0.11679,0.7286 -0.002,0.12061 -0.0119,0.0904 -0.0134,0.0566 -0.0299,0.0606 -0.84809,1.00482 -0.0468,0.0413 -0.4035,0.29889 -0.0735,0.0329 -0.4154,0.11942 -0.15732,0.0439 -0.2132,0.0413 -0.55929,-0.34042 -0.0931,-0.0506 -0.1232,-0.002 -0.084,0.0205 -0.0588,0.0277 -0.49439,0.37771 -0.0931,0.10792 -1.15307,1.98177 -0.93979,1.29343 1.70535,1.84994 -0.9241,2.26672 -0.59339,0.6203 -0.3118,0.63928 -0.0498,0.98801 -0.003,1.39181 0.004,0.10108 -0.039,0.2478 -0.0264,0.086 -0.50982,0.48041 -0.0677,0.0554 -0.0672,0.0229 -0.11731,0.0336 -0.11307,0.0234 -0.0611,0.0265 -0.0628,0.0306 -0.0634,0.0495 -0.401,0.44619 -0.3927,0.4679 -0.0703,0.0972 -0.0363,0.0632 0.10412,0.15121 0.85709,1.06989 0.0823,0.0686 0.0599,0.0385 0.0788,0.041 0.10168,0.0334 0.0979,0.0164 0.20371,0.0511 0.0811,0.0245 0.0724,0.0258 0.3531,0.1336 0.0996,0.0417 0.87289,0.37631 0.0663,0.0369 0.0891,0.0523 0.0887,0.0597 0.037,0.045 0.0509,0.0934 0.0414,0.0968 0.004,0.0132 0.0229,0.0719 0.0401,0.12086 0.0367,0.37878 0.004,0.10321 -0.0326,1.51541 -0.0266,0.11539 -0.8081,1.34009 -0.1073,0.17401 -0.0572,0.0804 -0.12851,0.0935 -0.0926,0.0386 -0.0814,0.0155 -0.22821,0.0571 -0.13019,0.0367 -0.1066,0.0407 -0.1178,0.0607 -0.72531,0.68982 -0.1037,0.0997 -0.0681,0.0932 -0.10239,0.16488 -0.18324,0.54803 0.0277,0.28496 0.0112,0.0849 0.0262,0.063 0.60101,0.84549 0.0757,0.1048 0.0637,0.0597 1.2305,0.99838 1.53989,0.54392 0.96561,0.13818 0.0859,-0.0255 0.54978,-0.49072 0.1228,-0.1601 1.7225,0.95621 0.63092,0.42279 0.10898,0.1059 0.0477,0.0533 0.8638,0.96729 -1.27011,2.03747 0.0431,0.45013 0.0643,0.1522 0.0387,0.0725 0.80939,0.6716 1.5632,1.0187 1.49799,0.5915 0.43112,-0.24399 0.94568,-0.23551 0.70572,0.0902 1.06448,0.44608 0.10761,0.0456 1.51229,1.32099 -0.49588,1.06329 -0.0264,0.0755 0.0206,0.0521 0.0647,0.10398 0.2486,0.2355 0.32739,0.26831 0.0401,0.0254 0.0379,0.024 0.0582,0.0363 0.176,0.0784 0.36471,0.15069 0.67969,0.25311 0.11041,0.0143 0.34439,0.008 0.0736,0.0456 0.0696,0.0718 0.30991,0.32461 0.0655,0.081 0.0291,0.1294 0.0443,0.2146 -0.005,0.07 -0.0301,0.0542 -0.2038,0.24459 -0.2929,0.35291 -0.0451,0.0624 -0.0263,0.0587 -0.0213,0.0812 -0.0329,1.98969 -0.003,0.44821 -0.9942,0.44211 -0.55038,2.17073 -0.0698,0.0194 -0.0861,-0.009 -0.0495,-0.0376 -2.28961,-2.1473 10e-4,-8.8e-4 -0.79779,-0.76551 -0.24689,-0.42221 -0.13882,-0.2413 -0.30209,-0.37528 -0.9148,-0.64791 -0.25049,0.005 -0.2034,0.0558 -0.0716,0.0498 -0.0526,0.0723 -0.0456,0.0918 -0.0277,0.0797 -0.0203,0.0907 -0.027,0.13638 -1.4169,1.12211 -0.72009,0.1029 -0.75061,0.50079 -0.3245,-0.13058 -0.0642,-0.0221 -0.0645,-0.0157 -0.0619,-0.0134 -0.065,0.023 -0.151,0.077 -0.0903,0.0472 -0.93448,0.76272 -0.0754,0.0726 -0.42951,1.06528 -0.1745,0.4509 0.2027,0.4216 0.0666,0.0779 0.0451,0.0824 0.0444,0.10541 0.0266,0.12289 0.007,0.0699 -0.0184,0.2536 -0.01,0.0864 -0.33969,1.49558 -0.61389,0.24511 -0.7977,0.50309 -0.366,0.30102 -0.14102,0.11658 -0.10998,0.51291 0.1398,0.79761 0.0865,0.22637 0.0525,0.10563 0.0489,0.08 0.0292,0.1546 0.0813,0.42551 -0.002,0.0933 -0.14862,0.92121 -0.0377,0.16379 -0.0315,0.0531 -0.0434,0.0721 -0.0746,0.0748 -0.3114,-0.0893 -0.21561,0.21759 -0.0401,0.0409 -0.1564,0.15951 0.0296,0.91251 0.99002,2.7919 0.32019,0.853 0.17099,0.4277 0.28061,0.702 0.0247,0.0608 1.7731,2.00531 1.6395,1.45919 0.34851,0.0882 0.1073,0.0255 1.11649,0.0688 0.0626,0.34062 0.95892,0.5451 0.0779,0.0683 0.0178,0.0571 0.0101,0.0585 0.0105,0.087 -0.008,1.4154 -0.0717,0.0677 -0.2106,0.16962 -0.0546,0.0281 -0.30622,0.0108 -0.15179,0.005 -0.1145,-0.007 -0.30671,0.0726 -0.0988,0.0571 0.0289,1.4163 0.003,0.10729 0.0442,0.0992 0.39112,0.85171 0.0447,0.0782 0.12021,0.1683 1.17209,1.61661 -3.7019,2.48251 -1.59739,0.28479 -1.7301,1.3985 -5.3847,0.009 -0.13919,-0.008 -0.0559,-0.0192 -0.83191,-0.2898 -0.88929,-0.33593 -2.01134,0.67738 -2.32654,-2.14593 -1.34599,0.11423 -0.91505,-0.35486 -1.6319,-0.98859 -0.2073,-0.20672 -0.10621,-0.29398 -0.0664,-0.27164 0.59729,-0.89959 0.0639,-0.11029 0.0279,-0.0608 0.0513,-0.11139 0.026,-0.0672 -0.003,-0.0664 -5.2e-4,-0.004 -0.19168,-1.15311 -0.0734,-0.26831 -0.0198,-0.0719 -0.3071,-1.00308 -0.0398,-0.1019 -0.0306,-0.057 -0.13026,-0.21699 -0.0242,-0.0961 -0.0196,-0.0678 -0.0685,-0.15241 -0.0447,-0.0928 -1.16769,-2.43048 -0.69269,-1.25751 -0.0798,-0.11239 -2.0689,-1.81022 -1.99939,-2.07888 -0.55451,0.27459 -2.1019,0.56 -0.0896,0.0202 -0.99081,0.14371 -0.097,0.0137 -2.99359,-0.20791 -0.583,-0.504 -1.7587,-2.1615 -2.023105,-0.87689 -0.53171,-0.17261 -0.1202,-0.069 -0.0589,-0.0338 -1.03701,-0.6128 -0.0644,-0.0471 -2.3801,-2.36011 -0.6465,-0.9465 -0.1412,-0.21799 -0.52849,-0.53302 -0.0806,-0.0494 -0.0581,-0.0318 -0.47599,-0.24862 -0.0641,-0.0113 -1.42981,-0.12408 -1.09869,-0.0875 -0.61661,-0.49148 -0.19609,-0.16031 -1.2086,-0.9967 -0.73959,0.53091 -0.0444,0.0459 -0.03578,0.0485 -0.14043,0.0595 -0.0982,0.0364 -0.1208,0.006 -0.1419,0.007 -0.0726,-0.009 -0.16591,-0.0466 -0.0601,-0.0341 -0.056,-0.0422 -0.0863,-0.1044 -0.2677,-0.44101 -1.6775,-2.42639 -1.7963,-1.94961 -0.4998,-0.0736 -0.1203,0.0368 -0.627,0.3374 -0.0447,0.0773 -0.0277,0.0524 -0.2995,0.68219 -0.424395,1.93145 -0.03839,-0.10264 -0.0651,-0.1311 -0.0325,-0.0644 -0.0859,-0.14532 -0.0655,-0.10169 -0.0533,-0.0745 -0.12941,-0.1781 -0.059,-0.0813 -0.0684,-0.0715 -0.0762,-0.0563 -0.0724,-0.0466 -0.0914,-0.0281 -0.62619,0.10971 -0.6848,1.04168 -1.04181,0.74732 -1.1216,0.37759 -0.3582,0.63599 -1.6351,1.85742 -0.94071,0.1138 -0.6792,0.2298 -0.72439,0.32809 -0.0606,0.0289 -0.0992,0.12149 -0.53109,0.7652 -0.52221,0.8804 0.002,0.0589 -0.005,0.0197 -0.019,0.0761 -0.0485,0.0676 -0.0613,0.0583 -0.43069,0.38141 -0.2667,0.19248 -0.9721,0.53491 -0.096,0.0177 -0.0791,10e-4 -0.1351,-0.006 -0.0708,-0.0191 -0.11391,-0.0434 -0.0955,-0.0368 -0.1576,-0.0668 -0.0704,-0.0306 -0.0789,-0.0366 -0.4886,-0.24979 -1.14509,-0.61749 -0.54111,0.7951 -0.0631,0.0371 -0.0567,0.0313 -0.1044,0.0382 -0.26539,-0.0824 -0.0854,-0.0287 -0.1533,-0.0622 -0.16381,-0.0819 -0.1091,-0.31598 -0.23638,-0.48022 -1.55751,-0.41709 -0.3138,-0.0453 -1.41519,-0.29648 -0.38271,-0.0746 -0.0834,-0.0106 -0.0768,0.006 -0.0751,0.01 -0.0875,0.0122 -0.0981,0.0156 -0.0856,0.0323 -0.34511,0.16882 -0.1261,0.0869 -0.0507,0.0486 -0.0378,0.0538 -0.0257,0.0547 -0.1651,0.47769 -0.0536,0.3529 -2.0663,1.2569 -2.07379,1.48251 -0.1091,0.0788 -0.0756,0.0562 -0.0572,0.0466 -1.92645,0.16512 z"
       id="path3558"
       style="fill:#e45c36;fill-opacity:1;stroke:#ffffff;stroke-width:0.5;stroke-linejoin:round;stroke-miterlimit:4;stroke-opacity:1;stroke-dasharray:none;display:inline" />
  </g>
  <g
     id="layer2"
     style="display:inline">
    <g
       transform="translate(-155.90739,-39)"
       id="CELICO"
       style="fill:#e45c36;fill-opacity:1;stroke:#ffffff;stroke-width:0.5;stroke-linejoin:round;stroke-miterlimit:4;stroke-opacity:1;stroke-dasharray:none;display:inline" />
    <path
       d="m 122.90679,400.89238 -2.32654,-2.14593 -1.34599,0.11423 -0.91505,-0.35486 -1.6319,-0.98859 -0.2073,-0.20672 -0.10621,-0.29398 -0.0664,-0.27164 0.59729,-0.89959 0.0639,-0.11029 0.0279,-0.0608 0.0513,-0.11139 0.026,-0.0672 -0.003,-0.0664 -5.2e-4,-0.004 -0.19168,-1.15311 -0.0734,-0.26831 -0.0198,-0.0719 -0.3071,-1.00308 -0.0398,-0.1019 -0.0306,-0.057 -0.13026,-0.21699 -0.0242,-0.0961 -0.0196,-0.0678 -0.0685,-0.15241 -0.0447,-0.0928 -1.16769,-2.43048 -0.69269,-1.25751 -0.0798,-0.11239 -2.0689,-1.81022 -1.99939,-2.07888 -0.55451,0.27459 -2.1019,0.56 -0.0896,0.0202 -0.99081,0.14371 -0.097,0.0137 -2.99359,-0.20791 -0.583,-0.504 -1.7587,-2.1615 -2.0231,-0.87689 -0.53171,-0.17261 -0.1202,-0.069 -0.0589,-0.0338 -1.03701,-0.6128 -0.0644,-0.0471 -2.3801,-2.36011 -0.6465,-0.9465 -0.1412,-0.21799 -0.52849,-0.53302 -0.0806,-0.0494 -0.0581,-0.0318 -0.47599,-0.24862 -0.0641,-0.0113 -1.42981,-0.12408 -1.09869,-0.0875 -0.61661,-0.49148 -0.19609,-0.16031 -1.2086,-0.9967 -0.73959,0.53091 -0.0444,0.0459 -0.03578,0.0485 -0.14043,0.0595 -0.0982,0.0364 -0.1208,0.006 -0.1419,0.007 -0.0726,-0.009 -0.16591,-0.0466 -0.0601,-0.0341 -0.056,-0.0422 -0.0863,-0.1044 -0.2677,-0.44101 -1.6775,-2.42639 -1.7963,-1.94961 -0.4998,-0.0736 -0.1203,0.0368 -0.627,0.3374 -0.0447,0.0773 -0.0277,0.0524 -0.2995,0.68219 -0.424395,1.93145 -0.03839,-0.10264 -0.0651,-0.1311 -0.0325,-0.0644 -0.0859,-0.14532 -0.0655,-0.10169 -0.0533,-0.0745 -0.12941,-0.1781 -0.059,-0.0813 -0.0684,-0.0715 -0.0762,-0.0563 -0.0724,-0.0466 -0.0914,-0.0281 -0.62619,0.10971 -0.6848,1.04168 -1.04181,0.74732 -1.1216,0.37759 -0.3582,0.63599 -1.6351,1.85742 -0.94071,0.1138 -0.6792,0.2298 -0.72439,0.32809 -0.0606,0.0289 -0.0992,0.12149 -0.53109,0.7652 -0.52221,0.8804 0.002,0.0589 -0.005,0.0197 -0.019,0.0761 -0.0485,0.0676 -0.0613,0.0583 -0.43069,0.38141 -0.2667,0.19248 -0.9721,0.53491 -0.096,0.0177 -0.0791,10e-4 -0.1351,-0.006 -0.0708,-0.0191 -0.11391,-0.0434 -0.0955,-0.0368 -0.1576,-0.0668 -0.0704,-0.0306 -0.0789,-0.0366 -0.4886,-0.24979 -1.14509,-0.61749 -0.54111,0.7951 -0.0631,0.0371 -0.0567,0.0313 -0.1044,0.0382 -0.26539,-0.0824 -0.0854,-0.0287 -0.1533,-0.0622 -0.16381,-0.0819 -0.1091,-0.31598 -0.23638,-0.48022 -1.55751,-0.41709 -0.3138,-0.0453 -1.41519,-0.29648 -0.38271,-0.0746 -0.0834,-0.0106 -0.0768,0.006 -0.0751,0.01 -0.0875,0.0122 -0.0981,0.0156 -0.0856,0.0323 -0.34511,0.16882 -0.1261,0.0869 -0.0507,0.0486 -0.0378,0.0538 -0.0257,0.0547 -0.1651,0.47769 -0.0536,0.3529 -2.0663,1.2569 -2.07379,1.48251 -0.1091,0.0788 -0.0756,0.0562 -0.0572,0.0466 -1.926885,0.16607 -0.04759,0.40133 -0.08029,0.56275 -0.0796,0.56128 -0.0741,0.51642 -0.41251,1.68038 -0.59399,2.42362 -0.087,0.34689 -0.0355,0.1406 -0.0483,0.18441 -0.1312,0.42789 -0.0544,0.17652 -0.20569,0.55579 -0.08808,0.27039 -0.24659,0.72312 -0.54581,1.44287 -0.93469,2.48141 -0.14511,0.30869 -1.4066,2.78201 -0.0679,0.1051 -0.0447,0.0686 -0.0904,0.13 -0.48761,0.65439 -0.0702,0.0806 -0.0894,0.0837 -0.0327,0.0209 -0.0444,-0.0262 -0.0272,-0.0218 -0.12461,0.17981 -0.17979,0.29147 -0.14951,0.26922 -0.21219,0.38749 -0.31581,0.57519 -0.481345,0.99182 -0.292755,0.64731 -0.5735,1.2721 -1.2276,2.8721 -0.18989,0.4697 -0.37751,1.0494 -0.1026,0.32929 -0.0981,0.38309 -0.008,0.22061 0.0225,-0.0558 0.0273,-0.034 0.0542,-0.0132 0.0741,0.0213 0.0135,0.007 0.0737,0.0623 0.0467,0.0689 0.02,0.0343 0.007,0.0138 0.0367,0.1304 0.0143,0.0986 -0.002,0.1756 -0.1364,0.42432 -0.027,0.0736 -0.0408,0.10711 -0.0496,0.1275 -0.20061,0.43641 -0.0318,0.069 -0.36811,0.77078 -0.12259,0.1864 -0.0101,0.0114 -0.0473,0.0456 -0.1577,0.0895 -0.0124,0.007 -0.1763,0.0591 -0.0309,0.0103 -0.10441,0.029 -0.0961,0.0272 -0.0408,0.0127 -0.11268,0.0681 -0.0609,0.0374 -0.1,0.0691 -0.0596,0.0554 -0.0707,0.0734 -0.0121,0.0127 -0.0307,0.0355 -0.0395,0.0579 -0.25551,0.41311 -0.12149,0.34989 0.002,0.0121 0.0261,0.0784 0.0485,0.1727 7e-4,0.0357 -0.0168,0.0722 -0.0185,0.0437 -0.0513,0.1055 -0.0492,0.0974 -0.009,0.0173 -0.0214,0.0232 -0.0264,0.0263 -1.07029,1.02078 -0.5913,0.38632 -0.0169,-0.0394 -0.0887,-0.0886 -0.0113,-0.002 -0.008,-6.1e-4 -0.3729,0.15622 -0.0439,0.0597 -0.56981,1.46539 -0.0271,0.0826 -0.002,0.0315 -6e-4,0.1438 0.015,0.11309 0.377,0.71891 -0.83311,2.86076 -0.13774,0.19616 -0.2131,0.48902 0.009,0.39309 0.0836,1.22031 0.0352,0.0204 0.0479,0.0306 0.01,0.0288 0.0251,0.97708 -0.0133,0.32972 -0.85334,2.31803 -0.04394,-0.0615 -0.008,-0.005 -0.18291,0.0408 -0.1014,0.0932 -0.82029,1.4394 -0.34722,0.89071 -0.0604,0.32868 0.013,0.15942 0.10271,-0.0116 0.0824,-0.0429 0.0328,0.002 0.0234,0.13321 0.002,0.0187 -0.007,0.1268 -0.10842,0.19229 -0.0891,0.1135 -0.98059,1.21982 -0.20931,0.25378 -0.1347,0.15891 -2.3454,2.6026 -0.3923,0.42489 -3.03971,2.05362 -1.34938,0.87239 -2.88189,1.95743 -0.9028,0.52228 -2.21271,0.87952 -0.4113,0.0808 -0.33619,0.0308 -0.2202,0.0152 -0.3985,0.0177 -1.9079,-0.31171 -1.0316,-0.0864 -2.1245,0.28948 -1.7588,0.49302 -0.3519,0.19149 -0.786605,0.53624 -0.349995,-0.044 -0.1501,0.0204 -0.5094,0.13281 -0.1427,0.0505 -0.0408,0.0255 -0.65691,0.63122 -0.5746,0.59989 -0.1008,0.14001 -0.0369,0.0601 -0.0336,0.0546 -0.0444,0.0592 -0.1645,0.10999 -0.0712,0.0472 -0.0493,0.0255 -0.0799,0.0389 -0.0714,0.0339 -0.13941,0.0574 -2.34871,0.8371 -0.21829,0.0596 -0.1597,0.0429 -0.1225,0.033 -2.13749,0.57142 -0.71561,0.0947 -0.22749,0.5777 -0.3365,1.48541 -0.0767,1.68268 0.0765,0.94061 0.04,0.22141 0.0376,0.39239 0.002,0.0591 0.003,0.54232 -0.022,0.28058 -0.0144,0.13632 -0.117505,0.71063 -0.030705,0.80765 -0.0231,1.0841 0.005,0.0749 0.0122,0.15122 0.22049,1.66989 1.0157,3.60471 0.17129,0.36151 0.0117,0.0215 0.0235,0.0255 0.034,0.035 1.04319,1.2554 0.95169,1.15109 0.0822,0.1015 0.0651,0.1034 0.0299,0.0591 0.3785,1.0221 0.0155,0.0442 0.032,0.12391 0.11839,3.043 0.125,0.67169 -0.3694,0.5939 -0.3513,0.57501 -0.1957,0.32349 -0.0393,0.16882 -0.0205,0.11218 -0.0384,0.22101 -0.003,0.028 0.008,10e-4 0.0249,0.004 0.0315,-0.16821 0.0313,-0.16019 0.0802,0.007 0.009,0.448 0.0113,0.64441 -6e-4,0.0909 -0.0224,0.193 -0.7202,1.99032 -0.0505,0.0745 -0.0557,0.0771 -0.0611,0.0778 -0.584,0.5661 -0.13231,0.12073 -0.29629,0.23389 -0.0424,0.0314 -0.0898,0.0666 -0.267,0.18988 -0.5634,0.46472 -0.86009,0.77008 -0.0755,0.077 -0.0252,0.0266 -0.0293,0.06 -0.0162,0.0533 -0.10041,1.25598 0.0303,0.77301 0.0314,0.22809 0.71089,3.59522 0.0628,0.24908 0.0325,0.0564 0.0586,0.0733 1.31861,0.802 1.2655,0.83307 0.2588,0.21851 0.0719,0.068 0.0522,0.0552 0.0156,0.0228 0.0169,0.0269 0.0364,0.0617 0.0104,0.0202 0.0255,0.10437 0.005,0.0214 0.0154,0.065 0.002,0.0428 0.002,0.0495 -0.002,0.1189 -0.006,0.30822 -0.0396,0.2129 -0.0241,0.0613 -0.0214,0.052 -0.3461,0.82312 -0.34869,0.82379 -0.0215,0.0667 0.0152,0.0776 0.5522,1.5133 0.0647,0.14752 0.0415,0.0792 0.0754,0.12085 0.13291,0.16131 0.0313,0.035 0.23221,0.24499 0.0366,0.0377 0.0392,0.0297 0.0418,0.031 0.0496,0.0565 0.10418,0.12579 0.008,0.0121 0.0676,0.11541 0.14,0.2771 0.009,0.0215 0.0117,0.0281 0.006,0.0242 0.007,0.0481 0.004,0.0241 0.0151,0.0971 0.001,0.024 0.003,0.107 -0.003,0.0134 -0.0176,0.0787 -0.52719,1.9245 -0.0172,0.0528 -0.012,0.0358 -0.0289,0.0562 -0.1207,0.21191 -0.0153,0.0204 -0.0948,0.11553 -0.0474,0.0493 -0.0237,0.022 -0.1216,0.10169 -1.3478,1.09869 -0.53499,0.38849 -0.0792,0.0455 -0.1113,0.0642 -0.1736,0.0945 -0.8258,0.42231 -0.1576,0.21338 0.4016,2.22619 0.0146,0.0702 0.0196,0.0753 0.0312,0.11639 0.0214,0.0583 0.26548,0.71454 0.63491,1.44928 0.7539,1.47162 0.0333,0.043 0.0401,0.031 0.0539,0.009 0.13595,0.12733 0.21379,0.22681 0.0161,0.0211 0.0642,0.0845 0.782,1.12298 0.16361,0.25562 0.1212,0.19201 1.7025,2.79291 2.53469,3.81616 0.0596,0.0695 0.96469,0.55268 0.1015,0.0274 1.6808,0.22867 0.0919,0.0397 0.1357,0.0604 0.27991,0.15576 0.057,0.0376 0.088,0.0643 0.0465,0.0427 0.59031,0.59442 0.0326,0.0336 0.0289,0.0337 0.15469,0.276 0.0162,0.0317 0.023,0.0867 -4.1e-4,0.0565 1.73091,1.8313 0.56979,0.18164 1.2303,0.52069 1.46449,1.05267 0.36222,0.30249 0.27029,0.48084 0.2291,-0.0133 1.21817,-0.14072 0.08577,-0.006 0.28672,0.002 0.11119,0.0208 0.2128,0.0468 0.19281,0.0578 0.12948,0.0463 0.15522,0.0724 0.27969,0.14362 0.0576,0.0379 0.2236,0.16778 0.1341,0.1626 0.19571,0.22101 0.37458,0.34369 0.1082,0.0987 0.0552,0.0416 0.1557,0.11462 0.5425,0.36469 0.2814,0.17731 0.0941,0.053 0.0577,0.0295 0.10511,0.033 0.2081,0.0627 0.11171,0.0223 0.0387,0.008 0.0885,0.01 2.5096,0.0134 1.5936,-0.1402 0.9983,-0.13098 0.24241,-0.11511 0.1008,-0.0404 0.74089,-0.23468 0.0682,-0.0175 1.052765,-0.19691 0.100345,-0.0204 1.15401,-0.0886 0.19389,0.009 0.9621,0.0762 0.21409,0.0261 0.14492,0.0366 0.0689,0.0173 0.1831,0.0693 0.217,0.0816 0.319,0.093 0.31599,0.0445 0.22431,0.0228 0.4494,-0.0393 0.2417,-0.022 1.35181,-0.1402 0.268125,-0.0295 1.039335,-0.33381 0.1667,-0.0489 0.5934,-0.17187 0.21229,-0.0586 0.0695,-0.0175 0.27369,-0.064 3.81031,-0.85345 1.68589,-0.26093 2.782255,0.033 1.593025,-0.22576 0.8423,-0.12469 0.102,-0.0193 0.0887,-0.0172 0.0976,-0.0283 0.17981,-0.0523 0.10659,-0.0351 0.1332,-0.0347 0.479,-0.0944 0.11521,-0.0169 0.2173,-0.0317 0.2081,-0.002 0.26329,0.003 1.2687,0.19318 0.1192,0.0328 0.1147,0.0327 0.064,0.0187 0.0883,0.0257 0.0684,0.0232 2.63172,1.1095 0.65998,0.35352 0.1541,0.13531 0.36481,0.25189 0.2489,0.11542 0.0551,0.0231 0.0883,0.0302 0.23191,0.0476 0.053,0.01 0.0773,0.0121 0.11501,0.006 1.946,-0.0322 1.32338,0.0583 1.9537,0.3154 1.50579,0.22864 1.4461,-0.24042 0.17311,-0.0713 1.79539,-0.66815 0.7066,-0.25555 0.2307,-0.0779 0.13671,-0.0278 0.21589,-0.0341 0.70459,-0.0727 1.33701,-0.10199 2.9434,0.1286 2.0868,-0.3565 0.798072,-0.26086 0.302718,-0.48375 0.10801,-0.15802 0.1184,-0.13928 0.0507,-0.0567 1.40641,-1.56061 1.475,-1.69904 0.9179,-1.15356 1.5364,-1.97992 0.5853,-0.84961 1.1662,-1.70221 1.749285,-3.31534 1.64575,-4.09472 2.69037,-6.05468 0.407195,-0.69437 0.1472,-0.25659 0.18621,-0.45801 -5.1e-4,-0.0353 -0.0154,-0.0879 -0.0633,-0.19238 -0.0752,-0.26502 -0.0136,-0.0897 -0.0138,-0.21039 -0.046,-1.55511 0.0108,-0.20996 0.0104,-0.18549 0.01084,-0.0627 0.97062,-3.10331 0.24485,-1.93227 0.932,-5.10962 0.5719,-3.63959 0.0937,-1.7301 0.0151,-0.14471 0.0118,-0.0869 0.109495,-0.63858 0.348235,-3.31564 0.01025,-0.0768 0.0547,-0.26101 0.0419,-0.1507 0.0417,-0.13321 0.0475,-0.13318 0.17081,-0.39331 0.1174,-0.23691 0.2514,-0.45468 0.1321,-0.2359 0.0482,-0.0848 0.0962,-0.14669 0.0961,-0.1446 0.12111,-0.17761 0.0752,-0.10739 0.0813,-0.1073 0.12089,-0.1568 0.0812,-0.10101 0.11839,-0.1214 0.23061,-0.23251 0.0912,-0.078 0.147,-0.11062 0.0929,-0.053 0.0868,-0.0489 0.0749,-0.0346 0.3592,-0.24322 0.16562,-0.12079 0.15109,-0.11261 0.1431,-0.12729 0.91809,-0.9501 1.1297,-1.2277 0.37032,-0.40364 1.00828,-1.30501 0.16651,-0.22751 1.52319,-2.09509 0.32931,-0.46841 0.32679,-0.46518 0.29528,-0.4288 0.10752,-0.1904 0.0231,-0.0375 0.0801,-0.1246 0.053,-0.0817 0.0393,-0.0575 0.44312,-0.62082 0.17419,-0.20938 0.0864,-0.10331 0.0655,-0.0784 0.63901,-0.67378 1.84907,-2.51461 0.99859,-1.15515 0.0445,-0.0452 0.3038,-0.33749 0.15707,-0.1951 0.94232,-1.17752 1.47409,-1.85288 0.6838,-0.888 2.84781,-3.75781 1.48107,-2.39143 0.064,-0.14146 0.6317,-1.28308 0.0678,-0.11831 0.0901,-0.14289 0.05,-0.0713 0.38901,-0.50259 0.41281,-0.42139 0.0246,-0.0232 0.0237,-0.0223 0.0904,-0.0709 0.15337,-0.10221 0.089,-0.0584 0.10629,-0.0681 0.2053,-0.14117 0.13392,-0.10993 0.39669,-0.33978 0.0869,-0.0783 0.37262,-0.35999 0.0745,-0.0735 0.0901,-0.097 0.1737,-0.18991 0.43873,-0.53549 0.11468,-0.14001 0.0922,-0.11301 0.37421,-0.4668 0.0823,-0.10318 0.28619,-0.37451 0.12161,-0.16821 0.0724,-0.1084 0.0248,-0.0422 0.1026,-0.1929 0.0332,-0.0698 0.0599,-0.13629 0.0434,-0.11051 0.19332,-0.453 0.32319,-0.64398 0.0463,-0.0777 0.21262,-0.34171 0.117,-0.1813 0.0576,-0.0825 0.0427,-0.0582 0.0722,-0.0937 0.041,-0.05 0.0295,-0.0355 0.19562,-0.2207 0.0923,-0.089 0.91679,-0.92776 0.83739,-0.8272 0.1199,-0.1041 0.22388,-0.17218 0.0578,-0.0404 0.36251,-0.2435 0.13189,-0.0838 0.0898,-0.0515 0.0193,-0.011 0.21908,-0.1177 0.0553,-0.025 0.0263,-0.0115 1.74292,-0.73169 0.258,-0.10782 0.09,-0.0305 0.1634,-0.0487 0.0323,-0.009 0.3613,-0.0158 0.042,2.1e-4 0.0641,0.001 0.0453,0.004 0.13128,0.0198 0.0639,-9.2e-4 0.15539,-0.0268 0.20292,-0.0357 1.17059,-0.28681 0.1861,-0.0481 0.51722,-0.13361 0.14239,-0.0538 0.15521,-0.0623 0.17099,-0.0742 0.3136,-0.1517 0.8375,-0.38998 0.8277,-0.3794 1.04901,-0.45102 3.47061,-1.49209 0.40469,-0.17459 5.3103,-2.01541 1.20145,-0.17449 1.72247,-0.74707 0.0897,-0.0389 0.14673,-0.0645 1.31268,-0.6459 0.10541,-0.0597 0.30929,-0.17591 0.1156,-0.0698 0.17011,-0.10989 0.14639,-0.0966 0.12259,-0.0834 0.2146,-0.1535 1.70941,-1.375 1.5575,-1.34311 0.20501,-0.18091 0.24327,-0.22172 0.0823,-0.0483 0.54288,-0.4068 0.0902,-0.0701 0.1857,-0.15439 0.3754,-0.35141 0.5155,-0.4895 0.3641,-0.3771 0.72171,-0.76099 0.46399,-0.521 1.97346,-2.26013 0.0592,-0.07 0.0467,-0.0559 0.866,-0.97519 1.2239,-1.37122 1.0365,-1.11319 0.3992,-0.42959 0.8093,-0.8733 1.11392,-1.23013 3.70103,-4.65919 0.62037,-0.89095 0.0265,-0.0463 0.0311,-0.0624 0.47111,-1.10699 0.1027,-0.24552 0.25628,-0.69848 0.15341,-0.44861 0.27991,-0.9118 0.3775,-1.25919 0.3194,-1.1116 0.079,-0.40262 0.0663,-0.3833 0.005,-0.28458 -0.0961,-2.93811 -0.0385,-0.21191 -0.013,0.0567 -0.13659,0.1145 -0.0675,0.0542 -0.0274,0.0208 -0.079,0.0574 -0.0877,0.0378 -0.0251,0.008 -0.01,0.001 -0.0662,0.008 -0.0895,-0.004 -0.0449,-0.003 -0.88822,-0.31989 -1.38431,-0.0831 -2.40657,0.197 -1.63542,0.7528 -0.47493,0.66731 -0.61596,-0.62807 -0.0734,-0.0649 -0.0125,-0.007 -0.0621,-0.034 -0.9237,-0.504 -1.48291,-0.82132 -1.37871,-0.949 -0.22579,-0.19498 -0.0488,-0.0555 -0.29752,-0.40048 -0.9368,-0.9888 -3.2558,-1.14603 -0.93899,-0.7515 -0.79467,-0.17469 0.31441,-0.25318 0.10949,-0.0886 0.6615,-0.63501 0.0936,-0.12659 0.0345,-0.0601 0.0499,-0.11981 -0.0115,-0.0817 -0.16861,-0.5199 -0.0676,-0.056 -0.7749,-0.25302 -0.43518,-0.11359 -0.18491,0.095 -0.1832,0.0205 -0.18051,-0.0348 -0.57888,-0.1391 -0.0579,-0.0164 -0.0667,-0.0275 -2.33481,-1.6138 -0.0551,-0.0675 -0.0327,-0.0678 0.003,-0.16458 0.006,-0.13171 -7e-4,-0.0778 -0.0224,-0.12461 -0.0877,-0.13641 -0.0659,-0.06 -0.0576,-0.0131 -5.17218,0.26459 -0.467,0.031 -0.0685,0.009 -0.055,0.0249 -0.0441,0.0447 -0.0402,0.0565 -0.0347,0.0633 -0.0488,0.0685 -0.0737,0.0569 -0.17301,0.13281 -0.1239,0.0644 -0.0892,0.0199 -1.68451,-0.4003 -0.384,-0.0966 -0.15458,-0.0882 -0.12841,-0.0735 -0.12101,-0.1012 -0.18298,-0.1535 -0.0878,-0.1048 -0.043,-0.0623 -0.0305,-0.0571 -0.0249,-0.1175 -0.0434,-1.28012 0.26089,-0.4353 0.0591,-0.0497 0.0937,-0.0281 0.11572,0.0672 0.0284,0.0633 0.0258,0.0703 0.0154,0.0737 0.0446,0.0824 0.0535,0.0453 0.0912,0.0326 1.2211,0.37708 0.0599,0.007 0.0626,-0.0158 0.70011,-0.2922 0.1231,-0.1327 0.0448,-0.0919 0.0332,-0.12528 0.0177,-0.0752 0.007,-0.20618 0.004,-0.11621 -0.009,-0.0753 -0.0485,-0.0617 -0.0939,-0.0119 -0.0408,0.0743 -0.0836,0.0247 -0.0534,-0.0243 -0.0947,-0.0729 -0.17178,-0.21249 -0.10611,-0.1409 -0.0367,-0.32633 0.0283,-0.0964 0.0509,-0.0651 0.1516,-0.1719 0.93589,-0.64081 2.59631,-1.68381 -0.50989,-0.38721 -0.75751,-0.64059 -0.38519,-0.4032 -2.01632,-2.20032 -0.0691,0.019 -0.0861,-0.009 -0.0495,-0.0376 -2.28961,-2.1473 0.001,-8.8e-4 -0.79779,-0.76551 -0.24689,-0.42221 -0.13882,-0.2413 -0.30209,-0.37528 -0.9148,-0.64791 -0.25049,0.005 -0.2034,0.0558 -0.0716,0.0498 -0.0526,0.0723 -0.0456,0.0918 -0.0277,0.0797 -0.0203,0.0907 -0.027,0.13638 -1.4169,1.12211 -0.72009,0.1029 -0.75061,0.50079 -0.3245,-0.13058 -0.0642,-0.0221 -0.0645,-0.0157 -0.0619,-0.0134 -0.065,0.023 -0.151,0.077 -0.0903,0.0472 -0.93448,0.76272 -0.0754,0.0726 -0.42951,1.06528 -0.1745,0.4509 0.2027,0.4216 0.0666,0.0779 0.0451,0.0824 0.0444,0.10541 0.0266,0.12289 0.007,0.0699 -0.0184,0.2536 -0.01,0.0864 -0.33969,1.49558 -0.61389,0.24511 -0.7977,0.50309 -0.366,0.30102 -0.14102,0.11658 -0.10998,0.51291 0.1398,0.79761 0.0865,0.22637 0.0525,0.10563 0.0489,0.08 0.0292,0.1546 0.0813,0.42551 -0.002,0.0933 -0.14862,0.92121 -0.0377,0.16379 -0.0315,0.0531 -0.0434,0.0721 -0.0746,0.0748 -0.3114,-0.0893 -0.21561,0.21759 -0.0401,0.0409 -0.1564,0.15951 0.0296,0.91251 0.99002,2.7919 0.32019,0.853 0.17099,0.4277 0.28061,0.702 0.0247,0.0608 1.7731,2.00531 1.6395,1.45919 0.34851,0.0882 0.1073,0.0255 1.11649,0.0688 0.0626,0.34062 0.95892,0.5451 0.0779,0.0683 0.0178,0.0571 0.0101,0.0585 0.0105,0.087 -0.008,1.4154 -0.0717,0.0677 -0.2106,0.16962 -0.0546,0.0281 -0.30622,0.0108 -0.15179,0.005 -0.1145,-0.007 -0.30671,0.0726 -0.0988,0.0571 0.0289,1.4163 0.003,0.10729 0.0442,0.0992 0.39112,0.85171 0.0447,0.0782 0.12021,0.1683 1.17209,1.61661 -3.7019,2.48251 -1.59739,0.28479 -1.7301,1.3985 -5.3847,0.009 -0.13919,-0.008 -0.0559,-0.0192 -0.83191,-0.2898 -0.88929,-0.33593 -2.01134,0.67738 z"
       id="path1248"
       style="fill:#e45c36;fill-opacity:1;stroke:#ffffff;stroke-width:0.5;stroke-linejoin:round;stroke-miterlimit:4;stroke-opacity:1;stroke-dasharray:none" />
  </g>
</svg>
