<?xml version="1.0" encoding="UTF-8" standalone="no"?>
<!-- Created with Inkscape (http://www.inkscape.org/) -->

<svg
   xmlns:svg="http://www.w3.org/2000/svg"
   xmlns="http://www.w3.org/2000/svg"
   version="1.1"
   width="2044.7472"
   height="1861.103"
   id="svg2"
   style="display:inline">
  <defs
     id="defs4" />
  <g
     transform="translate(552.37684,617.28945)"
     id="layer2"
     style="display:inline">
    <path
       d="m 151.48292,370.41462 2.61609,0.47334 2.94951,0.2124 0.64539,2.21271 -2.89848,-0.2421 -3.31251,-2.65644 z"
       id="path3644"
       style="color:#ffffff;fill:none;stroke:#950000;stroke-width:1.5;stroke-linecap:butt;stroke-linejoin:round;stroke-miterlimit:4;stroke-opacity:1;stroke-dasharray:none;stroke-dashoffset:0;marker:none;visibility:visible;display:inline;overflow:visible;enable-background:accumulate" />
    <path
       d="m 279.84854,214.98069 -1.65384,-4.51776 -3.71103,-6.45399 -2.58159,-2.42022 -2.74296,-5.96994 -2.90427,-3.06564 -2.9043,-5.80857 -2.25888,-2.74296 -4.19511,-3.54966 -2.90427,-5.64723 -3.06564,-4.03374 -8.71287,-2.42025 -6.13128,0.80676 -2.74293,-1.45215 4.03371,-2.09754 2.74296,-1.77486 3.06564,-2.09754 2.58159,-4.51779 2.42022,-6.45396 1.77486,-4.35645 -1.12944,-6.45396 -1.61349,-1.9362 -0.32271,-1.29081 4.51779,-1.45215 8.5515,-2.58159 2.09754,-0.96807 3.54969,-0.1614 2.25891,2.25891 2.58159,-0.32271 1.9362,-1.61349 1.45212,0 2.9043,1.77483 1.9362,0.64542 1.45215,2.42022 2.09754,0.1614 2.09754,-1.29081 6.61533,-1.45215 5.00184,-0.80673 4.84047,-1.12947 10.00365,0 4.51779,1.12947 1.45215,3.71103 3.22698,1.12944 4.35645,1.77486 8.39016,0.1614 5.48589,-1.29081 0.48405,-1.77483 -0.32271,-1.29081 -2.90427,-5.96991 -1.12947,-3.22701 -1.29078,-1.77483 -2.74293,0.48405 -2.74296,2.09754 -18.07113,0 -10.52805,0.80676 c 0,0 -3.95316,2.29923 -4.15476,2.29923 -0.2016,0 -3.79182,0.84696 -3.91272,0.72606 l -2.70261,-4.63881 1.61352,-3.22698 2.58159,-0.9681 -2.25891,-1.93617 -2.58159,-2.58162 -1.29078,-3.22698 -1.9362,-5.16318 -10.64907,0.64539 -9.68097,-1.29078 -7.74477,-2.58159 -2.9043,-6.13128 0,-11.294461 -1.93617,-7.09938 -1.61349,-8.39016 -1.29081,-1.61349 -1.61349,-6.7767 -0.32271,-11.29446 1.29081,-5.48586 2.58159,-4.8405 -1.61349,-6.13128 -2.25891,-10.32636 -4.19508,-2.25888 -2.25888,-8.71287 -4.35645,-6.4539895 -5.21355,-5.09262 -8.80524,0.30159 -3.65091,-1.08387 -0.96978,-1.54023 -5.81865,-0.057 -3.82206,-1.31205 -2.05365,-1.54023 -2.46033,1.36953 -3.12615,3.04545 -0.67503,1.18827 0.2616,4.49049 -0.58284,4.6625695 0,4.95399 2.3313,1.74849 1.16565,6.41106 -0.2913,4.37118 -1.74846,2.91411 -6.70248,3.78834 -0.2913,2.3313 -2.91411,3.20553 -2.91411,-2.3313 -4.37118,-3.20553 -5.24541,-2.03988 -5.53683,-1.74846 -6.11964,0 -5.5368,0 -3.20553,2.03988 -3.78849,2.3313 -0.58281,2.91411 -3.49695,9.03375 -6.41106,2.03988 -5.24541,-0.2913 -6.70248,-3.49695 -8.74233,1.45707 -6.11964,0.87423 -6.41106,1.45704 -4.37118,2.62272 -9.32517,0.58281 -5.53683,-2.03988 -4.6626,-0.87423 -4.95399,-1.45707 -2.62269,-1.74846 0.58281,-1.16565 3.78834,-2.62269 2.62272,-3.49695 1.45707,-2.62269 0.58281,-3.49695 -3.20553,-2.62272 -3.20553,-1.74846 -7.57671,-1.16565 -8.45094,-0.58281 -6.41106,1.45704 -3.78834,0.87423 -6.41106,2.91414 -5.53683,0 -6.70245,0 -9.32517,0.58281 -1.74849,1.45707 -2.33127,0.87423 -2.91414,-1.16565 -1.16565,-1.16565 -6.70245,-0.58281 -3.78837,1.74846 -6.11964,0.2913 -4.95399,0 -6.99387,-2.03988 -4.95402,-0.87423 -7.57668,0 -3.78837,2.33127 -2.91411,1.16565 -1.45707,2.91414 -1.74846,4.37118 -0.2913,5.24541 -0.2913,4.95402 0.58284,2.91411 4.37118,2.62269 0.58281,3.20553 0,6.9939 -0.58281,6.70245 -2.91411,6.11964 -1.74849,6.411061 -5.24541,0.874259 -4.66257,-1.45707 -3.49695,-1.16565 -5.82825,0 -3.49692,1.16565 -5.24541,4.37118 2.3313,3.205531 2.03988,1.74846 3.78834,0.87423 0,2.03988 -2.3313,0.2913 -3.49692,3.78834 -1.45707,2.91414 -3.78834,1.74846 -3.49695,-3.49695 -2.3313,-2.3313 -3.20553,-2.03988 -3.20553,-4.66257 -4.07976,-4.07976 -2.62269,0 -1.74849,3.49692 -0.87423,4.6626 -3.20553,4.07976 -9.61659,1.16565 -3.78834,1.16565 -3.20553,0 -2.62272,-1.45707 -3.20553,-1.74846 -4.95399,-2.03988 -6.70245,-0.58284 -7.28532,2.91414 -2.03988,2.03988 -2.33127,-1.16565 -0.87426,-1.45707 -4.66257,0 -1.74846,4.07976 -0.87426,4.07976 -0.58281,2.91414 -3.78834,0.2913 0,-6.70245 0.87423,-6.70248 -2.62272,-0.58281 -0.58281,2.91411 -3.49695,2.03988 -5.82822,2.62269 -2.62272,3.20553 -1.74846,1.74849 -0.87423,3.20553 -3.49695,0.58281 -7.57671,-1.45704 -2.91411,-3.20553 -4.37118,-0.58284 -0.87423,-1.74846 2.3313,-2.03988 2.91411,-1.74849 2.62269,-3.78834 10.49082,-0.87423 -0.58281,-7.28529 -2.3313,-5.82825 -1.45704,-4.95399 -2.62272,-6.11964 -2.62269,-6.11964 -4.07979,0 -2.03988,2.62269 -5.24541,0 -6.41106,1.16565 -7.8681,0.87423 -3.20553,0 -1.74846,4.37118 -2.03988,4.6626 -0.58284,2.03988 -3.20553,8.15952 -4.66257,3.20553 -5.24541,2.03988 -1.45707,1.16565 -8.15952,2.03988 -12.82212,-1.45707 -9.61659,0.2913 -9.32517,0.87423 -0.58281,1.16565 -0.2913,2.91411 2.03988,3.20553 -2.62272,3.20553 -4.95399,2.03988 -4.37118,1.45707 -4.07976,0 -3.20553,-1.16565 -2.03988,-2.62269 -3.20553,-0.87426 -0.58281,1.16565 -2.76867,1.74867 -0.72876,6.7026 0,10.78224 6.41106,3.49695 2.91411,4.07976 1.74846,2.91411 1.74849,2.3313 0.58281,2.91411 -1.74846,1.74846 -1.45707,3.78837 0,2.3313 3.49695,4.07976 0.58281,3.20553 3.20553,3.78834 0.87426,4.07976 1.74846,3.49695 0.58281,1.74846 2.3313,1.45707 0.2913,1.74846 -2.09085,3.13032 1.86297,9.01713 5.38284,12.00789 2.48439,11.59383 1.24221,5.38284 1.24218,8.69538 2.89845,5.79693 0.41409,10.76568 1.24218,14.90637 -0.82812,10.35165 0,8.28129 -0.41406,10.76571 -1.24221,5.38284 -0.82812,3.7266 -0.82815,6.21099 0,4.55472 0.82815,4.96878 6.62505,2.48439 7.45317,1.65624 2.89845,1.24221 1.65627,0.41406 5.38284,-2.07033 11.59383,-0.82812 2.48439,0.82812 1.24221,2.48439 2.48439,2.48439 0.82812,2.48442 0.41406,2.48439 4.96881,0.41406 1.65624,-2.48439 0,-4.55472 -1.24218,-4.14066 -3.7266,0 -2.48439,-1.65627 -4.14066,-0.82812 -1.24218,-3.31254 6.21096,0 0.41409,-4.14063 -1.24221,-6.21099 0,-8.28132 -2.89845,-2.89845 -2.48439,-2.48439 -2.07033,-1.65627 -1.24221,-2.07033 -5.38284,-2.07033 -2.07033,0 -0.41406,-4.14063 0,-3.7266 2.89845,-1.24221 2.89845,-3.31251 1.65627,-1.24221 0.82815,-1.65624 c 0,0 2.48439,-2.07033 4.14063,-2.48439 1.65627,-0.41409 3.7266,-1.65627 3.7266,-1.65627 l 3.7266,0 1.65624,-2.07033 7.03911,1.24221 4.55472,0 4.55472,0.41406 2.89848,2.07033 3.72657,2.07033 3.31254,4.96878 6.21096,1.65624 6.21099,0.41409 9.93756,-0.41409 3.31254,2.48439 8.28132,0 4.14063,0.82815 6.21099,6.21099 4.14066,4.96878 4.14066,5.38284 0,4.14066 -5.79693,-0.41406 -4.55472,0 -3.31251,0 -1.24221,4.96878 0,4.55472 3.7266,0 5.38284,-2.07033 0,-2.89845 3.31254,-1.65627 2.48439,0 7.03911,0 1.65624,2.48439 2.89848,2.07033 0.41406,2.48439 2.07033,2.48439 3.31251,-1.24218 2.07033,-4.55472 7.03911,-4.55472 4.14066,-4.14066 0.82812,-3.7266 -1.24218,-2.89845 0,-7.45317 3.31251,-3.31254 4.14066,-8.28129 2.89845,-7.03911 4.14066,-2.48442 3.31254,-2.89845 3.31251,-0.41406 3.7266,-2.07033 0.41406,-2.89845 2.48439,1.24218 3.31251,2.07033 4.55472,-0.41406 3.7266,-2.89845 1.65627,-4.55472 4.96878,-4.14066 2.07033,-3.31251 4.96878,-2.07033 4.96878,-0.41409 3.31254,-2.89845 4.55472,0.82815 5.7969,3.31251 6.21099,3.7266 6.62505,2.48439 6.62505,3.31251 6.21096,2.48439 3.31254,2.48439 3.72657,3.31254 2.48442,3.72657 2.0703,4.14066 4.55472,0.82815 8.69538,3.72657 0.41406,3.7266 3.31254,2.48439 -0.41406,1.24218 -2.07033,1.65627 0,2.48439 2.89845,2.89848 4.14066,0.41406 5.38284,7.03911 0.41406,3.31251 4.14066,1.65627 7.86726,2.48439 1.24218,2.89845 3.31254,2.07033 3.72657,4.96878 1.65627,0.41409 4.55472,2.89845 1.65627,3.31251 4.55472,2.48439 2.89845,4.96881 4.14066,1.65624 3.31251,1.65627 2.07033,3.31251 2.07033,3.31254 0,2.89845 7.03911,1.24221 3.31254,1.24218 5.38284,0.82815 0.41406,3.72657 4.55472,2.07033 9.5235,1.65627 4.55472,-1.65627 5.38287,-4.14066 7.03911,-1.65624 5.38284,0.82812 2.89845,3.31251 3.7266,2.48442 2.48439,3.72657 4.14066,5.38287 8.28129,4.96878 1.24221,4.55472 4.55472,6.21096 0.82812,4.96881 6.21099,11.17974 0.41406,5.79693 1.24221,2.48439 1.24218,3.31254 0,3.72657 0,3.7266 0,2.48439 -2.48439,1.24218 -0.82812,2.48439 -2.89845,4.96881 -2.07033,0 0.41406,-4.96881 -1.65627,1.65627 c 0,0 4.14066,0 0,0 -4.14066,0 -6.62505,2.89845 -6.62505,2.89845 l -6.62505,5.38287 -9.10944,1.65627 -3.72657,4.14063 -3.31254,1.24221 -0.82812,4.55472 -2.89845,5.38284 -0.82815,4.55472 -3.31251,5.79693 -0.0522,4.03434 -2.16774,1.4832 -7.53,3.65091 -1.14093,2.73819 -5.81865,0.79866 -8.10048,1.25499 -1.59729,2.05365 2.9664,2.6241 2.50998,4.10727 c 0,0 0.91275,-0.91272 0.2283,2.28183 -0.68457,3.19455 -0.68457,3.19455 -0.68457,3.19455 0,0 -1.82544,4.44957 -2.85228,7.64412 -1.02681,3.19455 -1.02681,3.19455 -1.02681,3.19455 l -2.96637,0.91275 -1.82547,1.93956 -6.7314,2.96637 -0.57048,2.2818 -3.19455,1.82547 -1.36908,1.71138 -9.12732,2.16774 -1.82544,1.59726 c 0,0 -3.30867,1.71138 -6.61731,-0.57045 -3.30864,-2.28183 -3.30864,-2.28183 -3.30864,-2.28183 0,0 -1.14093,1.71138 -3.30864,-0.79863 -2.16774,-2.51001 -0.79866,-0.68454 -2.16774,-2.51001 -1.36911,-1.82547 -1.36911,-1.82547 -1.36911,-1.82547 0,0 -2.73819,-1.71135 -3.65091,0.114 -0.91272,1.82556 -0.91272,1.93956 -0.91272,1.93956 0,0 -1.93944,-2.85228 -2.16774,1.36911 -0.2283,4.22136 1.02681,0.2283 -0.34227,4.22136 -1.36911,3.99321 -1.36911,3.99321 -1.36911,3.99321 l -3.08046,-0.91275 -1.14093,-2.73819 -1.71135,1.36911 -1.71138,2.6241 c 0,0 -2.16774,0.91272 -0.2283,3.08046 1.93956,2.16774 1.93956,2.16774 1.93956,2.16774 l 3.99318,2.96637 0.114,1.25499 -2.05362,1.4832 -2.05365,5.13411 -2.28183,2.28183 -0.34227,3.30864 c 0,0 0.114,-1.82547 -1.59729,2.28183 -1.71135,4.10727 -1.71135,4.10727 -1.71135,4.10727 l -1.36911,3.65094 c 0,0 -0.114,2.05362 -1.71138,5.36229 -1.59726,3.30864 -0.68454,-2.73819 -1.59726,3.30864 -0.91272,6.04683 0.2283,4.44957 -0.91272,6.04683 -1.14093,1.59729 -0.57048,-1.36908 -1.14093,1.59729 -0.57045,2.96637 -0.45645,-0.91275 -0.57045,2.96637 -0.114,3.87909 -0.114,3.87909 -0.114,3.87909 l 1.1409,5.81865 0.34227,2.51001 1.25502,7.53003 0.34227,1.14093 2.6241,0.34227 4.22139,-4.1073 6.16092,-3.19455 6.04683,-6.84549 6.27501,-2.39589 4.56366,-2.05365 6.16095,-4.79184 6.50319,-2.28183 c 0,0 0.79863,-2.50992 2.28183,-2.39592 1.48317,0.114 1.48317,0.114 1.48317,0.114 l 0.79866,2.85228 c 0,0 0.2283,1.48311 1.48317,1.36911 1.25502,-0.114 1.25502,-0.114 1.25502,-0.114 l 2.16771,-2.85228 0.114,-2.39592 6.04683,-2.6241 3.30864,-3.76503 5.47638,-2.05362 6.16092,-1.93956 2.6241,-1.02681 c 0,0 2.6241,-4.56366 6.04686,-6.84549 3.42273,-2.28183 2.85228,-0.91272 3.42273,-2.28183 0.57045,-1.36908 0.57045,-1.36908 0.57045,-1.36908 l 1.36911,-2.6241 1.82544,-1.59729 0.57048,-1.48317 4.79181,-0.57048 2.96637,-1.82544 4.56366,-1.14093 3.53682,-0.2283 2.73822,-4.22136 1.82544,-2.16774 3.19455,-1.82547 2.05365,-0.68454 0.79863,2.51001 0.45639,-1.71138 2.05362,-0.45636 2.6241,-0.2283 0,0.114 3.42276,-0.79863 4.90593,-0.114 5.08764,-0.67518 -2.28579,-2.45814 -2.09754,-3.22701 -1.37148,-2.50092 -0.32271,-4.67913 1.61352,-2.01687 2.74293,-4.7598 2.74293,-1.12944 4.19508,-1.9362 2.50092,-4.35642 1.9362,-7.01871 2.42025,-1.9362 3.22698,-1.53282 5.40522,0 4.67913,2.66226 2.90427,-1.8555 4.51779,-0.80676 4.67913,1.53282 3.06564,5.80857 0.64542,0.80676 -0.64542,2.17821 c 0,0 -1.53282,3.63036 -1.53282,3.95307 0,0.32271 0.80676,6.61533 0.80676,6.61533 l 3.87237,1.69416 2.74296,5.7279 6.13128,3.06564 2.17821,0.72609 1.04877,-1.04877 2.25888,-2.58159 2.50092,-1.53282 6.45399,0 3.87237,1.45212 2.82363,0.80676 2.74293,-0.56472 2.82363,-3.06564 3.14631,-2.66226 1.12944,-4.51779 0.9681,-0.9681 1.61349,3.71103 2.50092,1.12947 2.74293,3.14631 3.63039,1.29078 5.40519,-1.04877 3.30765,-3.30765 2.98497,-5.56656 0.9681,-3.46902 -0.88743,-4.35642 -6.45396,-1.85553 -2.98497,-2.58159 -1.45215,-3.7917 1.53282,-3.30768 0.9681,-3.06564 -0.9681,-2.01687 -5.96991,-6.21195 -5.8086,-5.64723 -2.90427,-6.05061 -1.69419,-2.33955 0,-4.67913 1.9362,-0.32271 2.42025,1.37148 3.46902,0.9681 2.58159,-1.12947 3.7917,-2.74293 0.9681,-3.95307 3.06564,-2.50092 1.37148,-2.58159 2.25888,-6.93801 0.40338,-5.08251 6.13128,-2.9043 1.37145,-3.63036 -0.2421,-4.03374 -4.11441,-1.61349 -6.13128,-2.8236 -1.29081,-1.12947 0.0807,-6.13125 1.77483,-4.8405 1.21011,-0.9681 -3.06564,-1.45215 -6.37329,-1.04877 -1.53282,-2.74293 -2.66226,-5.88927 -1.61349,-4.27575 -2.9043,-1.53282 -1.21011,-5.88924 -1.85553,-4.19511 -2.17821,0.0807 -2.25891,0.8874 -1.37145,0.56472 -1.37148,-0.2421 -3.14631,-3.38835 -3.14631,-2.90427 -2.98497,-3.06564 -1.77486,-0.56472 -1.29078,0.56472 -2.82363,3.30765 -1.53282,1.04877 -7.50273,1.85553 -1.53282,1.29078 -5.16318,-0.72606 -3.14631,-2.25888 -11.37516,-1.12947 -0.32268,-4.35642 0.88743,-2.17821 5.7279,-2.74296 -0.1614,-2.74293 -2.98494,-6.13128 -1.29081,-12.10122 -1.37148,-5.96991 -3.46899,-3.06564 -1.04877,-1.9362 0.56472,-3.06564 3.87237,-0.9681 8.6322,-3.30765 9.35826,-2.58159 12.66594,-1.85553 2.17821,-4.27575 1.29081,-4.67913 1.77483,-4.27578 2.9043,-2.74293 1.21011,-1.04877 2.74296,-0.48405 2.09754,1.12944 12.10119,3.38835 3.14631,1.04877 1.45215,-0.72609 0.1614,-2.42022 -0.40338,-6.05061 -1.29081,-2.9043 -1.37145,-1.77483 0,-3.8724 4.35642,-1.53282 c 0,0 4.19508,-2.66226 5.32452,-3.14631 1.12947,-0.48405 4.19511,-0.88743 4.19511,-0.88743 l 1.45212,-4.27575 -0.72606,-13.23066 -1.53282,-2.66226 -2.9043,-2.98497 -5.88924,-2.58159 -5.96994,-3.38832 -6.13128,-2.74296 -3.46899,-3.14631 -0.32271,-3.8724 0.72606,-2.42022 3.30768,-5.8086 0.80673,-5.96991 2.01687,-1.69416 12.10122,-1.29081 2.42025,-1.9362 5.80857,0 3.71103,1.85553 1.21014,1.21011 3.42867,0.32271 z m -145.3977,344.47428 2.25153,-1.63662 3.88551,-1.73082 2.14686,4.29369 -5.72361,1.23108 -2.45955,1.73475 -3.26673,-2.96583 3.16599,-0.92625 z m -219.99789,38.13834 13.59672,0 15.74358,0 4.29369,5.00931 7.15617,1.43124 7.15617,-1.43124 5.00934,-5.72493 6.44055,-2.86248 4.29369,2.86248 2.86248,4.29369 -4.29372,3.5781 -0.71562,4.29369 -2.86245,4.29369 -2.14686,7.15617 -3.57807,-1.43124 -5.72496,-4.29369 -7.15617,2.14686 -5.72493,0.71562 0,1.43121 -0.71562,4.29372 -3.57807,0 -5.00931,2.86245 -9.30303,2.14686 -2.14686,0.71562 -6.44055,0 -5.00931,0 -4.29369,-5.00931 -1.43124,-7.15617 0,-7.87179 3.57807,-11.44986 z m -188.57079,-252.69624 0,3.20553 c 0,0 -2.03988,0.87426 4.66257,0.58284 6.70248,-0.2913 6.70248,-0.2913 6.70248,-0.2913 l 6.41106,0.87423 0,4.6626 -0.87423,1.74846 -8.45094,1.45707 -2.03988,2.91411 -1.16565,2.62272 -4.6626,0 -1.74846,4.95399 -2.62272,8.15952 c 0,0 -1.74846,3.49695 0.2913,3.49695 2.03988,0 2.03988,0 2.03988,0 l 3.78837,2.3313 0.58281,3.49692 -0.58281,2.62272 -4.07976,0 -2.03991,-3.78837 -3.78834,-1.74846 -2.03988,-4.37118 -5.82822,0.58284 -2.62272,1.45704 0,5.82825 -2.03988,1.16565 -4.6626,-2.03991 c 0,0 -0.87423,-0.87423 -1.16562,-2.91411 -0.2913,-2.03988 -0.2913,-2.03988 -0.2913,-2.03988 l 0.87423,-5.24541 3.49695,-2.03988 4.07976,0 3.20553,-1.74846 c 0,0 0.87423,5.82822 2.3313,-2.03988 1.45704,-7.86813 1.74846,-7.86813 1.74846,-7.86813 l 2.3313,-3.78834 0.2913,-10.49082 4.07976,-1.16565 3.78837,-2.62272 0,2.03976 z m -98.30001,32.38344 10.4247,0.2607 11.35473,1.89246 4.71942,0.78657 8.03709,2.67903 6.69759,3.34881 4.01853,10.71609 0,6.02784 2.00928,6.02781 2.18313,5.64948 -0.1017,3.95493 3.49695,2.91414 -1.74846,0.87423 -1.16565,3.20553 -7.86813,1.45704 0,2.91414 1.45707,1.16562 0.87423,3.49695 -2.62269,2.91411 -2.91414,-1.74846 -2.62269,-3.49695 -4.6626,-1.45704 -8.15952,1.45704 -3.49695,2.3313 -1.45704,2.62272 -1.16565,2.33127 -1.45707,2.62272 -4.37118,0.87423 -6.99387,-0.58281 -6.70248,-2.91414 -3.78834,-2.91411 -2.03988,0.87423 -0.58281,1.74849 -6.9939,2.33127 -1.45704,1.45707 -2.91414,0.58284 -1.74846,-2.3313 -2.03988,-1.16565 -3.20553,0.2913 -5.24541,3.20553 -2.91411,2.91411 -2.03988,-1.16565 -11.36505,-6.99387 -4.07979,-0.58284 -1.45704,-5.82822 -4.6626,-2.03988 -0.87423,-2.3313 3.20553,-3.20553 5.82822,-1.16565 0.87426,-7.28529 -1.74849,-4.95399 -2.03988,-7.86813 2.03988,-7.28529 3.78837,-4.95399 2.62269,-6.9939 2.03988,-3.20553 -0.58281,-2.62269 -5.82825,-2.03988 -2.33127,-3.78837 -0.87426,-2.33127 2.91414,-2.62272 3.78834,-0.58281 2.91411,-2.62272 2.03988,-0.2913 0.2913,3.20553 1.74846,4.07979 1.45707,1.45704 2.03988,-4.37118 4.37118,-0.2913 3.78834,1.16562 0.58284,5.24541 5.24541,0 4.37118,1.74849 3.78834,2.62269 4.07976,2.03988 4.07976,-2.03988 5.15115,-1.42032 z"
       id="path3667"
       style="color:#ffffff;fill:#e45c36;fill-opacity:1;stroke:#ffffff;stroke-width:1.5;stroke-linecap:butt;stroke-linejoin:round;stroke-miterlimit:4;stroke-opacity:1;stroke-dasharray:none;stroke-dashoffset:0;marker:none;visibility:visible;display:inline;overflow:visible;enable-background:accumulate" />
  </g>
  <g
     transform="translate(552.37684,617.28945)"
     id="layer7"
     style="display:inline">
    <path
       d="m 614.25962,945.33684 2.21688,0.2217 0.44337,4.65543 -2.43855,1.55181 -0.88677,-2.88192 0.66507,-3.54702 z m -445.37907,-434.52186 -2.58159,-2.58159 -2.09754,-3.22701 -1.37148,-2.50092 -0.32271,-4.67913 1.61352,-2.01687 2.74293,-4.7598 2.74293,-1.12944 4.19508,-1.9362 2.50092,-4.35642 1.9362,-7.01871 2.42025,-1.9362 3.22698,-1.53282 5.40522,0 4.67913,2.66226 2.90427,-1.8555 4.51779,-0.80676 4.67913,1.53282 3.06564,5.80857 0.64542,0.80676 -0.64542,2.17821 c 0,0 -1.53282,3.63036 -1.53282,3.95307 0,0.32271 0.80676,6.61533 0.80676,6.61533 l 3.87237,1.69416 2.74296,5.7279 6.13128,3.06564 2.17821,0.72609 1.04877,-1.04877 2.25888,-2.58159 2.50092,-1.53282 6.45399,0 3.87237,1.45212 2.82363,0.80676 2.74293,-0.56472 2.82363,-3.06564 3.14631,-2.66226 1.12944,-4.51779 0.9681,-0.9681 1.61349,3.71103 2.50092,1.12947 2.74293,3.14631 3.63039,1.29078 5.40519,-1.04877 3.30765,-3.30765 2.98497,-5.56656 0.9681,-3.46902 -0.88743,-4.35642 -6.45396,-1.85553 -2.98497,-2.58159 -1.45215,-3.7917 1.53282,-3.30768 0.9681,-3.06564 -0.9681,-2.01687 -5.96991,-6.21195 -5.8086,-5.64723 -2.90427,-6.05061 -1.69419,-2.33955 0,-4.67913 1.9362,-0.32271 2.42025,1.37148 3.46902,0.9681 2.58159,-1.12947 3.7917,-2.74293 0.9681,-3.95307 3.06564,-2.50092 1.37148,-2.58159 2.25888,-6.93801 0.40338,-5.08251 6.13128,-2.9043 1.37145,-3.63036 -0.2421,-4.03374 -4.11441,-1.61349 -6.13128,-2.8236 -1.29081,-1.12947 0.0807,-6.13125 1.77483,-4.8405 1.21011,-0.9681 -3.06564,-1.45215 -6.37329,-1.04877 -1.53282,-2.74293 -2.66226,-5.88927 -1.61349,-4.27575 -2.9043,-1.53282 -1.21011,-5.88924 -1.85553,-4.19511 -2.17821,0.0807 -2.25891,0.8874 -1.37145,0.56472 -1.37148,-0.2421 -3.14631,-3.38835 -3.14631,-2.90427 -2.98497,-3.06564 -1.77486,-0.56472 -1.29078,0.56472 -2.82363,3.30765 -1.53282,1.04877 -7.50273,1.85553 -1.53282,1.29078 -5.16318,-0.72606 -3.14631,-2.25888 -11.37516,-1.12947 -0.32268,-4.35642 0.88743,-2.17821 5.7279,-2.74296 -0.1614,-2.74293 -2.98494,-6.13128 -1.29081,-12.10122 -1.37148,-5.96991 -3.46899,-3.06564 -1.04877,-1.9362 0.56472,-3.06564 3.87237,-0.9681 8.6322,-3.30765 9.35826,-2.58159 12.66594,-1.85553 2.17821,-4.27575 1.29081,-4.67913 1.77483,-4.27578 2.9043,-2.74293 1.21011,-1.04877 2.74296,-0.48405 2.09754,1.12944 12.10119,3.38835 3.14631,1.04877 1.45215,-0.72609 0.1614,-2.42022 -0.40338,-6.05061 -1.29081,-2.9043 -1.37145,-1.77483 0,-3.8724 4.35642,-1.53282 c 0,0 4.19508,-2.66226 5.32452,-3.14631 1.12947,-0.48405 4.19511,-0.88743 4.19511,-0.88743 l 1.45212,-4.27575 -0.72606,-13.23066 -1.53282,-2.66226 -2.9043,-2.98497 -5.88924,-2.58159 -5.96994,-3.38832 -6.13128,-2.74296 -3.46899,-3.14631 -0.32271,-3.8724 0.72606,-2.42022 3.30768,-5.8086 0.80673,-5.96991 2.01687,-1.69416 12.10122,-1.29081 2.42025,-1.9362 5.80857,0 3.71103,1.85553 1.21014,1.21011 3.83436,0.43167 5.24253,-0.1029 13.30128,1.66266 12.30366,5.98557 5.87472,2.99277 8.86752,3.21447 3.54702,1.44099 1.10844,8.53497 7.31568,1.66266 2.21688,1.99518 10.08681,0.55422 1.77348,-1.55181 -2.10603,-0.66507 -0.55422,-7.09401 0.88677,-1.66266 3.43614,-6.53979 5.3205,-5.76387 3.32532,-4.76628 5.5422,1.33011 6.31812,2.9928 1.66266,1.33011 1.21926,-0.99759 8.42415,-1.88433 15.96153,-1.55181 4.32291,-1.44099 1.33011,4.65546 6.42894,5.98557 0.99762,7.09401 -4.54461,1.88433 -3.10362,0.66507 -2.10606,1.33014 2.7711,4.32291 2.43858,2.3277 2.99277,9.20004 5.98557,6.09642 c 0,0 4.54461,1.55181 8.97837,1.55181 4.43376,0 5.65305,-1.33011 6.53979,-1.33011 0.88674,0 6.42894,-1.88436 7.20486,-1.88436 0.77589,0 10.75185,1.77351 10.75185,1.77351 l 11.63862,3.32532 2.66025,0.99759 0.99759,-1.44096 4.76628,-2.7711 2.7711,-2.66025 2.32773,-1.77351 9.42174,0.33252 1.33011,3.87954 c 0,0 2.32788,2.54943 2.43858,2.9928 0.111,0.44337 6.42894,3.54699 6.42894,3.54699 l 5.98557,2.43858 1.21929,1.44096 4.43376,-0.99759 4.32291,-2.88195 2.7711,-2.3277 2.3277,-3.54702 c 0,0 5.43135,-1.66266 5.98557,-1.66266 0.55422,0 6.09642,1.10844 6.09642,1.10844 l 8.3133,2.32773 2.10603,2.32773 2.9928,-2.21688 4.10121,-2.21688 12.19284,-5.65305 2.88192,-2.99277 6.31812,-3.54702 11.97114,-2.7711 1.99518,-2.21688 2.5494,0.1107 0.1107,12.41451 3.76869,1.66266 6.87234,2.88195 12.08199,5.87472 c 0,0 2.21688,4.54461 2.21688,5.09883 0,0.55419 1.77348,0.77589 2.66025,0.77589 0.88674,0 3.32532,-3.54699 3.32532,-3.54699 l 16.07235,-0.55422 1.66266,3.10362 9.08919,0 3.99039,-1.99518 4.21206,-4.10124 3.21447,0.4434 2.10606,2.5494 1.66263,7.53738 c 0,0 11.52777,2.88195 12.30369,2.88195 0.77589,0 4.54461,1.21929 4.54461,1.21929 l 0,2.99277 4.43373,0.2217 3.10365,-4.32291 1.99518,-4.43376 4.43376,-0.99759 3.10362,-2.21688 5.43135,1.44096 12.19284,6.09642 17.95671,2.7711 17.18079,3.10362 9.97596,3.10362 20.39529,2.88195 21.28203,3.10362 4.10121,1.55181 2.54943,4.87716 2.43855,8.42412 2.43858,11.97114 3.43614,6.31812 4.65546,1.99518 0.77589,9.53256 3.32532,6.65064 6.42894,5.7639 5.7639,2.66025 2.10603,4.43376 2.66025,0 c 0,0 1.55181,-2.43858 2.32773,-2.66028 0.77589,-0.2217 2.21688,-1.44096 2.21688,-1.44096 l 14.74224,-2.99277 6.65064,-2.21688 2.10603,-3.87954 c 0,0 5.76387,-2.7711 6.65061,-2.9928 0.88677,-0.2217 17.62419,-2.88192 17.62419,-2.88192 l 5.5422,-1.44099 1.99518,1.77351 2.9928,0.77592 4.65543,-1.10844 3.76869,-2.32773 -0.77589,-3.76869 -2.9928,-5.7639 -4.21206,-6.98316 -0.33252,-1.33011 2.21688,-1.77351 1.33011,-7.09401 -1.88433,-7.09401 -1.77351,-4.54461 -3.54702,-2.66025 0.2217,-22.16877 1.77351,-6.53979 5.98557,-11.97114 2.43855,-5.09883 3.65787,-0.88674 6.09639,-3.10365 2.9928,-2.7711 6.20724,-6.20724 c 0,0 5.5422,-1.66266 5.98557,-2.10603 0.4434,-0.4434 2.66028,-16.4049 2.66028,-16.4049 l 2.7711,-20.28444 3.21447,-6.31809 2.99277,-6.20727 2.43858,-4.10124 c 0,0 14.63139,0 15.40728,0 0.77592,0 9.08922,1.33014 9.08922,1.33014 l 5.29278,4.65543 7.86993,-0.1386 2.50971,2.04087 9.79731,1.01892 1.64595,4.31082 4.07572,2.35134 1.881,3.99729 6.0352,5.80002 3.0567,2.97837 4.3109,1.25406 4.7027,-1.17567 2.7432,-1.72431 1.3325,1.88106 2.4297,1.25406 0.7054,5.87838 -4.2325,1.25406 -6.1135,6.50541 -1.6459,2.19462 0.627,1.88106 3.8405,1.56759 5.7217,2.27298 3.527,-2.11623 2.7432,-2.11623 4.2325,0.62703 1.3324,3.99732 -4.0757,1.17567 -1.4108,5.48649 -1.6459,6.42702 1.6459,8.46489 6.2703,6.27027 1.7243,2.11623 2.1162,1.56756 -0.7053,1.25406 -3.3703,0.94053 -2.1946,4.07568 -1.8811,0.78381 -1.4892,10.81623 -1.5676,1.09728 1.4108,6.81894 0.5487,12.77568 3.2135,1.56756 1.0189,16.69464 4.2325,2.1162 2.8216,3.05676 14.8135,3.2919 3.2135,2.90001 3.919,1.95945 1.0973,3.84054 6.9756,6.03516 5.8784,6.11352 2.9784,5.79999 6.1919,3.13515 9.0919,3.05676 11.8352,5.80002 1.7243,4.15404 7.2108,1.95948 c 0,0 5.7216,3.2919 6.0352,3.2919 0.3135,0 5.5648,0.86214 5.5648,0.86214 l 6.2703,-1.09728 2.4298,-1.72434 1.7243,0.70542 1.6459,2.42973 1.646,0.62703 1.0189,8.22972 10.4243,0 0.3135,-2.82162 1.1757,0.94056 2.1946,2.1162 -1.3324,4.46757 -2.8217,11.44326 -6.5838,6.97569 c 0,0 -4.3891,1.64595 -5.0946,2.50812 -0.7053,0.86217 -3.7621,3.37026 -3.7621,3.37026 l -5.3297,2.66487 -7.2109,1.8027 -2.0378,13.32435 -3.3703,6.03513 -2.9784,2.82165 -3.1351,9.24864 -1.2541,3.2919 -2.9,3.44865 0.9406,1.4892 1.5676,1.64595 7.6027,1.8027 6.3486,2.97837 2.9,6.34866 5.8784,5.80002 1.6459,0.70539 1.4892,-0.78378 4.8595,-1.72431 4.3892,2.03784 1.9595,3.37026 1.8811,1.56756 1.4108,1.80273 11.5216,0.39189 1.8811,-2.27298 1.8027,0.78378 3.9189,1.17567 2.7433,5.0946 1.8811,2.50812 2.8999,1.33242 -0.627,0.78381 -3.2919,2.1162 0.9406,3.21351 4.154,1.80273 4.3109,1.48917 3.0567,-3.05676 7.1325,1.33245 3.2135,3.2919 0.8621,1.25406 -0.8621,1.72431 -2.9,3.05676 -2.9784,6.03516 -1.4108,2.74323 1.1756,3.37029 3.1352,5.95674 3.2919,3.21354 2.9,5.72163 0.7838,2.58648 -1.5676,2.58648 0.3919,3.76218 6.3486,3.05676 1.5676,1.64595 -1.8027,4.46757 -2.9,5.72163 -1.1757,3.21351 1.0189,2.97837 3.2136,3.05676 6.0351,3.21354 2.8216,2.66487 0.7838,1.41081 -0.7838,1.41081 -6.1919,5.87838 -4.3108,2.11623 -0.3135,2.03784 -2.5865,0.70539 -0.3135,1.88109 1.9594,2.58648 3.0568,3.05676 2.8217,8.77839 6.1918,5.95677 5.8784,3.13515 15.0487,2.89998 5.7216,2.9784 3.3703,3.44865 2.6649,11.75676 2.8216,5.95677 6.427,6.19191 3.0568,5.87838 0.627,2.27298 -2.5865,1.48917 0.1569,1.33245 4.6243,0.94053 5.9568,2.82162 3.0568,3.05679 12.0703,6.19188 12.227,2.66487 5.4081,6.03516 4.546,1.88106 1.7243,4.23246 5.0946,1.8027 0.2352,2.03784 6.3486,2.19459 6.3487,11.9919 2.5865,2.90001 3.1351,6.19191 3.6838,1.17567 2.5081,-1.33245 3.2919,-3.05676 c 0,0 3.1351,-1.64595 3.527,-1.64595 0.3919,0 3.9974,0.70542 3.9974,0.70542 l 1.1756,3.84054 8.9352,3.21351 12.0703,6.19191 6.0351,5.64324 3.2919,3.44865 1.4108,5.64327 -1.7243,9.09189 -1.8811,8.15136 1.7243,9.71895 3.2919,18.26217 6.1135,5.87838 2.8217,3.2919 4.3108,1.64595 1.6459,4.15407 6.0352,6.03513 2.9,8.93514 6.1135,5.87841 3.0568,3.13512 4.4675,1.4892 0.6271,2.27298 3.6054,1.95945 2.4297,1.17567 3.6838,-0.94053 4.3108,-1.25406 4.8595,1.01892 8.7,2.90001 12.0703,6.27027 9.0135,2.90001 4.1541,1.56756 2.1162,4.62435 2.0378,3.9189 3.9973,2.11623 1.4892,2.19459 2.4297,2.27298 0.4703,3.2919 -4.2324,1.01892 -2.6649,2.58648 0.3135,10.50273 1.9595,4.93785 2.9,3.13512 0.8621,2.11623 -0.7054,0.86217 -6.0351,6.42702 -2.8216,2.50812 -4.3109,1.88109 -1.1756,5.87838 2.4297,7.52433 2.8216,5.48649 3.2136,3.37026 0.8621,2.74326 -1.1757,3.21351 -1.4108,3.37029 -13.4811,2.50809 -9.0135,2.9784 -2.8216,6.19191 -6.2703,5.95674 -5.7216,5.87841 -17.9487,3.05676 -1.646,10.89459 -1.4108,7.36758 -6.1135,2.90001 -6.1135,3.05676 -3.0568,2.90001 -0.7054,2.42973 1.0189,3.68379 3.0568,6.11352 0.8622,2.66487 -3.9973,2.97837 -2.9784,2.90001 -4.8595,2.273 0,1.4108 -2.3513,1.254 1.0973,7.1325 2.9784,6.427 3.2135,2.8216 1.4108,7.2109 2.9783,0.7837 0,5.0946 -3.0567,1.8027 -1.646,8.8568 -0.8621,4.8595 1.1757,7.2892 0.3135,3.7621 -0.5487,2.3514 -2.9,6.1919 -2.9,5.5649 -3.2135,3.2135 -2.9,8.9351 -3.0568,6.1135 -2.8216,5.7217 -6.1135,6.0351 -9.327,3.2135 -8.9352,0.3919 -2.6649,2.6649 -2.5081,1.1757 2.273,1.254 6.2703,0.3919 5.4865,2.9 6.427,3.1352 2.9,6.0351 2.9784,8.8568 1.0973,2.6648 -0.8622,1.8027 -3.2135,1.4892 -3.9973,1.3325 -2.0378,4.5459 -6.1919,2.9784 -8.9352,3.1351 -4.4676,4.0757 -2.9783,0.3135 -1.4108,-1.5675 -6.0352,-6.1919 -5.7216,-5.3298 -3.3703,-3.4486 -0.7054,-3.9973 0.7054,-5.0162 2.7433,-2.6649 2.6648,-3.9973 -2.6648,-2.4297 -2.1946,-2.273 -2.1946,-1.8027 -2.4298,0 -0.7054,4.4676 -2.0378,2.3513 -0.8622,1.5676 -4.2324,0.8621 -2.4298,-4.5459 -3.2135,-0.4703 -18.5757,-2.8216 -15.6035,-1.2404 -10.4193,1.5519 -11.9711,2.8819 -6.6507,3.547 -17.735,2.4386 -8.4241,2.2169 -3.1037,3.9903 -7.3157,2.4386 -1.7735,2.4386 -3.1036,6.4289 -6.2073,6.6507 -3.547,5.7638 -3.3253,8.8675 0.4434,7.5374 -2.4386,0.6651 -2.4385,-3.3253 -4.2121,1.1084 -5.7639,2.6603 -6.2072,3.7687 -3.7687,1.5518 -2.882,7.3157 -5.0988,5.7638 -3.3253,6.2073 -5.5422,5.3205 -7.094,12.4145 -2.6603,3.547 -2.4385,11.7495 -6.2073,5.5422 -1.9952,0.6651 -1.1084,0 c 0,0 -1.3302,-1.7736 -2.2169,-1.9952 -0.8868,-0.2217 -4.2121,-2.6603 -4.2121,-2.6603 l -9.5326,-1.7735 -10.1976,-2.8819 -9.0892,-2.2169 -11.7495,1.7735 -5.5422,3.1036 -2.2168,1.9952 -2.2169,-0.665 -6.429,-3.9904 -11.0844,-6.2073 -6.8723,-6.4289 -1.7735,-3.9904 -1.3301,-0.8868 -0.4434,-1.3301 -3.1036,-1.5518 -1.1084,-3.7687 -3.547,-3.7687 -2.2169,-3.1036 -1.7735,-1.3302 -1.5518,-2.8819 -10.1977,0.4434 -1.9952,1.5518 -7.094,3.1036 -1.9952,1.9952 -1.5518,2.4386 -2.2169,0.8867 -1.7735,2.2169 -21.0603,-0.4434 -2.21688,-1.9952 1.99518,-8.4241 2.88195,-1.3301 1.55181,2.2169 5.76394,0.8867 1.9951,-1.9952 3.7687,-1.7735 0,-10.641 -2.4385,-1.5518 -1.9952,-7.3157 -2.6603,-11.0844 -5.32048,-11.3061 -4.43376,-7.5374 -8.20245,-8.2024 -1.99518,-4.6555 -4.87713,-1.5518 -5.09883,-2.6602 -9.31089,-3.3253 -5.98557,-6.2073 -5.5422,-2.4386 -5.98557,-5.5422 -3.99039,-7.3156 -5.0988,-5.0989 -6.65064,-6.8723 -2.21688,-3.1036 -4.21206,-1.7735 -3.32532,-1.9952 -22.16877,-1.3301 -7.09401,-7.094 -1.99521,-5.0989 -6.42894,-6.6506 -6.42894,-5.3205 -5.98557,-6.6507 -2.88195,-5.3205 -4.65543,-2.2168 -0.88677,-2.2169 -3.32532,-1.3301 -3.54699,-6.8724 -5.3205,-1.9951 -2.43858,-3.3254 -7.09401,-3.1036 -9.53256,-1.5518 -5.09883,1.3301 -6.20727,3.3253 -10.41933,0.4434 -7.31568,1.7735 -6.65064,6.429 -2.66025,3.547 -7.09401,1.1084 -4.87713,-1.5518 -3.76869,-3.3253 -4.65546,-1.3302 -4.43376,-0.2217 -1.55181,3.1037 -3.99036,0 -2.43858,-0.8868 -4.21206,-1.9952 -1.55181,-4.4337 -6.87234,-3.3253 -2.43855,-2.882 -1.10844,-7.5374 -5.7639,-1.7735 -2.43855,-5.7638 -2.43858,-5.5422 -2.88192,-3.547 -3.54702,-5.09886 -7.53738,-2.21688 -0.66507,-5.76387 -2.21688,-1.77351 -1.10844,-2.66025 -4.43376,-1.55181 -0.88674,-2.66025 -21.50373,-1.55184 -7.09401,-6.42894 -2.66025,-1.33011 -5.76387,-4.87713 -9.75426,-1.55184 -6.65064,0 -0.66507,6.20727 -6.65064,-1.33014 -11.52774,-5.76387 -3.54702,-2.88195 -6.87231,-3.76869 -2.21688,-9.08919 -1.10844,-1.33014 -0.88677,-5.54217 1.33014,-1.77351 3.32532,-3.10365 6.65064,-2.66025 4.87713,-6.42894 7.09401,-2.43855 3.76869,-1.10844 1.99518,-4.87713 2.88195,-4.21209 3.32532,-8.86749 0.66507,-18.84348 0,-13.07958 -3.76872,-12.19281 -3.32529,-3.76872 -1.10844,-3.54699 0.66504,-4.65546 2.21688,-15.9615 7.53738,-0.66507 1.10844,-1.99518 4.43376,-1.10844 3.99039,-2.43858 5.76387,-0.2217 1.10844,-2.88195 1.99521,-0.66507 2.43855,-7.53738 2.66025,-1.77351 1.55181,-2.21688 3.32532,-3.99036 1.10844,1.77348 -2.43855,3.32532 1.55181,0.88677 2.21688,-1.10844 5.5422,-2.88195 3.32532,-1.10844 2.43855,-3.76869 1.55181,-21.50373 -0.66504,-13.30125 -1.99521,-1.33014 -2.21688,-10.41933 -1.55181,-2.21688 -0.88674,-4.21206 -1.55181,-0.66507 -2.66028,-3.76869 -4.87713,-15.07476 -6.20724,-11.52777 -5.98557,-12.19284 -2.88195,-6.20724 -3.54699,-2.88195 -2.66028,-6.20727 -2.88192,-2.66025 -3.32532,-6.87231 -3.10362,-2.43858 -1.55184,-4.43376 -2.43855,-0.66504 -1.77351,-4.43376 -2.88195,-2.21688 -5.54217,-12.41451 -3.32532,-2.88195 -2.21688,-6.20727 -3.99039,-2.88192 -2.66025,-8.86752 -3.10362,-7.09401 -2.43858,-3.32532 -2.66025,-1.10844 -1.33014,-3.76869 -2.88192,-8.86752 -2.66025,-5.5422 -3.54702,-8.86749 -5.5422,-11.97114 -1.99518,-5.5422 -4.43376,-3.99039 -5.98557,-12.41451 -3.32532,-2.66025 -2.88195,-5.7639 c 0,0 -1.10844,-2.88192 -1.99518,-3.10362 -0.88674,-0.2217 -3.54699,-8.42415 -3.54699,-8.42415 l -6.20727,-7.53738 -2.43858,-5.3205 -3.32529,-2.21688 -2.66028,-5.98557 -5.98557,-7.09401 -3.10362,-5.3205 -6.87231,-5.7639 -2.66025,-3.99036 -2.66028,-5.3205 -6.20724,-3.10365 -2.66025,-5.3205 c 0,0 -5.32053,-2.66025 -6.42894,-6.65064 -1.10844,-3.99039 -5.7639,-5.5422 -5.7639,-5.5422 l -6.20727,-6.87231 -6.20724,-5.5422 -3.10362,-2.88195 -1.33014,-3.76869 -4.87713,-3.10362 -5.3205,-6.20727 -6.65064,-1.99518 -5.3205,-6.20727 -6.42897,-6.65061 -11.97114,-5.98557 -2.43855,-2.21688 -11.97114,-5.5422 -7.53738,-3.10362 -4.65546,2.43855 0,3.32532 2.88195,1.55181 -1.77351,1.77354 -3.76869,-1.33014 -2.21688,-3.54699 -0.88674,-2.66025 -3.32532,0.44337 -2.66025,6.65064 -0.44337,5.98557 -2.66028,0 -1.33011,-3.76869 -3.54702,-0.4434 -1.33011,2.43858 -5.3205,1.77351 -9.31089,2.43855 -3.32532,10.19766 -3.10365,5.3205 -3.76869,3.10362 -1.99518,6.42894 -3.76869,3.99039 -2.21688,7.75908 -3.32532,6.20724 -6.65064,1.10844 -14.18802,-1.33011 c 0,0 -5.3205,-2.43858 -6.20724,-3.10365 -0.88677,-0.66504 -2.88195,-2.88192 -2.88195,-2.88192 l -9.08919,-3.76869 -5.7639,-2.66025 -13.30125,-1.10844 -10.41933,1.10844 -3.76869,3.32529 -2.21688,5.98557 -4.21209,3.32532 -1.33011,3.99039 -6.42894,1.33014 -6.87234,5.98557 -6.20724,3.10362 -5.7639,5.76387 -2.43855,3.10365 -3.32532,9.53256 -2.43858,3.76869 -2.21688,0.66507 -2.88192,-6.20727 -10.8627,1.55184 -8.64585,3.10362 -8.64582,2.88195 -6.20724,2.88192 -3.10365,1.33014 -5.3205,-0.66507 -4.43376,-3.10362 -2.66025,-6.20727 -3.10362,-3.10362 -11.30607,-6.42894 -11.74947,-1.55184 -9.31089,2.21688 -5.76387,5.7639 -4.44204,3.08985 z"
       id="path3619"
       style="color:#ffffff;fill:#e45c36;fill-opacity:1;stroke:#ffffff;stroke-width:1.5;stroke-linecap:butt;stroke-linejoin:round;stroke-miterlimit:4;stroke-opacity:1;stroke-dasharray:none;stroke-dashoffset:0;marker:none;visibility:visible;display:inline;overflow:visible;enable-background:accumulate" />
  </g>
  <g
     transform="translate(552.37684,617.28945)"
     id="layer6"
     style="display:inline">
    <path
       d="m 349.6943,-17.560231 1.36908,-4.90593 1.71138,-3.99318 0.91272,-1.25502 2.16774,1.36911 3.19455,6.04683 2.96637,2.85228 3.08046,3.42273 3.42276,5.9327705 0.79863,1.25499 -1.1409,1.36908 -1.4832,2.05365 1.4832,1.02684 2.6241,3.19455 3.42273,2.6241 1.02681,1.71135 -1.02681,1.36911 -3.08046,9.2413795 -3.08046,8.78505 -3.42276,6.27501 -2.73819,2.85228 -2.96637,5.93274 -0.79863,4.1073 -1.59729,2.85228 -3.53682,-1.02681 -6.61731,-2.9664 -2.39589,-1.48317 -1.82547,-15.7446 1.93956,-15.5164195 1.1409,-6.84546 0,-2.85228 -1.59729,-1.71138 -2.85228,-3.87912 -0.57045,-4.10727 1.14093,-1.3691105 1.36908,-1.82544 4.33548,-1.71138 1.71135,-2.05365 0.91275,-1.02681 z m -69.48039,232.327141 -2.01921,-4.30407 -3.71103,-6.45399 -2.58159,-2.42022 -2.74296,-5.96994 -2.90427,-3.06564 -2.9043,-5.80857 -2.25888,-2.74296 -4.19511,-3.54966 -2.90427,-5.64723 -3.06564,-4.03374 -8.71287,-2.42025 -6.13128,0.80676 -2.74293,-1.45215 4.03371,-2.09754 2.74296,-1.77486 3.06564,-2.09754 2.58159,-4.51779 2.42022,-6.45396 1.77486,-4.35645 -1.12944,-6.45396 -1.61349,-1.9362 -0.32271,-1.29081 4.51779,-1.45215 8.5515,-2.58159 2.09754,-0.96807 3.54969,-0.1614 2.25891,2.25891 2.58159,-0.32271 1.9362,-1.61349 1.45212,0 2.9043,1.77483 1.9362,0.64542 1.45215,2.42022 2.09754,0.1614 2.09754,-1.29081 6.61533,-1.45215 5.00184,-0.80673 4.84047,-1.12947 10.00365,0 4.51779,1.12947 1.45215,3.71103 3.22698,1.12944 4.35645,1.77486 8.39016,0.1614 5.48589,-1.29081 0.48405,-1.77483 -0.32271,-1.29081 -2.90427,-5.96991 -1.12947,-3.22701 -1.29078,-1.77483 -2.74293,0.48405 -2.74296,2.09754 -18.07113,0 -10.52805,0.80676 c 0,0 -3.95316,2.29923 -4.15476,2.29923 -0.2016,0 -3.7917,0.84708 -3.91272,0.72606 l -2.70261,-4.63881 1.61352,-3.22698 2.58159,-0.9681 -2.25891,-1.93617 -2.58159,-2.58162 -1.29078,-3.22698 -1.9362,-5.16318 -10.64907,0.64539 -9.68097,-1.29078 -7.74477,-2.58159 -2.9043,-6.13128 0,-11.294461 -1.93617,-7.09938 -1.61349,-8.39016 -1.29081,-1.61349 -1.61349,-6.7767 -0.32271,-11.29446 1.29081,-5.48586 2.58159,-4.8405 -1.61349,-6.13128 -2.25891,-10.32636 -4.19508,-2.25888 -2.25888,-8.71287 -4.35645,-6.4539895 -5.13291,-5.23377 2.30931,-6.78675 2.98497,-5.92959 3.02529,-2.9446495 6.09093,-3.14631 3.22977,-5.79294 2.85228,-1.25502 3.19455,-16.77141 2.96637,-3.08046 0,-1.71138 -0.45636,-1.25499 -0.91272,-1.25502 -0.114,-5.2482 3.19455,-1.1409 2.6241,2.624099 1.48317,0.79863 0.79866,6.503221 0.57045,-0.45636 1.82544,-2.85231 8.44278,0.912749 9.69774,3.30864 8.32866,2.6241 6.38913,3.42273 0.57045,0.68457 2.05365,0.57045 3.30864,-4.33548 6.16092,-3.19455 2.6241,-3.53682 2.73819,-1.02684 2.16774,-5.47638 2.28183,-0.912719 1.1409,-2.053651 12.77823,1.36911 8.55684,1.1409 4.56366,-0.68454 1.36911,-2.96637 9.12729,-1.026839 3.19455,-5.590471 1.02684,-1.02681 1.93953,0.79863 6.16095,5.70456 5.70456,6.38913 6.04683,5.47638 1.59729,7.53003 2.05362,10.83867 5.93277,12.32184 3.08046,6.1609505 6.04683,2.39589 5.47638,6.16095 3.87912,1.36908 2.2818,-1.36908 9.01323,-1.4832 2.85228,-1.36908 6.16092,-2.96637 0.68454,-1.14093 -0.45636,-2.05365 -3.08046,-2.7381905 -3.42273,-3.53682 0,-2.96637 3.08046,-11.6373 1.82547,-11.18097 -1.71138,-9.92592 -1.02681,-1.93956 0.114,-5.36229 5.2482,-0.45636 1.82544,1.71135 9.12732,3.42276 1.82544,0.68454 1.82547,0 0.91272,-7.98639 -2.6241,-2.39592 -0.114,-1.59729 1.4832,-0.79863 2.16774,-1.82547 7.41594,-1.02681 1.36908,2.51001 0.57045,6.27501 1.71138,5.47638 -1.14093,4.1073 -2.39589,1.71138 1.48317,3.19455 3.30864,3.53682 1.02684,0.68454 2.05365,-0.68454 1.25499,-2.16774 1.4832,1.02684 0.34227,1.02681 11.6373,2.96637 4.1073,1.14093 2.05362,-1.02684 5.93277,-6.27501 6.27501,-6.27504 0.57045,-3.765 2.85228,-1.02681 2.39592,1.82544 5.13411,1.59729 3.765,-1.25499 1.82547,-8.2146 1.36911,-2.16771 1.1409,-2.28183 0.57045,-3.42276 7.53003,-2.05362 5.02002,-2.6241 3.42273,-2.96637 6.61731,-3.08049 6.73137,-1.71135 4.90593,-1.14093 5.93274,-3.08046 3.30867,-3.30864 3.53682,-0.91272 1.1409,-9.241409 1.4832,-0.57045 2.51001,-4.56366 6.3891,-1.59726 7.8723,1.93953 2.28183,0.91275 2.28183,0 2.28183,-6.7314 8.78502,-2.73819 9.24138,-3.30864 6.04686,-2.96637 5.93274,-5.93274 3.19455,-3.30867 2.85228,-5.70456 5.70456,-5.81865 5.47638,-6.50319 4.22139,-3.08046 5.70456,-2.6241 0.57045,-2.28183 -0.91272,-1.02684 -2.51001,-5.70456 -2.96637,-5.93274 -1.59729,-1.4832 -1.71135,0.91275 -1.36911,1.36908 -1.48317,-0.79863 -1.59729,-2.51001 -2.39592,-2.05365 -0.79863,-2.96637 -1.71138,-2.05365 -1.25499,-3.99318 0.2283,-5.70456 3.30864,-0.91275 1.71138,-0.57045 -0.68457,-3.42273 -3.30864,-1.14093 -12.55005,-0.79863 -7.07364,0 -7.64412,1.93956 -0.68454,2.28183 -1.82547,1.36908 -3.765,0.2283 -0.79866,-4.44954 1.71138,-11.75142 1.25499,-10.38231 -0.34227,-4.9059 -2.73819,-3.08049 0.79866,-1.36908 4.22136,-4.22139 5.59047,-2.85228 2.73819,-3.08046 1.25502,-2.05365 1.71135,-5.47638 3.53685,-1.25499 2.85228,-4.67775 3.30864,-1.1409 2.39592,-3.08049 2.28183,-1.25499 2.05362,-2.28183 3.76503,-1.02681 0.79863,-10.04004 0.79863,-2.05365 -0.79863,-1.48317 -2.6241,-15.06006 -5.70456,-5.47638 -3.42273,-3.65091 -3.65094,-0.91275 -2.39589,-3.53682 -0.91275,-0.34227 -1.82544,-18.82506 -2.51001,-8.67093 c 0,0 -1.59729,-2.05366 -1.59729,-2.8523 0,-0.79863 -0.45636,-11.29503 -0.45636,-11.29503 l 2.51001,-1.48319 1.36908,-3.99319 16.88553,-1.14092 5.2482,1.82546 2.73819,3.87911 6.27501,2.6241 3.08046,1.48318 5.93274,-0.22818 1.93956,-2.96637 11.18094,-0.22818 4.22139,1.93955 3.53682,2.73819 2.39592,0.68455 c 0,0 3.08046,0.34227 3.08046,-0.22818 0,-0.57046 2.73819,-3.08047 2.73819,-3.08047 l 3.53682,-6.6173 3.65094,-1.36909 1.02681,-2.51001 0.57045,1.71137 0.57048,2.51001 2.6241,5.93275 2.85228,2.51 4.10727,1.71137 2.28183,4.44956 0.91272,0.91273 2.05365,-0.45636 3.53685,-2.85228 c 0,0 1.1409,-2.96638 2.85228,-3.08047 1.71135,-0.11409 6.50319,-3.30864 6.50319,-3.30864 l 5.93274,-0.91274 6.95958,0.22818 1.1409,1.82547 4.22139,0.22818 1.1409,2.51 1.59729,0.34228 3.30864,-0.68455 2.05365,-3.08047 3.08046,-3.42274 6.27501,-2.73819 5.70459,-6.04683 3.08046,-6.04684 2.6241,-6.27502 1.02681,-2.85228 1.1409,-3.87911 0.91929,-2.1174 13.28514,-2.03784 7.60272,-0.86216 6.85812,-3.09595 6.8973,-1.88108 11.28648,0.62703 1.56759,6.27027 0.62703,4.07568 6.58377,1.56757 3.76218,-1.88108 0.78378,-1.41081 0.62703,0.7054 3.21351,6.81893 3.05676,6.1919 7.21083,1.0973 1.88109,-0.70541 2.90001,-3.29189 1.72431,-4.46758 9.8757,-0.94054 4.31082,1.17568 0.54864,1.88108 2.50812,0.86217 2.27295,1.8027 2.90001,1.01892 2.9784,4.46757 1.48917,3.91893 4.46757,2.11621 6.03516,6.27028 4.46757,4.54595 1.64595,4.23244 1.56756,2.03784 2.90001,1.72433 0.3135,1.33243 -3.44865,0.23514 -7.75947,0.86217 -6.03513,2.74323 -14.65677,3.05676 -1.95948,2.90001 -0.47025,9.8757 2.42973,5.25135 5.79999,12.07029 3.13515,6.03513 5.80002,6.03516 2.03784,2.74323 -0.0783,3.05676 -2.90001,1.64595 -4.85946,1.64595 -6.11352,2.90001 -3.2919,3.2919 c 0,0 -5.79999,3.13512 -5.79999,2.82162 0,-0.31353 -5.87841,5.72163 -5.87841,5.72163 l -5.79999,6.11352 -1.64595,4.93785 -1.56756,7.2108 -3.05676,2.74326 -5.64327,3.05676 -1.41081,2.82162 c 0,0 -1.25406,8.54325 -0.94053,9.32703 0.3135,0.78378 1.41081,3.91893 1.41081,3.91893 l 2.35134,1.8027 -0.0783,7.21083 4.31082,2.11623 11.9919,5.95674 7.36758,1.09731 4.62432,1.8027 6.03513,6.11352 3.21354,6.11352 6.19188,6.03516 2.66487,5.64324 5.87838,2.97837 1.4892,8.70003 0.70542,2.50809 1.88106,2.03784 0.94056,0.39189 2.03784,-2.42973 2.03784,0.70542 6.50541,3.2919 2.35134,3.05676 4.54596,1.88109 0.94053,1.8027 6.66219,0.78378 1.88109,2.42973 4.93782,-0.1569 2.19462,-1.01892 6.11352,-5.64327 5.79999,-6.34863 1.33245,-1.01892 1.56756,1.01892 1.95945,4.78107 10.50273,1.09731 4.70271,1.33242 8.93514,0 7.21083,0.94056 2.82162,4.15404 3.91893,1.64595 0.47025,2.03784 4.54596,2.11623 3.6054,1.8027 3.99732,-0.62703 1.4892,-4.23243 5.95673,-3.2919 6.1919,-5.87838 5.8784,-5.87838 3.0568,-9.09192 2.5865,-1.09731 6.3486,1.09731 5.8,5.95677 2.1946,4.31082 4.2324,2.03784 11.6001,2.82162 6.1135,6.03513 5.9567,6.03516 3.1352,2.97837 5.8,3.13515 3.3703,1.01892 8.7,-1.09731 6.3486,-3.2919 6.4271,-1.41081 3.3702,0.54867 1.019,5.79999 2.1946,0.70542 7.6811,3.2919 8.6216,3.29187 9.7189,3.05676 17.5568,5.95677 2.273,1.17567 9.0919,0 5.2513,0.47028 1.5022,1.46793 5.8747,11.86029 1.6626,7.59282 6.2073,0.66507 1.2747,3.99036 3.5433,2.7183 1.254,2.50812 -1.254,6.27027 -2.8216,2.82165 1.881,5.95674 2.0527,4.77564 6.429,0.88677 1.2193,7.09401 2.8819,5.76387 1.441,6.87234 0,5.0988 -2.6603,1.88436 -0.4433,10.75185 3.2144,2.10603 -0.4433,16.8482695 -2.5494,0.2217 -1.6627,4.32291 -2.9928,2.7711 -5.3205,11.9711405 -6.5398,3.21447 -3.1036,6.09642 -1.441,2.43855 1.2193,1.99521 1.6626,4.76628 -1.4409,2.5494 -1.8844,5.09883 -1.1084,7.20486 -2.6603,6.42894 -2.4385,0.99759 -0.111,0.997589 2.8819,1.88436 -1.3301,3.76869 -3.4362,2.32773 -1.1084,10.8627 -6.429,2.43855 -9.6434,2.7711 -6.0964,3.214471 -2.9928,3.436169 -4.6554,1.77351 0,2.10603 -10.1976,1.995181 -12.082,5.7639 -2.9928,3.10362 -1.2193,2.99277 1.5518,5.98557 2.6603,8.97837 4.5445,0.99759 0.1107,1.33014 -2.7711,1.21929 -4.6554,2.88192 -2.7711,4.21209 -10.1976,0 -2.1061,-4.65546 -2.7711,-2.88195 -9.4217,-3.10362 -9.7543,-2.5494 -20.9495,-0.2217 c 0,0 -6.5398,1.88436 -6.5398,2.43858 0,0.55422 -1.1084,4.21206 -1.1084,4.21206 l -3.3253,2.21688 -5.2097,1.10844 -4.1012,-1.33014 -3.2145,-3.10362 -5.653,-2.9928 c 0,0 -0.1107,-4.10121 -1.1084,-4.10121 -0.9976,0 -10.3085,0.99759 -10.3085,0.99759 l -11.08441,2.66025 1.55181,9.75426 1.55181,4.32291 2.54939,2.66028 3.3253,-1.88436 13.7447,0.77592 1.5518,10.53015 1.1084,10.41933 1.6627,7.53738 -1.3301,13.6338 -3.3253,1.44099 -2.6603,-1.21929 -6.5398,-1.99518 -8.3133,0.44337 -3.87952,1.55181 -7.75908,2.5494 -4.21206,1.77351 -1.28841,2.75724 -7.93905,0.2355 -5.29278,-4.65543 c 0,0 -8.3133,-1.33014 -9.08922,-1.33014 -0.77589,0 -15.40728,0 -15.40728,0 l -2.43858,4.10124 -2.99277,6.20727 -3.21447,6.31809 -2.7711,20.28444 c 0,0 -2.21688,15.9615 -2.66028,16.4049 -0.44337,0.44337 -5.98557,2.10603 -5.98557,2.10603 l -6.20724,6.20724 -2.9928,2.7711 -6.09639,3.10365 -3.65787,0.88674 -2.43855,5.09883 -5.98557,11.97114 -1.77351,6.53979 -0.2217,22.16877 3.54702,2.66025 1.77351,4.54461 1.88433,7.09401 -1.33011,7.09401 -2.21688,1.77351 0.33252,1.33011 4.21206,6.98316 2.9928,5.7639 0.77589,3.76869 -3.76869,2.32773 -4.65543,1.10844 -2.9928,-0.77592 -1.99518,-1.77351 -5.5422,1.44099 c 0,0 -16.73742,2.66025 -17.62419,2.88192 -0.88674,0.2217 -6.65061,2.9928 -6.65061,2.9928 l -2.10603,3.87954 -6.65064,2.21688 -14.74224,2.99277 c 0,0 -1.44099,1.21929 -2.21688,1.44096 -0.77592,0.2217 -2.32773,2.66028 -2.32773,2.66028 l -2.66025,0 -2.10603,-4.43376 -5.7639,-2.66025 -6.42894,-5.7639 -3.32532,-6.65064 -0.77589,-9.53256 -4.65546,-1.99518 -3.43614,-6.31812 -2.43858,-11.97114 -2.43855,-8.42412 -2.54943,-4.87716 -4.10121,-1.55181 -21.28203,-3.10362 -20.39529,-2.88195 -9.97596,-3.10362 -17.18079,-3.10362 -17.95671,-2.7711 -12.19284,-6.09642 -5.43135,-1.44096 -3.10362,2.21688 -4.43376,0.99759 -1.99518,4.43376 -3.10365,4.32291 -4.43373,-0.2217 0,-2.99277 c 0,0 -3.76872,-1.21929 -4.54461,-1.21929 -0.77592,0 -12.30369,-2.88195 -12.30369,-2.88195 l -1.66263,-7.53738 -2.10606,-2.5494 -3.21447,-0.4434 -4.21206,4.10124 -3.99039,1.99518 -9.08919,0 -1.66266,-3.10362 -16.07235,0.55422 c 0,0 -2.43858,3.54699 -3.32532,3.54699 -0.88677,0 -2.66025,-0.2217 -2.66025,-0.77589 0,-0.55422 -2.21688,-5.09883 -2.21688,-5.09883 l -12.08199,-5.87472 -6.87234,-2.88195 -3.76869,-1.66266 -0.1107,-12.41451 -2.5494,-0.1107 -1.99518,2.21688 -11.97114,2.7711 -6.31812,3.54702 -2.88192,2.99277 -12.19284,5.65305 -4.10121,2.21688 -2.9928,2.21688 -2.10603,-2.32773 -8.3133,-2.32773 c 0,0 -5.5422,-1.10844 -6.09642,-1.10844 -0.55422,0 -5.98557,1.66266 -5.98557,1.66266 l -2.3277,3.54702 -2.7711,2.3277 -4.32291,2.88195 -4.43376,0.99759 -1.21929,-1.44096 -5.98557,-2.43858 c 0,0 -6.31809,-3.10362 -6.42894,-3.54699 -0.1107,-0.44337 -2.43858,-2.9928 -2.43858,-2.9928 l -1.33011,-3.87954 -9.42174,-0.33252 -2.32773,1.77351 -2.7711,2.66025 -4.76628,2.7711 -0.99759,1.44096 -2.66025,-0.99759 -11.63862,-3.32532 c 0,0 -9.97596,-1.77351 -10.75185,-1.77351 -0.77592,0 -6.31812,1.88436 -7.20486,1.88436 -0.88674,0 -2.10603,1.33011 -6.53979,1.33011 -4.43376,0 -8.97837,-1.55181 -8.97837,-1.55181 l -5.98557,-6.09642 -2.99277,-9.20004 -2.43858,-2.3277 -2.7711,-4.32291 2.10606,-1.33014 3.10362,-0.66507 4.54461,-1.88433 -0.99762,-7.09401 -6.42894,-5.98557 -1.33011,-4.65546 -4.32291,1.44099 -15.96153,1.55181 -8.42415,1.88433 -1.21926,0.99759 -1.66266,-1.33011 -6.31812,-2.9928 -5.5422,-1.33011 -3.32532,4.76628 -5.3205,5.76387 -3.43614,6.53979 -0.88677,1.66266 0.55422,7.09401 2.10603,0.66507 -1.77348,1.55181 -10.08681,-0.55422 -2.21688,-1.99518 -7.31568,-1.66266 -1.10844,-8.53497 -3.54702,-1.44099 -8.86752,-3.21447 -5.87472,-2.99277 -12.30366,-5.98557 -13.30128,-1.66266 -5.28285,-0.2196 z"
       id="path2838"
       style="color:#ffffff;fill:#e45c36;fill-opacity:1;fill-rule:evenodd;stroke:#ffffff;stroke-width:1.5;stroke-linecap:butt;stroke-linejoin:round;stroke-miterlimit:4;stroke-opacity:1;stroke-dasharray:none;stroke-dashoffset:0;marker:none;visibility:visible;display:inline;overflow:visible;enable-background:accumulate" />
  </g>
  <g
     transform="translate(552.37684,617.28945)"
     id="layer5"
     style="display:inline">
    <path
       d="m 765.78527,-369.75995 -5.47647,-1.71143 -5.2482,-2.85228 -1.48317,-3.30865 1.71135,-2.73819 0,-2.73819 -2.73819,-4.90593 -2.05362,-0.57045 -0.79866,-1.93955 -3.87909,-1.93956 -3.99321,-3.42273 -0.57045,-6.50321 3.42276,-2.96637 -0.79866,-5.47638 -2.51001,-1.71137 -7.07364,-0.45636 -9.58368,-3.42274 -2.6241,-3.19456 -5.70456,-2.85228 -20.42235,-2.39592 -6.27501,-3.8791 -3.08046,-2.51001 -3.19455,-6.27502 -2.39592,-9.46958 -1.14093,-8.32866 -1.93953,-4.22138 -4.1073,-2.05364 -2.51001,-13.69096 -1.71138,-2.05364 0.91275,-0.68455 1.02681,-0.68454 2.28183,-2.85229 3.30864,-0.79863 3.53685,-1.59728 1.59726,-2.05365 1.4832,-0.34227 2.28183,-4.90592 3.30864,-6.38912 5.47638,-2.85228 9.0132,-2.6241 1.14093,-4.44956 -1.02684,-1.71137 -0.91272,-4.44956 c 0,0 -4.56366,-1.14091 -5.02002,-1.255 -0.45636,-0.11409 -2.16774,-4.67774 -2.16774,-4.67774 l -1.93953,-1.3691 -0.3423,-5.36229 1.4832,-4.33547 4.10727,-6.84548 3.65094,-1.255 0.57045,-1.82546 5.02002,-1.02682 0.34227,-3.87911 -1.48317,-2.85228 -3.08049,-6.16092 -0.68454,-3.65093 -0.79863,-0.22818 -0.91275,1.14092 -4.22136,1.14091 -10.95276,0 -6.7314,-1.48319 -5.02002,-1.36909 -2.6241,-1.3691 -1.36908,-2.6241 -6.50322,-3.42274 -12.32184,-2.16773 -0.114,-2.16773 -3.08046,-1.82547 0.34227,-10.49639 -0.79866,0 -3.53682,2.85228 -3.87909,1.48319 -1.36911,1.14091 -1.71135,-0.91273 -2.68116,-11.8655 -3.25161,-9.18434 -3.19455,-5.8757 -2.56704,-3.08047 -3.19455,-2.79524 -2.6241,-3.13751 -7.75821,-2.05364 -7.473,2.16774 c 0,0 -6.44616,2.96637 -6.44616,3.19455 0,0.22818 -2.85228,2.79524 -2.85228,2.79524 l -2.85228,5.76161 -2.96637,3.19455 -2.28183,5.13411 -3.42273,0.79864 -6.16092,3.13751 -6.10389,2.68114 -6.10389,3.13751 -2.79522,3.19456 -3.19458,2.85228 -8.72796,3.08047 -6.33207,3.13751 -11.92254,2.85228 -14.77482,3.13751 -9.12732,3.13751 -9.0132,2.68114 -1.59729,3.9932 -4.27842,1.88251 c 0,0 -3.19458,5.70455 -3.25158,5.98979 -0.057,0.28524 -1.76844,7.01661 -1.76844,7.01661 l -1.99659,0.68455 -1.54023,2.6241 -1.25499,0.51341 -1.93956,2.73819 -1.82547,0.96978 -3.99318,2.11069 -9.24141,0 -9.29844,-1.48319 -12.09366,-6.10388 -5.76162,-2.68115 -3.47979,-3.36569 -5.76159,-2.85229 -2.90934,-3.02341 -2.33886,-4.39252 -3.53685,-1.65432 -9.41253,-2.90933 -9.24138,-1.255 -1.59729,1.93955 -1.31205,0.79864 -0.91272,1.42614 -4.84887,3.02342 -2.73819,3.13751 -1.65435,6.78843 2.85231,1.31205 c 0,0 -0.2283,5.19114 -0.2283,5.47638 0,0.28524 -1.02681,4.73479 -1.02681,4.73479 l -3.02343,5.76161 -3.08046,11.7514 -4.05024,1.19796 -1.65432,4.90592 -6.3891,2.90933 -2.68116,3.13751 -6.67434,2.85228 -8.49978,3.02342 -9.18435,2.90933 -3.53685,1.14091 -5.53341,-1.08386 -8.72799,-2.85229 -2.79525,-5.98979 -2.68113,-1.08387 -3.65091,1.08387 -11.69436,2.79524 -5.76162,2.6241 -3.59388,3.70796 -2.79522,5.64752 c 0,0 -2.96637,5.36229 -2.96637,5.8757 0,0.51341 -1.31205,4.67775 -1.31205,4.67775 l -0.68457,-0.28524 -2.56704,-2.79524 -1.31205,-1.255 -4.73478,-1.48319 -4.22139,1.36909 c 0,0 -6.04692,5.81865 -6.16092,6.10389 -0.114,0.28524 -6.21798,5.70456 -6.21798,5.70456 l -1.65432,3.76502 -1.99662,1.255 -1.59726,9.01321 -3.59388,1.19796 c 0,0 -2.85228,5.36229 -2.85228,5.59047 0,0.22818 -3.19455,3.13751 -3.19455,3.13751 l -6.33207,3.08047 -5.53344,3.08046 -2.11068,0.91273 -1.02681,-0.68455 -6.21798,-3.2516 -3.25161,-0.22818 -6.3891,-1.54023 0,-1.93955 1.76841,-1.59728 0.51342,-7.81525 c 0,0 -2.96631,-1.36909 -3.25161,-1.54024 -0.2853,-0.17115 -1.14093,-3.19455 -1.14093,-3.19455 l -5.98977,-6.04684 -5.93277,-3.08046 -3.99318,-0.7416 -2.11068,0.91273 -2.79525,5.93275 -3.13752,3.08046 -3.08046,5.76161 -2.85228,0.85569 -8.89911,-0.7416 -12.26481,-2.90932 -3.02343,-1.3691 -8.95617,1.08387 -5.98977,3.30865 -5.37864,1.25016 -3.54969,2.09754 -1.61349,2.25889 -1.29081,3.06564 -6.29262,1.45215 -2.25891,-1.77485 -6.13128,-2.58159 -1.61349,-1.45214 -2.90427,0.3227 -1.45215,4.19508 -0.9681,3.38834 -2.09754,1.6135 -1.61349,0.64539 -2.09754,-3.87238 -4.03374,0.16134 -1.61349,1.12944 -5.64723,2.42024 -3.71106,6.45398 -2.42022,6.29263 -3.38835,5.48588 -2.74293,9.19692 -1.77486,5.64723 0.32271,6.13128 1.61349,-2.58159 10.16502,-0.9681 2.09754,1.12944 2.9043,1.2908 2.42022,-1.45214 5.32455,-1.9362 3.54969,2.2589 3.71103,2.58159 2.42022,8.87422 3.8724,6.29262 0.64539,3.06564 -1.77483,5.32453 -0.80676,2.5816 1.29081,1.77484 2.74293,5.48588 3.22698,2.74294 6.45399,2.58159 0.9681,8.39017 -1.61349,3.06564 -3.38835,0.9681 -14.68278,2.74294 -11.29449,5.96993 -5.64723,2.74294 -6.6153,7.09937 -3.71106,6.29263 -2.25888,5.00184 -0.9681,3.87237 1.12944,1.77486 -0.80673,2.42025 -2.74296,10.64904 -4.51776,0.9681 -1.45215,4.35645 -3.54969,5.96991 0,1.77486 0.64539,0.80673 3.54969,3.71106 0.1614,1.29078 -0.32268,1.45215 -2.9043,5.96994 -1.61349,8.5515 0,15.16686 1.45215,4.19508 6.45396,-0.9681 9.19692,-1.45215 1.45215,10.64907 1.12944,3.22698 3.8724,2.42025 1.29078,3.22698 2.9043,9.03558 0.80676,4.67913 5.80857,1.77486 5.48589,5.64723 3.71103,4.03371 -0.32271,2.25891 -1.12944,5.32452 1.61349,3.38835 1.45215,3.87237 3.54969,-0.64539 1.9362,-2.42025 1.12944,0.48405 -0.80676,5.64723 -0.9681,1.45215 -4.03374,5.96994 -3.06561,9.35826 -3.38835,3.8724 -14.84415,0.1614 -2.25888,3.22698 -1.61352,0.32271 -2.09754,4.35642 -1.93617,19.52328 -3.06564,-0.1614 -3.06564,-1.29078 -2.9043,-2.74296 -6.77667,-2.90427 -8.22882,-2.42025 -2.58159,-4.35645 -3.54969,-2.42022 -9.35829,-1.77486 -1.45212,-1.9362 -2.09754,-1.29078 -0.64542,-1.45215 -2.58159,-1.12944 -0.80673,-4.8405 -3.54969,-0.80673 -3.8724,1.29078 -12.4239,3.06564 -3.06564,2.9043 -3.06564,2.9043 -0.80676,2.09754 1.12947,6.61533 2.58159,6.13128 6.61533,3.54966 5.00181,3.8724 2.74296,-0.1614 4.03374,-2.09754 9.19692,1.29078 3.87237,1.77486 2.42025,2.58159 0.9681,2.25888 2.42022,2.25888 2.42025,5.96994 0.1413,8.53134 -2.19837,1.08912 0.66246,1.20921 7.98639,1.82544 14.37552,2.51001 5.2482,2.28183 13.23459,3.42276 2.28183,9.35547 0,5.47638 -1.14093,6.16092 c 0,0 0,5.93277 0,7.53003 0,1.59729 0.91272,4.56366 0.91272,4.56366 l 3.19458,6.3891 1.1409,2.28183 -1.59726,1.82547 -2.51001,1.82547 -3.65094,2.50998 -5.2482,2.51001 -2.73819,2.9664 -3.87909,2.05362 -2.51001,4.56366 -1.36911,1.59729 1.14093,1.59726 3.42273,2.73819 10.72458,2.73819 16.65732,2.51001 4.56366,1.14093 2.96637,-2.28183 1.82547,3.19455 2.51001,5.2482 5.47638,-0.2283 12.55002,-3.19455 1.82547,-10.95276 1.82547,0 2.73819,1.59726 2.73819,3.65094 7.75821,0 1.1409,-4.1073 2.73819,-2.05365 6.16095,-3.42273 3.65091,-1.59729 2.51001,2.05365 1.1409,6.61731 4.1073,0.91272 2.51001,3.19455 -2.28183,3.42273 -2.28183,4.56366 1.59729,7.98639 3.19455,3.19455 3.65091,6.6173095 2.73819,2.51001 3.05196,5.81865 5.08437,1.14468 0.82383,-1.17927 3.12615,-3.04545 2.46033,-1.36953 2.05365,1.54023 3.82206,1.31205 5.81865,0.057 0.96978,1.54023 3.65091,1.08387 8.77503,-0.51336 2.42025,-6.71613 2.98497,-5.92959 3.02529,-2.9446495 6.09093,-3.14631 3.22977,-5.79294 2.85228,-1.25502 3.19455,-16.77141 2.96637,-3.08046 0,-1.71138 -0.45636,-1.25499 -0.91272,-1.25502 -0.114,-5.2482 3.19455,-1.1409 2.6241,2.6241 1.48317,0.79863 0.79866,6.50322 0.57045,-0.45636 1.82544,-2.85231 8.44278,0.91275 9.69774,3.30864 8.32866,2.6241 6.38913,3.42273 0.57045,0.68457 2.05365,0.57045 3.30864,-4.33548 6.16092,-3.19455 2.6241,-3.53682 2.73819,-1.02684 2.16774,-5.47638 2.28183,-0.91272 1.1409,-2.05365 12.77823,1.36911 8.55684,1.1409 4.56366,-0.68454 1.36911,-2.96637 9.12729,-1.02684 3.19455,-5.59047 1.02684,-1.02681 1.93953,0.79863 6.16095,5.70456 5.70456,6.38913 6.04683,5.47638 1.59729,7.53003 2.05362,10.83867 5.93277,12.32184 3.08046,6.1609495 6.04683,2.39589 5.47638,6.16095 3.87912,1.36908 2.2818,-1.36908 9.01323,-1.4832 2.85228,-1.36908 6.16092,-2.96637 0.68454,-1.14093 -0.45636,-2.05365 -3.08046,-2.7381895 -3.42273,-3.53682 0,-2.96637 3.08046,-11.6373 1.82547,-11.18097 -1.71138,-9.92592 -1.02681,-1.93956 0.114,-5.36229 5.2482,-0.45636 1.82544,1.71135 9.12732,3.42276 1.82544,0.68454 1.82547,0 0.91272,-7.98639 -2.6241,-2.39592 -0.114,-1.59729 1.4832,-0.79863 2.16774,-1.82547 7.41594,-1.02681 1.36908,2.51001 0.57045,6.27501 1.71138,5.47638 -1.14093,4.1073 -2.39589,1.71138 1.48317,3.19455 3.30864,3.53682 1.02684,0.68454 2.05365,-0.68454 1.25499,-2.16774 1.4832,1.02684 0.34227,1.02681 11.6373,2.96637 4.1073,1.14093 2.05362,-1.02684 5.93277,-6.27501 6.27501,-6.27504 0.57045,-3.765 2.85228,-1.02681 2.39592,1.82544 5.13411,1.59729 3.765,-1.25499 1.82547,-8.2146 1.36911,-2.16771 1.1409,-2.28183 0.57045,-3.42276 7.53003,-2.05362 5.02002,-2.6241 3.42273,-2.96637 6.61731,-3.08049 6.73137,-1.71135 4.90593,-1.14093 5.93274,-3.08046 3.30867,-3.30864 3.53682,-0.91272 1.1409,-9.24141 1.4832,-0.57045 2.51001,-4.56366 6.3891,-1.59726 7.8723,1.93953 2.28183,0.91275 2.28183,0 2.28183,-6.7314 8.78502,-2.73819 9.24138,-3.30864 6.04686,-2.96637 5.93274,-5.93274 3.19455,-3.30867 2.85228,-5.70456 5.70456,-5.81865 5.47638,-6.50319 4.22139,-3.08046 5.70456,-2.6241 0.57045,-2.28183 -0.91272,-1.02684 -2.51001,-5.70456 -2.96637,-5.93274 -1.59729,-1.4832 -1.71135,0.91275 -1.36911,1.36908 -1.48317,-0.79863 -1.59729,-2.51001 -2.39592,-2.05365 -0.79863,-2.96637 -1.71138,-2.05365 -1.25499,-3.99318 0.2283,-5.70456 3.30864,-0.91275 1.71138,-0.57045 -0.68457,-3.42273 -3.30864,-1.14093 -12.55005,-0.79863 -7.07364,0 -7.64412,1.93956 -0.68454,2.28183 -1.82547,1.36908 -3.765,0.2283 -0.79866,-4.44954 1.71138,-11.75142 1.25499,-10.38231 -0.34227,-4.9059 -2.73819,-3.08049 0.79866,-1.36908 4.22136,-4.22139 5.59047,-2.85228 2.73819,-3.08046 1.25502,-2.05365 1.71135,-5.47638 3.53685,-1.25499 2.85228,-4.67775 3.30864,-1.1409 2.39592,-3.08049 2.28183,-1.25499 2.05362,-2.28183 3.76503,-1.02681 0.79863,-10.04004 0.79863,-2.05365 -0.79863,-1.48317 -2.6241,-15.06006 -5.70456,-5.47638 -3.42273,-3.65091 -3.65094,-0.91275 -2.39589,-3.53682 -0.91275,-0.34227 -1.82544,-18.82506 -2.51001,-8.67093 c 0,0 -1.59729,-2.05366 -1.59729,-2.8523 0,-0.79863 -0.45636,-11.29503 -0.45636,-11.29503 l 2.51001,-1.48319 1.36908,-3.99319 16.88553,-1.14092 5.2482,1.82546 2.73819,3.87911 6.27501,2.6241 3.08046,1.48318 5.93274,-0.22818 1.93956,-2.96637 11.18094,-0.22818 4.22139,1.93955 3.53682,2.73819 2.39592,0.68455 c 0,0 3.08046,0.34227 3.08046,-0.22818 0,-0.57046 2.73819,-3.08047 2.73819,-3.08047 l 3.53682,-6.6173 3.65094,-1.36909 1.02681,-2.51001 0.57045,1.71137 0.57048,2.51001 2.6241,5.93275 2.85228,2.51 4.10727,1.71137 2.28183,4.44956 0.91272,0.91273 2.05365,-0.45636 3.53685,-2.85228 c 0,0 1.1409,-2.96638 2.85228,-3.08047 1.71135,-0.11409 6.50319,-3.30864 6.50319,-3.30864 l 5.93274,-0.91274 6.95958,0.22818 1.1409,1.82547 4.22139,0.22818 1.1409,2.51 1.59729,0.34228 3.30864,-0.68455 2.05365,-3.08047 3.08046,-3.42274 6.27501,-2.73819 5.70459,-6.04683 3.08046,-6.04684 2.6241,-6.27502 1.02681,-2.85228 0.9126,-4.10734 z m -416.09097,352.199719 1.36908,-4.90593 1.71138,-3.99318 0.91272,-1.25502 2.16774,1.36911 3.19455,6.04683 2.96637,2.85228 3.08046,3.42273 3.42276,5.9327705 0.79863,1.25499 -1.1409,1.36908 -1.4832,2.05365 1.4832,1.02684 2.6241,3.19455 3.42273,2.6241 1.02681,1.71135 -1.02681,1.36911 -3.08046,9.2413795 -3.08046,8.78505 -3.42276,6.27501 -2.73819,2.85228 -2.96637,5.93274 -0.79863,4.1073 -1.59729,2.85228 -3.53682,-1.02681 -6.61731,-2.9664 -2.39589,-1.48317 -1.82547,-15.7446 1.93956,-15.5164195 1.1409,-6.84546 0,-2.85228 -1.59729,-1.71138 -2.85228,-3.87912 -0.57045,-4.10727 1.14093,-1.3691105 1.36908,-1.82544 4.33548,-1.71138 1.71135,-2.05365 0.91275,-1.02681 z"
       id="path3694"
       style="color:#ffffff;fill:#e45c36;fill-opacity:1;stroke:#ffffff;stroke-width:1.5;stroke-linecap:butt;stroke-linejoin:round;stroke-miterlimit:4;stroke-opacity:1;stroke-dasharray:none;stroke-dashoffset:0;marker:none;visibility:visible;display:inline;overflow:visible;enable-background:accumulate" />
  </g>
  <g
     transform="translate(552.37684,617.28945)"
     id="layer3"
     style="display:inline">
    <path
       d="m 198.98591,4.8106495 0.44013,4.38018 -0.58284,4.6625695 0,4.95399 2.3313,1.748491 1.16565,6.41106 -0.2913,4.37118 -1.74846,2.91411 -6.70248,3.78834 -0.2913,2.3313 -2.91411,3.20553 -2.91411,-2.3313 -4.37118,-3.20553 -5.24541,-2.03988 -5.53683,-1.74846 -6.11964,0 -5.5368,0 -3.20553,2.03988 -3.78849,2.3313 -0.58281,2.91411 -3.49695,9.03375 -6.41106,2.03988 -5.24541,-0.291301 -6.70248,-3.49695 -8.74233,1.45707 -6.11964,0.874231 -6.41106,1.45704 -4.37118,2.622719 -9.32517,0.58281 -5.53683,-2.03988 -4.6626,-0.87423 -4.95399,-1.45707 -2.62269,-1.74846 0.58281,-1.16565 3.78834,-2.62269 2.62272,-3.49695 1.45707,-2.62269 0.58281,-3.49695 -3.20553,-2.62272 -3.20553,-1.74846 -7.57671,-1.16565 -8.45094,-0.58281 -6.41106,1.45704 -3.78834,0.87423 -6.41106,2.91414 -5.53683,0 -6.70245,0 -9.32517,0.58281 -1.74849,1.45707 -2.33127,0.87423 -2.91414,-1.16565 -1.16565,-1.16565 -6.70245,-0.58281 -3.78837,1.74846 -6.11964,0.2913 -4.95399,0 -6.99387,-2.039879 -4.95402,-0.874231 -7.57668,0 -3.78837,2.33127 -2.91411,1.16565 -1.45707,2.91414 -1.74846,4.371181 -0.2913,5.24541 -0.2913,4.95402 0.58284,2.91411 4.37118,2.62269 0.58281,3.20553 0,6.9939 -0.58281,6.70245 -2.91411,6.11964 -1.74849,6.41106 -5.24541,0.87426 -4.66257,-1.45707 -3.49695,-1.16565 -5.82825,0 -3.49692,1.16565 -5.24541,4.37118 2.3313,3.20553 2.03988,1.74846 3.78834,0.87423 0,2.03988 -2.3313,0.2913 -3.49692,3.78834 -1.45707,2.91414 -3.78834,1.74846 -3.49695,-3.49695 -2.3313,-2.3313 -3.20553,-2.03988 -3.20553,-4.66257 -4.07976,-4.07976 -2.62269,0 -1.74849,3.49692 -0.87423,4.6626 -3.20553,4.07976 -9.61659,1.16565 -3.78834,1.16565 -3.20553,0 -2.62272,-1.45707 -3.20553,-1.74846 -4.95399,-2.03988 -6.70245,-0.58284 -7.28532,2.91414 -2.03988,2.03988 -2.33127,-1.16565 -0.87426,-1.45707 -4.66257,0 -1.74846,4.07976 -0.87426,4.07976 -0.58281,2.91414 -3.78834,0.2913 0,-6.70245 0.87423,-6.70248 -2.62272,-0.58281 -0.58281,2.91411 -3.49695,2.03988 -5.82822,2.62269 -2.62272,3.20553 -1.74846,1.74849 -0.87423,3.20553 -3.49695,0.58281 -7.57671,-1.45704 -2.91411,-3.20553 -4.37118,-0.58284 -0.87423,-1.74846 2.3313,-2.03988 2.91411,-1.74849 2.62269,-3.78834 10.49082,-0.87423 -0.58281,-7.28529 -2.3313,-5.82825 -1.45704,-4.95399 -2.62272,-6.11964 -2.62269,-6.11964 -4.07979,0 -2.03988,2.62269 -5.24541,0 -6.41106,1.16565 -7.8681,0.87423 -3.20553,0 -1.74846,4.37118 -2.03988,4.6626 -0.58284,2.03988 -3.20553,8.15952 -4.66257,3.20553 -5.24541,2.03988 -1.45707,1.16565 -8.15952,2.03988 -12.82212,-1.45707 -9.61659,0.2913 -9.32517,0.87423 -0.58281,1.16565 -0.2913,2.91411 2.03988,3.20553 -2.62272,3.20553 -4.95399,2.03988 -4.37118,1.45707 -4.07976,0 -3.20553,-1.16565 -2.03988,-2.62269 -3.20553,-0.87426 -0.58281,1.16565 -2.76867,1.74867 -0.72876,6.7026 0,10.78224 6.41106,3.49695 2.91411,4.07976 1.74846,2.91411 1.74849,2.3313 0.58281,2.91411 -1.74846,1.74846 -1.45707,3.78837 0,2.3313 3.49695,4.07976 0.58281,3.20553 3.20553,3.78834 0.87426,4.07976 1.74846,3.49695 0.58281,1.74846 2.3313,1.45707 0.2913,1.74846 -2.03988,2.62272 -2.77038,-2.47029 -2.11068,-3.7365 -3.04917,-5.03007 -4.11441,-8.06745 -4.19508,-6.37332 -2.01687,-6.13128 -2.98497,-5.80857 -3.14631,-5.64723 -6.2493,-8.60712 -2.28183,-7.75821 -3.42273,-2.51001 -2.28183,-5.47638 -2.96637,-6.61728 -2.96637,-2.96637 -3.42273,-4.56366 -8.67096,-8.89911 -2.51001,-6.16092 -3.19455,-3.65094 -7.30182,-3.42273 -1.82547,-2.96637 -2.96637,-5.70456 -7.98639,-7.53003 -5.02002,-4.1073 -2.28183,-5.93274 -3.42273,-3.65091 -5.70456,-2.96637 -3.87912,-1.82547 -1.82547,-7.07367 -3.65091,-2.51001 -3.19455,-5.70456 -2.28183,-3.65091 -4.79184,-2.73819 -2.05365,-3.42276 -2.96637,-11.8654805 -5.01999,-11.86548 -3.87912,-5.70459 -2.51001,-12.3218395 -2.96637,-9.3555 -6.61728,-11.6373 -2.9664,-9.12729 -2.73819,-4.1073 -2.51001,-4.56366 -2.05362,-4.33545 -2.28183,-1.59729 -1.59729,-2.28183 -6.3891,-6.84546 -3.42273,-5.93277 -2.9664,-2.96637 -1.59726,-4.56363 -4.33548,-1.82547 -2.73819,-6.61728 -3.65091,-2.73822 -2.51001,-6.16092 -3.19455,-2.73819 -1.59729,-3.19455 -4.33548,-2.51001 -5.70456,-12.09366 -2.96637,-2.51001 -6.3891,-12.32187 -5.47638,-5.70456 -3.87912,-6.16092 -11.40912,-11.63733 -8.67093,-9.58365 -9.81186,-9.3555 -9.58365,-9.12729 -5.47638,-2.51001 -5.2482,-5.93277 -5.93277,-5.70456 -6.3891,-3.42273 -1.59729,-3.65091 2.05365,-2.73819 2.73819,-8.67096 1.36911,-3.87909 0.68454,-8.67093 11.86548,-0.68457 5.2482,0 1.14093,-2.73819 7.07364,-2.05362 4.79184,-0.91275 3.42273,1.14093 6.61731,2.28183 6.16092,-1.82547 2.28183,-3.19455 5.70456,-2.96637 3.87912,-3.42276 5.70456,-11.40912 1.36908,-1.59729 -0.91272,-1.82544 -9.81186,-8.44275 -2.96637,-7.30185 -1.1409,-5.47638 2.96637,-1.36911 2.51001,-3.19455 1.1409,0.45636 2.28183,1.59729 1.59729,-0.2283 2.96637,-3.19455 2.73819,-3.42276 6.16092,-5.47638 3.87912,-1.36908 5.2482,1.36908 2.51001,1.59729 6.3891,-1.59729 7.07367,-0.68454 7.98639,-2.28183 2.96637,-6.16092 3.65091,-11.6373 0,-4.1073 -0.45636,-5.2482 -2.73819,-5.93275 -4.56366,-1.82546 -2.28183,-3.42273 -1.59726,-3.65093 -1.82547,-2.73819 -3.42273,-2.73819 -1.59729,-3.65092 -1.82547,-4.10729 1.36911,-2.73819 1.82547,-1.14091 -1.59729,-7.53002 -5.02002,-2.28183 -2.05365,-6.38911 -0.68454,-13.0064 2.51001,-10.72459 1.59729,-9.58366 1.82544,-1.3691 2.05365,-4.56365 3.87912,-1.14091 -0.91275,-7.53003 -6.3891,-2.73819 -1.59729,-5.47638 1.82547,-3.65092 0,-2.73819 -9.12732,-3.65092 -2.96637,-2.51001 -3.19455,-3.19456 -0.68454,-7.30184 0.91272,-4.56365 4.1073,-4.33547 4.33545,-4.56365 6.16095,-2.73819 2.73819,-2.05364 4.10727,2.05364 5.93277,0.45636 9.35547,0 1.59729,-3.19455 4.56363,-3.19456 2.05365,-4.10728 5.02002,-1.82546 7.07367,-2.96638 8.67093,-9.81185 6.16092,-6.61729 2.28183,-5.2482 6.16092,-3.42274 4.1073,-2.73819 2.28183,-6.16093 4.10727,-1.14091 1.14093,-2.51001 6.84546,0.68455 4.79184,2.73819 4.56366,2.28182 3.02142,1.40512 11.77851,1.93619 3.06564,0.96809 6.61533,1.77485 1.61349,5.00183 2.25888,2.25889 -0.80673,11.77851 -2.9043,6.45398 -1.9362,2.42024 1.29081,5.96993 1.77483,2.25889 2.74296,1.77485 3.06564,0.80674 2.42022,-1.61349 2.58159,-0.9681 2.09754,2.58159 0.48405,1.9362 2.58159,2.74294 4.35645,1.77484 1.77483,4.19509 3.22701,8.87421 3.06564,2.9043 2.74293,5.80857 3.22698,4.03374 1.29081,3.54969 2.42025,0 1.93617,-0.80675 6.29265,-3.22699 8.71287,-3.06564 14.84415,-3.22698 5.00181,-1.45215 4.19508,1.61349 3.38835,2.09755 2.74293,4.03373 1.77486,3.54969 8.22882,1.2908 1.29078,1.77484 5.48589,0.80675 4.51779,-0.6454 1.12944,-2.25889 -3.71103,-1.45215 -4.03374,-6.13128 -2.74293,-6.29262 -0.64542,-7.74478 0.32271,-10.16501 0,-3.54969 -1.87278,-6.75699 -1.82547,-0.91273 -1.1409,-1.14091 -4.56366,-2.73819 -7.75821,-8.89912 -7.53003,-5.93275 -2.2818,-5.47638 -2.05365,-3.19456 2.28183,-3.8791 2.73819,-7.98639 2.51001,-5.2482 -2.73819,-4.56365 -0.2283,-1.36909 3.65094,-4.10729 4.56366,-3.19456 0.45636,-3.8791 3.85206,-7.68467 6.13128,-5.80858 3.22698,-3.71104 2.74293,-5.32453 3.38835,-5.96993 1.12944,-9.35827 1.12944,-3.87238 2.58159,-2.09754 0.48405,-1.77485 2.25891,0.16134 0.9681,1.6135 3.38832,5.96993 6.61533,6.45397 5.48589,5.48588 5.80857,5.80858 2.58159,3.38834 7.26072,3.22699 5.16318,2.90429 1.61352,0.6454 1.29078,-0.80675 0.80676,-10.97176 2.25888,-16.78034 3.06564,-1.12945 1.9362,2.74294 2.58159,1.2908 0.1614,1.77484 9.51963,-0.80675 7.5834,-3.06564 13.55337,-1.29079 3.38835,1.45214 3.87237,0.80675 3.06564,-1.12944 11.61717,-1.12945 5.48586,-0.3227 3.54969,7.90612 2.25891,5.80858 4.03374,1.9362 1.45212,1.61349 6.7767,-0.9681 12.26256,-2.74294 3.87237,-2.42024 3.38835,0.80675 1.61349,4.51778 3.06564,3.06564 6.61533,1.77485 2.09754,1.77484 1.29078,0.80675 -2.58159,3.71104 -5.00181,1.29079 -0.1614,1.2908 4.51779,1.29079 5.32452,1.45214 8.22882,1.45215 3.54969,1.77484 1.45215,1.9362 2.74296,1.77484 0.96807,2.58159 2.25891,1.6135 4.35642,2.58159 5.96994,2.74294 6.29262,1.77484 6.13128,-0.80675 0.9681,-2.42024 2.09754,2.09755 6.77667,1.45214 1.77486,2.09754 7.26072,0.48405 12.80649,3.73989 8.44275,2.28182 9.81183,0.68455 6.61731,3.42274 2.96637,2.51001 1.59729,2.28182 2.05362,-1.36909 5.02002,-2.96637 2.28183,-1.59728 3.87909,0.91273 3.42276,2.96637 5.47638,3.65092 3.87909,3.42274 5.93274,2.28183 6.16095,1.14091 8.44275,-0.91273 3.42273,-1.59728 3.19455,1.14091 2.9664,2.73819 2.73819,2.73819 2.73819,3.87911 2.73819,0.22818 7.30182,-2.96637 2.51001,2.51 2.51001,2.96638 3.42273,3.19455 0.2283,1.59728 -2.73819,1.59728 -2.05365,1.59728 2.05365,1.82546 2.50998,5.24819 2.05365,5.93275 1.82547,6.16093 1.59729,2.73819 3.65091,3.65092 9.12729,1.59728 3.19458,2.28183 4.33545,3.19455 -1.37727,2.70731 -3.78606,2.29485 -1.61349,2.25889 -1.29081,3.06564 -6.29262,1.45215 -2.25891,-1.77485 -6.13128,-2.58159 -1.61349,-1.45214 -2.90427,0.3227 -1.45215,4.19508 -0.9681,3.38834 -2.09754,1.6135 -1.61349,0.64539 -2.09754,-3.87238 -4.03374,0.16134 -1.61349,1.12944 -5.64723,2.42024 -3.71106,6.45398 -2.42022,6.29263 -3.38835,5.48588 -2.74293,9.19692 -1.77486,5.64723 0.32271,6.13128 1.61349,-2.58159 10.16502,-0.9681 2.09754,1.12944 2.9043,1.2908 2.42022,-1.45214 5.32455,-1.9362 3.54969,2.2589 3.71103,2.58159 2.42022,8.87422 3.8724,6.29262 0.64539,3.06564 -1.77483,5.32453 -0.80676,2.5816 1.29081,1.77484 2.74293,5.48588 3.22698,2.74294 6.45399,2.58159 0.9681,8.39017 -1.61349,3.06564 -3.38835,0.9681 -14.68278,2.74294 -11.29449,5.96993 -5.64723,2.74294 -6.6153,7.09937 -3.71106,6.29263 -2.25888,5.00184 -0.9681,3.87237 1.12944,1.77486 -0.80673,2.42025 -2.74296,10.64904 -4.51776,0.9681 -1.45215,4.35645 -3.54969,5.96991 0,1.77486 0.64539,0.80673 3.54969,3.71106 0.1614,1.29078 -0.32268,1.45215 -2.9043,5.96994 -1.61349,8.5515 0,15.16686 1.45215,4.19508 6.45396,-0.9681 9.19692,-1.45215 1.45215,10.64907 1.12944,3.22698 3.8724,2.42025 1.29078,3.22698 2.9043,9.03558 0.80676,4.67913 5.80857,1.77486 5.48589,5.64723 3.71103,4.03371 -0.32271,2.25891 -1.12944,5.32452 1.61349,3.38835 1.45215,3.87237 3.54969,-0.64539 1.9362,-2.42025 1.12944,0.48405 -0.80676,5.64723 -0.9681,1.45215 -4.03374,5.96994 -3.06561,9.35826 -3.38835,3.8724 -14.84415,0.1614 -2.25888,3.22698 -1.61352,0.32271 -2.09754,4.35642 -1.93617,19.52328 -3.06564,-0.1614 -3.06564,-1.29078 -2.9043,-2.74296 -6.77667,-2.90427 -8.22882,-2.42025 -2.58159,-4.35645 -3.54969,-2.42022 -9.35829,-1.77486 -1.45212,-1.9362 -2.09754,-1.29078 -0.64542,-1.45215 -2.58159,-1.12944 -0.80673,-4.8405 -3.54969,-0.80673 -3.8724,1.29078 -12.4239,3.06564 -3.06564,2.9043 -3.06564,2.9043 -0.80676,2.09754 1.12947,6.61533 2.58159,6.13128 6.61533,3.54966 5.00181,3.8724 2.74296,-0.1614 4.03374,-2.09754 9.19692,1.29078 3.87237,1.77486 2.42025,2.58159 0.9681,2.25888 2.42022,2.25888 2.42025,5.96994 0.1413,8.53134 -2.19837,1.08912 0.66246,1.20921 7.98639,1.82544 14.37552,2.51001 5.2482,2.28183 13.23459,3.42276 2.28183,9.35547 0,5.47638 -1.14093,6.16092 c 0,0 0,5.93277 0,7.53003 0,1.59729 0.91272,4.56366 0.91272,4.56366 l 3.19458,6.3891 1.1409,2.28183 -1.59726,1.82547 -2.51001,1.82547 -3.65094,2.50998 -5.2482,2.51001 -2.73819,2.9664 -3.87909,2.05362 -2.51001,4.56366 -1.36911,1.59729 1.14093,1.59726 3.42273,2.73819 10.72458,2.73819 16.65732,2.51001 4.56366,1.14093 2.96637,-2.28183 1.82547,3.19455 2.51001,5.2482 5.47638,-0.2283 12.55002,-3.19455 1.82547,-10.95276 1.82547,0 2.73819,1.59726 2.73819,3.65094 7.75821,0 1.1409,-4.1073 2.73819,-2.05365 6.16095,-3.42273 3.65091,-1.59729 2.51001,2.05365 1.1409,6.61731 4.1073,0.91272 2.51001,3.19455 -2.28183,3.42273 -2.28183,4.56366 1.59729,7.98639 3.19455,3.19455 3.65091,6.6173095 2.73819,2.51001 3.05196,5.81865 5.05473,1.26399 z"
       id="path3676"
       style="color:#ffffff;fill:#e45c36;fill-opacity:1;stroke:#ffffff;stroke-width:1.5;stroke-linecap:butt;stroke-linejoin:round;stroke-miterlimit:4;stroke-opacity:1;stroke-dasharray:none;stroke-dashoffset:0;marker:none;visibility:visible;display:inline;overflow:visible;enable-background:accumulate" />
  </g>
</svg>
