<?xml version="1.0" encoding="UTF-8" standalone="no"?>
<!-- Created with Inkscape (http://www.inkscape.org/) -->

<svg
   xmlns:svg="http://www.w3.org/2000/svg"
   xmlns="http://www.w3.org/2000/svg"
   version="1.1"
   width="4316.0322"
   height="3831.1279"
   id="svg2"
   style="display:inline">
  <defs
     id="defs17" />
  <g
     transform="matrix(80,0,0,80,-23315.988,-4789.732)"
     id="Pordenone"
     style="fill:#e45c36;fill-opacity:1;stroke:#ffffff;stroke-width:0.0375;stroke-linejoin:round;stroke-miterlimit:4;stroke-opacity:1;stroke-dasharray:none;display:inline">
    <path
       d="m 298.2325,71.5058 -0.0201,-0.1144 -0.0159,-0.1431 -0.017,-0.1512 -0.0604,-0.0561 -8e-4,-7e-4 -0.0741,-0.0395 -0.1675,-0.088 -0.3545,-0.3705 -0.0452,-0.0769 -0.1156,0.0082 -0.0438,0.027 -0.0972,0.0719 -0.0562,0.048 -0.2922,0.2785 -0.085,0.1595 -0.0202,0.0414 -0.2793,0.3572 -0.1486,0.0689 -0.0252,0.0067 -0.2457,-0.1154 -0.063,-0.0316 0.0427,0.2306 0.008,0.041 4e-4,0.0011 0.0168,0.0452 0.0281,0.0408 0.0244,0.0323 0.064,0.1131 0.0149,0.0621 0.0667,0.4383 -0.4375,0.3833 -0.0247,0.0202 -0.0186,0.0025 -0.2707,0.0684 -0.4041,0.3179 -0.3351,-0.1283 -0.0459,-0.0182 0.0628,0.0912 0.0503,0.2859 0.009,0.093 0.007,0.0805 -0.0538,0.0887 -0.0457,0.0743 -0.218,0.3348 -0.0761,0.0374 -0.3497,0.0905 -0.0378,0.0027 -0.3157,-0.0347 -0.2349,-0.058 -0.0631,-0.0376 -0.0265,-0.014 -0.0319,0.0068 -0.0404,0.0231 -0.006,0.0033 -0.0302,0.0227 -0.0286,0.0275 -0.1207,0.17 -0.2228,0.0241 -0.0187,0.008 -0.3791,0.2943 0.0385,0.0509 0.0381,0.0502 0.0333,0.056 0.0241,0.0772 0.0134,0.0455 -0.002,0.0347 -0.2198,0.8063 -0.0928,0.0653 -0.1277,0.084 -0.4664,0.2855 -0.0263,0.0151 -0.0146,0.0197 -0.2175,0.4531 -0.063,0.1949 3e-4,7e-4 0.0195,0.0505 3e-4,6e-4 0.0202,0.0393 -0.0306,0.1082 0.0936,0.4275 0.0177,0.0144 0.007,0.0061 0.019,0.0149 0.0207,0.0063 0.0642,0.0051 0.1796,0.3082 0.0626,0.173 0.0181,0.0424 0.0145,0.0284 0.059,0.0943 0.0205,0.0231 0.0184,-0.0084 0.0221,-0.028 0.0152,-0.0187 0.0785,-0.0143 0.0256,-0.0025 0.01,0.0047 0.012,0.006 0.0915,0.0481 0.0188,0.0113 0.1667,0.1282 0.1021,0.1299 0.0646,0.0942 0.1058,0.096 0.0755,0.013 0.0298,-0.0157 0.0301,-0.0164 0.0294,-0.0061 0.0288,0.0112 0.0708,0.0455 0.0353,0.0252 0.1164,0.1688 -0.002,0.0032 0.1396,0.0427 0.0359,-0.0115 0.0417,-0.0195 0.1732,-0.0858 0.1805,-0.0901 0.0486,-0.025 0.4064,-0.005 0.1344,0.1599 0.0682,0.1041 -0.002,0.0591 -0.011,0.0679 -0.0185,0.0319 -0.0153,0.0144 -0.0243,0.0164 -0.0323,0.0104 -0.0271,7e-4 -0.0204,0.0172 -0.0462,0.0672 -0.0872,0.2115 0.0119,0.0129 0.0459,0.0462 0.0669,0.0649 0.044,0.0374 0.0335,0.017 0.0333,0.0112 0.3774,-0.0593 0.2627,-0.0414 0.0321,-0.0033 0.0447,-0.0039 0.0326,-0.0016 0.0374,0.0014 0.3672,0.0459 0.1676,0.0292 -0.065,0.0621 -0.0678,0.3078 -0.008,0.037 0.003,0.0425 0.003,0.0276 0.1869,0.6571 0.0852,0.1846 0.2148,0.3451 0.2725,0.2233 0.0279,0.0112 0.1514,0.0327 0.2744,0.1291 0.4404,0.2203 0.0855,0.1134 0.0595,0.0813 0.001,0.0141 -0.002,0.0355 -0.0132,0.0423 -0.007,0.015 -0.0149,0.0302 -0.0142,0.0554 0.0598,0.3089 0.0321,0.0694 0.034,0.0375 0.019,0.0238 0.007,0.0332 -10e-4,0.0318 -0.0126,0.0425 -0.0153,0.0483 -0.032,0.0945 0.006,0.1393 -0.0296,0.0124 -0.0396,0.0169 -0.0323,0.0251 -0.01,0.0131 -4e-4,5e-4 -0.0132,0.02 -0.009,0.0143 -0.0449,0.105 -0.006,0.0468 0.0175,0.0287 0.0253,0.0256 0.0235,0.0175 0.0178,0.0428 -0.002,0.0119 -0.002,0.0161 -0.007,0.0154 -0.085,0.1745 -0.006,0.0107 -0.0468,0.0659 -0.0376,0.0373 -0.1347,0.4112 -0.008,0.0219 -0.0354,0.0469 -0.3711,0.3322 -0.0483,0.0301 -0.2063,0.1158 -0.3425,0.1812 -0.228,0.1176 -0.1707,0.0848 -0.0236,10e-4 -0.0967,-0.0149 -0.0249,-0.0059 -0.0354,-0.0084 -0.325,0.3817 -0.0356,0.097 -0.0411,0.1315 -0.0512,0.1351 -0.06,0.1103 -0.0546,0.079 -0.1166,0.1563 -0.0384,0.0469 -0.0676,0.0163 -0.1388,-0.0023 -0.1125,0.3498 -0.0439,0.2918 6e-4,0.0638 -0.008,0.0306 -0.0215,0.0108 -0.0421,0.0147 -0.0485,0.0126 -0.0933,0.0207 0.0443,0.0642 0.0597,0.0752 0.022,0.0233 0.1085,0.1135 0.0108,0.0101 0.0176,0.0096 0.0123,0.0062 0.0338,0.0219 0.0239,0.0163 0.0179,0.0228 0.032,0.0438 0.1378,0.1939 5e-4,8e-4 0.0121,0.019 0.0156,0.0315 0.0379,0.1982 2e-4,0.0226 -0.0104,0.0272 -0.008,0.0174 -0.0308,0.0436 0.0989,0.3064 0.003,0.0566 0.0238,0.1775 0.1693,0.3199 0.151,0.225 0.009,0.1096 -0.0152,0.2524 -0.0681,0.3851 -0.0793,0.7957 -0.0448,0.2328 5e-4,0.005 7e-4,0.0038 0.1142,0.374 0.003,0.0086 10e-4,0.003 3e-4,6e-4 0.01,0.015 0.0625,0.0237 0.1547,0.0473 0.026,0.0042 0.0221,0.0031 0.0257,9e-4 0.0705,-0.0097 0.0425,-0.0084 0.1273,-0.0458 0.0173,-0.0096 0.3744,-0.0204 0.0249,0.0099 0.0488,0.0459 3e-4,0.0964 0.0211,0.0576 0.01,0.0169 0.2189,0.348 0.3655,0.2551 0.0254,0.0161 0.1441,0.0668 0.1246,0.0577 0.073,0.0116 0.0246,-0.0068 0.0254,-0.0092 0.1733,-0.004 0.2515,0.0153 0.0393,0.0059 0.0255,0.0089 0.0102,0.0052 0.0164,0.0086 0.0518,0.0275 0.0497,0.0289 0.0186,0.011 0.0276,0.0308 0.0287,0.0375 0.0336,0.0821 0.002,0.0071 -2e-4,0.0178 -0.0391,0.0658 -0.0247,0.0401 -0.0156,0.0196 0.003,0.0234 5e-4,0.0021 0.1565,0.3075 0.1035,0.1463 0.0209,0.0223 0.0618,0.0626 0.0223,0.0105 0.2275,0.0359 -0.0263,0.0248 -0.1303,0.109 -0.0175,0.0102 -0.1743,0.0702 -0.006,-1e-4 -0.0459,-0.0107 -0.053,-0.0086 -0.075,0.015 -0.0178,0.0248 0.3163,0.3498 0.2345,0.1634 0.1328,0.0651 0.0558,0.0247 0.1116,0.1103 0.1362,0.4781 0.0264,0.1167 -0.009,0.011 -0.0104,0.0109 -0.0368,-0.0046 -0.005,-6e-4 -0.0443,0.0018 -0.0379,0.0157 -0.0158,0.0166 -6e-4,7e-4 -0.0937,0.1431 0.0103,0.0314 0.0416,0.024 0.6243,0.1068 0.0947,0.2087 0.2211,0.4022 0.004,0.0486 -0.008,0.0526 -0.0187,0.0536 -0.1306,0.1593 -0.0197,0.0153 -0.032,0.0095 -0.0533,0.0069 -0.0477,-0.0064 0.0794,0.15 0.0598,0.298 9e-4,0.0038 0.1759,0.1565 0.0286,0.0104 0.0451,-0.0079 0.0125,-0.0048 0.0209,-0.0162 0.0931,-0.1614 0.003,-0.0135 -0.0149,-0.0181 -0.0137,-0.0139 -0.0142,-0.0173 0.005,-0.0192 0.0125,-0.0063 0.0252,0.0042 5e-4,4e-4 0.03,0.0195 0.0217,0.0218 0.0181,0.0209 0.0103,0.02 0.0147,0.0451 0.0213,0.0713 0.002,0.0145 0.1377,0.1206 0.178,-0.0626 0.0405,-0.0121 0.0303,0.0114 0.0318,0.0294 0.027,0.0398 0.0116,0.0376 0.008,0.0318 0.0615,0.141 0.109,0.1898 0.0137,0.009 0.0436,0.0045 0.1332,-0.0032 0.0189,-0.0046 0.0121,-0.0074 0.0233,-0.0151 0.0131,-0.012 0.009,-0.0101 0.003,-0.0291 -0.0103,-0.0257 -0.0276,-0.0362 -0.0389,-0.0329 -0.0321,-0.024 -0.009,-0.0189 0.008,-0.0101 0.0135,-0.0092 0.1214,-0.0782 0.0134,-0.0053 0.0121,-7e-4 0.008,0.0028 -0.0544,-0.178 -0.012,-0.0414 -0.0351,-0.1713 0.023,-0.0246 0.1422,-0.1434 0.2163,-0.163 0.0225,0.0375 0.0121,0.028 0.0307,0.0615 0.0251,0.0377 0.1071,0.1198 0.0198,0.0188 0.0173,0.0141 0.11,0.0757 0.0349,0.0139 0.1418,0.056 0.0599,-0.0108 0.0241,-0.0198 0.0107,-0.0094 0.2388,0.1328 0.3143,0.2584 0.1969,-0.0221 0.0131,0.0042 0.0151,0.0142 0.008,0.0074 0.009,0.009 0.0524,0.1043 9e-4,0.0136 -0.0499,0.127 -0.0335,0.0686 0.2483,0.1477 0.007,0.0258 -0.008,0.0936 -0.082,0.0997 -0.0429,0.0427 0.2389,0.2828 0.032,0.0237 0.0315,0.0355 0.0447,0.0523 0.0376,0.0523 0.004,0.025 -0.002,0.0239 -0.003,0.0081 0.2491,0.0693 0.0214,0.0044 0.0289,-0.0028 0.1089,-0.0468 0.021,-0.011 0.0359,-0.0261 0.011,-0.0088 0.1196,-0.1018 0.4272,-0.407 0.1022,-0.0933 0.1306,-0.1965 0.2869,-0.2967 0.0171,-0.0093 0.0136,-0.0079 0.1415,-0.1375 0.0834,-0.0957 0.002,-0.0022 0.1027,-0.1301 0.0192,-0.0292 0.0147,-0.0294 0.006,-0.0155 0.1424,-0.1874 0.1822,-0.2186 0.0376,-0.0305 0.0717,0.0175 0.0742,0.0827 0.005,0.0141 -0.008,0.0183 -0.007,0.0096 0.0952,0.1346 0.0123,0.0173 0.0238,0.0269 0.0323,0.0339 0.0745,0.0716 0.0335,0.0317 0.0205,0.0158 0.005,0.0039 0.0309,-0.0208 0.1159,-0.0825 0.0244,-0.0184 0.0108,-0.0082 0.0171,-0.018 0.0273,-0.031 0.0424,-0.0535 0.0367,-0.0524 0.0987,-0.1274 0.0873,-0.1032 0.0301,-0.0309 0.024,-0.0211 0.1816,-0.1356 0.0348,-0.0207 0.1129,-0.1108 -4e-4,-6e-4 -0.002,-0.0027 -0.0891,-0.1003 0.0949,-0.108 0.0205,-0.0234 0.1866,-0.1173 0.0725,-0.0299 0.089,-0.0304 0.0247,0.0061 0.0437,0.0154 0.0544,0.0483 0.1713,0.1586 0.2832,0.1496 0.1093,-0.0065 0.1335,0.065 6e-4,3e-4 0.004,0.0031 -0.008,0.1209 -0.1388,0.358 -0.0161,0.0235 -0.0234,0.0179 -0.005,0.0119 -9e-4,0.0167 0.0452,0.2982 0.0553,0.1153 0.007,0.0086 0.003,0.0034 0.1718,0.1155 0.0551,0.0065 0.0258,-0.0085 0.3207,-0.1777 10e-5,-0.0109 0,-0.0187 8e-4,-0.244 0.1945,-0.2382 0.0142,0.0073 0.0722,0.01 0.0525,-0.0057 0.1711,-0.1251 0.1289,-0.1368 -0.0174,-0.1089 -0.008,-0.0504 -4e-4,-0.0023 -0.006,-0.0196 0.004,-0.0942 0.6014,-0.1156 0.2185,-0.0335 0.3824,0.109 0.1267,0.1183 0.0319,0.113 -0.2218,0.4379 0.058,0.0375 0.6174,0.4032 0.006,0.0262 -0.0272,0.1139 0.0546,0.0261 0.0462,0.0092 0.007,-1e-4 0.2235,-0.1349 0.3774,-0.1505 0.1333,0.0643 0.1463,-0.2311 0.0389,-0.0701 0.0288,0.038 0.0765,0.1415 0.018,0.0711 0.011,0.0646 0.0225,0.045 0.076,0.1411 0.0439,0.0791 0.0261,0.0465 0.4186,-0.1337 0.1096,-0.037 0.0194,-0.0064 0.2866,-0.0447 -0.0728,-0.2675 -0.02,-0.012 -0.017,-0.0303 -0.003,-0.2558 0.0169,-0.3623 0.115,-0.144 0.1011,-0.0517 0.1231,0.0222 0.0198,0.0249 0.0243,0.0305 0.01,0.0127 0.0251,0.0394 0.0307,0.0481 0.006,0.0104 0.003,0.0052 0.0467,0.0862 0.2576,0.2264 0.1712,0.0911 0.0127,0.028 0.0816,-0.0027 0.029,-0.0043 0.0371,-0.0089 0.0162,-0.0088 -0.082,-0.7975 -0.0738,-0.3311 -0.1704,-0.64 -0.1605,-0.1321 -0.1853,-0.1494 -0.2323,-0.1834 -0.0233,-0.0096 -0.087,-0.0183 -0.038,-0.008 -0.0334,-0.0034 -0.0685,-0.0035 -0.3523,-0.243 -0.0526,-0.0621 -0.1544,-0.0975 -0.0893,-0.0543 -0.181,-0.2393 -0.1337,-0.1788 -0.0256,-0.0442 -0.1302,-0.2983 -0.0608,-0.1512 -0.1674,-0.8028 -0.0685,-0.3766 -0.0237,-0.1311 -0.1179,-0.8409 -0.001,-0.0782 0.0417,-0.381 0.0238,-0.2065 0.0181,-0.0815 0.0986,-0.3839 0.0953,-0.5511 -0.01,-0.1526 -2e-4,-0.0367 0.003,-0.0487 0.005,-0.053 0.0776,-0.7222 0.026,-0.2524 0.0414,-0.5911 -0.0173,-0.2822 -0.003,-0.2582 0.008,-0.2156 0.016,-0.0981 -0.01,-0.3309 0.0109,-0.1222 0.0154,-0.1209 0.0153,-0.0595 0.0293,-0.0753 0.095,-0.217 0.205,-0.5232 0.0725,-0.4932 0.1172,-0.7805 0.0331,-0.1448 0.0427,-0.1568 0.0538,-0.138 0.035,0.008 0.0596,-0.2003 0.0198,-0.072 0.009,-0.0469 0.005,-0.0317 -0.007,-0.0774 0.003,-0.0444 0.0144,-0.048 0.1085,-0.13 0.1337,-0.2338 -0.0262,-0.1084 0.005,-0.0442 0.0296,-0.0806 0.054,-0.0538 0.036,-0.0528 0.1659,-0.662 0.0537,-0.4077 -0.009,-0.0559 -0.004,-0.0514 -6e-4,-0.0537 0.0152,-0.0491 0.0526,-0.1215 0.0282,-0.054 0.055,-0.0654 0.0698,-0.0529 0.0583,-0.039 -0.0969,-0.1667 -0.0419,-0.0615 -0.0831,-0.1111 -0.001,-0.0014 -0.0487,-0.0514 -0.004,3e-4 -0.0451,0.0033 -0.0682,0.0015 -0.1278,-0.0234 -0.0203,-0.004 -0.0123,-0.005 -0.1312,-0.1107 -0.005,-0.0188 -0.0294,-0.1139 -0.004,-0.0137 -0.0338,-0.0201 -0.1327,-0.0558 -0.0431,-0.0098 0.4079,-0.2175 0.2083,-0.26 0.1043,-0.18 0.01,-0.0099 0.0158,-0.0163 0.007,-0.0072 0.1822,-0.1322 0.1221,-0.074 0.1084,-0.0481 0.0302,-0.0161 0.0638,-0.1153 -0.0212,-0.2254 -0.016,-0.0437 -0.0117,-0.3978 0.048,-0.0431 0.0234,-0.0389 0.0538,-0.0978 0.007,-0.0271 -0.0453,-0.1796 -0.0103,-0.0249 -0.0368,-0.0806 -0.0293,-0.0801 0.091,-0.2013 0.043,-0.0293 0.0886,-0.028 0.1303,-0.0494 0.0559,-0.0223 0.0373,-0.0193 0.0174,-0.009 0.0375,-0.0247 0.0261,-0.0187 0.0364,-0.032 -0.1688,-0.1061 -0.6322,-0.3668 -0.0429,-0.0301 -0.3017,-0.3314 -0.0177,-0.0549 -0.0841,-0.3295 0.002,-0.0304 0.0102,-0.0415 0.0664,-0.098 0.0384,-0.0206 0.0297,-0.0031 0.0278,-0.008 0.0707,-0.0246 0.006,-0.0043 0.018,-0.014 0.287,-0.2805 0.1136,-0.1176 0.0546,-0.084 0.0196,-0.0362 -0.009,-0.0414 -0.0626,-0.2537 0.002,-0.1891 -0.1984,-0.0538 -0.0564,-0.029 -0.0576,-0.039 -0.045,-0.0388 -0.0275,-0.0285 -0.007,-0.0223 -0.0247,-0.1811 -0.0626,-0.0098 -0.0281,-0.0017 -0.308,0.0452 -0.1512,0.0759 -0.0273,0.0272 -0.1578,-2e-4 -0.1248,-2e-4 -0.0404,-0.0313 -0.0464,-0.0449 -0.0727,-0.0919 -0.009,-0.0152 -0.0274,-0.0512 -0.0396,-0.0525 -0.0163,-0.0185 -0.0153,-0.0154 -0.1066,-0.0987 -0.1257,-0.0723 -0.2056,-0.0927 -0.0121,0.0365 -0.0859,0.1809 -0.1131,0.2279 -0.0229,0.0421 -0.0483,0.061 -0.4596,0.1803 -0.0506,0.0059 -0.2646,0.0195 -0.0471,-0.0106 -0.2161,-0.093 -0.004,-0.0158 0.006,-0.0227 0.006,-0.0179 0.035,-0.0739 0.0535,-0.1335 0.056,-0.1541 -0.005,-0.0079 -0.0239,-0.0097 -0.0214,0.0174 -0.0285,0.0156 -0.0232,6e-4 -0.0459,-0.0106 -0.2908,-0.0853 -0.1909,-0.0822 -0.0336,-0.013 -0.0235,-0.0067 -0.1688,0.0269 -0.1339,0.0222 -0.1273,0.0226 -0.1747,0.0335 -0.0552,0.0163 -0.13,-0.0113 -0.046,-0.0125 -0.0287,-0.0364 -0.009,-0.0446 -0.006,-0.0462 -0.0284,-0.0429 -0.2251,-0.2723 -0.1497,-0.1422 -0.0709,-0.0254 -0.0411,-0.0119 -0.057,-0.015 -0.1498,-0.0394 -0.0237,-0.0147 -0.0825,-0.0325 -0.0483,0.0567 -0.0372,0.0442 -0.0306,0.0327 -0.014,0.0149 -0.0885,0.0159 -0.1554,0.0209 -0.292,-0.0498 -0.3927,0.0489 -0.002,0.0171 0.024,0.0678 0.0246,0.0459 0.0463,0.0678 -0.0854,0.2434 -0.3983,0.1463 -0.2212,0.0607 -0.2428,0.0568 -0.1517,0.0232 -0.0427,-0.0041 -0.4244,0.1331 -0.3042,0.2222 -0.0217,0.0346 -0.1158,0.0797 -0.3309,0.1362 -0.1058,0.0335 -0.0467,-0.0221 -0.4327,-0.5763 -0.0148,-0.0263 -0.007,-0.0269 -0.009,-0.0337 -10e-4,-0.0277 0.005,-0.0901 -0.0306,-0.0136 -0.0689,-0.029 -0.3989,-0.1557 -0.5174,0.0612 -0.0664,0.0212 -0.0482,0.0274 -0.1074,0.1606 -0.0143,0.0331 -0.01,0.0387 -0.0109,0.0292 -0.0214,0.0302 -0.0193,0.0117 -0.1989,0.0696 -0.0433,0.0036 -0.0453,-0.0052 -0.2572,-0.1087 -0.0312,-0.0027 -0.1541,-0.1581 -0.0286,-0.0415 -0.0184,-0.0541 -0.005,-0.0284 -0.0185,-0.0159 -0.1033,-0.0647 -0.036,-0.0134 -0.2758,0.0624 -0.1079,0.039 -0.0553,0.0233 -0.0231,0.0313 -0.0408,0.0245 -0.0431,0.0105 -0.0454,-0.0114 -0.0967,-0.0331 -0.3659,-0.1991 0.1493,-0.0979 0.0206,-0.0114 0.0996,-0.0929 0.0603,-0.0563 0.006,-0.0193 -0.003,-0.0278 -0.0131,-0.027 -0.6266,-0.5074 -0.0189,-8e-4 -0.0867,0.0287 -0.0378,0.023 -0.0211,0.0268 -0.0255,0.0217 -0.022,0.0122 -0.0852,0.0233 -0.4043,-0.1098 -0.2716,-0.0875 -0.0721,0.1429 -0.0189,0.0351 -0.0303,0.0393 -0.0391,0.0369 -0.034,0.0305 -0.0807,0.039 -0.2118,0.0891 -0.0352,-0.0182 -0.1717,-0.1102 -0.0287,-0.0209 -0.0319,-0.0298 -0.003,-0.0032 -0.178,-0.1925 -0.0367,-0.063 -0.0335,-0.0678 -0.0435,-0.0952 -0.022,-0.0913 -0.0549,-0.2332 -0.0844,-0.3809 z"
       id="path10"
       style="stroke-width:0.0375;stroke-miterlimit:4;stroke-dasharray:none" />
  </g>
  <g
     transform="matrix(80,0,0,80,-23315.988,-4789.732)"
     id="Trieste"
     style="fill:#e45c36;fill-opacity:1;stroke:#ffffff;stroke-width:0.0375;stroke-linejoin:round;stroke-miterlimit:4;stroke-opacity:1;stroke-dasharray:none;display:inline">
    <path
       d="m 335.4004,97.9888 -0.6737,-0.2691 -0.2368,-0.1655 -0.4331,0.3088 0.005,0.0109 0.0256,0.0511 0.0143,0.0913 -0.0161,0.0193 -0.0159,0.0179 -0.002,0.0018 -0.0294,0.0097 -0.035,0.0042 -0.004,-10e-5 -0.1013,0.2025 0.0423,0.3269 0.0208,0.0929 0.009,0.0364 0.0134,0.0556 0.3173,0.2247 0.3007,0.135 0.11,0.0394 0.7734,0.096 0.209,0.0566 0.0645,0.0993 0.1481,0.2227 0.0365,0.0534 0.0802,0.0968 0.04,0.0328 0.0146,0.0107 0.0262,0.0127 0.025,0.0134 0.0732,0.0423 0.0496,0.0344 0.1992,0.1575 0.1372,0.1145 0.0285,0.0256 0.0123,0.0362 0.0182,0.0252 0.119,0.1084 0.025,0.0189 0.0918,0.0639 0.0337,0.0222 0.004,0.002 0.0983,0.0671 0.1475,0.1051 0.0382,0.0287 0.007,0.006 0.0538,0.0536 1.1185,1.1318 0.0105,0.0114 0.005,0.006 0.0181,0.0284 0.0151,0.0325 0.0159,0.04 -0.008,0.0478 -0.005,0.0213 -0.036,0.037 0.3526,0.2214 0.3452,0.1857 0.01,0.005 0.0398,0.0325 0.019,0.0168 0.075,0.0709 0.0114,0.0116 0.2837,0.2854 0.2491,0.2949 0.0168,0.033 0.0944,0.3458 0.0742,0.2567 0.0459,0.119 0.0781,0.1789 0.0795,-0.0291 0.0525,0.1052 0.0127,0.0284 0.0781,0.1919 -0.01,0.0239 -0.009,0.016 -0.007,0.008 -0.2698,0.2485 -0.007,0.006 -0.0186,0.0153 -0.0183,0.01 -0.0201,10e-4 -0.0138,-0.005 -0.006,-0.003 -0.069,-0.0441 10e-5,-0.0531 0.006,-0.0348 0.0182,-0.0139 -0.0518,-0.0119 -0.2222,0.2158 -0.002,0.0207 -0.005,0.1314 0.0447,0.2499 0.2714,-0.0413 0.0306,0.005 0.1334,0.0651 0.0106,0.0175 -5e-4,0.0496 -0.0389,0.0152 -0.2234,0.0837 0.0401,0.093 0.0492,0.0471 0.0277,-0.01 0.256,-0.0965 0.0569,-0.2295 0.271,0.001 0.002,0.003 0.041,0.0953 0.002,0.005 0.0395,0.0988 -0.1431,0.0616 -0.0733,0.1876 -10e-4,0.005 6e-4,0.015 0.1188,0.2132 -0.1269,0.3719 3e-4,6e-4 0.3132,-0.0138 0.1149,-0.0475 0.0509,-0.0178 0.6142,0.1064 0.1599,0.1987 0.007,0.0107 -0.1499,-0.1213 -0.0835,0.0188 -0.0223,0.005 -0.0337,0.009 -0.0309,0.0132 -0.0565,0.0469 -0.3646,0.3236 -0.0236,0.0274 -0.2923,-0.1324 -0.0317,-0.0399 -0.0431,-0.0312 -0.0135,-0.008 -0.3209,-0.0906 -0.5737,-0.1185 -0.258,-0.007 -0.3039,0.009 -0.4093,0.1413 -0.005,0.002 -0.006,0.007 -0.005,0.0179 0.001,0.0338 0.0244,0.2095 0.0276,0.0738 0.0748,0.1498 0.038,7e-4 0.0406,-0.005 0.2585,-0.0322 0.2642,-0.0695 0.2155,-0.0452 0.0476,0.0305 0.3362,0.1893 0.537,0.2984 0.0907,0.0466 0.1314,0.0608 0.0379,0.0128 0.1624,0.042 0.0962,0.0136 0.6975,0.0746 0.1282,-0.0106 0.2474,-0.0247 0.5375,-0.0338 0.1565,-0.0295 0.2992,-0.0775 0.007,-0.003 -0.007,-0.0474 -0.0129,-0.0557 -0.0129,-0.0529 0.005,-0.0232 0.0786,-0.118 0.0234,-0.0294 0.0397,-0.0292 0.1503,-0.0948 0.03,-0.0174 0.0526,-0.0128 0.0504,-0.007 0.0419,-0.008 0.0287,-0.0133 0.0149,-0.018 0.0545,-0.1653 0.0247,-0.112 0.0106,-0.0995 -10e-4,-0.108 0.009,-0.0595 0.008,-0.0191 0.0353,-0.0123 0.0465,-0.0159 0.099,-0.0242 0.107,-0.0236 0.0626,-0.0328 0.9388,-0.6015 0.3737,-0.2708 0.0266,-0.1088 -0.1012,-0.0819 -0.3854,-0.292 -0.0437,-0.0294 -0.0592,-0.0197 -0.0525,-0.0147 -0.0489,-0.007 -0.0526,-0.004 -0.1872,-0.1029 -0.0721,-0.0471 -0.3248,-0.2201 -0.2985,-0.2468 -0.3009,-0.259 -0.0842,-0.074 -0.0365,-0.0402 -0.0178,-0.026 -0.047,-0.0719 -0.006,-0.01 -0.1142,-0.1751 -0.2051,-0.3056 -0.0576,-0.0791 -0.0395,-0.0358 -0.0474,-0.0377 -0.2288,-0.1764 -0.096,-0.1535 -0.0364,-0.0912 -0.0176,-0.0495 0.004,-0.0181 0.0188,-0.0698 0.01,-0.0291 0.0148,-0.0228 0.0496,-0.0399 0.0509,-0.0406 0.0111,-0.013 0.003,-0.0203 -0.0101,-0.0647 -0.0493,-0.3004 -0.0118,-0.0334 -0.2065,-0.2916 -0.0171,-0.0232 -0.0392,-0.0331 -0.0272,-0.0201 -0.1096,-0.0796 -0.0451,-0.0322 -0.1516,-0.1068 -0.1604,-0.1123 -0.0655,-0.0868 -0.0918,-0.1274 -0.0896,-0.159 -0.0656,-0.1721 -0.0332,-0.0902 -0.021,-0.072 -0.0191,-0.0501 -0.0532,-0.074 -0.066,-0.0592 -0.1104,-0.0756 -0.127,-0.0753 -0.0315,-0.0189 -0.0529,-0.0266 -0.1061,-0.0515 -0.3178,-0.03 -0.2293,-0.0662 -0.0382,-0.0189 -0.01,-0.005 -0.0163,-0.0152 -0.2054,-0.2007 -0.1334,0.012 -0.3128,0.0109 -0.0197,-0.0073 -0.3674,-0.2145 -0.0304,-0.0357 -0.002,-0.0022 -0.009,-0.0128 0.0579,-0.0097 0.0282,-0.0033 0.0359,-0.0064 -0.0812,-0.0816 -0.1585,-0.1385 -0.0717,-0.0304 -0.1824,-0.0708 -0.0398,-0.0144 -0.2899,-0.1671 -0.1211,-0.0761 -0.1507,-0.1081 -0.0655,-0.0565 -0.0534,-0.0483 -0.0852,-0.083 -0.0246,-0.0279 -0.0418,-0.0473 -0.0879,-0.0908 -0.0631,-0.0612 -0.0961,-0.0853 -0.0511,-0.0452 -0.1151,-0.0781 -0.1382,-0.0911 -0.1461,0.0576 -0.1286,-0.1773 -0.0673,-0.1489 -0.0226,-0.0293 -0.1756,-0.0162 -0.123,-0.0113 -0.0817,-0.0037 -0.0549,0.0094 -0.0601,0.0171 -0.073,0.0124 -0.4182,0.0526 -0.4342,0.0368 -0.1343,-0.0346 z"
       id="path13"
       style="stroke-width:0.0375;stroke-miterlimit:4;stroke-dasharray:none" />
  </g>
  <g
     id="Gorizia"
     style="stroke:#ffffff;stroke-width:3;stroke-miterlimit:4;stroke-opacity:1;stroke-dasharray:none">
    <path
       d="m 2852.0394,3306.0727 2.0292,-3.2975 3.2974,0 0.5073,4.5657 2.2829,2.5365 2.0292,2.0292 0.2536,1.7756 -2.2828,1.7755 -0.761,-3.8047 -0.7609,-1.0146 -2.2829,1.5219 -3.0438,0.5073 c 0,0 -0.5073,-1.5219 -1.5219,-2.0292 -1.0146,-0.5073 -2.2828,-2.2829 -2.2828,-2.2829 l 2.5365,-2.2828 z m -105.7165,117.9136 4.6633,-5.022 3.2285,2.511 3.2284,8.2504 8.6091,3.5872 5.7395,-2.8698 0.7174,-4.3045 1.4349,5.7394 -1.4349,4.6633 -5.3807,1.4349 -5.3807,1.7935 -4.3046,-3.9458 c 0,0 -2.8697,-4.6633 -4.3046,-5.022 -1.4349,-0.3588 -5.7394,-2.511 -5.7394,-2.511 l -1.0762,-4.3046 z m -171.7765,-107.2603 3.5511,0 6.0876,2.0292 1.0146,4.0583 -5.073,-1.5218 c 0,0 -1.0146,-2.5365 -3.0438,-2.5365 -2.0292,0 -3.0438,-1.5219 -2.5365,-2.0292 z m -38.5548,-2.0292 3.5511,-1.0146 2.5365,-2.5365 2.5365,-1.0146 2.5365,5.5803 2.5365,4.0584 4.5657,3.551 3.5511,0 4.0584,-3.0437 5.5803,-1.0146 1.0146,1.0146 -4.5657,3.551 -2.0292,1.5219 -4.0584,3.5511 -3.0438,-0.5073 -2.0292,-4.5657 -5.5803,-2.0291 -3.5511,-2.5365 -2.0292,-2.0292 -4.5657,0 -3.0438,0 2.0292,-2.5365 z m 67.4709,-63.9198 4.0584,-2.0292 4.0584,0 0,5.5803 -1.5219,2.5365 -3.0438,1.5219 -3.0438,0 -2.0292,-4.0584 1.5219,-3.5511 z m 143.0585,24.8577 -3.0438,-6.0876 4.0584,-0.5073 5.073,2.5365 2.0292,5.5803 -5.073,-1.0146 -3.0438,-0.5073 z m -236.4017,48.7007 0,4.5657 2.5365,5.5803 3.5511,5.073 2.5365,5.073 3.0438,4.5657 0,6.0876 -0.5073,5.5803 10.146,2.5365 24.8577,1.0146 8.1168,3.0438 8.6241,5.5803 8.6241,4.0584 15.219,3.0438 17.7555,4.5657 8.1168,2.5365 9.1314,2.0292 -2.5365,-2.0292 -11.1606,-3.0438 -17.7555,-5.5803 -13.6971,-5.073 -8.6241,-2.5365 -5.5803,-2.0292 -1.0146,-2.5365 6.0876,0 10.6533,2.5365 9.1314,2.0292 12.6825,3.0438 5.073,3.5511 6.0876,-4.0584 c 0,0 0,-2.0292 -2.5365,-2.0292 -2.5365,0 -6.5949,-0.5073 -6.5949,-0.5073 l -1.0146,-4.0584 -5.073,-2.5365 -6.5949,2.0292 -5.073,-1.0146 -0.5073,-7.1022 c 0,0 5.073,0.5073 7.1022,1.0146 2.0292,0.5073 6.5949,3.0438 8.6241,4.0584 2.0292,1.0146 6.0876,2.5365 8.1168,3.5511 2.0292,1.0146 4.5657,2.0292 7.6095,2.0292 3.0438,0 10.6533,-1.0146 10.6533,-1.0146 0,0 4.5657,-0.5073 6.5949,-0.5073 2.0292,0 7.1022,2.5365 7.1022,2.5365 l 3.5511,6.0876 4.5656,4.0584 5.5803,1.5219 6.5949,3.5511 8.1168,4.0584 9.1314,5.5803 11.1606,3.5511 c 0,0 6.5949,5.073 9.1314,6.0876 2.5365,1.0146 6.0876,3.0438 8.1168,4.5657 2.0292,1.5219 7.6095,6.5949 7.6095,6.5949 0,0 5.5803,5.5803 7.6095,5.5803 2.0292,0 6.0876,2.0292 6.0876,2.0292 0,0 3.0438,3.0438 3.0438,1.0146 0,-2.0292 3.0438,-5.5803 0.5073,-5.5803 -2.5365,0 -4.5657,0 -4.5657,0 0,0 -3.5511,-0.5073 -4.5657,-3.0438 -1.0146,-2.5365 -4.5657,-7.1022 -4.5657,-7.1022 l -4.5657,-0.5073 -6.5949,-1.5219 -4.5657,-3.5511 c 0,0 1.0146,-5.073 -1.0146,-5.073 -2.0292,0 -5.073,-4.0584 -5.073,-4.0584 l -4.5657,-6.0876 -2.5365,-2.5365 -0.5073,-7.6095 -2.5365,-9.6387 c 0,0 0.5073,-3.5511 0.5073,-6.0876 0,-2.5365 5.073,-1.0146 5.073,-1.0146 l 1.5219,-9.6387 0,-4.0584 -6.0876,-1.0146 -8.6241,4.5657 -7.6095,1.5219 -6.5949,-2.5365 c 0,0 -6.0876,0.5073 -6.0876,-1.5219 0,-2.0292 -0.5073,-4.0584 -0.5073,-4.0584 l -4.5657,0 -5.073,2.0292 -3.0437,5.073 5.0729,3.0438 3.0438,3.0438 -0.5073,1.5219 -6.0876,3.0438 -3.551,0 -3.5511,-4.0584 -3.0438,-4.0584 -4.0584,-5.5803 -2.5365,-0.5073 -6.0876,-2.0292 -1.5219,2.5365 -6.0876,-3.0438 -3.0438,-2.5365 0,-4.5657 4.5657,-0.5073 3.5511,-1.5219 6.5949,-2.5365 4.5657,-2.0292 1.5219,-1.5219 6.0876,3.0438 4.0584,1.5219 2.5364,-1.5219 -1.5218,-3.5511 -4.5657,-2.5365 0.5073,-4.0584 6.5948,-2.0291 4.5657,-1.5219 13.6971,-1.0146 8.1168,0 3.5511,4.5656 2.0292,8.6241 -1.5219,2.5365 -7.1022,1.5219 -3.5511,1.5219 -2.5365,4.5657 2.5365,3.0438 3.5511,1.5219 1.5219,2.5365 3.5511,0 2.0292,-1.5219 2.0292,-3.5511 -2.0292,-1.5219 0,-4.0584 3.0438,1.0146 5.073,-1.5219 3.0438,-3.0438 2.0292,-4.0584 8.1168,-3.5511 1.0146,-5.0729 4.5657,-6.0876 -1.5219,-2.5365 -12.1752,-3.5511 -5.073,1.0146 -12.1752,-0.5073 -6.0876,1.0146 c 0,0 -5.073,-2.5365 -7.6095,-4.0584 -2.5365,-1.5219 -4.0584,-2.5365 -4.0584,-2.5365 l -5.5803,2.5365 -6.0875,-1.0146 4.0583,-5.5803 c 0,0 1.5219,-3.5511 3.5511,-3.5511 2.0292,0 8.6241,-3.5511 8.6241,-3.5511 l 2.5365,-3.5511 2.5365,-5.5803 3.0438,-2.5365 2.5365,-1.0146 4.0584,-7.6095 2.5365,-2.0292 2.0292,-7.1022 -0.5073,-4.5657 -2.0292,-6.5949 -4.5657,-5.073 -5.5803,5.5803 -1.0146,5.5803 -2.5365,3.5511 -3.5511,2.5365 1.5219,4.0584 -4.5657,3.0438 -4.0584,1.0146 1.0146,4.0584 -0.5073,7.1022 -0.5073,2.0292 -4.0584,-2.0292 -3.5511,-2.0292 -1.0145,2.5365 -3.5511,2.0292 -7.1022,-2.5365 -2.5365,-2.5365 -2.0292,-3.5511 -4.0584,-2.0292 -3.5511,2.0292 -2.0292,-3.0438 -2.5365,-3.0438 -3.0438,-1.5219 -3.0438,3.0438 -5.5803,0.5073 -3.5511,1.5219 -5.073,0.5073 -1.0146,-4.0584 -2.0292,-3.0438 2.0292,-5.073 -0.5073,-2.0292 -2.0292,-1.5219 -2.0292,-1.0146 -2.0292,3.5511 c 0,0 1.5219,4.5657 -1.5219,2.0292 -3.0438,-2.5365 -4.0584,-5.073 -4.0584,-5.073 l -2.5365,-0.5073 0.5073,3.0438 0,1.5219 -2.0292,1.0146 -3.0438,1.5219 -0.5073,2.0292 -2.5365,0 1.0146,3.0438 0,6.0876 0,2.0292 -6.0876,3.0438 -2.0292,-3.0438 1.0146,3.0438 1.5219,4.0584 1.0146,3.5511 1.5219,4.5657 1.5219,5.073 6.5949,1.5219 5.073,1.0146 2.5365,4.0584 2.5365,8.1168 0,4.0584 2.0292,5.5802 -7.6095,2.0292 -11.6679,5.5803 -7.6095,2.0292 -9.6387,2.0292 -7.6095,2.5365 -1.5219,1.5219 -3.0438,1.0146 -2.0292,-3.5511 -3.5511,1.5219 -6.0876,0 -5.5803,-3.0438 -5.5803,-4.0584 -5.073,-5.073 -3.5511,-1.0146 -1.5219,-6.5948 -2.5365,-0.5073 -4.5657,0 -1.0146,2.0292 -0.5073,3.551 z m 308.1846,78.8852 7.6095,-0.761 4.0584,0 1.2683,2.0292 0,3.0438 c 0,0 -1.7756,5.073 -1.0146,6.0876 0.7609,1.0146 1.5219,2.2829 1.5219,3.2975 0,1.0146 0,4.0584 0,4.0584 l -3.2975,2.5365 -1.2682,3.0438 0,3.5511 -1.5219,3.0438 -2.5365,1.0146 c 0,0 -2.2829,-2.0292 -3.2975,-2.5365 -1.0146,-0.5073 -4.8193,-3.5511 -4.8193,-3.5511 l -3.8048,-2.5365 -6.0876,-4.8194 -4.312,-3.0438 -1.2683,-1.7755 3.0438,-2.7902 4.5657,-1.7755 4.3121,-2.2829 3.0438,-3.2974 3.8047,-2.5365 z m -1.0146,-15.7263 6.5949,-2.0292 2.5365,3.5511 -3.2974,3.2974 c 0,0 -4.8194,2.5365 -4.8194,1.5219 0,-1.0146 -0.7609,-7.3558 -1.0146,-6.3412 z m 87.4063,35.2365 2.8698,-0.7175 2.1523,0.7175 2.1522,0.1793 0.8968,1.0762 -0.538,1.9729 -1.4349,1.9729 -1.0761,0.7175 -0.7175,2.6903 -1.7936,0.5381 -3.2284,0.1794 -1.6142,1.0761 -0.1794,2.1523 c 0,0 -0.8968,0.1794 -1.0761,-0.7174 -0.1794,-0.8968 -0.1794,-2.511 -0.1794,-2.511 l -2.8697,0.538 -2.6903,-1.7935 c 0,0 -0.3588,-0.3588 -1.2556,-1.0762 -0.8967,-0.7174 -2.1522,-2.3316 -2.1522,-2.3316 l -1.973,-0.1794 -2.6903,-1.9729 -2.3317,-0.5381 c 0,0 -2.1523,-0.7174 -2.511,-1.4349 -0.3587,-0.7174 -0.7174,-2.1522 -0.7174,-2.1522 l -0.1794,-3.4078 c 0,0 0,-1.973 0,-2.6904 0,-0.7174 0.3587,-3.7665 0.3587,-3.7665 l 0.1794,-2.3317 1.0761,-0.7174 5.022,0.1794 1.7936,-1.2555 1.6142,-1.7936 1.2555,-1.6142 0.1794,-2.6904 -0.1794,-1.9729 -0.7174,-2.8697 0.5381,-2.3317 2.3316,-1.4349 1.6143,-0.1793 1.4348,1.9729 0.7174,1.973 -0.1793,1.4348 -1.0762,1.6142 -1.2555,1.2555 0,1.6143 0,1.6142 -0.538,2.3316 c 0,0 0,0.3587 -0.7175,0 -0.7174,-0.3587 -1.6142,-0.8968 -1.6142,-0.8968 l -0.7174,1.2555 0.7174,1.7936 1.0762,0.3587 0.3587,1.7936 0.1793,2.6904 0,3.2284 0.1794,3.2284 1.4349,1.0762 2.1522,1.2555 1.4349,1.9729 1.0761,0 0.7175,-0.7174 1.2555,-0.5381 1.4348,0.1794 z m 9.6854,4.4839 1.6142,-2.6904 2.3316,-0.3587 3.0491,3.4078 1.2555,1.7936 -1.0761,4.6633 c 0,0 -1.973,1.2555 -2.8698,1.7936 -0.8968,0.538 -3.049,1.9729 -3.049,1.9729 l -3.5872,0.3587 -3.2284,-1.6142 -0.1794,-1.2555 c 0,0 0,-0.7174 0.8968,-1.2555 0.8968,-0.5381 2.511,-1.9729 2.511,-1.9729 l 0.8968,-2.3317 1.4349,-2.511 z m 0.1793,18.1151 1.6142,-2.511 c 0,0 2.1523,-1.2555 2.8697,-1.7936 0.7175,-0.538 4.3046,-2.511 4.3046,-2.511 l 2.3317,-0.1793 1.2555,1.4348 c 0,0 2.6903,0.8968 3.4078,0.8968 0.7174,0 2.8697,-0.3587 2.8697,-0.3587 l 2.511,1.0762 c 0,0 0.3587,-1.2555 1.7936,-1.2555 1.4348,0 1.9729,-1.4349 1.9729,-1.4349 l 2.3317,0.7174 3.4078,0.1794 2.8697,1.6142 2.3316,2.3316 1.2555,2.3317 -2.1523,-0.3587 -0.8968,1.0761 -1.7935,1.2555 -0.3587,1.2555 -0.5381,2.3317 -1.7936,2.3316 -1.7936,0.5381 -1.7935,0.1794 -1.4349,0.7174 -2.6904,1.2555 -0.7174,0.8968 -2.3316,0.8968 -1.0762,0.7174 -1.4349,0.7174 -0.7174,0.1794 -2.511,-0.7174 -1.9729,-0.5381 -1.4349,0.5381 -2.511,0.8967 -0.7174,-1.7935 c 0,0 -0.1794,-1.973 -0.3587,-2.6904 -0.1794,-0.7174 -0.1794,-2.1523 -0.1794,-2.1523 0,0 -1.2555,-2.6903 -1.9729,-2.8697 -0.7175,-0.1794 -1.973,-2.1523 -1.973,-2.1523 l -1.0761,-1.4349 -0.8968,-1.6142 z m -63.1339,-102.4131 2.8698,-1.4349 4.3045,-3.2284 3.5872,0.7174 5.022,0 -2.1523,3.5871 -3.2284,4.3046 -1.7936,4.3046 6.8156,0.3587 2.8697,1.0762 -0.7174,6.4568 -2.511,2.8698 -3.9459,-1.4349 -4.3046,-2.1523 0.3587,1.4349 1.0762,6.4568 -2.1523,3.9459 -4.6633,0.7174 -3.5871,5.7395 -8.6092,1.0761 -4.3046,0.7175 -3.9459,-0.3588 c 0,0 0.3588,-1.4348 -0.3587,-3.5871 -0.7174,-2.1523 -1.7935,-5.3807 -1.7935,-5.3807 0,0 0.7174,-3.9459 -0.7175,-4.3046 -1.4348,-0.3587 -3.9458,-1.7936 -3.9458,-1.7936 l -3.2285,-3.2284 c 0,0 1.7936,-2.511 3.2285,-2.1523 1.4348,0.3587 7.1743,-0.7175 7.1743,-0.7175 l 5.022,-1.7935 2.8697,-2.8697 2.1523,-2.5111 -0.3587,-4.3045 1.7935,-2.511 3.9459,0 3.2284,0 z m -38.1955,-45.9754 6.3413,2.0292 3.8047,3.5511 2.2829,5.8339 -6.3413,4.3121 -2.2828,5.073 c 0,0 -3.2975,3.0438 -4.3121,2.5365 -1.0146,-0.5073 -3.8047,-5.3267 -4.8193,-5.834 -1.0146,-0.5073 -4.3121,-3.2974 -4.3121,-3.2974 l -2.5365,-5.5803 5.3267,0.5073 4.0584,-0.5073 2.5365,-5.073 0.2536,-3.5511 z m 127.8396,104.3769 1.2682,-1.3951 2.2829,-1.6487 1.9024,-1.3951 2.7901,-1.1414 2.156,-0.5073 2.0292,-0.6341 0.5073,1.0146 -2.5365,1.2682 -1.7755,0.761 -2.7902,0.8877 -1.1414,0.8878 -1.3951,1.0146 -1.395,0.6341 -1.2683,0.8878 -0.6341,-0.6341 z m 24.7308,-21.9407 1.5219,-0.5073 1.2683,0.3805 0.2536,1.6487 -0.8877,1.0146 -1.6488,1.5219 -1.6487,2.156 -0.8878,1.0146 -1.0146,1.3951 -1.9023,1.7755 -1.2683,0.8878 -1.3951,1.5219 -1.395,1.3951 -1.7756,0.2536 -0.6341,-1.1414 1.1414,-1.0146 1.2683,-0.8878 1.395,-1.2682 1.2683,-1.1415 1.5219,-0.8877 c 0,0 0.7609,-0.761 0.7609,-1.2683 0,-0.5073 0.1269,-2.0292 0.1269,-2.0292 l 0.6341,-2.0292 1.6487,-1.7755 1.6487,-1.0146 z m 10.458,-23.5471 3.5872,0.3587 c 0,0 1.2555,-0.3587 1.2555,0.5381 0,0.8968 0,2.6904 0,2.6904 l 1.0761,2.511 0.7174,0.7174 0.3588,2.511 -3.4078,-0.7174 -2.1523,-0.8968 -0.8968,0.8968 -0.3587,1.7935 -1.973,0.7175 -1.0761,-2.1523 0,-3.2285 1.2555,-1.0761 2.1523,-0.7174 1.2555,-1.4349 -1.2555,-1.0761 -1.973,0.3587 -0.1793,-1.973 1.6142,0.1794 z m -2.3316,18.4738 2.6903,1.7936 0.3587,1.9729 -1.7935,0.7175 -2.6904,0 -2.1523,-1.0762 -0.3587,-1.2555 1.7936,-1.0761 2.1523,-1.0762 z m 4.4839,4.6633 1.6142,-0.538 1.973,1.7935 1.2555,3.5872 -1.7936,1.9729 -2.511,0.8968 -1.6142,-3.0491 -1.7936,-2.1523 -2.3317,-0.7174 1.4349,-0.1794 3.7665,-1.6142 z m -36.3265,-73.1485 6.5949,-3.2974 5.073,1.0146 1.2682,3.5511 c 0,0 -0.2536,2.7901 -1.2682,3.2974 -1.0146,0.5073 -4.3121,2.0292 -4.3121,3.2975 0,1.2682 -3.0438,6.8485 -3.0438,6.8485 0,0 -3.0438,0.5073 -4.5657,-0.5073 -1.5219,-1.0146 -2.7901,-1.5219 -3.2974,-2.7901 -0.5073,-1.2683 -1.0146,-4.5657 -1.0146,-4.5657 l 1.0146,-3.0438 1.5219,-0.2537 c 0,0 0,-1.5219 0,-2.5365 0,-1.0146 -0.761,-2.7901 0.2536,-2.2828 1.0146,0.5073 2.2829,1.7755 1.7756,1.2682 z m -54.5126,183.9114 -3.3196,2.2676 -5.3266,-0.5073 -7.6095,-1.2682 -1.5219,-3.2975 -2.5365,-7.3558 c 0,0 -3.2975,-3.0438 -4.8194,-3.0438 -1.5219,0 -6.3412,-1.5219 -7.6095,-2.2829 -1.2682,-0.7609 -4.0584,-0.7609 -4.0584,-0.7609 l -5.8339,-1.0146 -0.761,-2.7902 3.5511,-4.5657 4.0584,-5.5803 3.5511,-1.5219 1.2683,2.5365 7.6095,0.5073 5.5803,-0.2536 4.312,0.5073 7.3559,2.2828 5.5803,-0.5073 6.5948,-0.2536 3.8048,1.5219 c 0,0 2.7901,2.7901 3.8047,3.2974 1.0146,0.5073 5.5803,3.0438 6.8486,3.8048 1.2682,0.7609 6.8485,-0.2537 6.8485,-0.2537 l 6.0876,-2.2828 5.073,-2.7902 4.5657,-4.0584 4.0584,-2.0292 4.5657,-3.0438 3.5511,0.761 3.8048,1.5219 3.4223,-2.6478 5.022,-9.3266 2.1523,-7.1743 1.4349,-5.0221 -1.4349,-9.3265 2.1523,0 7.1743,0.7174 8.6092,0 8.6091,2.1523 7.1743,0 7.1743,-0.7175 3.5872,-5.022 0,-5.7394 -5.022,-2.8697 -5.7395,3.5871 -2.1523,0 0,-5.7394 3.5872,2.8697 4.3046,-1.4349 5.022,-1.4348 0,-5.7395 -2.8697,-1.4348 -3.5872,-1.4349 2.1523,-7.1743 2.1523,-5.7394 0,-4.3046 -2.8697,-8.6092 -5.022,-5.022 -5.7395,-3.5871 -2.1523,-7.1743 -2.1523,-10.0441 -9.3266,-3.5871 -0.7174,-6.4569 0,-5.7394 1.4349,-11.4789 -4.3046,-7.1743 -6.4569,-2.1523 -4.3046,-7.1743 0,-7.8917 -3.5871,-2.1523 -10.044,-2.1523 -7.9912,-0.2234 -0.2565,-3.6736 0.016,-4.328 -0.4,-2.6 -0.912,-2.272 -1.896,-1.128 -2.104,-1.288 -1.512,-2.336 -5.664,-15.384 23.368,-9.952 2.264,-0.952 14.872,-2.072 12.344,-3.464 45.632,-8.472 23.928,-3.528 1.304,0.056 1.248,0.064 1.776,-0.4 22.92,-7.04 2.88,-1.544 2.424,-1.816 0.56,-1.744 1.264,-7.456 -2.72,-0.824 -3.336,6.088 -1.84,1.712 -8.176,3.376 -10.088,3.976 -3.248,0.72 -3.4,0.08 -2.584,-1.088 -1.368,-2.296 -0.48,-1.88 -0.01,-1.744 -0.4,-4.848 -0.16,-2 -0.24,-2.352 -1.864,-3.032 -2.08,-1.576 -3.12,-1.328 -35.928,-14.448 -5.28,4.216 -4.784,3.512 -5.008,3.072 -4.616,1.048 -3.584,-0.456 -3.96,-1.72 -2.328,-1.928 -0.8,-1.096 -1.32,-1.84 -0.8,-2.352 12.672,-42.072 13.872,-23.464 16.392,-17.424 12.632,-17.984 -8.184,-16.2 -10.88,-15.632 -1.52,-2.888 -3.376,-8.848 -1.768,-4.8 3.376,-1.264 4.064,-1.568 0.824,-0.36 -5.856,-12.92 -6.304,-13.04 -2.848,-5.056 -5.16,-16.2 -0.016,-7.528 -0.24,-31.648 -0.16,-17.016 -0.24,-6.392 -0.16,-8.192 0.08,-3.608 1.272,-0.536 4.272,-1.76 2.096,-16.08 -0.56,-0.288 -10.24,-4.328 -3.784,0 -8.096,0.056 -5.304,0.256 -9.776,-10.216 0.04,-4.616 0.872,-3.12 1.52,-2.12 1.416,-1.896 0.968,-3.568 0.72,-4.176 -2.536,-2.952 -22.616,-24.248 44.584,-37.712 2.208,-0.696 1.92,-1.416 0.56,-2.816 -2.04,-4.624 -2.92,-4.688 -1.944,-1.728 -0.48,-0.392 -13.752,-14.92 1.872,-6.712 1.832,-8.464 0.912,-4.568 -20.128,-26.232 -28.928,-18.984 -5.128,-7.456 -8.16,-46.56 -27,-15.76 14.896,-1.288 12.936,-3.528 6.032,-2.272 7.952,-3.888 16.4,-10.768 6.344,-6.096 24.04,-25.752 1.224,-2.824 1.648,-4.48 0.56,-1.992 -0.952,-29.696 -0.72,-6.224 0.16,-3.656 22.256,-32.296 22.312,-18.072 3.224,-0.608 11.808,-4.728 1.256,-3.08 0.024,-3.552 -0.4,-2.864 -6.28,-28.848 -0.904,-3.272 -1.04,-3.088 -7.96,-9.08 0.864,-2.152 2.856,-3.24 38.36,-33.752 17.272,-8.64 2.704,2.688 2.36,1.256 4.096,1.12 3.136,0.112 3.464,-0.968 1.248,-2.16 -0.16,-2.992 -0.16,-1.48 -1.488,-14.6 0.72,-28.976 -4.216,-1.552 -3.208,-1.656 -3.176,-2.216 -0.4,-2.728 -0.56,-17.784 4.024,-0.776 3.496,-1.224 3.6,-2.584 17.888,-17.84 1.736,-17.136 18.016,-72.856 1.584,-2.808 15.664,-23.168 16.04,-15.152 3.896,-0.528 3.912,-1.36 3.272,-1.864 5.92,-7.352 -1,8.952 2.616,3.304 1.408,1.04 3.184,0.504 9.16,1.192 7.136,1.04 12.704,2.296 0.024,1 0.08,9.224 -6.232,32.936 -0.56,2.624 -1.024,2.544 -9.648,23.072 -18.344,33.352 -1.456,2.48 -5.304,6.448 -0.56,0.096 -6.448,1.44 -6.208,-0.152 -2,-0.584 -2.128,0.08 -20.992,9.424 -1.128,0.736 -9.336,17.024 -0.56,1.776 7.784,12.576 2.72,2 1.832,0.84 1.856,0.552 1.48,0.8 6.648,4.656 2.056,1.88 1.968,2.32 1.552,2.648 14.304,26.568 5.848,11.624 2.064,5.616 16.536,18.456 2.128,1.936 13.44,1.544 24.88,9.056 27.52,16.12 0.4,1.472 -0.24,2.104 1.248,10.152 0.56,3.24 1.104,2.696 1.6,1.712 2.776,1.112 4.688,1.28 7.752,1.56 20.312,3.912 4.672,0.424 3.496,-1.088 2.896,-1.528 2.368,-1.76 1.168,-2.728 0.048,-2.744 0.24,-3.072 0.808,-2.976 1.472,-1.448 11.92,-0.84 27.048,-0.504 8.768,3.248 7.456,3.688 1.184,-0.176 17.088,-27.272 1.624,-2.68 3.768,-8.736 -0.24,-2 -0.32,-2.52 0.064,-1.992 0.64,-1.504 2.376,-4.976 1.176,-2.176 18.064,-19.216 14.192,-4.368 1.704,-0.384 2.76,0.344 5.168,0.664 25.92,7.928 2.04,0.896 1,1.12 5.072,4.952 2.224,1.576 3.864,1.952 23.752,3.424 5.472,0.36 2.224,-0.56 26.736,-13.744 25.832,25.96 1.288,16.792 -6.664,42.816 -11.624,47.312 -0.16,2.44 0.16,5.664 0.896,4.792 1.768,5.552 2.28,6.384 1.872,5.232 1.84,5.528 3.056,9.312 0.24,0.936 -0.16,7.416 -0.8,1.376 -1.424,2.216 -18.464,23.152 -19.872,24.072 -9.952,14.848 -1.008,1.912 -0.4,0.848 -1.56,3.648 -11.096,28.072 -8.664,22.336 -1.4,3.224 -1.736,3.904 -2.072,0.648 -3.696,1.416 -7.192,3.96 -6.872,4.192 -2.784,1.968 -2.64,1.88 -16.416,16.376 1.424,1.624 1.992,2.48 2.576,3.8 1.256,2.184 0.72,1.36 0.4,0.976 -0.08,0.504 -1.2,0.888 -2.84,0.544 -2.44,-0.408 -0.24,-0.04 -10.8,-5.152 6.776,42.088 0.64,4.768 -0.48,1.584 -33.032,63.2 -1.576,2.776 -3.784,5.928 -4.032,5.144 0.32,-16.312 -3.792,10.816 -4.992,17.472 0.24,13.232 0.952,11.544 5.424,3.936 3.32,2.376 4.144,2.608 2.912,1.72 2.896,2.256 8.424,8.056 7.112,8.688 1.752,2.472 23.112,50.48 1.24,3.088 0.16,1.536 -2.4,25.72 0.824,13.096 -34.648,24.704 0.4,0.872 2.048,4.088 1.144,7.304 -1.288,1.544 -1.272,1.432 -0.16,0.144 -2.352,0.776 -2.8,0.336 -0.32,-0.01 -8.104,16.2 3.384,26.152 1.664,7.432 0.72,2.912 -0.32,2.08 -0.16,0.616 -0.08,0.384 -0.32,0.4 -0.4,0.32 -0.64,0.4 -0.48,0.248 -1.944,0.536 -1.088,0.256 -0.944,0.01 -59.352,-11.728 -2.616,-3.448 -12.056,-18.248 -8.408,-13.008 -0.808,-1.432 -6.664,-10.664 -6.328,-9.648 -0.64,-0.888 -0.72,-0.992 -0.64,-0.904 -0.872,-1.08 -1.656,-1.912 -0.72,-0.848 -0.56,-0.544 -4.256,-3.208 -1.056,-0.768 -2.776,-1.728 -11.368,-6.56 -1.608,2.32 0.928,0.568 0.8,0.472 1.912,0.976 0.816,0.304 0.4,0.032 0.32,-0.048 0.8,0.024 0.56,0.176 2.128,0.776 1.104,0.464 1.544,0.824 0.48,0.28 1.416,0.912 1.216,0.808 0.72,0.472 0.56,0.544 0.64,0.6 1.104,1.272 0.56,0.704 6.48,8.608 7.432,10.92 0.32,0.568 9.168,19.368 -1.44,1.2 -3.632,2.568 -1.072,-1.144 -2.112,-2.544 -0.88,-1.08 -0.8,-1.064 -2.528,-3.12 -1.904,-2.344 -1.6,-1.776 -1.792,0.344 -25.168,9.184 -4.32,4.768 -1.616,2.656 6.224,8.168 5.088,4.144 8.36,5.704 -3.048,12.704 -9.424,9.288 -2.024,2.496 -0.984,1.4 -9.792,14.392 -3.824,1.624 -0.56,0.256 -0.4,0.464 -1.24,1.728 -0.72,1.336 -10.728,20.976 -1.728,5.128 -0.4,3.856 -0.04,0.64 0.16,16.944 0.08,0.392 13.52,33.232 10.592,13.184 18.688,22.856 45.824,30.176 2.536,4.024 0.16,0.72 -2.088,6.976 -1.016,-0.32 -0.8,5.432 -0.944,1.568 -1.832,2.096 -1.752,0.8 -2.8,0.56 -22.624,-1.2 -27.056,-0.72 -4.032,1.304 -21.368,11.336 -13.76,7.312 -4.352,2.336 -6.464,4.408 -6.272,5.528 -9.76,7.336 -7.784,4.464 -3.736,1.968 -42.912,22.152 -4.8,0.992 -21.888,1.528 -2.016,0.032 -2.312,-0.08 -9.024,-0.72 -1.744,-0.904 -3.72,-5.776 -1.272,-2.584 -0.64,-1.312 -1.376,-1.712 -2.456,-2.6 -2.024,-2.12 -1.416,-1.248 -5.216,-3.848 -2.744,-1.664 -1.232,-0.32 -2.792,-0.48 -3.24,-0.48 -1.112,-0.024 1.08,3.656 2.112,6.792 8.056,5.392 7.784,7.864 0.896,3.656 -1.12,1.792 -21.12,32.04 -2.872,3.432 -2.352,2.08 -11.152,9.672 -1.448,-0.56 -3.888,0.16 -1.968,0.72 -3.392,1.336 -16.864,8.184 -28.216,17.76 -2.76,2.024 -22.072,15.776 -1.584,-0.32 -37.184,-0.56 -19.336,1.688 -32.144,4.76 -1.2475,0.7184 z"
       id="Go"
       style="fill:#e45c36;fill-opacity:1;stroke-linecap:butt;stroke-linejoin:round;stroke-miterlimit:4;stroke-opacity:1;stroke-dasharray:none;display:inline" />
  </g>
  <g
     id="Udine"
     style="fill:#e45c36;fill-opacity:1;stroke:#ffffff;stroke-width:3;stroke-miterlimit:4;stroke-opacity:1;stroke-dasharray:none">
    <path
       d="m 2238.4189,3403.7071 0.6571,2.6089 6.168,2.024 1.856,1.944 0.984,3.776 -0.08,1.232 -0.4,2.144 -0.72,2.592 -2.208,4.992 -4.304,6.592 -4.184,5.168 -2.352,2.872 -9.168,8.824 -4.72,4.48 -11,9 -12.456,10.144 -10.392,8.304 -13.36,10.864 -5.776,4.944 -14.056,12.584 -2.472,2.272 -13.904,14.144 -2.304,2.496 -1.784,2.104 -1.472,2.056 -1.856,2.8 -6.76,12.848 -3.176,7.696 -2.216,5.848 -3,9.144 -3.752,13.768 -4.096,20.624 -4.152,-2.96 -2.096,-1.504 -30.656,-23.48 -7.2,-17.08 0.16,-0.64 0.16,-0.848 0.032,-0.8 -0.048,-0.56 -0.32,-1.256 -0.48,-0.896 -0.72,-0.8 -0.8,-0.64 -1.584,-1.192 -5.36,-2.752 -0.96,-0.24 -2.128,-0.64 -1.568,-0.32 -2.32,-0.32 -2.536,-0.16 -2.216,-0.08 -1.4,0.024 -1.792,0.16 -1.784,0.32 -1.376,0.32 -2.104,0.888 -5.848,2.784 -3.32,1.944 -1.856,1.264 -3.448,2.216 -3.592,1.872 -1.2,0.56 -1.952,0.56 -1.056,0.32 -0.64,0.024 -0.64,-0.064 -0.72,-0.32 -0.48,-0.32 -1.408,-1.168 -0.808,-1.056 -0.72,-1.176 -0.96,-1.744 -0.56,-1.216 -1.552,-4.416 -0.8,-2.544 -0.056,-0.8 -0.08,-1.488 -0.16,-5.208 -0.01,-3 0.08,-1.672 0.32,-1.552 1.76,-5.824 0.16,-0.4 2.248,-4.848 9.112,-15.872 -0.4,-5.312 -3.968,-11.568 -1.12,-3.104 -3.752,-7.016 -2.704,-2.808 -2.944,-1.224 -3.056,-0.32 -3.736,0.48 -5.352,4.296 -2.88,2.464 -1.328,0.72 -1.008,-0.32 -1.928,-0.64 -3.712,-2.752 -20.192,-18.456 -2.736,-2.672 -2.088,-4.216 -0.08,-3.56 1.04,-2.76 0.904,-1.216 0.48,-0.08 1.192,-0.24 3.336,0.912 3.712,0.8 2.12,-0.24 1.632,-0.4 1.968,-1.472 2.224,-2.688 2.072,-3.92 1.816,-3.728 1.344,-4.032 1.816,-6.336 0.48,-3.368 -0.816,-3.432 -1.752,-3.296 -3.584,-1.848 -3.264,-0.4 -3.72,0.84 -1.48,1.688 -0.968,2.744 -0.88,3.432 -1.048,2.52 -1.688,0.32 -1.344,0.24 -1.8,-0.32 -18.72,-16.928 -3.192,-2.992 -1.264,-3 -0.032,-0.08 0.4,-2.424 5.816,-37.28 1.888,-29.576 -0.56,-2.968 -1.328,-3.224 -3.272,-3.16 -4.448,-2.936 -6.584,-3.848 -3.304,-1.8 -3.264,-1.28 -4.224,-2.608 -3.704,-3.56 -1.832,-4.992 0.08,-6.112 0.808,-6.216 0.72,-4.048 0.944,-3.696 0.24,-1.072 1.896,-4.32 0.48,-3.72 -0.48,-0.48 -1.296,-1.416 -2.688,-0.72 -1.728,0.16 -1.04,0.16 -3.288,1.576 -4.672,2.912 -4.976,4.064 -5.216,4.352 -9.08,9.336 -1.112,1.904 0.16,2.976 0.48,4.048 -0.032,4.08 -0.08,3.096 -0.56,1.624 -0.72,2.24 -1.992,2.152 -3.032,1.904 -1.88,0.976 -2.976,0.16 -1.424,-0.48 -1.696,-0.56 -1.336,-0.48 -1.688,-0.64 -2.76,-1.2 -1.344,-1.16 -1.68,-4.392 -0.48,-5.184 0.16,-4.72 0.24,-1.768 0.832,-5.976 2.656,-4.48 3.496,-2.56 4.072,-2.264 4.52,-2.136 3.384,-1.888 2.584,-1.8 1.12,-2.384 -1.112,-19.44 -0.904,-2.4 -2.856,-2 -3.056,-1.456 -3.248,-0.928 -3.6,-1.168 -5.008,-1.752 -5.416,-2.656 -4.504,-3.728 -7.024,-6.04 -2.544,-3.136 -0.856,-3.24 0.24,-2.616 7.064,-22.544 8.296,-15.4 1.632,-18.048 -28.424,-17.192 -24.552,-20.576 -18.136,-38.48 0.064,-21.728 21.32,-10.288 2.672,-1.424 3.016,-2.656 1.232,-3.088 -0.08,-3.96 -0.944,-3.856 -1.92,-3.024 -2.832,-2.296 -1.704,0.408 -0.912,0.248 -1.696,1.16 -0.32,0.36 -1.376,2.8 -0.8,3.408 -0.56,3.288 -0.32,3.776 -1.04,2.68 -3.016,2.712 -4.192,1.088 -3.568,-0.784 -2.584,-1.6 -0.24,-0.336 -1.472,-1.928 -16.952,-32.16 -1.552,-3.624 0.896,-3.44 9.832,-21.952 2.328,-3.04 2.536,-0.752 0.56,-0.16 4.048,-1.136 1.696,-0.304 4,1.184 1.4,3.072 0.928,4.72 0.64,3.936 1.56,3.928 2.552,2.88 3.128,2.824 3.008,0.704 3.392,-1.064 1.208,-0.496 1.512,-0.8 2.52,-3.16 3.856,-8.88 1.08,-5.128 -0.48,-2.976 -3.152,-2.392 -4.288,-3.152 -5.08,-3.448 -0.72,-0.504 -4.592,-2.456 -0.08,-0.04 -3.736,-1.072 -1.528,-0.224 -2.552,-0.384 -4.712,0.36 -1.704,0.2 -4.064,0.712 -1.64,-0.168 -2.968,-0.304 -3.504,-0.968 -1.328,-0.52 -2.216,-0.856 -5.856,-3.648 -0.8,-1.456 1.08,-5.064 1.256,-2.184 3.784,0.096 3.264,-1.224 1.632,-0.648 2.816,-3.248 1.56,-0.952 1.36,-0.848 7.64,-9.648 -13.216,4.808 -0.4,8.032 -1.104,0.304 -0.24,0.072 -1.168,0.32 -1.656,0.384 -3.456,0.184 -1.712,-2.664 -1.816,-3.592 -4.888,-10.568 -0.48,-2.208 3.256,-3.136 18.752,-16.16 1.016,2.24 6.528,-0.216 2.32,-0.344 2.968,-0.712 1.296,-0.704 -6.56,-63.8 -5.904,-26.488 -13.632,-51.2 -12.84,-10.568 -14.824,-11.952 -18.584,-14.672 -1.864,-0.768 -6.96,-1.464 -3.04,-0.64 -2.672,-0.272 -5.48,-0.28 -28.184,-19.44 -4.208,-4.968 -12.352,-7.8 -7.144,-4.344 -14.48,-19.144 -10.696,-14.304 -2.048,-3.536 -10.416,-23.864 -4.864,-12.096 -13.392,-64.224 -5.48,-30.128 -1.896,-10.488 -9.432,-67.272 -0.08,-6.256 3.336,-30.48 1.904,-16.52 1.448,-6.52 7.888,-30.712 7.624,-44.088 -0.8,-12.208 -0.016,-2.936 0.24,-3.896 0.4,-4.24 6.208,-57.776 2.08,-20.192 3.312,-47.288 -1.384,-22.576 -0.24,-20.656 0.64,-17.248 1.28,-7.848 -0.8,-26.472 0.872,-9.776 1.232,-9.672 1.224,-4.76 2.344,-6.024 7.6,-17.36 16.4,-41.856 5.8,-39.456 9.376,-62.44 2.648,-11.584 3.416,-12.544 4.304,-11.04 2.8,0.64 4.768,-16.024 1.584,-5.76 0.72,-3.752 0.4,-2.536 -0.56,-6.192 0.24,-3.552 1.152,-3.84 8.68,-10.4 10.696,-18.704 -2.096,-8.672 0.4,-3.536 2.368,-6.448 4.32,-4.304 2.88,-4.224 13.272,-52.96 4.296,-32.616 -0.72,-4.472 -0.32,-4.112 -0.048,-4.296 1.216,-3.928 4.208,-9.72 2.256,-4.32 4.4,-5.232 5.584,-4.232 4.664,-3.12 -7.752,-13.336 -3.352,-4.92 -6.648,-8.888 -0.08,-0.112 -3.896,-4.112 -0.32,0.024 -3.608,0.264 -5.456,0.12 -10.224,-1.872 -1.624,-0.32 -0.984,-0.4 -10.496,-8.856 -0.4,-1.504 -2.352,-9.112 -0.32,-1.096 -2.704,-1.608 -10.616,-4.464 -3.448,-0.784 32.632,-17.4 16.664,-20.8 8.344,-14.4 0.8,-0.792 1.264,-1.304 0.56,-0.576 14.576,-10.576 9.768,-5.92 8.672,-3.848 2.416,-1.288 5.104,-9.224 -1.696,-18.032 -1.28,-3.496 -0.936,-31.824 3.84,-3.448 1.872,-3.112 4.304,-7.824 0.56,-2.168 -3.624,-14.368 -0.824,-1.992 -2.944,-6.448 -2.344,-6.408 7.28,-16.104 3.44,-2.344 7.088,-2.24 10.424,-3.952 4.472,-1.784 2.984,-1.544 1.392,-0.72 3,-1.976 2.088,-1.496 2.912,-2.56 -13.504,-8.488 -50.576,-29.344 -3.432,-2.408 -24.136,-26.512 -1.416,-4.392 -6.728,-26.36 0.16,-2.432 0.816,-3.32 5.312,-7.84 3.072,-1.648 2.376,-0.248 2.224,-0.64 5.656,-1.968 0.48,-0.344 1.44,-1.12 22.96,-22.44 9.088,-9.408 4.368,-6.72 1.568,-2.896 -0.72,-3.312 -5.008,-20.296 0.16,-15.128 -15.872,-4.304 -4.512,-2.32 -4.608,-3.12 -3.6,-3.104 -2.2,-2.28 -0.56,-1.784 -1.976,-14.488 -5.008,-0.784 -2.248,-0.136 -24.64,3.616 -12.096,6.072 -2.184,2.176 -12.624,-0.016 -9.984,-0.016 -3.232,-2.504 -3.712,-3.592 -5.816,-7.352 -0.72,-1.216 -2.192,-4.096 -3.168,-4.2 -1.304,-1.48 -1.224,-1.232 -8.528,-7.896 -10.056,-5.784 -16.448,-7.416 -0.968,2.92 -6.872,14.472 -9.048,18.232 -1.832,3.368 -3.864,4.88 -36.768,14.424 -4.048,0.472 -21.168,1.56 -3.768,-0.848 -17.288,-7.44 -0.32,-1.264 0.48,-1.816 0.48,-1.432 2.8,-5.912 4.28,-10.68 4.48,-12.328 -0.4,-0.632 -1.912,-0.776 -1.712,1.392 -2.28,1.248 -1.856,0.048 -3.672,-0.848 -23.264,-6.824 -15.272,-6.576 -2.688,-1.04 -1.88,-0.536 -13.504,2.152 -10.712,1.776 -10.184,1.808 -13.976,2.68 -4.416,1.304 -10.4,-0.904 -3.68,-1 -2.296,-2.912 -0.72,-3.568 -0.48,-3.696 -2.272,-3.432 -18.008,-21.784 -11.976,-11.376 -5.672,-2.032 -3.288,-0.952 -4.56,-1.2 -11.984,-3.152 -1.896,-1.176 -6.6,-2.6 -3.864,4.536 -2.976,3.536 -2.448,2.616 -1.12,1.192 -7.08,1.272 -12.432,1.672 -23.36,-3.984 -31.416,3.912 -0.16,1.368 1.92,5.424 1.968,3.672 3.704,5.424 -6.832,19.472 -31.864,11.704 -17.696,4.856 -19.424,4.544 -12.136,1.856 -3.416,-0.328 -33.952,10.648 -24.336,17.776 -1.736,2.768 -9.264,6.376 -26.472,10.896 -8.464,2.68 -3.736,-1.768 -34.616,-46.104 -1.184,-2.104 -0.56,-2.152 -0.72,-2.696 -0.08,-2.216 0.4,-7.208 -2.448,-1.088 -5.512,-2.32 -31.912,-12.456 -41.392,4.896 -5.312,1.696 -3.856,2.192 -8.592,12.848 -1.144,2.648 -0.8,3.096 -0.872,2.336 -1.712,2.416 -1.544,0.936 -15.912,5.568 -3.464,0.288 -3.624,-0.416 -20.576,-8.696 -2.496,-0.216 -12.328,-12.648 -2.288,-3.32 -1.472,-4.328 -0.4,-2.272 -1.48,-1.272 -8.264,-5.176 -2.88,-1.072 -22.064,4.992 -8.632,3.12 -4.424,1.864 -1.848,2.504 -3.264,1.96 -3.448,0.84 -3.632,-0.912 -7.736,-2.648 -29.272,-15.928 11.944,-7.832 1.648,-0.912 7.968,-7.432 4.824,-4.504 0.48,-1.544 -0.24,-2.224 -1.048,-2.16 -50.128,-40.592 -1.512,-0.064 -6.936,2.296 -3.024,1.84 -1.688,2.144 -2.04,1.736 -1.76,0.976 -6.816,1.864 -32.344,-8.784 -21.728,-7 -5.768,11.432 -1.512,2.808 -2.424,3.144 -3.128,2.952 -2.72,2.44 -6.456,3.12 -16.944,7.128 -2.816,-1.456 -13.736,-8.816 -2.296,-1.672 -2.552,-2.384 -0.24,-0.256 -14.24,-15.4 -2.936,-5.04 -2.68,-5.424 -3.48,-7.616 -1.76,-7.304 -4.392,-18.656 -6.752,-30.472 -1.608,-9.152 -1.272,-11.448 -1.36,-12.096 -4.832,-4.488 -0.064,-0.056 -5.928,-3.16 -13.4,-7.04 -28.36,-29.64 -3.616,-6.152 -11.24,-20.552 -5.032,-20.624 -0.48,-2.088 1.392,-2.36 2.488,-4.088 6.808,-8.608 6.688,-14.592 -0.24,-3.384 1.128,-2.808 8.336,-12.992 2.712,-3.68 3.312,-3.984 3.464,-3.392 21.328,-18.032 4.224,-2.144 14.928,-5.776 19.112,-17.544 -1.856,-9.272 -0.56,-4.688 0.032,-5.168 0.072,-3.744 1.056,-2.744 7.424,-15.384 1.664,-1.48 0.48,0.112 15.688,18.584 13.168,2.912 0.72,-1.472 10.752,-10.44 7.616,-6.64 20.544,-17.888 10.392,-7.464 18.68,-12.12 7.512,-3.432 44.168,8.28 17.848,6.376 4.968,2.28 13.392,11.888 6.968,6.648 6.304,3.608 3.776,1.656 1.952,-0.56 1.92,-3.4 3.312,-5.304 21.704,-24.896 2.224,-1.704 1.512,-1.16 4.104,-2.264 2.88,-1.024 33.888,3.368 9.608,2.664 14.776,4.856 4.072,4.112 2.848,5.544 11.144,11.032 15.456,3.96 4.52,0.84 7.872,-2.704 8.088,-7.12 0.16,-2.32 0.048,-2 -14.984,-43.008 -7.616,-11.568 -2.4,-1.528 -2.984,-0.944 -3.4,-1.648 -19.264,-14.36 -3.592,-3.312 -33.224,-36.736 0.16,-0.464 2.208,-9.168 1.96,-12.752 0.16,-4.048 -0.16,-2.96 -2.68,-11.704 11.832,-5.744 13.64,-6.8 8.264,-4.328 14.76,-7.768 5.528,-2.024 61.848,-21.52 5.568,-1.832 13.056,-7.592 3.888,-2.736 1.416,-2.168 0.048,-0.072 0.32,-2.512 1.296,-5.072 0.72,-1.976 3.072,-4.112 17.968,-16.696 3.8,-2.32 16.816,-7.752 48.024,-15.632 17.392,7.952 17.312,9.176 47.016,-7.896 7.664,-4.688 -2.944,-1.72 -3.048,-1.864 -3.272,-2.432 -6.032,-4.88 -23.072,-23.856 -7.36,-13.688 0.16,-17.2 1.048,-23.984 7.272,-11.512 4.944,-3.08 8.424,-5.248 4.232,-4.944 0.16,-1.632 -0.832,-5.76 -1.328,-7.616 -1.424,-6.08 -0.96,-3.752 -0.16,-0.04 -2.424,-0.512 -3.416,-17.592 -0.32,-3.256 0.56,-3.4 1.696,-5.304 3.136,-16.904 -12.24,-31.048 -5.368,-6.464 -2.776,-2.512 -2.032,-2.224 -0.032,-0.032 -8.544,-9.952 -0.64,-9.6 -1.208,-23.688 2.36,-23.864 -4.328,-14.224 0.32,-2.328 2.352,-2.416 3.216,-2.024 6.336,-5.536 0.88,-2.72 49.576,-37.704 2.424,-1.4 13.2,-6.248 8.744,-1.36 5.792,-0.768 34.344,3.672 6.6,1.44 15.44,3.432 33.072,10.416 1.864,3.376 0.04,3.616 2.272,6.136 1.768,3.904 11.152,10.776 4.024,3.648 17.688,9 -0.24,-0.304 25.976,10.736 5.32,-1.392 12.792,-3.448 7.624,-4.2 6.256,0.592 17.328,11.408 -0.16,1.248 -1.2,3.32 -3.936,9.752 -2.52,4.2 -1.184,5.024 -1.032,15.144 -0.24,16.888 0.4,4.568 4.816,4.36 6.432,4.328 13.08,5.072 11.768,3.64 13.368,2.6 8.056,-0.24 6.136,-0.952 8.808,-4.576 24.952,-6.688 12.216,0.632 16.048,1.872 21.768,3.392 17.224,-5.904 28.368,2.56 38.216,-3.696 7.624,-0.8 5.928,-1.048 25.032,1.92 2.592,2.072 17.144,11.576 11.776,5.4 5.408,2.04 4.264,1.264 1.632,-0.88 7.304,-4.376 3.88,-2.584 2.848,-2.416 4.952,-3.016 30.744,9.664 23.2,6.872 26.552,7.376 3.4,0.8 10.24,-0.504 3.736,-4.96 16.848,-4.752 3.656,-0.448 3.792,1.184 30.368,3.976 10.096,-3.072 12.296,-1.12 2.384,0.952 2.512,1.552 11.536,11.064 24.208,6.512 25.44,4.224 4.048,0.064 4.128,-1.048 20.528,-6.6 14.192,-1.464 10.648,-4.88 47.96,-9.304 2.76,0.424 3.264,0.736 12.512,2.952 5.864,1.96 4.056,4.44 4.08,3.544 4.824,2.736 2.992,1.352 17.904,7.168 3.272,1.224 4.832,-2.568 3.28,-2.392 21.88,5.808 3.824,2.072 6.096,4.232 2.456,2.232 3.48,1.088 4.824,1.12 75.872,8.816 34.376,-1.288 6.496,0.96 0.64,2.584 1.424,7.608 25.952,27.504 2.288,1.432 37.056,18.952 4.912,1.944 4.512,1.696 5.448,-0.32 7.936,-0.608 4.144,-0.608 39.48,6.312 23.688,22.808 14.56,16.712 0.48,2.056 1.368,9.912 -0.888,8.408 13.088,1.456 14.176,-10.568 19.032,-11.808 8.176,-4.096 45.448,-2.544 8.04,0.584 46.328,4.856 33.84,7.744 5.864,4.312 5.872,4.28 3.08,2 4.704,2.528 6.984,2.248 7.656,2.264 4.568,-0.08 9.624,-0.648 11.728,-7.624 21.832,-19.104 10.712,-11.888 21.176,-22.272 2.16,-0.52 33.112,3.792 17.16,-3.968 18.704,9.84 0.72,-4.624 -1.28,-6.864 -2.384,-5.928 -3.232,-5.928 9.28,-16.168 2.136,-3.688 40.688,8.856 7.736,2.608 2.768,1.016 45.944,17.504 -1.336,4.84 -1.176,5.992 -1.416,9.032 -0.92,6.184 0.016,3.792 2.616,3.8 6.664,1.936 40.544,11.368 4.952,1 35.896,-0.072 28.096,-4.448 60.448,5.576 4,-0.536 32.568,-16.088 31.72,-13.432 4.632,-0.464 9.912,-0.824 1.544,3.2 4.368,10.344 2.784,10.416 13.784,30.232 3.672,5.68 4.336,4.016 7.464,3.464 4.6,1.208 7.624,-2.424 30.024,-6.456 5.88,-3.576 7.248,-5.336 3.48,-3.576 6.632,-2.52 15.976,1.328 34.096,5.12 3.6,0.64 3.128,1.376 12.408,15.736 2.024,4 2.664,14.024 0.32,2.776 -1.168,1.248 -1.624,1.704 -0.4,2.272 1.232,1.936 1.808,0.696 6.04,1.112 8.608,1.376 4.68,0.552 0.08,0.008 17.312,-6.888 -0.16,-4.72 1.976,-3.44 5.152,-6.392 2.672,-1.68 13.184,-6.128 13.616,1.552 65.296,12.112 15.96,3.104 4.4,1.896 1.88,2.584 4.848,5.056 22.744,12.32 1.056,0.472 49.976,23.512 48.936,19.64 17.672,4.392 19.384,2.472 42.904,1.32 5.936,-0.448 4.488,-0.544 4.44,-3.776 5.192,-2.8 8.088,29.608 0.32,1.264 0.968,4.72 -1.496,20.848 -1.04,2.688 -3.464,2.96 -3.568,1.04 -3.504,0.68 -3.736,1.216 -3.104,1.656 -12.072,7.28 -3.856,2.544 -1.488,1.44 -2.056,6.872 -0.56,2.368 4.672,27.144 5.568,26.744 1.176,1.016 7.792,6.752 -0.24,1.808 -1.32,2.92 -1.544,2.088 -1.472,1.904 -3.376,4.112 -21.496,24.344 -8.824,9.264 1.528,20.24 4.936,12.784 2.304,8.808 0.08,1.696 -13.664,44.856 -7.296,8.424 -3.688,4.16 -2.28,2.2 -12.232,8.776 -2.256,-0.416 -78.944,-16.944 -0.16,-4.096 -1.016,-2.056 -11.36,-6.312 -2.976,-1.184 -2.48,0.336 -29.6,7.992 -48.16,10.768 -50.16,8.584 -1.936,0.176 -1.872,-2.656 -1.808,-0.744 -1.12,-0.024 -14.416,10.184 -33.16,31.888 -3.264,3.728 -1.2,17.448 -4.272,25.568 -3.784,20.184 -8.168,14.944 -7.264,10.768 -4.032,5.4 -3.464,4.192 -3.592,2.896 -1.624,-0.496 -2.032,-1.736 -1.552,-0.456 -4.08,-0.424 -6.504,1.072 -2.552,0.576 -6.488,7.304 -16.56,14.408 -31.064,21.984 -6.416,2.248 -40.76,5.712 -11.272,4.312 1.592,12.944 0.72,5.512 -1.12,2.088 -2.912,1.8 -48.2,20.32 -10.784,2.52 -14.576,2.48 -16.16,2.352 -2.76,0.24 -0.56,2.104 -0.88,2.952 -1.48,1.528 -10.928,10.904 -2.968,2.376 -15.184,8.328 -5.44,1.336 -2.6,-0.32 -2.096,-1.184 -1.728,-2.16 -13.16,-3.864 -3.624,-0.464 -20.008,-0.264 -9.136,0.432 -2.056,0.424 -24.104,9.392 -1.472,1.472 -2.104,3.296 -2.248,16.192 3.528,4.216 4.624,6.336 7.168,10.656 13.12,43.304 -5.728,20.576 -16.816,29.992 -1.48,1.328 -3.728,0.872 -4.24,-0.096 -3.456,-1.032 -12.68,-1.184 -10.352,-0.872 -20.376,15.704 -1.152,1.696 -5.88,9.912 -0.48,2.688 1.048,16.2 -24.592,14.424 -1.464,1.984 -2.288,4.44 -3.136,7.2 -3.424,6.648 -33.528,2.952 -39.984,3.424 2.744,12.28 3.224,12.688 1.608,3.136 2.616,4.04 2.232,1.16 3.744,-0.096 3.8,-4.024 2.096,-1.944 1.688,2.176 4.568,6.976 15.72,31.504 1.008,9.168 0.32,4.88 0.16,4.48 0.24,3.16 3.144,26.536 11,38.624 2.16,5.968 20.272,35.744 10.312,12.296 3.744,3.192 2.2,-0.016 12.208,4.776 14.224,10.464 1.504,1.744 -1.424,9.992 -18.56,46.208 -5.832,3.336 -3.24,0.832 -3.592,0.688 -1.32,1.872 -1.608,3 -0.64,3.936 1.624,3.744 3.024,5.632 34.2,21.368 18.512,-9.584 40.856,-12.976 2.272,-0.768 1.336,-2.824 2.88,-7 0.848,-2.136 -0.64,-2.176 -6.024,-19.088 -1.632,-4.96 -0.64,-1.272 9.168,-4.984 23.608,-4.264 58.832,5.152 5.464,0.528 9.504,1.024 30.04,8.272 3.72,1.968 5.768,8.584 -1.048,0.704 -2.272,1.352 -1.048,0.408 -0.864,0.6 -0.16,0.624 -0.16,0.848 0.016,0.392 0.4,0.904 1.344,0.688 5.312,2.648 4,1.776 5.128,2.048 13.008,1.488 16.32,0.872 5.136,-0.112 2.864,-2.192 2.296,-2.368 2.376,-1.648 4.192,-1.784 4.968,-2.016 17.144,-3.208 1.992,-0.024 1.544,2.296 -0.64,20.992 10.776,-3.576 3.488,-0.184 11.008,-0.552 18.768,4.792 20.36,12.504 3.936,2.712 19.504,13.624 9.976,36.36 -1.04,4.112 -0.48,17.856 0.992,4.384 4.016,3.312 16.816,5.264 13.616,-4.648 6.824,-4.944 3.544,-3.024 1.976,-2.496 2.36,-2.584 2.784,-2.592 2.24,-1.496 8.56,-2.176 2.608,1.224 3.152,2.104 -1.856,6.744 8.176,-1.768 4.472,-0.152 38.36,9.48 5.864,1.528 4.968,2.04 3.92,2.008 6.8,-2.592 13.76,-6.232 4.296,-2.088 9.104,-5 4.632,-2.816 10.096,-3.992 14.416,6.12 3.176,1.624 7.704,-1.144 10.136,2 1.696,0.912 15.912,9.688 29.568,18.912 1.168,10.36 1.176,18.544 0.24,4.168 -0.936,3.952 -5.256,8.96 -5.72,6.192 -2.016,1.024 -2.52,1.2 -2.488,1.592 -8.152,9.192 -0.872,3.992 -0.24,10.008 -4.464,34.672 -1.664,4.832 -5.52,11.064 -6.648,12.568 -6.968,10.44 -1.232,1.592 -11.672,8.912 -3.76,0.832 -4.2,-0.872 -3.544,-0.536 -2.504,0.464 -10.896,9.368 -9.464,11.224 -5.072,10.576 -41.912,34.856 -11.584,7.672 -6.944,3.712 -6.616,17.528 -11.528,14.136 -2.936,1.76 -13.096,4.856 -17.168,6.28 -8.408,8.64 -3.008,3.568 -5.632,8.088 -0.32,0.648 -0.64,1.176 -4.8,9.96 -2.936,3.568 -8.472,5.44 -55.616,25.424 -2.704,-1.016 -2.256,-1.056 -3.912,-2.032 -2.688,-0.128 -4.864,1.016 -1.864,2.152 -0.32,0.384 -24.848,33.24 -1.136,2.576 -0.72,3.656 0.24,3.512 -0.56,2.312 -9,6.936 -39.472,19.64 -2.776,0.984 -3.048,-0.384 -3.504,-1.36 -3.136,-1.408 -19.512,0.736 -3.544,1.024 -3.192,2.416 -12.056,10.92 -0.864,2.024 1.072,2.976 0.56,0.768 1.48,2.032 0.4,15.568 -1.376,2.672 -5.92,7.352 -3.272,1.864 -3.912,1.36 -3.896,0.528 -16.04,15.152 -15.664,23.168 -1.584,2.808 -18.016,72.856 -1.736,17.136 -17.888,17.84 -3.6,2.584 -3.496,1.224 -4.024,0.776 0.56,17.784 0.4,2.728 3.176,2.216 3.208,1.656 4.216,1.552 -0.72,28.976 1.488,14.6 0.16,1.48 0.16,2.992 -1.248,2.16 -3.464,0.968 -3.136,-0.112 -4.096,-1.12 -2.36,-1.256 -2.704,-2.688 -17.272,8.64 -38.36,33.752 -2.856,3.24 -0.864,2.152 7.96,9.08 1.04,3.088 0.904,3.272 6.28,28.848 0.4,2.864 -0.024,3.552 -1.256,3.08 -11.808,4.728 -3.224,0.608 -22.312,18.072 -22.256,32.296 -0.16,3.656 0.72,6.224 0.952,29.696 -0.56,1.992 -1.648,4.48 -1.224,2.824 -24.04,25.752 -6.344,6.096 -16.4,10.768 -7.952,3.888 -6.032,2.272 -12.936,3.528 -14.896,1.288 27,15.76 8.16,46.56 5.128,7.456 28.928,18.984 20.128,26.232 -0.912,4.568 -1.832,8.464 -1.872,6.712 13.752,14.92 0.48,0.392 1.944,1.728 2.92,4.688 2.04,4.624 -0.56,2.816 -1.92,1.416 -2.208,0.696 -44.584,37.712 22.616,24.248 2.536,2.952 -0.72,4.176 -0.968,3.568 -1.416,1.896 -1.52,2.12 -0.872,3.12 -0.04,4.616 9.776,10.216 5.304,-0.256 8.096,-0.056 3.784,0 10.24,4.328 0.56,0.288 -2.096,16.08 -4.272,1.76 -1.272,0.536 -0.08,3.608 0.16,8.192 0.24,6.392 0.16,17.016 0.24,31.648 0.016,7.528 5.16,16.2 2.848,5.056 6.304,13.04 5.856,12.92 -0.824,0.36 -4.064,1.568 -3.376,1.264 1.768,4.8 3.376,8.848 1.52,2.888 10.88,15.632 8.184,16.2 -12.632,17.984 -16.392,17.424 -13.872,23.464 -12.672,42.072 0.8,2.352 1.32,1.84 0.8,1.096 2.328,1.928 3.96,1.72 3.584,0.456 4.616,-1.048 5.008,-3.072 4.784,-3.512 5.28,-4.216 35.928,14.448 3.12,1.328 2.08,1.576 1.864,3.032 0.24,2.352 0.16,2 0.4,4.848 0.01,1.744 0.48,1.88 1.368,2.296 2.584,1.088 3.4,-0.08 3.248,-0.72 10.088,-3.976 8.176,-3.376 1.84,-1.712 3.336,-6.088 2.72,0.824 -1.264,7.456 -0.56,1.744 -2.424,1.816 -2.88,1.544 -22.92,7.04 -1.776,0.4 -1.248,-0.064 -1.304,-0.056 -23.928,3.528 -45.632,8.472 -12.344,3.464 -14.872,2.072 -2.264,0.952 -23.368,9.952 5.664,15.384 1.512,2.336 2.104,1.288 1.896,1.128 0.912,2.272 0.4,2.6 -0.016,4.328 -0.1929,3.0971 -3.584,1.5495 -3.5511,2.5999 -8.6241,0 -6.3413,0 -1.7755,-2.7902 -1.7756,-1.5219 -2.7901,0 -0.5073,3.8048 -1.7756,0.7609 -3.2974,2.7902 -3.8048,-0.5073 c 0,0 -4.0584,1.0146 -4.8193,2.0292 -0.761,1.0146 -3.8048,1.2682 -3.8048,1.2682 l -3.0437,-1.7755 -2.7902,-3.2975 -3.0438,-1.0146 -5.073,0.2537 -4.0584,0.7609 -4.0584,-1.0146 -2.0292,-1.7755 -2.5365,-4.5657 -0.5073,-3.2975 -4.312,-0.7609 -0.761,-3.5511 -4.0584,-1.0146 -5.073,-1.7756 -4.5657,-1.2682 -3.0438,-3.0438 c 0,0 -1.0146,2.2828 -2.0292,2.2828 -1.0146,0 -3.0438,-0.5073 -4.0584,-0.7609 -1.0146,-0.2537 -3.8047,-2.5365 -3.8047,-2.5365 l -3.2975,-3.8048 c 0,0 -2.5365,-2.0292 -4.0584,-2.0292 -1.5219,0 -3.2974,-3.8047 -3.2974,-3.8047 l -4.8194,-2.2829 -5.5803,-1.0146 -10.3996,-1.5219 -8.8778,-1.2682 c 0,0 -6.3412,-1.7756 -7.6095,-2.0292 -1.2682,-0.2537 -3.0438,0 -3.0438,0 l -4.8193,-1.5219 -3.5511,-1.7756 -2.5365,-2.0292 -3.5511,0 -2.7901,1.0146 -4.3121,-0.7609 -2.7901,-0.761 -1.5219,-4.312 -0.2537,-6.3413 -1.0146,-2.7901 -5.5803,-2.7902 -3.8047,-1.2682 -3.0438,-1.0146 -4.3121,0.2536 -5.3266,1.7756 -2.0292,-1.2683 -2.5365,-3.0438 -2.5365,-3.8047 -2.7902,0 -3.8047,1.5219 -4.8194,1.2682 -1.7755,-1.0146 -2.0292,-2.2828 -3.0438,-0.761 -2.7902,-1.5219 -2.0292,-2.2828 -4.0584,2.2828 -2.7901,-1.5219 -2.7902,-4.312 0,-4.3121 -1.2682,-3.8047 -3.8048,-2.5365 -2.2828,-2.2829 -3.5511,-0.7609 c 0,0 -4.0584,3.0438 -5.3267,3.5511 -1.2682,0.5073 -3.2974,0.5073 -3.2974,0.5073 l -5.5803,-1.2683 c 0,0 -5.834,0 -6.8486,0 -1.0146,0 -4.8193,0 -4.8193,0 l -2.7901,-3.0437 -4.0584,0 -5.073,2.2828 -4.0584,0.2536 -2.0292,-2.2828 -4.5657,-2.2828 -4.8194,-0.2537 -4.312,-1.7755 -9.1314,-1.7756 -3.5511,1.5219 -1.7756,4.0584 -1.5219,-1.0146 -5.8339,-0.2536 -3.8048,1.7755 -4.312,1.2682 -4.0584,-1.2682 -2.7902,1.0146 -6.0876,1.7755 -2.7901,-4.5656 -1.2683,-4.5657 c 0,0 -0.7609,-3.0438 -0.7609,-4.0584 0,-1.0146 -3.5511,-1.5219 -4.5657,-1.7756 -1.0146,-0.2536 -4.5657,-2.0292 -4.5657,-2.0292 l -3.0438,2.7902 c 0,0 -2.2829,1.7755 -3.5511,2.2828 -1.2683,0.5073 -2.5365,2.0292 -2.5365,2.0292 0,0 -2.0292,3.5511 -3.0438,3.5511 -1.0146,0 -4.0584,-0.2536 -4.0584,-0.2536 0,0 -1.5219,-2.0292 -1.7756,-3.0438 -0.2536,-1.0146 -2.0292,-3.8048 -2.0292,-3.8048 l -5.0729,0 -4.5657,2.5365 -4.3121,3.2975 c 0,0 -2.5365,0.5073 -3.5511,0.5073 -1.0146,0 -7.3558,0.5073 -9.385,0.5073 -2.0292,0 -3.2975,0.2536 -3.2975,0.2536 0,0 -5.3266,-1.5219 -6.5949,-1.7755 -1.2682,-0.2537 -4.8193,-1.7756 -4.8193,-1.7756 l -3.8048,-4.0584 -3.2974,-1.0146 -6.3413,-1.2682 -3.5511,0.2536 -5.073,0.761 -2.0292,-1.2683 -1.7755,-3.5511 -0.5073,-2.5365 -2.6537,0.705 -2.3316,2.8698 -2.6904,0.538 -5.0068,-0.308 -3.1706,-1.2683 -4.6926,-1.7755 -3.8047,-1.2683 -4.0584,-1.6487 -1.9024,-2.2829 -0.6341,-3.2974 -0.6341,-4.9462 -0.2537,-3.6779 -1.1414,-2.4097 -2.7902,-3.5511 -1.5219,-2.7901 -1.7755,-4.1853 -1.0146,-6.3412 -0.2537,-6.5949 -0.1268,-6.5949 0,-6.9754 c 0,0 -0.5073,-4.0584 -0.6341,-4.5657 -0.1268,-0.5073 -1.7756,-3.2974 -1.7756,-3.2974 l -1.9023,-2.7902 -2.0292,-0.1268 -3.5511,-0.3805 -3.1706,-0.7609 -4.3121,0 -2.156,0.3805 -1.0146,1.2682 -2.5365,1.3951 -1.9024,1.2682 -0.3805,2.1561 c 0,0 -1.1414,2.156 -1.2682,2.9169 -0.1268,0.761 -0.1268,2.0292 -0.1268,2.0292 0,0 -1.3951,1.9024 -1.6488,2.5365 -0.2536,0.6342 -1.5219,1.9024 -1.5219,1.9024 0,0 -0.3804,2.0292 -0.2536,2.5365 0.1268,0.5073 -0.6341,1.0146 -0.6341,1.0146 0,0 -2.6634,0 -3.4243,0 -0.761,0 -1.0146,-1.0146 -1.0146,-1.0146 l -1.3951,-0.5073 -2.156,1.2683 -2.6633,1.9023 -1.1415,1.3951 -9.1314,0.6341 -4.8193,-0.2536 -6.0876,-0.1268 -1.5219,-0.3805 -0.761,-2.2829 -0.7609,-2.0292 0.1268,-4.6925 -0.7609,-2.4097 -1.0146,-2.7901 -3.0051,-1.5656 -2.8697,-1.7936 -1.6142,-2.511 -1.6143,-2.3316 -0.3587,-2.1523 -1.2555,-1.0762 -1.0761,0.5381 -1.2555,-1.0762 -0.3587,-2.511 -1.6143,-0.1793 -1.0761,1.6142 -0.5381,2.3316 -0.1793,2.3317 -1.7936,2.3316 -3.2284,0.8968 -3.0491,0.1794 -3.5872,-0.5381 -1.7936,-0.7174 c 0,0 -2.511,-3.0491 -3.5871,-3.7665 -1.0761,-0.7175 -2.1523,-1.973 -2.1523,-1.973 l -4.3046,1.2555 -0.7174,2.6904 0.3587,3.7665 0.3587,4.8427 0,3.7665 0,4.6633 -0.538,3.0491 -1.4349,3.9458 1.6142,3.0491 c 0,0 1.6142,1.0761 2.3317,1.4349 0.7174,0.3587 0.7174,1.7935 0.7174,1.7935 l -2.1523,0.5381 -1.4349,0.7174 c 0,0 0.8968,2.3317 1.0762,3.2285 0.1793,0.8968 1.7936,3.2284 1.7936,3.2284 l 0.538,2.8697 -2.1523,2.1523 -2.511,-0.538 -2.8697,-1.4349 -2.8697,-1.6142 -2.1523,-0.1794 -2.6904,0.3587 3.0491,1.6142 -1.7936,0.3588 -5.022,-1.7936 -8.7885,-1.4349 -7.7124,-2.6903 -0.538,3.049 -1.4349,5.5601 -2.8697,2.3317 1.6142,2.8697 -1.4349,1.2555 -2.6903,-1.7936 -0.8968,4.1252 -1.2555,6.995 -2.3317,2.511 -4.1252,1.2555 -3.9459,4.4839 -2.1522,2.1523 -3.042,4.2449 -7.6095,-5.073 -5.5803,-4.0584 -5.073,-0.5073 -3.0438,6.5949 -5.073,-1.0146 -5.073,2.5365 -4.5657,5.073 -2.0292,4.0584 -3.0438,5.5803 -2.5365,1.5219 -0.5073,5.073 2.5365,1.5219 2.5365,0.5073 0,3.0438 0,2.5365 -4.0584,-0.5073 -3.5511,2.0292 -2.5365,-4.5657 -2.0292,-5.5803 -3.5511,-3.5511 -2.5365,1.0146 -0.5073,2.0292 2.5365,5.073 1.5219,4.0584 -1.5219,1.0146 -5.073,-3.5511 -4.0584,-0.5073 -3.0438,-0.5073 -4.0584,7.1022 -0.5073,-4.5657 0.5073,-6.0876 -0.5073,-6.0876 -0.5073,-4.0584 3.0438,-2.5365 c 0,0 1.0146,0 3.0438,0 2.0292,0 0,-2.5365 0,-2.5365 l -1.0146,-4.5657 -1.5219,-4.0584 1.5219,-3.5511 0,-5.073 1.0146,-3.5511 -1.0146,-2.5365 -5.073,-2.0292 -1.0146,-4.5657 1.0146,-2.5365 2.0292,-2.5365 -2.5365,-2.5365 -1.0146,3.0438 -2.5365,-2.0292 -0.5073,-4.5657 -5.0729,1.5219 1.5219,-3.5511 -3.5511,-0.5073 -3.5511,3.5511 -1.5219,-2.5365 2.5365,-4.0584 1.0146,-6.0876 -1.5219,-3.0438 -2.0292,3.0438 -6.5949,5.5803 1.5219,3.5511 0.5073,4.5657 -2.0292,0.5073 -4.0584,2.5365 -4.0584,0.5073 -7.6095,2.0292 -4.0584,0 -6.5949,3.0438 -2.5365,1.5219 2.5365,3.5511 -1.5219,3.0438 -0.5073,2.5365 2.5365,8.1168 4.0584,2.5365 3.5511,3.0438 -1.0146,2.5365 -2.0292,2.5365 -0.5073,5.073 -4.5657,3.0438 -5.5803,2.0292 -3.0438,5.5803 0,5.073 -3.0438,3.5511 -4.5657,-1.0146 -4.5657,2.0292 -3.0438,7.6095 -1.0146,4.5657 4.5657,0 7.1022,-3.5511 1.5219,-2.0292 2.5365,-3.0438 0.5073,-4.0584 1.5219,1.0146 1.5219,2.0292 3.5511,4.5657 -3.0438,1.5219 -2.0292,3.5511 0.5073,6.0876 2.0292,6.0876 2.0292,3.5511 -2.0292,2.0292 2.0292,3.0438 4.0584,1.5219 5.5803,-3.0438 6.0876,-4.0584 5.5803,-1.5219 5.5803,-4.0584 3.0438,0 -1.5219,4.0584 -5.073,3.5511 0,2.5365 3.5511,9.1314 0.5073,5.5803 -2.0292,6.5949 -2.5365,7.1022 -2.0292,4.0584 1.5219,3.0438 -3.0438,0.5073 -5.073,-1.0146 -3.5511,-2.5365 -4.5657,2.0292 -6.0876,-6.5949 -2.0292,-4.5657 -1.0146,-4.0584 -3.5511,-2.0292 -2.5365,4.0584 -2.0292,0 -1.0146,-3.5511 -2.5365,-4.5657 0,-4.5657 -3.0438,0 -4.5657,2.0292 -2.5365,0 -4.5657,1.5219 -4.0584,-1.5219 -3.5511,5.073 1.5219,5.073 1.5219,5.073 -0.5073,2.5365 2.0292,6.0876 -2.5365,-1.0146 -2.5365,-3.5511 -3.0438,-1.5219 -3.0438,-5.5803 -4.5657,-1.5219 -6.0876,-2.5365 -5.073,0 -4.0584,3.0438 -2.5365,5.073 2.5365,7.1022 0.5073,5.073 -2.5365,2.5365 -3.5511,2.5365 2.5365,3.0438 2.5365,5.073 -1.5219,2.0292 -6.0876,3.0438 -6.0876,2.5365 2.0292,6.5949 2.0292,5.0729 0,3.0438 -4.0584,0.5073 -4.0584,0 -4.0584,-2.0292 -7.1022,3.5511 -6.0876,1.0146 -8.1168,3.5511 7.1022,1.0146 6.0876,1.0146 4.5657,5.073 1.0146,6.5949 -1.5219,5.5803 -6.0876,-2.0292 -4.5657,-6.5949 -12.1752,0 -6.0876,-1.5219 -5.5803,9.6387 -5.5803,1.5219 8.1168,9.6387 6.0876,6.0876 3.5511,12.1752 1.5219,11.1606 5.073,9.6387 4.5657,1.5219 6.0876,0 1.0146,2.0292 -2.5365,7.6095 -4.0584,4.0584 -0.5073,4.0584 -1.5219,4.5657 0.5073,4.5657 8.1168,-4.0584 -4.0584,7.1022 -3.5511,0 -2.0292,7.1022 0.5073,7.1022 3.0438,6.0876 10.146,8.1168 10.146,-2.5365 17.2482,-5.073 4.0584,-4.0584 0.5073,-6.0876 1.0146,-7.1022 5.073,-4.0584 5.5803,-3.5511 7.6095,-11.1606 5.073,-7.6095 4.5657,-2.0292 -1.5219,4.0584 -2.0292,6.0876 -9.1314,14.7117 3.0438,4.0584 5.5803,2.5365 5.073,0 6.0876,4.5657 0.5073,5.5803 4.5657,-1.0146 13.1898,-0.5073 13.1898,-6.0876 24.3504,-10.146 13.1897,-4.0584 8.1168,-6.0876 9.6387,-9.1314 10.146,-7.6095 4.0584,-6.5949 -0.5073,-4.5657 3.5511,2.5365 10.3583,3.784 z m -17.793,-164.2798 1.7936,-1.6142 1.2555,-0.1793 0.3587,2.511 0,2.1523 1.4349,0.8968 0.538,1.2555 -0.7174,1.0761 0,1.4349 1.6142,1.6142 0.5381,1.7936 -1.4349,-0.7175 -1.9729,-1.7935 -0.3587,-1.7936 -1.2555,-1.2555 -1.4349,-1.4349 -1.2555,-1.6142 -0.538,-1.2555 1.4348,-1.0762 z m -6.2775,-11.1201 2.511,-1.6142 1.7936,0.538 1.6142,1.7936 1.4349,1.7936 0.1793,4.1252 -0.5381,2.3317 -2.6903,0.7174 -0.5381,0.7174 -0.5381,1.6142 -1.0761,1.7936 -2.1523,-0.3587 -1.6142,-2.8697 -0.1794,-2.6904 0,-3.0491 -0.7174,-1.7935 0.3587,-1.2555 1.2555,-1.2555 0.8968,-0.5381 z m 110.4843,117.4792 2.8697,-1.2555 4.1252,-1.6142 3.7665,1.2555 2.3317,-0.3588 1.7935,-3.9458 2.511,-0.8968 5.2014,0.5381 3.2284,-1.973 4.484,0.1794 2.6904,1.4348 c 0,0 4.3045,0 5.022,0.1794 0.7174,0.1794 9.6853,0.3587 9.6853,0.3587 l 5.2013,0 c 0,0 8.7886,0.1794 9.506,0 0.7174,-0.1793 6.4569,-1.9729 6.4569,-1.9729 l 1.9729,-1.0762 1.9729,-1.7935 -1.0761,-2.1523 -1.4349,-2.1523 c 0,0 1.2555,-0.7174 2.1523,-0.7174 0.8968,0 3.9459,2.6903 3.9459,2.6903 l 1.4348,3.0491 -0.7174,2.6904 -2.1523,1.4348 1.4349,0.1794 3.0491,-0.5381 2.6903,-1.9729 2.3317,-2.3317 2.511,-1.9729 -0.1794,-1.9729 c 0,0 1.4349,-1.2555 2.1523,-1.2555 0.7174,0 2.3317,1.6142 2.3317,1.6142 0,0 1.4348,0.538 2.3316,0.538 0.8968,0 2.511,1.0762 2.511,1.0762 l 3.5872,0.8968 2.1523,0.8968 1.9729,-1.6142 1.6142,-3.5872 0.7174,-1.2555 2.6904,0.5381 1.9729,0 1.4349,-2.3317 2.8697,-0.7174 2.6904,0.5381 5.3807,0.7174 3.4078,-0.5381 3.7665,-2.8697 3.9459,-3.5872 2.511,-1.2555 4.4839,-0.8967 3.2285,-0.3588 2.1522,0.3588 1.4349,1.9729 0.3587,3.9459 0,1.9729 3.0491,-0.3587 0.3587,-3.0491 0.1794,-2.3317 2.3316,-0.7174 0.7174,-2.1523 0.1794,-3.7665 1.0761,0 0.7175,1.0762 4.1252,-0.1794 3.4078,0.5381 2.8697,0.5381 2.3317,2.1522 0.8968,5.2014 -0.7175,4.1252 -1.2555,0.3588 -0.7174,3.2284 -0.7174,1.9729 -5.0221,-0.5381 -1.0761,-1.2555 -2.6904,1.2555 -2.3316,1.7936 -5.3807,2.511 -1.973,2.8697 -3.4078,1.973 -4.4839,1.6142 -9.3266,0.5381 -15.6041,0.538 -14.8867,1.4349 -15.9628,1.2555 -12.017,2.1523 -6.8155,0 -8.7886,1.9729 -9.6853,1.4349 -11.1201,2.1523 -11.2996,1.6142 -6.0981,-0.1794 -3.9459,-1.0761 -5.5601,-0.7174 -4.1252,-2.3317 -3.0491,-2.6903 -2.3316,-1.6143 -0.3587,-1.4348 z m -67.856,42.9761 -5.5803,-7.6095 c 0,0 -2.0292,-8.1168 0,-9.1314 2.0292,-1.0146 5.5803,-1.0146 5.5803,-3.0438 0,-2.0292 3.5511,-9.6387 3.5511,-9.6387 0,0 2.5365,-1.0146 5.073,-1.0146 2.5365,0 12.1752,-0.5073 12.1752,-0.5073 0,0 5.5803,-2.5365 7.6095,-3.0438 2.0292,-0.5073 8.1168,-4.5657 10.146,-4.0584 1.0146,0.2536 2.8536,-0.063 4.2486,0.8878 1.3951,0.9512 2.3463,3.1706 2.3463,3.1706 l 3.5511,-7.1022 5.073,-6.5949 4.5657,-4.5657 3.0438,3.0438 -1.5219,6.5949 -0.5073,6.0876 1.1414,8.3705 2.4097,7.3558 0.761,8.2436 -2.0293,1.1415 -4.4388,0.3804 -20.0384,11.2875 -16.9945,2.0292 -16.1068,-0.6342 -4.0584,-1.6487 z"
       id="Ud"
       style="stroke-linecap:butt;stroke-linejoin:round;stroke-miterlimit:4;stroke-opacity:1;stroke-dasharray:none;display:inline" />
  </g>
</svg>
