<?xml version="1.0" encoding="UTF-8" standalone="no"?>
<!-- Created with Inkscape (http://www.inkscape.org/) -->

<svg
   xmlns:svg="http://www.w3.org/2000/svg"
   xmlns="http://www.w3.org/2000/svg"
   version="1.1"
   width="3287.0393"
   height="3357.2642"
   id="svg2"
   style="display:inline">
  <defs
     id="defs4" />
  <g
     transform="translate(1330.9587,1184.1426)"
     id="layer2"
     style="display:inline">
    <path
       d="m -102.88128,-466.47094 1.49848,-4.53428 4.21564,0 1.20444,-1.20444 1.5056,-3.31228 6.92564,-1.5056 3.91448,-2.1078 5.11896,-3.31224 0,-6.32344 1.80668,-6.92564 1.80672,-8.43124 5.72116,-3.01116 -1.20444,-3.01112 0.3012,-8.13012 -4.81784,-7.52788 -2.71004,0.60224 -2.71004,2.40892 -3.91452,0 -1.50556,3.61336 -5.11896,2.40892 -4.51672,0.60224 -3.6134,-3.01116 -4.81784,0.3012 -3.91448,0.90336 -6.62456,3.91448 -6.3234,3.91452 -8.73236,0.6022 -4.81784,-2.1078 -3.61336,-2.71004 -0.3012,-5.11896 2.71004,-1.80668 4.2156,-3.31228 -0.3012,-10.539 0,-6.92568 -3.61336,-1.20444 -3.6134,-1.80668 -3.01116,-2.40896 1.80672,-9.33456 2.1078,-10.53908 1.50556,-2.40892 0.60224,-1.80668 3.91448,-0.3012 3.6134,1.5056 1.80668,2.71004 4.51672,-0.60224 1.80672,-1.5056 2.1078,-2.40892 -1.5056,-4.81784 -0.90332,-4.51672 -3.01116,-3.31228 -8.43124,0.60224 -8.13008,-0.90336 -1.5056,-6.3234 1.80672,-9.33456 0,-5.11896 4.2156,-3.6134 6.62452,-3.31228 6.62456,-6.62452 0.90332,-1.50556 -1.80668,-1.20448 -7.829,-4.81784 -1.20444,-1.50556 -14.75468,-7.52788 -9.03344,-3.01116 -5.42008,-2.1078 -3.91448,1.80668 -7.52788,3.91448 -3.01116,10.53904 -2.40892,4.51672 -4.2156,1.5056 -4.21564,3.31228 -2.71004,1.50556 0,1.20444 2.40892,1.5056 0,3.31228 -1.50556,0.3012 -3.91452,1.5056 -5.42004,3.31228 -3.01116,3.91448 -10.53904,3.31228 -4.51672,1.50556 -2.71004,-1.50556 -3.31228,-4.21564 -2.40892,-11.44236 -3.01116,-1.20448 -7.52788,-7.22676 -5.72116,-2.40892 -6.32344,-3.01116 -4.51672,-1.80668 -1.80668,1.80668 -3.31228,3.6134 -1.80652,0.60256 -6.32344,6.02228 -11.74348,2.40892 -9.33456,-2.40892 -2.40892,-1.80668 -3.31228,-0.90336 -0.3012,-2.40892 -3.31228,-2.1078 0,-2.71004 0.90336,-1.80668 7.52788,-1.50556 4.2156,2.71 2.1078,2.40896 2.10784,3.31224 2.40892,-2.71004 3.01112,-7.829 1.5056,0 0,-1.50556 -7.52788,-3.01116 -3.91452,-7.52788 -3.61336,-2.40892 -7.22676,-7.52788 -3.01116,-0.60224 -2.71004,2.10784 -4.51672,3.31224 -8.43124,-0.90332 -1.50556,-5.7212 0.90332,-6.02232 1.5056,-1.50556 11.44236,-3.01116 5.42008,-0.3012 -0.3012,-1.80668 -2.40892,-1.20448 -1.80668,-3.31224 -4.2156,-2.1078 -12.94796,-1.20448 -6.32344,-6.62452 -3.61336,-9.63572 -1.20448,-0.3012 0.60224,-4.21564 8.73232,-1.20444 0.90336,-4.21564 5.42008,-0.3012 0,-3.01116 -1.20464,-3.3122 0.3012,-4.81784 1.20448,-5.7212 -1.20448,-1.80668 -3.61336,-6.62452 -2.1078,-9.3346 -7.829,2.71004 0,1.20448 -2.40892,0 -1.20448,-1.5056 -6.3234,-3.61336 -12.34576,-6.02232 -12.34572,-6.92564 -2.71004,-7.829 -1.20444,-7.829 -1.80668,-4.81784 c 0,0 0,0 1.20444,-6.92564 1.20456,-6.92566 0.3012,0 0.3012,0 l 2.71004,-4.51672 1.50556,-0.3012 -0.90332,-6.02231 -1.80672,-7.829 3.91452,-0.30112 5.11896,3.9145 1.80668,-0.60223 -2.71012,-3.01115 -2.40892,-4.21562 -3.91448,-9.03345 -4.51672,-0.60223 -1.5056,-3.31227 -7.22676,-1.80669 -1.50556,-3.9145 0.6022,-5.11896 1.5056,-4.51673 3.01116,-6.32342 4.2156,-1.20446 2.40892,-4.81784 3.31228,-3.61338 0.3012,-4.21562 -0.90336,-2.1078 -10.53904,-3.31227 -5.11896,-3.01115 -5.11896,-0.60223 -0.60224,-1.80669 3.01116,-3.01116 -1.20444,-3.91449 -3.01116,-6.32342 -2.71004,-3.9145 -7.22676,-6.02231 -5.7212,-3.31226 -4.2156,-4.51673 -6.02232,-6.0223 -6.92564,-6.32342 -13.24908,-6.92565 -12.34572,-5.72119 -7.52788,-3.9145 -6.02232,-3.31227 -5.11896,-1.80669 -3.91448,1.80669 -4.51672,3.9145 -6.62456,5.72119 -3.01112,5.72119 -1.80672,1.80669 2.40892,2.40892 1.20448,1.50558 -0.90336,2.40892 -4.2156,6.0223 -5.42008,1.80669 -1.50556,3.9145 -1.5056,-0.60223 -0.90332,-5.42007 -7.22676,-3.01115 -1.20448,-1.20447 -1.20444,1.50558 -2.71004,6.32342 -3.31228,10.84015 -4.81784,0.90334 -5.42008,-1.50557 -4.2156,-3.31227 -2.71004,-6.62453 -3.01116,-4.21562 -2.40892,-5.42007 -2.1078,-2.10781 -2.1078,0.90335 -6.02232,3.61338 -3.31228,10.53903 -11.74348,3.01116 -12.0446,-3.31227 -2.1078,-2.40892 -3.6134,2.71003 -4.2156,5.11896 -2.71004,1.80669 -12.94796,2.10781 -17.16356,3.9145 -6.62456,3.31226 -2.1078,3.31227 -3.91448,6.02231 -2.71004,-0.60224 2.71012,-4.81784 -2.1078,-8.43122 -7.52788,-1.8067 -3.6134,-3.91449 -6.02232,-3.01115 -6.62452,-6.92566 -6.62452,-6.32341 -9.9368,-3.31227 -6.32344,-3.01115 -3.91448,-3.31227 -6.02232,-3.31227 -13.24908,-6.62453 -18.97024,-3.31227 -16.26024,-3.31227 -8.4312,-2.40892 -0.3012,-2.40892 2.1078,-5.42008 3.6134,-7.22676 2.40892,-1.50558 1.80668,-3.31226 -1.80668,-3.9145 -19.8736,-6.32342 -6.02232,-3.01115 -2.1078,-2.71004 0.90332,-3.61338 4.21564,-6.32342 1.80676,-5.72119 5.11896,-5.11896 6.3234,-2.40892 4.21564,-3.31227 1.80668,-10.84015 11.14128,-3.01112 5.72116,-2.4089 3.91452,-3.6134 6.3234,-2.7101 2.71004,-14.4535 3.6134,-10.2379 3.91448,-5.119 5.11896,-3.0111 2.40892,-1.2045 0,-1.5056 -1.80668,-1.8067 -1.50556,-6.9256 -2.10784,-5.119 -2.40892,-4.8178 -6.92564,-3.0112 -11.14124,0 -0.3012,-3.3122 -2.71004,-0.6023 -1.80672,-6.0223 -7.52788,-2.71 -8.4312,-0.6022 -10.53904,-2.4089 -10.23792,-1.2045 -1.50556,-3.3123 -4.21564,-2.4089 -4.2156,-12.3457 -2.71004,-10.5391 -3.01116,-15.6579 -3.91448,-6.3235 -6.02232,-3.9145 -2.71004,-9.0334 -3.91448,-13.2491 -3.6134,-6.6245 -1.50556,-4.8179 -4.2156,-1.5055 -5.11896,-2.7101 -4.51676,1.2045 -4.2156,-1.8067 -6.02232,-2.4089 -6.3234,2.1078 -12.34572,3.0111 -11.14128,-1.5055 -2.40892,-4.2157 -2.1078,-3.0111 -7.829,0.6022 -2.1078,6.0223 -3.31228,0.9034 -1.20444,4.5167 -6.92564,3.0111 -6.32344,6.9257 -16.86244,3.9145 -3.31228,1.8067 -3.01116,20.7769 -1.20444,13.2491 -1.5056,12.6468 -3.61336,1.2045 -2.40892,-0.9033 -3.31228,-9.0335 -3.31228,-4.2156 -3.61336,-6.6245 -7.22676,-6.0224 -2.1078,-6.0223 -3.6134,-3.9145 -6.92564,-3.3122 -6.92564,-1.8067 -6.02232,1.5056 -4.2156,9.3345 -6.32344,7.2268 -3.61336,2.1078 -1.80672,5.119 -4.2156,6.0223 -2.40892,16.2602 -2.71004,9.0334 -1.80668,2.1079 3.61336,4.2156 13.5502,3.0111 4.2156,4.5167 5.42008,6.6246 3.91452,6.0223 3.31224,3.0111 5.42008,13.5502 3.6134,3.9145 3.31224,1.8067 22.28252,4.2156 7.94408,2.1131 3.5142,4.217 2.45992,1.0543 2.10852,3.1628 0.3512,3.5141 6.32552,0.7029 -3.8656,2.4599 -0.70284,1.4057 -1.05424,3.1627 -6.67696,14.0567 -3.51416,19.32803 -2.81136,16.16522 -3.16276,7.73119 -10.54252,1.05426 -12.29964,1.75708 -1.05424,3.8656 0.3516,2.10851 3.86556,8.78544 3.16276,10.19112 1.05428,4.56843 -1.05428,1.75709 -2.10848,13.35388 1.05424,14.05671 7.37976,2.45993 17.21912,3.16279 2.45992,7.02836 3.5142,2.81134 1.75708,5.62269 -1.75708,10.54254 -3.8656,8.08261 -2.81136,4.21701 -2.10848,1.05425 -5.62268,1.75709 0,3.8656 -2.45992,0.3514 -2.81136,2.10851 -6.67696,3.16276 -3.16276,3.51418 -1.40564,3.16276 -2.10852,0 -4.217,-1.05426 -15.4624,-3.16276 -13.35388,-4.21701 -4.56844,-1.05425 0.70284,8.43402 c 0,0 1.05424,6.32553 1.05424,9.8397 0,3.51418 0.70284,2.45993 0.70284,2.45993 l 0.3516,3.8656 0,2.45992 -4.21704,6.67694 -7.37976,7.02836 -7.37976,7.37977 -1.05428,8.43403 -8.0826,1.40567 -0.3512,-2.1085 -2.10852,-0.70284 -1.40568,-3.16276 -0.70284,-3.51418 -4.9198,-0.35144 -6.677,2.10851 -5.2712,3.86559 -7.0284,7.02836 -3.1628,5.62268 -12.2996,3.16276 -6.3255,3.8656 -8.434,3.5142 -0.7029,1.75708 2.8114,4.56844 3.1627,3.8656 0,5.27124 -1.4056,3.8656 -2.8114,5.27128 -4.217,1.05424 -3.5142,3.8656 -5.2712,3.5142 -17.2195,1.05424 -2.8114,7.02836 -5.9741,4.56844 -3.5141,2.10848 -5.9741,3.8656 -3.5142,1.40568 -4.9199,0 -3.1627,-4.91984 -5.2713,-1.40568 -6.6769,2.10852 -3.1628,6.67692 -3.5142,5.62268 -1.7571,1.40568 -1.4056,-1.75708 -7.3798,-2.45992 -2.4599,-5.97412 -3.1628,-3.8656 -9.8397,-3.8656 -3.5142,-1.40564 -6.3255,1.40564 -7.0284,3.8656 -2.8113,3.16276 -0.7028,4.56844 0.7028,1.75708 1.7571,10.19112 2.8113,9.83972 0,8.78544 -0.7028,5.97408 -4.9199,4.91988 -5.9741,5.62268 -3.1627,2.81132 -3.5142,8.78548 -1.7571,4.91984 -4.5684,10.19112 -0.7029,3.8656 1.0543,4.9196 7.0283,8.43404 1.7571,1.05424 2.4599,-0.70284 0,-3.51416 3.8656,-0.3516 5.2713,1.75708 5.6227,3.8656 2.8113,5.27128 1.7571,0.70284 3.1628,7.7312 0,0 5.9741,6.32552 4.9198,0.3516 8.4341,2.45992 1.757,1.75712 6.3256,1.05424 0,2.10852 2.1085,0 3.1627,2.45992 3.5142,3.51416 0.3515,3.8656 0,7.37976 2.1085,4.21704 1.4056,7.37976 -1.7571,5.27128 -3.8656,9.48828 -1.4056,7.37976 2.8113,7.02836 1.0543,16.16524 2.8113,1.75708 0.7029,5.97412 -0.7029,8.78544 -5.9741,0 -5.2713,0.70284 -6.6769,1.75708 -3.1628,1.75708 -4.9198,-0.70284 -2.4599,-1.75708 -1.7571,-1.40568 -6.3255,0.70284 -6.677,-0.70284 -5.6227,0.70284 -8.7854,0 -15.4624,-0.3516 -7.3798,-1.40568 -6.6769,-1.40568 -0.7028,-3.16276 -2.46,0 -3.5142,0.3516 -12.2996,7.3798 -9.4883,4.217 -5.6226,3.16276 -1.4057,1.75708 -3.1628,-2.10848 -8.7854,-2.45992 -6.3255,-4.56844 -13.0025,-1.75708 -7.0284,2.10848 -6.6769,5.97412 -1.7571,8.78544 -0.3514,8.0826 2.8114,3.5142 0,3.16276 -1.0543,3.16276 -3.1628,6.32552 -2.1085,4.91984 -1.7571,0.3516 -3.1627,4.21704 -5.9741,3.51416 -3.5142,2.81136 -6.3255,4.217 -4.217,2.45992 -2.1085,4.21704 -2.8114,6.32552 -1.0542,9.83968 5.6226,1.40568 -1.757,4.91984 -1.4057,8.78544 -3.8656,2.81136 0.3514,2.10852 8.0826,1.75708 7.0284,4.91984 11.9482,5.62268 10.1911,2.45992 13.7053,7.02836 12.651,6.67696 10.1912,3.51416 5.6226,3.5142 12.6511,5.27124 14.0567,6.67696 12.651,7.02836 14.4082,7.7312 2.4599,2.81132 5.2713,2.10852 7.7312,6.67692 13.3538,6.67696 10.1912,10.19112 4.9198,2.81132 4.5684,4.21704 2.8114,5.62268 13.0024,7.02836 12.6511,6.67692 4.217,2.81136 6.6769,3.8656 3.1628,3.8656 6.3255,1.75708 5.6227,6.67692 6.6769,5.97412 3.5142,7.37976 7.3798,3.8656 3.5142,7.3798 2.1085,2.10848 7.0283,6.67696 6.3256,6.67692 3.8656,8.78544 6.6769,7.3798 1.7571,5.97408 7.7312,13.70532 1.0542,3.8656 4.9199,2.45992 3.8656,1.40568 2.4599,5.27124 7.3798,3.8656 6.3255,11.9482 5.9741,12.29964 3.5142,3.51416 2.45992,13.70532 7.02832,18.62512 7.02836,14.056717 5.97412,6.67696 3.16276,6.67692 3.51416,2.81136 2.81136,6.32552 6.67696,7.7312 3.86556,4.5684 0,4.56844 -4.91984,4.56844 0.02,10.25716 5.31004,-2.40764 8.47528,-4.23764 26.36752,-1.41256 23.07156,2.35424 16.95056,2.82508 1.41256,1.41256 2.35424,2.35424 1.41252,2.82508 3.29596,0.47088 8.47528,4.70848 4.70848,1.8834 3.7668,4.23764 2.35424,0.47084 4.23764,-2.35424 2.82508,-2.35424 3.29596,-4.70852 c 0,0 0,-2.82508 0,-4.70848 0,-1.8834 0,-4.70848 0,-4.70848 l -2.82512,-5.17932 -0.94168,-7.06272 1.41252,-6.59188 6.12104,-5.6502 1.8834,-1.8834 8.47528,-4.23764 6.12104,-8.47528 1.41252,-9.8878 5.17936,-2.82508 6.12104,-5.17936 6.59188,-6.591877 7.06272,-3.29592 1.41252,-1.8834 -2.35424,-1.8834 -2.82508,-6.59188 -1.41256,-4.23764 0.47088,-4.70848 8.94612,-7.06272 1.41252,-4.70852 -3.29592,-2.82508 -0.47084,-4.70848 0,-1.8834 1.8834,-0.47084 2.82508,3.7668 5.65016,-8.00444 2.35424,-4.70848 c 0,0 -3.29592,6.12104 -3.29592,-0.47084 0,-6.59188 0,-6.12104 0,-6.12104 l 8.94612,0.47084 5.17932,0.47084 5.6502,-0.94168 -0.47084,-3.29596 -3.29596,-1.8834 -2.82508,-2.35424 0,-0.47084 1.41256,-0.94168 c 0,0 0.94168,0.47084 3.29592,-1.41256 2.35424,-1.8834 2.35424,-1.8834 2.35424,-1.8834 l 5.17936,-1.41252 8.94612,-1.41256 c 0,0 0.94168,-5.17932 3.76676,-2.35424 2.82512,2.82508 2.82512,2.82508 2.82512,2.82508 l 1.88336,4.23764 c 0,0 -2.82508,-2.82508 -2.82508,-0.47084 0,2.35424 -1.41252,1.41256 0,3.29592 1.41256,1.8834 1.41256,2.35424 1.41256,2.35424 0,0 4.23764,-4.2376 8.00444,2.35428 3.76676,6.59188 3.76676,6.59188 3.76676,6.59188 l 3.29596,3.29592 6.59188,3.29596 2.35424,2.82508 3.7668,0.94168 4.2376,3.7668 2.35428,-1.8834 7.06272,0.47084 5.17932,4.23764 1.41256,3.7668 4.70848,1.8834 4.70848,2.35424 10.82952,0.94168 0.41664,2.42836 2.15156,-2.15156 2.15156,-4.61044 3.68836,0.92208 4.30312,8.29884 3.07364,9.52828 5.83992,11.37248 7.06936,12.294557 3.381,11.06512 7.99148,14.13876 2.76628,8.91356 2.15156,10.143 2.45892,4.61048 7.68408,0.92208 11.9872,3.6884 7.37676,2.15152 12.60192,1.22948 3.6884,2.45892 3.07364,-1.53684 17.51976,-3.07364 3.381,-3.99572 1.22944,-13.8314 11.06512,-0.92208 11.67984,1.22944 11.37248,2.45892 16.59768,-3.07364 7.06936,-1.53684 5.53256,2.45892 16.29032,2.15156 6.762,4.61044 6.45464,6.14732 2.15156,4.61044 2.76628,8.6062 1.5368,-2.76628 3.38104,-4.30308 3.07364,-6.45468 2.76628,-2.45888 4.30308,-7.37676 5.53256,-1.8442 3.381,-1.5368 2.76628,-3.07364 4.61048,-3.68836 2.45892,-1.8442 4.30308,-7.37676 2.15156,-8.91356 3.07364,-1.84416 1.8442,-2.45892 11.06508,-0.61472 19.97868,-1.53684 4.30312,-3.381 2.15152,-3.07364 3.6884,-4.303117 7.06936,-3.99572 4.30312,-0.61472 2.76628,1.5368 11.37248,6.14728 3.68836,3.688397 6.762,3.68836 11.37248,1.8442 11.37248,-1.53684 6.762,-3.381 9.22096,-3.99572 3.99572,-2.458917 2.15156,0.92208 0.61472,4.303117 2.76628,7.37672 0.61472,3.68836 7.37676,0.61476 3.68836,-1.53684 8.29884,-0.3072 6.45464,6.762 3.99572,6.76204 6.14728,7.37672 3.6884,0.92208 0.61472,1.22948 -2.76628,1.5368 0.61472,9.83568 3.381,2.45892 2.45892,5.22516 2.45892,-5.53252 5.53256,-0.61476 3.381,0.92212 7.0694,3.381 1.5368,3.68836 2.76628,0.92208 1.22944,-0.92208 4.30312,-4.61048 7.37672,-3.07364 5.83992,-2.76628 4.61048,-1.5368 0.92208,-11.9872 4.30312,-7.0694 1.84416,-1.5368 6.45468,-4.30312 7.37672,-2.76644 6.45464,-7.37672 3.6884,-6.45464 3.381,-9.835677 0.92208,-7.99148 -1.5368,-4.9178 -3.07364,-15.98296 -1.8442,-11.67984 -2.45892,-1.22944 0.3072,-4.30312 3.07364,-3.68836 9.22096,-1.22944 8.2988,-7.0694 c 0,0 -0.3072,-2.45892 3.07364,-6.45464 3.38104,-3.99572 -0.3072,4.61048 3.38104,-3.99572 3.68836,-8.6062 0.92208,-2.15156 3.68836,-8.91356 2.76628,-6.76204 2.76628,-6.76204 2.76628,-6.76204 l 2.76628,-1.22944 1.84416,-0.3072 0.3072,5.53256 5.22516,1.22944 3.99576,-0.3072 1.22944,-7.99148 2.15156,-4.30308 -0.61472,-9.22096 -3.6884,-7.06936 -3.381,-3.381 -0.92208,-2.15156 0,-3.381 3.99572,-3.381 1.22948,-6.45464 1.22944,-1.22948 2.15156,5.53256 2.45892,9.22092 2.76628,8.29884 3.68836,13.8314 1.8442,14.13876 0.61472,9.22092 -2.45892,16.59768 -1.8442,11.37248 -2.15152,17.2124 -2.15156,7.37672 0.3072,11.06512 2.76628,4.61044 5.2252,1.22948 4.9178,-1.53684 6.76204,-3.381 1.84416,-2.15156 3.38104,-7.68408 1.5368,-11.06512 1.53684,-10.75776 6.45464,-4.30308 7.06936,-0.3072 8.6062,-0.3072 1.8442,2.45888 3.07364,0 2.76628,-4.9178 3.07364,-8.29884 3.99572,-8.6062 c 0,0 0.3072,1.5368 0,0 -0.3072,-1.53684 -1.22944,-10.4504 -1.22944,-10.4504 l 4.61044,-9.83564 2.15208,-8.9142 5.53256,-0.92208 1.8442,-1.53684 3.07364,-0.61472 0.61472,-6.76204 -2.45892,-2.76628 c 0,0 -1.84416,-0.61472 2.15156,-1.84416 3.99572,-1.22948 3.99572,-1.22948 3.99572,-1.22948 l 0,-1.84416 -4.61044,-3.99576 -3.6884,-4.9178 c 0,0 -1.22944,0 -0.61472,-3.07364 0.61472,-3.07364 0.61472,-3.07364 0.61472,-3.07364 l 0,0 3.6884,-7.0694 3.07364,-4.30308 3.381,-14.44612 c 0.897,-3.8326 2.45892,-3.07364 2.45892,-3.07364 l 6.762,-2.45892 10.4504,-5.53256 3.07364,-2.15156 3.0736395,-0.92208 -1.2294795,-2.15156 c 0,0 -3.99576,1.53684 -2.76628,-2.45892 l 1.22948,-3.99572 c 2.8152795,-9.14944 7.0693595,-6.45464 7.0693595,-6.45464 l 2.76628,-6.76204 c 0,0 1.53684,-8.29884 3.381,-9.22092 1.84416,-0.92208 1.7052,-2.87916 1.7052,-2.87916 l -1.13416,-1.98476 -3.40248,-1.41772 -1.70124,-1.70124 -5.95436,-1.13416 -5.6707995,1.13416 -3.40248,2.8354 -3.68604,1.41772 -5.95432,1.13416 -3.11896,-1.41772 -4.25312,-1.13416 -1.70124,-4.82016 -2.26832,-1.9848 -1.98476,-5.10372 -2.8354,-3.11896 -7.93912,-13.60992 -1.1342,-3.68604 1.70128,-1.70124 7.65556,-2.55184 7.37204,0.2836 0,-3.11892 -2.55184,-4.8202 -4.25312,-1.41768 -4.53664,-0.56708 -2.55184,-2.26832 -2.26836,-0.56708 -6.23788,-0.56708 -0.8506,-1.9848 -2.8354,-3.11896 -1.13416,-2.55184 -4.53664,-6.23788 -0.85064,-11.90872 0.85064,-7.37204 7.08848,-3.686 4.25312,-4.25312 2.26832,-5.95436 -1.41772,-4.53664 -1.98476,-0.2836 -3.40248,1.41768 -5.95436,3.68604 -2.26832,0.8506 -1.70124,-0.56708 -5.95436,-3.686 -4.82016,-1.9848 -0.56708,-6.5214 1.41768,-6.52144 1.70124,0 0.2836,-6.52144 -1.70124,-4.25308 -2.26832,-11.90872 -4.8202,-1.41768 -9.92392,-3.68604 -5.38724,-2.8354 -1.41772,-6.23788 1.9848,-3.40248 3.96956,-3.96956 1.70124,-3.96956 -5.74816,-0.016 z m 34.65304,-4.25188 3.58144,-4.49792 5.11896,-5.42008 4.2156,-2.1078 6.02232,-1.20448 2.1078,3.31228 2.71004,1.80668 2.3852,5.17928 -2.02604,4.36612 -3.40248,6.5214 -6.23792,3.40248 -4.25308,4.25312 -2.55188,-0.56708 -4.25308,-3.96956 -1.9848,-2.55188 -0.8506,-3.686 -0.58148,-4.83656 z"
       id="path3610"
       style="color:#ffffff;fill:#e45c36;fill-opacity:1;stroke:#ffffff;stroke-width:2;stroke-linecap:butt;stroke-linejoin:round;stroke-miterlimit:4;stroke-opacity:1;stroke-dasharray:none;stroke-dashoffset:0;marker:none;visibility:visible;display:inline;overflow:visible;enable-background:accumulate" />
  </g>
  <g
     transform="translate(1214.5282,1259.034)"
     id="layer3"
     style="display:inline">
    <path
       d="m 770.17986,-104.53803 -1.55872,-2.91376 -0.81312,-5.96296 0.6776,-3.79464 2.98148,2.30388 1.76176,1.49076 3.79464,1.08416 2.30388,1.7618 3.93012,-1.7618 6.77608,-3.25252 9.62208,-3.38804 9.62204,-3.65912 4.20116,-2.57488 2.30388,-6.91164 7.04716,-5.96296 2.98148,-10.57072 8.53788,-2.57488 1.3552,-4.2012 2.84596,-15.17844 4.2012,-10.57072 1.3552,-7.86028 -2.03284,-8.53788 -6.36952,-6.234 -1.89732,-2.57492 0,-4.87876 2.57492,-0.94868 8.6734,0 11.7904,0 15.58504,-0.6776 5.5564,-0.81312 1.62624,-1.35524 2.30388,1.21972 3.52356,3.52356 6.36956,3.38804 3.25252,3.117 5.96296,6.234 6.36952,3.11704 3.52356,4.06564 6.09848,2.57492 7.18268,3.65908 7.18264,1.62628 5.69192,1.76176 3.5236,6.234 5.28532,0.94868 1.0842,-0.94868 4.4722,-2.7104 2.03284,-4.33672 2.03284,-3.52356 3.65908,-1.0842 8.6734,0 5.42088,2.16836 2.16836,4.74328 1.89728,0.40656 0.1356,1.89732 c 0,0 1.7618,1.2196 3.5236,1.3552 1.7616,0.1356 2.0328,4.2012 2.0328,4.2012 l 10.02864,3.38804 9.89304,1.3552 1.8974,3.52356 3.7946,2.03284 7.1826,2.98148 3.6591,3.38804 2.4394,5.96296 1.7618,4.47224 2.1683,0.94864 1.4908,2.4394 9.351,1.08416 3.6591,2.57492 0.8131,-2.57492 4.0657,-0.81312 3.117,-1.49072 2.4394,-5.96296 7.0471,-3.5236 2.5749,-4.33668 9.351,-1.21972 7.4537,1.7618 7.0472,1.49076 5.963,-1.0842 13.2811,-3.117 7.8603,-2.03284 1.8973,-14.36532 4.8787,-2.84596 1.6263,-3.93012 3.5236,-2.98148 9.2155,-1.3552 4.8788,-0.54212 0.1356,-2.30384 -1.0842,-2.71044 -3.5236,-6.23404 -1.6262,-3.93012 1.4907,-2.71044 6.234,-3.25252 6.9116,-1.08416 6.234,0 3.6591,1.49072 2.0328,0.94868 1.7618,-1.21972 5.4209,-1.49072 4.4722,-2.4394 2.1684,-1.21972 -3.2525,-1.49072 -2.7105,-2.4394 -3.6591,-3.93012 -2.9815,-3.93016 -5.5563,-3.52356 0.1356,-1.21968 4.6077,0.1356 2.3039,2.30384 3.2525,0.94868 5.1498,0.1356 2.9815,-1.49076 3.5236,-3.117 6.234,-3.38804 9.622,-0.81312 6.3696,-0.1356 2.8459,-0.81316 -2.9815,-1.89728 -1.6262,-4.74328 -2.0328,-2.84596 -0.2712,-2.98148 -7.7248,-1.89732 -9.4865,-2.43936 -14.7719,-1.0842 -5.6919,-6.50504 -3.7946,-3.65908 -6.3695,-2.84596 -2.846,-3.38804 -3.2525,-6.23404 -1.6263,-7.04712 1.3552,-3.117 3.6591,-3.79464 4.0657,-3.117 -0.5421,-2.43936 -4.2012,-6.77612 -10.4352,-2.4394 -1.0841,-1.89728 -4.4723,-2.16836 -1.6262,-4.74328 -15.7206,-1.49072 -15.4495,-0.2712 -10.0286,-3.25252 -6.7761,-3.5236 -5.9629,-6.09848 -6.7762,-6.50504 -2.8459,-9.75756 -2.1683,-7.86028 -5.0144,-2.30388 -5.9629,-7.04712 -6.5051,-6.23404 -13.0101,-6.77608 -13.6877,-5.96296 -2.846,-6.36952 -3.2525,-6.50504 -2.0328,-7.18268 -2.0328,-1.7618 -2.7105,-7.72472 -0.9486,-10.70624 -0.6776,-13.41668 -1.49076,-11.92592 -2.03284,-10.97728 -7.58924,-1.76176 -3.52356,-3.52356 -6.50504,-3.11704 -3.38804,-3.38804 -3.79464,-1.49072 -2.98148,-5.01432 -16.9402,-1.7618 -1.7618,-4.4722 -4.60776,-1.89732 -1.21968,-2.4394 -2.16836,-0.94864 -2.30388,-4.4722 -6.50504,-7.18268 -6.36952,-5.69192 -7.18268,-3.25252 -6.36952,-3.7946 -5.96296,-2.30388 -5.28536,-2.03284 3.117,-2.16836 1.21972,-2.16832 3.52356,-7.58924 7.3182,-6.234 5.96296,-6.6406 6.77608,-6.77608 6.64056,-2.84596 3.25252,-3.93012 3.25256,-4.06568 3.38804,-5.5564 2.98148,-6.234 0.94864,-1.21968 0,-3.7946 -2.30388,-1.21972 -2.16832,-4.06564 -2.57492,-12.46804 -13.28116,-7.04712 -12.60352,-3.117 -6.234,-2.84596 -4.33672,-2.4394 -2.71044,-4.74328 -4.60776,-1.62624 -1.76176,-4.47224 -7.18268,-5.96296 -2.98148,-7.31816 -6.64056,-6.6406 -6.64056,-6.50504 -6.50492,-5.96232 -6.64056,-3.117 -6.36952,-3.38804 -6.234,-2.57492 4.74324,-1.0842 1.49076,-6.09848 3.38804,-7.31816 7.04716,-6.36952 6.09848,-6.77612 6.50504,-2.98148 19.65068,-3.25252 6.9116,-6.234 2.84596,-6.50504 3.25252,-3.5236 6.6406,-6.9116 5.5564,-5.42088 3.25252,-2.57492 -4.06568,-0.1356 -4.74324,-1.08416 -2.16836,-11.51936 1.89728,-7.72476 1.89732,-9.75756 1.7618,-10.29968 1.3552,-6.50504 0,-7.18268 -4.60772,-2.43936 -13.95876,-3.79464 -2.57492,-5.69192 -3.52356,-6.64056 -3.38808,-3.52356 -1.89728,-5.42088 -0.2712,-11.92592 2.4394,-3.79464 6.77608,-1.76176 4.74328,-2.84596 1.3552,-3.93016 3.93012,-6.36952 2.57492,-5.82744 1.21972,-2.30388 -1.0842,-4.74324 -2.57492,-9.8931 1.0842,-10.97728 5.14984,-1.89728 c 0,0 5.96296,-6.09848 6.64056,-6.91164 0.6776,-0.81312 5.96296,-6.64056 5.96296,-6.64056 l 1.49076,-14.50084 2.0328,-2.71044 11.38384,-0.40656 4.74328,1.3552 6.77608,3.79464 2.30388,0.6776 6.36952,-0.1356 4.33672,-1.08416 2.16832,-1.21972 4.2012,1.21972 3.7946,3.25252 2.71044,6.9116 6.36952,3.117 5.28536,1.35524 7.58922,-1.21972 3.5236,-3.25252 2.5749,-9.75756 2.1684,0 1.0841,-1.89732 4.7433,-0.2712 6.0985,0 5.8274,-1.08416 6.6406,-2.71044 11.1128,0.40656 2.7104,4.8788 3.3881,6.50504 2.7104,7.18264 2.3039,4.74328 3.6591,0.40656 2.5749,-2.03284 2.3039,-2.16832 2.5749,-1.35524 8.9444,-2.84596 10.0286,-2.98148 4.2012,-2.57492 2.3039,-4.60772 10.4352,-1.7618 6.0984,2.30388 3.6592,3.25252 6.6405,1.21968 6.0985,-1.3552 10.1642,-3.38804 7.3181,-2.71044 1.7618,-1.62628 13.0101,-1.89728 10.1642,-3.5236 1.3552,-1.89728 -3.5236,-2.71044 0.6776,-2.03284 5.6919,-0.54208 2.7105,-2.57492 3.5235,-3.38804 -0.4259,-3.96068 -3.0664,-5.55804 -2.1083,-6.708 2.6832,-6.70796 3.2582,-20.124 1.3416,-10.54112 4.7914,-1.72492 3.0665,-7.09128 3.4498,-3.06652 2.8749,-9.3912 1.5333,-5.17467 -1.5333,-9.7746 -9.5829,-1.1499 -14.3742,-3.8331 -4.5998,-3.0665 -6.708,-1.9166 -9.3912,1.3416 -1.9165,3.2581 -1.3416,-1.7248 -1.5333,-4.2165 -1.9166,-2.6832 -7.4746,-7.4746 -3.2581,-6.708 -1.5333,-3.6415 -2.6832,-2.1082 -2.4915,-3.6415 -6.5164,-3.2582 -1.5332,-8.8162 1.3416,-4.0248 4.2164,-13.0327 3.8332,-6.5163 1.1499,-7.6663 -0.9583,-3.8331 -4.5997,-0.9583 -1.725,-1.9166 -3.9311,-1.8852 -5.4209,-2.7105 -0.8131,-1.8973 -7.0472,-2.1684 -6.7761,-6.505 -7.3182,-6.7761 -1.0841,-8.1313 -3.2525,-0.5421 -2.1684,-4.3367 -6.505,-6.7761 -6.5051,-2.7104 -1.6263,-2.1684 -2.7104,-1.0841 -1.3552,-2.1684 -4.0657,-0.2712 -13.0101,-0.2712 -4.0656,-2.9815 -1.8973,-4.0657 -4.6078,-4.3367 0,-6.7761 -3.5235,-0.8131 -5.4209,1.3552 -8.4024,2.1684 -11.1128,1.6262 -3.7946,5.963 -2.9815,13.2812 c 0,0 -2.98144,8.9444 -2.98144,10.0286 0,1.0841 -0.81312,2.9815 -0.81312,2.9815 l -1.35524,-0.8132 -1.62624,-2.7104 -10.29968,-2.7104 -22.2256,-3.5236 -15.44948,-3.2525 -9.7576,-2.7105 -3.52356,-3.7946 -3.25252,-2.1683 -10.0286,1.3552 -3.25244,3.2525 -2.43936,6.7761 0.753,13.9056 2.10824,3.2582 0.95828,17.2491 -1.91656,1.3416 -2.87488,4.2164 -6.89964,13.416 -2.29988,9.3912 -4.0248,7.283 0.3832,1.9166 0.76664,5.1747 4.21644,1.1499 0,9.0079 -1.72492,4.5998 -1.14992,7.0913 -1.91656,8.8162 -6.89968,7.283 -6.89964,7.0912 -2.49152,6.3247 -2.87488,3.0666 -7.28296,3.0665 -3.25816,3.0666 -1.72492,5.36631 -2.29988,-3.25811 -1.91656,-1.15 -7.28296,-7.6662 -2.6832,-6.1331 -3.83312,-3.0665 -3.25816,-1.9166 -5.55808,1.15 -7.4746,2.2999 -1.53328,7.2829 -0.95828,7.0914 -4.0248,6.13295 -6.70796,6.708 -1.9166,4.98308 -4.21644,1.72492 -4.0248,1.72488 -3.64148,3.44984 -9.19952,0.3832 -1.72492,3.06652 -4.7914,2.1082 -6.32468,2.49156 -1.3416,3.83312 -5.17476,2.49156 -5.74968,6.32468 -5.17476,1.91656 -13.41596,0.1916 -1.14996,-2.49152 -6.89964,-2.49156 -13.99096,-2.29988 -0.57496,-5.17472 -2.87484,-3.06652 -2.6832,-8.62456 -2.87488,-2.10824 -4.40808,-0.3832 -2.29988,5.55804 -6.32468,5.94136 -3.06652,6.133 -1.53324,4.21648 1.3416,2.87484 1.72488,4.59976 -1.91656,5.55804 -2.29988,4.21648 -4.40812,2.1082 -9.39116,1.72492 -13.60764,0.76664 -19.16572,-2.87488 -8.24124,-1.53324 -11.88272,0 -16.29084,1.91656 -6.70796,4.21648 -3.06652,5.36636 -2.6832,9.3912 -3.25816,7.66628 -1.9166,0.76664 -1.72488,-0.76664 -6.32468,-3.44984 -5.94136,-2.29988 -2.29988,-5.74968 -4.5998,-1.9166 -12.64932,-3.06648 -4.0248,-3.44984 -3.83316,-2.87484 -7.4746,0.7666 2.29988,1.72492 0.57496,2.49156 -1.3416,1.53324 -6.32468,3.06652 -6.32468,3.06652 -1.3416,1.3416 1.14996,2.1082 1.53324,3.06652 -1.3416,3.44984 -1.14992,4.21644 1.3416,5.17472 3.25816,3.83316 3.44984,6.133 2.49152,9.58284 4.0248,3.83316 3.25816,6.708 2.49156,9.39116 0.7666,5.3664 -3.4498,12.07438 -6.32468,2.1082 -7.28296,1.72492 -1.9166,3.06652 -11.30772,1.72492 -12.64936,6.51632 -12.26604,5.94136 -3.83316,7.09132 -6.708,6.32468 -8.24124,7.4746 -11.4994,6.51632 -3.06652,3.06652 -2.29988,4.59992 -1.53324,-2.6832 -3.83316,-1.53324 -7.28296,0 -8.04956,1.53324 -14.56596,4.21648 -3.4498,1.14992 -3.83316,-2.29988 -6.51632,4.21644 -4.98308,2.29992 -1.91656,30.47344 -7.47464,1.14992 -15.14088,2.49156 -7.4746,3.06648 -11.11612,1.14996 -14.56592,2.10824 -6.32468,6.133 -5.74972,3.25816 -4.7914,3.44984 -0.95828,3.83312 1.72492,3.44984 5.55804,12.26604 4.40812,3.25816 2.87484,6.708 4.0248,4.21644 12.07436,5.3664 6.13304,5.94136 1.72492,2.6832 -0.1916,2.6832 -4.59976,1.91656 -6.32468,3.25816 -6.51632,6.32468 -2.6832,3.44984 -2.29988,2.6832 -4.79144,0.7666 -1.53324,0.76664 -2.87484,0.95828 -1.14996,-2.6832 -4.98308,-2.29988 -2.10824,-1.72492 -3.06648,1.3416 -5.17476,1.9166 -2.6832,8.43288 -2.6832,2.87484 -1.34156,4.0248 -5.74972,2.10824 -3.06652,3.64148 -6.51632,3.64148 -3.44984,3.64148 -12.26604,5.74972 -8.62456,1.91656 -11.4994,-1.3416 -4.40812,-2.10824 -1.91656,-7.85792 -6.708,-6.708 -4.59976,-2.29988 -1.72492,-4.21644 -1.3416,-1.53324 0.57496,-2.6832 1.53328,-0.95832 2.1082,-4.40808 1.14996,-3.83316 -0.57496,-2.49152 -4.59976,-4.0248 -10.15784,-2.29988 -9.19952,1.91656 -1.14996,1.91656 -3.25816,0.3832 -1.14992,2.10824 -3.83316,2.6832 -0.3832,2.1082 1.14996,1.9166 3.44984,1.72488 2.29988,2.87488 -0.575,9.77448 -2.1082,7.09132 -3.06652,14.1826 -2.6832,12.841 -2.10824,2.49156 -0.57496,8.0496 2.87488,1.14992 1.14992,2.49156 2.49156,0.7666 0.57496,11.11612 -1.91656,8.8162 -6.51636,7.47464 -2.1082,7.4746 -4.79144,1.91656 -4.59976,1.9166 -1.3416,4.21644 -7.28296,4.40812 -6.32468,5.74968 -7.09132,4.21648 -2.49152,2.49152 -3.83316,6.13304 -5.36636,3.06648 -16.29084,4.21648 -10.15784,3.06648 -3.64148,3.2582 -6.70796,5.74968 -6.51636,6.708 -3.25816,10.7328 -3.83312,3.83312 -1.53328,0 -2.1082,-2.10824 -5.17476,-1.53324 -3.06652,-3.25816 -3.25816,-7.09132 -3.06648,-11.88272 -2.6832,-12.26604 1.53324,-12.841 3.83312,-2.10824 1.53328,-2.87484 -0.95828,-3.64148 -3.44984,-3.25816 -6.89964,-2.6832 -9.96616,2.1082 -5.74972,6.51636 -6.708,2.1082 -4.56192,0.96716 -1.70124,3.40248 -3.40248,6.5214 -6.23792,3.40248 -4.25308,4.25312 -2.55188,-0.56708 -4.25308,-3.96956 -1.9848,-2.55188 -0.8506,-3.686 -0.76364,-4.28772 -3.74612,-0.99288 -3.25816,-1.91656 -2.10824,1.14996 -5.17472,2.6832 -3.64148,1.91656 -3.25816,-1.91656 -9.3912,0.1916 -2.68332,2.60528 4.53664,0 -1.70124,3.96956 -3.96956,3.96956 -1.9848,3.40248 1.41772,6.23788 5.38724,2.8354 9.92392,3.68604 4.8202,1.41768 2.26832,11.90876 1.70124,4.25308 -0.2836,6.52144 -1.70124,0 -1.41768,6.52144 0.56708,6.52136 4.82016,1.9848 5.95436,3.686 1.70124,0.56712 2.26832,-0.8506 5.95436,-3.68608 3.40248,-1.41768 1.98476,0.2836 1.41772,4.53664 -2.26832,5.95436 -4.25312,4.25312 -7.08848,3.686 -0.85064,7.37204 0.85064,11.90872 4.53664,6.23788 1.13416,2.55184 2.8354,3.11896 0.8506,1.9848 6.23788,0.56708 2.26836,0.56708 2.55184,2.26832 4.53664,0.56708 4.25312,1.41772 2.55184,4.82016 0,3.11896 -7.37204,-0.2836 -7.65556,2.5518 -1.70128,1.70124 1.1342,3.68608 7.93912,13.60988 2.8354,3.11896 1.98476,5.10372 2.26832,1.9848 1.70124,4.82016 4.25312,1.13416 3.11896,1.41772 5.95432,-1.13416 3.68604,-1.41772 3.40248,-2.8354 5.6708,-1.13416 5.95436,1.13416 1.70124,1.70124 3.40248,1.41772 1.13416,1.98476 1.16852,0.55732 4.12064,0.47912 1.05408,2.10824 7.95376,-0.76664 2.87488,-1.3416 2.97068,-3.35396 10.73276,1.4374 13.32016,3.44984 4.0248,1.53324 1.72492,14.47012 1.63956,7.02536 -1.49072,6.64056 -1.35524,2.4394 0,4.20116 7.58924,-0.54208 10.29968,-5.01428 4.20116,-0.67764 -1.08416,-14.09428 -2.30388,-3.117 1.3552,-1.62624 2.30388,-3.117 5.42088,1.08416 6.36952,3.93012 1.0842,3.79464 -4.74328,2.57492 -2.30388,6.36952 -1.7618,5.69192 -0.1356,11.38384 3.93016,0.94864 3.7946,-1.62624 6.50504,-3.38808 6.91164,-3.38804 4.4722,-2.71044 0.2712,-2.0328 2.30388,-0.81316 1.0842,-2.0328 5.5564,0 2.7104,4.74324 1.21972,7.18268 -3.7946,2.30384 0.81312,7.04716 4.4722,3.117 6.6406,6.234 6.77608,6.50504 12.33248,1.35524 4.47224,0.1356 1.49072,15.44948 4.47224,2.16836 5.01432,3.65908 -1.21972,22.63216 -2.16832,12.8746 -1.49076,13.68768 -9.62204,3.38808 -2.4394,1.08416 -1.21972,-1.49076 -3.52356,-1.21968 -3.25252,1.7618 -2.71044,2.71044 -5.28536,2.0328 1.49076,10.84176 3.25252,4.06564 1.49072,7.58924 c 0,0 -2.7104,0.1356 -2.7104,0.6776 0,0.54212 -0.67764,2.71044 -0.67764,2.71044 l -1.62624,0.40656 -1.21972,2.16836 -2.84596,0.94868 -1.08416,4.33668 0,6.09848 3.38804,-2.57492 11.65488,0 3.7946,7.45372 3.38808,6.50504 2.43936,2.57492 3.38808,0.94864 4.60772,-2.84596 1.7618,1.7618 3.7946,3.38804 4.60776,2.03284 2.71044,2.4394 2.71044,1.3552 3.117,6.91164 1.08416,2.0328 -0.6776,2.71044 -2.03284,1.0842 0,8.13128 7.86028,1.35524 4.06564,-1.49076 2.84596,-3.52356 3.38808,-3.25252 3.25252,-3.7946 8.80892,-1.89732 9.89308,1.7618 6.91164,3.7946 2.16832,4.06564 10.02864,0.4066 14.09428,-1.7618 6.50504,-2.98148 6.50504,-1.62628 3.52356,-10.97728 3.38808,-6.64056 5.82744,-3.52356 6.36952,-1.7618 5.01432,0.40656 1.3552,1.89732 3.65908,1.62628 1.35524,-1.49076 2.30388,-3.65908 6.36952,-13.5522 2.98148,-3.38804 4.20116,-6.36952 6.6406,-6.77612 6.09848,-2.84596 10.57068,-1.76176 9.08,1.89732 13.1456,3.25252 3.117,3.25252 0.94868,5.28536 0.1356,4.60772 -3.5236,3.117 -7.04712,3.5236 -7.04716,2.7104 -1.21968,2.57492 0.81312,2.57492 3.65912,0.81316 0.1356,1.76176 10.29964,2.57492 7.3182,1.89732 1.62624,7.72472 3.38804,3.38808 9.62208,2.71044 22.9032,3.52356 3.38804,3.38804 9.21548,2.98148 7.04716,2.16836 2.0328,2.84596 8.53788,2.4394 0.81316,5.1498 -2.4394,2.03284 1.62624,2.03284 3.25252,3.38804 6.09852,12.19696 3.38804,10.4352 2.98148,5.962962 2.0328,5.14984 3.25256,1.21968 1.21968,4.2012 1.49072,3.93012 0,8.13132 1.35524,3.65908 1.21968,-3.117 11.1128,-1.21972 8.6734,-0.1356 1.7618,5.96296 8.26684,0.2712 7.5892,-1.35524 1.21972,-3.52356 3.117,-5.96296 3.117,-6.91164 7.18264,-6.50504 6.50508,-1.89732 9.07996,1.7618 3.65908,3.93012 5.42088,0.94868 1.49076,2.84596 2.57488,2.30388 3.38808,6.9116 3.65908,2.98148 2.71044,5.96296 6.9116,6.9116 1.21972,4.33672 2.0328,1.08416 1.49076,3.38808 1.49072,-3.65912 0.67764,-2.0328 2.98148,-7.04716 2.84596,-2.71044 1.21968,-4.74324 2.84596,-12.06148 5.5564,-12.468 3.38804,-13.010082 3.38804,-3.25256 2.71044,-6.77608 3.93016,-3.25252 12.468,-1.89732 8.40236,0.54208 0.81312,5.82744 4.47224,2.16836 12.87456,3.25252 10.02864,3.65912 0.81312,2.71044 1.21968,4.4722 5.96296,0.6776 5.5564,0.1356 5.75944,-0.3388 z"
       id="path2824"
       style="color:#ffffff;fill:#e45c36;fill-opacity:1;stroke:#ffffff;stroke-width:2;stroke-linecap:butt;stroke-linejoin:round;stroke-miterlimit:4;stroke-opacity:1;stroke-dasharray:none;stroke-dashoffset:0;marker:none;visibility:visible;display:inline;overflow:visible;enable-background:accumulate" />
  </g>
  <g
     transform="translate(1214.5282,1259.034)"
     id="layer4"
     style="display:inline">
    <path
       d="m 994.82342,773.25813 -4.48792,-0.90136 -8.94444,-0.54208 -5.42088,-1.0842 -6.77612,-4.06564 -4.60772,-4.06568 -2.16836,-7.5892 1.08416,-7.04716 -0.2712,-7.5892 2.98148,-8.40236 3.5236,-5.42088 2.71044,-2.71044 1.62624,-1.62628 0,-1.3552 -7.31816,-4.06564 -2.16836,-7.04716 0,-7.04712 2.98148,-0.81316 1.08416,-2.16832 2.98148,-2.71044 0.54212,-1.35524 -4.06568,-2.98148 -1.62624,-8.40236 -3.79464,-11.1128 -3.25252,-5.96296 -2.16836,-13.55216 -1.62624,0 -0.81316,-2.16836 -8.40232,-3.52356 -15.72056,-2.98148 -11.1128,-2.71044 -5.69192,-4.06568 -2.4394,-5.96296 -6.234,-2.16836 -7.31816,-8.13128 -6.50508,-1.62628 -0.54208,-8.6734 -4.33668,0 -1.89732,-3.7946 -4.60772,-2.4394 0,-11.38384 1.08416,-4.06568 1.89732,-8.40232 -0.81316,-5.42088 -3.52356,-2.71044 -3.25252,-5.96296 -3.25252,-3.25252 -2.4394,-4.60776 2.71044,-3.25252 1.62624,-1.62628 -11.65488,-0.2712 -13.26524,-6.90116 -4.1206,-3.25816 -2.29992,-9.00788 -1.72488,3.92896 -1.82076,1.53324 -2.20404,5.17476 -1.14996,-2.39572 -1.82072,-0.76664 -1.05412,-1.82072 -1.91656,-6.61216 -1.2458,-12.55352 -10.25364,-3.83316 -13.60764,-2.6832 -1.53324,-2.0124 -7.95376,-1.91656 -6.22884,-6.32468 -6.13304,-3.06652 -3.4498,-7.28296 -3.83316,-5.74968 -6.94572,-6.95604 -2.57492,-6.36952 -3.52356,-1.49076 -4.20116,-0.2712 -8.53788,1.35524 -1.7618,2.84596 -1.49072,-1.62628 1.49072,-6.9116 1.35524,-3.79464 3.52356,-6.9116 3.25252,-9.62204 1.62628,-5.42088 -0.4066,-16.80472 1.89732,-7.45372 2.98148,-4.60772 2.4394,-0.94868 1.49072,-3.52356 4.2012,-1.62624 0.54208,-6.6406 -1.89732,-5.42088 -3.38804,-2.4394 -2.0328,-7.5892 2.43936,-6.234 6.77612,-2.30388 10.29964,0.1356 2.71044,2.4394 0.6776,4.87876 0.81316,-0.2712 2.84596,-3.25252 1.76176,-1.21968 2.4394,-8.94444 2.57492,-0.1356 1.49076,-2.57492 9.89308,-1.7618 5.42088,-1.3552 4.74328,1.62624 2.16832,3.93016 4.8788,0.54208 5.28536,-1.0842 5.5564,-0.81312 0.81312,-0.94864 -3.93012,-2.4394 -0.2712,-3.117 1.3552,-6.09848 3.38804,-13.14564 2.4394,-14.63636 2.57492,-0.1356 1.62628,-3.25252 12.87456,-1.08416 9.75756,-3.11704 3.65912,-3.52356 4.60772,-1.62624 5.28536,1.49072 2.84596,3.25252 1.21972,4.8788 4.74324,1.62628 7.04716,3.117 3.38804,3.65908 4.06564,0.6776 2.57492,3.52356 9.21548,1.62628 10.97728,2.30388 19.65068,-0.81316 1.62628,-6.36952 2.16832,-0.6776 2.16836,-3.7946 12.8746,-1.21972 1.3552,2.71044 15.17844,1.89732 1.89732,0.81312 1.49072,-1.08416 2.98148,-2.98148 0.94868,-19.51516 2.30388,-12.87456 9.89306,-3.79464 2.4394,-4.87876 8.6734,-0.1356 1.7618,-4.74324 6.3695,-6.36952 5.963,-6.6406 7.9958,-3.65908 5.963,-6.09848 3.659,-1.35524 2.1684,-4.33668 3.7946,-6.9116 4.4722,-1.89732 -0.5421,-3.7946 -0.9486,-4.60776 -4.0657,-2.30388 -0.4066,-3.7946 1.7618,-10.16416 2.1684,-5.5564 3.9301,-0.6776 9.7576,-3.65908 2.846,-1.35524 4.2011,1.21972 2.846,1.08416 5.4209,0.2712 1.0841,-10.84172 3.5236,-6.6406 4.7433,-1.89728 2.1683,-7.9958 6.5051,-6.77612 5.9629,-5.96296 4.6078,-2.16832 2.0328,-7.9958 1.4295,-7.71884 -10.7805,-0.68368 -3.5236,-0.81312 -6.234,-6.77612 -7.3182,-7.31816 -5.6919,-6.234 -7.5892,-6.23404 -15.4495,-3.25252 -10.0286,-2.98148 -8.1313,-2.16832 -1.6263,-4.33672 -3.5236,-3.7946 -2.1683,-4.60776 -2.1683,-0.2712 -1.6263,-2.4394 -3.7946,-2.16836 -8.9445,-2.71044 -6.505,-2.710398 -11.92596,0.2712 -2.16832,3.252518 -4.06568,0 -2.4394,-1.897318 -2.71044,-2.71044 -7.04712,-2.71044 -13.82324,-7.86028 -8.94444,-2.7104 -7.31816,-1.62628 -2.71044,-4.8788 -6.77612,-3.7946 -5.96296,-5.69192 -6.234,-3.7946 -3.7946,-2.98148 -12.46804,-6.50508 -17.3468,-3.25252 -9.21548,-3.25252 -13.28116,-6.77608 -5.96296,-1.62628 -5.42084,0.2712 -0.54212,6.50508 0.81316,7.31816 0.81312,3.25252 1.89732,2.16836 1.08416,2.71044 2.4394,2.98148 -0.81312,6.77608 -3.5236,0.81316 -7.5892,0 -2.4394,-3.5236 -11.38384,0 -15.17844,-1.3552 -7.04716,-3.25252 -12.468,-6.50504 -5.96296,-13.01012 -3.25252,-13.82324 -3.79464,-2.16836 -2.4394,-6.77608 -3.52356,-2.98148 -7.5892,-7.04712 -6.23404,-2.9814805 -3.25252,-2.71044 -1.89728,-16.8047195 -2.98148,-10.02864 -4.8788,-6.77608 -0.81312,-9.75756 2.16832,-9.48656 2.71044,-23.03872 2.98148,-7.04712 2.91372,-9.14772 1.69404,-11.24832 -1.62604,-6.979362 -5.82744,0.2712 -5.5564,-0.1356 -5.96296,-0.6776 -1.21968,-4.4722 -0.81312,-2.71044 -10.02864,-3.65912 -12.87456,-3.25252 -4.47224,-2.16836 -0.81312,-5.82744 -8.40236,-0.54208 -12.468,1.89732 -3.93016,3.25252 -2.71044,6.77608 -3.38804,3.25256 -3.38804,13.010082 -5.5564,12.468 -2.84596,12.06148 -1.21968,4.74324 -2.84596,2.71044 -2.98148,7.04716 -0.67764,2.0328 -1.49072,3.65912 -1.49076,-3.38808 -2.0328,-1.08416 -1.21972,-4.33672 -6.9116,-6.9116 -2.71044,-5.96296 -3.65908,-2.98148 -3.38808,-6.9116 -2.57488,-2.30388 -1.49076,-2.84596 -5.42088,-0.94868 -3.65908,-3.93012 -9.07996,-1.7618 -6.50508,1.89732 -7.18264,6.50504 -3.117,6.91164 -3.117,5.96296 -1.21972,3.52356 -7.5892,1.35524 -8.26684,-0.2712 -1.7618,-5.96296 -8.6734,0.1356 -11.1128,1.21972 -1.21968,3.117 -1.35524,-3.65908 0,-8.13132 -1.49072,-3.93012 -1.21968,-4.2012 -3.25256,-1.21968 -2.0328,-5.14984 -2.98148,-5.962962 -3.38804,-10.4352 -6.09852,-12.19696 -3.25252,-3.38804 -1.62624,-2.03284 2.4394,-2.03284 -0.81316,-5.1498 -8.53788,-2.4394 -2.0328,-2.84596 -7.04716,-2.16836 -9.21548,-2.98148 -3.38804,-3.38804 -22.9032,-3.52356 -9.62208,-2.71044 -3.38804,-3.38808 -1.62624,-7.72472 -7.3182,-1.89732 -10.29964,-2.57492 -0.1356,-1.76176 -3.65912,-0.81316 -0.81312,-2.57492 1.21968,-2.57492 7.04716,-2.7104 7.04712,-3.5236 3.5236,-3.117 -0.1356,-4.60772 -0.94868,-5.28536 -3.117,-3.25252 -13.1456,-3.25252 -9.08,-1.89732 -10.57068,1.76176 -6.09848,2.84596 -6.6406,6.77612 -4.20116,6.36952 -2.98148,3.38804 -6.36952,13.5522 -2.30388,3.65908 -1.35524,1.49076 -3.65908,-1.62628 -1.3552,-1.89732 -5.01432,-0.40656 -6.36952,1.7618 -5.82744,3.52356 -3.38808,6.64056 -3.52356,10.97728 -6.50504,1.62628 -6.50504,2.98148 -14.09428,1.7618 -10.02864,-0.4066 -2.16832,-4.06564 -6.91164,-3.7946 -9.89308,-1.7618 -8.80892,1.89732 -3.25252,3.7946 -3.38808,3.25252 -2.84596,3.52356 -4.06564,1.49076 -7.86028,-1.35524 0,-8.13128 2.03284,-1.0842 0.6776,-2.71044 -1.08416,-2.0328 -3.117,-6.91164 -2.71044,-1.3552 -2.71044,-2.4394 -4.60776,-2.03284 -3.7946,-3.38804 -1.7618,-1.7618 -4.60772,2.84596 -3.38808,-0.94864 -2.43936,-2.57492 -3.38808,-6.50504 -3.7946,-7.45372 -11.65488,0 -3.38804,2.57492 0,-6.09848 1.08416,-4.33668 2.84596,-0.94868 1.21972,-2.16836 1.62624,-0.40656 c 0,0 0.67764,-2.16832 0.67764,-2.71044 0,-0.542 2.7104,-0.6776 2.7104,-0.6776 l -1.49072,-7.58924 -3.25252,-4.06564 -1.49076,-10.84176 5.28536,-2.0328 2.71044,-2.71044 3.25252,-1.7618 3.52356,1.21968 1.21972,1.49076 2.4394,-1.08416 9.62204,-3.38808 1.49076,-13.68768 2.16832,-12.8746 1.21972,-22.63216 -5.01432,-3.65908 -4.47224,-2.16836 -1.49072,-15.44948 -4.47224,-0.1356 -12.33248,-1.35524 -6.77608,-6.50504 -6.6406,-6.234 -4.4722,-3.117 -0.81312,-7.04716 3.7946,-2.30384 -1.21972,-7.18268 -2.7104,-4.74324 -5.5564,0 -1.0842,2.0328 -2.30388,0.81316 -0.2712,2.0328 -4.4722,2.71044 -6.91164,3.38804 -6.50504,3.38808 -3.7946,1.62624 -3.93016,-0.94864 0.1356,-11.38384 1.7618,-5.69192 2.30388,-6.36952 4.74328,-2.57492 -1.0842,-3.79464 -6.36952,-3.93012 -5.42088,-1.08416 -2.30388,3.117 -1.3552,1.62624 2.30388,3.117 1.08416,14.09428 -4.20116,0.67764 -10.29968,5.01428 -7.58924,0.54208 0,-4.20116 1.35524,-2.4394 1.49072,-6.64056 -1.63956,-7.02536 -1.72492,-14.47012 -4.0248,-1.53324 -13.32016,-3.44984 -10.73276,-1.4374 -2.97068,3.35396 -2.87488,1.3416 -7.95376,0.76664 -1.05408,-2.10824 -4.12064,-0.47912 -2.8736,2.32204 c -1.84416,0.92208 -3.381,9.22092 -3.381,9.22092 l -2.76628,6.76204 c 0,0 -4.25408,-2.6948 -7.06936,6.45464 l -1.22948,3.99572 c -1.22948,3.99576 2.76628,2.45892 2.76628,2.45892 l 1.22948,2.15156 -3.07364,0.92208 -3.07364,2.15156 -10.450401,5.53256 -6.762,2.45892 c 0,0 -1.56192,-0.75896 -2.45892,3.07364 l -3.381,14.44612 -3.07364,4.30308 -3.6884,7.0694 0,0 c 0,0 0,0 -0.61472,3.07364 -0.61472,3.07364 0.61472,3.07364 0.61472,3.07364 l 3.6884,4.9178 4.61044,3.99576 0,1.84416 c 0,0 0,0 -3.99572,1.22944 -3.99572,1.22948 -2.15156,1.8442 -2.15156,1.8442 l 2.45892,2.76628 -0.61472,6.762 -3.07364,0.61476 -1.8442,1.5368 -5.53256,0.92212 -2.15208,8.9142 -4.61044,9.83564 c 0,0 0.92224,8.91356 1.22944,10.4504 0.3072,1.5368 0,0 0,0 l -3.99572,8.6062 -3.07364,8.29884 -2.76628,4.91776 -3.07364,0 -1.8442,-2.45884 -8.6062,0.3072 -7.06936,0.3072 -6.45464,4.30304 -1.53684,10.75776 -1.5368,11.06512 -3.38104,7.68408 -1.84416,2.15156 -6.7620395,3.381 -4.9178,1.53684 -5.2252,-1.22948 -2.76628,-4.6104 -0.3072,-11.06512 2.15156,-7.37672 2.15152,-17.2124 1.8442,-11.37248 2.45892,-16.59768 -0.61472,-9.22092 -1.8442,-14.13876 -3.68836,-13.8314 -2.76628,-8.29888 -2.45892,-9.22092 -2.1515605,-5.53252 -1.22944,1.22948 -1.22948,6.4546 -3.99572,3.38104 0,3.38096 0.92208,2.15156 3.381,3.381 3.6884005,7.06936 0.61472,9.22096 -2.1515605,4.30308 -1.22944,7.99148 -3.99576,0.3072 -5.22516,-1.2294 -0.3072,-5.5326 -1.84416,0.3072 -2.76628,1.22944 c 0,0 0,0 -2.76628,6.76204 -2.76628,6.762 0,0.3072 -3.68836,8.91356 -3.68824,8.6062 0,0 -3.38104,3.99572 -3.38084,3.99572 -3.07364,6.45464 -3.07364,6.45464 l -8.2988,7.0694 -9.22096,1.22944 -3.07364,3.6884 -0.3072,4.30312 2.45892,1.22944 1.8442,11.67984 3.07364,15.98296 1.5368,4.9178 -0.92208,7.99148 -3.381,9.83564 -3.6884,6.45464 -6.45464,7.37672 -7.37672,2.76644 -6.45468,4.30316 -1.84416,1.5368 -4.30312,7.0694 -0.92208,11.9872 -4.61048,1.5368 -5.83992,2.76628 -7.376719,3.07364 -4.30312,4.61048 -1.22944,0.92208 -2.76628,-0.92208 -1.5368,-3.68836 -7.0694,-3.381 -3.381,-0.92212 -5.53256,0.61476 -2.45892,5.53252 -2.45892,-5.22516 -3.381,-2.45892 -0.61472,-9.83568 2.76628,-1.5368 -0.61472,-1.22948 -3.6884,-0.92208 -6.14728,-7.37672 -3.99572,-6.76204 -6.45464,-6.762 -8.29884,0.3072 -3.68836,1.53684 -7.37676,-0.61476 -0.61472,-3.68836 -2.76628,-7.37672 -0.61472,-4.30312 -2.15156,-0.92208 -3.99572,2.45892 -9.22096,3.99572 -6.762,3.381 -11.37248,1.53684 -11.37248,-1.8442 -6.762,-3.6884 -3.68836,-3.6884 -11.37248,-6.14724 -2.76628,-1.53684 -4.30312,0.61476 -7.06936,3.99568 -3.6884,4.30312 -2.15152,3.07368 -4.30312,3.381 -19.97868,1.53684 -11.06508,0.61472 -1.8442,2.45892 -3.07364,1.84416 -2.15156,8.91356 -4.30308,7.37676 -2.45892,1.8442 -4.61048,3.68836 -2.76628,3.07364 -3.381,1.5368 -5.53256,1.8442 -4.30308,7.37676 -2.76628,2.45888 -3.07364,6.45468 -3.38104,4.30308 -1.5368,2.76628 -2.76628,-8.6062 -2.15156,-4.61044 -6.45464,-6.14732 -6.762,-4.61044 -16.29032,-2.15156 -5.53256,-2.45892 -7.06936,1.53684 -16.59768,3.07364 -11.37248,-2.45892 -11.67984,-1.22944 -11.06512,0.92208 -1.22944,13.8314 -3.381,3.99572 -17.51976,3.07364 -3.07364,1.53684 -3.6884,-2.45892 -12.60192,-1.22948 -7.37676,-2.15152 -11.9872,-3.6884 -7.68408,-0.92208 -2.45892,-4.61048 -2.15156,-10.143 -2.76628,-8.91356 -7.99148,-14.13876 -3.381,-11.06512 -7.06936,-12.29456 -5.83992,-11.37248 -3.07364,-9.52828 -4.30312,-8.29884 -3.68836,-0.92208 -2.15156,4.61044 -2.15156,2.15156 -0.41664,-2.42836 -10.82952,-0.94168 -4.70848,-2.35424 -4.70848,-1.8834 -1.41256,-3.7668 -5.17932,-4.23764 -7.06272,-0.47084 -2.35428,1.8834 -4.2376,-3.7668 -3.7668,-0.94168 -2.35424,-2.82508 -6.59188,-3.29596 -3.29596,-3.29592 c 0,0 0,0 -3.76676,-6.59188 -3.7668,-6.59188 -8.00444,-2.35428 -8.00444,-2.35428 0,0 0,-0.47084 -1.41256,-2.35424 -1.41252,-1.88336 0,-0.94168 0,-3.29592 0,-2.35424 2.82508,0.47084 2.82508,0.47084 l -1.88336,-4.23764 c 0,0 0,0 -2.82512,-2.82508 -2.82508,-2.82508 -3.76676,2.35424 -3.76676,2.35424 l -8.94612,1.41256 -5.17936,1.41252 c 0,0 0,0 -2.35424,1.8834 -2.35424,1.8834 -3.29592,1.41256 -3.29592,1.41256 l -1.41256,0.94168 0,0.47084 2.82508,2.35424 3.29596,1.8834 0.47084,3.29596 -5.6502,0.94168 -5.17932,-0.47084 -8.94612,-0.47084 c 0,0 0,-0.47084 0,6.12104 0,6.59188 3.29592,0.47084 3.29592,0.47084 l -2.35424,4.70848 -5.65016,8.00444 -2.82508,-3.7668 -1.8834,0.47084 0,1.8834 0.47084,4.70848 3.29592,2.82508 -1.41252,4.70852 -8.94612,7.06272 -0.47088,4.70848 1.41256,4.23764 2.82508,6.59188 2.35424,1.8834 -1.41252,1.8834 -7.06272,3.29592 -6.59188,6.59188 -6.12104,5.17936 -5.17936,2.82508 -1.41252,9.8878 -6.12104,8.47528 -8.47528,4.23764 -1.8834,1.8834 -6.12104,5.6502 -1.41252,6.59188 0.94168,7.06272 2.82512,5.17932 c 0,0 0,2.82508 0,4.70848 0,1.8834 0,4.70848 0,4.70848 l -3.29596,4.70852 -2.82508,2.3542 -4.23764,2.354202 -2.35424,-0.47084 -3.7668,-4.237642 -4.70848,-1.8834 -8.47528,-4.70848 -3.29596,-0.47088 -1.41252,-2.82508 -2.35424,-2.35424 -1.41256,-1.41256 -16.95056,-2.82508 -23.07156,-2.35424 -26.36752,1.41256 -8.47528,4.23768 -4.23764,2.82508 -0.86172,3.9132 4.21644,6.708 4.79144,2.29988 1.14992,3.258162 2.49156,2.10824 -1.53328,2.1082 -1.3416,1.91656 1.3416,4.5998 3.44984,6.51632 3.06652,3.4498 3.25816,7.09132 3.25816,5.94136 2.10824,3.83316 5.36636,1.91656 2.49156,2.49152 6.708,1.9166 2.6832,5.74968 2.1082,2.29988 -2.49152,1.3416 0,2.87488 4.21644,4.59976 2.6832,5.74968 3.4498,3.2582 4.0248,3.64148 3.06652,5.74968 5.3664,6.32468 4.98308,2.2998795 0.57496,6.32468 -2.6832,2.87484001 -1.91656,-1.34156001 -4.79144,-1.72492 -1.34156,-2.49156 -4.21648,-2.29988 -2.87484,-3.4497995 -3.25816,-2.49156 -2.6832,-3.25816 c 0,0 0.1916,3.25816 1.72492,4.40812 1.53324,1.14992 3.4498,3.8331195 3.4498,3.8331195 l 2.29988,2.6832 4.59976,4.0248 5.55808,3.25816001 7.85792,0 9.19952,0.95827999 c 0,0 1.91656,6.32464 2.6832,6.13304 0.76664,-0.1916 7.47464,3.8331205 7.47464,3.8331205 l 2.87484,9.77452 3.64148,10.1578 0,-1.72492 0.95828,7.85792 -1.91656,1.9166 -0.57496,5.55804 2.49152,1.3416 1.3416,2.49152 2.87484,-6.133 0.95828,0.95828 -1.14992,5.3664 2.29988,2.87484 4.21644,2.29988 1.9166,13.03268 2.49152,6.133 7.09132,6.51636 3.25816,3.4498 2.6832,9.58284 2.29988,2.29992 2.1082,2.49152 9.19956,0 6.70796,-1.72492 9.96616,-2.6832 12.64936,-6.89964 9.77452,-3.83312 13.60764,-2.29988 18.01572,-3.2582 4.79144,-1.3416 8.8162,0.95832 10.54116,3.25816 6.70796,6.51632 5.74972,2.87484 7.09132,7.09132 6.51632,3.449838 6.13304,6.133 13.79928,7.28296 5.55804,2.29988 4.0248,2.29988 0.95828,2.49156 2.10824,0.1916 1.3416,2.6832 3.25816,0.95828 1.72492,4.40812 3.64148,10.1578 1.91656,4.59976 3.83312,1.72492 6.51636,1.91656 7.66628,1.53328 18.39904,3.4498 14.1826,6.51636 2.6832,3.4498 6.708,2.87488 3.83316,1.72492 1.53324,2.87484 1.91656,0.95828 3.25816,4.98308 6.13304,5.17472 6.708,13.416 2.29988,7.28296 5.36636,2.10824 0.575,1.72488 2.29988,1.53328 2.29988,3.64148 12.841,3.4498 3.25816,3.64148 5.94136,2.49156 10.15784,3.4498 5.74968,2.49156 0.76664,3.83312 5.94136,3.06652 2.87488,5.55804 4.21644,1.72492 2.29988,4.40812 5.74972,1.14992 1.34156,2.29992 20.89064,1.34156 12.64932,7.09132 8.81624,9.58284 6.89964,2.87488 6.708,7.66624 6.89964,5.94136 1.72492,4.5998 2.87484,1.91656 1.53324,3.06652 7.09132,7.66624 2.49156,2.49156 3.83312,6.51632 1.72492,3.83316 3.06652,2.87484 0.95828,3.06652 4.21644,7.09128 2.6832,5.9414 2.87484,3.25816 4.0248,6.89964 3.06652,9.58284 3.25816,3.06652 3.25816,7.09128 2.6832,2.49156 7.66628,13.03268 6.708,14.1826 2.87484,4.98308 2.6832,10.34948 4.0248,6.89964 3.06652,9.39116 3.25816,5.55808 2.6832,13.79928 6.51632,13.60764 3.83312,6.51632 3.44984,9.3912 3.06652,9.96616 2.87484,9.77452 1.3416,6.32468 0,11.30772 -2.10824,3.06652 -2.1082,1.91656 -1.91656,2.10824 1.3416,1.72492 3.64148,6.51632 3.06648,6.13304 6.708,12.64936 0.76664,9.58284 -3.44984,2.6832 -2.6832,2.29988 0,0.95828 8.24124,1.53324 1.14996,1.14996 3.25816,-1.3416 5.55804,-1.9166 11.11612,-0.7666 4.7914,-2.49156 6.89968,0.575 -6.708,1.72488 -13.03268,3.2582 -7.09128,2.29988 -1.53328,4.59976 3.25816,1.3416 3.44984,-0.1916 3.25816,-3.83312 9.77452,2.29988 4.98308,3.06652 6.51632,0.8624 1.82072,2.58736 5.17476,2.58736 13.22432,6.708 6.8038,3.73732 9.00788,2.6832 13.79932,6.61216 6.51632,3.64148 12.745199,3.25816 6.89964,3.73732 3.06652,2.87484 12.36184,6.22884 4.21648,3.354 12.93684,6.80384 2.779,2.97068 6.80384,3.54564 4.50392,1.53324 1.05412,2.5874 3.73732,2.1082 6.70796,6.32468 6.80384,3.44984 6.51632,6.42048 6.80384,3.2582 3.1623205,3.64148 6.80384,3.16232 2.6832,3.06652 6.8038,2.87484 6.0371995,7.18716 6.51632,6.22884 6.42052,6.708 6.99548,6.61216 6.22884,3.06648 3.54564,3.06652 6.32468,3.54564 6.51636,6.61216 6.8038,6.32468 6.61216,6.51636 6.0372,6.51632 6.51632,6.61216 3.354,2.58736 4.12064,4.40812 8.1454,7.57044 7.570441,7.3788 4.31228,4.6956 7.57048,8.33708 8.04956,7.57044 4.59976,7.76208 4.0248,8.52876 3.54568,3.4498 7.85792,8.24128 8.7204,7.85792 7.66624,8.43288 4.12064,7.47464 7.95376,8.24124 4.59976,1.82076 3.64148,6.133 7.95376,7.95376 3.73732,4.21644 4.0248,8.24124 8.1454,8.14544 3.73732,7.3788 7.85792,8.33708 4.12064,3.83312 4.40812,7.76212 3.64148,8.1454 8.04956,8.1454 8.0496,8.24128 4.0248,7.4746 4.12064,8.33708 3.83312,4.0248 7.95376,15.42836 4.21644,4.59976 3.83316,7.85796 8.24124,8.04956 4.0248,8.52876 4.21644,7.28293 3.354,4.4081 8.33708,16.0034 4.31228,11.7869 2.6832,1.6291 8.1454,0 4.79144,-5.5581 4.31228,-3.929 7.96284,-4.1881 11.11276,-4.3367 19.65068,-2.846 16.6692,3.117 15.9916,3.3881 3.93012,4.4722 7.9958,4.3367 8.40236,4.2012 3.7946,3.7946 15.44948,7.5892 8.94444,8.2669 7.86028,4.4722 2.57492,4.8788 2.84596,0.9486 0.54208,2.4394 8.94444,2.9815 4.60776,4.3367 8.40236,4.0657 3.52356,3.388 2.03284,2.0328 3.117,3.3881 1.49072,1.4907 1.35524,-2.9814 2.30388,-0.9487 1.21968,-4.3367 1.21968,-2.0328 2.4268,-2.0527 c 0.1228,-0.2908 -2.37868,-16.7489 -2.642,-17.8022 -0.2632,-1.0533 -4.4766,-7.7682 -4.4766,-7.7682 l -3.02828,-7.7682 -11.32316,-12.7715 -5.2666,-2.1066 -4.21324,3.6866 -8.9532,-1.58 -5.2666,-3.6866 0,-16.3264 8.42656,-3.6866 2.1066,-11.58645 -3.6866,-17.37972 -2.63328,-4.73992 -18.43304,-3.68664 -10.53316,-21.59296 -2.63328,-5.2666 1.05332,-5.26656 2.10664,-4.73992 -11.05984,-2.63332 -35.81276,-1.57996 -7.89984,-3.6866 -2.10664,-16.3264 -3.15996,-4.73992 -6.84656,-3.15996 -6.31988,-2.10664 -4.21328,-3.15992 -14.74644,-9.47988 -29.36356,-3.977 -8.56528,-2.2344 -1.86204,-2.97924 -2.9792,-1.4896 -0.3724,-1.86204 -16.01336,-1.4896 -5.95848,1.862 -5.58604,2.60684 -6.33084,-0.3724 -4.09644,-4.84124 -3.35164,-13.40652 -8.56528,-15.64096 -3.35164,-12.28932 -4.46884,-7.07568 -4.09644,-5.95844 -5.21364,-2.60684 -7.82048,-3.72404 -7.07568,-8.19284 -4.46884,-7.44808 -3.35164,-4.84124 -12.66172,-2.60684 -3.3516,-0.7448 -5.21368,1.1172 -1.862,1.1172 -1.862,-5.58604 8.19288,-4.46884 13.40652,-4.84124 7.07564,-4.09644 4.09644,-24.57864 4.84124,-1.1172 2.60684,-3.72404 5.21364,-0.3724 2.97924,-3.35164 4.09644,-6.33084 0.7448,-4.46884 5.21364,-2.97924 6.70328,-5.95848 7.07568,-4.46884 2.2344,-1.4896 4.84124,-2.23444 1.48964,-8.19284 2.6068,-6.70328 4.09644,-4.09644 6.33088,-2.23444 3.3516,-4.84124 4.09644,-1.862 10.05492,-10.42732 5.21364,-2.9792 6.70328,-7.07568 3.72404,-0.3724 4.46884,1.4896 3.3516,5.21368 6.33088,0.7448 0.3724,7.44808 0.7448,2.6068 2.97924,1.86204 -1.48964,1.4896 -2.6068,2.2344 -1.86204,0 -0.7448,5.58608 0.5586,1.02408 5.67916,0.55864 1.95512,-1.76892 1.95512,-5.67916 c 0,0 1.95512,-2.88612 1.95512,-3.25852 0,-0.3724 -3.07232,-2.88616 -3.07232,-2.88616 l 3.07232,-0.46548 2.60684,8.84456 2.88612,9.5894 1.4896,6.33088 -1.6758,10.05488 -1.26112,7.9596 1.57996,14.74644 2.10664,2.63328 -1.57996,3.94992 -2.10664,5.00328 0.52664,20.803 5.00328,4.47656 4.21324,8.68988 3.15996,0.79 0.52664,-1.05332 7.89988,-4.4766 8.42652,-3.94996 8.1632,-3.94992 9.21652,-4.73992 3.15996,-4.73992 3.94992,-0.79 2.10664,3.42328 1.84332,11.05984 3.42328,8.1632 12.6398,3.15992 5.79324,1.84332 5.79324,1.05332 4.21324,-5.79324 3.42328,-8.68988 8.1632,-3.6866 3.94992,-2.10664 5.2666,0.2632 1.31664,6.5832 -1.84328,14.74644 -4.21328,8.1632 -1.31664,1.84332 -0.79,7.3732 5.79324,1.05332 7.63656,1.31664 8.68984,1.84332 3.6866,6.5832 2.36996,2.89664 2.10664,0 3.42328,-6.58324 4.21328,-7.89988 3.94992,-4.4766 2.19692,-21.56936 3.91024,-1.30344 0.5586,-3.53784 3.63092,-1.02408 1.21032,-2.97924 4.56196,-13.31344 4.37572,-14.43064 1.21032,-0.65168 3.53784,-2.97924 12.01,-1.862 7.44808,2.6068 3.35164,1.48964 4.46884,0 0,-8.19288 -3.35164,-8.93768 0,-16.75816 15.64096,-0.3724 5.21364,-2.97924 -1.1172,-7.44808 -3.72404,-3.72404 -5.58608,-1.4896 -0.3724,-2.60684 1.86204,-1.4896 2.9792,-7.44808 4.46888,-2.6068 2.2344,-1.48964 2.60684,-4.84124 1.1172,5.95844 2.60684,7.44808 2.9792,0 2.97924,-1.4896 2.2344,-0.7448 0.3724,-19.365 4.84124,-1.4896 8.56528,-2.23444 -1.48964,-8.56528 -1.862,-9.68248 1.862,-10.05488 3.72404,-9.68252 0,-6.70324 -0.3724,-8.93768 -2.6068,-4.84128 -3.72404,1.11724 -4.09644,3.3516 -0.7448,2.23444 -2.60684,-2.23444 -3.35164,-2.6068 -3.35164,-4.09644 -1.1172,-2.60684 1.4896,-3.72404 3.91024,-1.6758 1.30344,-2.79304 4.65504,-1.6758 3.16544,-2.97924 1.1172,-5.77224 5.02744,4.84124 7.26188,7.07568 6.14464,3.91024 3.72404,2.9792 2.23444,1.67584 5.02744,-1.11724 1.3034,-2.6068 3.53784,0 1.6758,3.35164 5.21364,0.931 -0.1864,-1.3034 -3.1654,-2.42064 -0.93104,-7.07568 4.84128,-1.6758 6.51704,-3.35164 5.77228,-1.4896 7.07564,1.4896 7.07568,3.91024 8.00668,0.7448 7.63428,-1.4896 6.70324,-2.42064 13.03412,-3.91024 4.84124,-1.862 2.60684,0.5586 2.42064,5.21364 2.9792,6.51708 3.72404,9.31008 6.51708,6.88948 0.7448,1.1172 -1.1172,1.862 -2.23444,8.00668 -6.14464,0.1864 0,12.84792 1.6758,12.84792 3.53784,1.48964 9.68248,9.86868 3.35164,7.07568 6.51704,6.51704 13.22036,6.70328 3.5378,2.793 5.39988,3.35164 4.28264,2.97924 6.9828,2.32732 2.51372,11.079 6.79636,6.33088 6.42396,13.59272 3.07232,6.33084 6.61016,6.51708 6.42396,6.79636 3.44476,2.69992 6.33084,3.25852 5.67916,1.21032 2.14132,9.86868 0.5586,4.28264 -0.7448,3.35164 -8.09976,8.0998 -1.86204,13.59272 -3.25852,0.1864 -2.97924,6.33084 -1.39652,2.42064 1.21032,1.3034 4.56196,4.09644 15.73404,4.00336 6.33084,1.6758 6.05156,-1.6758 15.73404,-8.0998 2.60684,-1.95512 2.79304,-4.74812 2.4206,6.79636 3.81716,4.28264 16.29264,7.63428 11.8238,11.91688 8.19288,4.37576 8.00668,4.00332 4.18956,3.91024 6.79636,2.51372 0.7448,5.49296 2.79304,5.67916 2.69992,4.28264 1.39652,0.83792 1.1172,-7.44808 4.09644,-7.44808 5.39984,-2.14132 6.51708,2.04824 3.5378,2.793 6.42396,0.186 1.39652,-1.39648 -3.91024,-1.58272 0.5586,-12.01004 5.02748,-1.21028 1.95512,-4.74816 13.03412,-2.04824 4.74812,-1.81544 3.35164,-10.148 7.91356,-4.00336 15.87372,-3.86368 2.46716,-5.58604 3.44476,-1.16376 2.14132,-5.35332 2.6068,-1.862 -0.1976,-3.16052 z m -672.4756,-244.97672 0.1356,9.07996 3.93012,2.98148 3.25252,4.33672 3.5236,2.4394 2.16832,1.62624 2.4394,2.71044 0.6776,1.62628 -5.69192,1.3552 -4.33668,1.08416 -2.57492,-4.87876 -1.49072,-2.16836 -1.49076,-6.36952 -2.30388,-2.57492 -2.71044,-6.09848 -0.94864,-2.4394 5.42088,-2.71044 -8e-5,0 z m -268.8754,-244.75252 2.30384,-1.21968 2.30388,-3.117 3.52356,-2.84596 1.21972,-1.62628 5.5564,1.49072 2.0328,5.963 -1.08416,5.28532 -5.42088,0 -2.03284,-1.49072 -2.43936,-0.81312 -3.38808,0 -2.57488,-1.62628 z"
       id="path2825"
       style="color:#ffffff;fill:#e45c36;fill-opacity:1;stroke:#ffffff;stroke-width:2;stroke-linecap:butt;stroke-linejoin:round;stroke-miterlimit:4;stroke-opacity:1;stroke-dasharray:none;stroke-dashoffset:0;marker:none;visibility:visible;display:inline;overflow:visible;enable-background:accumulate" />
  </g>
  <g
     transform="translate(1214.5282,1259.034)"
     id="layer6"
     style="display:inline">
    <path
       d="m 1406.7757,2079.5662 7.0136,-0.3896 2.3379,3.3769 2.8574,1.5586 -2.5976,1.8184 -5.4551,3.1171 -4.6757,-0.5195 -0.2596,-4.1562 0.7793,-4.8056 z m -23.7684,-19.4823 -4.1562,3.8965 -2.0781,6.2343 -8.5722,8.1826 -4.0263,8.1826 -5.8447,1.1689 -3.2471,1.4287 -1.6884,2.0781 -3.377,1.8183 1.2989,2.208 2.5976,1.2988 6.8837,0.6494 2.7276,-2.3378 0,-2.3379 5.3251,-2.3379 7.7929,-4.0263 8.3125,-7.7929 c 0,0 0.9091,-4.0264 0.9091,-4.6758 0,-0.6494 -1.1689,-7.663 -1.1689,-7.663 l -1.6885,-5.9746 z m -494.28368,-257.7148 5.87776,-1.9286 5.8778,2.0204 1.19392,4.5921 1.3776,4.8675 -6.06144,2.4797 -4.68388,0.6429 -7.43908,-0.6429 -2.38784,-1.3776 1.19392,-5.3267 0.64288,-1.6532 4.40836,-3.6736 z m -124.16816,160.0778 c 0,0 -1.46948,-2.9389 -1.83684,-3.6737 -0.3672,-0.7347 -3.6736,-5.5104 -3.6736,-5.5104 l 1.46944,-1.4694 4.40836,-5.5105 c 0,0 4.40832,-4.2246 4.40832,-4.9593 0,-0.7347 -2.20416,-2.2042 -2.20416,-2.2042 l -5.8778,-4.4083 -9.18404,-4.9594 -1.28576,-3.8573 1.8368,-3.4899 4.22468,-8.4494 2.02048,-14.1434 6.42884,-2.2042 8.81664,-1.8368 1.83684,-2.0204 4.40832,-3.6736 2.20416,-5.8778 5.69412,-5.3268 3.12256,-3.6736 5.14308,-5.6941 5.32672,-1.2857 11.3882,0.551 6.42884,-2.7552 3.12256,-2.0205 3.30628,2.0205 0.73472,5.6941 -4.9594,1.6531 -4.04096,-2.0205 -4.77572,6.7962 -12.3066,4.592 -8.81668,4.4083 -5.32672,3.1226 -6.61252,5.6941 -1.10208,13.9598 -3.85728,13.5923 -1.10212,13.225 -0.73472,2.7553 12.12296,0.3672 2.7552,1.2857 -3.85732,5.6941 -2.02048,5.1431 -2.20416,3.4899 -3.6736,4.5921 -4.40836,2.7552 -3.48992,2.0204 -3.85728,-2.3878 z m -135.37272,-98.4529 6.61252,-0.9184 2.93888,-11.5719 2.57152,0 2.93892,7.1636 2.38784,13.4086 -1.46944,13.7761 -3.48996,2.3879 -4.04096,2.0204 -2.20416,6.9799 -3.48996,6.6125 -2.02048,1.6531 1.10208,-12.6739 4.9594,-9.1841 2.7552,-3.1225 -2.02048,-13.9598 -7.53092,-2.5715 z m 1132.69006,-522.8066 2.5976,-2.5977 2.0781,-6.2343 2.5977,-9.871 2.0781,-5.4551 1.8184,-7.2733 0.7792,-5.1953 18.4433,-0.7793 3.6367,-2.5976 8.5722,-3.1172 11.4296,0.7793 9.0917,-0.2596 6.7539,-0.2596 5.7148,-4.1562 7.2734,-4.1562 4.1562,-2.5977 3.1171,-8.0527 5.1953,-9.871 0,-7.0136 -8.3124,-3.6367 -4.1562,-8.832 -4.9356,-8.0527 -1.5586,-2.3378 3.1172,-1.2988 10.6503,-3.6367 8.5216,-8.6138 7.7605,-7.7145 1.4694,-1.286 3.6736,1.4695 1.4695,3.3062 3.6736,-0.3672 13.9597,-2.9389 19.4702,-2.2041 4.4084,-8.8167 4.7756,-13.9598 1.1021,-10.2861 -1.1021,-4.0409 -4.0409,-5.1431 -1.8369,-4.4083 -5.143,-1.8368 -1.1021,-5.5105 -3.6736,-3.6736 -8.8361,-8.2688 -2.035,-10.3893 -10,2.25 -7.75,3.75 -11.75,4.5 -7.75,2.5 -8,-2.25 -4.5,-5 -8,-3.5 -5.5,-1 -7,2 -0.25,20.5 1.5,4.75 -6.25,3.5 -7,2.5 -5.5,2.25 -1.5,-4 -6.25,-0.25 -2,9.25 -4.25,4.25 -2.25,7.25 -3,-4.5 -3.5,0.75 -7,4.75 -8.5,7.5 -7.75,3.25 -2.25,2.5 -3.25,-7.5 -2.5,-2 -3.25,-5 -5.5,-3 -2.25,-6 -5.5,-0.5 -7,-8.5 -5.5,-8.25 -11.5,-4.75 -8.25,-3.75 -3.75,-3.75 -8,-4 -3.25,-20 -4,-14 -2.5,-0.75 -10.25,2 -3.5,4.5 -3.5,10.75 -4,7.5 -4.75,1.75 -3.25,3.5 -4.25,2.25 -4.75,-1.25 -6.5,-2.75 -5.25,1.75 -4.25,4.25 -8.25,4.75 -3.75,7.25 -1.25,13 2.25,3.5 0.5,7 -3.25,3.25 -4.75,-3.5 -10,1.25 -15,4.25 -3,1.75 -5,-3.75 -5.75,-0.5 -2.5,-5.25 -4,-4.75 -7.75,-8 -1.5,-8.75 -4,-1.75 -3.25,-10 -7,-15 -8.5,-4.75 -5.5,-4 -6.75,-3.5 -3.5,-4 -5,-2.75 -2,-2.5 -8,-1.5 -8.25,-3 4.75,-2.5 2.25,-3.5 3,-6.5 4.75,-1.75 5,-5.25 6,-1 -4.5,-3.25 0,-8 -6,-2.25 -4,-8.5 -4.25,-3.5 -2.5,-4.75 -5,-3 -4.75,-16.75 -4.75,-3.25 -2.75,-5 -7.5,-7.25 -6.75,-2.75 -2.75,-3.25 -11.25,1.5 -5.5,2.25 -15.75,-1.5 c 0,0 -1.25,-14.5 -2.25,-15 -1,-0.5 -8.5,-1.5 -8.5,-1.5 l -23.5,-2.99997 -4.25,-5.5 -8,-3.75 -15.75,-3.25 -8.75,-4 -4.25,-3 -2.75,-9.75 -5,-12 -5,-1.25 -2.5,1.25 -8.25,4 -4,4 -5.75,2.25 0,15 4,1.25 1.75,4.75 4,7.75 4.25,12.99997 2.5,9.25 -2.75,10 -5.25,15.5 -3,9.5 -3.5,13.5 -8,2.5 -12,1 -1.75,-2.5 -4.25,-1.25 -1.25,-2.25 -9.75,-3.5 c 0,0 -18.5,-1.75 -20.75,-1.75 -2.25,0 -10.75,2.25 -10.75,2.25 l -4,6.25 -3.75,1 -5,2.5 -3,-2.25 -4.75,-3.75 -7,-4.5 -19,-2.5 -18.25,0.5 -2,4.25 -4.5,1.75 -5.75,2.25 -6.75,-1.5 -4,-4.5 -4,-7.5 -4.5,-3.5 -3.25,-8.5 -4.5,-4.25 -8.5,-4.75 -11.25,-3 -16.25,-4.25 -9.5,-2.5 0.5,-7.75 1.25,-5.75 3.75,-11.74997 4,-8 4.5,-8.75 6,-2 1,-5.25 9.25,-4.5 11.25,-3.75 8,-7.75 1.75,-5.75 -1.5,-2.75 -8.25,-16.5 -3.5,-3.25 -4,-11.25 -9,-8.75 -1.25,-16 -3,-2.25 -2.25,-13.5 -3.25,-5.5 -2.75,-2 -1.75,-4 -5.75,-8.5 -6.5,-3.75 -4.25,-4 -8.5,-3.75 -40.25,-4.75 -7.875,-3.75 -7.5,-7.875 -8.75,-8.5 -1.5,-40.875 -2.875,-1.5 -1.125,-10.75 -4.125,-1.75 -3.125,-2.25 -7.5,0.25 -3.125,7.25 -9.82224,0.78156 0.068,3.13516 -2.6068,1.862 -2.14132,5.35332 -3.44476,1.16376 -2.46716,5.58604 -15.87372,3.86368 -7.91356,4.00336 -3.35164,10.148 -4.74812,1.81544 -13.03412,2.04824 -1.95512,4.74816 -5.02748,1.21028 -0.5586,12.01004 3.91024,1.58272 -1.39652,1.39648 -6.42396,-0.186 -3.5378,-2.793 -6.51708,-2.04824 -5.39984,2.14132 -4.09644,7.44808 -1.1172,7.44808 -1.39652,-0.83792 -2.69992,-4.28264 -2.79304,-5.67916 -0.7448,-5.49296 -6.79636,-2.51372 -4.18956,-3.91024 -8.00668,-4.00332 -8.19288,-4.37576 -11.8238,-11.91688 -16.29264,-7.63428 -3.81716,-4.28264 -2.4206,-6.79636 -2.79304,4.74812 -2.60684,1.95512 -15.73404,8.0998 -6.05156,1.6758 -6.33084,-1.6758 -15.73404,-4.00336 -4.56196,-4.09644 -1.21032,-1.3034 1.39652,-2.42064 2.97924,-6.33084 3.25852,-0.1864 1.86204,-13.59272 8.09976,-8.0998 0.7448,-3.35164 -0.5586,-4.28264 -2.14132,-9.86868 -5.67916,-1.21032 -6.33084,-3.25852 -3.44476,-2.69992 -6.42396,-6.79636 -6.61016,-6.51708 -3.07232,-6.33084 -6.42396,-13.59272 -6.79636,-6.33088 -2.51372,-11.079 -6.9828,-2.32732 -4.28264,-2.97924 -5.39988,-3.35164 -3.5378,-2.793 -13.22036,-6.70328 -6.51704,-6.51704 -3.35164,-7.07568 -9.68248,-9.86868 -3.53784,-1.48964 -1.6758,-12.84792 0,-12.84792 6.14464,-0.1864 2.23444,-8.00668 1.1172,-1.862 -0.7448,-1.1172 -6.51708,-6.88948 -3.72404,-9.31008 -2.9792,-6.51708 -2.42064,-5.21364 -2.60684,-0.5586 -4.84124,1.862 -13.03412,3.91024 -6.70324,2.42064 -7.63428,1.4896 -8.00668,-0.7448 -7.07568,-3.91024 -7.07564,-1.4896 -5.77228,1.4896 -6.51704,3.35164 -4.84128,1.6758 0.93104,7.07568 3.1654,2.42064 0.1864,1.3034 -5.21364,-0.931 -1.6758,-3.35164 -3.53784,0 -1.3034,2.6068 -5.02744,1.11724 -2.23444,-1.67584 -3.72404,-2.9792 -6.14464,-3.91024 -7.26188,-7.07568 -5.02744,-4.84124 -1.1172,5.77224 -3.16544,2.97924 -4.65504,1.6758 -1.30344,2.79304 -3.91024,1.6758 -1.4896,3.72404 1.1172,2.60684 3.35164,4.09644 3.35164,2.6068 2.60684,2.23444 0.7448,-2.23444 4.09644,-3.3516 3.72404,-1.11724 2.6068,4.84128 0.3724,8.93768 0,6.70324 -3.72404,9.68252 -1.862,10.05488 1.862,9.68248 1.48964,8.56528 -8.56528,2.23444 -4.84124,1.4896 -0.3724,19.365 -2.2344,0.7448 -2.97924,1.4896 -2.9792,0 -2.60684,-7.44808 -1.1172,-5.95844 -2.60684,4.84124 -2.2344,1.48964 -4.46888,2.6068 -2.9792,7.44808 -1.86204,1.4896 0.3724,2.60684 5.58608,1.4896 3.72404,3.72404 1.1172,7.44808 -5.21364,2.97924 -15.64096,0.3724 0,16.75816 3.35164,8.93768 0,8.19288 -4.46884,0 -3.35164,-1.48964 -7.44808,-2.6068 -12.01,1.862 -3.53784,2.97924 -1.21032,0.65168 -4.37572,14.43064 -4.56196,13.31344 -1.21032,2.97924 -3.63092,1.02408 -0.5586,3.53784 -3.91024,1.30344 -2.19692,21.56936 -3.94992,4.4766 -4.21328,7.89988 -3.42328,6.58324 -2.10664,0 -2.36996,-2.89664 -3.6866,-6.5832 -8.68984,-1.84332 -7.63656,-1.31664 -5.79324,-1.05332 0.79,-7.3732 1.31664,-1.84332 4.21328,-8.1632 1.84328,-14.74644 -1.31664,-6.5832 -5.2666,-0.2632 -3.94992,2.10664 -8.1632,3.6866 -3.42328,8.68988 -4.21324,5.79324 -5.79324,-1.05332 -5.79324,-1.84332 -12.6398,-3.15992 -3.42328,-8.1632 -1.84332,-11.05984 -2.10664,-3.42328 -3.94992,0.79 -3.15996,4.73992 -9.21652,4.73992 -8.1632,3.94992 -8.42652,3.94996 -7.89988,4.4766 -0.52664,1.05332 -3.15996,-0.79 -4.21324,-8.68988 -5.00328,-4.47656 -0.52664,-20.803 2.10664,-5.00328 1.57996,-3.94992 -2.10664,-2.63328 -1.57996,-14.74644 1.26112,-7.9596 1.6758,-10.05488 -1.4896,-6.33088 -2.88612,-9.5894 -2.60684,-8.84456 -3.07232,0.46548 c 0,0 3.07232,2.51376 3.07232,2.88616 0,0.3724 -1.95512,3.25852 -1.95512,3.25852 l -1.95512,5.67916 -1.95512,1.76892 -5.67916,-0.55864 -0.5586,-1.02408 0.7448,-5.58608 1.86204,0 2.6068,-2.2344 1.48964,-1.4896 -2.97924,-1.86204 -0.7448,-2.6068 -0.3724,-7.44808 -6.33088,-0.7448 -3.3516,-5.21368 -4.46884,-1.4896 -3.72404,0.3724 -6.70328,7.07568 -5.21364,2.9792 -10.05492,10.42732 -4.09644,1.862 -3.3516,4.84124 -6.33088,2.23444 -4.09644,4.09644 -2.6068,6.70328 -1.48964,8.19284 -4.84124,2.23444 -2.2344,1.4896 -7.07568,4.46884 -6.70328,5.95848 -5.21364,2.97924 -0.7448,4.46884 -4.09644,6.33084 -2.97924,3.35164 -5.21364,0.3724 -2.60684,3.72404 -4.84124,1.1172 -4.09644,24.57864 -7.07564,4.09644 -13.40652,4.84124 -8.19288,4.46884 1.862,5.58604 1.862,-1.1172 5.21368,-1.1172 3.3516,0.7448 12.66172,2.60684 3.35164,4.84124 4.46884,7.44808 7.07568,8.19284 7.82048,3.72404 5.21364,2.60684 4.09644,5.95844 4.46884,7.07568 3.35164,12.28932 8.56528,15.64096 3.35164,13.40652 4.09644,4.84124 6.33084,0.3724 5.58604,-2.60684 5.95848,-1.862 16.01336,1.4896 0.3724,1.86204 2.9792,1.4896 1.86204,2.97924 8.56528,2.2344 29.36356,3.977 14.74644,9.47988 4.21328,3.15992 6.31988,2.10664 6.84656,3.15996 3.15996,4.73992 2.10664,16.3264 7.89984,3.6866 35.81276,1.57996 11.05984,2.63332 -2.10664,4.73992 -1.05332,5.26656 2.63328,5.2666 10.53316,21.59296 18.43304,3.68664 2.63328,4.73992 3.6866,17.37972 -2.1066,11.58645 -8.42656,3.6866 0,16.3264 5.2666,3.6866 8.9532,1.58 4.21324,-3.6866 5.2666,2.1066 11.32316,12.7715 3.02828,7.7682 c 0,0 4.2134,6.7149 4.4766,7.7682 0.2632,1.0533 2.76492,17.5114 2.76492,17.5114 l 5.93224,0.5816 2.57152,-4.041 20.20488,1.1021 11.75556,4.4084 3.67364,2.2041 2.57152,-1.4694 2.20416,-1.4695 31.59308,-1.8368 17.266,2.9389 22.40904,8.082 17.266,8.0819 4.04096,4.041 15.06184,6.6125 17.63336,8.8167 8.44928,8.4493 5.8778,6.2451 4.77568,1.1021 8.81668,4.4083 11.75556,12.123 8.44932,4.4083 11.3882,12.4903 11.7556,11.3882 12.49028,12.123 3.6736,7.7145 7.34724,7.7146 3.6736,7.7146 4.041,5.1431 4.40832,6.9798 5.51044,3.6736 2.57152,4.4084 8.44932,15.7965 4.77568,4.4084 2.20416,8.4493 4.77572,2.9389 8.08196,18.3681 8.44928,15.0618 4.041,7.7146 1.8368,8.0819 3.6736,3.3063 1.83684,4.7757 2.93888,14.3271 3.30624,8.0819 0.73472,13.225 0.73472,8.4493 3.67364,6.9799 4.77568,4.7757 8.08196,3.3062 16.16392,4.4084 9.91876,1.4694 12.85764,-1.8368 17.26596,-1.8368 3.30628,-10.6534 7.7146,-15.7966 7.71456,-6.6125 8.44932,-9.9188 4.041,-2.9389 7.3472,-4.4083 8.81668,-4.4083 2.20416,-5.5104 2.57156,-0.7348 3.30624,-5.5104 8.08196,-4.4083 12.12292,-11.3882 11.02082,-2.9389 17.266,-9.9188 8.4493,-2.2042 1.1021,-2.5715 10.6535,-2.2041 15.4292,-3.6737 21.3069,-2.2041 38.9403,-1.8368 7.7146,-9.1841 4.4084,-1.8368 3.3062,-9.9187 11.7556,-4.041 16.8986,-1.1021 20.2049,1.8368 27.1847,3.6736 11.3882,4.4083 24.9806,3.6737 24.2459,7.7145 8.0819,4.4084 11.3882,3.6736 8.082,4.041 12.1229,4.041 16.8987,7.7146 15.0618,9.5514 15.7965,6.9798 5.5104,1.8368 2.9389,6.6125 7.7146,4.041 6.9799,2.9389 1.1021,4.041 8.4493,5.5104 5.143,2.5715 4.4084,-1.4694 2.9389,-2.9389 4.0409,1.1021 11.3883,4.0409 8.0819,4.041 2.2042,6.2452 4.0409,0.7347 0,1.8368 8.8167,2.5715 19.1028,4.041 9.1841,4.4083 8.0819,8.8167 4.4083,4.041 7.3473,3.3062 3.3062,3.6736 5.8778,2.5716 4.4083,-0.3672 1.8368,-7.7146 8.8167,0.3672 2.5715,2.9389 5.8778,0.3672 2.9389,7.3472 7.3473,1.1021 3.6736,-2.2042 4.4083,-3.6736 3.6736,-1.4694 3.6736,-3.6736 5.1431,-1.8368 -4.041,-0.7348 -12.8576,-1.102 -6.6125,-3.3063 -5.5105,-2.5715 -2.2041,-5.5104 c 0,0 -1.4695,-4.041 -1.8368,-5.8778 -0.3672,-1.8368 1.4694,-19.1028 1.4694,-19.1028 l 4.041,-10.6535 2.5715,-6.2452 6.2452,-2.2041 2.9388,-4.041 16.164,-8.4493 15.7965,-8.082 8.4493,-8.8167 16.8986,-0.3672 18.7355,2.2042 16.5312,2.9389 6.9799,4.7757 2.9389,4.7757 3.6736,2.2042 0.3672,3.3062 9.1841,1.1021 4.7756,1.8368 8.8167,-1.4694 6.9799,-4.041 8.4493,-8.082 5.5104,-1.8368 9.9188,1.8368 12.8576,3.3063 3.6737,4.041 8.4492,4.4083 8.082,8.082 7.7146,3.6736 8.8167,9.184 6.6125,2.9389 8.4493,7.7146 0.8495,3.255 z"
       id="path3624"
       style="color:#ffffff;fill:#e45c36;fill-opacity:1;stroke:#ffffff;stroke-width:2;stroke-linecap:butt;stroke-linejoin:round;stroke-miterlimit:4;stroke-opacity:1;stroke-dasharray:none;stroke-dashoffset:0;marker:none;visibility:visible;display:inline;overflow:visible;enable-background:accumulate" />
  </g>
  <g
     transform="translate(1214.5282,1259.034)"
     id="layer5"
     style="display:inline">
    <path
       d="m 1894.5255,1140.0019 -10,2.25 -7.75,3.75 -11.75,4.5 -7.75,2.5 -8,-2.25 -4.5,-5 -8,-3.5 -5.5,-1 -7,2 -0.25,20.5 1.5,4.75 -6.25,3.5 -7,2.5 -5.5,2.25 -1.5,-4 -6.25,-0.25 -2,9.25 -4.25,4.25 -2.25,7.25 -3,-4.5 -3.5,0.75 -7,4.75 -8.5,7.5 -7.75,3.25 -2.25,2.5 -3.25,-7.5 -2.5,-2 -3.25,-5 -5.5,-3 -2.25,-6 -5.5,-0.5 -7,-8.5 -5.5,-8.25 -11.5,-4.75 -8.25,-3.75 -3.75,-3.75 -8,-4 -3.25,-20 -4,-14 -2.5,-0.75 -10.25,2 -3.5,4.5 -3.5,10.75 -4,7.5 -4.75,1.75 -3.25,3.5 -4.25,2.25 -4.75,-1.25 -6.5,-2.75 -5.25,1.75 -4.25,4.25 -8.25,4.75 -3.75,7.25 -1.25,13 2.25,3.5 0.5,7 -3.25,3.25 -4.75,-3.5 -10,1.25 -15,4.25 -3,1.75 -5,-3.75 -5.75,-0.5 -2.5,-5.25 -4,-4.75 -7.75,-8 -1.5,-8.75 -4,-1.75 -3.25,-10 -7,-15 -8.5,-4.75 -5.5,-4 -6.75,-3.5 -3.5,-4 -5,-2.75 -2,-2.5 -8,-1.5 -8.25,-3 4.75,-2.5 2.25,-3.5 3,-6.5 4.75,-1.75 5,-5.25 6,-1 -4.5,-3.25 0,-8 -6,-2.25 -4,-8.5 -4.25,-3.5 -2.5,-4.75 -5,-3 -4.75,-16.75 -4.75,-3.25 -2.75,-5 -7.5,-7.25 -6.75,-2.75 -2.75,-3.25 -11.25,1.5 -5.5,2.25 -15.75,-1.5 c 0,0 -1.25,-14.5 -2.25,-15 -1,-0.5 -8.5,-1.5 -8.5,-1.5 l -23.5,-2.99997 -4.25,-5.5 -8,-3.75 -15.75,-3.25 -8.75,-4 -4.25,-3 -2.75,-9.75 -5,-12 -5,-1.25 -2.5,1.25 -8.25,4 -4,4 -5.75,2.25 0,15 4,1.25 1.75,4.75 4,7.75 4.25,12.99997 2.5,9.25 -2.75,10 -5.25,15.5 -3,9.5 -3.5,13.5 -8,2.5 -12,1 -1.75,-2.5 -4.25,-1.25 -1.25,-2.25 -9.75,-3.5 c 0,0 -18.5,-1.75 -20.75,-1.75 -2.25,0 -10.75,2.25 -10.75,2.25 l -4,6.25 -3.75,1 -5,2.5 -3,-2.25 -4.75,-3.75 -7,-4.5 -19,-2.5 -18.25,0.5 -2,4.25 -4.5,1.75 -5.75,2.25 -6.75,-1.5 -4,-4.5 -4,-7.5 -4.5,-3.5 -3.25,-8.5 -4.5,-4.25 -8.5,-4.75 -11.25,-3 -16.25,-4.25 -9.5,-2.5 0.5,-7.75 1.25,-5.75 3.75,-11.74997 4,-8 4.5,-8.75 6,-2 1,-5.25 9.25,-4.5 11.25,-3.75 8,-7.75 1.75,-5.75 -1.5,-2.75 -8.25,-16.5 -3.5,-3.25 -4,-11.25 -9,-8.75 -1.25,-16 -3,-2.25 -2.25,-13.5 -3.25,-5.5 -2.75,-2 -1.75,-4 -5.75,-8.5 -6.5,-3.75 -4.25,-4 -8.5,-3.75 -40.25,-4.75 -7.875,-3.75 -7.5,-7.875 -8.75,-8.5 -1.5,-40.875 -2.875,-1.5 -1.125,-10.75 -4.125,-1.75 -3.125,-2.25 -7.5,0.25 -3.125,7.25 -9.97356,0.69332 -4.46644,-0.83848 -8.94444,-0.54208 -5.42088,-1.0842 -6.77612,-4.06564 -4.60772,-4.06568 -2.16836,-7.5892 1.08416,-7.04716 -0.2712,-7.5892 2.98148,-8.40236 3.5236,-5.42088 2.71044,-2.71044 1.62624,-1.62628 0,-1.3552 -7.31816,-4.06564 -2.16836,-7.04716 0,-7.04712 2.98148,-0.81316 1.08416,-2.16832 2.98148,-2.71044 0.54212,-1.35524 -4.06568,-2.98148 -1.62624,-8.40236 -3.79464,-11.1128 -3.25252,-5.96296 -2.16836,-13.55216 -1.62624,0 -0.81316,-2.16836 -8.40232,-3.52356 -15.72056,-2.98148 -11.1128,-2.71044 -5.69192,-4.06568 -2.4394,-5.96296 -6.234,-2.16836 -7.31816,-8.13128 -6.50508,-1.62628 -0.54208,-8.6734 -4.33668,0 -1.89732,-3.7946 -4.60772,-2.4394 0,-11.38384 1.08416,-4.06568 1.89732,-8.40232 -0.81316,-5.42088 -3.52356,-2.71044 -3.25252,-5.96296 -3.25252,-3.25252 -2.4394,-4.60776 2.71044,-3.25252 1.62624,-1.62628 -11.65488,-0.2712 -13.26524,-6.90116 -4.1206,-3.25816 -2.29992,-9.00788 -1.72488,3.92896 -1.82076,1.53324 -2.20404,5.17476 -1.14996,-2.39572 -1.82072,-0.76664 -1.05412,-1.82072 -1.91656,-6.61216 -1.2458,-12.55352 -10.25364,-3.83316 -13.60764,-2.6832 -1.53324,-2.0124 -7.95376,-1.91656 -6.22884,-6.32468 -6.13304,-3.06652 -3.4498,-7.28296 -3.83316,-5.74968 -6.94572,-6.95604 -2.57492,-6.36952 -3.52356,-1.49076 -4.20116,-0.2712 -8.53788,1.35524 -1.7618,2.84596 -1.49072,-1.62628 1.49072,-6.9116 1.35524,-3.79464 3.52356,-6.9116 3.25252,-9.62204 1.62628,-5.42088 -0.4066,-16.80472 1.89732,-7.45372 2.98148,-4.60772 2.4394,-0.94868 1.49072,-3.52356 4.2012,-1.62624 0.54208,-6.6406 -1.89732,-5.42088 -3.38804,-2.4394 -2.0328,-7.5892 2.43936,-6.234 6.77612,-2.30388 10.29964,0.1356 2.71044,2.4394 0.6776,4.87876 0.81316,-0.2712 2.84596,-3.25252 1.76176,-1.21968 2.4394,-8.94444 2.57492,-0.1356 1.49076,-2.57492 9.89308,-1.7618 5.42088,-1.3552 4.74328,1.62624 2.16832,3.93016 4.8788,0.54208 5.28536,-1.0842 5.5564,-0.81312 0.81312,-0.94864 -3.93012,-2.4394 -0.2712,-3.117 1.3552,-6.09848 3.38804,-13.14564 2.4394,-14.63636 2.57492,-0.1356 1.62628,-3.25252 12.87456,-1.08416 9.75756,-3.11704 3.65912,-3.52356 4.60772,-1.62624 5.28536,1.49072 2.84596,3.25252 1.21972,4.8788 4.74324,1.62628 7.04716,3.117 3.38804,3.65908 4.06564,0.6776 2.57492,3.52356 9.21548,1.62628 10.97728,2.30388 19.65068,-0.81316 1.62628,-6.36952 2.16832,-0.6776 2.16836,-3.7946 12.8746,-1.21972 1.3552,2.71044 15.17844,1.89732 1.89732,0.81312 1.49072,-1.08416 2.98148,-2.98148 0.94868,-19.51516 2.30388,-12.87456 9.89306,-3.79464 2.4394,-4.87876 8.6734,-0.1356 1.7618,-4.74324 6.3695,-6.36952 5.963,-6.6406 7.9958,-3.65908 5.963,-6.09848 3.659,-1.35524 2.1684,-4.33668 3.7946,-6.9116 4.4722,-1.89732 -0.5421,-3.7946 -0.9486,-4.60776 -4.0657,-2.30388 -0.4066,-3.7946 1.7618,-10.16416 2.1684,-5.5564 3.9301,-0.6776 9.7576,-3.65908 2.846,-1.35524 4.2011,1.21972 2.846,1.08416 5.4209,0.2712 1.0841,-10.84172 3.5236,-6.6406 4.7433,-1.89728 2.1683,-7.9958 6.5051,-6.77612 5.9629,-5.96296 4.6078,-2.16832 2.0328,-7.9958 1.6263,-7.04716 1.4151,-5.65116 3.1172,-5.51996 4.0263,1.62352 6.1045,3.57172 c 0,0 3.247,3.1172 3.5717,3.312 0.3248,0.1948 13.183,6.75388 13.183,6.75388 l 6.3642,6.62396 6.624,6.3642 3.312,3.18212 3.3769,6.75384 1.7534,7.85788 4.416,1.7534 6.559,3.37692 4.9356,1.81836 5.1303,-2.208 2.7275,-3.44188 11.3647,-2.01316 0.4546,6.8188 3.3769,1.62352 1.039,4.02636 6.689,6.3642 6.559,6.49408 6.624,6.75388 1.2338,5.77972 -1.104,6.94868 -6.3642,12.9882 -3.9614,7.01364 -6.1694,5.84468 -1.8183,7.33832 -2.4028,1.104 -2.4677,5.00044 -0.5845,5.45504 0.5845,7.53316 6.9486,6.49408 0.7144,2.72752 -0.9092,3.89644 -2.208,4.22116 0,13.76748 2.208,1.49368 2.9873,9.80608 1.7534,2.79244 -1.3638,4.09128 -1.7534,6.29928 1.3638,3.44188 3.3769,6.49408 6.559,6.03952 3.4419,10.3256 7.3383,0.71436 8.897,-1.23388 3.3119,-9.74116 2.4678,-17.92368 4.2861,-1.36376 3.1172,-3.50684 6.9486,-2.27292 6.1694,2.4028 6.4292,3.24708 3.6367,1.62352 0.7793,2.8574 5.3901,2.27292 6.2992,3.05224 13.3129,3.11716 9.6113,3.312 6.2993,3.31196 6.9486,6.42916 3.0523,3.5068 2.0781,7.98776 4.4809,1.88328 3.3769,2.8574 13.183,3.57176 29.0278,3.36688 7.5309,2.2042 3.1226,4.40832 c 0,0 1.8368,7.16356 2.3879,8.44932 0.551,1.28576 3.6736,10.65348 3.6736,10.65348 l 3.3062,3.85728 5.3268,2.02048 0.1836,2.2042 2.0204,0.9184 0.7348,12.49028 7.8982,1.10208 4.2247,2.57152 2.3879,4.77572 13.0413,6.24512 6.0614,2.93892 2.0205,1.65312 3.3063,-2.38784 14.5107,0.73472 2.2042,4.22464 2.3879,1.28576 0.7347,2.2042 4.4083,2.7552 1.6532,1.46944 1.8368,-1.46944 3.4899,-1.8368 2.7552,-8.08196 3.3063,-3.30628 3.3062,-6.61248 3.4899,-3.12256 12.674,-3.48996 6.4288,-3.30624 6.6126,-3.12256 3.3062,-6.7962 6.7962,-2.7552 6.4288,-2.2042 3.1226,-2.38784 3.4899,-0.55104 2.2042,-3.12256 2.0205,-0.1836 1.4694,-3.67364 4.041,-1.10208 3.6736,-2.93888 3.49,-7.16356 -0.1836,-9.36772 -3.1226,-6.61248 -1.8368,-3.48996 1.2857,-6.4288 6.4289,-6.06148 14.327,-3.48992 7.1636,-1.8368 8.4493,4.04096 11.9393,7.16356 7.7146,3.6736 2.3878,9.36772 6.4288,7.34724 10.4698,0.73472 4.041,3.48992 2.7552,2.57152 5.1431,-6.24512 1.8368,-6.24516 3.1225,-1.10208 2.5716,-4.95936 2.3878,-1.65316 7.8983,-0.73472 8.0819,-5.69408 -0.9184,5.32672 -2.2041,4.40836 1.2857,2.57152 3.3063,9.91876 2.7552,1.28576 0.7347,1.8368 4.7757,2.75524 4.5921,4.04096 5.694,2.93888 2.0206,5.51044 2.9388,3.6736 3.8573,1.46944 -3.6736,2.93892 0.5511,10.83716 2.7552,6.24512 5.8778,2.75524 3.8572,3.48992 4.2247,8.08196 3.4899,4.40832 4.4084,0.3672 4.592,-0.9184 2.7552,-1.65312 3.1226,2.02048 9.3677,3.30624 3.6736,1.83684 6.9799,4.04096 1.4694,-4.40832 3.8573,-4.77572 8.082,-4.40832 6.6125,-4.22468 8.633,-2.38784 4.4083,5.8778 4.592,8.81664 1.6531,6.24516 6.0615,1.65312 23.8785,3.85732 12.3066,4.592 4.041,3.6736 19.2865,0.91844 12.8576,-1.46948 3.1226,-3.8572 3.8573,-3.48992 3.6736,-2.2042 4.7757,2.38788 4.4083,7.89824 3.1226,11.38824 2.5716,4.40832 2.2041,2.20416 6.6125,0 0,-3.48992 8.633,0.9184 4.4084,9.00036 4.2246,8.26564 c 0,0 1.6531,1.65312 1.8368,2.38784 0.1836,0.73472 2.0205,4.592 2.0205,4.592 l 3.8573,12.12296 8.633,8.2656 5.6941,2.02052 1.1021,2.7552 2.5715,1.65312 2.7552,4.77568 3.6736,4.59204 12.674,0.73472 1.6531,4.04096 9.5514,3.48996 4.2247,3.85728 3.6736,7.34724 4.4083,4.22464 1.8368,5.51044 6.4289,3.30624 7.1635,7.7146 3.8573,15.61284 9.1841,16.16392 3.3062,15.79656 7.8983,16.53124 3.4899,3.85732 4.9594,8.63296 3.4899,14.5108 c 0,0 2.2042,6.06144 2.2042,6.97984 0,0.91844 -2.2042,9.73508 -2.2042,9.73508 l -7.8983,7.7146 -4.0409,5.14308 -2.3879,6.79616 2.5716,7.7146 4.7558,2.46748 -1.8184,5.19528 4.1563,5.97456 14.8065,2.07812 1.8184,3.11716 5.455,1.81836 4.416,2.8574 1.5586,15.32604 -2.3379,7.53316 -3.6367,4.1562 -5.9746,2.8574 -7.5331,2.59764 -8.3125,1.81836 3.1172,2.59764 4.416,5.97456 5.1953,2.59764 4.1562,3.89644 7.2734,2.85744 3.3769,2.07808 2.8574,2.33788 4.9355,2.59764 -3.3769,2.8574 -11.9492,2.33788 -1.5585,8.5722 -18.1835,3.89644 -10.1308,2.85744 0,10.65028 -5.455,2.07812 -8.5722,8.31244 -8.0527,7.53316 -1.8183,2.8574 0.7792,2.59764 7.793,2.33788 0.7792,2.07808 4.9356,3.1172 7.2734,2.59764 2.8574,3.63668 4.1562,2.8574 -3.377,2.07812 -2.8574,4.67572 -5.1952,7.01364 -2.8574,12.20888 -2.0782,4.67576 -3.6366,1.5586 -22.08,2.5976 -4.416,8.31248 -2.8574,6.75384 -4.4159,4.67576 -8.832,4.1562 -4.1562,4.15624 -3.8965,7.27336 -4.9355,5.45504 -7.0136,2.8574 -3.8965,3.89648 -8.5722,4.1562 -4.416,4.15624 -2.0781,5.97456 -4.1562,1.55856 -11.6893,4.15624 -3.8965,1.81836 -6.7539,0 -1.8183,-2.8574 -6.2343,-0.51956 -2.8574,1.5586 -6.4942,3.63668 -8.3124,3.63672 -3.8964,4.15625 -1.8184,5.7148 0.2596,6.4941 3.8965,8.8319 2.8574,3.1172 9.0917,5.1953 3.3769,1.2988 2.8574,2.0781 6.4941,2.0781 -6.7538,1.2988 -3.377,4.416 2.3379,3.8965 8.0527,8.5722 2.8574,2.5976 3.1172,4.1562 -3.8965,1.5586 -6.4941,2.8574 -3.8964,3.8965 -3.1172,12.4686 -1.8184,3.1172 -1.8183,17.4042 2.8574,16.6249 2.3379,4.4159 3.3769,1.8184 1.0391,2.0781 3.6366,1.2988 0,5.455 -2.8574,1.2989 -1.3854,4.2873 z"
       id="path3606"
       style="color:#ffffff;fill:#e45c36;fill-opacity:1;stroke:#ffffff;stroke-width:2;stroke-linecap:butt;stroke-linejoin:round;stroke-miterlimit:4;stroke-opacity:1;stroke-dasharray:none;stroke-dashoffset:0;marker:none;visibility:visible;display:inline;overflow:visible;enable-background:accumulate" />
  </g>
</svg>
