<?xml version="1.0" encoding="UTF-8" standalone="no"?>
<!-- Created with Inkscape (http://www.inkscape.org/) -->

<svg
   xmlns:svg="http://www.w3.org/2000/svg"
   xmlns="http://www.w3.org/2000/svg"
   version="1.0"
   width="1117"
   height="543"
   id="svg2">
  <defs
     id="defs4" />
  <g
     id="layer3"
     style="display:inline">
    <path
       d="m 86.27677,526.98718 -0.17857,1.91965 -0.84821,0.9375 -0.89286,1.875 -1.5625,1.42857 -0.53571,0.84821 -0.84822,0.44643 -2.58928,0.66964 -1.33929,0.66965 -2.72321,0.44643 -0.625,1.47321 -2.00893,1.02679 -2.58929,0.71428 -1.69643,0.58036 -2.99107,2.94643 -2.32143,2.27678 -1.25,1.29465 -0.44642,3.57142 1.07142,0.80358 0,1.33928 -0.89285,1.02679 -1.02679,0.9375 -1.38393,1.11607 -1.65178,0.40178 -1.42857,0.89286 -3.92858,0.26786 -4.6875,0 -3.52678,0.80357 -2.1875,0.98214 -1.60714,0.84822 -1.47322,0.84821 -1.83036,1.60714 -0.71428,0.625 0.13393,0.66965 1.65178,0.40178 -0.17857,0.44643 -0.71428,0.58036 -2.1875,0.66964 -1.83036,1.16072 -2.94643,1.07142 -1.65179,0.80358 -3.25893,1.16071 -3.16964,0.625 -2.67857,1.42857 -3.21429,0.75893 -2.45535,0.75893 -0.625,2.09821 -0.3125,1.83036 -1.11607,0.89286 -0.9375,0.75893 -2.58929,0.71428 -1.875,0.84822 -0.71429,0.71428 -3.70535,0.17857 -1.25,0.44643 -5.13393,0.22322 -3.03572,0.17857 -0.71428,0.80357 -1.33929,1.33928 -1.20535,1.11608 -1.33929,1.5625 -1.16071,0.44642 -2.8125,0 -1.25,-0.89285 -1.02679,-0.35715 -2.72321,0.0893 -0.80358,1.11607 -0.71428,-0.13393 -1.16072,-1.02678 -1.25,-0.13393 -2.23214,0.98214 -1.69643,0.80357 -2.14285,0.89286 -1.25,1.29464 -3.16965,0.35715 -2.67857,0.89285 -0.89286,0.71429 -1.25,0.35714 -0.80357,0.89286 -0.58035,2.09821 -0.49108,0.75893 -0.9375,0.75893 -0.625,1.29464 -0.53571,1.07143 -2.00893,0 -1.83036,-0.71428 -1.91964,-1.74108 -1.69643,-1.51785 -2.36607,-0.40179 -1.02678,-1.07143 -3.125,0 -1.91965,1.02679 -3.125,0.58036 -2.63393,1.07142 -2.09821,1.38393 -3.39286,1.07143 -1.65178,2.1875 -1.07143,0.89286 -0.75893,0.3125 -0.75893,0.89286 -3.57143,-0.22322 -0.9375,1.16072 -0.3125,1.25 -0.58035,1.5625 -2.23215,0.0893 -0.84821,0.80357 -0.35714,1.11607 -0.40179,1.11608 -1.91964,0.35714 -1.29465,-0.80357 c 0,0 -3.08035,-0.44643 -3.34821,-0.44643 -0.26786,0 -0.53571,-0.75893 -0.53571,-0.75893 l -2.27679,-0.35714 -1.5625,-1.16072 -3.75,0.22322 -0.75893,0.80357 -2.54464,0.0893 -0.53571,0.89286 -1.42759,1.48711 -0.39459,0.6787 c 0,0 0.88388,0.69448 0.94702,0.75761 0.0631,0.0631 0.12802,0.49409 0.12802,0.49409 l -0.8225,0.54763 -0.75762,1.38896 -1.76776,0 -3.34613,3.3777 -1.42053,2.39911 -0.82582,1.05659 -2.32143,0.35714 -2.67858,-0.0893 -1.69642,-1.25 -1.42858,-0.71429 -1.42857,-1.07143 -4.91071,-0.44642 -2.41072,-0.80358 -1.51785,-0.53571 -3.03572,-0.17857 -2.14285,-0.35714 -2.5,-1.60715 -3.21429,-0.625 -3.48214,-0.53571 -2.23215,-1.33929 -1.60714,-0.0893 -1.42857,-0.98215 -4.55357,0 -3.125,0 -1.69643,0.89286 -1.51786,1.07143 -1.33928,1.16071 -0.53572,1.78572 -0.26785,1.78571 -1.25,2.14286 -1.60715,-0.17857 -0.89285,-0.98214 -1.69643,-0.26786 -2.58929,-0.71429 -2.32143,-0.80357 -1.875,-0.80357 0,-2.14286 -0.44643,-1.96428 -0.80357,-2.58929 -3.39285,-4.46428 -0.26786,-5.35715 -1.07143,-2.23214 -1.07143,-2.85714 -0.80357,-2.85715 -0.0893,-1.875 -0.80357,-2.76785 0,-5.98215 -1.16071,-0.44642 -1.60714,-1.16072 -1.51786,-1.33928 0,-3.03572 -0.89286,-0.53571 -0.0893,-2.58929 0,-2.58928 1.07142,-1.42858 0.71429,-0.89285 0,-2.23215 0.71429,-1.33928 0.71428,-1.60714 1.51786,-1.42858 2.14286,-1.78571 1.96428,-2.23214 1.60714,-1.69643 2.67858,-1.33929 2.32142,-1.07143 1.60715,-0.44642 2.41071,-0.53572 1.16072,-0.80357 3.66071,-0.44643 1.60714,-0.71428 0.89286,-0.89286 0.98214,-0.17857 1.96429,-1.07143 0.53571,-0.26786 0,-0.89286 -0.89285,-0.53571 -0.0893,-2.32143 0,-1.69643 -0.98214,-0.80357 -0.44643,-0.80357 0,-2.94643 0.89286,-0.80357 1.96428,-1.42857 1.16072,-1.25 0.17857,-1.42857 1.07143,-0.44643 -0.26786,-3.21429 1.16071,-0.89285 0,-2.41072 -1.07143,-0.89286 -1.33928,-1.42857 0.44643,-2.41071 0.98214,-0.80357 1.07143,0 0.71428,-0.98215 1.07143,-0.26785 0.17857,-0.71429 0.98215,0 0.625,0.89286 0.80357,0.44643 0.53571,-2.14286 0.44643,-1.33929 1.51786,-1.07142 1.69643,-0.17858 1.16071,-0.98214 4.01786,0 1.51786,1.16072 0.625,0.35714 0.80357,-1.42857 2.94643,-0.98215 4.73214,-1.69642 0.53571,-0.89286 1.875,-0.89286 1.60715,-1.16071 0.35714,-1.51786 1.07143,-1.33929 0.80357,-0.26785 0.80357,-0.80357 1.51786,0.17857 0.98214,0.625 0.98214,0 1.51786,-2.32143 0.53571,-0.80357 -1.07142,-1.33929 0,-3.125 1.42857,-1.25 0.53571,-1.25 1.78572,-1.69643 2.05357,-2.41071 1.42857,-0.98214 -1.07143,-1.69643 -0.0893,-3.03572 -0.89285,-0.89285 -0.26786,-2.85715 -1.07143,-1.875 -0.26786,-5.08928 0,-3.39286 0.98215,-1.16071 2.32143,0 1.69643,-0.80358 1.60714,-0.17857 1.78571,-1.16071 2.14286,-0.98214 0.89286,-0.71429 1.51785,-0.98214 1.33929,-1.07143 0.80357,-0.98214 1.07143,-0.0893 0.80357,-0.89286 0.625,-1.60714 0.803572,-0.98214 -0.178572,-2.32143 0.982143,-0.80357 0.08929,-1.25 1.071428,-1.07143 1.517858,-1.16072 2.114695,-0.0713 3.25143,0.0947 0.63134,0.59978 0.88388,0.66291 0.28411,-0.66291 0.34724,-1.13642 c 0,0 0.1894,-3.31456 0.34724,-3.44083 0.15784,-0.12627 1.10485,-1.10486 1.10485,-1.10486 0,0 1.1245,-2.17322 1.48164,-3.06608 0.35715,-0.89285 1.42857,-1.25 1.42857,-1.25 l 2.07742,-0.82938 1.42053,-0.91545 2.71478,-0.75762 0.26049,-0.71183 c 0,0 2.1875,0.0893 2.27678,-0.0893 0.08929,-0.17857 0.44643,-1.42857 0.44643,-1.42857 l -1.47321,0 c 0,0 -1.96429,-0.0446 -2.14286,-0.0446 -0.17857,0 -2.1875,0 -2.1875,0 l -1.47321,1.11607 -2.99107,0.35714 -1.65179,-0.625 -0.98214,-1.83035 -0.44643,-2.09822 -1.42857,-2.14286 -1.74107,-2.94642 -1.47322,-1.83036 0.22322,-4.46429 1.07142,-1.16071 1.47322,-1.91964 -0.08929,-4.01786 0.08929,-2.05357 1.02678,-1.47322 0.80358,-0.58035 2.99107,-0.0893 2.58928,-0.71429 1.29465,-1.20535 0.40178,-2.05357 1.11607,-0.75893 1.60715,-0.625 2.27678,-1.02679 0.9375,-0.71428 2.99107,-0.22322 3.48215,0.17857 1.60714,1.02679 1.42857,0.66964 1.20536,0.84822 1.51785,1.07142 0.84822,0.58036 1.07143,0.40179 1.02678,1.25 1.875,0.44643 1.74107,1.02678 0.9375,0.9375 1.42858,0.44643 1.78571,0.71429 1.20536,1.25 0.49107,0.49107 2.5,0.0446 0.9375,0.49107 1.96428,0.53572 2.00893,0.58035 1.02679,0.44643 1.69643,0 0.98214,-0.89286 1.20536,-0.44642 2.36607,0.13392 1.02678,0.89286 2.23215,0.40179 1.60714,0.44643 2.14286,0.26785 1.33928,1.02679 1.20536,0.17857 0.89286,1.02679 1.60714,0.71428 1.20536,0.44643 0.35714,1.91964 0.625,1.38393 0.13393,1.20536 1.16071,0.22321 0.71429,-0.9375 3.03571,-0.26785 1.65179,-1.02679 3.08036,0 1.38392,-0.71429 2.99108,-0.0893 0.625,0.80357 1.25,0.0446 1.02678,-0.84821 1.16072,-0.0893 1.07142,0.80357 0.84822,1.33929 0.58036,1.25 1.20535,1.78571 1.11607,0 0.98215,0.9375 1.29464,0.0446 0.89286,-0.84822 1.25,-0.3125 0.84821,-0.9375 1.11607,0 0.53572,1.11607 0.58035,0.0893 0.71429,-1.07143 0.98214,-0.0893 0.71429,-0.71429 0.75893,-1.25 0.53571,-1.38393 0.71429,-0.89286 0.98214,-0.84821 1.38393,-0.26786 0.625,-0.66964 0.58036,0.13393 0.9375,1.20536 0.53571,0.89285 1.65179,0.35715 2.63392,0.26785 1.5625,0.9375 1.33929,0.53572 1.07143,0.9375 1.02678,0.71428 1.69643,0.75893 2.00893,0.0893 0.98215,-0.71429 1.02678,-1.20536 1.11607,-2.09821 0.04465,-0.89286 0.978617,-0.99584 1.073287,0.15784 0.34724,1.16799 0.915451,0.94702 0.03157,5.55584 0.06313,2.0203 2.020305,0.34724 1.673065,0.0947 0.129471,3.07098 0.892857,1.16072 0.357143,0.89285 0.446428,0.44643 0.446429,3.39286 0.625,1.60714 0.446428,4.375 -0.178571,3.92857 -0.892857,1.69643 -0.714286,1.42857 -0.892857,0.98215 -0.982143,0.53571 -0.472224,1.89424 -0.852316,2.02031 -1.894036,0.88388 -0.410374,0.66291 -0.947018,0.66292 -0.726048,-0.31568 -0.69448,-0.72604 -0.0947,0.75761 -0.441942,1.19956 -0.915451,1.89403 -0.757614,1.7362 -2.020305,1.01015 -2.746353,0.91546 -1.60993,0.50507 -3.4724,0.12627 -1.073287,0.66291 -0.631345,1.51523 -0.157836,1.79934 -1.420527,0.47351 -0.820749,2.0203 -1.167989,0.85232 -0.883884,0.56821 0.0947,1.13642 0.947018,0.91545 0.315673,1.8309 0.662912,0.69448 0.473509,0.63135 1.988738,0.2841 0.69448,1.32583 1.073287,0.69448 0.852316,0.85231 0.220971,0.75762 0.915451,0.78918 1.231124,0.34724 1.357392,1.10485 0.568211,0.97859 0.189403,2.80949 0.631346,0.94701 0.662912,1.38896 0.631346,0.85232 0.34724,1.42053 0.820749,0.78918 0.631345,1.29426 1.136422,1.38896 0.789181,1.07328 2.399113,0.0947 1.420527,-0.66292 1.26269,-0.72604 3.12516,-0.22098 2.777919,0.56822 1.104855,0.94701 c 0,0 1.546796,-0.22097 1.673065,-0.22097 0.126269,0 1.673065,-0.85231 1.673065,-0.85231 l 1.546796,-1.04172 3.819639,-0.15784 2.872622,0.1894 0.631345,1.23113 1.483661,0 1.262691,-1.16799 2.367545,0.0316 1.010153,0.85231 1.26269,0.50508 1.294258,1.32582 1.894036,0.72605 0.852317,1.29426 1.641497,0.47351 2.746353,2.17814 0.91545,1.9256 1.420527,2.87262 1.483662,1.60993 0.757614,1.51523 1.609931,1.32583 -0.03157,3.40926 -0.157837,3.78807 0.315673,3.12516 1.957171,0 1.988738,-0.31567 1.191933,0.1306 z"
       transform="translate(195.64287,-86.576469)"
       id="Provincia_di_Imperia"
       style="fill:#e45c36;fill-opacity:1;fill-rule:evenodd;stroke:#ffffff;stroke-width:1px;stroke-linecap:butt;stroke-linejoin:round;stroke-opacity:1;display:inline" />
  </g>
  <g
     id="layer4"
     style="display:inline">
    <path
       d="m 497.20165,179.63106 0.29835,0.0207 -0.3125,-1.33928 -1.11607,-0.22322 -1.25,-0.75892 -1.42857,-1.02679 c 0,0 -0.75893,-0.9375 -1.07143,-0.9375 -0.3125,0 -1.78571,-0.89286 -1.96429,-1.07143 -0.17857,-0.17857 -1.91964,-1.25 -1.91964,-1.25 l -1.07143,-0.9375 -2.23214,-1.07143 -1.16071,-1.20535 -0.9375,-1.83036 -1.20536,-1.69643 -1.33929,-2.00893 c 0,0 0.26786,-3.25893 0.26786,-3.57143 0,-0.3125 -1.11607,-3.08035 -1.11607,-3.08035 l -0.0893,-2.5 -0.89285,-1.29465 c 0,0 -0.40179,-2.5 -0.49108,-2.67857 -0.0893,-0.17857 -0.9375,-0.84821 -0.9375,-0.84821 l -0.9375,-0.89286 0.13393,-0.58036 1.29465,0.35715 1.38392,0.98214 1.96429,0.17857 1.02679,-0.40179 2.32142,-0.625 2.23215,0.17858 -0.0446,-2.14286 -1.25,-0.84822 0,-1.38392 2.5,0 0.89286,-0.80358 6.83036,0 1.42857,-1.11607 6.11607,-0.17857 1.96429,-1.38393 1.69643,-0.66964 1.47321,-1.20536 1.5625,-0.44643 1.33929,-1.47321 0.67095,-3.47278 c 0,0 0.44194,-0.3788 0.50508,-0.88388 0.0631,-0.50508 0.31567,-2.20971 0.31567,-2.20971 l -0.94702,-0.56821 -1.57836,-0.50507 0,-4.98763 c 0,0 -0.88389,0.12627 -0.88389,-0.88389 0,-1.01015 -0.12627,-5.99778 -0.12627,-5.99778 l 1.13643,-1.8309 0.25253,-1.38896 -1.19955,-0.75761 -0.12627,-2.14658 -0.63135,-0.56821 0.0631,-2.39911 -1.01015,-0.94702 -0.56822,-1.38896 -0.88388,-1.45209 -6.31345,-0.31567 -4.41942,0.56821 -0.88388,0.63134 -1.57837,0.12627 -0.88388,0.75761 -1.13642,0.0631 -0.50508,-0.88388 -0.82075,-0.37881 -0.25254,-0.75762 -0.69448,0 0,-1.19955 0.94702,-0.31567 0.12627,-0.69448 -1.57836,0.12626 -1.89404,0.37881 -1.13642,0.82075 -0.50508,0.12627 -1.07328,0.88388 -0.94702,1.13642 0,1.07329 1.01015,0 0.25254,1.07329 1.01015,0.75761 -0.1894,0.50508 -0.94702,0.56821 -1.89403,-0.12627 -1.83091,0 -1.13642,-1.13642 -0.94702,0 c 0,0 -1.70463,-0.63135 -1.95717,-0.63135 -0.25253,0 -0.50507,-1.19955 -0.50507,-1.19955 l -1.32583,-1.95717 -0.82075,-1.95717 0.12627,-1.8309 -1.00226,-0.21308 -1.01804,0.90756 -1.70464,0.12626 -1.01015,0.94702 -1.13642,0.12627 -0.82075,0.88389 -1.32582,1.07328 -3.21986,-0.3788 -0.50508,-0.69448 -1.01015,-0.18941 -0.44195,-2.08344 -0.56821,-0.50507 -0.25253,-1.13643 -0.82075,-0.3788 -1.38896,-0.694483 -2.39912,-0.189403 c 0,0 -1.64149,0.631345 -1.89403,0.694479 -0.25254,0.06314 -4.10375,0.883887 -4.10375,0.883887 l -5.05076,0.75761 -5.80838,-0.1894 -1.89403,-1.01015 -2.58852,-0.18941 -0.44194,-0.757613 -1.38896,-0.947018 -0.69448,-1.641498 -1.51523,-0.441942 -0.63134,-1.830901 -0.18941,-1.325825 -1.19955,0 -0.75762,0.820749 -0.3788,0.568211 c 0,0 -1.57837,0.947018 -1.83091,0.947018 -0.25253,0 -1.07328,1.388959 -1.32582,1.578363 -0.25254,0.189403 -1.38896,1.767767 -1.38896,1.767767 l -0.63135,1.578359 -0.63134,1.83091 -0.56821,1.26269 0.1894,5.24016 -0.69448,-0.25254 -0.44194,-1.01015 -1.6415,-0.1894 -1.19955,-1.13642 -1.6415,-0.75762 -2.33598,-0.63134 -2.27284,-1.38896 -2.27285,-0.56821 0.12627,-0.94702 -0.75761,-1.6415 -0.37881,-1.136421 -1.76777,0.252538 -1.07328,0.757613 -2.71479,0.88389 -1.13642,0.12626 -0.69448,1.26269 -0.75761,3.40927 0,5.55584 -0.50508,0.63134 -2.33598,0.0631 -1.26269,0.94702 -0.82075,1.07328 0.12627,1.83091 0.82075,0.63134 1.19956,1.13642 -0.0631,1.70463 -0.88388,0.63135 -3.283,0.31567 c 0,0 -0.63134,0.63135 -0.82075,0.88389 -0.1894,0.25253 -2.33597,0.12627 -2.33597,0.12627 l -0.75762,0.82074 -0.88388,0.94702 -0.94702,1.89404 -1.38896,0.69448 -1.70463,0.75761 -0.50508,0.82075 -1.51523,-0.0631 -1.13642,-1.6415 -0.0631,-2.46225 -1.26269,-2.46224 -1.07329,-2.52539 -0.63135,-2.46224 -2.0203,-0.56821 -1.6415,-0.75762 -1.32583,-1.01015 -3.6618,0.1894 -0.88388,0.75762 -1.89404,-0.18941 -1.8309,-2.08344 -0.31567,-1.13642 -1.4521,-2.90419 -1.01015,-1.01015 -1.89403,-1.45209 -0.63135,-1.19956 -1.57836,0 -0.56821,1.13642 -3.34613,-0.44194 -2.58852,-1.13642 -4.10375,-1.13642 -3.09359,-0.56821 -0.0631,-1.8309 -0.82075,-0.757619 -0.25254,-2.209709 -0.63134,-0.947018 -1.32583,-0.883883 -0.69448,-1.010153 -1.45848,-0.948897 -0.13393,-1.473214 -0.84821,-0.535714 -0.0446,-1.383929 -0.84821,-0.803571 -0.66964,0 -0.53572,1.116071 -1.69643,0.892857 -1.33928,1.205358 -1.38393,1.026785 -0.84821,1.339286 -2.14286,1.294643 -2.72322,0.178571 -1.51785,1.026786 -0.625,2.276786 -0.625,2.723214 -1.11607,1.47321 -0.625,1.38393 0,3.16965 0.53571,0.98214 0.35714,1.78571 1.16072,1.29465 0.84821,1.69642 -0.9375,0.9375 -0.84821,0.71429 -0.44643,1.20536 -0.9375,0.0893 -2.00893,1.29465 -1.78571,0.80357 -3.79465,0.35714 -0.22321,3.79464 -0.13393,1.65179 -0.84821,0.40178 0.13392,1.83036 0.80358,0.84822 0.66964,0.84821 1.11607,0.98214 1.25,0.35715 1.07143,0.9375 0.89286,1.07142 0.0446,3.16965 -1.16072,1.16071 0.58036,0.9375 1.5625,1.33929 1.02679,1.29464 1.02678,3.03571 1.11607,1.5625 c 0,0 0.89286,1.20536 1.02679,1.38393 0.13393,0.17857 -0.13393,2.27679 -0.13393,2.27679 l -0.625,0.53571 -0.35714,1.33929 -0.89286,0 -0.71428,0.71428 -2.90179,2.90179 -0.22321,5.26786 -1.47322,1.74107 -0.9375,1.16071 -1.69643,1.96429 -1.65178,1.11607 -1.07143,1.74107 -2.23214,1.42857 -1.5625,-0.17857 -0.71429,-1.07143 -1.07143,-0.13393 -0.75893,0.89286 -2.8125,1.25 -1.875,1.47322 -1.07143,2.36607 -1.70256,1.41293 -4.16688,0.63134 -0.25254,4.9245 -0.50507,0.88388 -2.27285,1.6415 -1.89403,1.6415 1.38896,1.64149 0.88388,1.89404 1.26269,1.26269 0.25254,4.79823 -1.01015,1.13642 -1.01015,2.77792 -1.13643,1.38896 -1.19955,0.1894 -0.69448,1.8309 -0.18941,2.08344 -0.69448,1.01015 -0.34882,2.17973 -1.27035,0.1231 -0.7168,-1.10327 -2.96733,-0.44194 -4.65797,0.32523 -2.57621,0.17316 -0.29811,0.75893 -0.60017,0.95598 0.037,2.62086 c 0,0 0.80357,1.83036 0.98214,2.09821 0.17857,0.26786 0.71429,1.02679 0.71429,1.02679 l 0.35714,3.48214 -0.89286,0.71429 -0.84821,1.42857 -0.89286,1.33928 -0.22321,3.97322 -0.66965,0.53571 -1.25,-0.22321 -1.74107,-1.25 -2.00893,-0.98214 -1.5625,-0.53572 -0.98214,-0.53571 -0.13393,-2.36607 -0.75893,-0.3125 -0.58035,-1.11608 -0.58036,-0.98214 -2.45536,0.17857 -0.49107,0.9375 -0.89286,0.9375 -0.0446,1.42857 -1.33928,1.42858 -1.51786,1.07142 -0.3125,1.38393 c 0,0 -1.11607,0.66965 -1.11607,0.84822 0,0.17857 0.26785,2.99107 0.26785,2.99107 l 0.66965,0.71428 0.35714,3.34822 4.82143,0.26786 0.71428,0.44642 0.89286,1.74108 0.98214,1.20535 0,3.34822 1.65179,0.17857 1.33929,1.20536 1.69642,0.35714 -0.0893,0.53571 -0.71429,0.9375 -1.02678,0.625 -0.17857,2.67857 -0.84822,1.16072 -1.02678,1.07143 -1.29465,1.02678 -2.1875,0.625 -1.91964,0.84822 -0.75893,0.66964 -1.07143,0.84821 -1.07143,0.89286 -0.0893,1.60714 2.05357,0.66965 0.58036,0.75893 1.20535,1.33928 2.27679,1.74107 1.20536,1.11607 -0.0893,2.72322 -0.625,1.07143 -0.9375,1.91964 -1.83036,1.5625 -2.00892,1.91964 -0.98215,2.14286 0.0893,4.24107 0.80357,2.23214 0.84821,2.05358 0.89286,1.96428 3.08036,1.02679 3.70536,0.49107 c 0,0 0.49107,0.49107 0.66964,0.58036 0.17857,0.0893 1.25,1.20535 1.25,1.20535 l 0.98214,0.98215 -0.0446,2.00892 -0.71429,0.49108 -0.80357,1.83035 0.40179,2.90179 1.07143,1.875 1.07142,1.78571 0.22322,1.60715 -0.58036,0.98214 -1.60714,0.17857 -0.98214,1.16071 -0.98215,1.11608 -1.91964,0.75892 -0.66964,1.42858 -1.33929,0.49107 -1.02678,2.14285 -1.02679,1.875 c 0,0 -0.40179,6.42858 -0.40179,6.65179 0,0.22321 -0.98214,1.69643 -0.98214,1.69643 l -0.98214,0.71428 -3.39286,0.35715 -3.4375,1.16071 -4.82143,-0.35714 -0.3125,-0.75893 -0.625,-0.71429 -0.625,-0.75892 -0.66964,-1.47322 -0.75893,-0.0893 -1.38393,-1.07143 -1.47321,-1.74107 -2.00893,-0.58036 -2.67857,-0.84822 -3.34822,0.0447 c 0,0 -0.58035,0.53571 -0.71428,0.84821 -0.13393,0.3125 -2.5,1.07143 -2.5,1.07143 l -1.38393,0.71429 -1.5625,0.98214 c 0,0 -1.07143,1.47321 -1.20536,1.65178 -0.13393,0.17858 -1.60714,1.42858 -1.60714,1.42858 l -1.29464,1.38393 -1.38393,1.47321 -1.51786,0.66964 0,0.89286 0.0893,1.78571 4.28571,0.71429 0.58036,2.76786 1.11607,0.625 c 0,0 0.66964,0.75893 0.84821,0.98214 0.17857,0.22321 4.64498,-0.1751 4.64498,-0.1751 l 1.01015,0.88388 1.32583,1.31004 -0.64713,2.63587 -1.40474,0.22097 -2.2255,0.26832 -0.0947,1.89404 1.81512,0.55242 1.79933,0.74183 0.79708,0.79708 0.95884,-0.017 0.99044,-1.00102 1.07328,0.15784 0.34724,1.16799 0.91545,0.94702 0.0316,5.55584 0.0631,2.0203 2.0203,0.34724 1.67307,0.0947 0.12947,3.07098 0.89285,1.16072 0.35715,0.89285 0.44643,0.44643 0.44642,3.39286 0.625,1.60714 0.44643,4.375 -0.17857,3.92857 -0.89286,1.69643 -0.71428,1.42857 -0.89286,0.98215 -0.98214,0.53571 -0.47223,1.89424 -0.85231,2.02031 -1.89404,0.88388 -0.41037,0.66291 -0.94702,0.66292 -0.72605,-0.31568 -0.69448,-0.72604 -0.0947,0.75761 -0.44194,1.19956 -0.91545,1.89403 -0.75762,1.7362 -2.0203,1.01015 -2.74635,0.91546 -1.60993,0.50507 -3.4724,0.12627 -1.07329,0.66291 -0.63135,1.51523 -0.15783,1.79934 -1.42053,0.47351 -0.82075,2.0203 -1.16799,0.85232 -0.88388,0.56821 0.0947,1.13642 0.94702,0.91545 0.31567,1.8309 0.66291,0.69448 0.47351,0.63135 1.98874,0.2841 0.69448,1.32583 1.07329,0.69448 0.85232,0.85231 0.22097,0.75762 0.91545,0.78918 1.23112,0.34724 1.35739,1.10485 0.56821,0.97859 0.18941,2.80949 0.63134,0.94701 0.66291,1.38896 0.63135,0.85232 0.34724,1.42053 0.82075,0.78918 0.63134,1.29426 1.13643,1.38896 0.78918,1.07328 2.39911,0.0947 1.42053,-0.66292 1.26269,-0.72604 3.12516,-0.22098 2.77792,0.56822 1.10485,0.94701 c 0,0 1.5468,-0.22097 1.67307,-0.22097 0.12627,0 1.67306,-0.85231 1.67306,-0.85231 l 1.5468,-1.04172 3.81964,-0.15784 2.87262,0.1894 0.63134,1.23113 1.48366,0 1.2627,-1.16799 2.36754,0.0316 1.01015,0.85231 1.26269,0.50508 1.29426,1.32582 1.89404,0.72605 0.85231,1.29426 1.6415,0.47351 2.74635,2.17814 0.91545,1.9256 1.42053,2.87262 1.48366,1.60993 0.75762,1.51523 1.60993,1.32583 -0.0316,3.40926 -0.15784,3.78807 0.31568,3.12516 1.95717,0 1.98874,-0.31567 1.20047,0.0937 -0.0136,-3.22991 2.04399,-1.08276 1.10388,-0.93615 1.5625,-1.625 2.25,0 1.25,-1 5.875,-0.125 1,-0.75 1,0 0.5,-2 -1.125,-1.125 -2,-1.625 -1.125,-1.375 0,-1 -0.875,-1.25 -0.5,-1.125 -1.28125,-2.3125 -0.0625,-4.28125 0.90625,-0.90625 0.3125,-3.4375 1,-3.6875 c 0,0 0.625,-0.375 0.75,-0.625 0.125,-0.25 0.625,-1.875 0.625,-1.875 l 1.6875,-2 0.5,-0.4375 0.75,-1.6875 0.5625,-1.4375 0.6875,0 c 0,0 0.375,-0.8125 0.625,-1.125 0.25,-0.3125 1,-1 1,-1 l 0.8125,-1.0625 0.75,-0.625 2.6875,0.0625 1.3125,-0.125 0.875,-0.875 0.3125,-1.25 -0.8125,-0.5625 -0.0625,-1.6875 1.0625,-1.3125 0.75,-0.5 0.0625,-1.5 0.75,-0.875 1.4375,-0.9375 1.25,-1.3125 0.8125,-1 c 0,0 1.5625,-0.375 1.8125,-0.625 0.25,-0.25 1.8125,-1 1.8125,-1 l 1.5,-1.1875 0.5,-0.875 0.9375,-0.875 1.125,-0.25 0.6875,-0.625 0.3125,-1.375 -0.125,-3.5625 -0.75,-1.0625 -0.53125,-2.46875 -0.0937,-6.34375 1.25,-1.25 0.28125,-6.46875 0.75,-1.25 L 322.625,351.5 c 0,0 1.09375,-1.59375 1.03125,-1.75 -0.0625,-0.15625 0.75,-2.875 0.75,-2.875 l 1.0625,-2.40625 1.46875,-1.28125 0.5,-0.5625 0.65625,-1.625 0.9375,-1.96875 1.09375,-2 0.84375,-2.125 2.53125,-2.1875 0.875,-1.03125 0.625,-1.8125 1.65625,-1.84375 0.75,-0.53125 0.625,-2.46875 0.90625,-2.0625 2.125,-2.28125 2.09375,-1.90625 1.65625,-0.59375 1.90625,-2 2.09375,-1 0.8125,-1.5 2.21875,-0.625 2.375,-0.625 0.71875,-0.78125 1.875,-0.53125 1.90625,-0.75 2.375,-0.40625 2.03125,-0.84375 1.8125,-0.78125 1.125,-0.65625 2.21875,-0.625 1.1875,-0.875 1.75,-1.5 3.375,-1.125 3.5,-1.0625 2.78125,-0.5 1.125,-0.5625 0.71875,-1.0625 0.5625,-0.875 1,-0.375 0.53125,-0.625 2.15625,-0.28125 2.34375,-0.90625 5.53125,-0.0625 2.125,-0.3125 2.21875,-1.09375 0.5625,-1.78125 1.03125,-0.53125 1.3125,-0.84375 1.21875,-1.09375 1.59375,-0.5 0.78125,-0.90625 1.53125,-0.5 c 0,0 0.5625,-1.84375 0.46875,-1.96875 -0.0937,-0.125 -0.90625,-1.03125 -0.96875,-1.15625 -0.0625,-0.125 -2.25,-0.375 -2.25,-0.375 l -0.9375,-1.03125 -0.15625,-1.875 -0.21875,-7.5625 0.5625,-3.375 1.46875,-2.4375 1.15625,-1.34375 0.21875,-1.4375 0.875,-0.84375 3.1875,-1.1875 2.15625,-0.5625 0.59375,-0.96875 1,-0.0312 0.625,0.78125 0.1875,2.53125 c 0,0 0.5625,0.125 0.625,0 0.0625,-0.125 0.5625,-0.875 0.5625,-0.875 l 0.3125,-0.90625 -0.75,-0.375 c 0,0 -0.4375,-2.21875 -0.4375,-2.34375 0,-0.125 0.75,-0.875 0.75,-0.875 l 0.6875,-2.4688 1.03125,-2.875 0.9375,-2.21875 1.15625,-1.96875 0.1875,-1.6875 -1.5625,-1.46875 c 0,0 -2.40625,-0.40625 -2.625,-0.53125 -0.21875,-0.125 -1.375,-2.125 -1.375,-2.125 l -0.25,-2.84375 0.3125,-4.03125 1.40625,-1.125 1.03125,-2.375 1.71875,-2.84375 1.34375,-1.0625 0.75,-1.03125 2.375,-0.8125 2.625,-2.03125 1.875,-1.21875 3.0625,-0.8125 2,-1 1.78125,-1.65625 1.21875,-0.25 0.875,-0.9375 c 0,0 1.6875,-1.375 1.6875,-1.5 0,-0.125 0.1875,-3.3125 0.1875,-3.3125 l -0.96875,-0.9375 -0.0625,-1.15625 1.25,-1.1875 0.78125,-0.875 1.59375,-1.71875 1.75,-1.375 0.59375,-0.59375 1.34375,-0.65625 3.21875,-0.59375 1.6875,-0.5625 2.3125,-0.59375 1.53125,-1 2.0625,-0.90625 1.6875,-1 c 0,0 1.4375,-1.90625 1.46875,-2.03125 0.0312,-0.125 1.78125,-0.65625 1.78125,-0.65625 l 0.8125,-0.84375 3.375,-0.375 2.4375,-0.8125 0.5625,-2.1875 0.53125,-0.625 0.40625,-3.5625 1.0625,-0.75 2.1875,-0.46875 4.21875,-0.125 1.03125,-0.96875 3.375,-0.65625 1.96875,-1 1.21875,-0.78125 0.5,-0.875 L 486,186.875 l 1.90625,-0.8125 1.9375,-1.25 2.14789,-0.84597 1.87825,-0.97227 0.88389,-1.01647 1.03856,-2.05568 1.40931,-0.29105 z M 319.88281,390.75 l 0.14844,-2.71875 1.78125,0.0312 0.40625,0.75 0.5625,0.4375 0,0.75 -1.4375,0 -0.40625,0.8125 -0.59375,0.1875 -0.46094,-0.25 z"
       id="Provincia_di_Savona"
       style="fill:#e45c36;fill-opacity:1;fill-rule:evenodd;stroke:#ffffff;stroke-width:1px;stroke-linecap:butt;stroke-linejoin:round;stroke-opacity:1" />
  </g>
  <g
     id="layer5"
     style="display:inline">
    <path
       d="M 858.81531,161.23932 857.9375,162.25 c 0,0 -1.0625,0.84375 -1.1875,0.96875 -0.125,0.125 -1.46875,0.65625 -1.46875,0.65625 l -1,0.6875 -0.65625,0.75 c 0,0 0,0.5625 0,0.6875 0,0.125 0.53125,0.5625 0.53125,0.5625 l 0.40625,2.0625 1.25,0.8125 c 0,0 0.75,0.6875 0.9375,0.8125 0.1875,0.125 0.1875,2.0625 0.1875,2.0625 l -0.4375,1.5 -1.28125,0.125 -0.15625,0.5 c 0,0 0.3125,0.375 0.75,0.75 C 856.25,175.5625 857,176.5 857,176.5 l 0.875,0.375 1.5625,0.75 0.75,0.75 1.0625,-0.1875 0.875,-0.8125 0.625,-0.5 0.6875,-0.375 1,0.75 0.125,1.25 0.875,0.75 -0.0625,5.5 1,1.75 1,0.875 0.6875,0.8125 1.375,0.5 0.8125,0.8125 1.5,1.25 1,0.375 1.625,1.0625 0.75,0.9375 0.25,1.625 -0.5,0.5 -0.8125,2.0625 -0.6875,1.4375 -0.5,0.625 -0.3125,1 -1.625,0.5 -1.625,1.1875 -1,1.1875 -0.3125,5.4375 -0.75,0.5 0,1.3125 0.9375,0.8125 2,0.4375 0.9375,1.125 1.25,0.375 0.5,0.75 1.75,1.625 1.5625,1.4375 1.0625,1.9375 0.375,2.625 1.875,2 1.4375,0.5 1.1875,1.3125 1.875,1.5 1,0.125 1.1875,1.1875 1.375,0.75 1.6875,1 1.5,0.5 0.625,1.875 0.9375,1.125 -0.0625,3.25 0.875,1.6875 0.9375,0.8125 c 0,0 0.9375,0.75 1.125,1 0.1875,0.25 1.625,0.4375 1.875,0.6875 0.25,0.25 0.375,1.5 0.375,1.5 l 1.625,0.25 0.8125,3.25 0.25,6.375 -0.4375,2.375 -0.375,0 -0.5625,-1.125 -1.1875,-0.0625 -0.75,-0.875 -1.3125,-0.25 -0.75,-0.8125 -1.3125,-0.25 -3,0.125 -0.75,0.9375 -1.4375,-0.0625 -2.9375,0.5625 -1.1875,0.375 -0.4375,0.625 -0.875,0.5 -0.3125,2.5625 -0.5,0.375 -0.5,1.875 -0.5625,0.125 -0.25,1 -0.8125,0.875 -0.4375,1.1875 -0.875,0.8125 0.0625,1.1875 1.25,1.0625 0.875,0.875 -0.3125,3.3125 -0.4375,0.3125 -0.75,0.75 -0.90625,1.25 -1.21875,1 -1.14063,0.96875 -1.14062,1.15625 -1.14063,1.375 -0.51562,-0.9375 -0.6875,-1.0625 -0.75,-0.875 -1.5625,-0.25 -0.625,-0.75 -0.9375,-0.9375 -0.375,-1.5625 -0.5,-0.4375 -0.0625,-1.6875 -0.1875,-1.3125 -0.6875,-0.6875 -0.25,-0.5625 -0.75,-0.5625 L 864.75,264 l -1.3125,-1.1875 -2.0625,-0.5 -0.5,-0.9375 -0.5625,-0.125 -0.6875,1.3125 -0.1875,0.625 -0.9375,0.5625 -0.1875,0.75 -0.6875,1.1875 -0.5,0.8125 -0.8125,0 -0.9375,-0.75 -1.125,-0.375 -0.4375,-0.5625 -1.5,-0.5625 -0.6875,-0.875 -1.125,0.0625 -0.6875,-0.9375 -2.4375,0.1875 -0.6875,0.875 -1.625,-0.25 -0.5,-0.625 -0.875,-0.8125 -0.875,-1 -1,-2 -1.625,-2.25 -0.5625,-1.625 -0.75,-1.25 -1.0625,-0.875 -1.6875,-0.9375 -1.875,-0.5625 -0.6875,-0.9375 -1.5625,0 -0.875,0.875 -0.625,1.1875 -2,0.25 -0.75,0.75 -1.4375,-0.125 -0.125,-1.5 -0.25,-1.25 -0.3125,-2 -1.1875,-2.125 -0.8125,-0.625 -1.3125,0.125 -1.25,0.5625 -1.8125,0 -0.875,-1.125 0.875,-1.125 2.625,-0.125 0.375,-0.25 0.125,-0.875 0,-2.5 -0.4375,-0.8125 -0.3125,-0.9375 -0.9375,-1.125 -1.09375,-1.0625 -1.4375,-1.09375 -2.0625,-2.09375 -1.21875,-1.5625 -1.65625,-0.59375 -1.40625,-1.5625 -1.9375,-1.78125 -1.5625,-0.5625 -1.5625,-0.75 -1.375,-0.9375 -1.25,-0.4375 -0.5,-1.375 -1.125,-0.0625 -0.5625,-0.8125 -2.3125,-1.25 -1.3125,-0.3125 -1.09375,-0.51562 -0.4375,0.0156 -0.125,0.375 1.1875,0.75 1.65625,0.90625 1.1875,1.09375 0.375,1.03125 -0.8125,0.59375 -0.46875,-1.625 -1.71875,-0.53125 -0.84375,-0.6875 -1.0625,0 -0.3125,-1.6875 -0.34375,-0.1875 -0.6875,-0.0312 -3.75,-0.4375 -0.25,-0.5 -1.5,-0.5 -0.0625,-0.375 1.6875,0 0.4375,-0.6875 -0.5625,-1 -0.6875,-0.5 -1.1875,-0.5625 -1.3125,-0.625 -1.125,-1.0625 -1.5,-0.5625 -1.125,-0.75 -0.6875,-0.4375 -1.5625,-0.5 -0.8125,-0.4375 -1.625,-0.5 -0.875,-0.8125 -1.875,-0.375 -0.6875,-0.5625 -1.6875,-0.5 -1.9375,-0.9375 -0.5,-0.6875 -0.6875,-0.6875 -1.25,-0.375 -1,-0.75 -2.1875,-0.6875 -0.75,-0.5625 -1.625,-0.1875 -1.1875,-0.625 -2.875,-1.4375 -1.25,-0.375 -1,-1.1875 -1.75,-0.625 -0.4375,-1.0625 -0.5625,-0.6875 -2.4375,-0.1875 -0.875,1 -0.4375,1.1875 -0.625,1.4375 -0.0625,3.875 -0.625,0.8125 -1.125,0 -1.375,-1.1875 -1.1875,0.125 -0.8125,1.125 -0.1875,2.5625 0.625,0.875 1,2.1875 -0.5625,3.625 -0.5625,1.8125 -0.1875,2.375 -0.6875,0.5 -1.5625,0.0625 0.1875,1 0.75,0.8125 1.125,1 0.8125,0.75 0.375,1.125 1.3125,1.25 -0.3125,1.125 -1.5,-0.25 -0.75,-0.625 -1.8125,-0.5 -0.75,-0.5 -1.3125,-0.3125 -1.1875,-1 -2.3125,-1.375 -1.8125,-0.625 -2.625,-0.875 -3.625,-0.125 -0.25,-0.625 -0.875,-0.8125 -1.5625,-0.625 -1.1875,-0.75 -1.9375,-0.625 -1.1875,-0.1875 -2.04214,-0.0816 -1.14905,-0.53033 -0.7071,-1.23744 -0.35356,-1.23743 -1.14905,-0.61872 0,-1.67938 0.53033,-0.88388 0.53033,-1.76777 0.97228,-1.14905 0.61871,-0.88388 0.61872,-4.94975 -0.35355,-4.50781 -0.35355,-0.88388 -1.41422,-0.61872 -0.88388,-0.61872 -0.0884,-1.67937 -0.97227,-0.61872 -1.41421,-0.88389 -0.17678,-1.76776 -2.56326,-0.44194 -3.71231,-0.26517 -0.97228,-0.53033 -0.97227,-1.14905 -1.23743,0 -2.12132,-1.32582 -1.32583,-0.44195 -2.74004,-0.61871 -0.61872,-1.14905 -1.06066,-0.44194 -3.44714,0 -2.38649,-0.70711 -2.82843,-1.14905 -1.67937,-0.61872 -1.85616,-0.61872 -2.50341,-1.38182 -3.25,0.25 -1.25,-0.75 -4.625,-0.5 -2,-0.625 -4.625,-0.5 -1.625,-0.5 -4.75,-0.25 -1.25,-0.875 -3.5,-0.5 -2.625,-0.75 -2.1875,-1 -1.8125,-1.09375 -0.8125,-0.875 -2.5,-0.0937 -1.40625,0.75 -3.03125,0.5 -3.5,-0.21875 -0.53125,-0.75 -3.90625,-0.1875 -1.21875,-0.28125 -1.9375,-1.46875 -2.21875,-0.0937 -1.09375,-0.5 -1.1875,0.6875 -0.53125,-0.75 -1.1875,-0.375 0.12215,-0.86126 -0.75131,-0.92808 -0.30935,-2.2981 -0.0884,-4.28683 -0.44194,-0.7513 -0.44195,-0.83969 -1.32582,-0.57453 -0.70711,-0.61872 -0.7513,-0.13258 -1.01647,0.83969 -1.19324,0.0884 -0.83969,0.88388 -1.4584,0.22097 0,3.00521 c 0,0 0.22097,0.79549 0.44194,0.79549 0.22097,0 2.87262,0.30936 3.04939,0.30936 0.17678,0 0.75131,0.70711 0.75131,0.70711 l -0.13259,1.45841 -0.48613,0.44194 -0.13259,1.45841 -1.23743,-0.0884 -0.61872,-0.70711 -2.51907,-0.44194 -1.94454,-0.92808 -4.02167,-0.22097 -1.10486,-0.66291 -3.02729,0.0221 -2.3202,-0.33145 -0.53033,-0.70711 -2.74004,0 -1.81196,-0.26516 -2.69585,-1.01647 -0.79549,-0.70711 -2.96101,-0.13258 -0.7513,-0.70711 -1.98874,-0.39774 -1.72357,-0.70711 -2.56326,-0.26516 -0.7955,-0.61872 -2.16551,-0.26517 -0.61872,-0.48613 -0.7955,-0.22097 -1.41421,-0.53033 -0.39775,-1.01647 0.7955,-0.70711 0.7955,-0.0442 0.39774,1.01647 0.7513,0.0442 1.5468,-0.0884 2.29809,0.26516 1.29408,0.2482 1.1875,0.25 0.875,-0.4375 1.125,-0.4375 1.375,-0.5625 1,-0.375 -0.8125,-0.875 -1.25,-0.5625 -1.625,-0.4375 -1.375,-0.75 -3.0625,0 -3.3125,0 -1.0625,-0.9375 -2.9375,-0.25 -1.1875,0.6875 -0.49448,1.6654 -1.3125,0 -0.90435,-0.44855 -0.78867,-1.09185 -0.9375,-0.4375 -1,-0.75 -2.5625,0.125 -2.125,0.25 -1.875,-0.6875 -1.5625,-0.75 -2.125,0.0625 -0.125,0.5 1.0625,0.9375 2.9375,0 1.3125,0.625 1.9375,0 1.125,1.0625 0,0.375 -0.75,0.4375 -0.8125,1.5625 -2.5,-0.125 -0.625,-1.0625 -2.75,0 -1.1875,-0.4375 -1.8125,-0.8125 -0.875,-1.0625 -1.5,-0.4375 -1.5625,-1 -1.8125,-0.4375 -3.25,0.1875 -3.5,0.0625 -0.875,1 -1.5,0.25 -0.5,0.5 -1.75,0.375 -0.5,0.375 -1,0.5 -0.875,0.75 -1.25,0.5 -1,0.75 -0.875,0 -1,1 -2.125,0 -0.875,0.5 -1.375,0.5 -0.875,0.875 -0.625,1.25 -1.375,0 -1.375,0.5 -0.5,1.125 -1.375,0 -0.625,0.75 -0.625,1.125 -0.625,1.125 -0.875,0.125 0.375,1.875 0.625,0.5 -0.125,0.625 -0.75,0.75 -1.75,2 -2,0.125 -2.75,0.625 -5.875,0.125 -2.29495,1.38203 -3.0936,1.10485 -1.04895,1.185 -1.71875,0.39062 -0.89063,1.84375 -0.42187,1.84375 -0.15625,-0.0982 -0.3125,-1.33928 -1.11607,-0.22322 -1.25,-0.75892 -1.42857,-1.02679 c 0,0 -0.75893,-0.9375 -1.07143,-0.9375 -0.3125,0 -1.78571,-0.89286 -1.96429,-1.07143 -0.17857,-0.17857 -1.91964,-1.25 -1.91964,-1.25 l -1.07143,-0.9375 -2.23214,-1.07143 -1.16071,-1.20535 -0.9375,-1.83036 -1.20536,-1.69643 -1.33929,-2.00893 c 0,0 0.26786,-3.25893 0.26786,-3.57143 0,-0.3125 -1.11607,-3.08035 -1.11607,-3.08035 l -0.0893,-2.5 -0.89285,-1.29465 c 0,0 -0.40179,-2.5 -0.49108,-2.67857 -0.0893,-0.17857 -0.9375,-0.84821 -0.9375,-0.84821 l -0.9375,-0.89286 0.13393,-0.58036 1.29465,0.35715 1.38392,0.98214 1.96429,0.17857 1.02679,-0.40179 2.32142,-0.625 2.23215,0.17858 -0.0446,-2.14286 -1.25,-0.84822 0,-1.38392 2.5,0 0.89286,-0.80358 6.83036,0 1.42857,-1.11607 6.11607,-0.17857 1.96429,-1.38393 1.69643,-0.66964 1.47321,-1.20536 1.5625,-0.44643 1.33929,-1.47321 0.67095,-3.47278 c 0,0 0.44194,-0.3788 0.50508,-0.88388 0.0631,-0.50508 0.31567,-2.20971 0.31567,-2.20971 l -0.94702,-0.56821 -1.57836,-0.50507 0,-4.98763 c 0,0 -0.88389,0.12627 -0.88389,-0.88389 0,-1.01015 -0.12627,-5.99778 -0.12627,-5.99778 l 1.13643,-1.8309 0.25253,-1.38896 -1.19955,-0.75761 -0.12627,-2.14658 -0.63135,-0.56821 0.0631,-2.39911 -1.01015,-0.94702 -0.56822,-1.38896 -0.88388,-1.45209 -6.31345,-0.31567 -4.41942,0.56821 -0.88388,0.63134 -1.57837,0.12627 -0.88388,0.75761 -1.13642,0.0631 -0.50508,-0.88388 -0.82075,-0.37881 -0.25254,-0.75762 -0.69448,0 0,-1.19955 0.94702,-0.31567 0.12627,-0.69448 -1.57836,0.12626 -1.89404,0.37881 -1.13642,0.82075 -0.50508,0.12627 -1.07328,0.88388 -0.94702,1.13642 0,1.07329 1.01015,0 0.25254,1.07329 1.01015,0.75761 -0.1894,0.50508 -0.94702,0.56821 -1.89403,-0.12627 -1.83091,0 -1.13642,-1.13642 -0.94702,0 c 0,0 -1.70463,-0.63135 -1.95717,-0.63135 -0.25253,0 -0.50507,-1.19955 -0.50507,-1.19955 l -1.32583,-1.95717 -0.82075,-1.95717 0.12627,-1.8309 -1.0327,-0.23639 -0.25692,-1.25009 -0.45313,-0.82813 0.125,-4.25 0.0469,-1.624999 1.625,-1.125 1,0.25 1.25,0.5 1.25,-0.125 1.125,-1.5 1.5,-1.375 0.25,-2.875 c 0,0 0.125,-1.25 0.625,-1.5 0.5,-0.25 1,-1.25 2,-1.25 1,0 3.375,-0.25 3.375,-0.25 l 0.875,1.25 0.75,-1.5 0.625,-1.875 1.125,-1 0.75,-1 -0.75,-1 -1.375,-0.5 -0.5,-1.5 -1.75,-1.375 -2.25,-0.75 -1.625,-1.375 0.375,-3.5 1.625,-0.75 0,-2.5 1.75,-1.25 2.5,0 0.625,0.75 1.5,-0.25 0.875,-2.625 1,-1.5 0.41148,-0.583912 -0.79549,-1.104855 0,-2.872621 0.66291,-1.016466 0.97227,-0.618718 0.48614,-0.397748 0.26516,0.618719 0.39775,1.325825 0.66291,1.016466 1.01647,0.839689 1.19324,0.220971 2.47488,0.132582 0.48613,0.707107 1.37002,-0.04419 0.35356,-0.751301 6.67332,-0.04419 0.83968,1.06066 1.01647,0 0.26517,-1.104854 0.61871,-0.83969 2.25391,0.0442 0.92807,0.662912 1.591,0.574524 0.44194,0.883884 0.48613,1.635185 2.12132,0 1.41422,-1.414214 0.35355,-1.767767 0.35355,-1.237436 1.23744,1.06066 0.88388,0.353553 1.59099,1.06066 1.59099,0 1.41422,-1.06066 4.24264,0 3.35876,0.353553 0.17677,0.883884 0.88389,0.53033 0,1.59099 1.06066,1.237437 1.41421,1.06066 0.70711,0.53033 0.53033,1.060661 1.23743,0.707106 0.35356,3.358758 1.06066,1.06066 0.17677,1.237437 0.88389,1.237436 -1.23744,1.237437 0,1.06066 1.06066,0.176777 1.94454,1.06066 1.94455,0 0,4.419418 1.06066,1.59099 0.17677,1.414214 1.2883,0.363356 0.14329,1.363284 -0.9375,0.53125 -0.40625,2.34375 -0.65625,0.53125 -0.40625,1.28125 -0.625,0.3125 0.0937,1.34375 0.8125,0.40625 1.15625,0.09375 0.125,-2 c 0,0 0.9375,-0.75 1,-0.90625 0.0625,-0.15625 0.9375,-1.5 0.9375,-1.5 l 1.125,0.34375 0.59375,1.375 1.03125,0.96875 0.96875,1.34375 0.1875,2.03125 -0.875,0.875 0,1.625 1.125,1.125 -0.25,3.249996 1,0.375 0.5,1.375 0.625,1.25 0,1.5 -0.875,0.375 -0.375,2.5 -1.625,0.5 -0.125,2.5 0.5,0.875 0.375,0.875 4,0.625 3.75,-0.75 0.625,-1.875 1,-2.75 0.625,-1.375 1.125,-1 0.75,0 0.375,-5.75 -1.25,-1.375 -0.375,-4.124996 1,-3.25 0.625,-2.375 1.125,-1.25 1.875,-1.875 1.5,-1.125 2.75,-1 3.625,0.375 0.875,-1.25 1,-1.25 1.375,-0.625 0.125,-1 -1.375,-1 -1,-1.25 -1.625,-1.375 0.125,-4.125 1.125,-1 1,-1.875 3,0 4.125,0 1,0.5 c 0,0 3.625,0 4.125,0 0.5,0 2.75,-0.25 2.75,-0.25 l 0.75,-0.75 0.25,0 0.375,-1.625 1.42187,-0.5 0.65625,0.546875 c 0,0 1.14063,1.249999 1.20313,1.343749 0.0625,0.09375 1.31129,1.697707 1.31129,1.697707 l 1.06066,0.883883 0,1.59099 1.76777,1.944544 1.59099,0.53033 1.41421,0.883884 0.88388,0 0.35356,-1.016467 1.32582,-2.055029 1.78987,-0.08839 3.2207,-0.387077 2.375,-1.75 1.625,-0.5 1,-1.125 1,-2.375 0,-2.625 -1.625,-1 -1.25,-1.75 -1.75,-2.375 0,-3.125 -1,-1.5 c 0,0 0,-4.875 0.125,-5.375 0.125,-0.5 -0.5,-2 -0.5,-2 l -1.375,-2.25 -1,-1.875 0.125,-2.25 1,-0.625 1,-0.25 0,-1.625 -1.25,-0.875 -0.25,-3.375 -1.125,-1.125 -2,-1.5 -1.25,-0.5 -0.875,-0.875 -0.75,-1.625 -1.5,-0.25 -1.625,-1.5 0.125,-3.5 2.5,0 0.75,-1.5 2.75,0 1.875,-0.875 2,-1.25 1.125,-0.75 0.5,-1.125 0.875,-0.75 1,-1.875 0.25,-1.25 0.875,-0.875 1,-1.5 0.25,-2.5 1.25,-2.4999996 0.625,-2.25 1,-1.75 1.75,-1.25 3.625,0 0.75,0.75 4.625,0.25 1.25,-0.75 3.375,-0.375 0.75,0.875 0.625,2.125 1,3 1.75,1.6249996 1.75,0.5 3.75,-0.25 0.625,-0.8749996 0.75,-0.25 0.75,1.7499996 0.75,1 0.56099,0.06571 0.83968,-1.171146 c 0,0 0.7734,-1.370019 0.88389,-1.4363103 0.11048,-0.066291 1.72357,-1.7456699 1.72357,-1.7456699 l 4.50781,-0.3977475 1.43631,1.2374368 1.56889,2.2318059 1.63518,0.751301 0.34368,3.83962 0.75,0.375 0,3.125 1.25,0.125 2.625,0.125 0.5,0.625 0,1 -1.125,0.375 -1,0.625 0.5,1.125 1.625,0 1.625,0.5 0.375,1.375 0.875,3.25 0.5,0.625 0.625,1.25 0.625,1.125 -0.125,6 0,0.875 0.625,0.75 0.375,1.375 0.375,0 0.875,-2.25 0.625,-1.75 6.375,-0.75 1.125,-1.25 3.875,0.375 2.07686,0.958943 0.44194,1.944543 1.45841,1.767767 1.67938,1.37002 2.16551,0.883883 2.78423,0.397748 0.83969,2.784233 -1.14905,2.872621 -1.14904,1.59099 0,3.756505 2.2539,3.049398 1.76776,2.474874 0.53033,1.59099 1.94455,0.883884 4.06586,1.944544 2.65165,0.707106 4.94975,0.707107 4.77297,-0.707107 2.12132,-2.298097 2.12132,-0.353553 0.53033,-1.767767 1.94455,-2.12132 1.41421,-1.060661 2.82843,-1.767766 1.59099,-0.353554 0.88388,-0.707107 4.77297,-0.353553 2.2981,-0.707107 1.94454,-2.474874 -0.17678,-5.126524 -1.41421,-1.237437 -0.35355,-3.535533 2.65165,0 3.35876,-1.060661 3.71231,-1.414213 1.94454,-0.53033 7.07107,0 1.41421,1.414213 2.12132,1.767767 1.41421,0.883884 0,2.12132 -1.59099,0.353553 -1.41421,1.237437 -0.35355,1.414214 -1.76777,0.707107 -0.35355,2.12132 1.59099,0.353553 4.59619,0.176777 4.24264,1.06066 1.41422,0.707107 4.24264,0 1.06066,-1.06066 0.53033,-2.474874 0.7071,-3.535534 1.06066,-1.59099 0.88389,0.353553 1.76776,0.53033 2.47488,0.530331 2.12132,1.414213 0,1.944544 1.06066,2.12132 1.94454,0.883884 1.76777,1.767767 1.23744,1.06066 2.29809,1.59099 2.12132,2.474874 2.12132,2.12132 1.63519,2.12132 0.83969,0.795495 1.10485,-0.839689 1.45841,-1.458408 1.01647,-1.149049 0.7071,-0.618718 2.60746,-0.353553 1.28163,-1.149049 2.2981,0.795495 2.07712,1.546796 2.2981,2.916816 1.76777,0.397747 0.97227,-4.286835 1.67938,-4.596194 1.58824,0.444194 0.5,1.875 2.625,0.375 1.25,-2.25 1.125,-6.25 1.5,-0.125 1.25,1.5 2,1.375 1.5,0.625 0.75,1.625 0.375,3.375 -1.875,0.875 0,3.5 1.375,2.125 1.625,0.75 1.875,0.375 2,1.375 2.125,1.375 0.875,1.625 2,0.5 4.375,0.875 4.75,-1.75 2.125,0 1.625,1.5 1.625,0.625 2.375,1 2.125,1.875 1.625,1 -0.5,0.625 -0.5,1.375 0,2 -1.25,0.5 0.25,3.25 1.25,0.625 2.125,1.125 1.25,0.75 0.375,2.375 1,0.625 0.125,1.5 0.625,0.5 0.5,2.625 -0.375,3.75 -1.375,0.875 0.375,4.125 -1.25,0.999997 0,1.125 -0.75,1.75 -1,0.875 -0.25,4.375 0.5,4 0.25,3 1,0.375 0,1.75 -1.375,-0.5 -1.375,0.875 -1.625,1.375 -3.375,0.125 -1.375,-1.25 -1.625,-1.75 -1.625,0.375 -0.25,1.5 0,0.875 0.0625,5.0625 -1.25,4.4375 -1.8125,3.5 -0.625,1.125 -0.4375,4.875 -1.125,3.75 -4.125,1.3125 -1.0625,2.125 -0.8125,2 -0.9375,1.125 -0.625,1 -0.125,2.625 0.25,3.1875 1,1.3125 0.6875,0.625 c 0,0 1.125,-0.8125 1.375,-0.9375 0.25,-0.125 2.3125,-0.6875 2.5625,-0.8125 0.25,-0.125 1.875,-1.25 1.875,-1.25 l 2.5625,-1.5625 0.4375,-0.6875 3.1875,-0.125 0.9375,0 0.5625,1.125 0,1.375 -1.125,0.5 -0.25,2.9375 0.25,0.9375 0.3125,0.5625 1.375,0.75 1.31531,0.73932 z m -287.12781,-5.42682 -1,-0.8125 -0.5625,0.0625 -1,1.25 -0.125,0.875 -0.8125,0.0625 -0.75,1.125 -0.9375,0.875 -3.125,0 -1.9375,0.0625 -1.125,-1.125 -2.625,0 -1.125,-0.9375 -1.375,0 -0.3125,0.4375 1.1875,0.375 0.9375,0.75 1.875,0.3125 1.3125,0.125 0.75,0.5625 1.4375,0.0625 1.9375,0.125 0.54799,0.34218 2.03282,-0.0808 1.04419,-0.88637 0.6875,-1.4375 1.0625,0.0625 0.375,-1.6875 1.625,-0.5 z m 3.36709,3.09594 1.63518,0.0442 1.63519,0.88388 2.07712,0.26517 1.94455,0.7513 1.94454,0.57452 2.51907,0.70711 2.07713,0.57452 1.5026,0.39775 3.22617,0.70711 1.85616,0.83969 2.20971,0.70711 1.32582,0.35355 -0.26516,0.30936 -1.72358,0 -2.82842,-0.83969 -1.98874,-0.7955 -2.78423,-0.88388 -1.90035,-0.35355 c 0,0 -2.12132,-0.48614 -2.2981,-0.57453 -0.17678,-0.0884 -1.76777,-0.97227 -1.76777,-0.97227 l -3.0494,-0.48614 -1.90035,-0.92807 -3.22617,0 -0.22097,-1.28163 z m 29.36703,7.5351 2.87262,0.37565 3.0494,0.68501 3.7565,0.64082 2.60746,1.08276 -0.0663,0.81759 c 0,0 -0.68501,0 -0.99437,-0.22097 -0.30936,-0.22097 -2.69585,-0.99437 -2.69585,-0.99437 l -2.60745,-0.70711 -2.65165,-0.7734 -3.20408,-0.46404 -0.0663,-0.44194 z"
       id="Provincia_di_Genova"
       style="fill:#e45c36;fill-opacity:1;fill-rule:evenodd;stroke:#ffffff;stroke-width:1px;stroke-linecap:butt;stroke-linejoin:round;stroke-opacity:1" />
  </g>
  <g
     id="layer6"
     style="display:inline">
    <path
       d="m 858.80978,161.20617 0.89948,-2.03257 0.66291,-2.16551 0.53033,-1.90035 0.66292,-0.66292 1.14905,-0.17677 0.53033,-0.7955 1.59099,-0.17677 0.57452,-0.88389 2.07713,-0.0442 1.01646,-0.97227 5.08233,0 0.88389,-0.7513 4.86135,-0.13259 1.23744,-1.10485 2.38649,-0.0884 0.88388,1.37002 0.61872,0.88388 2.96101,-0.17677 0.26516,-0.92808 0.88389,-0.92808 1.14905,-0.0884 -0.0442,-1.06066 0.7955,-0.92807 0.22097,-2.2981 1.19324,-0.92808 0.57452,-0.83969 2.2981,0.26517 1.01647,0.83969 1.98874,0.13258 0.57452,0.7071 2.78423,0.44195 0.61872,1.94454 1.06066,1.19324 0.61872,1.59099 0.61872,0 0.7513,-1.28163 0.83969,-0.79549 1.28163,-0.0442 0.57452,-1.06066 0.97228,-0.79549 0.30935,-1.14905 0.75131,0 0.17677,-1.10486 1.5468,0 1.01646,0.66292 0.88389,0.61872 0.48613,3.04939 0.35356,0.48614 3.02029,2.77767 2.25,1.25 0.875,0.25 2.75,2.25 1.5,0.25 1.875,2.125 1.5,0.875 6.25,0.25 0.25,1.625 1.5,2.125 1.75,2 0.75,2.125 -0.25,4.25 1,0.625 0.125,5 1.625,1.125 0.1875,4.0625 1,2.875 0.6875,2.1875 2.1875,0.25 0.6875,-0.875 2.9375,-0.25 6.125,0.0625 3.25,0.6875 c 0,0 0.8125,1 1.1875,1.1875 0.375,0.1875 0.75,1.6875 1.1875,2 0.4375,0.3125 1.0625,1.75 1.0625,1.75 l 0,2.875 1,2.6875 0.875,2.875 c 0,0 1.8125,4.625 2.125,4.875 0.3125,0.25 0.5625,2.625 0.5625,2.625 l 4.25,0.5 1.125,0.75 4.625,2.8125 2.375,2.6875 2,2.25 1.0625,2.1875 0.0625,3.5 0.625,1.0625 2,1.6875 3.625,0.25 1.3125,1.625 1.5625,0.375 c 0,0 1.5,1.5 1.75,1.5 0.25,0 0.1875,1.25 0.1875,1.25 l 2.4375,1.5 1.5625,0.625 2.25,1.75 0.25,1.25 2.0625,0 0.4375,-1.3125 1.1875,-0.3125 0.375,-0.625 0.875,0 0.6875,1.3125 1.625,1.8125 1.6875,0.125 0.625,0.9375 3.8125,0 0.5625,3.3125 1.5,0.4375 0.625,0.875 4,0.5625 0.5,0.75 0.8125,0.875 1.0625,4.9375 0.375,3.0625 0.5625,0.625 1.375,0.75 -0.062,3.9375 -0.8125,0.375 -0.625,4.75 -0.6875,0.625 0.9062,2 1.0313,0.875 0.4687,0.9375 0.9063,0.875 2.9062,0.1875 c 0,0 1.1875,1 1.3125,1.0625 0.125,0.0625 0.8125,0.875 0.9375,0.9375 0.125,0.0625 0.094,0.65625 0.094,0.65625 l -1,0.375 -1.0938,1.96875 -1.125,2.8125 -0.1562,3.46875 -0.75,0.5625 -1.0313,2.15625 -0.9687,1.6875 -0.4375,3.375 -0.7813,0.84375 -0.1875,1.03125 0.3125,0.9375 c 0,0 0.9063,2.875 1.0313,3.0625 0.125,0.1875 0.3437,1.75 0.3437,1.75 l 0.9063,1.875 0.625,-0.0312 0.5625,-0.75 0.4375,-0.71875 0.4375,-1.34375 1.0312,-2.15625 0.8125,-2.75 0.625,-1.8125 1,-0.9375 2.0313,-1.5625 1,-1.28125 1.2812,0 1.5313,-1.4375 c 0,0 0.094,-1.3125 0.094,-1.4375 0,-0.125 0.9375,-1 0.9375,-1 l 0.8438,0 0.1875,-0.90625 2.75,-0.5625 2.2812,0.46875 0.062,2.21875 0.8438,1.46875 0.5,0.59375 1.6641,2.10938 1.0078,0.60156 0.5156,-1.21094 4.6484,0.14063 0.4197,0.6502 1.3998,1.08601 0.079,0.62507 -2.2322,0.45221 -2.033,2.82843 -0.7955,1.85615 -2.2981,0.97228 -0.7071,2.12132 -2.4749,3.18198 -1.6793,0.17677 -2.2981,1.85616 -2.1213,2.47487 -0.7955,0.61872 0.1767,1.14905 0.7071,1.06066 0.7955,1.23744 1.1491,-0.0884 0.2651,-1.06066 0.5304,-0.0884 1.3258,-0.70711 0.8839,-0.44194 1.4142,-1.14905 1.5026,0 0.9723,-0.79549 c 0,0 1.591,0 2.2981,0 0.7071,0 1.149,1.14905 1.149,1.14905 l 1.3258,0.88388 1.8562,0.61872 1.149,-1.41421 1.5027,-0.53033 5.1265,0 1.149,1.41421 0.9723,0.97227 1.591,-0.26516 1.8561,-2.03294 1.1491,-1.23743 1.591,0.17677 0.8839,1.67938 1.9445,0.70711 1.0607,2.47487 1.0606,1.23744 -1.4142,1.23744 0.5303,4.59619 0.8839,1.41421 -0.1767,1.76777 -1.4143,1.41421 0.7071,2.78424 0.7072,1.23743 0.2209,1.59099 1.1933,2.3423 0.4861,0.7513 0.2652,1.81196 0.7955,0.35355 1.8119,1.63519 2.3865,0.39774 0.3536,6.98268 -0.2652,2.16552 -1.3258,0.7513 -0.8839,0.79549 -2.2539,0.57453 -0.6187,0.66291 0.2209,1.41421 1.1491,1.01647 1.6794,0.70711 0.4419,0.7513 c 0,0 0.5303,0.97227 0.7071,1.10485 0.1768,0.13258 0.7071,0.13258 0.7071,0.13258 l 0.088,-2.34229 1.1049,-0.88388 0.8397,-1.14905 0.1767,-1.67938 0.7071,-0.48613 -0.1325,-2.87263 1.6793,-1.41421 1.3259,-0.79549 0.3093,-1.14905 0.5303,-1.45841 1.5468,-0.7955 0.8839,-0.48613 2.033,-0.61872 5.9662,0 0.9722,0.70711 1.9888,0.22097 0.3977,0.61872 2.5633,0.44194 0.6629,2.34229 2.3423,0.70711 1.0165,0.57452 2.0329,2.34229 -0.088,1.14905 2.0329,1.67938 0.9723,0.97227 0.5303,2.2981 0.9723,0.53033 -0.1326,0.83969 -0.8838,0.35356 -0.2652,1.14904 -0.5304,1.76777 -1.2374,2.47487 -2.4749,1.94454 -1.7677,1.41422 -0.8839,2.65165 -0.8839,0.7071 -2.2981,0.53033 -1.0607,1.41422 -3.3587,3.35876 c 0,0 -3.0936,3.13778 -3.2704,3.13778 -0.1768,0 -0.9723,2.38649 -0.9723,2.38649 l -0.8396,1.72357 -1.1491,2.20971 -0.7513,1.28163 -3.3587,-1.76777 -2.3865,-0.97227 -0.2652,-0.97227 -0.8397,-0.35355 -0.4861,0.92807 -4.0659,-0.17677 -1.0606,2.29809 -1.9446,1.76777 -1.4142,3.0052 -0.7071,1.23744 -0.5303,1.41421 -2.1214,-0.17677 -1.2374,-1.06066 -3.182,0 -1.4142,-1.06066 -2.4749,-3.18198 -3.5355,-3.00521 -2.4749,-2.82842 -4.4194,-1.41422 -1.7678,-1.06066 -0.1767,-3.0052 -1.7678,-0.53033 -1.0607,-0.88389 -2.1213,-1.23743 -1.591,-1.41422 -0.7071,-5.3033 -1.591,-0.53033 -1.0606,-1.59099 -3.8891,0.88389 -1.7678,0.35355 -4.9497,-0.35355 -0.7071,-3.18198 -1.7678,-0.35356 -2.0771,-1.23743 -0.7071,-0.66292 -1.1491,-0.17677 -0.2652,-1.94455 -0.7954,-0.7513 -0.8839,-2.20971 -0.8839,-0.79549 -0.9281,-2.43068 -0.4861,-1.5468 -0.6187,-1.45841 -1.9004,0 -0.4419,1.37002 -0.3978,1.90035 -1.4142,0 -0.6187,-2.60745 0.221,-1.14905 -2.9169,0 -0.6629,0.97227 -1.2816,1.5026 -1.8562,2.03293 -0.7071,0.97228 0.7955,0.61871 0.3536,1.67938 -1.1491,-0.0884 -0.7955,0.61871 -0.2651,1.06066 -1.3259,0 -0.7071,-0.44194 -0.7955,-0.97227 -0.088,-0.97227 0.2651,-1.85616 -0.088,-1.32582 -2.1213,0.17677 -0.6187,1.06066 0.088,1.23744 1.149,2.12132 1.1491,0.53033 1.0606,1.41422 0.7955,0.97227 1.0607,2.03293 0.1768,1.41421 1.6794,1.76777 0.5303,3.09359 0.9723,1.23744 2.298,1.85615 c 0,0 0.5304,1.41422 0.7955,1.76777 0.2652,0.35355 1.2375,0.97227 1.2375,0.97227 l 0.8839,1.94455 0.8838,0.7071 -0.088,2.2981 -1.0607,0.61872 -0.3536,1.41421 -0.7071,1.32583 -0.7071,0.88388 -0.9722,1.14905 -0.6188,0.35355 -0.5303,-0.61872 -0.4861,-0.61871 -2.5191,-1.98874 -1.5468,-1.94455 -1.9887,-0.7071 -2.2097,-0.97227 -1.4142,-0.97228 -0.221,-0.48613 -0.9723,-0.48614 -0.61871,1.37002 -1.5026,-0.35355 -1.90035,-0.7955 -1.01646,-0.97227 -0.39775,-1.59099 -1.45841,-0.48613 -0.92808,-1.81197 -1.76777,-1.06066 -1.94454,-0.17677 -1.23744,-0.70711 -2.12132,-0.70711 -0.7071,-1.76776 -0.53033,-1.94455 -2.65165,0 -1.23744,-0.53033 -0.53033,-1.94454 -1.59099,-0.53033 -3.18198,-0.70711 -2.2981,-1.59099 -2.2981,-1.76776 0,-1.06066 -1.76776,-1.23744 -1.06066,-2.82843 -1.23744,-1.59099 -0.53033,-2.82843 -1.23744,-1.76776 -0.53033,-1.41422 -2.29809,-0.35355 -2.12132,-0.88388 -1.76777,-0.53033 -1.94454,-0.70711 -1.76777,-1.59099 -1.23744,-0.70711 -2.12132,-2.29809 -2.12132,-0.35356 L 948,325.25 947.5,323 l -3.25,-1.78125 -2.3125,-1.3125 -3.46875,-0.5 -0.78125,-0.96875 -4.34375,-0.0937 -2.96875,0.6875 c 0,0 -0.9375,2.625 -1.0625,2.9375 -0.125,0.3125 -0.875,1.84375 -0.875,1.84375 l -0.8125,2.09375 -0.625,-0.0312 -0.15979,-1.19422 -1.06066,-0.35355 -1.06066,-1.59099 -1.41421,-1.06066 -1.76777,-0.88389 -1.06066,-0.88388 0,-1.59099 -0.88388,-0.70711 -1.06066,-1.06066 0,-1.23743 -1.41422,-0.70711 -0.17677,-1.41421 -1.41422,-1.23744 -0.53033,-3.18198 0.70711,-2.82843 1.06066,-0.88388 -0.70711,-0.88388 -1.76776,-0.35356 -0.35356,-1.06066 -6.7838,-0.35355 -2.58536,-2.71794 -1.10486,-0.86179 -0.15468,-1.43631 -0.39774,-0.81759 -1.87826,0.19887 -0.78081,0.85284 -1.25,-0.875 -1.25,-0.375 0,-3 1.125,-0.625 -0.375,-1.75 -0.25,-1.125 -0.5,-1.25 -1.25,-0.125 -0.25,1.125 -1.25,0 -0.375,-1.125 -2.125,-1.5 -0.25,-1.75 -0.625,-0.625 -1.75,-0.75 -3.25,-0.75 -3.82428,-1.22418 -1.72357,-0.44194 c 0,0 -1.01647,-1.19324 -1.12696,-1.30373 -0.11048,-0.11048 -1.92244,-0.7734 -2.01083,-0.81759 -0.0884,-0.0442 -0.88388,-1.25953 -0.88388,-1.25953 0,0 -1.32583,-0.59663 -1.41422,-0.64082 -0.0884,-0.0442 -0.7292,-0.35355 -0.7292,-0.35355 l -1.20622,-0.5772 1.13791,-1.44396 1.14062,-1.15625 1.14063,-0.96875 1.21875,-1 0.90625,-1.25 0.75,-0.75 0.4375,-0.3125 0.3125,-3.3125 -0.875,-0.875 -1.25,-1.0625 -0.0625,-1.1875 0.875,-0.8125 0.4375,-1.1875 0.8125,-0.875 0.25,-1 0.5625,-0.125 0.5,-1.875 0.5,-0.375 0.3125,-2.5625 0.875,-0.5 0.4375,-0.625 1.1875,-0.375 2.9375,-0.5625 1.4375,0.0625 0.75,-0.9375 3,-0.125 1.3125,0.25 0.75,0.8125 1.3125,0.25 0.75,0.875 1.1875,0.0625 0.5625,1.125 0.375,0 0.4375,-2.375 -0.25,-6.375 -0.8125,-3.25 -1.625,-0.25 c 0,0 -0.125,-1.25 -0.375,-1.5 -0.25,-0.25 -1.6875,-0.4375 -1.875,-0.6875 -0.1875,-0.25 -1.125,-1 -1.125,-1 l -0.9375,-0.8125 -0.875,-1.6875 0.0625,-3.25 -0.9375,-1.125 -0.625,-1.875 -1.5,-0.5 -1.6875,-1 -1.375,-0.75 -1.1875,-1.1875 -1,-0.125 -1.875,-1.5 -1.1875,-1.3125 -1.4375,-0.5 -1.875,-2 -0.375,-2.625 -1.0625,-1.9375 -1.5625,-1.4375 -1.75,-1.625 -0.5,-0.75 -1.25,-0.375 -0.9375,-1.125 -2,-0.4375 -0.9375,-0.8125 0,-1.3125 0.75,-0.5 0.3125,-5.4375 1,-1.1875 1.625,-1.1875 1.625,-0.5 0.3125,-1 0.5,-0.625 0.6875,-1.4375 0.8125,-2.0625 0.5,-0.5 -0.25,-1.625 -0.75,-0.9375 -1.625,-1.0625 -1,-0.375 -1.5,-1.25 -0.8125,-0.8125 -1.375,-0.5 -0.6875,-0.8125 -1,-0.875 -1,-1.75 0.0625,-5.5 -0.875,-0.75 -0.125,-1.25 -1,-0.75 -0.6875,0.375 -0.625,0.5 -0.875,0.8125 -1.0625,0.1875 -0.75,-0.75 -1.5625,-0.75 L 857,176.5 c 0,0 -0.75,-0.9375 -1.1875,-1.3125 -0.4375,-0.375 -0.75,-0.75 -0.75,-0.75 l 0.15625,-0.5 1.28125,-0.125 0.4375,-1.5 c 0,0 0,-1.9375 -0.1875,-2.0625 -0.1875,-0.125 -0.9375,-0.8125 -0.9375,-0.8125 l -1.25,-0.8125 -0.40625,-2.0625 c 0,0 -0.53125,-0.4375 -0.53125,-0.5625 0,-0.125 0,-0.6875 0,-0.6875 l 0.65625,-0.75 1,-0.6875 c 0,0 1.34375,-0.53125 1.46875,-0.65625 0.125,-0.125 1.1875,-0.96875 1.1875,-0.96875 l 0.87228,-1.04383 z m 152.79482,214.47469 1.6794,-0.70711 2.5633,-0.26516 1.7677,-0.88389 2.3865,-0.26516 2.2097,-0.44194 0,1.06066 -1.149,0.97227 -0.1768,2.03293 -1.2374,1.14905 0.1768,2.38648 -0.2652,1.14905 -0.9723,1.06066 0,1.67938 -1.2374,0 c 0,0 -0.3536,-0.70711 -0.6187,-1.06066 -0.2652,-0.35355 -0.7071,-1.59099 -0.7071,-1.59099 l -1.3259,-1.06066 c 0,0 -0.1767,-1.59099 -0.6187,-1.76777 -0.4419,-0.17677 -1.4142,-0.97227 -1.4142,-0.97227 l -0.9723,-1.32582 -0.088,-1.14905 z m 6.364,10.42982 1.8562,-0.17677 0.3535,1.06066 1.6794,0 0.3535,1.85615 -0.8838,0.0884 -0.5304,1.85616 -0.6187,0.0884 -0.3535,-1.59099 -0.5304,-0.44194 -0.4419,-0.88388 -0.8839,-0.44194 0,-1.41422 z"
       id="Provincia_di_La_Spezia"
       style="fill:#e45c36;fill-opacity:1;fill-rule:evenodd;stroke:#ffffff;stroke-width:1px;stroke-linecap:butt;stroke-linejoin:round;stroke-opacity:1" />
  </g>
</svg>
