<?xml version="1.0" encoding="UTF-8" standalone="no"?>
<!-- Created with Inkscape (http://www.inkscape.org/) -->

<svg
   xmlns:svg="http://www.w3.org/2000/svg"
   xmlns="http://www.w3.org/2000/svg"
   version="1.1"
   width="3504.3728"
   height="3450.2656"
   id="svg2"
   style="display:inline">
  <defs
     id="defs21" />
  <g
     transform="matrix(60,0,0,60,-17213.737,-10798.086)"
     id="Ancona"
     style="fill:#e45c36;fill-opacity:1;stroke:#ffffff;stroke-width:0.05;stroke-linejoin:round;stroke-miterlimit:4;stroke-opacity:1;stroke-dasharray:none;display:inline">
    <path
       d="m 321.4489,190.8727 -0.496,-0.4175 -0.3999,-0.3398 -0.3561,-0.3134 -0.3477,0.308 -0.0156,0.0124 -0.0152,0.01 -0.0419,0.0199 -0.169,0.0633 -0.5398,0.3248 -0.0206,0.0148 -0.0317,0.0216 -0.0385,0.0182 -0.1689,0.0681 -0.0722,0.0246 -0.0271,0.008 -0.0183,0.002 -0.0714,0.0109 -0.0813,0.0151 -0.0233,0.005 -0.042,0.0119 -0.0656,0.0223 -0.0439,0.0213 -0.0875,0.0531 -0.0962,-0.0153 -0.2392,0.0335 -0.2255,-0.0664 -0.0425,-0.0418 -0.3719,0.0644 -0.235,0.0298 -0.1852,0.0489 -0.1088,0.086 -0.2765,0.0308 0.0421,0.077 0.0169,0.0222 0.0577,0.0669 0.0446,0.0419 0.0478,0.0384 0.0826,0.0571 0.1231,0.1074 0.0725,0.0706 10e-4,0.0445 -0.0425,0.4752 -0.1565,0.2788 -0.0496,0.0785 -0.0921,0.0497 -0.014,0.008 -0.1184,0.0708 -0.04,0.0248 -0.4852,0.3133 -0.0896,0.0662 -0.0115,0.009 -0.0164,0.0156 -0.0282,0.0414 -0.0194,0.0284 -0.01,0.0122 -0.0243,0.0306 -0.016,0.016 -0.0417,0.039 -0.0163,0.0147 -0.0235,0.0173 -0.0298,0.0111 -0.0411,0.0146 -0.068,0.0226 -0.0266,0.008 -0.0254,0.005 -0.0214,-0.004 -0.0374,-0.008 -0.1671,-0.0397 -0.0694,0.033 -0.0244,0.0122 -0.0276,0.0169 -0.0123,0.01 -0.0131,0.0125 -0.0208,0.0206 -0.009,0.0107 -0.008,0.0128 -0.0551,0.1062 -0.2165,0.2915 -0.2942,0.2793 -0.2624,0.1256 -0.0504,-0.009 -0.1161,-0.0118 -0.0159,-4e-4 -0.0603,-2e-4 -0.0731,0.003 -0.0203,0.006 -0.006,0.002 0.0225,0.314 -0.0229,0.1729 -0.0144,0.1065 -0.0182,0.0916 -0.0377,0.1308 -0.0617,0.2011 -0.1053,0.4191 -0.005,0.0131 -0.1639,0.3297 -0.4372,0.8025 -0.0157,0.0211 -0.008,0.0101 -0.009,0.009 -0.007,0.002 -0.08,0.0241 -0.0906,-0.062 -0.3878,0.0261 -0.0325,0.006 -0.014,0.006 -0.012,0.006 -0.01,0.006 -0.0111,0.008 -0.008,0.0123 -0.0824,0.1411 -0.003,0.0106 8e-4,0.0138 0.002,0.0172 0.002,0.0266 -0.001,0.0138 -0.008,0.016 -0.036,0.0472 -0.008,0.0111 -0.0115,0.007 -0.2853,0.1312 -0.0635,-0.002 -0.0328,-0.006 -0.007,-0.004 -0.0689,-0.0499 -0.1387,0.168 -0.007,0.0146 -0.0293,0.0608 0.0269,0.0402 0.0373,0.4051 -0.2619,0.431 -0.3982,0.4372 -0.0577,0.0603 -0.411,0.3747 -0.0173,0.008 -0.0177,0.0109 -0.2697,0.2649 -0.006,0.0122 -0.004,0.0164 -0.003,0.0122 -0.0211,0.0177 -0.003,0.002 -0.0343,0.0263 -0.3641,0.1539 -0.1853,0.076 -0.4548,0.2059 -0.0249,0.1589 -0.003,0.0255 -0.007,0.0271 -0.0284,0.0904 -0.007,0.0176 -0.0142,0.0153 -0.2397,0.2405 -0.0544,0.0535 -0.0261,0.0249 -0.0438,0.0321 -0.0639,0.0404 -0.0337,0.0182 -0.1486,-0.0653 -0.4125,0.2188 -0.2216,0.0586 -0.0675,0.0799 -0.2735,0.4628 -0.004,0.0218 3e-4,0.0222 0.006,0.0273 0.0487,0.1652 0.0579,0.2721 0.008,0.0438 0.002,0.0152 -0.003,0.0143 -10e-4,0.004 -0.0111,0.007 -0.2836,0.1511 -0.0284,0.0107 -0.024,0.007 -0.0133,-2e-4 -0.0314,-0.001 -0.0126,-0.005 -0.0156,-0.004 -0.0112,0.001 -0.1574,0.0492 -0.0802,0.0279 -0.0604,0.0229 -0.007,0.003 -0.0626,0.0308 -0.0212,0.0138 -0.0162,0.0166 -0.155,0.2338 -0.007,0.0166 -0.059,0.1575 -0.0141,0.0782 0.002,0.0368 0.1264,0.1128 0.0629,0.0887 0.1138,0.217 -0.0747,0.0517 -0.0287,0.0185 -0.0523,0.0239 -0.0896,0.0597 -0.0278,0.0189 -0.0637,0.0473 -0.005,0.01 -0.0514,0.5543 0.0245,0.2509 0.002,0.014 0.0118,0.0486 0.01,0.0139 0.008,0.0107 0.0328,0.0424 0.0279,0.0307 0.0132,0.008 0.0269,0.009 0.0643,0.0194 0.115,0.1233 0.1111,0.1615 0.062,0.1038 -0.1719,0.5343 -0.002,0.007 -0.006,0.01 -0.004,0.004 -0.0118,0.007 -0.3663,0.205 -0.0464,0.0218 -0.0136,0.006 -0.1337,0.0422 -0.0356,0.01 -0.017,0.003 -0.0149,7e-4 -0.0142,-8e-4 -0.0247,-0.002 -0.2532,0.224 0.0151,0.0758 0.079,0.3538 0.2121,0.2625 0.0128,0.0119 0.006,0.007 0.0291,0.0397 0.0234,0.0369 0.005,0.008 0.003,0.008 0.003,0.0126 0.0424,0.1783 8e-4,0.0129 -6e-4,0.009 -0.004,0.0117 -0.0296,0.0878 0.0242,0.0544 0.0809,0.0157 0.0282,0.0103 0.0757,0.0293 0.0156,0.009 0.0832,0.0571 0.006,0.005 0.0718,0.0704 0.0319,0.0997 0.0565,0.1964 0.3406,0.3614 0.003,0.0135 0.003,0.0173 0.002,0.0209 -4e-4,0.0173 -0.0179,0.1161 0.2409,0.1356 0.0495,0.038 0.0102,0.0103 0.0112,0.0118 0.0185,0.0231 0.0246,0.0327 0.005,0.008 4e-4,7e-4 0.006,0.01 0.0222,0.0395 0.004,0.009 0.1587,0.4288 0.115,0.7582 0.006,0.0499 0.001,0.0408 4e-4,0.0295 -2e-4,0.008 -0.006,0.0925 -0.004,0.0513 -0.0326,0.2569 -0.006,0.0441 -0.0421,0.1624 -0.005,0.0172 -0.0182,0.0173 -0.0302,0.0215 -0.0249,0.0148 -0.0305,0.0132 -0.0255,0.007 -0.0259,0.01 -0.0474,0.0294 -0.0347,0.0251 -0.0121,0.0126 -0.0174,0.0186 -0.0821,0.113 -0.008,0.0197 -0.003,0.0206 0.002,0.016 0.009,0.0144 0.0271,0.0332 0.0411,0.0418 0.1374,0.1312 0.3604,0.3424 0.0333,-0.0122 0.0103,-0.002 0.0159,0.003 0.5723,0.1961 0.1183,0.2683 0.0107,0.2001 -0.0107,0.0195 -0.0518,0.0986 -0.002,0.007 -0.005,0.0191 -0.005,0.0296 -0.0235,0.1322 -0.002,0.0142 0.0862,0.6133 4e-4,8e-4 0.007,0.0128 0.0237,0.0326 0.0262,0.0328 0.033,0.0354 0.01,0.01 0.0453,0.0501 0.018,0.0202 0.0103,0.0131 0.008,0.0107 0.0207,0.0298 0.01,0.0162 5e-4,8e-4 0.01,0.0176 0.0839,0.1704 0.0409,0.2123 0.002,0.0108 8e-4,0.0121 -6e-4,0.008 -0.0218,0.0402 -0.0412,0.0587 0.2214,0.1753 0.085,0.0612 0.0832,0.0533 0.0823,0.0515 0.0158,0.001 0.3809,-0.0599 0.0257,-0.1243 0.7536,-0.4744 0.0195,3e-4 0.1819,0.002 0.0121,-7e-4 0.0106,-0.005 0.008,-0.004 0.0507,-0.0611 0.0184,-0.0266 0.011,-0.0178 0.0552,-0.0562 0.005,-0.1603 -0.0105,-0.004 -0.0887,-0.0906 -0.008,-0.01 -0.2047,-0.4904 -0.1218,-0.3894 -0.0653,-0.3853 -0.007,-0.0608 -0.005,-0.0713 3e-4,-0.0202 0.006,-0.0191 0.007,-0.0128 0.0103,-0.0196 0.0297,-0.038 0.0141,-0.0169 0.0848,-0.0811 0.0142,-0.0101 0.0134,0.001 0.0224,0.0144 0.3457,-0.1769 0.0492,-0.0892 0.1351,-0.2245 0.0168,0.0234 0.0982,0.1679 0.01,0.018 0.0222,0.071 0.004,0.0224 0.004,0.0197 0.004,0.0158 0.006,0.0182 0.01,0.0237 0.0311,0.0589 0.007,0.0124 0.01,0.0158 0.0133,0.0176 0.0137,0.0149 0.005,0.003 0.3248,-0.0716 0.4328,-0.1053 0.6474,-0.1794 0.009,-0.003 0.0915,-0.0313 0.4748,-0.1904 0.3166,-0.2356 0.0564,-0.0573 0.0703,-0.1589 0.014,0.007 0.0333,0.0157 0.0469,0.0179 0.0397,0.004 -0.0177,-0.1922 0.08,-0.2604 0.0793,-0.0355 0.2686,-0.0846 0.2425,-0.065 0.1483,-0.0522 0.0963,-0.0778 0.0859,-0.0721 0.0101,-0.0136 0.001,-0.0101 -0.004,-0.0133 -0.002,-0.0132 -0.002,-0.0157 -4e-4,-0.008 -7e-4,-0.0174 0.002,-0.0214 0.005,-0.0183 0.0793,-0.194 0.1883,-0.395 0.2802,-0.2603 0.1247,-0.0771 0.1596,-0.0898 -0.1644,-0.1697 0.2377,-0.116 0.1257,-0.3101 -0.007,-0.1673 -5e-4,-0.0206 10e-4,-0.0223 0.005,-0.0214 0.003,-0.0105 0.004,-0.0132 0.006,-0.0203 0.007,-0.0215 0.0368,-0.0759 0.0184,-0.0327 0.0105,-0.0128 0.1833,-0.1994 0.1031,-0.1073 0.0114,-0.0112 0.0149,-0.006 0.0153,-0.004 0.0179,-0.001 0.0137,0.002 0.053,-0.0132 0.0161,-0.005 0.0106,-0.006 0.0109,-0.0144 0.0558,-0.1388 0.003,-0.0166 -0.0329,-0.3792 -0.0279,-0.1072 0.0704,-0.0496 0.2244,-0.1924 -0.005,-0.0155 -0.009,-0.0568 0.0106,-0.06 0.024,-0.0578 0.008,-0.007 0.0349,-0.0209 0.0123,-0.006 0.0112,-0.004 0.009,-0.002 0.1123,0.0324 0.0945,0.087 0.002,-0.01 0.003,-0.0101 0.01,-0.0302 0.0116,-0.0241 0.007,-0.0154 0.006,-0.01 0.1324,-0.1265 0.009,-0.008 0.0116,-0.003 0.0132,-0.006 0.0164,-0.0788 0.002,-0.0253 8e-4,-0.0188 7e-4,-0.0245 -0.005,-0.0144 -0.083,-0.1287 -0.0233,-0.0358 -0.097,-0.1374 -0.1275,-0.075 -0.1404,-0.0878 -0.0283,-0.0345 -0.0134,-0.0202 -0.003,-0.0128 -0.002,-0.0165 0.0217,-0.2762 0.003,-0.0138 0.006,-0.01 0.0728,-0.0611 0.0911,-0.0714 0.007,-0.005 0.0514,-0.0302 0.0115,-0.006 0.0107,-0.004 0.0812,-0.0345 0.1,-0.0507 0.0136,-0.0109 0.0577,-0.0779 0.1454,-0.404 0.005,-0.0155 0.01,-0.0308 0.004,-0.0152 0.006,-0.0291 0.1924,-0.004 0.1382,0.1164 0.1431,0.096 0.0833,0.0553 0.0617,0.0171 0.1845,0.0144 0.0729,0.001 0.04,-0.003 0.0145,-0.001 0.0121,0.003 0.1768,0.0591 0.0122,0.008 0.1137,0.1029 0.0107,0.0106 0.008,0.0115 0.0807,0.137 0.0221,0.0392 0.0213,0.0543 0.0363,0.0765 0.005,0.005 0.008,0.004 0.0659,0.0369 0.007,0.003 0.0126,0.002 0.1615,0.0159 0.0593,0.006 0.007,-9e-4 0.0121,-0.002 0.0174,-0.003 0.007,-0.002 0.009,-0.003 0.0141,-0.006 0.1579,0.1491 0.0974,-0.003 0.0191,-0.003 0.0116,-0.005 0.2034,-0.1209 0.007,-0.006 0.006,-0.006 0.008,-0.008 0.0149,-0.0188 0.0146,-0.0215 0.0913,-0.0317 0.176,-0.0268 0.4704,0.005 0.2422,0.0478 0.1168,0.0281 0.1555,0.0405 0.0853,0.0144 0.1005,0.004 0.0688,2e-4 0.012,-0.002 0.1415,-0.0413 0.0719,-0.121 0.0696,-0.1266 0.1106,-0.182 0.2434,-0.2621 0.0415,-0.2904 0.2351,-0.3026 0.3617,-0.6138 0.1022,0.006 0.0916,-0.003 0.5679,-0.0312 0.009,-0.008 0.0151,-0.0148 0.0119,-0.008 0.0154,-0.003 0.414,-0.0177 -0.0236,0.067 -0.009,0.0141 -0.0147,0.0132 -0.025,0.021 -0.0267,0.0172 -0.0198,0.0107 -0.0248,0.0107 -0.0797,0.034 -0.0846,0.0391 -0.008,0.0144 10e-5,0.001 0.002,0.0189 0.0983,0.1938 0.0734,0.1394 0.0169,0.0279 0.0176,0.0251 0.008,0.004 0.0117,0.005 0.0213,0.005 0.1427,0.2008 0.0515,0.2683 0.0217,0.238 -0.005,0.0664 1e-4,0.1231 5e-4,0.0222 0.004,0.009 0.0103,0.0188 0.002,0.004 0.0121,0.0188 0.0277,0.031 0.2201,0.165 0.226,0.1679 0.0127,0.009 0.1888,0.268 0.0896,0.1374 0.009,0.0136 0.01,0.0164 0.0335,0.1086 0.0103,0.0343 0.005,0.0321 0.002,0.0124 0.006,0.0145 0.008,0.0119 0.1096,0.1233 0.01,0.01 0.1574,0.082 0.0294,0.014 0.0117,0.004 0.2717,0.0863 0.0775,-0.0176 0.105,-0.0194 0.006,-0.001 0.0145,-0.002 0.0169,0.006 0.011,0.0131 0.0304,0.1004 -0.003,0.0178 -0.0123,0.0563 0.0105,0.001 0.5156,-0.16 0.0139,-0.007 0.0405,-0.0375 0.0943,-0.0902 0.01,-0.0175 -0.01,-0.2602 5e-4,-0.0182 0.007,-0.0178 0.013,-0.0177 0.0205,-0.0161 0.365,-0.2375 0.1654,-0.104 0.2062,-0.0951 0.1585,-0.055 0.2779,-0.1035 0.0189,-0.0111 0.1758,-0.1066 0.1306,-0.0932 0.2065,-0.2373 0.0122,-0.0175 0.006,-0.0142 0.0273,-0.0745 0.0307,-0.0612 0.0389,-0.0633 0.0124,-0.0147 0.0138,-0.0142 0.004,-0.003 0.005,-0.004 0.004,-0.003 0.0551,-0.0236 0.1177,0.0302 0.0389,0.008 0.0982,0.0151 0.1905,0.0264 0.0422,0.006 0.0313,0.004 0.1782,0.0144 -0.004,-0.1318 0.0248,-0.0534 0.1955,-0.2103 0.0202,-0.0124 0.2076,-0.1257 0.092,0.0593 4e-4,0.002 0.006,0.0265 0.005,0.0114 0.004,0.008 8e-4,0.002 0.003,0.004 0.002,0.003 0.0188,0.026 0.0329,0.0425 0.009,0.008 0.0229,0.0198 0.1107,0.0804 0.0173,0.011 0.0134,0.004 0.0142,0.003 0.0189,0.004 0.0179,9e-4 0.2285,-0.017 0.1451,-0.0154 0.3559,0.109 0.2152,-0.0271 0.6957,-0.1256 0.004,-0.001 0.007,-0.003 0.01,-0.0138 0.0828,-0.145 0.1349,-0.0256 0.0104,-0.001 0.0175,-2e-4 0.0104,7e-4 0.013,0.002 0.01,0.004 0.0669,0.0336 0.1348,0.0549 0.2798,0.1026 0.0113,0.004 0.051,0.0112 0.2214,-0.0402 0.2013,-0.0232 0.1692,-0.0189 0.1066,-0.005 0.2745,-0.007 0.17,-0.004 0.5318,-0.0657 0.2586,-0.1041 0.1853,-0.057 -0.007,0.024 -0.0133,0.0384 -0.0122,0.028 -0.1759,0.3082 -0.0329,0.0457 -0.0123,0.0159 -0.0176,0.0148 -0.0777,0.0635 -0.071,0.0375 -0.0334,0.0164 0.001,0.2941 0.1943,0.3201 0.9516,0.1102 0.0571,2e-4 0.2754,-0.0495 0.0111,-0.005 0.1361,-0.08 0.019,-0.0121 0.0151,-0.0168 0.009,-0.0183 0.004,-0.006 0.008,-0.0111 0.0306,-0.0393 0.0119,-0.0127 0.3016,-0.1974 0.0132,-0.006 0.0162,-0.006 0.0736,-0.0289 0.1151,-0.0212 0.0802,-0.0102 0.0249,-0.01 0.0169,-0.007 0.0323,-0.0156 0.0569,-0.0306 0.0223,-0.0134 0.0164,-0.0148 0.0164,-0.0175 0.0241,-0.0316 0.005,-0.011 0.0164,-0.0421 0.003,-0.008 0.006,-0.0166 0.001,-0.0199 -0.0756,-0.5328 -0.006,-0.0201 -0.002,-0.006 -0.01,-0.0323 -0.0183,0.002 -0.0445,0.005 -0.6497,0.072 -0.005,-0.0224 -0.007,-0.0218 -0.0468,-0.082 -0.0293,-0.0341 -0.1071,-0.096 -0.0603,-0.044 -0.1121,-0.0203 -0.0347,-0.004 -0.017,0.002 -0.3986,-0.0836 -0.2267,-0.0695 -0.061,-0.0759 -0.004,-0.008 -0.003,-0.0484 0.005,-0.0179 0.007,-0.009 0.0721,-0.073 0.0488,-0.046 0.0251,-0.0215 0.0292,-0.0198 0.019,-0.01 0.0241,-0.0114 0.0293,-0.0114 0.1721,-0.0545 0.0655,-0.0183 0.067,-0.0115 0.0266,-0.005 0.0701,-0.0144 0.0199,-0.009 0.026,-0.0138 0.008,-0.007 0.009,-0.0102 0.0272,-0.0407 0.008,-0.0119 0.008,-0.0185 0.007,0.001 0.0263,4e-4 0.0586,-0.0136 0.0335,-0.01 0.1186,-0.0669 0.034,-0.0316 0.0107,-0.0104 0.009,-0.0114 0.009,-0.0146 0.007,-0.0103 0.0123,-0.0127 0.0349,-0.0316 0.0136,-0.009 0.0756,-0.019 0.0183,-0.003 0.0167,-3e-4 0.1005,0.0116 0.0151,-0.009 -0.003,-0.0149 -0.009,-0.0207 -0.0108,-0.0232 -0.1502,-0.3006 -0.0193,-0.0348 -0.0891,-0.1598 -0.0914,-0.1616 -0.0354,-0.0659 -0.0196,-0.0368 -0.067,-0.1291 -0.0184,-0.0363 -0.0168,-0.0332 -0.0317,-0.0663 -0.028,-0.0635 -0.0104,-0.0267 -0.009,-0.0237 -0.01,-0.0275 -0.0124,-0.0365 -0.0128,-0.0422 -7e-4,-0.002 -0.005,-0.0257 -0.003,-0.0177 -0.004,-0.0292 -0.002,-0.0151 -10e-4,-0.007 0.002,-0.0333 0.003,-0.019 0.002,-0.0152 0.007,-0.0238 0.007,-0.0114 0.008,-0.009 0.008,-0.009 0.008,-0.005 0.007,-0.003 0.005,-0.002 0.0777,-0.1108 -0.0842,-0.2158 -0.002,-0.007 -0.003,-0.008 -0.007,-0.0225 -0.0884,-0.5456 -0.008,-0.0749 6e-4,-0.061 0.0118,-0.091 0.006,-0.0284 0.003,-0.0129 0.003,-0.004 0.002,-0.002 0.004,-0.002 0.005,-0.002 0.004,-0.001 0.003,-0.003 0.0329,-0.0365 0.009,-0.0106 0.006,-0.006 0.0166,-0.0196 0.1034,-0.1545 0.042,-0.2335 -0.0255,-0.1086 -0.0131,-0.0339 -0.0541,-0.0865 -0.4274,-0.3153 -0.1284,-0.0792 -0.0281,-0.003 -0.0441,-0.005 -0.061,-0.011 -0.6246,-0.2213 -0.0751,-0.0332 -0.1657,-0.079 -0.008,-0.004 -0.0287,-0.0181 -0.0241,-0.0174 -0.0606,-0.0466 -0.026,-0.026 -0.0745,-0.0752 -0.007,-0.009 -0.0608,-0.0898 -0.0327,-0.0536 -0.0174,-0.0356 -0.0161,-0.0412 -0.0182,-0.0507 -0.0916,-0.268 0.004,-0.0897 0.0148,-0.083 -0.4122,-0.6237 -0.1599,-0.1665 -0.1521,-0.158 -0.0116,-0.003 -0.0503,-0.0224 -0.0884,-0.0396 -0.0598,-0.0341 -0.002,-0.004 -0.0137,-0.03 -0.0233,-0.0549 -0.1773,-0.3007 -0.002,-0.003 -0.0177,-0.0153 -0.0246,-0.0195 -0.0178,-0.0136 -0.0307,-0.0211 -0.041,-0.0259 -0.004,-6e-4 -0.0605,-0.008 -0.0723,-0.006 -0.3096,-0.1192 -0.0811,-0.055 -0.0185,-0.0139 -0.0122,-0.0364 -10e-4,-0.0109 0.011,-0.0257 -0.0391,-0.0403 -0.0209,-0.0179 -0.0149,-0.0106 -0.0934,-0.0638 -0.009,-0.003 -0.0966,-0.0294 -0.0232,-0.007 -0.0147,-0.004 -0.013,0.0102 -0.1044,0.086 -0.004,0.003 -7e-4,0.003 0.008,0.003 0.002,-0.005 -0.002,-3e-4 0.004,-0.004 0.0207,-0.0173 0.0172,-0.0137 10e-4,0 0.0737,0.0551 0.1115,0.1233 0.0846,0.128 0.005,0.008 0.0165,0.0394 0.006,0.0511 -0.0383,0.1015 -0.1712,0.2195 -0.0253,-0.1512 0.0263,-0.0228 0,-8e-4 -0.1213,-0.1303 -0.1068,0.0246 -0.0764,0.041 -0.0636,0.0908 0.0159,-0.0119 0.002,0 9e-4,2e-4 0.0111,0.007 0.0154,0.009 0.067,0.042 10e-4,0.002 4e-4,0.002 -0.0687,0.1281 -0.1887,0.1618 -0.0954,0.061 -0.1065,0.067 -0.007,0.001 -0.2381,-0.0362 -0.1932,-0.0338 -0.4,-0.0765 -0.0158,-0.004 -0.0883,-0.0228 -0.0374,-0.0118 -0.4962,-0.1821 -0.0306,-0.0113 -0.2217,-0.098 -0.0525,-0.0251 -0.048,-0.024 -0.1683,-0.0938 -0.0546,-0.0198 -0.1219,-0.0605 -0.1124,-0.0578 -0.011,-0.006 -0.1481,-0.0874 -0.1017,-0.0615 -0.1604,-0.0968 -0.1524,-0.0948 -0.0559,-0.0373 -0.1083,-0.0756 -0.0438,-0.0327 -0.0618,-0.0562 -0.0186,-0.0216 -0.007,-0.0204 -0.002,-0.01 0.002,-0.009 0.004,-0.003 -0.5065,-0.256 -0.6203,-0.2335 -0.0219,-0.0101 -0.0283,-0.014 -0.0386,-0.0227 -0.0441,-0.0262 -0.1002,-0.0687 -0.2824,-0.1524 -0.2537,-0.1399 -0.48,-0.2766 -0.2048,-0.1181 -0.1357,-0.08 -0.2611,-0.1671 -0.1127,-0.0741 -0.3603,-0.2412 -0.0531,-0.0375 -0.2522,-0.1807 -0.1311,-0.0959 -0.0687,-0.0507 -0.0798,-0.0593 -0.1276,-0.1008 -0.3027,-0.2401 -0.282,-0.2288 -0.2656,-0.2215 -0.6804,-0.5162 -0.341,-0.3823 z"
       id="path11"
       style="stroke-width:0.05;stroke-miterlimit:4;stroke-dasharray:none" />
  </g>
  <g
     transform="matrix(60,0,0,60,-17213.737,-10798.086)"
     id="Macerata"
     style="fill:#e45c36;fill-opacity:1;stroke:#ffffff;stroke-width:0.05;stroke-linejoin:round;stroke-miterlimit:4;stroke-opacity:1;stroke-dasharray:none;display:inline">
    <path
       d="m 335.918,202.1754 -0.0167,3e-4 -0.0183,0.003 -0.0756,0.019 -0.0136,0.009 -0.0349,0.0316 -0.0123,0.0127 -0.007,0.0103 -0.009,0.0146 -0.009,0.0114 -0.0107,0.0104 -0.034,0.0316 -0.1186,0.0669 -0.0335,0.01 -0.0586,0.0136 -0.0263,-4e-4 -0.007,-0.001 -0.008,0.0185 -0.008,0.0119 -0.0272,0.0407 -0.009,0.0102 -0.008,0.007 -0.026,0.0138 -0.0199,0.009 -0.0701,0.0144 -0.0266,0.005 -0.067,0.0115 -0.0655,0.0183 -0.1721,0.0545 -0.0293,0.0114 -0.0241,0.0114 -0.019,0.01 -0.0292,0.0198 -0.0251,0.0215 -0.0488,0.046 -0.0721,0.073 -0.007,0.009 -0.005,0.0179 0.003,0.0484 0.004,0.008 0.061,0.0759 0.2267,0.0695 0.3986,0.0836 0.017,-0.002 0.0347,0.004 0.1121,0.0203 0.0603,0.044 0.1071,0.096 0.0293,0.0341 0.0468,0.082 0.007,0.0218 0.005,0.0224 0.6497,-0.072 0.0445,-0.005 0.0183,-0.002 0.01,0.0323 0.002,0.006 0.006,0.0201 0.0756,0.5328 -0.001,0.0199 -0.006,0.0166 -0.003,0.008 -0.0164,0.0421 -0.005,0.011 -0.0241,0.0316 -0.0164,0.0175 -0.0164,0.0148 -0.0223,0.0134 -0.0569,0.0306 -0.0323,0.0156 -0.0169,0.007 -0.0249,0.01 -0.0802,0.0102 -0.1151,0.0212 -0.0736,0.0289 -0.0162,0.006 -0.0132,0.006 -0.3016,0.1974 -0.0119,0.0127 -0.0306,0.0393 -0.008,0.0111 -0.004,0.006 -0.009,0.0183 -0.0151,0.0168 -0.019,0.0121 -0.1361,0.08 -0.0111,0.005 -0.2754,0.0495 -0.0571,-2e-4 -0.9516,-0.1102 -0.1943,-0.3201 -0.001,-0.2941 0.0334,-0.0164 0.071,-0.0375 0.0777,-0.0635 0.0176,-0.0148 0.0123,-0.0159 0.0329,-0.0457 0.1759,-0.3082 0.0122,-0.028 0.0133,-0.0384 0.007,-0.024 -0.1853,0.057 -0.2586,0.1041 -0.5318,0.0657 -0.17,0.004 -0.2745,0.007 -0.1066,0.005 -0.1692,0.0189 -0.2013,0.0232 -0.2214,0.0402 -0.051,-0.0112 -0.0113,-0.004 -0.2798,-0.1026 -0.1348,-0.0549 -0.0669,-0.0336 -0.01,-0.004 -0.013,-0.002 -0.0104,-7e-4 -0.0175,2e-4 -0.0104,0.001 -0.1349,0.0256 -0.0828,0.145 -0.01,0.0138 -0.007,0.003 -0.004,0.001 -0.6957,0.1256 -0.2152,0.0271 -0.3559,-0.109 -0.1451,0.0154 -0.2285,0.017 -0.0179,-9e-4 -0.0189,-0.004 -0.0142,-0.003 -0.0134,-0.004 -0.0173,-0.011 -0.1107,-0.0804 -0.0229,-0.0198 -0.009,-0.008 -0.0329,-0.0425 -0.0188,-0.026 -0.002,-0.003 -0.003,-0.004 -8e-4,-0.002 -0.004,-0.008 -0.005,-0.0114 -0.006,-0.0265 -4e-4,-0.002 -0.092,-0.0593 -0.2076,0.1257 -0.0202,0.0124 -0.1955,0.2103 -0.0248,0.0534 0.004,0.1318 -0.1782,-0.0144 -0.0313,-0.004 -0.0422,-0.006 -0.1905,-0.0264 -0.0982,-0.0151 -0.0389,-0.008 -0.1177,-0.0302 -0.0551,0.0236 -0.004,0.003 -0.005,0.004 -0.004,0.003 -0.0138,0.0142 -0.0124,0.0147 -0.0389,0.0633 -0.0307,0.0612 -0.0273,0.0745 -0.006,0.0142 -0.0122,0.0175 -0.2065,0.2373 -0.1306,0.0932 -0.1758,0.1066 -0.0189,0.0111 -0.2779,0.1035 -0.1585,0.055 -0.2062,0.0951 -0.1654,0.104 -0.365,0.2375 -0.0205,0.0161 -0.013,0.0177 -0.007,0.0178 -5e-4,0.0182 0.01,0.2602 -0.01,0.0175 -0.0943,0.0902 -0.0405,0.0375 -0.0139,0.007 -0.5156,0.16 -0.0105,-0.001 0.0123,-0.0563 0.003,-0.0178 -0.0304,-0.1004 -0.011,-0.0131 -0.0169,-0.006 -0.0145,0.002 -0.006,0.001 -0.105,0.0194 -0.0775,0.0176 -0.2717,-0.0863 -0.0117,-0.004 -0.0294,-0.014 -0.1574,-0.082 -0.01,-0.01 -0.1096,-0.1233 -0.008,-0.0119 -0.006,-0.0145 -0.002,-0.0124 -0.005,-0.0321 -0.0103,-0.0343 -0.0335,-0.1086 -0.01,-0.0164 -0.009,-0.0136 -0.0896,-0.1374 -0.1888,-0.268 -0.0127,-0.009 -0.226,-0.1679 -0.2201,-0.165 -0.0277,-0.031 -0.0121,-0.0188 -0.002,-0.004 -0.0103,-0.0188 -0.004,-0.009 -5e-4,-0.0222 -1e-4,-0.1231 0.005,-0.0664 -0.0217,-0.238 -0.0515,-0.2683 -0.1427,-0.2008 -0.0213,-0.005 -0.0117,-0.005 -0.008,-0.004 -0.0176,-0.0251 -0.0169,-0.0279 -0.0734,-0.1394 -0.0983,-0.1938 -0.002,-0.0189 -10e-5,-0.001 0.008,-0.0144 0.0846,-0.0391 0.0797,-0.034 0.0248,-0.0107 0.0198,-0.0107 0.0267,-0.0172 0.025,-0.021 0.0147,-0.0132 0.009,-0.0141 0.0236,-0.067 -0.414,0.0177 -0.0154,0.003 -0.0119,0.008 -0.0151,0.0148 -0.009,0.008 -0.5679,0.0312 -0.0916,0.003 -0.1022,-0.006 -0.3617,0.6138 -0.2351,0.3026 -0.0415,0.2904 -0.2434,0.2621 -0.1106,0.182 -0.0696,0.1266 -0.0719,0.121 -0.1415,0.0413 -0.012,0.002 -0.0688,-2e-4 -0.1005,-0.004 -0.0853,-0.0144 -0.1555,-0.0405 -0.1168,-0.0281 -0.2422,-0.0478 -0.4704,-0.005 -0.176,0.0268 -0.0913,0.0317 -0.0146,0.0215 -0.0149,0.0188 -0.008,0.008 -0.006,0.006 -0.007,0.006 -0.2034,0.1209 -0.0116,0.005 -0.0191,0.003 -0.0974,0.003 -0.1579,-0.1491 -0.0141,0.006 -0.009,0.003 -0.007,0.002 -0.0174,0.003 -0.0121,0.002 -0.007,9e-4 -0.0593,-0.006 -0.1615,-0.0159 -0.0126,-0.002 -0.007,-0.003 -0.0659,-0.0369 -0.008,-0.004 -0.005,-0.005 -0.0363,-0.0765 -0.0213,-0.0543 -0.0221,-0.0392 -0.0807,-0.137 -0.008,-0.0115 -0.0107,-0.0106 -0.1137,-0.1029 -0.0122,-0.008 -0.1768,-0.0591 -0.0121,-0.003 -0.0145,0.001 -0.04,0.003 -0.0729,-10e-4 -0.1845,-0.0144 -0.0617,-0.0171 -0.0833,-0.0553 -0.1431,-0.096 -0.1382,-0.1164 -0.1924,0.004 -0.006,0.0291 -0.004,0.0152 -0.01,0.0308 -0.005,0.0155 -0.1454,0.404 -0.0577,0.0779 -0.0136,0.0109 -0.1,0.0507 -0.0812,0.0345 -0.0107,0.004 -0.0115,0.006 -0.0514,0.0302 -0.007,0.005 -0.0911,0.0714 -0.0728,0.0611 -0.006,0.01 -0.003,0.0138 -0.0217,0.2762 0.002,0.0165 0.003,0.0128 0.0134,0.0202 0.0283,0.0345 0.1404,0.0878 0.1275,0.075 0.097,0.1374 0.0233,0.0358 0.083,0.1287 0.005,0.0144 -7e-4,0.0245 -8e-4,0.0188 -0.002,0.0253 -0.0164,0.0788 -0.0132,0.006 -0.0116,0.003 -0.009,0.008 -0.1324,0.1265 -0.006,0.01 -0.007,0.0154 -0.0116,0.0241 -0.01,0.0302 -0.003,0.0101 -0.002,0.01 -0.0945,-0.087 -0.1123,-0.0324 -0.009,0.002 -0.0112,0.004 -0.0123,0.006 -0.0349,0.0209 -0.008,0.007 -0.024,0.0578 -0.0106,0.06 0.009,0.0568 0.005,0.0155 -0.2244,0.1924 -0.0704,0.0496 0.0279,0.1072 0.0329,0.3792 -0.003,0.0166 -0.0558,0.1388 -0.0109,0.0144 -0.0106,0.006 -0.0161,0.005 -0.053,0.0132 -0.0137,-0.002 -0.0179,0.001 -0.0153,0.004 -0.0149,0.006 -0.0114,0.0112 -0.1031,0.1073 -0.1833,0.1994 -0.0105,0.0128 -0.0184,0.0327 -0.0368,0.0759 -0.007,0.0215 -0.006,0.0203 -0.004,0.0132 -0.003,0.0105 -0.005,0.0214 -10e-4,0.0223 5e-4,0.0206 0.007,0.1673 -0.1257,0.3101 -0.2377,0.116 0.1644,0.1697 -0.1596,0.0898 -0.1247,0.0771 -0.2802,0.2603 -0.1883,0.395 -0.0793,0.194 -0.005,0.0183 -0.002,0.0214 7e-4,0.0174 4e-4,0.008 0.002,0.0157 0.002,0.0132 0.004,0.0133 -0.001,0.0101 -0.0101,0.0136 -0.0859,0.0721 -0.0963,0.0778 -0.1483,0.0522 -0.2425,0.065 -0.2686,0.0846 -0.0793,0.0355 -0.08,0.2604 0.0177,0.1922 -0.0397,-0.004 -0.0469,-0.0179 -0.0333,-0.0157 -0.014,-0.007 -0.0703,0.1589 -0.0564,0.0573 -0.3166,0.2356 -0.4748,0.1904 -0.0915,0.0313 -0.009,0.003 -0.6474,0.1794 -0.4328,0.1053 -0.3248,0.0716 -0.005,-0.003 -0.0137,-0.0149 -0.0133,-0.0176 -0.01,-0.0158 -0.007,-0.0124 -0.0311,-0.0589 -0.01,-0.0237 -0.006,-0.0182 -0.004,-0.0158 -0.004,-0.0197 -0.004,-0.0224 -0.0222,-0.071 -0.01,-0.018 -0.0982,-0.1679 -0.0168,-0.0234 -0.1351,0.2245 -0.0492,0.0892 -0.3457,0.1769 -0.0224,-0.0144 -0.0134,-10e-4 -0.0142,0.0101 -0.0848,0.0811 -0.0141,0.0169 -0.0297,0.038 -0.0103,0.0196 -0.007,0.0128 -0.006,0.0191 -3e-4,0.0202 0.005,0.0713 0.007,0.0608 0.0653,0.3853 0.1218,0.3894 0.2047,0.4904 0.008,0.01 0.0887,0.0906 0.0105,0.004 -0.005,0.1603 -0.0552,0.0562 -0.011,0.0178 -0.0184,0.0266 -0.0507,0.0611 -0.008,0.004 -0.0106,0.005 -0.0121,7e-4 -0.1819,-0.002 -0.0195,-3e-4 -0.7536,0.4744 -0.0257,0.1243 0.01,0.009 0.003,0.004 0.0217,0.0436 0.0684,0.1758 0.0962,0.4863 -0.002,0.303 -0.007,0.0179 -0.0149,0.0199 -0.0113,0.013 -0.1051,0.6011 -0.0499,0.3461 -0.004,0.0101 -0.2987,0.4697 -0.0164,0.0225 -0.009,0.0125 -0.01,0.0115 -0.0133,0.0137 -0.0101,0.0103 -0.0125,0.0107 -0.0131,0.0105 -0.0121,0.01 -0.0749,0.0422 -0.0364,0.0184 -0.1227,0.0611 -0.1112,0.0461 -0.103,0.0416 -0.1258,0.0404 -0.0469,0.016 -0.0172,0.008 -0.0188,0.01 -0.0379,0.0256 -0.0105,0.0104 -0.007,0.0269 0.002,0.0116 0.0397,0.166 0.005,0.0166 0.0155,0.033 0.009,0.0111 0.047,0.055 0.0569,0.0635 0.0124,0.0162 0.0585,0.0793 0.008,0.0147 0.0357,0.065 0.007,0.0134 0.008,0.0222 0.0337,0.1294 0.007,0.0762 -4e-4,0.0158 0.001,0.022 0.004,0.025 0.006,0.0326 0.004,0.0124 0.007,0.0195 0.009,0.0188 0.0184,0.0392 0.0114,0.0223 0.0207,0.0281 0.0244,0.0296 0.006,0.003 0.0113,0.005 0.0117,0.003 0.0108,0.001 0.0104,4e-4 0.2063,-0.0196 0.0239,-0.006 0.0226,-0.008 0.1258,-0.0538 0.0772,-0.0436 0.0172,-0.0105 0.439,0.0492 0.0246,0.004 0.0429,0.01 0.0647,0.0166 0.0142,0.005 0.0478,0.0197 0.0339,0.0151 0.0168,0.008 0.0367,0.0208 0.0159,0.009 0.0148,0.009 0.0169,0.0125 0.0137,0.0181 0.008,0.0131 0.008,0.0137 0.015,0.035 0.0115,0.0308 0.006,0.0269 0.003,0.014 0.003,0.0177 0.0349,0.2789 -0.008,0.102 -0.005,0.0163 -0.003,0.0122 -10e-5,0.0133 9e-4,0.0172 0.035,0.3447 0.002,0.013 0.008,0.0191 0.005,0.009 0.0281,0.0465 0.1852,0.2249 0.0144,0.011 0.0197,0.009 0.008,0.003 0.0134,0.003 0.0116,0.001 0.1209,-0.0505 -0.0355,0.1809 -0.0452,0.546 -0.0633,0.3875 -0.0315,0.1747 -0.01,0.0515 -0.0121,0.0444 -0.0469,0.1384 -0.005,0.028 0.004,0.0345 0.0172,0.1372 0.0405,0.2682 0.004,0.0218 0.005,0.0244 0.003,0.0145 0.031,0.0632 0.0187,0.0333 0.006,0.01 0.007,0.007 0.1142,0.0818 0.005,-0.0512 0.0193,0.018 0.012,0.0135 0.1825,0.2248 0.0249,0.034 0.0709,0.1179 -0.1127,0.3664 -0.191,0.1072 -0.1107,0.1826 -0.0147,0.0246 -0.0622,0.109 -0.1215,0.2488 -0.007,0.0208 -0.005,0.0158 -0.004,0.0151 -0.003,0.0174 -8e-4,0.0166 6e-4,0.023 0.002,0.0128 0.006,0.0184 0.007,0.0189 0.012,0.0292 0.007,0.0138 0.0114,0.0223 0.1552,0.2918 0.0129,0.0194 0.3351,0.4997 0.0552,0.0573 0.0491,0.0514 0.0123,0.0177 0.008,0.0155 0.007,0.0179 0.003,0.0117 -0.002,0.0199 -0.0771,0.2485 -0.038,0.0336 -0.0486,0.042 -0.0276,0.0187 -0.0385,0.0326 -0.0125,0.0119 -0.0174,0.017 -0.007,0.0102 -0.0303,0.0456 -0.007,0.0128 -0.0194,0.0342 -0.008,0.0192 -0.007,0.0201 -0.0185,0.0674 -0.0353,0.1703 -0.0229,0.1249 0.0262,0.0301 0.2057,0.1257 0.284,0.1639 0.2462,0.0897 0.0128,-0.001 0.0166,0.002 0.0315,0.004 0.194,0.0377 0.0138,0.006 0.0259,0.0131 0.0253,0.0183 0.0148,0.0114 0.0123,0.0118 0.022,0.0222 0.0379,0.0593 0.0169,0.0294 0.01,0.0231 0.005,0.0157 0.0198,0.0488 0.009,0.02 0.0195,0.0354 0.0482,0.079 0.0157,0.0131 0.2089,0.1433 0.0223,0.009 0.0249,0.008 0.0649,0.0147 0.0464,0.003 0.0152,9e-4 0.022,2e-4 0.0426,-0.001 0.0443,0.5161 0.2518,0.0417 0.0597,0.009 0.1154,0.004 0.2466,0.0136 0.0789,0.015 0.0299,0.006 0.0166,0.005 0.0138,0.005 0.0339,0.0181 0.0461,0.026 0.007,0.004 0.005,0.004 0.006,0.005 0.0112,0.0165 0.002,0.01 6e-4,0.009 -0.001,0.009 -0.0119,0.0709 -0.0229,0.1265 -0.003,0.0118 -0.004,0.0155 -0.004,0.0154 -0.0816,0.2595 -0.0848,0.2797 -0.0479,0.2175 -0.0211,0.1151 0.1097,0.4113 0.0555,0.0567 0.008,0.009 0.008,0.01 0.004,0.01 0.0468,0.1398 0.005,0.0383 0.002,0.0128 -3e-4,0.0202 -0.0328,0.1264 -0.0364,0.1465 -0.004,0.0183 -0.002,0.0135 3e-4,0.0305 0.0573,0.1788 0.019,0.0467 0.0229,0.1164 0.3651,0.0554 0.0566,-0.032 0.0151,-0.01 0.0327,-0.0615 0.005,-0.0112 0.0945,-0.3749 0.0537,-0.1838 0.007,-0.023 0.0215,-0.0511 0.005,-0.0103 0.008,-0.01 0.0285,-0.0178 0.0118,-0.006 0.0513,-0.0475 0.0707,-0.0825 0.0505,-0.1798 0.007,-0.0524 0.002,-0.0181 0.002,-0.0284 5e-4,-0.0104 -0.003,-0.006 -0.008,-0.0115 -0.007,-0.008 -0.028,-0.0312 -0.0427,-0.0439 -0.011,-0.009 -0.01,-0.007 -0.007,-0.004 -10e-4,-2e-4 -0.0376,-0.009 -0.0274,-0.007 -0.0408,-0.0155 -0.0922,-0.0365 -0.0151,-0.01 -0.0102,-0.01 -0.0118,-0.0119 -8e-4,-0.0123 0.2962,-0.34 0.1651,0.0968 0.009,0.0141 0.0256,0.0327 0.0473,0.0593 0.023,0.0265 0.013,0.0103 0.0129,0.004 0.0179,0.005 0.0124,0.002 0.0133,0.001 0.0244,10e-4 0.4487,0.008 0.407,-0.2185 0.1776,-0.2793 0.0125,-0.0319 0.01,-0.0215 0.007,-0.0102 0.0538,-0.0473 0.01,-0.008 0.1206,-0.075 0.1336,-0.0773 0.007,-0.003 0.0501,-0.014 0.1909,0.2301 0.1035,0.1335 0.0273,0.0364 0.0773,0.1045 0.0239,0.0326 0.0205,0.0297 0.009,0.0151 0.008,0.0137 0.01,0.0203 0.006,0.0103 0.01,0.012 0.01,0.008 0.007,0.006 0.01,0.008 0.1063,0.0771 0.0424,0.0293 0.1081,0.0741 0.0602,0.0408 0.0625,0.0411 0.4045,0.1479 0.4226,0.2184 0.079,0.0395 0.0162,0.008 0.0217,0.008 10e-4,3e-4 0.1011,0.0304 0.0162,0.005 0.0162,0.0392 0.0858,0.2306 0.0906,0.1869 0.1336,0.2454 0.0693,0.0869 0.0519,0.0651 0.084,0.1038 0.0433,0.0528 0.376,0.5256 0.0384,0.1115 0.0541,0.1497 0.022,0.0594 0.008,0.0191 0.0103,0.0187 0.3439,0.5583 0.009,0.007 0.0268,0.0192 0.1767,0.0955 0.012,0.002 0.0157,10e-5 0.0152,-0.002 0.016,-0.004 0.0127,-0.007 0.2355,-0.0844 0.3063,-0.0953 0.2749,0.0741 0.0115,0.001 0.8187,-0.3158 0.0139,-0.009 0.1535,-0.1884 0.1414,-0.2165 0.0422,-0.0324 0.0261,-0.0171 0.0453,-0.026 0.0217,-0.006 0.0173,-8e-4 0.0137,0.002 0.0177,-3e-4 0.0345,-0.0109 0.0544,-0.0213 0.0229,-0.0106 0.0208,-0.0109 0.0175,-0.0108 0.0129,-0.0147 0.0103,-0.0185 0.0115,-0.022 0.007,-0.0219 0.003,-0.0231 0.0266,-0.2416 0.0767,-0.2719 -0.1007,-0.1535 -0.007,-0.0147 -0.004,-0.0161 -0.0213,-0.1477 0.003,-0.005 0.006,-0.009 0.0118,-0.01 0.1071,-0.0696 0.1641,-0.4547 0.0595,-0.21 0.001,-0.009 -0.003,-0.008 -0.1151,-0.3015 -0.0777,-0.1142 -0.0488,-0.5243 -0.1328,-0.4106 -0.008,-0.0202 -0.01,-0.0194 -0.0111,-0.0175 -0.0145,-0.0187 -0.0208,-0.0266 -0.0131,-0.0168 -0.057,-0.0718 -0.0301,-0.0375 -0.1024,0.0404 -0.0617,-0.1596 -0.1026,-0.5183 0.0257,-0.0913 0.01,-0.0381 0.002,-0.0207 -6e-4,-0.0251 -0.002,-0.0233 -0.002,-0.0225 -0.004,-0.0173 -0.005,-0.0197 -0.005,-0.0176 -0.006,-0.0192 -0.007,-0.0169 -0.01,-0.0187 -0.008,-0.0129 -0.0184,-0.0305 -0.026,-0.0424 0.1185,-0.1716 0.0141,-0.0175 0.0754,-0.0873 0.0198,-0.0196 0.0203,-0.018 0.0212,-0.0141 0.4323,-0.2766 0.1543,-0.0923 0.0478,-0.0281 3e-4,6e-4 0.268,0.0958 -0.007,-0.0488 -0.0141,-0.1365 0.1911,-0.039 0.0296,-0.005 0.1332,-0.0167 0.268,-0.1562 0.5176,-0.4202 0.0268,-0.0235 0.0483,-0.043 0.1864,-0.1683 0.1012,-0.1037 0.3634,-0.4912 0.339,-0.0116 0.1081,-0.0134 0.0103,-0.003 0.009,-0.006 0.007,-0.0105 0.054,-0.0924 0.0189,-0.0648 -0.0227,-0.0998 0.3607,-0.6545 0.1248,-0.1295 0.069,-0.0704 0.0458,-0.0445 0.0123,-0.008 0.0538,-0.0217 0.3164,-0.1141 0.0589,-0.0114 0.1145,-0.0311 0.0996,-0.0307 0.009,-0.003 0.0468,-0.0223 0.008,-0.007 0.1008,-0.0952 0.2583,-0.2547 0.2505,-0.0136 0.0319,0.0248 0.0636,0.0755 0.0135,0.0521 -0.0121,0.0571 -0.003,0.007 -0.002,0.0106 -0.003,0.038 10e-4,0.0142 0.0232,0.1029 0.004,0.0112 0.004,0.006 0.006,0.006 0.0202,0.0162 0.0146,0.005 0.0536,0.0144 -0.1052,0.1 -0.0164,0.0262 -0.002,0.0126 7e-4,0.0154 0.004,0.01 0.1169,0.2603 0.2423,0.5138 0.0115,0.018 0.009,0.007 0.1315,0.0568 0.0441,0.0109 0.3892,0.0567 0.017,0.001 0.0553,-0.005 -0.0155,-0.0563 0.002,-0.0203 0.009,-0.0163 0.2856,-0.2959 0.01,-0.007 0.3601,-0.2315 0.0308,0.0276 0.0168,0.014 0.0173,0.0142 0.0201,0.0137 0.0146,0.007 0.0196,0.007 0.0291,0.009 0.1611,0.045 0.0245,0.006 0.392,0.0716 0.0253,0.002 0.0107,-0.002 0.0202,-0.005 0.0279,-0.013 0.0233,-0.0182 0.1497,-0.0924 -0.0107,-0.0364 0.0147,-0.211 0.028,-0.2512 0.003,-0.0158 0.004,-0.0163 0.009,-0.0223 0.0221,-0.04 0.0348,-0.0596 0.031,-0.0496 0.0423,-0.0824 0.0348,-0.1338 0.0281,-0.1564 -0.1644,-0.6097 -0.002,-0.0308 0.003,-0.1324 10e-4,-0.0113 0.007,-0.0321 0.0134,-0.0558 0.004,-0.0172 0.007,-0.0206 0.005,-0.0167 0.008,-0.0163 0.008,-0.0143 0.0117,-0.016 0.2868,-0.2993 0.3835,-0.3362 -0.172,-0.0919 -0.0381,-0.003 -0.0476,0.003 -0.0199,0.001 -0.0128,0.002 -0.0169,0.003 -0.3006,0.0735 -0.0157,0.005 -0.0139,0.007 -0.009,0.01 -0.0109,0.0136 -0.003,0.0129 -0.0128,0.024 -0.0105,0.0148 -0.0162,0.0179 -0.0661,0.0525 -0.016,0.0105 -0.0225,0.0125 -0.3643,0.1212 -0.1797,-0.1058 -0.2356,-0.2981 -0.1037,-0.1028 -0.0409,-0.2841 -0.0587,-0.2944 -0.0146,-0.0934 0.002,-0.5072 0.0615,-0.2069 0.0134,-0.0116 0.0182,-0.004 0.0158,2e-4 0.0232,0.001 0.0112,-3e-4 0.0687,-0.0283 0.007,-0.01 0.0859,-0.1239 0.009,-0.0131 0.0112,-0.0192 0.006,-0.0195 0.0241,-0.0821 9e-4,-0.0185 6e-4,-0.0311 -0.005,-0.0145 -0.1372,-0.2701 0.0564,-0.1639 0.0833,-0.3459 0.0116,-0.0857 0.003,-0.1139 0.0134,-0.0588 0.003,-0.013 0.006,-0.0122 0.006,-0.009 0.008,-0.0114 0.015,-0.0201 0.0122,-0.0149 0.0109,-0.0117 0.0123,-0.0101 0.0138,-0.011 0.0144,-0.01 0.0403,-0.0157 0.0579,-0.0281 0.0777,-0.0385 0.0488,-0.0296 0.0322,-0.0312 0.0105,-0.0144 0.3174,-0.4399 0.1789,-0.0304 0.3598,-0.0609 0.1241,0.004 0.001,0.008 0.006,0.0141 0.0138,0.0263 0.008,0.0111 0.008,0.0106 0.007,0.007 0.012,0.003 0.0133,9e-4 0.0386,0.001 0.1492,-0.0306 0.0181,0.005 0.0579,0.0147 0.0231,-0.004 0.0693,-0.1645 0.0603,-0.1128 0.006,-0.009 0.3472,-0.1746 0.1499,0.008 0.2423,0.016 0.0348,-0.0277 0.0121,-0.0147 10e-4,-0.0384 0.002,-0.1095 -0.0138,-0.003 -0.0377,-10e-5 -0.0277,-0.0176 -0.0311,-0.0212 -0.007,-0.1525 0.004,-0.0111 0.1823,-0.3393 0.009,-0.0119 0.011,-0.009 0.008,-0.006 0.0246,-0.0148 0.0251,-0.0139 0.0156,-0.008 0.0152,-0.01 0.0115,-0.008 0.0135,-0.009 0.0102,-0.008 0.009,-0.0114 0.005,-0.0127 0.004,-0.0157 2e-4,-0.0113 0.002,-0.2455 -0.002,-0.0146 -0.007,-0.0131 -0.0201,-0.0323 -0.0102,-0.0141 -0.0188,-0.0242 -0.0126,-0.0128 -0.0182,-0.0179 -0.0229,-0.0274 -0.0222,-0.0327 -0.008,-0.0169 -0.004,-0.0119 -0.0158,-0.0483 -0.0256,-0.1287 -0.006,-0.0326 0.004,-0.0282 0.2422,-0.1273 0.7528,-0.0198 0.1406,-0.1168 0.161,-0.0343 0.2378,-0.0267 0.2752,0.0213 0.0121,0.003 0.01,0.004 0.0302,0.0155 0.2896,0.2027 0.0514,0.0419 0.009,0.007 0.0197,0.0136 0.0845,0.0566 0.0174,0.002 0.006,-0.002 0.0338,-0.0119 0.012,-0.005 0.009,-0.005 0.0213,-0.0131 0.007,-0.005 0.006,-0.008 0.0749,-0.1094 0.004,-0.0113 -0.01,-0.0629 0.003,-0.0174 0.0135,-0.0836 0.004,-0.0167 0.0267,-0.088 0.006,-0.0175 0.006,-0.011 0.0126,-0.0158 0.0134,-0.0149 0.0103,-0.007 0.0102,-0.009 0.0501,-0.053 0.0106,-0.015 0.0205,-0.037 0.006,-0.0126 0.004,-0.0115 0.0691,-0.1848 0.1027,-0.2802 0.0576,-0.1769 -0.0215,-0.5055 -0.1602,-0.6182 -0.0477,-0.2593 0.0249,-0.0265 0.0152,-0.0141 0.1857,-0.1212 0.0198,-0.009 0.0189,-0.008 0.0154,-0.005 0.0293,-0.007 0.0212,-0.002 0.0263,2e-4 0.004,0 0.0208,9e-4 0.0479,0.004 0.0408,0.005 0.1507,0.04 0.0547,0.0146 0.1295,0.0414 0.1286,0.0384 0.0689,0.0186 0.0405,0.01 0.1698,-0.0286 0.0116,-0.004 0.2124,-0.0731 0.0107,-0.004 0.0285,-0.0155 0.0312,-0.017 0.0112,-0.007 0.1624,-0.0994 0.1018,-0.0488 0.1372,-0.005 0.1115,-0.0109 0.7706,-0.0975 0.0347,-0.009 0.0104,-0.004 0.0127,-0.007 0.0181,-0.0103 0.1853,-0.1099 0.0627,-0.0414 0.0705,-0.0467 0.0136,-0.011 0.016,-0.0127 0.0411,-0.0284 0.0128,-0.007 0.0272,-0.014 0.2632,-0.1234 0.0157,-0.006 0.0203,-0.002 0.0179,0.003 0.0209,0.006 0.013,0.005 0.0159,0.004 0.0137,0.002 0.4662,-0.0642 0.0174,-0.003 0.0228,-0.005 0.0111,-0.002 0.0473,-0.0115 0.0149,-0.004 0.0153,-0.006 0.0123,-0.007 0.0268,-0.0163 0.0875,-0.0678 0.3746,-0.1509 -0.0315,-0.1091 -0.2212,-0.5318 -0.0657,-0.0874 -0.0601,-0.0303 -0.0491,-0.0334 -0.1743,-0.1928 -0.0409,-0.0482 -0.0449,-0.0632 -0.0506,-0.0808 -0.0181,-0.0316 -0.004,-0.007 -0.0835,-0.1515 -0.1624,-0.3171 -0.1053,-0.2311 -0.009,-0.0195 -0.0552,-0.1341 -0.0266,-0.0689 -0.1186,-0.3344 -0.1261,-0.3998 -0.0923,-0.281 -0.1137,-0.3191 -0.1535,-0.43 -0.2486,-0.7648 -0.091,-0.278 -0.0579,-0.1893 -0.2219,-0.6846 -0.1345,-0.3749 -0.1301,-0.2548 -0.2817,-0.6099 -0.192,-0.4729 -0.001,-0.003 -0.1525,-0.3688 -0.0149,-0.0329 -0.0345,-0.0694 -0.0224,-0.043 -0.007,-0.0138 -0.0167,-5e-4 -0.1005,-0.0116 z"
       id="path14"
       style="stroke-width:0.05;stroke-miterlimit:4;stroke-dasharray:none" />
  </g>
  <g
     transform="matrix(7.0828611,-0.06207972,0.06386092,6.8853066,-492.3155,-247.90174)"
     id="Fermo"
     style="fill:#e45c36;fill-opacity:1;stroke:#ffffff;stroke-width:0.4295736;stroke-linejoin:round;stroke-miterlimit:4;stroke-opacity:1;stroke-dasharray:none;display:inline">
    <path
       d="m 541.43112,393.61548 -0.71165,-5.24976 -0.10772,-0.5491 -0.0629,-0.54084 -0.0157,-0.13783 -0.002,-0.17779 -3.1e-4,-0.15337 0.0232,-0.69344 0.004,-0.0523 0.0175,-0.0608 0.079,-0.30777 0.0677,0.005 0.0444,-0.22965 0.018,-0.12009 -0.14843,-1.20042 -0.42413,-2.28607 -0.46672,-1.50741 -0.23557,-0.74371 -0.10971,-0.23365 -3.5282,-9.30548 -1.16872,-1.91285 -0.17372,-0.36843 -0.0415,-0.091 -0.0854,-0.2073 -0.52291,-1.38243 -0.3092,-0.84545 -1.02401,-2.83612 -0.72075,-2.27045 -0.32543,-1.11226 -0.0961,-0.33375 -0.24576,-0.9294 -0.049,-0.20523 -0.0244,-0.11002 -0.11685,-0.56922 -0.0484,-0.27145 -0.0159,-0.1143 -0.0158,-0.13172 -0.0375,-0.53627 0.008,-0.0522 0.009,-0.008 0.40573,-0.37193 0.30084,-0.38768 0.0162,-1.41591 -0.29882,-0.49331 -0.0588,-0.0528 -0.051,0.017 -0.0259,0.0521 0.0335,0.0439 0.0255,-0.008 0.28285,0.47835 0.007,0.13252 -0.004,0.32675 -0.0327,0.80925 -0.0771,0.0995 -0.28327,0.31813 -0.47681,0.36344 -0.17902,-0.1576 -0.18359,-0.21341 -0.36977,-0.70483 -1.1563,-2.35019 -0.77528,-2.42344 -0.86614,-2.77544 -0.0408,-0.17465 -0.0883,-0.35895 -0.2666,-0.96533 -0.10175,-0.36604 -0.96092,-2.59853 -0.10095,-0.26582 -0.40358,-0.52388 -0.0516,-0.85881 -0.16288,-1.00709 -0.11093,-0.38094 -0.78214,-2.50803 -0.90576,-3.07905 -0.0163,-0.0699 -0.24759,-1.00698 -0.21652,-0.97795 -0.30668,-1.50073 -0.77446,-2.42082 -0.96662,-2.2474 -1.64813,-3.51623 -0.58502,-1.25838 -1.00937,-2.29919 -0.44422,-1.0898 -0.78068,-2.01392 -0.51861,-1.38936 -0.24894,-0.67063 -0.31943,-0.93181 -0.43245,-1.17422 -1.94891,-5.01343 -0.002,-0.0436 -0.46232,-1.15008 -0.24359,-0.51111 -0.14232,-0.18777 -3.18489,1.28626 -0.74649,0.5841 -0.22829,0.13998 -0.10474,0.06 -0.13007,0.0511 -0.12652,0.0337 -0.40156,0.0966 -0.0942,0.0166 -0.19352,0.0418 -0.14762,0.0248 -3.95398,0.5238 -0.11588,-0.0185 -0.13437,-0.0361 -0.10972,-0.0446 -0.17656,-0.0539 -0.15139,-0.0275 -0.17211,0.0159 -0.13345,0.0511 -2.23913,1.05514 -0.23149,0.11991 -0.10897,0.06 -0.35037,0.24432 -0.13653,0.10944 -0.11606,0.0948 -0.60084,0.40154 -0.53435,0.35595 -1.57821,0.94346 -0.15412,0.0884 -0.10813,0.06 -0.0884,0.0341 -0.29464,0.0758 -6.535,0.79072 -0.94531,0.0865 -1.16254,0.0331 -0.86613,0.41744 -1.38341,0.85372 -0.0954,0.0601 -0.26561,0.14575 -0.24263,0.13288 -0.091,0.034 -1.80487,0.62073 -0.0986,0.034 -1.44053,0.23624 -0.34227,-0.0902 -0.58215,-0.16733 -1.08629,-0.34442 -1.09367,-0.37063 -0.46219,-0.13139 -1.27335,-0.36005 -0.34521,-0.0467 -0.40542,-0.0385 -0.17611,-0.009 -0.0339,-3.1e-4 -0.22276,-0.004 -0.17973,0.0158 -0.24874,0.0588 -0.13083,0.0424 -0.16072,0.0683 -0.16843,0.0769 -1.58248,1.0419 -0.12986,0.1217 -0.213,0.229 0.38367,2.26306 1.3084,5.39892 0.1424,4.40631 -0.50179,1.53702 -0.89193,2.43368 -0.59983,1.60498 -0.0348,0.0999 -0.0518,0.10933 -0.17655,0.32084 -0.091,0.12989 -0.42853,0.45799 -0.0871,0.0776 -0.0878,0.0602 -0.11468,0.12881 -0.10797,0.13671 -0.0517,0.0954 -0.0522,0.15203 -0.23308,0.76474 -0.0352,0.14521 -0.12092,0.72742 -0.0268,0.15139 0.0798,0.54884 -0.0348,0.0982 -0.64304,0.94753 -0.0514,0.0693 -0.0597,0.043 -0.18145,0.11252 -0.0766,0.0429 -0.10204,0.0426 -0.28724,0.10111 -0.051,0.017 -0.14722,-0.0188 -0.71131,-0.49964 -0.1658,-0.12001 -0.0757,-0.0617 -0.43209,-0.36902 -2.43712,-1.78834 -0.25459,-0.13737 -0.0844,-0.0356 -0.10226,-0.0271 -2.32939,-0.20662 -2.01638,0.21449 -1.36644,0.28658 -1.20012,1.007 -6.37812,0.11503 -2.06155,1.09074 -0.0361,0.24541 0.0483,0.28452 0.20674,1.12338 0.13004,0.42207 0.0329,0.104 0.0664,0.14787 0.18547,0.28662 0.19183,0.2405 0.15275,0.15736 0.10572,0.1125 0.15735,0.2123 0.0853,0.12364 0.16772,0.28298 0.0583,0.11468 0.0158,0.12737 -0.0362,2.13901 -0.003,0.0985 -0.0351,0.1365 -0.0434,0.11028 -0.0771,0.0986 -0.087,0.0689 -0.11506,0.0774 -0.098,0.0688 -0.12954,0.086 -0.13277,0.0685 -0.2137,0.11921 -0.20954,0.12708 -0.0682,0.0517 -0.0939,0.0776 -0.0772,0.103 -1.57082,2.94257 -0.0348,0.0964 0.0473,1.32935 0.26177,0.1871 0.23325,0.15547 0.31932,0.004 0.11666,0.0272 -0.0255,0.95397 -0.0115,0.33453 -0.10365,0.12716 -0.29695,0.23871 -2.05113,-0.15793 -1.2691,-0.0812 -2.95466,1.49486 -0.0515,0.078 -0.51963,0.97828 -0.59993,1.42808 -0.19598,0.0331 -0.48928,-0.13251 -0.15293,-0.045 -1.26619,0.25524 -0.32689,-0.0117 -0.11258,-0.009 -0.10141,-0.0271 -0.0587,-0.0615 -0.0669,-0.093 -0.0669,-0.0973 -0.11482,-0.23022 -0.0497,-0.12332 -0.008,-0.0698 -1.05087,-0.0443 -3.05246,0.50318 -1.51775,0.25122 -2.72309,3.80883 -0.0901,0.12467 -0.2752,0.26941 -0.41568,0.25419 -0.66118,0.32953 -0.49265,0.24043 -0.3426,0.13373 -0.12276,0.086 -0.11775,0.0948 -0.10498,0.0871 -0.0932,0.10112 -0.10451,0.1289 -0.12864,0.17399 -0.0687,0.0987 -0.0515,0.078 -0.0518,0.10585 -0.0264,0.11304 -0.11812,0.51133 -0.0344,0.99224 -0.10499,0.74586 -0.73277,3.00764 -0.49061,1.42384 1.14093,2.36399 0.0412,0.12673 -0.008,0.27094 -0.009,0.16113 -0.21059,0.71354 -0.0523,0.16946 -0.0964,0.16644 -0.0773,0.11346 -0.73735,1.07304 -0.0601,0.0866 -0.58414,0.24135 -0.0949,0.002 -0.19643,-0.0105 -0.13382,-0.003 -0.15448,0.0335 -0.11441,0.10005 -0.53719,1.79813 -0.0568,4.41933 0.11633,0.81496 0.47409,2.56973 0.32412,2.47863 0.87031,0.90367 1.97222,2.61549 1.51383,0.93561 3.09532,-1.02825 0.19156,-0.1072 0.13636,-0.0903 0.56402,-0.45241 0.13863,-0.15474 0.0901,-0.12816 0.11031,-0.20814 0.0264,-0.11218 0.0934,-0.11767 0.077,-0.0864 0.11829,-0.0599 0.13338,-0.0424 2.55199,-0.61748 0.14339,-0.0249 0.10858,-0.0165 0.16864,-0.007 0.40343,-0.0225 0.32249,0.0291 1.4497,0.81391 -3.27484,2.90019 -2.45284,2.58604 -0.10036,0.13853 -0.0689,0.12399 -0.069,0.14142 -0.0437,0.14513 -0.0609,0.17896 -0.0352,0.14957 -0.11789,0.48519 -0.0618,0.27917 -0.009,0.0984 -0.0358,1.15343 0.0145,0.26853 1.34465,5.32518 -0.25031,1.36065 -0.30528,1.1632 -0.36478,0.71477 -0.26648,0.42982 -0.29945,0.51666 -0.19034,0.34686 -0.078,0.19362 -0.0352,0.14173 -0.0267,0.13744 -0.2569,2.18669 -0.1411,1.83743 0.0878,0.31799 -1.27529,0.79369 -0.19879,0.15681 -0.23735,0.11114 -0.17149,0.042 -0.0908,0.0166 -0.21414,-0.0194 -3.3148,-0.65383 -0.20705,-0.0541 -1.36106,-0.40441 -0.24578,-0.0806 -0.16547,-0.0625 -0.12312,-0.0621 -0.16918,-0.12091 -0.14543,-0.12506 -0.1412,-0.12327 -0.25872,-0.24284 -3.0684,1.98967 -0.0853,0.0602 -2.44241,2.55651 -0.0775,0.14135 -0.0185,0.17673 0.12687,0.49175 -0.46881,0.0394 -0.14392,-0.01 -3.29225,-0.52378 -0.37269,-0.0983 -1.10941,-0.50497 -0.0757,-0.0617 -0.096,-0.15772 -2.01202,-4.49551 -0.96975,-2.27705 -0.0331,-0.0874 -0.005,-0.13424 0.0179,-0.10964 0.14098,-0.22704 0.89895,-0.86331 -0.45289,-0.12957 -0.12327,-0.0447 -0.16983,-0.14271 -0.0504,-0.0527 -0.0334,-0.0526 -0.033,-0.0979 -0.18843,-0.89839 -0.007,-0.12381 0.0284,-0.33088 0.0178,-0.0922 0.026,-0.0608 0.10698,-0.49661 -0.11026,-0.45501 -0.53279,-0.66272 -0.26826,-0.21854 -2.12292,0.0994 -2.20793,2.1996 -0.8613,0.82183 -0.0683,0.0604 -0.39817,0.19074 -0.0765,0.0255 -0.84607,0.2599 -0.97231,0.26224 -0.4998,0.0948 -2.68902,0.97004 -0.45742,0.18498 -0.10481,0.0688 -0.39145,0.38425 -0.58999,0.60816 -1.06729,1.11887 -3.10672,5.67544 0.18444,0.87134 -0.16518,0.56319 -0.46466,0.801 -0.0601,0.091 -0.0767,0.0516 -0.0875,0.0254 -0.91671,0.1085 -2.8724,0.0752 -3.11675,4.25232 -0.86536,0.89586 -1.59212,1.45224 -0.4125,0.371 -0.22886,0.20272 -4.41732,3.62188 -2.28236,1.34058 -1.12957,0.13534 -0.25112,0.0413 -1.62177,0.32523 0.10871,1.19047 0.0555,0.42575 -2.26256,-0.85522 -0.002,-0.005 -0.40709,0.2412 -1.31424,0.79247 -3.68352,2.37714 -0.18068,0.12124 -0.17336,0.1553 -0.16926,0.16927 -0.64553,0.75493 -0.12081,0.15141 -1.01723,1.48618 0.2169,0.37144 0.15346,0.26717 0.0668,0.11301 0.0832,0.16371 0.058,0.14779 0.0493,0.16776 0.041,0.15374 0.0408,0.17204 0.0325,0.15105 0.0152,0.1962 0.0151,0.20318 0.003,0.21876 -0.0186,0.18021 -0.0877,0.33122 -0.22486,0.79358 0.82835,4.52405 0.51009,1.39538 0.87055,-0.3442 0.25201,0.32905 0.47718,0.62999 0.10964,0.14738 0.1741,0.23337 0.12135,0.16405 0.0926,0.15333 0.0832,0.16981 0.0662,0.17662 1.09262,3.58791 0.37217,4.57221 0.64919,1.00102 0.95126,2.63591 0.0248,0.0699 0.0455,0.0895 1.5534,-0.0796 3.55386,-1.0611 0.0419,-3.2397 2.24,-1.1778 0.5004,0.1811 1.0332,0.046 1.2459,-0.1638 0.6927,-0.178 0.1668,-0.0479 0.1426,-0.0598 0.0333,-0.076 0.05,-0.1316 0.159,-0.4262 0.0457,-0.1848 0.0894,-0.4156 0.0402,-0.2469 0.0174,-0.1916 0.0147,-0.1317 0.1389,-0.4501 0.3559,-0.5309 0.6132,-0.8212 1.1586,-1.5506 0.1094,-0.1251 0.1242,-0.0942 0.0901,-0.0483 0.1359,-0.0195 0.0949,0.001 0.2667,0.0332 7.101,1.0419 2.886,0.482 0.0464,0.0377 0.0367,0.0955 0.0317,0.18 0.009,0.2564 0.4166,0.7227 0.9618,0.691 0.1343,0.0688 0.0807,0.008 2.5192,0.1737 1.938,0.1348 0.62,-0.1512 0.2098,-0.0102 0.8507,0.191 0.8697,0.6583 0.0437,0.0764 0.9236,1.6164 0.0691,0.1396 0.0129,0.1278 0.0261,0.8047 -0.0192,0.4634 0.0154,0.0732 0.0435,0.0694 0.0899,0.1301 0.9302,1.2495 2.51,4.47125 0.1492,0.0279 0.1619,-0.0422 0.1217,-0.0412 0.1071,-0.065 1.5142,-0.948 0.4377,-0.5349 0.0227,-0.0959 -0.0201,-0.1229 -0.2949,-1.5269 -0.5832,-1.5934 -0.0548,-0.1247 -0.0653,-0.12 -0.0394,-0.0692 -0.0721,-0.0903 -0.0501,-0.0591 -0.047,-0.0802 -0.0468,-0.2496 0.0197,-0.0679 0.0568,-0.1435 0.027,-0.0604 1.0858,-0.6703 0.692,-0.4014 2.2089,-1.2483 1.5308,-0.4665 0.9891,-0.9877 1.9171,-3.7618 0.0327,-0.1289 0.1641,-0.7612 0.1429,-1.3414 0.005,-0.09 -0.0992,-0.003 -0.0671,0.0104 -0.0256,0.004 -0.0455,0.008 -0.1252,0.0481 -0.0617,0.0761 -1.2424,-0.546 -2.9851,-2.2028 -0.2702,-0.21 -0.0607,-0.0739 -0.3097,-0.4489 -0.0642,-0.2453 -0.006,-0.1062 -0.006,-0.1381 0.5115,-2.196 0.0499,-0.1351 0.0673,-0.143 0.0609,-0.1027 0.068,-0.1218 0.0464,-0.1388 0.0347,-0.1871 -0.011,-0.223 -0.023,-0.1125 -0.8309,-1.5164 -0.3888,-0.1936 0.4444,-0.0171 0.0902,-0.043 1.1898,-0.6134 0.0652,-0.0548 0.8538,-0.9772 0.4487,-1.2723 6e-4,-0.1341 -0.0881,-0.4232 -0.026,-0.0426 -0.0141,-0.023 -0.0569,-0.0631 -0.1276,-0.0703 -0.8105,-0.1432 -0.1792,0.0344 -0.1284,0.0585 -0.1421,0.0808 -0.1372,0.0205 -0.0344,-0.0102 -0.088,-0.0293 -0.1659,-0.0723 -0.1008,-0.0545 -0.0441,-0.0238 -0.0895,-0.093 -0.439,-0.62 -0.0382,-0.1698 0.011,-0.1583 0.0292,-0.1238 0.0745,-0.1321 0.0814,-0.1263 1.4309,-1.7572 0.096,-0.115 0.083,-0.0521 0.9988,-0.4766 0.3824,-0.0598 0.0572,0.111 0.002,0.0884 -0.002,0.1165 -0.0294,0.1061 -0.0294,0.1026 -0.0151,0.1316 0.003,0.1485 0.0193,0.0876 0.0916,0.2096 0.0321,0.0459 0.0431,0.0517 0.1062,0.0586 0.0917,0.0331 0.1126,0.0395 0.0681,0.007 0.6547,0.0509 0.9477,-0.4636 0.1107,-0.0612 0.0935,-0.0551 0.3247,-0.2423 1.0609,-0.9678 0.0474,-0.0823 0.0792,-0.2483 0.0226,-0.1171 -0.0264,-0.0985 -0.2464,-0.8182 1.9875,0.0753 0.7542,0.056 6.0524,3.4003 2.39585,1.0799 0.12015,-0.4426 0.0331,-0.1041 0.0307,-0.0461 0.3939,-0.498 0.0891,-0.1082 5.7011,-5.8896 0.1216,-0.0552 4.5553,-1.8023 1.0402,0.4709 0.1684,0.0685 1.1835,0.2104 1.5941,-0.5114 0.6122,-0.2476 2.8967,-1.3335 1.4168,-0.2408 0.5667,0.483 2.964,0.2678 0.6807,0.2197 0.097,0.0395 0.3343,0.1532 0.33715,0.18895 1.34455,-0.1034 1.6316,0.55345 0.218,0.0454 0.1088,0.0166 0.1399,-0.0171 0.4537,-0.1023 0.1671,-0.0632 2.0211,-0.8583 0.0651,-0.0298 0.8568,-0.4807 0.0834,-0.1179 0.8375,-1.919 1.1428,-1.7983 0.1229,-1.4514 0.0744,-0.0986 1.44,-1.7429 1.0483,-0.3943 3.5205,1.1478 0.2957,-0.0894 0.5111,-0.281 0.0694,-0.0473 0.0555,-0.0537 0.6654,-1.063 2.7621,-2.3383 0.4353,-0.2372 0.4462,-0.256 0.6412,-0.3952 0.052,-0.0324 1.176,-0.7328 0.1335,-0.0932 0.1798,-0.1631 0.1657,-0.1585 0.1484,-0.1577 0.1471,-0.2143 0.035,-0.052 0.1257,-0.1863 2.1021,-3.1194 3.4572,-1.9525 0.0126,0.142 0.0452,0.1897 0.1862,0.4553 0.0475,0.1121 0.1215,0.1604 3.3844,2.7416 0.0864,-0.1127 0.034,-0.0722 0.0507,-0.1243 0.0224,-0.1488 0.1846,-1.3757 -0.2105,-1.1312 -0.04,-0.0941 -0.0843,-0.2148 -0.0473,-0.1227 -0.115,-0.3825 -0.009,-0.1312 0.0135,-0.9191 0.0186,-0.1579 0.0192,-0.1031 0.1799,-0.3854 0.2623,-0.0383 0.1541,-0.0143 2.2185,-0.0734 0.5159,0.006 0.6443,0.0291 0.5179,0.0785 0.4716,0.1131 0.7412,0.084 0.1618,0.0144 0.4442,-0.0562 0.9353,-0.2829 0.4043,-0.1661 3.0096,-1.3152 1.2568,-0.5876 0.4409,-0.2717 0.28795,-0.2239 0.19415,-0.1515 5.4838,-4.0009 0.4205,-0.2798 0.3472,-0.2275 1.4624,-0.7149 0.0939,-0.0441 0.6145,-0.2105 3.5477,-1.1027 9.5733,-4.0796 2.4346,-1.2654 -0.0185,0.4527 0.0156,0.5606 0.0252,0.2928 0.0315,0.2437 0.1501,1.1492 0.3171,2.2906 0.0256,0.0809 1.734,1.3323 0.3861,0.2412 0.65325,0.2865 0.69295,-0.3414 0.8849,-0.4009 0.1277,-0.0174 5.0156,-0.1935 2.0302,-0.064 0.1019,0.004 0.1155,0.007 0.0673,0.0128 1.1301,0.2951 5.51802,-1.22282 z"
       id="path630"
       style="stroke-width:0.4295736;stroke-miterlimit:4;stroke-dasharray:none" />
  </g>
  <g
     id="Ascoli_Piceno"
     style="fill:#e45c36;fill-opacity:1;stroke:#ffffff;stroke-width:3;stroke-linejoin:round;stroke-miterlimit:4;stroke-opacity:1;stroke-dasharray:none;display:inline">
    <path
       d="m 3547.7818,2428.281 -39.0093,8.7491 -8.0232,-1.9617 -0.4775,-0.084 -0.8185,-0.041 -0.722,-0.021 -14.3755,0.5667 -35.5125,1.6437 -0.9033,0.1277 -6.2421,2.8152 -4.8862,2.3937 -4.6452,-1.9321 -2.7501,-1.6367 -12.3668,-9.0657 -0.1864,-0.5554 -2.3923,-15.7518 -1.1365,-7.9033 -0.2387,-1.676 -0.1972,-2.0144 -0.1463,-3.859 0.1021,-3.1181 -17.1631,8.8638 -67.5458,28.6836 -25.0575,7.8127 -4.3389,1.4875 -0.6623,0.3094 -10.3123,5.0131 -2.4447,1.588 -2.9604,1.9526 -38.5855,27.8879 -1.3655,1.0551 -2.0252,1.5595 -3.1055,1.8982 -8.8642,4.1238 -21.2326,9.2424 -2.853,1.1687 -6.6065,2.0059 -3.1426,0.4146 -1.147,-0.089 -5.2551,-0.5324 -3.3475,-0.7494 -3.6733,-0.5084 -4.5653,-0.1604 -3.6544,-0.01 -15.7087,0.6431 -1.0905,0.108 -1.8554,0.28 -1.2496,2.6648 -0.1294,0.711 -0.1217,1.0884 -0.037,6.3291 0.072,0.9028 0.839,2.6265 0.3428,0.8419 0.6108,1.4737 0.2893,0.6454 1.5632,7.7756 -1.2196,9.4836 -0.1492,1.0259 -0.3511,0.859 -0.2362,0.4992 -0.6048,0.7814 -24.1463,-18.6667 -0.8708,-1.0968 -0.3436,-0.7689 -1.3479,-3.1234 -0.3323,-1.3033 -0.098,-0.9769 -24.3622,13.6582 -14.6897,21.6085 -0.8784,1.2905 -0.2445,0.3602 -1.0283,1.4847 -1.041,1.095 -1.1635,1.1016 -1.2631,1.1342 -0.9396,0.65 -8.2826,5.1185 -0.3663,0.2263 -4.5163,2.7609 -3.144,1.7903 -3.068,1.6603 -19.4142,16.2713 -4.6451,7.3604 -0.3897,0.3732 -0.4885,0.33 -3.6021,1.9665 -2.0887,0.6339 -25.0085,-7.6844 -7.3998,2.78 -10.088,12.0898 -0.5207,0.6835 -0.7778,10.0009 -7.9794,12.4528 -5.8094,13.2649 -0.5832,0.817 -6.0379,3.3629 -0.4591,0.2093 -14.2604,6.0351 -1.1795,0.4455 -3.207,0.7325 -0.9898,0.1265 -0.7716,-0.1076 -1.547,-0.299 -11.5918,-3.7094 -9.5166,0.7954 -2.4001,-1.2801 -2.3775,-1.034 -0.6896,-0.266 -4.8353,-1.4704 -21.0107,-1.6599 -4.0447,-3.2904 -10.0197,1.7459 -20.4317,9.3614 -4.3203,1.7428 -11.2582,3.6201 -8.396,-1.3752 -1.1971,-0.4612 -7.3977,-3.1777 -32.1494,12.6922 -0.8578,0.3876 -40.004,40.9056 -0.6241,0.7505 -2.7582,3.4534 -0.2145,0.3193 -0.2278,0.7188 -0.8227,3.0549 -17.0384,-7.2867 -43.0855,-23.0364 -5.3455,-0.3387 -14.082,-0.3951 1.7975,5.6182 0.1933,0.6766 -0.1526,0.8077 -0.5451,1.7145 -0.3305,0.5696 -7.4524,6.7295 -2.2843,1.6885 -0.6588,0.3851 -0.7801,0.4283 -6.6828,3.2508 -4.6404,-0.3098 -0.4828,-0.044 -0.8001,-0.265 -0.6516,-0.2222 -0.7559,-0.3969 -0.3086,-0.3533 -0.2303,-0.3141 -0.6622,-1.4374 -0.1423,-0.602 -0.031,-1.0223 0.099,-0.907 0.2017,-0.7083 0.2015,-0.7323 0.01,-0.8023 -0.02,-0.6085 -0.4122,-0.7607 -2.7047,0.4354 -7.0439,3.3436 -0.5846,0.3639 -0.6726,0.7977 -10.0226,12.1877 -0.5685,0.8747 -0.5192,0.9142 -0.199,0.8542 -0.068,1.0906 0.2814,1.1668 3.149,4.2416 0.6399,0.6348 0.3138,0.1611 0.7175,0.369 1.1796,0.4875 0.6252,0.1963 0.2443,0.068 0.9705,-0.1497 1.0013,-0.5651 0.9057,-0.4108 1.267,-0.248 5.7498,0.9357 0.9083,0.4761 0.407,0.4309 0.1014,0.1575 0.1869,0.2917 0.651,2.9084 0,0.9234 -3.0968,8.788 -5.985,6.7813 -0.4583,0.3814 -8.388,4.2973 -0.6361,0.3017 -3.1465,0.1453 2.7661,1.3088 5.982,10.3893 0.1701,0.7732 0.092,1.5347 -0.2339,1.2904 -0.3197,0.9586 -0.4739,0.8429 -0.4248,0.7109 -0.4675,0.9887 -0.3448,0.9333 -3.4827,15.1519 0.051,0.9505 0.049,0.7309 0.4704,1.6849 2.2222,3.0716 0.4347,0.5051 1.9272,1.4291 21.2837,14.9817 8.8346,3.6822 0.4322,-0.5278 0.8837,-0.3389 0.3217,-0.058 0.1811,-0.029 0.4746,-0.076 0.7028,0.015 -0.03,0.62 -0.9265,9.2449 -1.1136,5.2512 -0.2234,0.8896 -13.3383,26.0201 -6.9426,6.8621 -10.8127,3.307 -15.5656,8.732 -4.8757,2.8068 -7.6478,4.6826 -0.1873,0.4175 -0.3932,0.9916 -0.1352,0.4687 0.3474,1.7157 0.3381,0.5493 0.3586,0.4038 0.5164,0.6173 0.2835,0.474 0.4702,0.8222 0.3961,0.8552 4.2325,10.9348 2.1862,10.4949 0.1502,0.8449 -0.1546,0.6617 -3.066,3.7102 -10.6644,6.6212 -0.7544,0.4542 -0.8593,0.2913 -1.1441,0.3006 -1.0585,-0.1829 -18.0635,-30.6301 -6.6683,-8.5454 -0.6451,-0.8902 -0.3125,-0.4752 -0.1137,-0.503 0.1064,-3.1918 -0.2363,-5.539 -0.1,-0.8792 -0.4984,-0.9569 -6.6449,-11.072 -0.3144,-0.5234 -6.202,-4.4786 -6.0376,-1.2623 -1.4853,0.083 -4.3818,1.0795 -13.7352,-0.8078 -17.8542,-1.0396 -0.5721,-0.05 -0.9556,-0.4654 -6.8564,-4.6981 -2.9969,-4.9501 -0.08,-1.7648 -0.2361,-1.2374 -0.266,-0.6553 -0.331,-0.2567 -20.472,-3.1395 -50.3619,-6.733 -1.8911,-0.2121 -0.6722,-9e-4 -0.9614,0.1427 -0.635,0.3381 -0.8737,0.6563 -0.7669,0.8682 -8.1072,10.7482 -4.2907,5.6923 -2.4869,3.6775 -0.9551,3.1077 -0.096,0.9077 -0.111,1.3203 -0.269,1.7025 -0.6066,2.8671 -0.3119,1.2752 -1.099,2.9444 -0.3457,0.9092 -0.231,0.5254 -1.0062,0.4206 -1.1784,0.3401 -4.8949,1.2686 -8.8141,1.2052 -7.3209,-0.2526 -3.5559,-1.2159 -15.7904,8.2486 -0.09,22.3089 -25.1038,7.5267 -11.1751,0.5934 -3.775,12.5691 -9.846,27.282 -6.426,4.176 -0.708,0.6 -0.36,0.54 -0.18,0.3 1.278,8.862 0.24,0.966 0.42,0.882 6.042,9.21 1.338,1.176 0.42,0.42 1.812,2.412 3.39,4.554 2.178,3.324 7.368,12.024 0.24,0.36 8.52,23.364 0.42,1.332 2.784,15.516 0.708,4.416 0.24,1.5 0.012,1.746 2.52,19.41 8.622,29.742 1.074,2.964 1.542,3.72 0.774,1.56 0.744,1.02 4.2,3.552 2.172,1.776 1.032,0.828 0.918,0.696 1.914,1.158 0.54,0.738 0.42,1.182 0.54,1.83 0.24,1.488 1.836,11.886 0.048,1.338 -0.06,1.398 -0.3,1.392 -9.306,26.808 -2.022,1.62 -7.512,5.04 -7.464,17.778 -0.48,1.32 -9.354,33.81 -2.124,9.426 0.36,1.638 0.3,2.166 0.18,1.428 0.12,1.944 0.06,1.56 0.042,4.338 -0.54,1.2 -0.648,1.128 -7.434,11.028 -1.644,1.554 -3.99,3.438 -0.24,-0.66 -3.474,-12.09 -0.12,-1.47 -0.01,-3.924 0.06,-2.478 0.036,-0.822 0.18,-0.948 0.036,-1.524 -0.48,-1.326 -1.644,-4.224 -0.42,-1.11 -0.36,-0.666 -0.618,-0.912 -0.948,-0.54 -0.6,-0.12 -25.824,1.14 -1.032,0.06 -6.912,1.77 -0.906,0.42 -1.386,1.026 -0.654,0.816 -4.71,6.246 -0.6,1.062 -20.7,13.59 -7.77,1.044 -8.376,2.79 -0.36,0.24 -0.48,0.63 -0.42,0.666 -0.36,0.6 -0.48,0.888 -1.782,3.498 -0.18,0.54 -0.036,0.63 0.06,0.846 0.42,0.48 0.48,0.24 4.968,4.446 4.686,6.078 0.54,0.888 0.24,0.726 0.48,1.56 0.18,0.846 0.606,3.99 0.06,1.494 0.01,0.48 -0.024,0.678 -0.48,4.446 -0.12,1.05 -0.24,0.774 -0.42,0.888 -6.744,11.622 -0.54,0.42 -1.002,0.606 -2.202,1.152 -3.18,3.78 -5.118,6.546 -0.678,0.858 -0.6,0.918 -0.48,0.894 -0.42,0.96 -0.42,0.876 -0.24,0.48 -0.966,3.336 -0.18,0.894 -0.18,1.776 -0.054,0.894 -0.054,1.992 0.06,0.6 0.18,0.24 4.2,0.3 14.316,-3.324 0.954,-0.18 5.226,-0.84 0.6,-0.042 1.05,0.3 1.56,1.35 1.11,0.99 10.2,8.754 50.628,11.238 1.356,0.3 0.3,0.06 7.608,0.894 5.418,0.24 23.484,6.252 0.618,3.108 5.196,2.958 0.624,0.3 0.612,-0.12 0.99,-0.702 0.042,-0.024 3.402,-4.236 0.948,-1.314 0.696,-1.056 5.634,-10.56 0.3,-0.636 0.18,-0.624 -0.18,-1.002 -0.18,-0.672 -0.36,-0.696 -0.18,-0.36 -0.18,-0.678 -0.036,-0.48 1.182,-6.174 0.3,-1.224 0.36,-1.362 5.226,-13.5 0.42,-1.068 1.584,-3.372 0.3,-0.54 20.634,-0.87 22.614,0.042 0.78,0.24 0.702,0.618 0.81,0.828 0.96,1.098 0.54,0.642 4.722,11.922 0.54,3.336 0.18,0.816 4.638,4.266 1.836,1.578 1.854,1.236 4.224,2.388 1.32,0.42 1.194,0.18 2.142,-0.042 0.96,-0.18 0.054,-0.012 1.398,-0.18 3.948,0.834 4.746,1.098 4.146,1.032 2.436,0.63 2.73,0.846 0.804,0.3 0.888,0.42 1.182,0.684 5.646,4.098 11.322,8.766 10.296,11.694 4.446,6.048 0.42,0.612 0.48,1.08 0.06,0.48 0.54,2.484 2.388,5.958 0.42,0.696 16.008,18.366 0.6,0.6 8.628,7.65 0.858,0.732 0.774,0.42 0.798,0.36 0.894,0.42 0.894,0.12 1.26,-0.12 3.216,1.452 4.41,3.408 1.122,0.48 0.804,0.42 5.832,4.02 0.93,0.81 0.48,0.54 0.9,1.752 0.36,0.48 3.258,2.268 0.6,0.42 0.6,0.24 0.792,0.3 0.816,0.12 0.648,0.06 0.792,0.12 0.6,0.18 1.05,0.54 1.824,1.758 2.244,-4.62 6.144,4.608 2.052,1.41 2.322,1.344 2.106,0.12 3.132,-0.12 2.742,-0.12 25.962,6.528 16.134,9.174 2.376,0.36 2.91,-0.3 2.388,-0.3 10.44,-4.338 3.402,-2.844 1.62,-1.8 1.098,-1.938 17.646,-13.668 23.604,-17.388 12.594,-9.246 1.11,-0.018 0.54,0.24 1.056,0.48 0.93,0.9 6.516,7.302 0.666,1.362 0.42,1.638 -0.06,1.362 0.618,1.368 1.218,1.644 1.278,1.044 1.398,0.9 1.23,0.726 0.864,0.48 0.24,0.12 1.392,0.618 1.146,-0.744 6.726,-8.772 0.36,-0.768 0.048,-0.12 0.12,-2.358 -0.24,-1.476 -4.788,-15.39 -3.054,-13.746 0.18,-0.918 0.12,-0.69 0.774,-3.504 6.768,-22.554 3.486,-6.234 5.904,-8.076 4.668,-4.23 7.728,-4.278 0.606,-0.3 20.052,-1.278 6.702,1.728 0.684,0.24 1.458,0.48 5.142,1.44 11.892,1.458 9.966,0.3 18.342,-3.738 1.422,-0.924 7.98,-6.99 8.238,-8.964 13.566,-19.2 0.816,-1.422 0.01,-0.18 0.01,-1.902 -1.29,-23.736 -1.08,-2.094 -1.044,-1.674 -1.896,-9.222 -0.42,-2.028 1.032,-21.984 3.822,-10.14 1.578,-1.92 0.48,-0.3 3.18,-2.004 17.532,-26.286 27.636,-24.894 1.278,-1.74 0.678,-2.118 3.234,-11.634 0.24,-2.58 0.786,-12.348 0.42,-12.564 0.24,-2.436 3.942,-11.874 0.06,-0.036 0.966,-0.36 9.966,-0.42 6.06,-0.06 1.458,0.06 2.256,1.512 1.68,1.302 0.744,1.65 0.36,2.208 0.732,2.238 0.48,1.344 0.24,0.63 1.32,2.124 11.616,17.628 3.6,3.132 33.24,10.458 1.59,0.36 1.362,-0.024 0.972,-0.24 0.3,-0.06 2.334,-0.888 12.888,-8.946 17.784,-6.354 1.344,0.36 5.544,0.12 13.014,0.048 3.636,-0.06 23.676,-10.638 0.9,-0.54 0.048,-0.03 6.234,-4.176 2.838,-2.82 0.804,-0.804 0.24,-1.2 0.756,-1.242 3.054,-3.042 0.18,-0.18 0.624,-0.54 3.666,-1.302 3.306,-0.966 1.392,0.63 5.544,2.82 1.074,0.72 -0.48,1.566 -1.368,6.078 -0.042,4.776 1.11,6.234 0.792,1.464 0.846,1.536 4.386,4.848 9.24,4.956 11.94,0.888 8.994,-2.352 6.294,-2.472 4.554,-1.182 21.132,-4.596 3.912,-0.6 3.354,-7.44 0.54,-0.702 13.908,-8.496 8.196,-4.92 14.772,-6.63 5.946,-1.764 1.158,-0.24 2.958,-0.786 5.718,-2.628 5.502,-2.562 4.704,-2.424 5.118,-2.814 0.36,-0.24 0.3,-0.48 0.42,-0.924 1.44,-3.288 14.532,-33.372 6.744,-17.736 -0.18,-1.032 -0.714,-1.272 -1.128,-0.834 -1.722,-0.894 -1.59,-0.42 -1.74,-0.24 -1.668,-0.654 -0.6,-0.6 -0.18,-0.696 -0.48,-2.268 -0.048,-2.016 0.3,-1.05 0.978,-3.048 18.378,-6.294 1.206,-0.6 1.518,-0.726 1.62,-1.02 0.048,-0.024 0.42,-0.3 1.074,-0.726 0.042,-0.03 1.35,-0.984 0.042,-0.03 5.88,-4.602 0.6,-1.908 38.79,-1.344 16.374,-4.194 7.536,-3.09 1.26,-0.36 9.57,-1.086 1.8,-0.01 6.468,1.146 13.248,-0.672 3,-0.3 6.348,-1.2 7.86,-2.592 3.792,-1.434 39.456,-15.45 2.97,-1.464 6.564,-3.732 2.868,-1.908 11.01,-7.374 1.878,-1.488 1.17,-1.602 0.42,-1.854 0.042,-0.42 0.18,-1.668 0.66,-1.482 1.488,-1.626 2.238,-2.154 0.18,-0.18 2.256,-2.106 1.086,-0.756 1.854,-1.272 3.522,-1.692 3.276,-1.254 2.268,-0.804 1.818,-0.42 1.026,-0.24 15.51,-3.366 7.344,-1.554 3.714,-1.59 12.252,-4.896 11.16,0.888 11.412,-0.42 2.61,-0.18 40.026,-12.978 14.832,-6.558 1.422,-0.666 0.54,-0.3 0.54,-0.3 0.684,-0.36 11.448,1.884 9.012,-0.996 3.108,-1.008 1.53,-0.6 1.356,-0.786 0.36,-0.18 1.77,-1.14 0.54,-0.36 1.344,-0.786 1.926,-1.116 2.892,-1.062 0.36,-0.12 3.342,-0.63 2.982,-0.54 7.56,-0.3 4.062,-0.03 13.026,0.54 -2.508,-2.682 -0.636,-0.768 -7.368,-17.472 -4.896,-14.784 -2.148,-10.17 -0.12,-0.42 -0.864,-2.928 -0.12,-0.36 -1.662,-3.936 -5.694,-13.29 -2.82,-6.534 -4.17,-7.362 -3.84,-8.28 -12.084,-27.018 -3.672,-9.888 -0.852,-2.754 -1.428,-4.95 -2.226,-11.04 -0.3,-1.566 -4.896,-14.772 -6.786,-19.458 -1.53,-2.64 -0.3,-0.66 -0.648,-1.656 -0.48,-1.344 -0.6,-1.926 -0.36,-1.134 -3.396,-11.796 -0.6,-2.208 -1.896,-7.956 -7.776,-32.304 -13.206,-53.586 -3.336,-13.224 -1.86,-6.036 -1.134,-3.732 -4.212,-17.604 -0.24,-1.338 -0.18,-1.266 -0.894,-5.94 -1.326,-9.738 -1.512,-11.004 -3.054,-15.39 -10.47,-41.862 -2.034,-5.304 -6.0402,-32.965 z"
       transform="translate(-180.07522,0.38158867)"
       id="path17"
       style="fill:#e45c36;fill-opacity:1;stroke-width:3;stroke-linejoin:round;stroke-miterlimit:4;stroke-dasharray:none" />
  </g>
  <g
     id="Pesaro_e_Urbino"
     style="fill:#e45c36;fill-opacity:1;stroke:#ffffff;stroke-width:3;stroke-miterlimit:4;stroke-opacity:1;stroke-dasharray:none">
    <path
       d="m 1837.6636,664.11498 -2.7151,-2.61334 -0.7596,-0.23254 -3.2118,3.4487 -3.8359,4.12002 -0.2171,0.23323 -1.8909,2.0306 7.678,7.9729 12.9368,-2.18216 3.0713,-2.00153 2.5472,-2.36903 0.9731,-1.1994 0.5868,-5.62878 -5.1766,-1.93786 -8.7853,1.51429 -1.2009,-1.1551 z m -6.142,22.89787 0.3745,-0.16887 -1.0237,-2.57943 -1.0147,-1.22223 -2.6315,-2.43686 -0.8108,-0.74815 -4.7304,-4.35949 -0.3007,-0.2713 -3.2287,3.52206 -11.5202,12.54209 9.76,7.74313 15.1262,-12.02095 z M 450.89458,988.91152 c 0.88416,-0.66302 18.12421,-16.57699 18.12421,-16.57699 l 8.17802,-2.43132 5.74666,-0.44224 6.85187,1.76822 6.18871,6.40981 8.62006,19.00824 -2.43129,18.12426 -2.21029,2.6523 -4.42053,1.3262 -10.6093,-1.5472 -9.72513,-14.1457 -3.97848,-3.5365 -20.33451,-10.60929 z m -250.62539,-438.22074 9.36359,5.5748 23.268,15.32998 14.802,1.45208 18.48599,1.96194 1.11,0.17994 1.30203,0.61804 18.88801,11.76003 0.60007,0.744 3.51599,5.33402 1.86599,3.02991 1.44004,3.03005 0.35976,2.14203 1.36802,4.30197 6.07199,11.23196 6.30598,8.09402 2.18395,1.842 9.45601,8.64603 41.43007,39.564 8.62196,8.62202 3.85797,5.778 1.08604,1.97398 0.80996,1.50599 0.12015,0.75598 0.47992,5.28606 -0.0562,1.05599 -1.81203,3.56995 -0.65418,1.12804 -1.25994,1.93198 -1.82405,1.54205 -1.15194,0.65402 -18.78001,8.79601 -2.83805,1.194 -0.83997,-0.17995 -0.42019,-0.24015 -0.6057,-0.48031 -6.92397,-5.43002 -0.91803,-0.77397 -0.24031,-0.85805 -0.006,-0.978 0.30004,-1.30798 0.30003,-1.14002 -0.0562,-0.82193 -0.47992,-0.89404 -0.17988,-0.11973 -1.00207,-0.91197 -0.54035,-0.48031 -1.16396,-0.48032 -1.77598,-0.17994 -18.94204,-1.272 -15.43195,1.63203 -2.06401,-1.07406 -0.72002,-0.30037 -0.71404,-0.24016 -0.71995,-0.11973 -1.10402,0.6658 -0.0562,0.0484 -0.35976,0.97198 -0.42019,1.50599 -1.53005,13.66197 -0.0141,1.47609 0.0211,2.4599 0.6844,5.12404 8.05202,46.70999 0.24032,0.95398 0.35976,0.81598 0.42019,0.81604 0.54035,0.94201 0.54035,0.71998 0.54035,0.70186 2.54399,3.39 -0.4202,1.31401 -0.42019,1.04997 -0.87594,1.08001 -5.60402,6.82804 -0.81003,0.76802 -0.74995,0.60004 -1.386,0.67202 -0.67245,-0.17994 -0.0211,-0.0208 -0.60008,-0.53984 -0.79197,-0.82802 -11.37597,-5.6339 -17.82003,-4.53009 1.542,-9.186 7.92603,-17.54398 0.47992,-0.70794 0.12016,-0.72601 1.17007,-8.86805 0.12016,-1.37394 0.12015,-2.34606 -0.0211,-0.89999 -0.54034,-2.154 -0.6844,-1.254 -13.66799,-16.53602 1.03798,-1.41 0.30003,-0.80393 0.0562,-0.70801 0.47991,-14.04006 -0.006,-1.06797 -1.11604,-10.62597 -1.818,-13.92004 1.45803,-9.08399 -0.17988,-1.21801 -9.05399,-25.87802 -2.14201,-0.17994 -0.54014,-0.0415 -4.374,3.56995 -1.11599,0.96609 -1.596,1.52399 -1.398,2.23193 -0.60001,0.98408 -0.6,1.22397 -0.54,1.28999 -0.36004,0.84601 -0.63001,1.81197 -3.162,9.33002 -0.54,3.64795 1.158,7.03802 0.12002,0.24016 0.23996,0.29968 0.30003,0.4201 0.36005,0.35988 0.47999,0.48032 0.30004,0.11973 0.41998,0.11973 0.0597,0.006 0.12002,0.006 0.0597,-0.0138 0.0534,-0.0138 0.41998,0.0415 0.47999,0.30037 0.36004,0.30037 1.674,2.57396 0.816,1.89606 0.30004,0.82199 1.344,3.642 -0.41999,6.83399 -1.40999,19.938 2.50799,13.95597 -6.498,7.51204 -7.554,14.94005 -5.304,9.46201 -5.41801,4.78194 -21.74999,16.09204 -1.28401,0.77999 -17.49599,5.55597 -1.332,0.006 -20.268,-10.14607 -24.77399,0.0484 -9.72001,-4.72803 9.39,17.67008 0.888,2.06396 0.36005,1.098 0.17995,1.05005 0.0597,1.04997 -0.12002,1.01398 -0.30003,1.17601 -0.30004,0.882 -0.30004,0.96 -2.328,6.76195 -0.65994,1.30798 -0.78,1.32605 -0.738,1.01399 -0.36005,0.48031 -31.517994,31.75796 -0.419981,0.35989 -7.170002,5.47202 -14.501996,6.33597 -3.203997,1.01398 -18.371997,2.49603 -0.912007,-0.30037 -3.491997,-1.65001 -1.463998,-1.28999 -0.804008,-0.73203 -0.636051,-0.4201 -3.078002,-1.09198 -0.953998,-0.24016 -1.074,-0.0623 -1.422,0.11973 -1.073999,0.35989 -8.022003,4.27194 -27.2100016,20.56801 -1.5839922,1.96803 -0.1200149,1.79993 1.0440027,4.63805 2.5320042,8.98197 2.2799942,4.34406 2.6700002,4.14598 0.5399965,0.48031 12.4019959,9.834 0.683973,0.4201 3.432003,1.31401 0.918001,0.35989 1.187992,0.30036 2.028005,0.67756 1.607996,0.6658 5.028004,2.82602 0.606047,0.4201 12.504001,14.60397 0.539997,0.87003 2.033992,4.87198 6.120005,22.81198 10.740002,25.57799 3.713995,6.31202 8.327998,14.08196 11.916007,-0.1799 44.603997,8.2739 3.85799,0.3598 2.85,1.74 1.35601,0.6056 1.74001,0.3599 0.972,0.1799 5.53199,0.6001 1.458,-0.042 1.134,-0.1198 0.888,-0.3003 1.338,-0.894 0.984,-0.762 0.69599,-0.966 0.54,-1.02 0.74399,-2.544 -0.0119,-0.3004 -0.12002,-0.3004 -0.11994,-0.3003 -0.0534,-0.18 -0.0119,-0.1197 1.086,-2.7541 0.0597,-0.1197 0.24003,-0.2402 1.31398,-1.302 0.54,-0.2401 2.226,-0.822 5.09399,-0.8521 29.45401,-1.4039 1.58399,-0.021 3.49801,0.1799 0.65397,0.035 13.32,3.4139 0.41998,0.3004 0.0239,0.5405 -0.0597,5.856 -0.804,0.3599 -0.97799,0.6 -0.47999,1.02 -0.30004,1.062 -1.908,8.256 0.12002,0.5405 1.19999,0.6901 0.54,0.3003 8.39401,0.828 0.74999,0.028 3.51599,-0.1799 12.70802,-8.634 0.73199,-0.6963 1.71001,-2.5259 0.23995,-0.5399 0.71402,-3.4801 7.85403,-17.12399 30.79796,-14.50196 7.60802,-8.82002 21.63001,-5.07594 20.46,-7.45203 -0.89997,-2.00402 0.87594,-2.59196 1.30203,-3.70802 4.41603,-5.86804 0.6605,-0.84594 0.88198,-0.61804 1.35593,-0.11974 1.18807,-0.0138 0.30003,0 1.34399,0.17995 0.67245,0.24015 1.602,1.57202 0.24031,0.24016 26.79598,14.33994 -5.95802,4.45804 -0.70196,0.73798 -0.54035,0.64157 -0.54034,0.70801 -11.64594,18.23406 -0.12016,1.73999 -0.65418,12.82803 0.47992,2.1659 0.54035,1.452 0.54035,0.7079 0.64153,0.768 5.59805,6.7021 16.86595,21.1501 -5.95795,12.3119 -0.47992,0.84 -0.54035,0.78 -7.02002,6.018 -3.31798,1.956 -3.19199,2.058 -4.0921,3.1859 -13.29593,24.8581 -19.79999,30.474 -0.54035,0.828 -1.308,1.236 -1.32003,0.5399 -1.12798,0.1197 -1.386,0.1197 -1.326,-0.1197 -1.27196,-0.1799 -6.03004,-1.326 -1.38601,-0.3004 -0.94206,-0.3599 -1.22994,-0.4803 -3.29999,-0.852 -0.86399,-0.18 -0.88205,0.042 -27.04796,1.782 -0.91803,0.3599 -0.98999,0.936 -8.09397,9.1801 -0.67245,1.2419 -0.54035,1.1699 -0.30003,0.906 -3.32409,9.834 -0.30004,0.84 0.0562,2.1961 0.24031,0.7561 27.81605,37.506 9.75605,11.772 0.64153,0.7379 2.26202,2.172 0.54034,0.3003 9.56395,2.862 15.96605,3.9 0.67807,-0.041 8.07002,-2.004 1.12791,-0.6 0.88205,-0.8281 4.63203,-6.2219 0.54035,-0.7141 0.35976,-0.882 -0.006,-0.1197 -0.0211,-0.3004 -0.0351,-0.84 0.17989,-0.828 0.0562,-0.2997 0.24031,-0.9241 2.466,-2.9999 0.78002,-0.75 0.91199,-0.7201 21.55201,-15.954 36.78603,29.4961 1.10395,0.9719 3.822,3.81 0.24031,0.7261 -0.24031,0.8339 -0.99596,0.6485 -2.12401,0.5398 -0.738,0.732 -0.54035,1.134 -3.58204,7.86 0.0141,0.99 2.97001,9.624 0.42019,1.158 2.004,2.34 1.75799,1.992 2.358,2.544 1.21202,0.4201 1.356,0.4803 1.464,0.3599 1.68597,0.3599 3.75601,0.6 2.62206,0.18 1.52394,0.1197 9.10799,-1.86 1.78202,-0.636 -1.26599,-4.938 -1.09805,-4.326 7.96806,-17.898 4.72801,-8.91 2.02198,-3.666 8.55598,-10.512 13.326,-15.696 0.64154,-0.7018 0.98998,-0.936 1.13403,-0.78 2.62796,-1.626 1.12805,-0.6602 0.64153,-0.3599 0.60008,-0.2402 19.596,0.3599 15.54003,0.9121 16.87797,15.7979 1.986,2.154 5.63403,6.4381 1.19396,1.4519 0.54035,0.9061 0.42019,0.75 1.19994,5.3159 3.40201,6.2401 0.47992,0.8219 0.6598,1.044 6.18597,8.7961 3.70205,2.2679 17.87399,-3.942 10.83001,-8.2679 8.38797,-11.796 0.82801,-0.972 5.21397,-4.5841 1.69202,-0.2401 2.75402,-0.028 1.36197,0.3003 1.29599,0.5406 31.90203,15.534 0.54034,0.5398 1.50602,4.4161 5.7,3.384 1.07403,0.6962 3.26394,2.832 10.30202,9.396 11.85596,11.844 0.80399,0.816 7.61406,12.3 0.60569,1.032 1.59006,3.8279 0.24031,0.9361 0.12016,0.6658 -0.0562,1.002 -0.0211,0.7018 0.12016,5.346 0.24031,0.774 0.36047,0.786 3.01203,6.048 0.47992,0.732 18.37204,22.116 19.43995,22.182 12.69002,13.374 4.56598,7.086 6.72603,9.594 19.29,23.454 6.78596,6.954 20.28005,20.568 3.77394,3.282 10.51802,8.862 5.07,3.144 1.36197,0.4201 1.20001,0.055 3.45007,0.055 1.19994,-0.055 1.07402,-0.1198 1.248,-0.021 1.15799,0.3003 9.45004,5.028 11.54398,7.464 0.972,0.6657 2.86195,2.0821 0.35976,0.3599 7.51203,7.038 15.50995,14.8799 6.58796,7.2061 0.70196,0.828 4.75801,6.2999 0.54035,0.9061 0.30004,1.0319 0.30003,1.7461 0.0632,1.6619 -0.0281,3.1081 -0.12016,0.9659 -0.80398,1.7461 -6.07804,9.8279 12.864,-11.9759 21.402,-26.34 0.62396,-0.81 0.54035,-0.4803 0.81003,-0.5399 11.88604,-5.586 1.03797,-0.3599 39.40795,-8.382 4.83003,1.074 24.36604,5.8379 1.11604,0.4803 2.45397,1.728 1.122,0.846 3.126,2.868 0.906,0.912 0.858,1.26 14.82,7.746 18.036,4.746 13.65,3.552 7.14,1.608 0.5404,-0.4201 0.4799,-0.768 9.888,-45.3299 0.2403,-1.296 1.362,-7.614 0.3605,-2.1721 14.724,-18.414 0.912,0.014 0.6176,-0.2402 0.4799,-0.3003 0.762,-0.6056 1.83,-1.5421 12.2581,-16.824 2.2499,-4.4399 -0.056,-0.6845 0.2403,-1.02 0.3001,-0.756 1.158,-1.512 0.954,-0.87 0.6001,-0.4201 0.7318,-0.4803 1.4281,-0.954 17.454,0.726 14.3399,3.9419 3.7141,1.5421 3.396,4.1579 2.0459,2.604 0.4799,0.4803 0.894,0.6001 3.252,0.756 1.0561,0.2401 1.5779,0.014 15.594,-2.1 2.634,-0.8581 -0.1201,-2.2079 0.846,-4.692 3.5399,-9.45 0.4202,-0.996 9.2999,-14.028 0.9721,-0.996 1.272,-0.828 3.7559,-1.848 0.4202,-0.1799 3.624,-1.374 4.8121,-1.674 9.444,-2.9519 0.6724,-0.055 0.936,0.2402 0.756,0.3003 1.884,0.055 0.798,0.014 1.4401,-0.4201 1.7039,-0.6415 17.0161,-9.0662 0.6661,-0.4201 0.056,-0.2401 0.1799,-0.8581 -0.1202,-0.912 -0.4799,-2.628 -3.4741,-16.3259 -2.922,-9.912 -0.3604,-1.6381 -0.021,-1.332 0.2403,-1.308 16.41,-27.768 4.05,-4.7941 13.296,-3.5159 24.75,-13.128 8.916,3.918 2.022,-1.092 3.834,-2.4239 2.628,-1.9261 1.566,-1.4939 3.264,-3.21 14.382,-14.4301 0.852,-0.918 0.4202,-1.056 1.704,-5.424 0.4201,-1.626 0.1799,-1.53 1.494,-9.5339 27.288,-12.3542 11.118,-4.5599 21.846,-9.2339 2.058,-1.5781 0.1799,-0.1197 1.266,-1.062 0.1799,-0.732 0.2403,-0.9839 0.3597,-0.7321 16.182,-15.894 1.062,-0.654 1.038,-0.4803 24.66,-22.4821 3.462,-3.618 23.892,-26.232 15.714,-25.86 -2.238,-24.306 -1.614,-2.412 1.758,-3.648 0.4202,-0.8759 8.3221,-10.0801 4.134,2.9941 0.4202,0.2401 1.968,0.3599 3.8101,0.1198 17.118,-7.872 0.69,-0.4201 0.4799,-0.6658 2.16,-2.8321 0.48,-0.96 0.063,-0.8279 -0.1202,-1.5961 -0.1201,-1.0319 -0.049,-0.8281 0.1799,-0.636 4.9441,-8.466 0.48,-0.738 0.6661,-0.4803 0.6001,-0.3599 0.72,-0.3599 0.84,-0.3599 1.95,-0.3598 23.268,-1.566 5.436,3.72 4.8,-1.446 0.4202,-0.1205 0.5403,-0.5398 0.48,-0.6056 0.9419,-1.26595 26.232,-48.14995 9.8341,-19.78207 0.3001,-0.78601 6.318,-25.14592 3.702,-12.06601 2.262,-7.84797 1.092,-5.49605 0.864,-6.39001 1.374,-10.37398 -1.3499,-18.83999 0.3597,-0.11973 1.218,-0.35989 4.386,-0.17995 3.618,0.0138 0.9541,0.0208 6.9659,0.70801 3.024,0.53983 15.744,-7.53598 17.6521,-16.75797 12.9899,-17.49 3.3061,-6.37202 0.4799,-0.76802 0.5403,-0.64157 1.248,-1.23607 0.786,-0.75002 0.7381,-0.60005 1.6559,-1.01398 1.464,-0.73203 4.164,-1.97994 10.026,2.38198 2.244,0.48031 1.2841,0.24016 1.5239,-0.30037 1.5961,-0.48031 4.0799,-1.35602 2.4661,-0.87598 1.7879,-0.66579 1.41,-1.038 0.9781,-0.88201 2.5019,-2.34003 0.96,-0.95993 1.458,-1.83605 0.6001,-0.73196 1.164,-1.70407 1.692,-2.48392 0.984,-0.93605 0.69,-0.54052 5.376,-3.97199 29.1121,-18.79798 2.3999,-1.488 7.104,-4.24799 0.84,-0.48031 5.526,-2.98209 2.9761,-4.70996 9.39,-16.72801 2.5499,-28.51198 -0.063,-2.67002 -4.35,-4.23595 -7.386,-6.444 -4.956,-3.42606 -2.868,-2.30398 -2.676,-2.51395 -3.462,-4.014 -1.014,-1.33207 -2.526,-4.61992 16.59,-1.84803 6.528,-5.15996 11.112,-2.93405 14.1,-1.78795 22.314,-3.86409 2.55,2.50807 13.53,3.98403 14.352,-2.01011 5.772,0.91806 5.25,-3.18598 2.634,-1.27802 3.936,-1.33802 2.52,-0.71396 1.398,-0.30037 4.878,-0.90602 4.284,-0.65403 1.098,-0.11973 1.626,-0.48031 4.332,-1.47595 10.134,-4.08605 2.31,-1.09205 1.902,-1.29594 1.236,-0.88796 32.388,-19.48806 10.14,-3.79793 2.514,-1.19407 0.912,-0.60004 0.936,-0.74407 20.862,-18.47996 -7.704,-6.65398 -30.204,-24.22198 -13.098,-10.33799 -24.642,-19.26002 -3.48,-2.55002 -9.762,-8.53204 -4.188,-3.69591 -4.806,-4.31402 -12.222,-11.41799 -7.554,-7.11 -15.744,-14.91604 -10.074,-9.54603 -25.728,-24.97795 -14.502,-14.49601 -2.49,-3.22805 -3.846,-4.32592 -0.3,-0.30037 -0.5404,-0.60005 -11.79,-12.74996 -1.404,-1.476 -8.082,-8.12401 -34.272,-28.37999 -8.664,-6.258 -18.084,-11.97 -10.662,-8.83201 -5.772,-4.85399 -2.58,-2.29201 -12.096,-12.47399 -13.2,-3.162 -7.464,-2.196 -1.032,-0.30002 -4.05,-1.90201 -13.374,-8.46 -0.894,-0.60004 -5.484,-4.13401 -26.784,-20.95799 -2.958,-2.80801 -2.544,-2.62199 -9.402,-8.91 -1.368,-1.25401 -21.432,-19.43999 -6.678,-5.982 -3.684,-2.67 -12.108,-13.152 -35.664,-35.706 -20.088,-19.752 -43.92,-42.846 -7.236,5.682 -22.566,-6.216 -2.052,-1.326 -7.578,-5.112 -0.48,-0.36003 -10.9618,-8.39399 -38.2981,-22.188006 -27.8999,-14.369999 -37.8481,-20.688003 -2.004,-1.265995 -19.116,-12.281998 -16.866,-11.225997 -8.3999,-4.704012 -21.3301,-11.357999 -0.4202,-0.240018 -0.6535,-0.179944 -0.744,0.006 -13.6259,0.419961 -1.6861,0.179944 -1.3619,0.360026 -2.532,1.968006 -2.34,-1.860005 -1.9141,-0.953993 -26.736,-2.6760021 -1.2,0.6419847 -2.0099,0.6660694 -1.7341,0.2400176 -1.572,-0.2400176 0.056,0.024223 -9.948,-1.7160008 -2.85,-0.612017 -0.9659,-0.2400176 -3.612,-1.0740023 -4.128,-1.5180003 -5.1481,-1.9979937 -7.074,-1.74000261 -1.2359,0.24001751 -0.8701,1.6859987 7.7161,9.7379991 0.6176,1.260002 1.4881,3.528009 0.2403,1.10399 0.056,0.605996 0.01,1.487998 -11.382,19.824003 -3.4561,4.278001 -13.836,32.459998 -1.104,2.484002 -1.83,3.191998 -3.1859,5.418001 -4.224,3.545997 -1.056,0.882009 -3.2761,4.385995 -2.9759,6.918007 0.042,0.47997 0.1201,0.53997 0.063,0.24001 0.056,0.24002 0.1798,0.24002 0.2397,0.30002 0.9299,1.00201 -0.4202,0.24001 -0.2403,0.30003 -9.522,12.432 -1.23,2.16 1.752,8.628 2.22,11.184 0.3598,9.97799 -0.714,1.86001 -0.756,0.70799 -0.6598,0.36003 -0.6844,0.17994 -3.114,0.65998 3.474,8.796 4.854,14.028 3.672,5.14801 0.3604,0.62399 0.3001,0.60005 2.7238,11.718 0.2404,1.272 -0.3001,0.76201 -0.3597,0.71399 -0.3605,0.72 -18.81,31.536 -4.53,6.474 -0.1202,0.47996 -0.1201,0.87601 -0.01,0.77399 0.1799,1.11001 0.2396,0.92999 0.48,0.95401 0.4799,0.47996 1.992,1.85401 5.982,5.118 9.018,8.118 0.4202,0.41996 2.8799,4.764 0.4202,0.918 0.3,0.71401 0.1799,0.47996 0.3605,1.03202 -0.9001,0.822 -1.314,1.56599 -8.7119,13.17 -1.1401,1.65599 -1.374,1.44 -0.3001,0.30003 -3.0719,2.64 -1.4579,1.11001 -0.3605,0.24001 -1.272,0.78002 -0.3598,0.17994 -0.75,0.36003 -0.4202,0.12001 -0.828,0.30002 -1.266,0.36003 -36.744,5.90399 -5.73,0.18002 -0.3598,0.0602 -0.3,0.0602 -0.3605,0.12008 -0.714,0.47996 -0.6963,0.76801 -0.6415,0.774 -1.0381,1.49399 -0.3,0.60005 -0.4202,0.80401 -0.042,0.30002 -0.056,0.804 -0.056,0.93 0.2403,0.666 0.6296,0.858 0.1202,0.53997 -0.5404,1.08 -0.3598,0.54004 -0.042,0.0602 -0.1799,0.30002 -0.4799,0.60005 -0.2403,0.24001 -3.4261,3.858 -9.1801,0.744 -13.1398,0.78 -0.702,-0.0415 -5.784,-1.806 -8.55007,34.908 6.40207,26.58601 -0.3598,5.24999 -15.90597,11.22601 -0.87004,0.53997 -0.30003,0.12007 -0.64154,0.24002 -0.36046,0.0602 -4.97401,0.708 -0.30004,0.0242 -0.86406,0.0478 -0.30004,0.018 -0.6057,-0.0602 -2.68803,-0.64801 -0.85198,-0.36002 -0.62959,-0.30002 -0.79801,-0.65396 -16.27797,-9.216 -20.15399,4.794 -33.55202,9.87599 -3.80401,1.92 -0.88802,0.41996 -0.30004,0.0602 -1.23001,0.36003 -10.47601,-0.24002 -0.71397,-0.30002 -8.75406,-14.148 -15.62392,-11.76 -2.45406,-8.388 -0.014,-0.41996 -0.0281,-5.628 0.0421,-1.092 0.30004,-1.00201 0.35977,-0.41996 10.32598,-10.56 6.996,-4.32 -6.16201,-10.32 -13.96205,3.156 -3.25193,0.708 -0.73801,0.11994 -0.83399,-0.11994 -1.02603,-0.30002 -0.97199,-0.36003 -0.90601,-0.89399 -0.76801,-1.05 -7.596,-12.16201 0.12015,-5.59799 0.12016,-0.93001 0.24031,-1.152 0.47992,-1.06199 0.60007,-0.858 0.93602,-0.684 1.11604,-0.77999 0.24031,-0.18002 1.01999,-0.768 0.63591,-0.85799 0.17988,-0.99 0.006,-1.26601 -0.0351,-1.34999 -1.60798,-16.64401 -0.81593,-1.67999 -0.54035,-0.0298 -6.85195,-0.24002 -1.24202,-0.018 -7.54801,0.17995 -10.52997,-4.8 5.31593,-12.81599 0.17988,-0.47997 1.9319,-7.98 -0.93594,-9.108 -0.12016,-0.64794 -1.52998,-2.61 -2.33403,-0.846 -0.47992,-0.30002 -0.47992,-0.36003 -0.12016,-0.41996 -0.71397,-2.964 -0.4202,-3.828 0.12016,-1.284 2.388,-7.704 -3.33596,-3.198 -1.52998,1.08 -7.85402,2.7 -1.24203,0.17994 -1.55998,0.0118 -3.25199,-0.12001 -6.024,-0.81 -5.74203,-1.47 -6.35397,0.12001 -13.26599,7.026 -0.81601,0.816 -0.79197,1.242 -0.54035,1.224 -0.24031,0.996 -0.12015,1.902 -0.0562,1.404 0.30004,0.948 0.006,2.346 -0.12015,4.212 -0.35976,5.892 -0.24032,1.614 -0.24031,1.38 -0.35976,1.278 -1.39197,4.194 -0.90602,2.094 -0.73196,1.374 -0.35977,0.47996 -0.786,0.732 -1.17597,0.53997 -21.03001,7.956 -2.56802,1.56601 -0.30004,0.12001 -0.42019,0.11994 -0.42019,0.18001 -15.3,4.308 -13.11,-11.11201 -0.4202,-0.36003 -0.54034,-0.61803 -1.27794,-5.508 -6.084,-11.7 -0.47992,-1.218 -0.47992,-1.314 -0.35977,-1.056 -0.36046,-1.44 -0.0562,-1.164 0.0562,-1.428 0.0562,-1.632 0.84003,-11.142 0.24032,-1.35601 0.60007,-0.0602 0.54035,0.0602 0.47992,0.30003 0.36046,0.41996 0.76794,1.32 0.30004,0.83399 0.71995,0.54004 0.47992,0.30002 6.45009,0.41996 0.67807,0.006 11.53204,-16.878 0.35976,-1.086 0.30004,-1.14 0.12015,-1.16999 0.0211,-0.30002 -1.75194,-1.92599 -3.06608,-3.00601 -1.55998,-1.134 -1.36794,-0.54004 -0.82802,-0.41996 -0.816,-0.41996 -1.04402,-0.81 -0.69001,-1.044 -0.60008,-1.416 -1.926,-11.18399 -8.412,-4.57201 -7.06197,1.08 -13.25399,0.54004 -1.42205,-0.036 -13.14591,-10.368 -1.04402,-1.386 -0.54034,-1.704 -0.24031,-1.48799 -1.23002,-3.86402 -4.03799,-9.06599 -0.54035,-0.942 -0.12015,-0.17994 -11.40001,-2.526 -22.464,-14.802 -1.27203,14.598 -7.72796,20.838 -1.58998,4.74 -0.47992,1.638 -0.30004,1.19999 -1.82397,8.346 -13.42803,-0.87599 -6.18597,-0.30002 -2.97606,-0.0602 -1.68597,0.0415 -1.28397,0.0602 -9.02402,0.47997 -0.78003,0.12001 -13.49998,4.02599 -0.60008,0.85201 -1.14,2.958 -10.27195,0.18001 -4.68009,-0.61202 -0.88795,-0.24002 -6.97204,-4.446 -0.95393,-1.104 -1.92607,-2.412 -0.88796,-1.65 -2.66998,-5.14199 -0.36046,-0.83401 -2.56198,-9.516 -4.87199,-3.084 -34.00797,1.818 -0.98999,0.12001 -1.20008,0.41996 -2.07594,0.834 -13.08394,7.23246 1.20928,17.27484 0.51295,1.57807 7.58813,21.24361 2.43388,6.64556 1.78701,3.41457 0.88473,1.66986 1.12194,1.37967 1.48908,0.44834 1.40793,0.46882 1.15089,0.68344 2.41266,1.744 7.74419,9.15847 0.37241,1.35002 -0.0562,1.2328 0.0731,3.04458 -0.2101,1.99819 -0.20377,1.28858 -0.45181,0.56696 -0.98359,0.67008 -1.13178,0.65175 -1.4023,0.56557 -20.4846,-1.51735 -12.52926,-5.80108 -2.06526,-1.00758 -1.99817,-1.39096 -8.13325,-4.21101 -5.99878,0.71454 -0.40965,0.18216 -1.07465,1.10289 -6.92074,8.90499 -2.91099,-3.57273 -1.0443,-1.40155 -2.37451,-3.8368 -1.04423,-2.02502 -0.96454,-2.74451 -4.6841,-16.46067 -0.49818,-1.9403 -11.54855,1.87251 -44.82288,17.17875 -11.36705,4.83802 -10.48451,7.14404 -3.68005,4.15242 -1.06897,1.42838 -10.87069,11.30563 -0.002,0 -1.41074,6.28828 -1.15019,9.57859 -2.5969,21.78728 0.59797,1.28295 0.32041,0.37421 4.20256,4.93191 0.33236,1.684 -0.20518,3.15825 -0.19394,1.10148 -21.81902,64.27451 -0.59094,1.59714 -0.51224,0.95179 -0.22345,0.41519 -0.0562,0.0946 -0.7548,1.29424 -1.96781,2.25236 -0.88964,0.87412 -1.34293,0.93132 -0.87411,0.52606 -10.09685,5.95359 -18.09526,13.55096 -1.05132,1.08029 -0.59235,0.66164 -0.13772,0.15641 -0.67526,1.07039 -0.527,1.41214 -0.23047,1.23774 -2.57716,17.76192 -0.10891,0.79369 -0.26982,2.9189 -5.85368,4.13048 -29.55694,18.21032 -0.83457,0.14188 -2.24884,0.5336 -9.81088,2.69086 -1.10994,0.30521 -13.17038,4.01683 -0.20195,0.27269 -0.0576,0.0789 -2.14646,10.28746 2.05749,6.14004 8.71294,8.22357 -1.85556,29.23709 -1.74682,9.80452 -1.69105,3.33692 -0.45048,-0.64088 -0.63267,-0.32459 -0.76609,0.2194 -0.74985,0.6934 -0.66514,0.92069 -3.90969,5.77205 -1.36134,1.51215 z"
       id="path371"
       style="fill:#e45c36;fill-opacity:1;stroke:#ffffff;stroke-width:3;stroke-linejoin:round;stroke-miterlimit:4;stroke-opacity:1;stroke-dasharray:none;display:inline" />
  </g>
</svg>
