<?xml version="1.0" encoding="UTF-8" standalone="no"?>
<!-- Created with Inkscape (http://www.inkscape.org/) -->

<svg
   xmlns:svg="http://www.w3.org/2000/svg"
   xmlns="http://www.w3.org/2000/svg"
   version="1.0"
   width="7200"
   height="5600"
   id="svg2"
   style="display:inline">
  <defs
     id="defs4" />
  <g
     id="layer17">
    <path
       d="m 3186.2566,2505.5681 -0.2567,0.432 -11,10 -10,30 -9,41 -29,26 -1,6 40,6 43,59 54,5 15,6 1,14 11,14 19,2 6,17 21,6 -3,-20 22,-1 25,33 7,24 0,28 7,2 -10,108 22,9 1,58 -30,0 -84,75 -1,18 -19,8 -5,24 4,19 23,6 -4,17 -37,14 -1,22 -27,18 -17,-17 -9,-40 -22,-20 -18,0 -76,16 -42,39 3,40 -34,28 -50,-5 -49,-32 -12,-18 -19,-2 -34,35 9,12 14,64 c 0,0 10,-1 15,3 5,4 -1,15 -1,15 l -14,42 -14,-2 -27,26 -9,59 25,23 15,4 8,-14 66,-30 1,-17 21,-17 16,0 16,24 -4,20 72,31 29,12 28,7 6,7 42,8 15,104 17,0 7,10 57,0 24,23 43,37 9,26 1,7 1,25 -23,41 -16,-4 -25,27 -20,-2 -35,25 c 0,0 11,113 11,117 0,4 27,14 27,14 l -22,19 -20,-3 -108,100 6,29 -21,0 2,68 9,6 -1,49 -74,-58 0,103 -37,42.9999 -4,33 29,20 -5,20 -17,6 -43,2 -71,-52 -31,0 -147,140 -8,-18 -39,0 -19,17 -1,46 -10,3 -1,126 -5,50 -37,168 -10,49 18,22 -1.6187,19.0884 -0.3893,0.7232 c -3.9062,-2.6401 -10.5525,-4.0483 -14.4588,-5.741 l -13.6719,-3.9063 -10.1562,-1.9531 -16.7969,-2.7344 -12.8906,0 -8.2031,-1.5625 -13.2813,-4.2969 -11.3281,-4.6875 -12.5,-7.8125 -14.0625,-1.9531 -13.2813,-3.5156 -18.75,-3.5156 -21.4843,-7.8125 -14.4532,-3.9063 -12.1093,-4.2969 -14.0625,-7.4218 -10.1563,-5.0782 -14.4531,-2.3437 -19.1406,-0.7813 -25.3907,0 -22.2656,-14.8437 -17.5781,-5.0781 -12.1094,-8.9844 -13.6719,-16.0156 -8.9843,-14.0625 -7.8125,-3.125 -21.4844,-14.0625 -3.9063,-5.0782 -10.5468,-17.9687 -12.1094,-13.6719 -11.7188,-5.8594 -27.7343,-1.5625 -28.125,-3.5156 -16.0157,-1.5625 -25.3906,-0.3906 -18.75,-13.2813 -18.3594,-11.7187 23.0469,-11.7188 7.4219,0 1.5625,-7.4218 7.0312,-7.0313 9.7657,-3.5156 -3.9063,-4.6875 -8.5937,-10.1563 -12.5,-6.6406 -14.0625,-6.25 -10.1563,-8.2031 -7.4219,-12.8906 -9.7656,-11.7188 -10.5469,-12.5 -7.4218,-7.4219 -18.3594,-0.7812 -66.7969,0 -16.4062,7.8125 c 0,0 -7.0313,5.4687 -8.5938,6.25 -1.5625,0.7812 -8.5937,6.25 -8.5937,6.25 l -5.0782,-1.5625 -16.7968,2.3437 -8.5938,-2.7343 -12.5,-0.3907 -8.9844,-5.0781 -5.8593,-8.2031 -7.8125,-12.5 -10.9375,-17.1875 -9.375,-16.0156 -7.4219,-14.0625 -2.7344,-12.5 -1.5625,-12.1094 -12.8906,-3.5156 -10.1563,-1.9532 -16.0156,1.1719 -12.5,-0.7812 -8.5937,-3.5157 -10.1563,-1.5625 -12.5,5.8594 c 0,0 -8.5937,-1.5625 -11.7187,-2.3437 -3.125,-0.7813 -12.5,4.6875 -12.5,4.6875 l -14.8438,2.3437 -14.8437,1.1719 -10.5469,0.7812 -5.8594,3.5157 -7.0312,-2.7344 -9.375,-9.7656 -7.0313,-8.5938 c 0,0 -5.4687,3.9063 -7.0312,4.6875 -1.5625,0.7813 -10.1563,-0.3906 -10.1563,-0.3906 l -13.6719,0.3906 -1.9531,-5.4687 -35.5469,0.7812 -9.7656,2.7344 -18.75,-0.3906 -16.7969,-2.7344 -0.7812,17.5781 5.8594,3.5156 -1.1719,5.8594 -5.0781,0.7813 -3.9063,-3.5157 -7.0312,-3.125 -7.0313,-6.6406 -4.2969,0.7813 c 0,0 -7.8125,0.3906 -9.375,0 -1.5625,-0.3906 -5.4767,1.6102 -5.4767,1.6102 l -6.0767,-2.2097 -11.0485,1.6572 -12.7058,-5.5242 -8.8389,1.1048 -6.0767,-0.5524 -1.6573,-2.7621 -4.9718,-1.1049 -3.3146,-12.1534 2.2097,-3.867 -3.8669,-21.5446 -11.0486,11.0485 -16.5728,21.5447 -15.468,25.4116 -5.5242,11.601 c 0,0 1.1048,25.9641 -1.1049,32.0408 -2.2097,6.0766 6.6291,19.8873 6.6291,19.8873 l -12.1534,24.3068 c 0,0 2.7622,37.5651 2.2097,40.3272 -0.5524,2.7621 -21.5446,-7.734 -21.5446,-7.734 l -8.2864,1.1049 -16.5728,-3.3146 -23.7544,-14.9155 -17.6777,-4.9719 -3.3145,-7.7339 -8.2864,-12.7059 -3.867,-16.5728 -11.0486,-16.0204 -17.1252,-5.5242 -4.9719,-4.9719 -17.6776,-26.5165 -14.9156,-6.6291 -18.7825,-32.5932 -17.6777,-18.7825 -18.7825,-25.4117 -11.601,-16.5728 -4.9718,5.5243 -14.9155,14.9155 -6.0767,0 -11.0486,4.9718 -19.8874,27.069 2.2098,12.1534 9.3912,16.0204 -4.4194,10.4961 -8.2864,3.867 -16.0204,9.3912 -0.5524,9.9437 -1.6573,14.3631 -0.5524,17.1253 0.5524,7.1815 -3.3146,4.9719 -11.0485,8.8388 -10.49609,6.6291 -6.6292,2.7622 -3.8669,-1.6573 -3.3146,8.8388 -3.3146,8.2864 3.3146,2.7622 0,3.8669 -11.601,7.734 -11.0486,-8.2864 -9.39122,1.6573 -7.73398,7.1816 -2.20971,4.4194 0.55242,6.6291 -7.18155,6.6291 -6.62912,11.0486 -7.73399,13.2582 13.81068,9.9437 -4.41941,10.4961 -11.60097,2.2097 -3.31457,-7.7339 -4.97184,3.8669 0.55243,14.3632 -8.83884,1.6572 -5.52427,-1.1048 -1.65728,3.3145 -7.18156,6.0767 -9.94368,4.4195 -5.52428,-1.6573 -6.62912,6.6291 1.10485,7.1816 6.62913,3.3145 0,3.867 -1.65728,5.5243 -7.18156,3.3145 -11.60097,0 -4.97184,-2.2097 -6.62913,6.6292 -0.55243,3.3145 9.94369,6.0767 0,3.867 2.76214,9.9437 5.52427,0 16.57282,-1.1049 8.2864,-7.7339 7.73398,-3.3146 -7.18155,16.5728 -8.28641,12.7058 -8.2864,11.601 -2.20971,0 -13.25825,9.9437 -9.94369,8.8388 -5.52428,12.1534 2.20971,17.1253 -9.94369,10.4961 0,7.1815 -3.31456,12.7059 -1.65728,9.9437 0.55243,8.8388 6.62912,14.9155 7.18156,9.3913 18.23009,16.5728 5.52427,21.5447 13.81068,12.7058 11.04855,8.8388 7.73398,7.734 1.10485,4.9719 2.20971,16.0203 12.1534,9.3913 0,3.3146 13.81068,7.1815 1.65728,-5.5243 7.73398,4.4195 5.52427,1.6572 6.62913,10.4962 2.76213,14.3631 4.97185,8.8388 6.62914,6.6291 16.0204,6.6292 7.1816,3.8669 2.2097,8.2865 1.1048,12.7058 0,11.601 2.7622,5.5242 -1.1049,14.9156 0,8.2864 -1.1048,6.0767 -2.7622,11.0485 -3.3145,9.3913 -2.7622,4.4194 -6.0767,11.0485 5.5243,11.0486 -2.7622,12.1534 6.6292,8.2864 -7.734,8.2864 1.1048,6.0767 -3.3146,7.1815 9.3914,2.7622 13.2582,4.4194 3.3146,0 8.8388,3.3146 4.97189,3.3145 7.1815,6.0767 0.5524,4.9719 -6.0767,3.3145 0,5.5243 -4.9718,13.8107 4.4194,9.9437 -1.6573,9.9437 5.5243,6.6291 6.6291,8.8388 4.4194,-2.2097 8.8389,6.6291 0.5524,5.5243 -3.867,6.6291 -7.734,4.4194 -1.6573,6.0767 -4.9718,0 -13.25819,0.5525 -8.2865,-2.7622 -3.8669,-3.3145 -13.2583,1.6573 -3.3146,-2.2098 -2.7621,-21.5446 -2.7622,-7.1816 -5.5242,-4.9718 -2.2098,2.7621 -5.52422,7.734 -3.31457,6.6291 -3.86699,4.4194 -6.62912,2.2098 -9.39127,-2.2098 -10.49611,-2.7621 -6.62913,-2.7621 -12.1534,-22.0971 -2.76213,-12.1534 -5.52427,-13.2583 -4.41942,-5.5242 -11.60097,-4.9719 -9.94369,-7.734 -11.60097,-9.3912 -9.39126,-0.5524 -2.20971,4.4194 -12.1534,2.7621 -11.60097,0.5524 -9.94369,0.5525 -6.0767,1.6572 -15.46796,6.6292 -10.49612,5.5242 -13.25825,7.734 -11.60097,-2.7621 -13.81068,-4.4194 -8.83883,-6.6292 -6.0767,-2.2097 -6.0767,1.1049 -3.86699,5.5243 -4.41942,0.5524 -3.31456,2.2097 -14.36311,7.734 -8.83883,5.5242 -13.81068,5.5243 -12.70583,6.6291 -12.70582,7.1816 -7.18156,5.5243 -5.52427,0 -13.25825,5.5242 -8.83883,0 -4.97185,-2.7621 -7.73398,-9.9437 -6.0767,-9.9437 -3.31456,-4.4194 -4.41942,-7.734 -4.97184,-11.6009 0,-9.9437 -1.10486,-9.9437 -2.76213,-12.7058 -4.97185,-7.734 -3.86699,-2.7622 -8.28641,2.7622 -3.86699,-3.867 -6.07669,-7.1816 -4.41942,2.2097 -9.39126,-4.4194 -1.65729,-2.7621 -5.52427,-4.9719 -1.65728,-3.3145 4.97185,-9.9437 4.97184,-12.1534 2.20971,-14.3631 2.20971,-12.1534 -3.31457,-5.5243 -16.57281,-14.9155 0,-4.4194 -3.86699,-11.601 -12.1534,-3.867 -5.52427,-5.5243 -7.18155,-2.2097 -7.73398,-4.4194 0.55242,-11.0485 -9.39126,-4.4195 -7.18155,-6.6291 -2.76214,-13.2582 -4.41942,-3.867 -12.15339,1.1048 -12.70583,0.5525 -11.04854,3.3145 -13.81068,-2.2097 -12.1534,-4.9718 -3.86699,-4.4194 -3.86699,-14.9156 -15.46796,-13.8107 -3.86699,-7.1815 -1.10485,-10.4961 6.07669,-8.2864 10.49612,-14.3631 7.73398,-9.3913 6.62913,-16.0204 12.70582,-19.8874 -1.10485,-5.5242 2.20971,-4.9719 2.20971,-10.4961 2.2097,-12.7058 -2.2097,-14.9156 -3.31457,-11.0485 -1.65728,-17.1253 -3.31456,-13.2582 -4.41942,-7.1816 -4.97184,-0.5524 -10.49612,-6.0767 -13.81068,-4.9718 -13.25825,-3.867 -8.83884,-2.7622 -3.86699,-2.7621 -4.41941,-0.5524 -4.97185,-6.0767 -7.73398,-4.4194 -6.62913,0 -8.83883,-2.2097 -3.31456,1.1048 -13.25826,-2.7621 -8.83883,-4.4194 -2.76214,-4.4195 -8.2864,-3.3145 -3.86699,1.6573 -7.18156,-8.2864 -4.97184,-5.5243 -6.62913,0 -2.76213,-5.5243 -7.18156,2.2097 0,-3.867 -3.86699,-2.7621 1.10486,-3.867 -2.76214,-2.7621 -3.86699,-7.734 3.31456,-4.4194 -0.55242,-8.8389 3.31456,-4.4194 4.41942,-7.1815 0.55242,-7.734 2.76214,-4.4194 2.20971,-11.0486 -2.76214,-7.734 1.10486,-9.3912 10.49611,-8.8389 9.94369,-8.2864 8.28641,-3.3145 2.76214,-2.7622 9.39126,-18.2301 4.97184,-12.7058 13.25825,-16.5728 8.83884,-1.1049 2.76214,-6.6291 -0.55243,-6.0767 -9.39126,-10.4961 -7.18156,-3.3146 -4.97184,-0.5524 -15.46796,0 -14.91554,-11.0485 0.55243,-7.734 -11.04854,-6.0767 -7.73398,-7.734 -2.76214,-11.601 -9.94369,-16.0203 0,-17.6777 -8.83883,1.1048 -12.70583,6.6292 -1.65728,-3.3146 0.55243,-8.8388 2.20971,-13.2583 4.41941,-3.3145 10.49612,2.2097 2.76214,-4.4195 -3.86699,-4.9718 1.65728,-4.9718 1.65728,-13.2583 13.81068,-8.2864 11.60097,-7.734 10.49612,-8.8388 12.15339,-9.3913 7.73398,-3.3145 8.83884,-2.2098 3.86699,-3.8669 3.31456,-3.867 4.97185,-12.7059 7.18155,-14.3631 6.62913,-13.8106 3.86699,-1.6573 0.55242,-6.6292 2.20971,-2.2097 20.43981,-7.1815 11.60097,0 13.81068,0.5524 9.39126,-1.6573 13.25825,-1.1048 7.18155,-1.6573 13.81068,-1.1049 4.97185,1.1049 7.18155,0 4.41942,-4.9719 5.52427,-0.8286 3.86699,-1.9335 1.10486,-6.6291 6.62912,-5.5243 0.55243,-8.2864 1.10485,-11.0485 8.83884,-11.3248 7.73398,-9.115 6.62912,-0.5525 5.52428,4.9719 7.18155,0 11.04854,-8.8389 12.70583,-6.6291 7.73398,0 6.62912,1.1049 -3.86698,-3.3146 -10e-6,-3.867 -4.97184,-2.2097 -6.62913,-9.9437 -13.25825,-6.6291 -13.25825,0 -2.20971,-5.5243 -8.83883,-4.4194 -3.59078,-1.9335 -5.24806,-3.0383 -2.48592,-3.5908 -2.05339,-1.9328 -31.25,-26.5625 -2.34375,-6.25 -10.9375,0 -2.34375,-2.3437 -4.6875,-7.0313 -7.8125,-4.6875 0,-6.25 -6.25,-14.0625 -4.6875,-13.2812 9.375,-1.5625 5.46875,10.9375 1.5625,-10.1563 3.90625,-3.125 14.84375,-3.9062 9.375,-5.4688 8.59375,-1.5625 13.28125,-1.5625 21.875,-3.125 0.78125,-19.5312 7.03125,-10.1563 7.8125,-6.25 -6.25,-24.2187 0,-7.0313 1.5625,-6.25 3.125,-3.9062 8.59375,-10.9375 5.46875,-5.4688 -0.78125,-7.0312 -0.78125,-12.5 -9.375,-11.7188 -3.125,-7.0312 1.5625,-4.6875 -0.78125,-10.9375 -20.3125,-0.7813 -15.625,-14.0625 -12.5,-10.1562 -12.5,-0.7813 -13.28125,-3.9062 -13.28125,-2.3438 -10.9375,-6.25 -14.84375,-2.3437 -11.71875,-10.1563 -7.8125,-7.8125 -0.97656,-11.5234 2.53906,-1.7578 15.625,-7.8125 6.25,-3.125 -7.8125,-3.9063 -13.28125,-7.8125 -7.70393,-4.6427 -9.00065,-3.4093 -3.18626,-8.2864 -2.20971,-7.1816 -1.10486,-7.1816 -0.55242,-7.7339 2.76213,-6.0767 3.31456,-4.9719 3.86699,-4.4194 9.94369,-10.4961 1.65729,-2.7621 7.73398,-7.734 7.18155,-5.5243 0,-6.6291 1.10485,-4.9719 2.20971,-6.6291 3.31456,-6.0767 3.867,-5.5243 1.10485,-3.3145 1.65728,0 7.73398,-2.7622 6.62913,2.2097 2.76213,-1.6572 6.62913,-1.1049 7.18155,-4.4194 4.41942,-2.7621 1.65728,-4.4195 -1.65728,-2.2097 -4.97184,-4.4194 -1.65729,-8.8388 -0.55242,-3.867 -1.65728,-3.3146 -1.65729,-8.8388 -1.65728,-6.0767 0,-8.2864 4.41942,-7.734 -0.55243,-5.5243 -2.76213,-13.2582 2.20971,-14.9156 -1.65729,-12.7058 1.65729,-16.0204 -0.55243,-12.7058 3.31456,-6.0767 1.10486,-4.9718 2.2097,-2.7622 -1.10485,-2.2097 -11.04854,-9.9437 -9.39127,-9.3912 -9.39126,-11.0486 -3.31456,-3.3145 -2.76214,-6.0767 0,-9.3913 -1.10485,-3.3146 -1.65728,-4.9718 -4.41942,-7.1816 -4.41942,-3.867 -2.20971,-3.8669 -7.73398,-2.7622 0.55243,-4.4194 -3.31456,-6.0767 -2.76214,-4.9718 0,-7.734 -1.65728,-4.4194 -1.10485,-3.867 -3.86699,-4.4194 -2.76214,-5.5243 -5.52427,-5.5243 0,-3.3146 -3.86699,-14.9155 -3.86699,-13.8107 -3.31457,-12.1534 -1.65728,-14.9155 -0.55242,-14.3631 -1.10486,-4.9718 0,-7.734 -0.55243,-15.468 0,-3.3146 -1.10485,-3.8669 -1.65728,-6.6292 -1.10486,-4.4194 0,-5.5243 -1.65728,-8.2864 -8.83883,-7.7339 -9.39126,-8.2865 -3.86699,-2.7621 -2.20971,-2.2097 -3.31457,-11.601 -4.97184,-16.5728 0,-4.4194 1.10485,-2.7621 0,-4.9719 0.55243,-10.4961 0,-3.867 0,-11.0485 0,-3.3146 -0.55243,-4.4194 -2.2097,-8.8388 -2.20971,-8.8389 -3.31457,-3.867 -7.73398,-11.0485 -7.73398,-11.601 -5.52427,-8.2864 -1.10485,-4.4194 0,-7.734 2.20971,-4.9718 -10.49612,-4.4195 -4.41942,2.7622 -7.73398,1.6573 -5.52427,-2.2097 -4.97185,-6.6292 -3.31456,-3.3145 -10.49611,-11.0486 -10.49612,-13.8107 -8.83884,-12.1534 -4.97185,-8.2864 -3.31456,-2.7621 -7.18156,-6.0767 -2.76213,-3.3146 -2.76214,-6.6291 1.10486,-3.867 0,-3.3145 0,-2.7622 -0.55243,-2.7621 -4.41942,-4.4194 -6.62912,-1.6573 -3.86699,-3.867 -2.76214,-3.3146 -2.20971,-2.7621 -3.86699,2.2097 -3.31456,3.867 -8.28641,4.4194 -4.41942,0.5524 -8.28641,-7.7339 0,-4.4195 -2.2097,-8.8388 1.10485,-5.5243 -3.86699,-7.1815 -8.28641,-6.6291 -9.39126,5.5242 -7.733978,-8.2864 -4.75337,-3.9206 -4.6875,-4.6875 -3.125,-5.4688 -5.46875,-3.9062 -6.25,-8.2031 -7.03124,-10.1563 -4.29688,-7.0312 -7.03125,-3.5157 -2.73437,-1.5625 -10.156252,0.3907 -5.078125,0.3906 -8.59375,1.1719 -2.734375,-1.1719 -3.90625,-5.8594 2.734375,-9.375 3.90625,-11.3281 1.5625,-3.5156 7.03125,-5.8594 9.375,-10.1563 11.328127,-9.375 9.76562,-7.4218 14.84375,-6.25 11.32812,-5.8594 14.453128,-2.7344 14.45312,-0.7812 12.89063,1.5625 22.65625,3.9062 13.28125,3.5156 10.54687,4.6875 7.03125,-0.3906 12.89064,-5.0781 15.23437,0 13.28125,-0.7813 12.89063,0.7813 16.01562,2.3437 12.10938,4.2969 6.25,2.3438 6.25,0.7812 7.03125,1.5625 4.29687,-1.1719 3.125,-5.4687 5.46875,0.3906 4.6875,1.9531 8.20313,3.9063 13.28125,5.0781 1.5625,3.9063 9.375,4.6875 14.0625,3.125 5.07812,3.125 10.15625,6.6406 8.98438,5.8594 8.59375,7.0312 10.54687,7.8125 5.85938,4.2969 8.98437,8.5937 11.71875,7.4219 2.34375,-0.3906 8.98438,6.6406 10.9375,8.5938 11.71875,7.0312 5.85937,4.2969 3.51563,-1.1719 5.07812,-6.6406 2.34375,-5.8594 1.5625,-6.25 3.90625,-12.5 3.125,-8.2031 -1.17187,-5.4688 -4.29688,-4.6875 -0.39062,-7.4218 3.90625,-11.3282 5.46875,-15.2343 5.85937,-12.5 1.95313,-2.3438 3.125,-7.0312 3.90625,3.5156 1.5625,-9.375 -4.29688,-3.125 -0.78125,-4.2969 -5.07812,-6.6406 -4.6875,-9.375 1.95312,-1.9531 8.59375,1.9531 2.73438,-3.5156 1.5625,-3.9063 3.90625,-1.9531 5.85937,-9.7656 0.78125,-15.2344 62.5,16.0156 91.40625,-0.3906 -0.78125,-13.6719 -1.95312,-12.8906 0,-13.2813 0,-16.4062 -0.39063,-14.0625 -1.5625,-13.2813 0.39063,-0.3906 c 0,0 0.39062,-10.5469 0.39062,-13.6719 0,-3.125 1.5625,-13.2812 1.5625,-13.2812 l -1.17187,-14.4531 0.78125,-13.6719 -0.78125,-7.8125 5.85937,-2.7344 14.45313,-5.0781 6.64062,-7.4219 3.51563,-3.5156 6.25,-11.3281 7.8125,-10.5469 8.20312,-10.9375 11.71875,-14.0625 2.73438,-2.7344 4.29687,-7.8125 3.125,-2.7344 6.25,-8.9843 3.90625,-3.125 5.07813,-6.25 2.73437,-5.0782 2.73438,-7.0312 -0.78125,-4.2969 4.29687,-10.5469 0,-4.6875 0,-10.1562 1.95313,-2.7344 9.76562,6.6406 3.125,2.3438 9.76563,0 3.125,-2.3438 9.76562,-2.3437 5.46875,-1.9531 2.34375,1.1718 5.46875,-1.1718 1.17188,-3.5157 3.90625,0 1.95312,-1.9531 4.29688,-0.7812 1.95312,2.7343 0.78125,3.9063 5.85938,0 4.29687,-1.9531 5.85938,-3.9063 3.51562,-0.7812 6.64063,-3.9063 2.73437,-0.3906 4.29688,2.3437 13.28125,1.5625 9.76562,0.7813 4.29688,1.1719 6.64062,0.7812 0.78125,1.5625 7.8125,3.125 6.25,-0.3906 -1.5625,5.0781 0,4.2969 3.51563,3.9062 -0.78125,4.2969 1.5625,5.8594 -0.78125,2.3437 -3.125,4.2969 0.78125,3.9063 1.17187,4.2968 1.95313,8.9844 0.78125,4.2969 -1.95313,5.4687 -3.125,8.5938 3.51563,2.3437 10.15625,-2.3437 5.46875,11.7187 5.07812,9.7657 6.25,17.1875 3.90625,5.4687 -3.125,3.9063 3.125,3.125 3.51563,8.9843 -1.95313,1.9532 3.125,10.9375 7.81252,7.8125 5.8594,3.9062 5.0781,7.0313 2.7344,3.5156 4.6875,11.7187 9.375,16.4063 7.4219,12.1094 -5.0782,9.375 0,15.2343 -1.1718,4.6875 0,9.375 4.6875,-1.5625 6.6406,-4.2968 3.51559,-4.6875 6.25,-8.2032 -0.3906,-3.9062 1.5625,-9.375 6.25,-3.5156 5.0781,-8.2032 2.3438,-1.5625 7.4218,-7.0312 1.9532,-4.2969 3.5156,-9.375 2.3437,-3.9062 3.125,-7.0313 5.0782,-4.6875 1.9531,-13.2812 1.9531,-8.5938 3.125,-2.7344 7.8125,-12.5 6.25,-12.5 8.9844,1.1719 3.9062,-3.5156 0.3907,-5.8594 -1.9532,-10.9375 -1.5625,-10.5469 -1.5625,-10.9375 -2.3437,-10.5468 -2.7344,-10.5469 -8.9844,-10.5469 -5.8593,-3.5156 -14.4532,-7.0313 -6.25,-10.1562 -1.1718,-5.4688 3.125,-7.8125 7.4218,-9.375 -0.3906,-3.9062 2.3438,-4.6875 3.5156,-8.2031 5.0781,-1.9532 11.3281,-8.5937 -3.125,-7.8125 -0.3906,-6.6406 4.2969,-12.1094 1.1719,-3.9063 6.25,-0.3906 5.8593,0 5.8594,2.7344 5.4688,8.5937 9.375,1.5625 14.8437,2.7344 26.5625,7.0313 c 0,0 4.6875,8.9843 7.0313,11.3281 2.3437,2.3437 8.9843,-7.4219 8.9843,-7.4219 l 3.125,0 0.7813,-1.9531 7.4219,-12.8906 2.7343,-8.5938 8.5938,-8.2031 5.4687,4.2969 9.7657,0.7812 16.4062,-3.125 4.2969,2.7344 12.8906,0 14.4531,3.125 5.4688,-4.2969 4.8005,-2.431 9.9436,-11.0485 8.8389,1.1048 6.6291,5.5243 5.5243,7.734 13.2582,-15.468 3.3146,-11.0485 5.5243,2.2097 1.1048,-9.9437 -7.734,-5.5243 4.4195,-9.9437 -2.2098,-18.7825 4.4195,-12.1534 11.0485,-27.6214 13.2583,-3.3145 5.5242,-13.2583 3.3146,-14.3631 19.8874,-7.734 26.5165,5.5243 0,18.7825 -7.4578,26.7927 6.3529,31.7646 -5.5242,8.8388 13.2582,25.4117 8.8388,11.0485 16.5729,-3.3145 12.1534,-3.3146 14.3631,0 13.2582,4.4194 16.5728,0 9.9437,6.6292 6.6291,-6.6292 -6.6291,-7.7339 4.4194,-9.9437 2.2097,-11.601 1.1049,-6.0767 0,-5.5243 -4.4194,-5.5243 0,-12.1533 8.8388,-9.9437 1.1049,-7.734 4.4194,-7.734 8.8388,-9.9437 8.8389,-12.1534 8.8388,0 3.3145,-8.8388 6.6292,-5.5243 5.5242,-4.4194 1.1049,-8.8388 -5.5243,-6.6292 -14.3631,-8.8388 -12.1534,-13.2583 -13.2582,-15.4679 -18.7825,-8.8389 -17.6777,-2.2097 -11.0486,-4.4194 -15.4679,0 -12.1534,0 -14.3631,3.3146 -8.8389,0 -19.8873,-3.3146 -2.2097,-11.0485 -11.0486,-6.6291 -4.4194,-9.9437 -14.3631,-16.5729 2.2097,-18.7825 -4.6956,-17.9539 -4.6957,-19.0587 -0.5524,-12.4296 2.7621,-3.0384 3.867,-9.9436 3.3146,-14.3632 1.1048,-9.3912 -2.2097,-2.2097 -2.7621,-9.9437 -3.3146,-6.6291 -3.3145,-9.3913 -4.4194,-1.1049 -1.6573,-7.1815 -11.0486,-8.8388 1.1049,-6.6292 -1.6573,-11.0485 -1.1048,-14.9155 -1.6573,-14.9156 0.5524,-8.2864 -1.6573,-11.0485 -0.5524,-16.5728 -4.9719,-2.7622 -5.5242,-6.0767 -2.2097,-5.5243 1.1048,-4.4194 -4.4194,-9.9437 -5.5243,-1.1048 -2.7621,-8.8388 -2.7621,-4.4195 -7.734,-4.4194 -4.4194,14.9156 -12.1534,8.8388 -12.1534,-7.734 4.4194,-12.1534 -1.1049,-7.734 -2.5122,-10.4202 -9.375,-9.375 3.125,-3.125 -1.5625,-17.1875 -7.8125,-17.1875 -21.875,-21.875 -7.8125,-7.8125 1.5625,-9.375 20.3125,-10.9375 31.25,-32.8125 6.25,-6.25 -6.25,-6.25 0,-35.9375 -1.5625,-10.9375 20.3125,-1.5625 25,21.875 15.625,-31.25 12.5,6.25 20.3125,-9.375 13.2812,-6.6406 13.6719,-4.2969 14.0625,-4.2969 13.6719,-4.2968 10.9375,-5.0782 9.375,-3.125 4.2969,-2.7343 6.6406,-3.125 3.9062,1.5625 2.7344,3.5156 2.3438,7.4219 0,2.7343 1.9531,2.7344 -1.1719,8.9844 -1.1719,3.9062 0.7813,5.8594 2.3437,3.5156 3.125,4.2969 5.8594,2.7344 10.5469,0 18.75,-0.3906 3.125,-2.7344 5.4687,-5.0781 5.0782,-3.125 3.9062,-2.3438 4.2969,3.125 3.5156,-0.7812 1.1719,-1.9532 0,-2.7343 -2.7344,-5.0782 -4.2969,-5.0781 -4.2968,-7.0312 -3.125,-7.0313 -0.7813,-3.9062 -4.2969,0 -3.125,1.5625 -4.2968,3.5156 -2.7344,-3.125 6.25,-7.8125 5.4687,-6.25 12.8907,-2.7344 6.25,0 3.125,-3.5156 4.6875,-5.8594 4.6875,-7.0312 4.6875,-4.6875 5.8593,0 -4.6875,6.25 -2.3437,7.8125 -2.3438,4.6875 5.4688,1.9531 3.125,-2.3438 4.2969,-3.9062 1.5625,-5.4688 3.5156,-1.5625 8.9844,-2.3437 6.6406,-2.3438 0.7812,-4.2968 0.7813,-6.6407 20.7031,-12.1093 6.6406,0.3906 7.0313,3.125 5.8594,2.3437 4.2968,1.9532 3.9063,-2.3438 5.0781,-2.3437 1.9531,-3.9063 -0.3906,-4.6875 1.1719,-6.6406 1.5625,-4.6875 3.9062,-3.9063 7.0313,-8.5937 2.3437,-4.2969 5.0782,-7.0312 0.3906,-4.2969 -1.9531,-3.125 -0.3907,-6.25 3.125,-9.375 1.5625,-8.5938 1.5625,-4.2968 3.125,-0.3907 5.0782,-0.3906 5.8593,0 5.0782,0.3906 0.3906,-2.7343 -3.125,-4.2969 0,-4.2969 3.125,-1.1719 0,-2.7343 5.4687,-12.8907 1.9532,-4.6875 7.4218,0 2.3438,-2.7343 0,-3.5157 0.3906,0 1.5625,-3.5156 -1.1719,-3.9062 -2.3437,-0.3907 -5.4688,-0.3906 -5.0781,0 -2.3437,0 -3.5157,-2.7344 -1.1718,-2.7343 5.0781,-14.0625 1.9531,-4.6875 -2.7344,-2.3438 -0.3906,-2.7344 0.7813,-3.9062 1.1718,0 4.2969,1.5625 1.1719,-2.3438 5.0781,-0.7812 2.7344,-0.3906 0,-3.9063 0,-2.7344 3.5156,-4.6875 4.6875,-5.4687 7.0313,-5.4688 7.4218,-2.3437 7.8125,-1.9531 5.0782,-1.1719 8.2031,-1.1719 8.5937,0 7.4219,0 5.4688,-4.6875 5.8593,-2.3437 4.2969,-2.7344 7.0313,-5.4688 5.4687,-5.0781 6.25,-4.6875 6.25,-1.1719 7.8125,-2.3437 3.9063,-3.5156 0,-4.6875 -0.7813,-8.2032 0.7813,-11.7187 3.5156,-1.1719 12.8906,-2.3437 7.4219,0.3906 3.9062,-3.9063 0.7813,-4.2968 1.5625,-4.6875 2.7344,-9.7657 1.1718,-3.5156 0.7813,-7.4219 1.5625,-6.6406 12.1094,-4.6875 4.2968,-1.5625 10.5469,1.5625 5.4688,-0.3906 6.25,-5.4688 8.2031,-6.25 2.7344,-2.7343 4.6875,-7.0313 3.5156,-7.4219 1.9531,-1.9531 4.2969,0 7.4219,0.7813 8.9843,0 7.4219,-1.1719 5.4688,-4.2969 0,-2.7344 0.3906,-9.7656 -1.1719,-1.1719 0,-5.0781 0.7813,-5.8594 4.6875,-5.4687 7.4218,-7.4219 3.5157,-5.4687 5.4687,-8.2032 7.4219,-8.2031 0,-2.3437 6.25,-5.4688 1.5625,-2.3437 3.125,-1.1719 7.0312,-10.5469 0.7813,-7.0312 5.8594,-5.4688 1.9531,-4.6875 10.9375,-5.4687 8.5937,0.3906 7.4219,-2.7344 4.2969,-3.125 5.0781,1.1719 2.3438,3.9062 -0.7813,4.6875 0.7813,5.8594 -2.7344,2.3438 1.1719,2.7343 5.4687,7.8125 4.6875,0.3907 6.6406,6.6406 2.3438,5.4687 1.9531,1.9532 4.2969,4.2968 6.6406,-1.1718 3.9063,5.8593 0,7.4219 1.9531,8.5938 9.375,-0.3907 7.0312,6.25 3.125,3.9063 5.8594,5.0781 6.25,-1.9531 4.6875,0 5.0781,2.3437 6.25,4.6875 5.8594,8.2032 3.9063,3.5156 1.5625,8.5937 1.5625,5.4688 2.7343,7.4219 4.2969,3.9062 3.5156,7.4219 5.0782,3.5156 14.4531,0 12.5,0 9.7656,1.1719 4.2969,-0.3906 16.7969,0.3906 12.1093,-7.0313 5.8594,-2.3437 6.25,-1.5625 12.1094,-4.6875 8.9844,-3.9063 5.8593,-4.6875 6.25,10.5469 1.5625,8.9844 1.1719,4.6875 3.9063,7.4219 2.7343,5.4687 2.7344,8.5938 1.9531,2.7343 -0.3906,7.4219 0,4.2969 8.2031,0 3.9063,4.6875 0.7812,5.8594 -3.9062,3.5156 0.7812,4.6875 -0.3906,2.7344 4.2969,0.7812 0.3906,-3.5156 3.5156,-0.3906 2.7344,-0.7813 3.125,6.6406 2.7344,5.8594 4.6875,6.25 1.9531,3.125 0,10.5469 0.7813,5.8594 7.8125,4.6875 1.1718,10.1562 1.9532,4.6875 5.4687,7.8125 0.3906,5.8594 4.2969,8.2031 3.5156,1.5625 5.0782,0 6.25,2.7344 5.0781,5.4687 0.3906,5.8594 0.7813,7.8125 1.1718,4.6875 2.7344,3.9063 7.8125,8.2031 5.8594,10.1562 1.5625,5.0782 -0.7813,9.7656 -1.5625,4.6875 -0.3906,5.4687 3.9063,5.8594 0,10.1563 0,4.6875 -0.7813,9.375 5.0781,0 5.8594,-3.125 7.8125,-0.7813 12.8906,0 7.4219,6.25 4.2969,0 4.2969,0.7813 8.2031,1.5625 2.7344,1.9531 8.5937,7.0312 6.25,4.6875 7.0313,6.6407 -3.9063,5.0781 0.3906,5.0781 0,6.6406 4.6875,2.7344 0.7813,-5.0781 1.5625,-4.2969 1.9531,-5.0781 2.3438,-7.4219 -0.3907,-6.6406 3.5157,-2.3438 -0.3907,-4.2968 0.7813,-3.9063 4.2969,-9.375 4.6875,-1.9531 6.25,-7.0313 4.2968,-5.8593 1.5625,-7.4219 -0.3906,-3.9063 6.25,-7.4218 1.9531,-3.9063 3.125,-8.9844 2.7344,-5.4687 -3.5156,-1.9531 -4.2969,-0.7813 2.7344,-3.5156 0.7812,-3.9063 1.5625,-2.7343 -4.2968,-5.8594 -0.7813,-3.125 -0.3906,-3.5156 -1.9531,-0.7813 -3.9063,-1.1719 -2.3437,-3.125 -4.2969,-3.9062 -2.3438,-4.2969 0.3907,-7.8125 7.8125,-6.25 9.7656,-8.2031 10.1562,0 11.3282,-0.3906 3.5156,-4.2969 3.9062,-1.9531 2.3438,0 2.7344,-2.3438 6.25,-1.5625 12.1093,-4.2969 9.7657,-2.3437 5.0781,-1.1719 8.2031,0.7813 -7.4219,5.8593 2.7344,10.1563 -1.5625,7.8125 -0.7812,5.4687 -2.3438,13.6719 7.0313,12.8906 3.125,12.5 -0.7813,9.7657 2.3438,11.7187 0,5.0781 4.6875,4.2969 -0.3907,3.125 3.9063,6.6406 5.4687,-0.3906 9.375,-0.3906 5.8594,-1.1719 9.375,0 5.4688,-0.3906 1.1718,-8.9844 1.9532,-0.3906 12.5,-2.3438 11.3281,0.3907 3.5156,-2.3438 7.8125,-4.6875 1.1719,-3.9062 12.8906,-13.2813 1.5625,-1.9531 9.7656,0 3.125,3.9062 2.7344,4.6875 7.8125,5.4688 4.6875,1.1719 9.375,1.5625 3.5156,1.9531 4.6875,6.6406 3.9063,3.5156 6.25,7.0313 4.6875,2.7344 10.1562,3.9062 3.9063,0.7813 7.4219,3.125 3.5156,3.9062 5.0781,8.2031 2.7344,5.0782 5.4687,6.25 2.3438,5.4687 7.0312,5.4688 3.125,1.5625 0,2.7343 3.125,2.3438 7.4219,-0.3906 3.125,3.9062 3.5156,1.5625 0,2.7344 1.9532,2.7344 2.7343,3.9062 3.9063,3.5156 1.9531,5.4688 1.1719,3.9062 8.5937,3.9063 4.2969,0.3906 5.8594,-0.3906 2.7344,2.7344 5.0781,0.3906 7.4219,5.8594 0,5.4687 7.8125,1.1719 2.7343,3.5156 -0.3906,3.125 0.3906,3.9063 2.7344,2.7343 5.8594,1.9532 1.1719,2.3437 -4.6875,6.25 -1.5625,5.4688 3.9062,4.6875 -0.7812,3.5156 2.3437,3.9062 -1.9531,5.0782 5.4687,4.6875 0,7.0312 2.3438,3.125 2.7344,7.4219 4.6875,6.6406 7.4218,7.8125 0,3.9063 -5.0781,3.9062 2.7344,6.6406 4.6875,1.9532 3.9062,0 2.7344,-4.6875 5.8594,1.5625 4.6875,-2.3438 4.6875,-2.3437 8.2031,-2.7344 5.4688,5.4687 7.4218,0.3907 3.9063,0.3906 4.6875,0.7812 3.125,-1.9531 5.4687,-1.5625 4.2969,2.7344 3.125,2.3437 1.1719,5.4688 3.5156,4.2969 3.5156,1.5625 1.1719,1.9531 2.7344,1.5625 2.3437,1.5625 -1.1718,2.7344 -0.7813,3.9062 4.2969,2.7344 1.5625,3.5156 -1.9531,8.9844 1.9531,6.25 1.1719,5.4687 3.125,5.0782 3.5156,11.3281 2.3437,6.25 -0.7812,11.7187 -0.3906,8.2032 0.3906,4.2968 -2.7344,10.9375 0.7813,4.6875 6.25,6.25 0.7812,5.8594 0.3906,12.8906 3.125,5.4688 1.5625,6.6406 8.2032,7.0313 1.1718,3.5156 0,11.3281 0.3907,6.6406 -1.5625,5.4688 -1.1719,6.25 1.5625,8.2031 0.7812,6.25 -1.5625,6.6406 -0.7812,6.6407 0.7812,9.375 1.9532,3.5156 3.5156,7.0312 2.7344,6.25 0.3906,7.4219 1.5625,7.0313 2.3437,1.5625 1.1719,6.6406 2.7344,2.7344 4.6875,5.8593 -1.1719,6.6407 3.9063,8.2031 -3.125,4.2969 -2.3438,4.2968 -2.7344,6.6407 1.9532,7.0312 0.3906,9.375 -0.3906,4.6875 1.1718,10.9375 1.5625,4.6875 2.3438,2.7344 -1.5625,10.1562 5.4687,6.6407 0.3907,6.6406 0.1953,6.4453 0.5859,6.0547 0,7.0312 5.6641,5.0781 4.8828,5.4688 3.3203,5.8594 -0.3906,14.4531 0.7813,3.7109 5.4687,12.8906 c 0,0 2.9297,3.711 4.6875,3.9063 1.7578,0.1953 8.7891,5.8594 8.7891,5.8594 l 5.4687,8.9843 2.8672,2.6964 9.0189,7.6314 1.2141,9.8861 5.7235,5.7235 3.2954,4.1626 2.9485,3.2954 3.2954,3.6422 -0.3469,4.8563 0.3469,6.4174 -5.897,-1.9079 -3.1219,-0.6938 -5.5501,-0.3468 -3.6423,4.336 -3.9891,3.2953 -2.7751,2.9485 -2.6016,2.4282 -3.4688,5.0298 -5.0298,2.0813 -1.7344,2.6016 -1.7344,4.6829 -3.1219,9.0189 -1.561,2.775 -3.1219,3.2954 -2.6016,7.1111 0.5203,1.7344 -1.3875,6.9376 -2.4282,3.2954 -2.775,1.9078 0,3.1219 -3.9892,8.8455 0.1735,3.2954 -2.7751,3.9891 -4.5094,8.3252 -3.9892,5.3766 -3.6422,6.7642 3.6422,3.6423 10.233,9.3657 10.9268,0.6938 5.7235,-4.1626 5.3767,-2.775 4.8563,-1.9079 3.9892,-0.5203 5.2032,2.2547 6.2438,-0.6937 4.5095,-1.2141 8.672,1.3875 5.3767,0.5203 4.8563,-2.4281 4.336,-3.6423 6.0704,2.6016 3.122,1.561 8.8454,1.7344 7.458,1.561 9.3658,0 3.8157,2.6016 7.6314,0.3469 3.1219,0.5203 8.672,3.6422 8.4986,0 10.0596,5.7236 11.2736,7.111 7.4213,5.2716 z"
       id="Provincia_di_Isernia"
       style="fill:#e45c36;fill-opacity:1;fill-rule:evenodd;stroke:#ffffff;stroke-width:5;stroke-linecap:butt;stroke-linejoin:miter;stroke-miterlimit:4;stroke-opacity:1;stroke-dasharray:none;display:inline" />
    <path
       d="m 5103.1583,200.64815 -12.1408,-8.3251 0.6938,-4.1626 -1.0407,-2.0813 -4.5094,-1.3875 -1.7344,-3.4688 -5.5501,-2.4282 -13.5284,-7.9783 -6.2439,-3.8157 -2.0813,-0.3468 -3.4688,-3.122 -12.4877,-7.2845 -11.1002,-7.9782 -9.7127,-11.1002 -2.4281,-2.4282 -0.3469,-3.8157 -2.7751,-1.3875 -0.6937,-2.4282 3.1219,-4.1626 -1.0406,-0.6937 -3.122,3.4688 -4.8563,2.4282 -0.3469,2.775 -2.775,4.8563 -2.7751,-0.6937 2.0813,-5.5501 1.0407,-6.9376 -1.7344,-2.4282 1.3875,-3.8157 -0.6938,-0.3469 -1.3875,1.3875 -1.0407,-1.3875 2.4282,-2.4281 0.3469,-2.4282 -4.1626,3.8157 -3.4688,-1.0407 -6.2439,-4.1625 0.3469,-1.3876 -0.3469,-0.6937 -2.4281,1.7344 -4.1626,-3.122 -4.1626,-3.1219 -9.7126,-1.7344 -4.1626,-2.081297 -39.8913,-14.9159 -1.3876,-2.4281 -2.4281,0 -18.0379,-6.9377 -2.3414,-3.9024 -2.5149,6.3306 -3.6422,5.5501 -4.8564,3.8157 -4.336,3.8157 -2.6016,3.4688 -2.9485,7.111097 -2.775,5.5501 -7.6314,8.3251 -2.9485,2.2547 -4.5095,7.2845 -5.2032,14.5691 -4.336,13.1814 -0.1734,1.7344 -1.3876,5.7236 -2.0813,9.1923 -5.0297,9.8861 -0.6938,3.6423 -6.0704,7.1111 -3.9891,10.2329 -5.0298,13.7019 -1.561,2.4281 -4.8563,2.4282 -2.2548,7.8048 1.2141,3.4688 0.3469,8.3252 -0.3469,3.2953 -0.6937,4.8564 -6.9377,7.6314 -4.8563,10.233 -2.775,4.6829 -1.2141,5.2032 -10.5799,15.0893 0.3469,7.8048 10.5799,1.0407 7.8048,0 6.0704,1.5609 37.1163,10.9268 2.0813,2.4282 6.9376,0.5203 6.9376,3.2954 5.0298,6.4173 0.5203,3.9891 3.8157,7.6314 2.6016,1.2141 7.458,3.4688 5.0297,3.8157 1.7344,1.7344 5.5501,1.214 7.8049,3.9892 5.8969,1.3875 3.122,3.1219 -0.8672,11.6206 -4.5095,9.0189 -0.8672,3.6422 -4.6829,7.8048 -3.8157,2.9485 -5.3766,8.3252 -0.8672,6.5907 -3.6423,4.5095 -3.1219,3.9891 -6.7642,5.3767 -4.5094,2.4281 -1.7345,2.0813 -13.8752,11.1002 -0.6938,3.1219 -6.9376,0.6938 -4.5094,3.1219 -10.7534,9.7127 -4.5094,4.1626 -3.4688,5.2032 -4.8564,6.5907 -1.0406,4.5095 -3.1219,2.4282 -3.122,5.2032 -7.6313,6.9376 -4.5095,1.3875 -5.5501,4.5095 -15.6097,5.897 -4.5094,1.3875 -8.3252,2.775 -11.7939,6.9377 -3.4688,2.775 -7.9783,6.5908 -10.7533,9.7126 -10.0596,9.7127 -1.7344,2.775 -5.5501,7.2846 -11.447,9.0189 -4.1626,0.3468 -11.1002,0 -11.4471,5.5501 -4.5094,1.7344 -4.1626,0 -4.1626,3.122 -3.4688,3.1219 -10.7533,3.1219 -4.1626,0.6938 -9.0189,3.4688 -8.3251,3.8157 -9.019,1.7344 -11.1002,7.6314 -8.3251,4.1626 -7.6314,9.0189 -13.1815,8.3252 -4.8563,3.4688 -6.2439,3.4688 -6.9376,9.0189 -4.336,2.6016 -2.4282,2.775 0.5204,4.1626 -1.7345,2.9485 -3.1219,4.1626 -7.111,4.1626 -1.2141,5.3766 -1.3876,3.9891 -3.2953,1.7344 -0.3469,3.8157 -3.6423,3.0352 -1.3875,1.8212 0.087,3.8157 -5.1165,5.8969 -5.9837,5.897 -2.168,2.0813 -4.8563,9.3658 -11.1002,13.1815 -4.8563,10.7533 -2.4282,12.8346 -2.0813,5.2032 -5.897,7.2845 -2.4281,2.0813 -6.5908,7.6314 -6.2438,6.5907 -4.1626,-3.8156 -3.1219,4.8563 -0.3469,7.9783 -3.8157,1.7344 0.6937,3.4688 -6.5907,5.8969 -2.0813,5.5501 -3.4688,5.897 1.3875,3.4688 -5.2032,11.794 -7.9783,11.1002 -2.775,4.1626 -3.4688,3.1219 3.8157,2.0813 3.4688,0.6937 -6.2439,6.9377 -2.775,3.4688 -7.9783,4.8563 -13.1815,7.2845 -12.4877,5.2032 -12.1408,11.1002 -4.5095,6.2439 -1.3875,3.4688 -4.5095,7.6314 -10.4064,11.1002 -6.2439,11.7939 -6.9376,11.44705 -8.3251,10.4065 -4.1626,2.4281 -5.897,7.6314 -9.7127,9.7127 1.0407,4.5094 -4.8563,6.9377 -3.8157,5.2032 -5.5501,5.5501 -3.122,3.4688 -4.5094,7.2845 -0.6938,5.5501 -6.5907,5.2032 -2.4282,3.8157 -6.9376,7.2845 -3.4688,4.1626 -5.897,4.8563 -4.1626,1.3875 -2.775,2.0813 -4.1626,4.1626 -8.3252,11.1002 -0.6937,4.8563 -7.6314,8.3252 -1.7344,9.7126 -9.3658,14.2221 -3.1219,9.3658 -4.8564,8.3252 -0.6937,20.8128 1.7344,12.1409 3.1219,14.9159 1.7344,24.6285 1.3875,7.2845 -0.3468,1.3876 -1.0407,3.4688 -4.8563,18.7316 -0.6938,17.344 0,18.0378 -3.4688,4.1626 0.6938,8.3251 -1.3876,4.1626 -2.775,6.2439 1.3875,7.6314 0,10.4064 -6.2438,11.1002 -4.1626,5.5501 -4.8564,6.9376 -7.6313,8.3252 -4.8564,2.0813 -9.7126,6.2438 -4.1626,2.6016 -6.0705,4.6829 -3.8157,3.1219 -4.6828,6.9377 -2.0813,2.0813 -0.3469,2.6016 -3.4688,9.3658 -1.561,5.3766 -3.8157,6.0704 -3.1219,5.897 -2.775,8.1517 -2.4282,4.8564 -2.9485,7.2845 -4.1626,4.6829 -3.6422,4.5094 -11.4471,0.6938 -3.6423,-3.8157 -3.1219,-2.2548 -8.8455,-3.1219 -3.9891,-2.0813 -6.2438,-3.2953 -3.2954,1.0406 -2.0813,2.0813 -3.2954,2.6016 -0.3469,5.7235 -1.7344,3.6423 1.561,13.008 0.3469,6.0705 -3.8157,5.8969 -2.9485,3.6423 -5.0298,2.9485 -8.1517,3.4688 -8.8454,2.775 -4.8564,1.561 -7.2845,2.0813 -5.0298,1.9078 -9.0189,1.7344 -5.897,3.122 -6.9376,2.6016 c 0,0 -5.2032,1.9078 -5.897,1.9078 -0.6937,0 -8.672,3.6423 -8.672,3.6423 l -4.336,2.0813 -7.9783,2.9485 -4.6829,1.9078 -7.111,3.4688 -5.5501,1.9079 -6.9376,5.2032 -4.3361,2.2547 -8.3251,3.8157 -3.2954,3.1219 -2.6016,2.7751 -0.3469,3.8157 -1.3875,1.5609 -2.9485,2.9485 -9.1923,3.4688 -3.2954,2.4282 -1.561,5.5501 -0.6937,3.9891 0,4.5095 -2.7751,9.7127 -0.5203,4.6829 -4.5095,6.4173 -3.8156,4.8563 -0.8672,8.672 -1.561,5.2032 -3.2954,8.1517 -4.6829,4.6829 -4.336,6.5908 -1.9078,5.3766 -1.7344,8.4986 -5.2033,6.2439 -2.9485,6.2438 -3.8156,4.8564 3.1219,7.9782 -7.6314,7.6314 -2.4282,9.7127 -4.1625,9.7127 -4.1626,8.672 0,9.7127 -2.0813,4.5094 -4.8563,1.7344 -4.8564,1.7344 -7.2845,10.0596 -3.4688,6.5907 0.3469,4.1626 -6.5908,4.8563 -4.8563,8.6721 -2.0813,11.1002 -2.775,13.5283 -3.4688,2.0813 0.3468,5.2032 1.7345,4.8564 2.0812,9.7126 0,3.8157 0,13.8753 0.6938,13.5284 -1.0406,4.1625 0,8.3252 0,5.897 -3.8157,7.9782 -7.2845,12.1409 -3.4689,1.3875 -10.4064,4.1626 -3.4688,2.775 -7.2845,4.1626 -11.794,6.9376 -4.8563,3.1219 -4.5095,5.5501 -8.3251,10.7533 -9.0189,11.794 -8.672,11.1002 -4.8564,15.6097 -0.3469,11.1001 -0.3468,19.4254 -4.8564,4.1626 -6.2438,5.2032 -11.4471,6.5907 -4.8563,2.4282 -4.8564,7.6314 -1.0406,4.1626 0,2.4281 -2.4281,4.1625 -1.3875,12.4877 -4.1626,13.8753 -8.3252,13.8752 -9.7126,12.4877 -7.6314,9.7127 -9.7127,9.0189 1.2141,11.1002 -2.9485,8.3252 -7.9783,7.6314 -2.4281,4.6828 -7.9783,-2.6016 -9.5392,-7.2845 -2.9485,-2.775 -9.7127,0.1734 -11.1002,4.5095 -8.3251,5.3766 -13.355,0.8672 -13.7018,2.7751 -15.4362,5.2032 -3.2953,0.8672 -5.897,2.2547 -7.6314,10.7534 -4.8563,7.4579 -1.9079,3.4688 -9.8861,12.3143 c 0,0 -0.1734,2.6016 -1.3875,4.1626 -1.2141,1.5609 -7.1111,7.2845 -7.1111,7.2845 l -4.1626,4.1625 -3.1219,3.6423 -3.8157,8.3251 -6.0704,7.1111 -0.8672,6.7642 -2.4282,5.0298 -1.3875,5.2032 -2.6016,6.0704 -1.9079,7.9783 0.5204,3.1219 -5.5501,6.0704 c 0,0 -1.3876,6.4173 -2.0813,6.4173 -0.6938,0 -3.6423,0.5203 -3.6423,0.5203 l -3.8157,-2.0812 -7.2845,-7.1111 -2.9485,-0.5203 -2.4281,8.4986 -1.2141,5.3766 -0.3469,1.9079 -1.7344,2.2547 0.1734,4.1626 -2.2547,4.1625 -0.8672,2.6016 -1.9078,3.2954 -3.122,-1.0406 -3.9891,-2.7751 -2.775,-1.7344 -5.7236,-1.7344 -6.9376,-5.0298 -0.3469,3.6423 1.9079,2.775 1.9078,2.7751 2.2547,9.3658 5.0298,4.336 1.561,5.0298 1.0406,6.4173 0.1735,4.1625 2.0812,3.8157 -1.5609,3.4688 0,2.9485 3.4688,3.8157 0,2.7751 -0.8672,3.4688 0.5203,10.7533 -10.233,5.2032 -8.4986,16.13 -2.9485,5.7235 -3.6422,7.1111 -7.1111,10.4064 -8.4986,-1.7344 -3.8157,2.0813 -5.0297,0 -6.0705,3.8157 -5.3766,0 -7.458,4.336 -0.5203,2.4282 -4.1625,3.1219 -5.7236,2.4282 -3.9891,-0.8672 -6.5908,9.8861 -3.4688,8.672 -9.0189,6.7642 -2.0813,5.7235 -4.6829,0.8673 -4.336,0.3468 -6.5907,2.9485 -9.1924,2.7751 -6.0704,2.2547 -9.5392,4.8563 -3.4688,1.0407 -5.0298,0.3469 -3.4688,3.4688 -2.7751,4.1625 -1.0406,3.6423 -4.5095,4.1626 -6.7642,6.7642 -2.4281,4.1625 -3.8157,6.0704 -6.5908,2.2548 -7.9782,3.4688 -7.8048,1.9078 -4.3361,3.2954 -4.1625,8.672 -5.2033,6.7642 -1.3875,3.8157 -2.4281,10.0596 -7.9783,6.9376 1.2141,7.111 -0.1735,10.0596 -9.3658,5.7235 -3.6422,4.8564 -0.6938,5.2032 2.7751,5.7235 -1.2141,6.0705 -7.2845,2.4281 -8.8455,0.1735 -4.336,3.9891 -10.0596,5.0298 -3.4688,2.6016 -9.0189,4.6829 -1.9078,0.5203 -2.2012,-0.5403 -11,10 -10,30 -9,41 -29,26 -1,6 40,6 43,59 54,5 15,6 1,14 11,14 19,2 6,17 21,6 -3,-20 22,-1 25,33 7,24 0,28 7,2 -10,108 22,9 1,58 -30,0 -84,75 -1,18 -19,8 -5,24 4,19 23,6 -4,17 -37,14 -1,22 -27,18 -17,-17 -9,-40 -22,-20 -18,0 -76,16 -42,39 3,40 -34,28 -50,-5 -49,-32 -12,-18 -19,-2 -34,35 9,12 14,64 c 0,0 10,-1 15,3 5,4 -1,15 -1,15 l -14,42 -14,-2 -27,26 -9,59 25,23 15,4 8,-14 66,-30 1,-17 21,-17 16,0 16,24 -4,20 72,31 29,12 28,7 6,7 42,8 15,104 17,0 7,10 57,0 24,23 43,37 9,26 1,7 1,25 -23,41 -16,-4 -25,27 -20,-2 -35,25 c 0,0 11,113 11,117 0,4 27,14 27,14 l -22,19 -20,-3 -108,100 6,29 -21,0 2,68 9,6 -1,49 -74,-58 0,103 -37,42.9999 -4,33 29,20 -5,20 -17,6 -43,2 -71,-52 -31,0 -147,140 -8,-18 -39,0 -19,17 -1,46 -10,3 -1,126 -5,50 -37,168 -10,49 18,22 -1,19 0.4063,1.2536 12.5,5.0781 5.2207,0.067 12.8906,-1.1719 8.9844,0.7813 11.7187,7.4218 5.4688,2.3438 12.8906,7.4219 12.5,7.8125 17.9687,12.8906 3.125,3.5156 20.7032,-0.3906 7.8125,-1.1719 11.3281,-6.25 10.5469,-4.6875 5.4687,-3.9062 5.8594,-6.6407 10.5469,-2.3437 8.9843,0 5.4688,-1.5625 6.25,0 9.375,12.1094 7.0312,7.4218 -2.3437,10.5469 2.7344,9.375 4.6875,12.5 5.4687,2.3438 8.5938,0 -1.1719,11.3281 -1.1719,9.375 28.125,-2.3438 2.3438,12.8907 5.4687,4.2968 5.8594,-1.5625 7.0312,3.5157 3.5157,5.0781 5.0781,-0.7813 8.2031,3.5157 8.9844,2.7343 13.6719,1.5625 15.625,0.7813 10.9375,2.3437 14.8437,-0.7812 14.0625,2.3437 16.7969,0.7813 14.0625,0.3906 8.5937,-4.6875 17.9688,0.7813 4.2969,9.7656 0.7812,4.6875 7.0313,-0.3906 10.5468,12.8906 9.375,10.1562 13.6719,16.4063 6.6406,8.2031 5.4688,0.3906 7.8125,1.9532 9.375,-2.3438 6.25,-7.8125 7.8125,3.9063 9.7656,5.0781 11.7188,3.9062 14.0625,0 2.3437,2.3438 5.4688,1.1719 7.8125,7.0312 6.25,11.7188 5.0781,9.375 3.9062,5.0781 0,5.4687 -4.6875,3.9063 2.3438,5.8594 -6.25,5.8593 -8.5938,5.8594 -7.4218,4.2969 7.0312,10.1562 1.9531,7.8125 -0.3906,5.4688 1.5625,5.8594 10.9375,1.9531 5.4688,3.5156 -0.7813,25 0.3906,9.375 3.9063,5.8594 -5.4688,8.5937 0.3907,3.125 7.4218,0.3907 2.3438,10.5468 5.0781,12.5 4.6875,6.25 3.125,10.5469 10.5469,20.7031 5.8594,7.0313 9.375,3.125 5.4687,5.8594 7.0313,0 8.5937,2.7343 13.2813,5.4688 c 0,0 11.7187,0.3906 13.2812,0.7812 1.5625,0.3907 6.6406,1.5625 6.6406,1.5625 l 3.9063,6.25 1.1719,5.8594 5.8593,5.4688 9.7657,7.4218 3.9062,9.7657 1.1719,6.25 5.8594,1.5625 5.8593,4.2968 13.2813,0.3907 12.8906,-3.125 7.0313,-7.8125 12.1093,-5.4688 13.2813,0.7813 9.7656,-0.7813 13.2813,-7.0312 8.9843,-5.4688 10.5469,3.9063 9.375,2.3437 6.6406,-2.3437 3.5157,2.3437 7.0312,1.1719 8.9844,4.6875 12.1094,5.0781 5.0781,2.7344 17.9687,-0.7813 7.8125,4.2969 12.5,3.9063 10.9375,1.1718 5.4688,0 8.2031,2.3438 12.5,-2.3438 11.7188,5.4688 12.5,3.9062 6.25,5.8594 -0.3907,3.5156 3.9063,-0.7812 6.25,-13.2813 10.9375,-10.1562 5.8594,-12.5 9.375,-11.3281 12.5,-2.3438 5.0781,-1.5625 3.5156,-7.4219 6.25,-11.7187 7.8125,-11.7188 9.375,-9.375 9.375,-7.4218 5.0781,4.6875 5.0782,3.125 8.2031,0.3906 4.6875,1.5625 7.8125,4.6875 1.9531,2.3437 11.3281,0.7813 5.0782,7.4219 7.4218,13.2812 13.6719,16.7969 3.125,10.9375 10.5469,14.0625 8.5937,6.25 9.7657,-2.3438 6.6406,12.5 7.0312,14.4532 6.6407,10.9375 3.9062,4.6875 -0.7812,6.25 -1.1719,4.2968 -6.6406,3.5157 -8.2032,11.7187 -10.1562,2.7344 -1.5625,0.7812 c 0,0 5.8594,4.6875 4.2969,7.0313 -1.5625,2.3437 2.3437,3.125 2.3437,3.125 l 10.1563,3.125 5.8593,1.9531 6.6407,-2.7344 16.4062,9.375 0.7813,5.0782 6.25,5.4687 2.7343,1.5625 15.2344,0 13.6719,9.7656 4.2969,3.9063 7.8125,1.1719 7.4218,10.9375 6.25,3.5156 2.7344,-0.7813 3.5156,-4.6875 5.4688,-9.7656 10.1562,-10.5469 7.0313,-7.0312 2.3437,-3.9063 2.7344,-3.125 2.3438,4.2969 3.9062,0 1.5625,-2.3437 2.3438,3.125 12.5,0 3.9062,-1.1719 4.6875,2.7344 7.0313,-0.7813 3.5156,-13.6719 12.5,-8.2031 7.8125,-10.1562 8.2031,-8.9844 12.5,-9.7656 3.125,-6.25 4.6875,-0.7813 7.8125,-5.0781 4.6875,-7.4219 8.2031,-7.4219 9.375,-10.1562 3.9063,-14.8438 3.125,-14.0625 5.0781,-11.7187 7.0313,-10.1563 5.0781,-5.8593 10.1562,-10.1563 12.1094,-7.8125 2.7344,-2.3437 -2.3438,-8.2032 10.1563,-7.8125 12.8906,-4.6875 12.5,-8.2031 3.9063,-4.2969 0.3906,-4.6875 4.6875,-5.4687 2.7344,1.1719 12.8906,-15.2344 5.8594,-0.3906 2.7343,0.7812 7.0313,-4.6875 26.5625,1.1719 7.4219,6.25 16.4062,7.4219 5.4688,12.8906 0.7812,2.3437 6.25,3.125 3.125,-8.5937 5.8594,-9.375 10.5469,-9.7656 6.25,-13.2813 1.9531,-2.3437 -0.3906,-9.375 -11.3282,-6.25 -5.8593,-1.5625 -5.4688,-9.375 -7.8125,-7.4219 0.7813,-7.4219 3.9062,-9.375 2.3438,-3.5156 -0.3907,-5.8594 13.6719,-4.6875 15.2344,0.3906 10.5469,3.125 17.9687,-4.6875 c 0,0 6.6406,-4.2968 11.7188,-4.2968 5.0781,0 20.3125,-5.0782 20.3125,-5.0782 l 5.4687,0.7813 9.7656,-5.0781 4.6875,2.7343 12.8907,-11.3281 11.7187,-5.8594 10.1563,-5.8593 17.5781,3.5156 10.1562,3.5156 14.0625,0 13.2813,0 12.8906,-3.9062 11.3281,3.125 8.5938,4.2968 4.6875,4.6875 5.0781,7.0313 3.9063,7.8125 6.25,12.1094 4.2968,10.9375 9.375,7.8125 7.0313,-3.9063 7.4219,8.9844 5.0781,4.2969 6.25,1.9531 3.125,3.5156 18.3594,6.25 7.8125,1.9531 9.375,-3.9062 12.1093,-6.6406 13.6719,-8.5938 21.875,-3.9062 6.25,-5.0782 8.2031,-0.7812 19.9219,-10.1563 14.0625,-5.4687 3.125,-5.8594 6.6406,1.9531 16.7969,-6.25 10.1563,-1.1718 12.1093,-2.7344 14.4532,-0.7813 15.625,1.1719 12.8906,-4.2969 13.2812,-3.125 5.8594,-2.7343 12.5,-14.4532 6.6406,-16.4062 3.9063,-8.9844 5.8594,-5.0781 15.2343,-6.6406 14.0625,-6.6407 8.9844,-8.9843 3.5156,-19.1407 -10.9375,-12.5 0.7813,-12.5 5.0781,-6.25 0.3906,-1.9531 4.6875,-2.3437 6.6407,-11.3282 1.9531,-7.8125 5.8594,-7.0312 8.2031,-12.5 9.375,-10.5469 3.5156,-6.6406 3.125,-19.5313 0.3418,-4.3945 0.9707,-7.6992 1.25,-11 -8,-14.5 -4.25,-4.5 0.75,-3.5 1.75,-1 -0.25,-9 7.75,-6.75 4.5,-13.25 8,-10.5 4.7959,-4.5718 8.1318,-8.8388 8.4852,-9.1924 c 0,0 3.5356,2.1213 4.2427,0 0.7071,-2.1213 7.7782,-8.1317 7.7782,-8.1317 l 6.0104,-5.3033 2.4748,0.3535 3.8891,-4.9497 6.364,-5.6569 3.8891,-1.4142 9.5459,-4.2426 4.5962,-1.0607 8.4853,0.3536 11.6673,-1.0607 1.4142,6.0104 9.5459,1.0607 4.9498,1.7677 9.8994,4.5962 14.8493,6.7176 12.0208,4.2426 11.6673,6.364 5.3033,5.6568 4.5962,4.2426 12.3743,-0.3535 8.8389,3.8891 5.6568,6.3639 6.364,3.5356 2.2889,2.497 7.375,15.5 6.25,10.125 -0.25,9.25 2.5,2.25 6.875,7 8.25,1.5 2.5,2.75 3,0.75 7.5,0 7.125,3.25 c 0,0 10.25,4.5 10.875,4.5 0.625,0 24.75,23.125 24.75,23.125 l 3.375,4.125 4.75,2.5 9,5.25 9.5,5 2.75,0 3.75,-1.875 3.75,0 3,2.625 5.875,0.25 11.25,4.875 9.25,2.5 3.25,6.25 5,11.875 10.5,6.5 2.5,1.5 12.875,5.625 10.625,9.125 11.875,4.125 5.375,2.125 14.625,3.25 22.875,0.375 14.75,5 3.375,2.125 11.25,-1.375 3.75,-4.25 7.25,-9.5 5.625,0.625 6.625,-2 18,4.25 3.375,-2 8.5,-6.125 10.125,-7.25 3.625,-5.5 7.875,-10.875 9.375,-10.875 10.875,-7.375 4.625,-5.25 2.25,-7.625 6.875,-15 4.875,-9.625 3,-8.25 5.25,-3.875 9.5,-9.5 4.375,-8 3.5,-9.75 3.75,-5.25 10.625,-8.75 7.625,-4.625 7.125,2.375 7.375,0.75 4,-2.375 6.5,-5.625 10.5,-9.5 3.375,-6.375 20.125,0 17.875,-10 c 0,0 5.5,0 6,0 0.5,0 7.75,-3.125 7.75,-3.125 l 19.875,0 13.25,-2.5 4.5,-1.75 8.625,-6.875 15,-8.125 7.5,-1.125 15.5,-0.625 11.625,4.875 16.875,0.5 15.625,-8.375 19,1 12.125,-4.5 17.625,-0.5 6.5,-2.75 8.75,0.75 7.25,-1.25 9.25,-5.25 9.5,-4.625 10.625,-3 13.375,-3.375 7.75,-3.75 8.25,0.75 9.75,-3.375 10.25,-6.75 6.25,-4 5.375,-4.375 4.375,2.125 6.25,0 3.625,-3.375 2,-9.25 9.25,-5.25 13.375,-8.875 6.375,-7.875 5.75,-12.25 4,-10.125 7.375,-2.125 5.875,-5 10,1 8.625,1 5.75,-1.75 12.625,0.75 4.75,-2.5 13.125,-1.875 2.875,-2.125 6.75,-1.125 3.875,-2.75 5.625,-0.25 3.5,-1.75 3.375,-2.875 5.375,-3.75 15.625,-1.125 6.75,-1.75 3.25,-2.25 5.375,-5.875 3.375,-8.625 2.5,-4.875 5.5,-12.5 -1.5,-8.125 -4.125,-4.125 -5.625,-13.75 0.625,-13.5 0.75,-3.875 2.125,-1.375 7.875,-0.5 5.625,-3 3.875,3.125 10.5,0.5 7.875,-3.375 7.875,0.625 12.875,-3.5 14.25,-4.125 3.75,-7.125 3.5,-4 5.125,-6.5 8,-7.25 1.5,-3.875 0.75,-4.25 0,-5.625 9,0 8.375,-1.125 6.625,-1.375 6,-3.375 5.5,-0.875 7.25,-0.125 -0.5,-1.75 -4.125,-6.25 -8.125,-17.75 -12.25,-21 -12.625,-6 -8.25,-8.125 -9.5,-13.5 -5,-9.25 -5.25,0.75 -4,-3.75 -6.75,-5.75 -12.25,-5 -2,-6.75 -11,0 -7,-3.25 -4.75,-3.75 -8,-10.25 -3.75,-6 -4.75,-2.75 -7.75,-6.25 -3.75,-7.5 -4.25,-1 -2.25,-3.75 -7.25,-4 -6.25,-2.75 -5,-4.25 -0.75,-5.5 -4.5,-7.5 -4,-4.5 -4,-5.5 -10.5,-16.5 -5.5,-5.5 -9.5,-10 -13.5,-22 -8.5,-12.5 -5.5,-10 -7.5,0 -6.5,-2.5 -6,-4.5 -6,-0.5 -10,3 -8,-2.5 -7.5,-5 -9.5,-3 -8.5,1.5 -7,-5 -4,-8.5 0.5,-6 -6,-1 -4.5,14.5 -1.5,7 -3,5.5 -3,-1.5 -10,-8 -8.5,-6 -9,7.5 -4.5,-5 -8.5,-11.5 -9.5,-6.5 -6.635,-8.5601 -6.7176,-10.2531 -6.3639,-7.4246 1.7678,-5.8336 -0.1768,-36.7696 -0.8839,-29.6985 -1.9446,-27.7539 -3.3587,-31.8198 0.5303,-25.2791 0.5304,-18.0312 7.7781,-16.4402 0.1768,-3.8891 1.4142,-16.4403 1.0607,-13.0814 0.5303,-11.137 2.4749,-2.8284 8.3085,-9.1924 5.3033,-10.9601 7.4246,-12.9047 5.6569,-9.7227 -0.8839,-2.8285 -4.2427,-12.0208 -2.2981,-15.7331 c 0,0 1.7678,-10.2531 1.7678,-11.6673 0,-1.4142 10.2531,-10.7834 10.2531,-10.7834 l 9.8995,-7.6014 7.6013,-8.3085 -0.5303,-3.5355 -8.3085,-21.9203 -4.4194,-14.1421 -3.182,-6.5408 0,-4.5962 -4.4194,-12.9047 0,-9.3691 -1.2374,-4.0659 -3.0052,-13.9654 1.7677,-8.8388 2.1213,-4.5962 11.3138,-7.4246 13.435,-11.844 9.0156,-9.8995 2.1213,-8.6621 -0.1768,-11.4905 -1.9445,-5.3033 -14.6725,-23.1577 -3.0052,-7.2479 -5.3033,-21.5667 -7.2478,-11.8441 5.3033,-11.1369 4.5962,-12.0208 4.5962,-12.3744 6.1872,-12.3744 3.5355,-1.2374 15.2028,-1.4142 10.0763,-4.4194 3.0052,-3.7123 -1.2375,-9.3692 -4.2426,0.5303 -14.6725,-0.3535 -8.1317,-4.9498 -3.0052,-5.8336 -8.3085,1.9445 -3.0052,-1.5909 -9.1924,-6.364 -11.1369,4.9497 -5.4801,1.7678 -3.8891,-1.9445 -4.773,-12.5512 -3.182,-4.5962 -10.0762,-11.6672 -7.4247,-8.3085 -3.0052,-1.9446 -7.7781,2.2981 -5.8337,-4.0659 -3.1819,-4.5961 0.7071,-7.4247 0,-5.6568 1.7677,-9.0156 5.4801,-10.4299 5.1265,-7.4246 6.1872,-4.773 9.7227,-7.7781 12.728,-9.7227 8.662,-6.364 5.1265,-6.7175 7.2479,-6.364 5.4801,-6.7175 5.3033,-3.8891 6.7175,-3.7123 1.4142,-5.8336 5.6568,-3.182 3.3588,-4.9498 3.8891,-5.8336 1.2374,-10.253 3.8891,-11.137 3.3588,-7.9549 4.4194,-3.5355 c 0,0 5.4801,-3.0053 6.3639,-3.3588 0.8839,-0.3536 5.3033,-7.2479 5.3033,-7.2479 l 2.4749,-8.662 4.5962,-4.2426 0.8839,-4.773 3.0052,-13.7886 1.7678,-9.1924 1.4142,-4.773 3.182,-7.6014 5.3033,-3.0052 12.7279,-0.8838 9.5459,-1.2375 4.0659,3.8891 11.1369,8.3085 6.364,12.3744 c 0,0 9.7227,6.3639 11.4905,6.3639 1.7677,0 5.48,4.2427 7.071,4.0659 1.591,-0.1768 8.6621,1.7678 8.6621,1.7678 l 14.6725,4.0658 14.1421,4.5962 13.6118,1.7678 14.4957,-0.3536 10.4298,-4.0658 14.6725,6.3639 16.617,4.9498 7.4246,5.6568 4.773,0.3536 1.9445,8.6621 -3.0052,7.6013 -1.2374,8.3086 c 0,0 0.1768,9.1923 0.1768,10.0762 0,0.8839 -0.1768,5.8337 -0.1768,5.8337 l 1.7678,8.8388 3.0052,7.7782 2.8284,3.7123 6.3639,5.8336 10.4299,8.4853 4.9497,4.0659 11.8441,0.5303 7.9549,5.3033 7.7782,5.6568 3.7123,-1.2374 1.2374,-5.4801 0.5304,-9.3691 1.2374,-6.364 2.2981,-4.5962 8.8388,-1.9445 13.2583,2.8284 7.071,7.4246 5.4801,9.7227 -0.7071,7.955 -0.3535,13.9653 -0.3536,5.6569 7.955,6.5407 5.6568,4.2427 7.7782,1.9445 11.3137,1.2374 12.7279,-1.9445 10.0763,-2.1213 4.5962,-6.8943 6.8943,-5.6569 3.8891,-0.1767 3.1819,-1.9446 3.5356,7.0711 8.1317,6.3639 11.1369,5.3033 8.3085,2.2981 7.2479,-0.1767 5.6568,-3.3588 1.0607,-6.5407 -0.5303,-5.3033 -2.1213,-2.8285 -3.7124,-0.7071 -2.1213,-3.0052 -3.5355,-5.1265 -2.1213,-9.3692 0,-4.0658 3.3587,-4.773 -1.0606,-4.773 -0.5304,-12.5511 -1.9445,-9.8995 1.0607,-6.364 1.4142,-13.7885 6.1872,-1.591 1.0606,-2.2981 3.7123,-3.182 12.5512,-8.1317 16.617,-1.4143 4.7729,-1.7677 2.6517,-4.9498 -3.182,-2.2981 -3.3587,-9.0156 -1.7678,-4.9497 2.6516,-3.182 4.5962,-0.8839 5.8337,3.0052 8.3085,3.8891 6.0104,4.9498 9.0156,1.7677 10.9601,1.4142 9.546,-0.5303 2.1213,1.9445 16.617,0.5304 11.8441,0.3535 -0.1768,-16.9705 -7.7782,-12.9047 -3.0052,-7.7782 -3.182,-2.2981 -0.7071,-4.2426 0,-6.1872 2.1213,-9.0156 1.4142,-8.6621 3.7124,-5.8336 2.1213,-5.6569 1.0606,-7.4246 -0.3535,-7.4246 6.3639,-7.2479 4.2427,-4.7729 3.0052,-5.6569 1.7678,-5.1265 0.7071,-8.6621 1.0606,-9.3691 2.2981,-5.6569 5.6569,-11.4905 6.7175,-6.0104 4.9497,-1.2374 9.3692,-9.8995 9.3692,-6.1872 9.1924,-4.0659 8.3085,-0.3535 14.6724,-1.2375 11.4905,5.3033 6.7175,7.2479 2.2981,-0.7071 21.0365,1.4142 10.253,2.1213 2.4749,-11.3137 -1.591,-14.1421 0,-7.4247 0,-12.0208 7.2478,-10.253 4.5962,0 4.773,-3.182 6.5407,2.6517 7.2479,-0.8839 9.0156,-9.7227 4.773,-5.8337 5.48,-3.3587 8.4853,-4.4195 7.2479,-4.7729 5.8336,-1.0607 2.4749,-2.6516 14.1421,-3.8891 12.7279,-3.7123 13.9654,-4.773 5.6568,-2.2981 4.9498,-3.7123 0.8839,-4.0659 -1.4142,-5.1265 -6.1872,-4.9497 -4.4194,-2.6517 -5.8337,-7.7782 -1.2374,-4.2426 0.7071,-10.4298 2.1213,-6.8943 3.5355,-9.546 0.8839,-8.662 3.5356,-7.4246 4.9497,-2.2981 4.773,-0.3536 5.6568,3.5355 7.6014,7.955 3.7123,6.3639 3.8891,15.5564 1.9446,14.8492 0.3535,7.2479 4.773,5.1265 9.3692,3.7123 11.3137,4.2427 12.7279,2.6516 14.8492,-2.1213 7.6014,-4.2427 -1.0606,-7.4246 -1.2375,-6.0104 0.1768,-15.026 -1.9445,-10.4298 -7.7782,-5.3033 -0.8839,-12.7279 3.7123,-8.1318 5.1265,-10.4298 8.3086,-12.7279 8.3085,-7.955 12.1975,-6.8943 13.7886,-4.0658 13.0815,-8.6621 13.0815,-7.9549 10.9601,-8.8389 3.3588,-5.4801 -1.591,-7.4246 -3.8891,-15.026 2.2981,-4.5962 3.0052,-3.0052 13.6118,-3.8891 13.2583,-3.7123 6.5407,-4.773 15.026,-6.8942 9.3692,-5.1266 10.7834,-0.1767 5.1265,3.0052 10.7834,3.7123 7.9549,-2.1214 0.7071,-5.48 6.8943,-3.7123 -0.5303,-6.0105 3.8891,-5.3033 12.3744,-4.0658 5.6568,-7.6014 7.955,-7.2479 7.7781,-6.0104 13.6118,-4.5962 6.0104,-7.2478 7.4247,-5.3033 6.0104,1.0607 2.8284,-2.1214 10.0763,3.182 3.8891,-5.6568 1.4142,-6.1872 5.6568,-4.2427 4.4194,-1.4142 9.1924,0.3536 3.7123,3.0052 3.5356,4.4194 6.8943,-0.8839 7.4246,-9.5459 3.182,-1.2375 12.7279,-15.2028 -2.3903,-5.0434 3.5,-6 -16,-3 -15,10.5 -7.5,-0.875 -4.25,-1.125 -6.875,0.875 -1.125,-1.5 3,-2.75 -16,-0.125 -0.75,-3.375 -11.875,-4.75 -8.375,1.25 c 0,0 -4,7.75 -4.875,8.625 -0.875,0.875 -2.625,-7.625 -2.625,-7.625 l -9.875,4.25 0.125,-4.75 -3.25,-2.625 -4,-2.125 -8,-3 3.125,-4.875 -0.625,-2.625 -5.5,2.125 -3.875,-12 -2.5,-2.75 -7.125,5.125 -7,2.625 -6.125,-8.25 -5.5,2 -5.5,-0.25 -0.5,-6.375 -1.375,-5.875 -9.875,-0.5 -7,5.375 -6.75,-1.125 0,-7.625 6.125,-9.5 -13.75,-2.25 -10.125,-4.25 c 0,0 -10.25,-6.75 -11.125,-6.5 -0.875,0.25 -4.25,2.25 -4.25,2.25 l -7.375,-2 -5,2 -8.25,-5.75 1.25,-6.875 -4,-5.5 0,-4.25 -8.25,-5 -0.25,-13.25 -8.25,-11.75 1,-4.75 -10.125,-15.75 -11.625,-8 -2,-4.75 -5.75,-4.5 -5.125,-13.875 -6.375,-7.5 -19,-35 -7,-6.75 -10,-6.125 -13.875,-8.125 -1.875,-11.5 2.125,-10.875 -1.75,-9 6.125,-26 14.875,-2 9.375,0 17.625,4.25 11.875,1.75 14.25,-0.625 11.375,-3.75 -3.875,-13.625 -7.5,-13.5 -7.25,-4.375 -16.5,-7.25 -1.375,-4.75 -19.5,-16.5 -9,-18.375 -0.5,-12.25 -0.5,-8.375 -15.75,-21 -26,-13.5 -5.125,-19.75 1.625,-7.5 8.375,-16.25 3.625,-2.25 3.625,-7.75 1.5,-5.875 2.75,-5.5 -2.625,-1.75 0.5,-4.25 10.5,-10 -0.5,-6 -4,-15.5 1.5,-26.5 4.5,1 14.5,-5 4.5,-10 11.625,-8 18.25,-11.625 5.625,-0.25 2.875,-5.875 16.625,-16.25 1,-7.5 -4.5,-6 6,-13.5 4.5,0 1,-3 -5,-14.5 2,-8.5 2.5,-23.5 6,-2.5 2,-6.5 4,-9 -3.5,-10.5 -5.5,-11.5 -7.5,-6.5 -5,-8.5 -2,-8.5 -1.5,-13.5 2,-8 3,-9 0,-5 7.5,-4 1,-3.5 5.5,-6.5 -3,-6.5 2,-1.5 -2.5,-7 -7,-7 -1,-10 -8,-6 -4.5,-5.5 -1.5,-6.5 -4.5,-5.5 1.5,-5.5 -3,-3 -1,6 -8.5,1.5 -4.5,-2.5 -4,-5.5 1,-6 -1.5,-1 -3.5,-4.5 3,-6 -7,-3.5 -1.5,-5 1.5,-3.5 -2.5,-4 -5,-7.5 4,-10 -5.5,-5 -1.5,-5 -4,-5 0,-7 -8,-5 -6.5,-0.25 0,-3.75 -3.75,-2 -2.75,-3.75 0,-7 2.25,-5 -3.75,-7.5 0.25,-4.5 3.25,-5.5 0,-7.25 2.25,-13.5 7.25,-0.75 1.25,-2.25 -4.5,-3.5 -0.5,-3.5 2.5,-11.75 2.75,-12.5 2,-8.75 -2,-3.75 c 0,0 0.5,-4.25 -0.25,-6 -0.75,-1.75 -1,-6.5 -1,-6.5 l 6.5,-7 3.25,-4.5 6.5,-8.5 16.75,0.25 7.25,0 c 0,0 10.75,-1.75 9.75,-1.75 -1,0 7.5,-4 7.5,-4 l 8.5,-6.75 6.5,-5.25 2.75,-11 15,-8.5 6.5,-7.5 2.75,-4.75 8.5,-9.5 0,-9.25 7,-12.5 1.5,-6 -0.5,-5.75 3.5,-3.25 8,-0.5 6,-8.5 0,-7.75 0.25,-10.75 -3.5,-5.75 -0.75,-4.75 5,-5.75 -0.75,-4.25 -3.75,-8.75 -2,-5.5 4.75,-5.5 6.5,-2.75 4.75,-4.75 2,-5.25 1.5,-11.75 -2.25,-1.75 0.75,-3 5.25,-0.25 3.25,7 7,3 5.25,-1.25 2,-5.75 -4.5,-3.5 8.25,-4.75 2.5,-4.25 0,-3.5 8.75,-5 11.75,-9 1,-5 12.75,-4.5 11.5,0 6.5,-4.75 -0.25,-3.5 -7,-11.75 -6.75,-1 -1,-2.5 -0.5,-6.25 -2,-3.25 -4.75,1.5 -3.75,-2.25 0,-4 5.75,-9.25 -0.5,-9.25 -4,-2.5 c 0,0 -1.75,-2.75 -1.75,-4 0,-1.25 2.5,-4.5 2.5,-4.5 l -1,-5.5 -1.25,-3.25 0,-9 4,-9.5 -3.75,-2 -8.5,0 -4.5,-10.5 -2.5,-12 -5.75,-3.5 -8,-7.75 -0.5,-5.25 -4.5,-13 1.25,-7.25 -3.25,-12.5 0.5,-25.25 4,-5.25 1.25,-5.75 2.5,-15.5 5,-10.75 0.75,-22.75 3,-10 7,-20.75 c 0,0 -0.25,-13.25 -0.25,-14.5 0,-1.25 -1.5,-30.5 -1.5,-30.5 0,0 1.0336,-8.1634 1.0336,-8.1634 l 1.7169,-5.8868 11.5283,-34.3395 -1.717,-4.1698 -4.1698,-5.6414 -6.132,0 -0.9812,-0.9812 -6.132,-0.4905 -1.717,-1.4717 -6.8679,-0.2453 -3.6792,-1.2264 -14.2264,-0.2453 -3.4339,-3.1887 -5.6415,-0.2452 -4.1698,-1.9623 -6.8679,0 -4.1698,-2.2075 -16.1886,0.2452 -6.8679,-3.6792 -6.8679,-0.4906 -2.6981,-2.4528 -5.6415,0 -4.415,-2.4528 -23.0566,-6.8679 -4.9056,-0.4906 -1.717,-1.2264 -5.8867,-0.2452 -24.5282,-6.6227 -6.3774,-1.9622 -5.6415,-2.6981 -5.8867,0 -15.4528,-5.8868 -10.5471,-4.6603 -4.4151,-0.4906 -7.6037,-2.6981 -8.5849,-3.6792 -3.434,-0.7359 -5.6414,-2.9434 -10.5472,-7.849 -8.8301,-3.1887 -11.0377,-6.132 -8.3396,-4.4151 -5.6415,-5.3962 -3.6792,-3.9245 -3.1887,0 -2.9434,-1.4717 -0.2452,-2.4528 -2.4529,-0.2453 -6.132,-4.6604 -7.1132,-2.4528 -7.3585,-5.3962 -2.6981,0 -5.6414,-3.9245 -4.6604,-4.6603 -5.1509,-2.2076 -6.1321,-3.4339 -4.9056,-3.6793 -4.4151,-4.4149 -4.6603,-2.9434 -5.6415,-5.3962 -5.151,-2.4529 -8.8301,-8.5848 -5.3962,-4.9057 -4.4151,-5.6414 0.7359,-1.4717 3.1886,-3.1887 -2.4528,-1.2264 -4.6604,-2.2076 -2.9433,-4.1697 -3.1887,-1.9623 -4.6604,-1.4717 -6.3773,-3.9245 -2.9434,-1.9623 -4.4151,-3.1886 -2.2075,-2.9434 -3.9245,-2.6981 -5.6415,-4.9057 -4.6604,-3.4339 -4.1697,-4.4151 -3.434,-4.4151 -4.9056,-3.9245 -2.9434,-5.1509 -2.2076,-3.6792 0,-7.1132 1.2265,-0.4906 1.2264,-2.6981 -0.4906,-5.3962 -1.717,-1.2264 0,-2.2075 -0.9811,-2.6981 -1.9623,-1.2264 0,-2.2076 -1.4716,0 -1.4717,-1.9622 -0.4906,-1.717 -2.9434,-1.4717 -14.4716,-12.9999 -9.566,-6.6226 -4.1698,-4.90565 -2.4528,-1.9622 -2.6981,0.2452 -12.0189,-8.5848 -5.1509,-5.151 0.2453,-3.6792 2.2075,-0.9811 0.4906,-1.2264 -6.132,-0.7359 -8.0944,-4.1698 -2.4962,-2.0879 -4.1626,-3.4688 -8.672,-4.1625 -7.9782,-4.5095 -0.3469,-4.1626 -3.8157,-1.0406 -0.6938,-2.4282 -3.1219,0 -5.897,-3.4688 -6.2439,-6.2439 -2.0812,-6.2438 0.3468,-3.1219 -9.3657,-2.4282 -4.5095,-2.7751 -4.1626,-3.1219 -3.4688,-5.897 1.0407,-3.8157 2.0812,-3.1219 0.3469,-2.775 -2.775,-4.5095 -4.8564,0.6938 -4.8563,-2.4282 -1.9079,-2.103 -0.9972,-0.8671 -2.7317,-4.4879 -0.5203,-4.943 -2.2548,-2.8618 -6.8509,-0.3469 -5.8102,-6.9376 -0.1735,-2.8618 -1.3875,-0.9539 -0.2601,-1.7344 1.7344,-0.3469 0.9539,-0.9539 -0.2602,-2.168 -6.9376,0 -7.6314,-3.8157 -3.1219,4.5095 -1.0407,11.447 -2.775,1.3876 -1.3875,-1.7344 1.7344,-18.3847 -2.0813,-2.4282 -14.2221,-8.3251 -1.7345,-1.561 -0.6937,-0.3469 -2.8618,-3.9891 -3.0352,-1.3876 -4.336,-0.4336 c 0,0 -3.4688,-5.3766 -3.8157,-5.4633 -0.3469,-0.0868 -3.4688,-0.2602 -3.4688,-0.2602 l -1.3875,-0.9539 -2.3415,-2.5149 -9.5392,-4.336 0.607,-1.0407 18.1246,7.3713 0.5203,-1.3008 -19.859,-8.1518 -0.607,1.1274 -0.607,1.0407 -14.5691,-6.5908 -1.7344,2.4282 -7.6313,-3.4688 -3.8157,0 -1.3876,-3.8157 -3.8157,-2.0813 -6.5907,-3.8157 -2.0813,-1.0406 -6.2438,-4.8564 -3.4689,-0.3469 -11.7939,-8.672 -2.7751,-1.0406 -11.447,-8.3252 -9.3658,-8.3251 -6.2439,-8.3252 -7.6314,-14.569 -5.2032,-12.1408 -3.8157,-13.5284 -1.7344,-10.7533 -1.3875,-10.0596 0.3469,-2.4281 0,-13.5284 2.9485,-3.4688 16.6503,-2.2547 3.6422,-2.6017 -0.3469,-3.9891 -24.1082,2.4282 0.6937,-15.6097 7.9783,-0.8672 8.3252,7.6314 1.3875,0 14.0487,-9.3658 6.2438,6.9376 11.6206,13.355 8.3251,5.2032 2.4282,-2.9485 -10.7533,-7.8048 -6.2439,-8.1517 -9.0189,-9.5393 1.2141,-1.0406 -1.0407,-2.4282 -3.2953,-0.1734 -7.2846,3.9891 -5.2032,0.5203 c 0,0 -7.4579,0.5203 -8.672,0.5203 -1.2141,0 -2.9485,-2.4281 -2.9485,-2.4281 l -9.3658,0.1734 -4.8563,0.8672 -3.1219,-2.0813 -4.3361,2.4282 -2.2547,3.4688 -2.4282,6.0704 -6.4173,1.3876 -13.008,-1.7344 -71.9778,-14.2222 -3.122,-0.3469 -19.9456,-2.775 -51.3384,-8.3252 -21.5067,-3.4688 -6.2438,-2.0813 -20.1191,-3.4688 -7.6314,-2.775 -4.8564,0 -13.8752,-5.5501 -8.3252,-2.0813 -11.7939,-4.1626 -11.794,-2.775 -10.4064,-4.1626 -5.5501,0.6938 -13.8753,-6.2439 -11.1001,-0.6938 -27.7505,-6.9376 -12.4878,-3.4688 -6.2438,-3.4688 -6.9376,1.3875 -9.019,-2.775 -11.7939,-4.1626 -2.7751,1.3875 -5.5501,-2.0813 -9.0189,-0.6937 -19.4253,-4.8564 -5.5501,-2.0813 -3.4688,0 -11.794,-2.775 -18.7316,-6.2439 -8.3251,-2.0813 -4.1626,-2.0812 -19.4253,-5.5501 -10.4065,-2.7751 -15.9565,-6.2438 -24.9754,-8.3252 -16.6503,-3.4688 -53.4197,-20.8129 -4.8564,-2.0813 -15.2627,-6.5907 -1.7344,-2.0813 -12.1409,-4.8563 -3.8157,0 -11.1002,-5.897 -0.6937,-1.7344 -3.4688,1.3875 -13.5284,-5.897 -12.1408,-5.5501 -11.3604,-7.3712 -16.3901,-5.4634 -8.6721,-3.4688 -2.0812,-1.3875 -4.8564,-1.0406 -20.1191,-9.3658 -2.775,-3.122 -4.8564,-0.6937 -1.3875,-2.7751 -3.8157,0.6938 -4.5094,-2.4282 -5.897,-3.4688 -4.8564,-1.7344 -2.8617,-1.6043 -0.6667,-0.4987 -0.8943,-0.6558 -3.9024,-2.7913 -3.8157,0 -7.6314,-4.1626 -12.8346,-6.5907 -2.4282,-2.0813 -2.4281,-1.3875 -4.8564,-2.7751 -5.5501,-0.3469 -16.6503,-9.0189 -2.775,0 -1.0406,-1.7344 -6.5908,-3.4688 -3.4688,-4.1626 -4.5095,-2.4281 -7.6313,-2.0813 -1.3876,-3.4688 -12.1408,-5.897 -11.1002,-5.2032 -15.6097,-10.7533 -18.0378,-11.794 -10.0595,-5.897 -2.7751,-3.1219 -9.7126,-4.5095 -13.5284,-8.672 -7.2845,-2.775 -18.0378,-12.1409 -6.9377,-2.0813 -6.5907,-5.8969 -12.8346,-7.6314 -23.241,-14.569 -14.2222,-8.6721"
       id="Provincia_di_Campobasso"
       style="fill:#e45c36;fill-opacity:1;fill-rule:evenodd;stroke:#ffffff;stroke-width:5;stroke-linecap:butt;stroke-linejoin:miter;stroke-miterlimit:4;stroke-opacity:1;stroke-dasharray:none;display:inline" />
  </g>
</svg>
