<?xml version="1.0" encoding="UTF-8" standalone="no"?>
<!-- Created with Inkscape (http://www.inkscape.org/) -->

<svg
   xmlns:svg="http://www.w3.org/2000/svg"
   xmlns="http://www.w3.org/2000/svg"
   version="1.1"
   width="4169.6338"
   height="3287.2678"
   id="svg2"
   style="display:inline">
  <defs
     id="defs4" />
  <g
     transform="translate(1718.4643,1109.8164)"
     id="layer1"
     style="display:inline">
    <path
       d="m -500.27397,38.35711 -24.7253,-12.0041 -14.8366,-4.4194 -5.36645,-2.8411 -2.2097,-3.78805 -7.2605,-3.4724 -5.3664,-5.36645 -10.4172,-5.05075 -14.83665,-15.46795 -9.47015,-3.7881 -5.0508,-5.6821 -5.05075,-10.4172 -2.2097,-5.6821 -8.2075,-3.4724 -4.4194,-10.73285 -5.36645,-5.0508 -4.4194,-14.5209 -10.7329,-21.78145 -9.1545,-17.99335 -3.4724,-17.0463 -3.4724,-1.89405 -3.4724,-22.41275 -2.52535,-12.94255 -1.5784,-36.3024 2.20975,-26.2008 7.8918,-4.10375 4.4194,-9.4702 15.1523,-16.41495 9.1545,-3.7881 9.78585,-10.1015 11.3642,-4.10375 7.57615,-3.15675 -0.3155,-1.894 6.31345,-5.0508 10.1015,-5.3664 15.468,-15.1523 10.1015,-4.7351 12.6269,-3.78805 3.4724,-6.9448 6.62915,-2.5254 1.2627,-4.10375 c 0,0 9.47015,-1.8942 10.73285,-2.2097 1.2627,-0.3155 10.4172,-10.10155 10.4172,-10.10155 l 22.41275,-19.88735 2.2097,-18.6247 5.68215,-7.57615 14.5209,-3.4724 4.7351,-6.9448 11.36425,-20.20305 9.47015,-4.7351 11.04855,-4.1037 c 0,0 13.57395,-3.15675 15.1523,-3.15675 1.57835,0 4.4194,-6.9448 4.4194,-6.9448 l 3.4724,-6.62915 5.05075,-2.2097 6.62915,-5.99775 5.05075,-2.84105 2.5254,-18.30905 2.2097,-2.2097 10.4172,-0.63135 6.31345,-5.05075 3.15675,-10.73285 5.6821,-17.6777 3.78805,-13.8896 -6.9448,-7.57615 2.5254,-11.99555 2.52535,-5.6821 -3.78805,-5.05075 4.4194,-5.0508 0,-6.31345 -11.3642,-3.1567 -11.3642,-10.10155 0.63135,-5.05075 6.31345,-1.2627 2.52535,-5.6821 -16.41495,-2.52535 -4.41945,-19.57175 -0.63135,-32.82995 -18.94035,-7.57615 -10.1015,-22.7284 -8.2075,-5.0508 -4.4194,-5.05075 -8.2075,4.41945 -6.31345,1.894 -10.7329,-6.9448 -6.31345,-5.6821 -9.47015,-3.78805 -23.3598,-23.99115 -23.9911,-1.2627 -8.83885,-4.4194 -19.5717,3.78805 -8.83885,2.5254 -12.6269,-3.78805 -17.67765,0 -29.67325,11.99555 -35.35535,13.25825 -23.35975,1.89405 -20.8344,8.20745 -19.57171,5.68215 -44.82555,4.4194 -53.66435,15.1523 -49.24495,10.73285 -40.4061,4.41945 -22.09705,4.4194 -22.72845,-3.15675 -6.31345,-8.20745 -21.46575,-2.5254 -10.1015,-3.7881 -17.67772,2.5254 -17.0463,6.31345 -43.5628,8.2075 -27.1479,12.6269 -22.0971,3.15675 -24.6224,11.3642 -20.8344,5.6821 -37.2494,3.7881 -25.2538,5.6821 -34.0927,2.52535 -25.2538,-2.52535 -10.7328,-5.0508 -11.3643,-13.25825 -30.9359,-0.6313 -67.5539,2.52535 -49.245,3.15675 -76.3928,-0.63135 -3.4507,-2.9509 -1.3392,6.02675 -1.7858,19.19645 3.3483,22.3214 4.241,4.6875 3.125,9.1518 1.7857,3.79465 -1.5625,5.58035 -5.8035,5.35715 -4.9107,9.5982 -4.6875,16.51785 -4.9108,8.7054 -11.6071,3.7946 -3.125,20.53575 -4.0179,2.45535 2.009,2.9018 6.6964,10.49105 9.8214,10.26785 4.6875,24.10715 3.125,8.70535 -2.2321,11.83035 -11.1607,4.91075 -3.7947,9.5982 -3.5714,10.7143 2.9018,10.0446 9.5982,9.59825 7.5893,3.79465 7.5893,4.24105 -1.7857,6.0268 -7.5893,-2.9018 -8.0357,2.67855 0,8.25895 2.9017,2.9018 9.8215,9.5982 2.0089,5.58035 5.3571,4.6875 1.1161,6.69645 16.0714,2.90175 6.4733,5.8036 20.9821,1.5625 1.1161,5.1339 -7.1429,2.9018 -12.5,6.25 c 0,0 -3.3482,4.4643 -4.4643,4.9107 -1.116,0.4465 -9.375,3.79465 -9.375,3.79465 l -8.4821,2.6786 -2.4554,3.125 c 0,0 -6.4732,2.0089 -5.3571,2.0089 1.1161,0 -2.0089,8.70535 -2.0089,8.70535 l -5.5804,4.0179 -4.4643,2.45535 2.9018,3.79465 2.9018,2.90175 -0.2232,7.8125 -11.3839,0 -2.6786,-10.49105 -4.0179,1.3393 -0.6696,7.58925 -2.0089,9.1518 -6.0268,4.9107 -10.7143,5.13395 -15.1786,4.4643 -2.9018,2.90175 -3.7946,2.9018 -1.1161,8.48215 -2.9018,5.1339 0.4465,7.8125 2.4553,4.2411 -1.5625,3.5714 -12.9464,-2.67855 -7.1429,4.4643 -1.3392,7.58925 1.3392,9.82145 4.9108,5.80355 -3.5715,0.4465 -26.3393,-4.01785 -8.4821,-5.13395 -7.3661,-3.125 -1.116,-6.4732 -4.2411,-9.375 -6.25,0.4465 -2.9018,4.24105 -6.25,-4.24105 -8.0357,-2.4554 -4.9107,-4.46425 -3.5715,1.5625 -2.0089,9.15175 -4.2411,13.6161 -10.491,10.04465 -2.6786,6.25 1.7857,7.36605 8.9286,4.4643 6.4732,4.6875 -1.5625,4.9107 -3.5714,1.1161 -2.2322,8.4821 4.9107,0.4465 2.4554,7.14285 4.2411,4.2411 -4.0179,2.0089 -3.7946,4.9107 4.241,14.50895 2.4554,4.01785 -2.2321,6.4732 -4.2411,13.6161 -4.2411,9.375 -0.2232,23.4375 0.8929,12.9464 1.5625,7.8125 10.7143,1.78575 22.5446,3.79465 1.5625,3.5714 4.2411,1.3393 4.6875,8.0357 4.4642,4.68735 2.9018,4.4643 14.5089,4.4643 9.1518,6.9196 4.2411,7.3661 1.5625,1.11605 6.0268,4.91075 5.8035,5.3571 6.4733,2.23215 2.4553,6.91965 5.1339,15.1786 2.6786,12.05355 4.9107,2.23215 4.4643,-4.01785 5.1339,-1.1161 3.125,16.07145 20.9822,2.9018 3.5714,6.4732 34.5982,4.4643 5.5804,9.8214 3.7946,4.01785 -3.3482,2.6786 -13.3928,4.24105 -1.5625,10.4911 -5.134,5.3571 4.2411,6.69645 4.6875,6.25 6.0268,2.67855 0.4464,7.5893 -15.8482,5.8036 -4.2411,9.8214 -11.3839,11.1607 -6.25,2.00895 -1.1161,7.8125 2.9018,4.4643 4.9107,15.40175 4.2411,23.2143 4.9107,6.69645 10.2678,4.9107 3.125,1.7857 8.7054,-1.11605 3.125,-2.23215 4.0179,0.89285 5.8035,3.125 9.1518,6.25 24.5536,4.4643 0.6696,11.83035 -5.3571,2.9018 -1.3393,8.70535 9.8214,2.23215 5.134,4.01785 1.3392,10.9375 7.5893,7.36605 4.0179,3.125 2.2321,2.23215 3.7947,-1.5625 14.5089,-6.0268 12.0536,-1.5625 6.25,-2.45535 0.4464,-2.45535 16.7411,-0.4465 3.125,5.80355 -7.3661,3.79465 2.2322,4.01785 8.0357,0.89285 14.2857,2.00895 4.2411,6.02675 0.8928,6.25 5.5804,2.6786 2.6786,-3.79465 4.4642,-6.4732 15.1786,-0.66965 6.25,2.45535 8.0357,2.23225 0.4465,6.4732 6.6964,6.69645 10.2679,9.5982 2.6785,5.58035 2.4554,4.01785 0.8928,2.9018 -6.0268,2.23215 -26.7857,5.35715 -3.125,6.25 3.5715,18.52675 5.8035,10.7143 10.4911,9.1518 2.0089,5.35715 -1.3393,5.35715 -10.2678,4.46425 -6.6964,5.35715 -9.375,4.4643 -10.0447,10.49105 -4.6875,13.6161 -10.4911,10.9375 -4.241,8.2589 2.0089,12.72325 8.2589,9.375 7.5893,4.6875 22.5447,5.1339 4.0178,10.26785 4.9107,5.35715 4.2411,9.82145 6.0268,4.6875 7.3661,4.6875 3.3482,10.9375 8.9285,4.01785 9.8215,5.58035 8.9285,3.125 3.5715,4.01785 5.5803,0.4465 1.5625,-3.57145 10.7143,-4.6875 3.125,-6.91965 9.1518,0.66965 8.0357,6.25 29.9107,5.13395 7.3661,3.79465 3.3482,2.90175 14.7322,-1.11605 9.5982,-10.26785 4.9107,-10.4911 4.0178,-5.80355 4.0179,-7.8125 6.0268,3.5714 7.5893,6.0268 5.1339,6.91965 6.6964,3.57145 10.4911,2.67855 14.9374,15.8485 16.0993,2.52535 18.6247,-2.52535 1.5784,-2.20975 8.2074,0.3155 0,6.6291 10.4172,4.41945 21.1501,11.04855 15.1523,4.1037 9.7859,4.7351 11.67983,-2.84105 -0.947,-16.0993 -3.78805,-3.4724 -0.3155,-4.10375 6.9448,0 4.4194,-5.36645 7.57615,-4.73505 1.89405,-14.83665 7.26045,-2.2097 4.41945,-2.84105 5.05075,-4.7351 5.36645,-2.2097 35.98665,-5.05075 6.62915,-2.5254 11.6799,2.2097 7.26045,5.36645 28.0949,4.4194 5.05075,1.5784 6.9448,1.57835 0.947,-5.05075 6.31345,0.63135 0.94705,2.84105 6.6291,0.947 4.7351,-1.57835 17.362,-6.31345 16.0993,-4.10375 6.31345,-2.5254 4.7351,-7.26045 15.46795,-3.4724 12.9426,1.57835 11.99555,10.4172 0.947,6.9448 4.10375,2.84105 4.4194,-3.1567 5.68215,-6.3135 19.256,-4.73505 4.7351,-15.468 3.78805,-16.0993 3.7881,-1.894 1.2627,-6.31345 11.04855,-4.7351 5.05075,-5.36645 3.78805,-8.52315 3.4724,-3.4724 5.36645,0.63135 3.15675,3.78805 8.20745,-2.2097 14.52095,-1.89405 4.7351,-6.31345 6.19505,-10.253 -0.2495,-1.0212 1.4984,-3.0868 1.29615,-1.91545 0.80425,-0.8865 11.3638,-12.2889 17.82445,-17.8852 6.5094,-0.89345 7.07895,-10.8041 1.6742,-5.06845 8.79365,-12.6408 1.37875,-0.79625 0.5617,-0.2635 0.82065,-0.2975 2.9385,-0.5463 0.84865,-0.1165 7.36105,-0.9919 11.9206,-0.4435 43.8187,-21.97735 15.98635,-20.66115 6.06885,-5.6391 0.2785,-0.478 3.0927,-5.9649 3.41845,-6.79015 -0.4435,-4.956 -1.49525,-7.4017 -2.96295,-0.761 -0.1545,-0.04 -0.50325,-0.1245 -0.124,-13.13225 0.065,-0.438 0.226,-0.53005 0.4235,-0.53125 0.539,-0.56375 0.7813,-0.7144 1.19915,-0.91865 0.6397,-0.79265 0.6011,-0.87105 4.8271,-8.8395 0.656,-1.5119 0.91115,-2.0948 4.6255,-12.9054 0.7547,-2.10465 2.839,-7.9283 0.03,-0.0925 2.1278,-5.9356 -7.1381,2.34885 -3.2551,1.19685 -6.9202,6.5746 -0.2755,0.164 -0.6505,0.123 -15.43255,1.0031 -1.10125,-12.39005 -7.14635,-9.6428 -1.4322,-1.93155 -0.0605,-0.087 -2.16215,-2.9176 -0.02,-0.03 -11.7856,-19.2217 -2.2875,-4.20335 -2.39835,-6.6256 -4.6126,0.288 -0.5216,-4.4918 -4.0639,-38.1708 -1.6289,-16.46915 -0.015,-0.155 -0.80765,-8.1708 -1.37865,-13.93325 3.583,0.53995 7.25669,-1.602 15.3236,-8.2996 18.0803,-9.7883 0.239,-0.129 7.94531,-4.2993 3.4235,-1.851 0.687,-0.747 3.5121,-7.65245 -0.108,-1.1112 -0.175,-0.9743 -0.2465,-1.0262 -0.5613,-1.19615 -0.6914,-0.63285 -4.26775,-2.56805 -1.04915,-0.449 -0.93995,-0.384 -2.877,1.1836 -1.2625,0.461 -1.06865,-0.162 -1.49285,-0.3435 -1.2392,-0.331 -2.01,-0.57105 -1.23025,-0.5529 -17.1864,-10.37255 -18.5415,-9.47695 -9.42305,-5.633 -11.43255,-8.55015 -28.6148,-8.90365 -13.2615,-3.70695 -0.0905,-0.025 0.4345,-1.2242 10.70985,-20.6561 1.9057,-3.65575 22.50165,1.06615 2.3297,0.1965 3.86089,0.513 1.56281,0.2045 2.01589,0.276 0.81185,0.22 9.2411,2.5068 4.00781,1.64445 0.42649,0.79075 1.20855,1.7296 0.4145,0.444 4.54495,1.7545 1.29215,0.50045 9.76615,3.377 0.04,0.01 5.337,1.50005 6.62935,2.2675 2.74585,1.0141 1.14555,0.5073 4.55065,2.14175 -0.6216,-6.3729 z m 27.36085,-748.46845 7.8918,1.89405 0,4.10375 -8.52315,0 0.63135,-5.9978 z m 83.65325,51.139 8.52315,0.3155 1.57835,9.78585 -5.3664,-1.2627 -4.7351,-4.10375 0,-4.73505 0,1.5e-4 z m -515.70445,-449.84406 c 1.7857,0 14.73215,0.8929 14.73215,0.8929 l 0.89285,4.0178 -5.8036,1.3393 -0.89285,3.125 -2.67855,0.4465 -3.57145,-4.4643 -2.67855,-0.8928 0,-4.4643 z m -229.91068,146.87501 -11.6072,-0.4465 -1.3393,7.58925 -0.4465,5.35715 3.125,0.89285 2.2322,-5.35715 7.5893,0 0.4465,-8.0357 z m -11.9993,18.23225 9.4702,-2.2097 1.2627,4.7351 -7.2605,7.2605 -10.7329,5.6821 c 0,0 -4.4194,-4.10375 -3.1567,-4.7351 1.2627,-0.63135 7.2605,-5.9978 7.2605,-5.9978 l 3.1567,-4.7351 z m -37.565,33.46135 1.2626,-6.3135 6.9448,-3.78805 3.7881,-3.78805 2.5254,-13.57395 6.6291,1.89405 1.8941,5.05075 4.4194,5.05075 -1.8941,4.41945 -3.788,7.26045 -6.9448,6.31345 -8.5232,3.15675 -6.3134,-5.6821 z"
       id="path3910"
       style="fill:#e45c36;fill-opacity:1;stroke:#ffffff;stroke-width:2;stroke-linejoin:round;stroke-miterlimit:4;stroke-opacity:1;stroke-dasharray:none;display:inline" />
  </g>
  <g
     transform="translate(1657.6072,1303.1786)"
     id="layer4"
     style="display:inline">
    <path
       d="m 414.75442,815.48328 -7.03125,-4.33595 -9.53125,-8.59375 -13.75,-5.3125 -14.0625,-9.84375 -5.9375,-4.6875 -9.6875,-12.1875 -5.46875,-3.4375 -2.34375,6.875 -2.34375,9.53125 0,5.46875 -9.84375,0.3125 -1.71875,-10.46875 -5.15625,-8.90625 -5.3125,-3.90625 -2.03125,-7.5 -3.90625,1.09375 -4.375,4.6875 -9.21875,2.03125 -3.75,3.28125 -11.40625,5 -9.0625,-0.625 -3.59375,-4.21875 -7.65625,-8.90625 -2.34375,-6.875 -9.84375,-0.156 -9.0625,6.09375 -3.4375,6.09375 1.71875,7.65625 4.53125,2.65625 5,6.5625 2.34375,7.5 -0.9375,3.90625 -6.71875,3.125 -7.96875,0.156 c 0,0 -5.625,-3.59375 -5.78125,-4.53125 -0.156,-0.9375 -1.09375,-7.5 -1.09375,-8.28125 0,-0.78125 0.78125,-3.28125 0.78125,-3.28125 l 0.3125,-5.46875 -0.625,-5.625 -2.34375,-3.125 -6.40625,-2.8125 -5.15625,2.96875 -7.34375,5.9375 -3.4375,4.84375 -3.125,4.53125 0.625,5.15625 4.0625,3.75 2.5,3.75 2.03125,4.84375 2.1875,7.8125 4.375,3.4375 2.96875,6.71875 -1.71875,4.0625 -8.125,0.156 -6.71875,-8.125 -6.71875,-5 -5.9375,-7.656 -1.25,-9.0625 -2.03125,-4.375 -8.75,-5.9375 -8.28125,-6.09375 -2.65625,-6.5625 -2.65625,-4.6875 -5.78125,3.59375 -4.84375,9.0625 -2.1875,12.03125 -6.71875,5.3125 -3.75,8.75 -6.875,10.46875 -3.4375,6.71875 -5.9375,5 -7.5,5 -4.375,7.8125 -10.3125,6.40625 -3.28125,4.0625 -7.031252,5.78125 -7.34375,3.90625 -3.90625,4.84375 -7.03125,2.34375 -5.3125,-2.03125 -8.59375,-5.9375 -4.21875,-5 -3.90625,-9.21875 -3.75,-6.5625 -6.40625,-6.40625 -0.9375,-7.96875 -4.6875,-4.21875 -7.03125,-2.96875 -3.75,-2.5 -7.96875,-2.96875 -9.0625,-5 -9.53125,-4.375 -8.75,-8.4375 -8.59375,-8.59375 -9.84375,-10.9375 -9.6875,-7.1875 -13.59375,-13.59375 -11.25,-6.09375 -5.625,-9.375 -13.90625,-4.53125 -10.625,-4.21875 -2.5,-9.21875 -5.3125,-8.125 -6.562498,-2.96875 -6.71875,-4.0625 -6.875,-10.46875 -1.71875,-4.53125 c 0,0 -7.5407,-6.0251 -8.42455,-6.688 -0.8839,-0.6629 -11.04855,-8.3969 -11.04855,-8.3969 l -3.0936,-5.3033 -3.31455,-3.7565 c 0,0 -3.31455,-5.9662 -3.53555,-6.8501 -0.221,-0.8839 -3.0936,-4.86135 -3.0936,-4.86135 l -1.76775,-7.513 -0.221,-15.468 -1.9887,-2.65165 -1.32585,-3.09355 3.9775,-1.32585 -1.10485,-3.97745 -3.0936,-5.5243 -6.40815,-1.98875 0,-4.4194 -3.3146,-10.82755 -4.1984,-6.4082 -4.6404,-5.52425 -3.9775,-4.4194 -3.97745,-3.3146 -3.62955,-5.9081 4.55,-9.98705 1.4196,-3.9426 2.11435,-5.6369 0.496,-1.18345 0.4945,-1.16345 0.66565,-1.22295 14.4078,-22.59115 0.6946,-0.96735 6.167,-8.38885 0.59955,-0.63365 0.56545,-0.52095 0.1365,-0.1265 0.82815,-0.76485 12.4683,-11.0732 2.20855,-1.8824 3.1934,-2.2484 0.3795,-5.15815 4.64525,-27.48995 2.45835,-13.49385 3.26095,-17.9183 -14.7526,-12.5842 3.2354,-6.61205 0.5462,-0.6147 4.6264,-4.18825 1.1051,-0.58195 1.32795,-0.7836 1.0688,-0.8429 0.80315,-0.7643 0.201,-0.8827 0.386,-4.18445 0.0655,-1.13695 -0.258,-1.05285 -0.463,-0.2165 -1.94045,-1.8511 -2.68395,-2.87175 -0.226,-1.00045 1.728,-6.09235 0.76575,-2.0262 7.65785,-15.2358 12.808,-21.82075 2.0049,-2.94045 4.4594,-6.52135 4.709248,-7.32415 0.4465,-0.7842 2.5874,-11.7978 10.46025,-12.483 1.7119,-3.64625 0.4615,-3.05905 2.3974,-7.3132 0.4585,-1.39395 0.1275,-0.39 2.0121,-6.1052 0.5955,-1.8083 0.4505,-1.07825 0.74125,-0.5814 4.22665,-3.5903 15.48195,-17.9441 1.7545,-2.06275 1.41185,-2.084 0.56725,-0.8751 0.2065,-0.32 0.499,-0.9992 0.52265,-1.2087 0.342,-1.189 3.38575,-12.9783 -0.05,-0.05 -2.50205,-2.494 -3.5862,-3.37875 -5.6241,-4.50595 -5.584,-12.6115 0.57355,-0.6986 1.3454,-2.65215 1.24855,-2.7699 0.5755,-1.39845 -0.7073,-5.96945 -0.2385,-0.99415 -2.1945,-7.60895 13.92325,4.1757 6.1961,1.82065 0.308,-2.2352 0.4415,-2.2161 1.1703,-5.2926 0.2385,-0.76455 0.8698,-1.75725 3.18285,-4.05045 17.1634,-15.51825 3.9053,-14.9817 1.09865,-3.44405 0.708,-1.1272 3.9161,-2.3751 3.6117,0.97695 2.6619,1.18815 1.5237,6.20735 0.102,0.49 2.8219,1.4327 21.08265,0.8493 8.3103,-3.582 0.403,-0.28 0.397,-0.372 0.29,-0.385 0.3325,-0.74415 0.04,-0.7359 0.5767,0.1215 7.19525,2.01825 0.7686,0.2505 0.57245,0.4785 0.3895,0.51075 1.7283,4.7826 -0.261,0.61995 -0.4315,1.0454 -0.1895,0.50945 10.96505,9.3949 6.36365,1.2848 2.51285,0.268 6.44745,4.87445 5.449,11.07465 2.47125,8.64165 2.9995,5.53195 3.6779,6.20025 0.5269,-0.214 0.70575,-0.63185 0.355,-0.6003 1.98395,-4.43885 8.88895,-3.3654 7.655802,1.11525 13.2862,1.02905 0.50075,0.01 2.06025,-0.73175 3.6919,-12.06 -0.01,-0.005 0.4695,-1.48195 5.70465,-19.14415 -2.8232,-3.2707 -0.2345,-0.3675 -0.184,-0.7783 -1.8724,-11.03925 4.94585,-10.72085 7.3376,-12.6347 6.2564,-9.23855 2.3671,-3.4751 4.4858,-8.1723 0.185,-0.3985 0.4555,-1.47545 0.265,-3.18925 0.1,-1.70445 -0.035,-0.4845 -0.015,-0.1155 -0.05,-0.3025 -0.108,-0.7456 -0.114,-0.72605 -0.277,-0.79855 -0.3295,-0.6089 -0.391,-0.38 -0.1465,-0.373 0.015,-0.6475 0.1105,-1.3131 0.055,-0.274 0.02,-0.1 0.03,-0.1675 3.66875,-14.15675 19.0522,4.0145 8.4375,4.6875 5.46875,4.6875 4.375,7.34375 11.25,3.90625 19.21875,2.34375 7.34375,5.9375 8.59375,3.4375 6.40625,2.8125 25.46875,1.71875 29.0625,2.1875 c 0,0 4.37525,5 4.53125,5.625 0.156,0.625 13.90625,6.875 14.6875,7.5 0.78125,0.625 7.65625,3.43775 8.28125,3.59375 0.625,0.156 24.0625,2.8125 24.0625,2.8125 l 5.15625,2.65625 14.53125,3.28125 12.34375,2.1875 14.21875,2.96875 15.3125,1.09375 7.03125,1.71875 7.34375,2.8125 c 0,0 2.344,5.3125 2.5,5.9375 0.156,0.625 8.75,4.53125 8.75,4.53125 l 4.53125,2.96875 12.1875,3.90625 6.09375,3.59375 12.1875,3.59375 8.28125,0 7.1875,-0.156 3.28125,-4.375 5.15625,0.156 4.0625,5.3125 6.09375,2.1875 2.1875,5 5.9375,2.03125 5.15625,-0.78125 4.21875,-5.15625 2.65625,-4.0625 0.4685,-5.46875 -7.1875,-3.4375 -11.71875,-2.03125 1.40625,-2.96875 5.78125,0.3125 10.3125,0.625 6.5625,5.15625 0,8.59375 0.625,8.90625 1.40625,6.25 9.375,3.125 8.59375,2.34375 13.59375,3.75 12.03125,3.125 c 0,0 10.78125,2.969 11.40625,3.125 0.625,0.156 11.09375,3.75 11.09375,3.75 l 12.34375,5 16.09375,4.6875 10.15625,0.9375 11.40625,2.03125 7.8125,4.84375 10,2.8125 14.6875,4.0625 17.8125,0 23.4375,2.03125 12.8125,5.15625 c 0,0 11.09375,3.4375 11.40625,4.21875 0.3125,0.78125 12.8125,3.4375 12.8125,3.4375 l 8.125,5.46875 13.28125,5.3125 10.3125,4.84375 9.6875,9.6875 11.5625,5.9375 11.71875,5.9375 12.5,4.84375 14.6875,7.1875 13.125,3.125 15.9375,3.125 16.875,13.75 8.4375,7.1875 4.21875,11.09375 10.15625,1.40625 9.0625,2.1875 14.6875,3.125 c 0,0 11.875,6.875 12.1875,7.65625 0.3125,0.78125 14.21875,10 14.21875,10 l 12.03125,7.96875 12.65625,1.875 8.28128,9.21875 14.5312,10.625 16.25,12.5 15.9375,11.71875 8.4375,7.5 9.0625,10.625 8.75,12.8125 5.4688,10.9375 10.7812,10.15625 c 0,0 15.625,3.43725 16.25,3.28125 0.625,-0.156 16.9946,4.531 16.9446,4.694 l -4.5811,6.2534 -10.1015,8.2075 c 0,0 -5.6821,5.05075 -8.5231,8.04965 -2.8411,2.9989 -12.3113,10.73285 -12.3113,10.73285 l -12.1534,9.62805 -2.841,3.78805 3.788,4.2616 0.4735,5.6821 -7.2605,8.83885 -4.7351,7.26045 -8.3653,13.4161 -5.6821,11.04855 -9.3123,7.4183 -1.8941,7.26045 -5.0507,5.5243 -1.2627,6.1556 11.6799,4.10375 13.2582,3.9459 16.8885,3.4724 5.2826,0.392 10.2678,3.125 5.3572,8.48215 6.25,5.8036 9.8214,6.6964 6.25,2.6786 4.9107,-4.4643 18.3036,-1.3393 13.3928,2.6786 6.25,2.23215 -4.4643,7.58925 -8.9285,8.03575 -3.5715,10.71425 3.125,7.5893 9.8215,7.5893 -5.3572,8.92855 -16.9643,0.89285 -6.6964,0 -11.6071,3.57145 -8.4822,1.7857 -2.6785,7.5893 -3.5715,5.35715 -4.6676,2.7444 -12.7942,-4.45965 -3.7566,-6.18715 -12.7058,1.5468 -6.7396,6.0767 -7.4025,-0.221 -5.9662,-14.58405 -7.513,-9.72275 -8.8116,-8.9879 2.1875,-5.9375 8.125,-2.1875 0.3125,-6.25 -24.0625,-0.625 5.625,-9.0625 21.5625,-0.625 14.375,-2.8125 c 0,0 -5.3125,-13.75 -5.625,-15.3125 -0.3125,-1.5625 -13.75,-11.5625 -13.75,-11.5625 l -1.5625,4.6875 10.9375,10 -10.9375,5.3125 -9.0625,-9.6875 -21.25,-2.1875 -26.24998,0 0.3125,14.0625 11.875,29.375 -5.9375,10 -17.1875,11.25 -26.875,2.5 -5.3125,-7.8125 -12.1875,8.125 -23.4375,16.875 -10.9375,7.5 -2.8125,25.3125 -3.125,8.125 6.875,5.9375 0.3125,6.5625 -5.3125,5.625 -11.5625,5.3125 -5.625,3.125 -15.625,0 -4.375,-4.6875 -2.8125,-8.125 -9.0625,-1.25 -7.8125,7.5 -6.25,1.25 -8.125,0.3125 -1.25,-11.5625 -16.25,-0.625 -15,1.875 -10.3125,3.75 -9.6875,5.9375 -4.375,3.125 -10.625,0.9375 -7.1875,-4.0625 -6.875,-7.1875 -15.3125,-10.3125 0.3125,-4.6875 10,-6.5625 7.5,-11.875 4.6875,-5.3125 0.3125,-14.0625 -6.5625,-4.0625 -9.6875,4.375 -8.75,8.125 -17.5,8.75 -7.5,8.75 -9.0625,4.0625 -36.25,0.3125 -13.75,9.0625 -2.1875,15 5.3125,7.1875 4.375,11.25 4.6875,1.5625 0,6.25 -9.0625,0.9375 -6.25,4.0625 -3.125,4.0625 -9.375,0 -5.625,-3.4375 -3.75,-6.875 -7.8125,-2.5 -9.6875,-0.625 -4.375,4.0625 -3.75,5.3125 -5.3125,0.3125 -2.8125,-4.375 0,-10 -3.75,-5.9375 -14.0625,0 -9.375,10.9375 -5,8.75 -8.125,5.625 -5.625,3.75 -3.75,13.4375 2.8125,6.875 -3.75,2.8125 -5.9375,3.75 -5.3125,-1.875 -7.5,-4.375 -3.4375,-9.375 -5.625,-10.625 -4.0625,-5.9375 -2.1875,-15.3125 -1.875,-12.8125 -10.625,-5 -3.75,7.1875 -9.0625,8.125 -10.9375,3.125 -5.625,5.625 -6.875,9.375 -9.375,3.75 -10,1.5625 -11.7187,-0.5078 z"
       id="path3960"
       style="color:#ffffff;fill:#e45c36;fill-opacity:1;stroke:#ffffff;stroke-width:2;stroke-linecap:butt;stroke-linejoin:round;stroke-miterlimit:4;stroke-opacity:1;stroke-dasharray:none;stroke-dashoffset:0;marker:none;visibility:visible;display:inline;overflow:visible;enable-background:accumulate" />
  </g>
  <g
     transform="translate(1657.6072,1303.1786)"
     id="layer8"
     style="display:inline">
    <path
       d="m -182.56058,567.34588 -9.3494,-2.12145 -11.9768,-3.15955 -3.34945,-0.97895 -1.4642,-0.476 -4.3462,-1.90685 -1.04495,-0.69265 -0.9854,-0.74495 -1.6309,-0.9927 -1.31805,-0.28 -9.2639,-1.0858 -17.5083,8.2406 -8.61385,8.901 -0.7938,1.04035 -0.6559,1.3023 -1.4866,4.6117 -0.1015,1.92195 0.283,1.7847 0.6605,5.26995 -0.188,0.51695 -0.2315,0.60835 -0.1805,0.4315 -0.71685,0.81815 -7.57135,5.9389 -2.7641,0.99105 -0.56795,0.53715 -0.6112,0.8048 -0.389,0.80455 -0.79445,1.93015 -0.066,2.2296 -5.7923,-6.0476 -17.18865,-16.32385 -4.39475,-3.82565 -5.4945,-4.05885 -0.993,-0.463 -0.8775,-0.3845 -9.5668,-3.3001 -3.864,-1.00095 -2.4508,-0.4595 -5.00735,-0.50135 -8.40475,-1.535 -7.95905,-1.7241 -1.1994,-0.58595 -0.396,-0.6209 -0.385,-1.31305 -0.52105,-0.686 -0.51345,-0.411 -2.734,-1.8713 -4.44115,-2.42375 -5.3614,-2.68985 -8.82915,-3.212 -13.714,-4.51385 -4.40955,-0.487 -2.48525,-0.2425 -1.2943,-0.121 -7.0964,-3.1937 -8.5031,-2.82405 -0.91965,-0.2135 -8.12635,-1.03185 -15.70125,-3.79585 -1.05675,-0.58565 -5.6552,-3.95395 -0.102,-0.0905 -0.61205,-0.54185 0.003,-6e-4 -6.94705,-19.4365 0.90935,0.3825 0.9573,0.3635 1.70805,0.5642 0.7929,0.1295 0.113,0.02 5.8437,0.58495 3.0292,0.01 10.57075,-0.9039 3.8753,-0.446 6.53805,-0.7524 5.81255,-3.23885 0.208,-0.262 14.40125,-22.6493 2.07995,-3.635 1.52415,-2.9524 4.5659,-10.87305 -0.045,-0.3595 -1.58055,-10.0024 -2.0781,-4.20705 -0.91005,-0.9596 -0.5452,-0.64585 -0.6202,-0.7768 -0.2615,-0.7191 -0.3925,-1.10415 -0.4085,-2.60215 -0.6083,-6.0539 -0.1575,-8.63915 0.04,-0.9023 0.4815,-0.9954 1.3982,-2.31165 0.7473,-0.74745 2.58205,-1.3985 8.0435,-1.9184 -0.3235,-9.5186 -0.304,-1.5891 -0.1555,-0.3655 -0.1065,-0.1695 -2.27075,-2.56525 -0.60365,-0.6333 -0.2275,-0.2285 -19.04375,-16.4377 -16.7446,-9.88755 -0.439,-0.2475 -0.4245,0.4915 -1.2213,1.87955 -3.1412,4.05615 -0.95945,0.9383 -2.04515,1.46985 -0.3385,-0.2085 -0.224,-0.189 -0.2455,-0.235 -21.04515,-32.5333 -2.85055,-5.85865 1.26125,-1.1153 0.8246,-0.7997 1.5683,-4.72005 -1.3613,-4.1036 -0.52505,-0.54145 -5.84415,-5.4902 -0.722,-0.5151 -1.0069,-0.6379 -17.3711,2.7258 -6.7987,0.81915 3.1345,-4.52935 1.036,-1.69695 0.59925,-1.1593 0.55075,-1.49345 0.23,-1.72745 -0.107,-0.73195 -0.3345,-0.98595 -1.647,-3.4748 -0.9113,-1.5148 -5.52485,-8.32165 -17.7365,-2.5708 -5.676,7.23565 -12.2436,-2.188 -1.8414,-1.24965 -4.89815,-4.1621 -5.62735,-5.1214 -0.5058,-0.4295 -0.156,-0.1325 -4.17695,-3.5278 -6.81585,-5.70535 -0.9363,1.07 -0.63795,0.81385 -0.73325,0.7875 -0.95425,0.9912 -3.8858,2.1536 -0.399,0.1385 -0.6092,-0.416 -0.71775,-0.82145 -0.63235,-0.7301 -5.6559,-7.30425 -5.0833,-6.6592 -0.7656,-0.9189 -4.19725,-4.81715 -0.98465,0.4155 -0.236,0.5439 -0.311,0.4335 -0.75755,0.6308 -0.89625,0.52715 -0.85135,0.422 -0.424,-0.04 -5.51285,-4.05905 0.125,-0.8231 1.4984,-3.0868 1.29615,-1.91545 0.80425,-0.8865 11.3638,-12.2889 17.82445,-17.8852 6.5094,-0.89345 7.07895,-10.8041 1.6742,-5.06845 8.79365,-12.6408 1.37875,-0.79625 0.5617,-0.2635 0.82065,-0.2975 2.9385,-0.5463 0.84865,-0.1165 7.36105,-0.9919 11.9206,-0.4435 43.8187,-21.97735 15.98635,-20.66115 6.06885,-5.6391 0.2785,-0.478 3.0927,-5.9649 3.41845,-6.79015 -0.4435,-4.956 -1.49525,-7.4017 -2.96295,-0.761 -0.1545,-0.04 -0.50325,-0.1245 -0.124,-13.13225 0.065,-0.438 0.226,-0.53005 0.4235,-0.53125 0.539,-0.56375 0.7813,-0.7144 1.19915,-0.91865 0.6397,-0.79265 0.6011,-0.87105 4.8271,-8.8395 0.656,-1.5119 0.91115,-2.0948 4.6255,-12.9054 0.7547,-2.10465 2.839,-7.9283 0.03,-0.0925 2.1278,-5.9356 -7.1381,2.34885 -3.2551,1.19685 -6.9202,6.5746 -0.2755,0.164 -0.6505,0.123 -15.43255,1.0031 -1.10125,-12.39005 -7.14635,-9.6428 -1.4322,-1.93155 -0.0605,-0.087 -2.16215,-2.9176 -0.02,-0.03 -11.7856,-19.2217 -2.2875,-4.20335 -2.39835,-6.6256 -4.6126,0.288 -0.5216,-4.4918 -4.0639,-38.1708 -1.6289,-16.46915 -0.015,-0.155 -0.80765,-8.1708 -1.37865,-13.93325 3.583,0.53995 7.2567,-1.602 15.3236,-8.2996 18.0803,-9.7883 0.239,-0.129 7.9453,-4.2993 3.4235,-1.851 0.687,-0.747 3.5121,-7.65245 -0.108,-1.1112 -0.175,-0.9743 -0.2465,-1.0262 -0.5613,-1.19615 -0.6914,-0.63285 -4.26775,-2.56805 -1.04915,-0.449 -0.93995,-0.384 -2.877,1.1836 -1.2625,0.461 -1.06865,-0.162 -1.49285,-0.3435 -1.2392,-0.331 -2.01,-0.57105 -1.23025,-0.5529 -17.1864,-10.37255 -18.5415,-9.47695 -9.42305,-5.633 -11.43255,-8.55015 -28.6148,-8.90365 -13.2615,-3.70695 -0.0905,-0.025 0.4345,-1.2242 10.70985,-20.6561 1.9057,-3.65575 22.50165,1.06615 2.3297,0.1965 3.8609,0.513 1.5628,0.2045 2.0159,0.276 0.81185,0.22 9.2411,2.5068 4.0078,1.64445 0.4265,0.79075 1.20855,1.7296 0.4145,0.444 4.54495,1.7545 1.29215,0.50045 9.76615,3.377 0.04,0.01 5.337,1.50005 6.62935,2.2675 2.74585,1.0141 1.14555,0.5073 4.55065,2.14175 -0.53445,-6.31695 0.6686,0.286 1.1963,0.5038 7.0397,2.64085 6.8311,1.93245 1.0164,-0.3555 1.9591,-0.1405 1.7837,0.61125 5.64995,2.20655 26.67035,11.2897 38.06965,14.8437 31.6916,14.52085 25.0533,11.9089 2.1079,1.15965 0.7893,0.435 1.8999,1.03435 2.57595,1.40275 1.3593,0.6276 8.56805,3.8135 11.1387,3.642 12.3741,3.78935 7.4557,2.23145 1.9602,0.52335 2.5318,0.57865 2.68315,0.1575 4.1013,-0.21 1.09145,0.27 0.9627,0.9232 2.4411,1.5589 2.485,1.2731 0.4395,-0.5219 0.045,-0.186 0.1235,-0.04 1.10265,0.3585 2.15145,1.6 0.2805,0.2435 0.3065,0.2875 0.2895,0.369 0.2255,0.4415 0.53625,0.78605 0.1,0.1115 0.9476,0.70465 4.8225,3.384 0.80295,-0.005 7.1143,5.3217 6.5742,4.9746 0.1385,0.1035 2.2561,1.6462 8.23825,5.3953 2.5413,1.5896 3.9021,2.19185 9.15545,4.52525 5.69165,2.56235 5.6348,2.18945 5.79265,1.73905 1.59855,0.3305 1.64275,0.34 0.487,0.1015 1.9145,0.3965 2.34385,0.01 2.4476,0.01 2.20105,-0.79995 0.4825,-0.244 0.9535,-0.699 0.235,-0.176 -1.28435,-3.51865 2.60615,-1.9263 1.139,-2.81195 2.3796,-3.46245 0.201,0.175 0.128,2.78805 -0.95485,1.35905 -3.35765,3.1159 -0.5306,0.64625 -0.1655,0.155 0.636,3.7948 0.1895,0.5954 0.3765,0.5424 4.83675,1.4297 0.389,0.87015 -0.058,0.2285 0.184,0.0535 3.04255,-0.05 1.05375,-0.0725 0.0905,-0.4965 0.6676,-4.9976 0.21,-1.8028 0.051,-2.8747 -0.02,-0.222 -0.142,-0.88245 -0.4105,-1.77855 -0.127,-0.452 -0.50695,-1.75245 -0.3315,-1.1381 0.3215,-0.1365 1.3038,5.2643 0.27,1.7194 0.04,1.30065 -0.02,0.50365 -0.025,0.52925 -0.02,0.313 -0.02,0.111 -0.067,0.155 0.114,3.2507 -0.045,0.2035 2.5813,3.34195 7.88285,3.53105 1.0474,0.446 1.15485,0.408 1.6985,0.5047 0.433,0.112 2.4392,0.5841 1.1816,0.263 0.5024,0.1055 3.19525,0.474 3.0623,0.54585 2.6505,0.51085 3.309748,1.4088 2.6146,0.922 1.86535,0.3285 1.14045,0.0795 5.41215,0.8263 3.528,0.68715 3.7935,0.183 1.03745,-0.04 1.63075,0.361 3.59355,0.9504 2.2427,1.0102 0.9267,1.1314 1.35455,1.38555 2.54585,-0.3145 1.78165,-0.118 0.03,0.015 1.26455,0.3675 1.15995,0.5709 0.254,0.229 4.12285,1.31985 3.5763,1.6407 2.44245,1.20045 1.5854,0.9245 3.8176,2.2295 11.17385,6.5903 0.499,0.3645 10.15265,5.4593 15.70325,6.15545 1.2394,0.1685 1.3234,-0.025 0.61375,-0.097 0.64395,-0.1835 0.265,-0.186 3.21805,0.51005 10.3222,2.80745 6.95065,2.72595 3.5955,3.336 0.92195,3.10645 0.085,0.1935 0.0905,0.1335 0.1025,0.134 0.0675,0.077 0.138,0.165 0.108,0.1245 0.4065,0.465 0.57635,0.461 0.222,0.172 0.3115,0.239 23.73815,14.9974 0.63045,0.397 3.2631,1.58125 1.7268,0.74355 0.349,0.0015 0.731,-0.338 5.7092,0.91205 5.7702,2.02865 1.558,0.6682 2.26265,1.26615 6.27795,0.62275 26.326652,5.4807 11.33955,2.77455 -1.24115,3.52695 -0.188,0.426 -1.0498,1.1351 0.469,0.421 0.2555,0.1895 0.2375,0.132 1.44605,0.2745 0.113,0.02 9.49595,-0.52435 0.079,-0.0675 0.0915,-0.1085 -3.5e-4,-0.076 -0.015,-0.218 -0.035,-0.374 0.11,-0.106 1.09945,-0.219 0.425,0.02 1.5247,0.16 3.2913,0.8862 4.4222,1.3886 7.42875,2.8051 0.69395,0.261 1.1398,0.5032 1.14245,0.7355 2.9018,2.2365 0.254,0.3085 0.381,0.55265 0.1095,0.171 0.0725,0.413 -0.04,0.371 -0.111,0.1795 -0.2335,0.1935 -0.2755,0.117 -0.223,0.162 -0.099,0.1785 -0.1535,1.2138 5.96785,2.2471 2.62195,0.4535 -3.7116,13.36265 -0.03,0.1675 -0.02,0.1 -0.055,0.274 -0.1105,1.3131 -0.015,0.6475 0.1465,0.373 0.391,0.38 0.3295,0.6089 0.277,0.79855 0.114,0.72605 0.108,0.7456 0.05,0.3025 0.015,0.1155 0.035,0.4845 -0.1,1.70445 -0.265,3.18925 -0.4555,1.47545 -0.185,0.3985 -4.4858,8.1723 -2.3671,3.4751 -6.2564,9.23855 -7.3376,12.6347 -4.94585,10.72085 1.8724,11.03925 0.184,0.7783 0.2345,0.3675 2.8232,3.2707 -5.70465,19.14415 -0.4695,1.48195 0.01,0.005 -3.6919,12.06 -2.06025,0.73175 -0.50075,-0.01 -13.2862,-1.02905 -7.655802,-1.11525 -8.88895,3.3654 -1.98395,4.43885 -0.355,0.6003 -0.70575,0.63185 -0.5269,0.214 -3.6779,-6.20025 -2.9995,-5.53195 -2.47125,-8.64165 -5.449,-11.07465 -6.44745,-4.87445 -2.51285,-0.268 -6.36365,-1.2848 -10.96505,-9.3949 0.1895,-0.50945 0.4315,-1.0454 0.261,-0.61995 -1.7283,-4.7826 -0.3895,-0.51075 -0.57245,-0.4785 -0.7686,-0.2505 -7.19525,-2.01825 -0.5767,-0.1215 -0.04,0.7359 -0.3325,0.74415 -0.29,0.385 -0.397,0.372 -0.403,0.28 -8.3103,3.582 -21.08265,-0.8493 -2.8219,-1.4327 -0.102,-0.49 -1.5237,-6.20735 -2.6619,-1.18815 -3.6117,-0.97695 -3.9161,2.3751 -0.708,1.1272 -1.09865,3.44405 -3.9053,14.9817 -17.1634,15.51825 -3.18285,4.05045 -0.8698,1.75725 -0.2385,0.76455 -1.1703,5.2926 -0.4415,2.2161 -0.308,2.2352 -6.1961,-1.82065 -13.92325,-4.1757 2.1945,7.60895 0.2385,0.99415 0.7073,5.96945 -0.5755,1.39845 -1.24855,2.7699 -1.3454,2.65215 -0.57355,0.6986 5.584,12.6115 5.6241,4.50595 3.5862,3.37875 2.50205,2.494 0.05,0.05 -3.38575,12.9783 -0.342,1.189 -0.52265,1.2087 -0.499,0.9992 -0.2065,0.32 -0.56725,0.8751 -1.41185,2.084 -1.7545,2.06275 -15.48195,17.9441 -4.22665,3.5903 -0.74125,0.5814 -0.4505,1.07825 -0.5955,1.8083 -2.0121,6.1052 -0.1275,0.39 -0.4585,1.39395 -2.3974,7.3132 -0.4615,3.05905 -1.7119,3.64625 -10.46025,12.483 -2.5874,11.7978 -0.4465,0.7842 -4.709248,7.32415 -4.4594,6.52135 -2.0049,2.94045 -12.808,21.82075 -7.65785,15.2358 -0.76575,2.0262 -1.728,6.09235 0.226,1.00045 2.68395,2.87175 1.94045,1.8511 0.463,0.2165 0.258,1.05285 -0.0655,1.13695 -0.386,4.18445 -0.201,0.8827 -0.80315,0.7643 -1.0688,0.8429 -1.32795,0.7836 -1.1051,0.58195 -4.6264,4.18825 -0.5462,0.6147 -3.2354,6.61205 14.7526,12.5842 -3.26095,17.9183 -2.45835,13.49385 -4.64525,27.48995 -0.3795,5.15815 -3.1934,2.2484 -2.20855,1.8824 -12.4683,11.0732 -0.82815,0.76485 -0.1365,0.1265 -0.56545,0.52095 -0.59955,0.63365 -6.167,8.38885 -0.6946,0.96735 -14.4078,22.59115 -0.66565,1.22295 -0.4945,1.16345 -0.496,1.18345 -2.11435,5.6369 -1.4196,3.9426 -2.4343,7.06215 z"
       id="path858"
       style="fill:#e45c36;fill-opacity:1;stroke:#ffffff;stroke-width:2;stroke-linejoin:round;stroke-miterlimit:4;stroke-opacity:1;stroke-dasharray:none" />
  </g>
  <g
     transform="translate(1657.6072,1303.1786)"
     id="layer5"
     style="display:inline">
    <path
       d="m 1632.9018,1313 3.5714,9.375 4.0178,-2e-4 2.009,-6.4733 19.4196,0 9.5982,6.25 25.6697,-0.223 19.4196,7.5893 1.1161,2.6786 4.6875,0.4465 4.0178,-9.8215 10.2679,-3.125 12.9464,3.5715 6.25,5.5803 7.8125,6.9197 4.0179,9.375 c 0,0 2.2321,11.8301 1.1161,11.6071 -1.1161,-0.2235 7.8125,10.0446 7.8125,10.0446 l 4.241,-3.7946 3.3482,-7.1429 8.4822,-1.3392 4.2411,6.4732 5.3571,-2.009 4.9107,7.1429 c 0,0 -0.223,6.4734 -1.1161,6.6964 -0.8928,0.223 -7.8125,-1.116 -7.8125,-1.116 l -10.2678,-5.5804 0,8.4821 8.4821,6.0268 13.1305,9.2545 17.0463,17.6777 3.7881,6.9448 -12.6269,6.3135 -1.2627,17.0463 6.3134,17.0463 11.9956,13.8896 8.2075,10.1015 15.7836,1.8941 12.6269,11.3642 4.4194,14.5209 13.2583,10.1015 17.0463,4.4195 11.9956,10.1015 8.2075,23.9911 10.1015,2.5254 6.9448,15.1523 0,19.5717 -3.7881,6.3134 -4.4194,5.6822 -2.5254,11.9955 -12.6269,10.1015 -12.6269,3.1568 -6.9448,11.3642 2.5254,8.8388 5.6821,0 8.8388,-5.6821 11.9956,2.5254 10.7329,1.2627 12.6269,23.3598 6.3134,13.2582 -0.6313,28.4105 -9.4702,8.2075 -10.1015,-2.5253 -5.0508,3.788 5.6821,11.3642 13.8896,26.5166 18.9404,13.2582 18.9403,34.0927 10.7329,13.2582 18.9404,7.5761 14.5209,15.1523 31.5673,20.2031 19.5717,10.7329 17.6776,11.9955 c 0,0 26.5165,20.8344 23.3598,18.9404 -3.1567,-1.8941 21.4658,5.6821 21.4658,5.6821 l 13.2582,6.3134 15.7836,5.6821 20.8344,11.9956 46.7196,-0.6313 28.4105,-5.0508 15.1523,10.7329 21.4658,9.4702 6.3134,8.8388 23.9911,8.2075 2.5254,8.2075 5.0508,5.0507 3.281,2.2233 7.3661,0.6697 11.8303,-2.6786 2.6786,-2.6786 5.5803,-2.0089 1.1161,2.2322 3.3482,0.6696 5.5804,-0.4465 5.1339,-9.375 5.1339,-12.9464 2.4554,-6.25 8.4821,-4.4643 -0.223,-12.2768 -6.0268,-6.9196 -2.4553,-4.4643 -4.0179,-5.1339 1.7855,-13.1696 6.9197,-4.6875 -1.7857,-32.8125 c 0,0 5.8035,-3.5715 5.5803,-4.9107 -0.223,-1.3393 -0.223,-21.2054 -0.223,-21.2054 l -6.6966,-9.8214 -4.0179,-4.4643 -4.9107,-7.3661 -2.0089,-9.375 2.6786,-4.9107 3.125,-31.0268 3.3482,-29.0178 2.0089,-2.4554 -0.4465,-1.7857 -2.6785,-5.3572 0.4465,-9.5982 1.5625,-6.4732 4.9107,-15.8482 3.7946,-18.5268 5.3572,-10.2678 5.3571,-3.125 9.375,-3.7947 -1.3393,-33.4821 6.6965,-5.134 14.5089,-11.1607 12.2768,-9.5982 4.4643,-4.6875 2.4553,-38.1696 6.6965,-15.1786 8.9285,-19.6429 4.4643,-1.7857 7.5893,-10.0446 6.25,-9.1518 6.4732,-2.0089 -0.8928,-4.0179 -4.6875,-9.375 -8.259,-4.4643 -0.6696,-6.6964 0,-12.7232 8.7053,-2.0089 -3.125,-3.5715 -4.4642,-10.491 -5.3572,-6.6965 -3.7946,-3.5714 -12.5,0.6696 -2.2322,6.0268 -4.241,-0.223 1.5625,-8.0357 -0.6697,-8.0357 -11.1607,-7.1429 -5.8036,-7.5893 -6.25,-17.4107 -5.8035,-11.3839 -10.0447,-6.0268 -0.8928,-10.4911 -3.7947,-4.6875 -0.8928,-9.8214 6.0267,-6.25 -1.7857,-14.0625 -9.5982,-7.143 -3.7947,-9.5983 -7.1428,-7.366 -3.3483,-9.8215 -4.0178,-8.4821 -3.125,-8.7054 -7.8125,-10.0446 -3.7947,-2.9018 c 0,0 -2.0089,-15.625 -2.9017,-16.5178 -0.8929,-0.8929 -7.1429,-6.4733 -7.1429,-6.4733 l -4.0179,-9.8214 -9.375,-3.125 -16.9642,-3.125 -6.9197,-5.8036 -12.5,-11.1607 -10.9375,-11.6071 -9.375,-14.7322 c 0,0 -10.7143,-8.2589 -11.8303,-8.7053 -1.1161,-0.4465 -14.7322,-12.7232 -14.7322,-12.7232 l -6.25,-9.8215 -7.8125,-6.25 -8.4821,-5.5803 -8.0357,-1.5625 -9.5983,-3.125 -4.9107,-6.25 -7.8125,-6.9197 -1.5625,-4.9107 -4.6875,-10.491 -2.6785,-5.3572 -12.5,-8.7053 -12.7233,-5.3572 -8.9285,-10.0446 -12.7232,-9.5982 -11.1608,-10.9375 -6.0267,-5.3572 -6.4733,-7.5893 -5.1339,-11.1607 -6.25,-1.3393 -2.6786,-3.125 -16.0714,-1.116 -6.25,-9.5983 -5.5803,-7.5892 -17.8572,-3.7947 -13.1696,-1.3393 -8.7054,-4.6875 -6.9196,-9.82137 -16.2947,-0.4465 -17.6339,-8.0357 -14.5089,-4.2411 -7.3661,-7.14285 -8.4821,-4.6875 -8.259,-7.8125 -6.0268,-3.3482 -7.5892,-3.79465 -4.6875,4.2411 0,8.25895 -6.4733,12.5 -0.6696,12.94645 -11.6071,4.24107 -7.3661,7.1428 -2.4554,6.9197 4.9107,8.0357 11.1608,6.6964 6.25,4.4643 -4.4643,8.7054 -13.3929,0.223 -3.125,-8.9286 -7.3661,-13.3929 -10.491,-1.7857 -2.4554,-7.5893 -0.6696,-8.7053 -8.0357,-0.4465 -3.5715,4.4642 -5.8035,6.6965 -7.3661,5.3571 -2.2322,7.3661 13.1697,2.9018 0.6696,8.4821 -9.375,4.2411 -5.1339,1.3393 -4.9107,-2.009 -5.5804,-4.9107 -3.3482,-2.6785 -9.375,0.4465 -4.4643,8.0357 -8.7053,10.0446 -10.0447,5.8036 c 0,0 -25,2.6786 -26.3393,3.3482 -1.3392,0.6697 -6.0267,7.3661 -6.0267,7.3661 l -2.2322,9.375 -6.6964,22.3214 -3.5714,2.4554 -10.4911,5.1339 -22.9911,4.4643 -12.9464,2.4554 -7.8125,9.5982 -13.6161,1.7857 -7.5893,4.6875 -11.1607,7.1428 -12.7232,9.1518 -14.9554,6.4732 -9.1517,13.8393 -6.9197,8.9286 -7.5893,6.9196 1.5625,6.9197 -2.0089,20.0893 5.5804,7.5893 -0.4465,10.491 -6.6965,6.0268 -0.4465,23.2143 -8.7053,4.6875 -6.25,5.1339 3.125,8.259 10.2678,11.1607 -0.4465,7.5893 -13.8392,1.116 -5.3572,-1.116 -4.9107,3.5714 -2.2321,14.2857 z m 233.5675,336.3714 15.1523,-6.3135 6.9448,6.3135 1.8941,12.6269 -12.6269,5.0507 -8.2075,-4.4194 -3.7881,-7.5761 0.6313,-5.6821 z m -119.9515,-312.2643 8.0357,0.8932 1.1161,4.6875 -2.9018,6.4732 -6.9196,-2.2322 -0.6697,-9.1518 1.3393,-0.6699 z"
       id="Lecce"
       style="fill:#e45c36;fill-opacity:1;stroke:#ffffff;stroke-width:2;stroke-linecap:butt;stroke-linejoin:round;stroke-miterlimit:4;stroke-opacity:1;stroke-dasharray:none" />
  </g>
  <g
     transform="translate(1657.6072,1303.1786)"
     id="layer6"
     style="display:inline">
    <path
       d="m 1101.4461,717.60448 4.4467,-2.8188 3.5714,-5.35715 2.6786,-7.5893 8.4821,-1.7857 11.6072,-3.57145 6.6964,0 16.9643,-0.89285 5.3571,-8.92855 -9.8214,-7.5893 -3.125,-7.5893 3.5714,-10.71425 8.9286,-8.03575 4.4643,-7.58925 -6.25,-2.23215 -13.3929,-2.6786 -18.3036,1.3393 -4.9107,4.4643 -6.25,-2.6786 -9.8214,-6.6964 -6.25,-5.8036 -5.3571,-8.48215 -10.2679,-3.125 -5.2825,-0.392 -16.8885,-3.4724 -13.2583,-3.9459 -11.6799,-4.10375 1.2627,-6.1556 5.0508,-5.5243 1.894,-7.26045 9.3124,-7.4183 5.6821,-11.04855 8.3653,-13.4161 4.7351,-7.26045 7.2605,-8.83885 -0.4735,-5.6821 -3.7881,-4.2616 2.8411,-3.78805 12.1534,-9.62805 c 0,0 9.4702,-7.73395 12.3112,-10.73285 2.8411,-2.9989 8.5232,-8.04965 8.5232,-8.04965 l 10.1015,-8.2075 4.9714,-6.48965 11.2588,6.5467 12.8349,11.0491 19.866,16.51785 27.567,13.5045 15.9598,7.7009 7.3661,10.9375 13.3928,16.62945 16.6295,7.03125 20.2009,9.2634 9.4866,3.0134 18.3036,6.808 11.2723,4.6875 13.5045,5.8036 6.8346,6.16295 4.1038,1.89405 2.841,-3.7881 3.7881,-3.4724 10.4172,-0.3155 5.9978,5.3664 8.8388,5.0508 24.3068,3.4724 17.362,3.4724 27.7792,5.05075 26.5165,5.9978 c 0,0 7.5761,2.2097 9.1545,2.84105 1.5784,0.63135 8.2075,4.4194 8.2075,4.4194 l 13.5739,8.83885 18.309,4.10375 21.1501,9.47015 8.5232,9.1545 9.7858,6.31345 8.8388,5.9978 18.6247,7.57615 10.1016,8.52315 13.5739,0.947 2.841,2.5254 9.7859,0.3155 5.3664,-4.41945 4.4194,3.7881 -1.5783,4.10375 -8.8389,1.57835 -1.894,4.10375 9.1545,5.3664 10.1015,5.9978 18.3091,2.84105 5.0507,5.05075 17.9934,1.5784 11.9955,4.10375 14.8366,1.57835 9.4702,-1.89405 33.777,0 15.7836,-1.57835 7.2605,-7.57615 7.2605,3.1567 0.947,5.0508 5.3664,11.36425 8.5232,6.62915 7.8918,1.57835 14.8366,0.3155 11.3642,0.3155 4.4195,-6.62915 9.1545,0.94705 1.5783,1.894 -0.6313,2.5254 -11.0486,3.1567 -11.3642,1.5784 -12.9426,1.57835 -4.4194,6.31345 -3.4724,8.83885 -6.6291,4.4194 -14.2053,5.05075 -6.9448,4.10375 -1.2627,7.57615 7.5762,-0.3155 10.4172,-5.68215 13.8896,-7.26045 4.1037,-4.4194 5.9978,1.2627 14.5209,-0.3155 2.8411,4.4194 5.9978,1.2627 6.6291,-5.3664 2.5254,-11.04855 10.4172,5.99775 9.7858,7.89185 5.0508,5.99775 0.6313,10.10155 3.1568,12.94255 12.6269,8.2075 8.5231,9.1545 6.6292,4.41945 7.8918,6.9448 3.4724,4.73505 -4.4194,6.9448 -5.3665,8.5232 -4.4194,8.8388 -1.5783,9.78585 0.947,11.6799 11.6799,9.78585 9.1545,9.78585 10.4172,2.2097 8.2075,4.10375 12.6269,7.2605 3.788,7.57615 2.5254,11.0485 9.4702,8.2075 7.2605,3.15675 4.5796,4.12305 -4.8035,4.33935 0,8.25895 -6.4732,12.5 -0.6696,12.94645 -11.6072,4.24102 -7.3661,7.1429 -2.4553,6.9196 4.9107,8.0357 11.1607,6.6965 6.25,4.4643 -4.4643,8.7053 -13.3928,0.223 -3.125,-8.9285 -7.3661,-13.3929 -10.4911,-1.7857 -2.4553,-7.5893 -0.6697,-8.7054 -8.0357,-0.4465 -3.5714,4.4643 -5.8036,6.6964 -7.3661,5.3572 -2.2321,7.366 13.1696,2.9018 0.6697,8.4822 -9.375,4.241 -5.1339,1.3393 -4.9108,-2.0089 -5.5803,-4.9107 -3.3482,-2.6786 -9.375,0.4465 -4.4643,8.0358 -8.7054,10.0446 -10.0446,5.8036 c 0,0 -25,2.6785 -26.3393,3.3482 -1.3393,0.6696 -6.0268,7.3661 -6.0268,7.3661 l -2.2321,9.375 -6.6965,22.3214 -3.5714,2.4553 -10.4911,5.134 -22.991,4.4643 -12.9465,2.4553 -7.8125,9.5982 -13.616,1.7857 -7.5893,4.6875 -11.1607,7.1429 -12.7232,9.1518 -14.9554,6.4732 -9.1518,13.8393 -6.9196,8.9286 -7.7327,7.3718 -3.2267,-0.05 -5.3664,-7.8918 -5.0508,0 -5.3664,3.788 -3.1568,5.0508 -2.5253,1.894 -8.2075,-12.3112 -2.5254,-6.3135 -10.1015,-2.2097 -13.8896,5.6821 -8.2075,4.4195 -11.0486,4.4194 -10.1015,-5.3665 -6.6291,-13.5739 -3.7881,-5.0507 -16.7307,-0.3155 -7.5761,-4.4194 -5.3664,-7.8919 -5.6821,-11.3642 -3.4724,-15.7836 -2.2097,-9.1545 -7.5762,0.3155 -0.947,5.9977 -11.6799,1.8941 -5.6821,-4.7351 -6.9448,-2.5254 -14.5209,-5.0508 -6.3135,-12.3112 -11.0485,-5.9978 -3.4724,1.5784 -0.6314,5.3664 -7.2605,5.0508 -3.4724,-3.7881 -0.947,-4.7351 -11.0485,-2.841 -5.3665,2.5254 -5.0507,4.4194 -5.9978,5.9978 -8.8388,2.841 14.5209,11.9956 2.5254,4.7351 -4.7351,10.4172 -21.1501,0.3155 -6.9448,2.841 -5.6821,-0.6313 -1.5783,-4.7351 -8.8389,-1.894 -2.841,5.0507 -0.6314,4.4194 -9.7858,-6.9448 -10.1016,-10.4172 -8.8388,-11.6798 -1.2627,-11.0486 -5.6821,-10.7329 -5.3664,-5.0507 -24.3068,-3.4724 -9.7859,-8.5232 -4.4194,-12.9426 -4.7351,-6.3134 -8.2075,-15.468 -10.4172,-16.7306 -5.6821,-14.2053 -9.4702,-16.09932 -10.7328,-13.5739 2.2097,-10.10155 1.5783,-12.94255 5.3665,-20.51875 9.4702,-8.20745 3.788,-9.78585 2.8411,-14.83665 -5.0508,-9.1545 -5.9978,-5.05075 -15.4679,-2.84105 -14.8366,-3.4724 -13.8896,-9.1545 -6.6292,-11.04855 -4.735,-24.93815 -4.4195,-18.6247 -6.3134,-11.6799 8.8388,-6.6291 4.7351,-8.83885 -3.7881,-4.10375 -11.6798,4.10375 -4.7351,-3.78805 -11.9956,-7.2605 -9.1545,-8.8388 2.2097,-12.62695 -6.9448,-15.15225 -25.5695,-6.62915 -15.7836,-3.78805 -14.985,-7.793 z"
       id="path4409"
       style="fill:#e45c36;fill-opacity:1;stroke:#ffffff;stroke-width:2;stroke-linecap:butt;stroke-linejoin:round;stroke-miterlimit:4;stroke-opacity:1;stroke-dasharray:none" />
  </g>
  <g
     transform="translate(1657.6072,1303.1786)"
     id="layer7"
     style="display:inline">
    <path
       d="m 953.66067,1165.6786 5.3125,-0.625 9.375,1.5625 2.8125,5.625 0,5 -14.0625,2.1875 -5.9375,-5.3125 -3.75,-2.8125 6.25,-5.625 z"
       id="path2853"
       style="color:#ffffff;fill:none;stroke:#950000;stroke-width:2;stroke-linecap:butt;stroke-linejoin:miter;stroke-miterlimit:4;stroke-opacity:1;stroke-dasharray:none;stroke-dashoffset:0;marker:none;visibility:visible;display:inline;overflow:visible;enable-background:accumulate" />
    <path
       d="m 1101.6892,718.56313 14.7419,6.83435 15.7836,3.78805 25.5695,6.62915 6.9448,15.15225 -2.2097,12.62695 9.1545,8.8388 11.9956,7.2605 4.7351,3.78805 11.6798,-4.10375 3.7881,4.10375 -4.7351,8.83885 -8.8388,6.6291 6.3134,11.6799 4.4195,18.6247 4.735,24.93815 6.6292,11.04855 13.8896,9.1545 14.8366,3.4724 15.4679,2.84105 5.9978,5.05075 5.0508,9.1545 -2.8411,14.83665 -3.788,9.78585 -9.4702,8.20745 -5.3665,20.51875 -1.5783,12.94255 -2.2097,10.10155 10.7328,13.5739 9.4702,16.09932 5.6821,14.2053 10.4172,16.7306 8.2075,15.468 4.7351,6.3134 4.4194,12.9426 9.7859,8.5232 24.3068,3.4724 5.3664,5.0507 5.6821,10.7329 1.2627,11.0486 8.8388,11.6798 10.1016,10.4172 9.7858,6.9448 0.6314,-4.4194 2.841,-5.0507 8.8389,1.894 1.5783,4.7351 5.6821,0.6313 6.9448,-2.841 21.1501,-0.3155 4.7351,-10.4172 -2.5254,-4.7351 -14.5209,-11.9956 8.8388,-2.841 5.9978,-5.9978 5.0507,-4.4194 5.3665,-2.5254 11.0485,2.841 0.947,4.7351 3.4724,3.7881 7.2605,-5.0508 0.6314,-5.3664 3.4724,-1.5784 11.0485,5.9978 6.3135,12.3112 14.5209,5.0508 6.9448,2.5254 5.6821,4.7351 11.6799,-1.8941 0.947,-5.9977 7.5762,-0.3155 2.2097,9.1545 3.4724,15.7836 5.6821,11.3642 5.3664,7.8919 7.5761,4.4194 16.7307,0.3155 3.7881,5.0507 6.6291,13.5739 10.1015,5.3665 11.0486,-4.4194 8.2075,-4.4195 13.8896,-5.6821 10.1015,2.2097 2.5254,6.3135 8.2075,12.3112 2.5253,-1.894 3.1568,-5.0508 5.3664,-3.788 5.0508,0 5.3664,7.8918 2.8501,0.6232 2.0826,5.8927 -2.0089,20.0893 5.5804,7.5893 -0.4465,10.491 -6.6965,6.0268 -0.4465,23.2143 -8.7053,4.6875 -6.25,5.1339 3.125,8.259 10.2678,11.1607 -0.4465,7.5893 -13.8392,1.116 -5.3572,-1.116 -4.9107,3.5714 -2.2321,14.2857 2e-4,2e-4 3.503,9.4838 -6.0254,-6.4927 -4.8437,0.156 -7.3438,3.4375 -4.2187,4.0625 -5.9375,-0.156 -4.6875,-10.4688 -7.1875,-1.4062 -14.8438,-0.625 -18.2812,0 -17.0313,0.9375 -20.4931,4.7238 -17.0148,3.0936 -37.565,4.8613 -15.026,6.8501 -31.8198,2.8726 -21.8762,5.9663 -22.318,5.7452 -24.7488,1.1049 -14.805,-6.8501 -2.6517,-12.8163 -9.2807,-2.4307 -20.1084,-5.3033 -15.247,-3.5356 -11.2695,-4.8613 -4.4194,-8.8389 -16.7938,-2.2097 -9.7227,1.1049 -2.8726,2.4307 -11.9325,1.9887 -13.9211,-1.3258 -4.6404,-6.6291 -15.6889,-6.4082 -7.734,-7.955 -30.273,-7.071 -2.6517,-7.0711 -11.4905,-5.7452 -6.1872,2.6516 -3.9774,4.8614 -6.1872,2.2097 -15.468,-4.4194 -2.2097,-7.0711 -3.5355,-7.513 -4.4194,-4.8614 -20.7713,-1.3258 -4.4194,-2.6516 -11.0486,-11.4905 -10.1646,-3.5356 -14.5841,-2.2097 -7.0711,-4.8613 -10.6066,-4.4194 -5.7452,-4.8614 -8.1776,-1.5683 -6.0937,-0.4685 -7.8125,3.125 -7.34378,2.1875 -4.375,-3.2813 -2.03125,-7.6562 0,-5.4688 10.3125,-9.6875 6.40623,-6.7187 3.9063,0.7812 4.375,2.0313 4.2187,1.7187 3.9063,-0.625 5.9375,-2.5 5.9375,-7.8125 2.1875,-5 2.8125,-6.875 1.0937,-8.75 c 0,0 0,-5.9375 -0.156,-6.875 -0.156,-0.9375 -1.4062,-10 -1.4062,-10 l -4.5313,-11.875 -5.3125,-8.4375 -8.125,-5.3125 -12.8127,-5.9377 c 0,0 -5.625,-0.625 -6.87503,-0.625 -1.25,0 -15.3125,-0.3125 -15.3125,-0.3125 l -1.5625,2.8125 -3.4375,4.0625 -6.25,0.3125 -6.25,-0.625 -3.4375,-5.9375 -1.25,-3.4375 -2.8125,-7.1875 -3.125,-3.125 -7.5,-1.5625 -6.875,-6.25 -2.8125,-2.8125 -3.125,-3.4375 -5,2.8125 -3.75,4.0625 -5.9375,4.0625 -9.375,2.8125 -2.1875,-2.8125 0.9375,-5.9375 5,-3.125 2.5,-5.625 0,-5.9375 -4.375,-3.125 -7.1875,-2.1875 -7.5,-2.1875 -17.1875,0 -9.9252,-0.9363 -13.5897,-0.3315 -9.1703,1.5468 -8.1759,4.309 -6.0767,0.3315 -12.59535,6.2976 -16.35185,1.9888 -18.34055,9.5017 -8.83885,6.4082 -21.1027,13.5897 -10.0542,8.5074 -12.0429,6.2976 -10.27515,10.6066 -8.2864,8.0655 -9.72275,6.7396 -8.39685,11.2695 -13.0373,8.7283 -7.4025,9.3913 -15.02605,22.4285 -13.0373,10.8276 -3.5355,7.734 -2.54115,8.5074 -4.52995,4.9718 -6.0767,6.4082 -2.2097,4.4194 -6.96055,8.3969 -3.2041,10.6066 -6.8501,0 -10.3856,-0.5524 -3.3146,-8.6179 -3.20405,-7.955 -6.51865,-4.6403 -3.31455,3.425 -0.66295,3.7565 -9.17025,0 -5.5243,-8.5074 -10.7171,-8.2864 -1.4363,-6.4081 -2.43065,-3.9775 -5.6348,-5.1928 -1.65725,-3.4251 -0.7734,-14.2526 -5.4138,-8.3969 -7.29205,-9.0598 -8.2864,-3.9775 -2.9831,-3.204 -7.513,-0.9944 -1.6573,4.4194 -9.9437,0.5524 -14.9155,-0.7734 -1.6573,-3.867 -5.74525,-5.1928 -2.0992,2.3202 -2.9831,6.4082 -3.9775,1.5468 -7.18155,-0.221 -7.513,-7.1816 -8.3969,-5.7452 -4.86135,-3.5356 -2.2097,-8.3969 3.97745,-4.4194 5.74525,-7.0711 6.62915,-4.4194 3.5355,-6.1872 2.2097,-6.6291 -0.442,-6.6291 -6.62915,-4.8614 -3.0936,-4.8613 -10.16465,-1.3258 -5.74525,-1.3259 -2.2097,-3.9774 -3.97745,-6.6292 0,-7.513 6.6291,-2.2097 3.53555,-1.3258 1.3258,-4.4194 0,-4.8614 -6.18715,-5.3033 -9.72275,-3.5355 -6.6291,-2.2097 -4.8614,-3.9775 0.442,-6.1872 2.65165,-10.6066 1.7678,-4.4194 2.2097,-7.513 3.97745,-8.3969 3.53555,-6.1872 0,-7.513 -5.74525,-2.6517 -3.97745,-3.97742 -3.9775,-3.53555 2.65165,-4.86135 7.95495,-2.65165 7.95495,-2.2097 4.41945,-4.8614 0,-5.3033 -7.0711,-3.09355 -9.28075,-4.41945 -7.95495,-4.86135 -0.97185,-6.29985 -0.3125,-9.375 -2.65625,-9.375 -0.9375,-15.78125 4.6875,-9.6875 3.125,-8.4375 4.0625,-8.90625 0.4685,-22.34375 1.25,-11.25 -3.90625,-11.09375 -7.5,-4.6875 -9.375,-2.5 -9.0625,-5 -3.125,-9.0625 9.375,-6.25 8.4375,0 3.12515,-7.7734 11.56265,0.2735 10,-1.5625 9.375,-3.75 6.875,-9.375 5.625,-5.625 10.9375,-3.125 9.0625,-8.125 3.75,-7.1875 10.625,5 1.875,12.8125 2.1875,15.3125 4.0625,5.9375 5.625,10.625 3.4375,9.375 7.5,4.375 5.3125,1.875 5.9375,-3.75 3.75,-2.8125 -2.8125,-6.875 3.75,-13.4375 5.625,-3.75 8.125,-5.625 5,-8.75 9.375,-10.9375 14.0625,0 3.75,5.9375 0,10 2.8125,4.375 5.3125,-0.3125 3.75,-5.3125 4.375,-4.0625 9.6875,0.625 7.8125,2.5 3.75,6.875 5.625,3.4375 9.375,0 3.125,-4.0625 6.25,-4.0625 9.0625,-0.9375 0,-6.25 -4.6875,-1.5625 -4.375,-11.25 -5.3125,-7.1875 2.1875,-15 13.75,-9.0625 36.25,-0.3125 9.0625,-4.0625 7.5,-8.75 17.5,-8.75 8.75,-8.125 9.6875,-4.375 6.5625,4.0625 -0.3125,14.0625 -4.6875,5.3125 -7.5,11.875 -10,6.5625 -0.3125,4.6875 15.3125,10.3125 6.875,7.1875 7.1875,4.0625 10.625,-0.9375 4.375,-3.125 9.6875,-5.9375 10.3125,-3.75 15,-1.875 16.25,0.625 1.25,11.5625 8.125,-0.3125 6.25,-1.25 7.8125,-7.5 9.0625,1.25 2.8125,8.125 4.375,4.6875 15.625,0 5.625,-3.125 11.5625,-5.3125 5.3125,-5.625 -0.3125,-6.5625 -6.875,-5.9375 3.125,-8.125 2.8125,-25.3125 10.9375,-7.5 23.4375,-16.875 12.1875,-8.125 5.3125,7.8125 26.875,-2.5 17.1875,-11.25 5.9375,-10 -11.875,-29.375 -0.3125,-14.0625 26.25003,0 21.25,2.1875 9.0625,9.6875 10.9375,-5.3125 -10.9375,-10 1.5625,-4.6875 c 0,0 13.4375,10 13.75,11.5625 0.3125,1.5625 5.625,15.3125 5.625,15.3125 l -14.375,2.8125 -21.5625,0.625 -5.625,9.0625 24.0625,0.625 -0.3125,6.25 -8.125,2.1875 -2.1875,5.9375 8.8115,8.9879 7.513,9.72275 5.9662,14.58405 7.4026,0.221 6.7396,-6.0767 12.7058,-1.5468 3.7565,6.18715 13.2583,5.4927 z m -148.02853,447.11547 5.3125,-0.625 9.375,1.5625 2.8125,5.625 0,5 -14.0625,2.1875 -5.9375,-5.3125 -3.75,-2.8125 6.25,-5.625 z m -9.0625,-27.1875 0.9375,8.4375 4.6875,7.5 0,5.9375 -9.0625,2.5 -2.1875,3.75 -7.1875,2.1875 -3.75,-3.4375 -10.3125,-2.5 -0.3125,-6.875 8.75,-2.5 6.5625,-6.875 0.9375,-6.5625 4.0625,-2.5 6.875,0.9375 z"
       id="path3664"
       style="color:#ffffff;fill:#e45c36;fill-opacity:1;stroke:#ffffff;stroke-width:2;stroke-linecap:butt;stroke-linejoin:round;stroke-miterlimit:4;stroke-opacity:1;stroke-dasharray:none;stroke-dashoffset:0;marker:none;visibility:visible;display:inline;overflow:visible;enable-background:accumulate" />
  </g>
</svg>
