<?xml version="1.0" encoding="UTF-8" standalone="no"?>
<!-- Created with Inkscape (http://www.inkscape.org/) -->

<svg
   xmlns:svg="http://www.w3.org/2000/svg"
   xmlns="http://www.w3.org/2000/svg"
   version="1.1"
   width="3528.23"
   height="3182.0249"
   id="svg2">
  <defs
     id="defs11" />
  <g
     transform="matrix(50,0,0,50,-11310.725,-1999)"
     id="Trento"
     style="fill:#e45c36;fill-opacity:1;stroke:#ffffff;stroke-width:0.04;stroke-linejoin:round;stroke-miterlimit:4;stroke-opacity:1;stroke-dasharray:none">
    <path
       d="m 274.7277,66.3463 0.1424,-0.216 -0.1067,-0.1822 -0.009,-0.0188 -0.005,-0.0209 0.002,-0.099 0.007,-0.0323 0.005,-0.0203 0.005,-0.0222 0.006,-0.0325 0.002,-0.0248 8e-4,-0.0262 -10e-4,-0.0984 -0.1437,-0.1623 -0.0734,-0.0797 -0.0144,-0.0146 -0.0112,-0.0103 -0.0109,-0.0054 -0.0928,-0.0432 -0.0798,-0.0374 -0.005,-0.0135 -0.0282,-0.1106 -0.0101,-0.0099 -0.0133,-0.0055 -0.1005,0.04 -0.032,0.0199 -0.0465,0.0291 -0.0886,0.0624 -0.0438,0.0384 -0.0395,0.039 -0.2409,0.2848 -0.0972,0.3242 -0.2026,0.1356 -0.0135,0.0052 -0.0222,0.0065 -0.3045,0.0717 -0.6139,0.117 -0.2512,0.0331 -0.1819,0.04 -0.3402,-0.1887 -0.2618,-0.0338 -0.1991,-0.0119 -0.0435,-0.0298 -0.0269,-0.0331 -0.0652,-0.1011 -0.0339,0.015 -0.2629,0.124 -0.0211,0.0133 -0.3728,0.2996 -0.2027,0.0197 -0.3993,0.1063 -0.0704,0.019 -0.0202,0.0055 -0.1677,0.0572 -0.0568,0.0435 -0.008,0.0086 -0.0153,0.0096 -0.0201,0.0103 -0.0257,0.0052 -0.4235,-0.0106 -0.0274,-0.0016 -0.2421,-0.0358 -0.0177,-0.0043 -0.2814,-0.0898 -0.1304,0.0577 0.0383,0.1231 0.27,0.175 0.0115,0.0154 0.005,0.0172 0.0406,0.193 0.0342,0.0092 0.0184,0.0111 0.0621,0.0414 0.0299,0.0208 0.0303,0.036 0.0421,0.0543 0.007,0.0307 -0.007,0.0089 -0.0368,0.0167 -0.0222,0.0096 -0.0161,0.0102 -0.0123,0.0098 -0.008,0.0205 -0.0804,0.3404 -0.01,0.0433 -0.0621,-0.1399 -0.1978,0.059 -0.355,0.1225 -0.0176,0.0109 -0.0156,0.0103 -0.0201,0.0146 0.007,0.0135 0.0264,0.0438 0.0127,0.0182 0.0122,0.0173 0.0123,0.0123 0.012,0.0153 0.0213,0.0276 0.005,0.0324 0.0106,0.1396 0,0.0084 -0.003,0.0059 -0.006,0.013 -0.008,0.0168 -0.0101,0.0183 -0.0462,0.0662 -0.1349,0.2033 -0.1536,0.5643 0.0164,0.1377 0.0407,0.1018 -0.0588,0.0472 -0.008,0.0064 -0.003,0.0085 0.0726,0.539 -0.065,0.0983 -0.1256,0.2028 -0.028,0.0459 -0.1289,0.2127 -0.007,0.0151 -0.1907,0.5009 -0.0495,0.5125 -0.0133,0.021 -0.012,0.017 -0.0258,0.0352 -0.0131,0.017 -0.0168,0.02 -0.1508,0.1108 -0.062,0.044 -0.0147,0.0104 -0.015,-0.0021 -0.0193,-6e-4 -0.0299,0.0015 -0.0453,0.0031 -0.2363,0.0171 -0.0212,0.007 -0.0639,0.0291 -0.0769,0.0321 -0.0122,0.005 -0.0109,0.0029 -0.0114,0.0012 -0.01,8e-4 -0.0816,0 -0.1587,-10e-5 -0.1433,-0.004 -0.009,0.005 -0.008,0.0047 -0.004,0.0031 -0.0182,0.0192 -0.005,0.0069 -0.005,0.0094 -0.006,0.0118 -0.0261,0.0563 -0.1256,0.4991 -0.0663,0.4153 -7e-4,0.006 -10e-4,0.2674 0.004,0.028 0.008,0.0217 0.004,0.0109 0.005,0.0078 -0.1337,0.1143 -0.34,0.0092 -0.0126,-0.0165 -0.0193,-0.0251 -0.0782,-0.0677 -0.0226,-0.0184 -0.1354,-0.0771 -0.3106,-0.0625 -0.002,-0.0798 -0.4717,-0.1214 -0.3054,-0.0727 -0.6773,-0.1416 -0.0574,-0.0118 -0.075,-0.013 -0.0375,-0.0051 -0.0245,-0.0023 -0.008,-7e-4 -0.001,0.0028 0.003,0.0076 0.0265,0.0304 0.01,0.0164 0.008,0.0216 0.0448,0.2813 -0.0135,0.0226 -0.0581,0.0718 -0.0169,0.0205 -0.0157,0.0108 -0.0166,0.0096 -0.0723,0.0399 -0.0411,0.0218 -0.0227,-0.003 -0.0556,-0.0012 -0.0364,-3e-4 -0.0355,0.001 -0.1068,0.0087 -0.0153,0.0104 -0.0246,0.0171 -0.0424,0.033 -0.0162,0.0141 -0.0219,0.0256 -0.009,0.0116 -0.0649,0.1323 4e-4,0.0044 0.003,0.0345 -0.002,0.0504 -0.003,0.0854 -0.0162,0.0641 -0.0866,0.1767 -0.0459,0.0882 -0.0104,0.0094 -0.051,0.0175 -0.0208,0.0071 -0.1474,0.0317 -0.0481,0.0111 -0.0585,0.019 -0.04,0.017 -0.029,0.0149 -0.0358,0.0232 -0.0778,0.0333 -0.0662,0.0267 -0.1748,0.0669 -0.2755,0.1024 -0.3996,0.094 -0.2485,-0.0277 -0.013,-0.001 -0.007,0.001 -0.0125,0.0199 -0.2066,0.3948 -0.0157,0.0363 -0.0506,0.2213 -0.298,0.2863 -0.0319,0.0245 -0.0224,0.0171 -0.0153,0.0101 -0.1142,0.0392 -0.0606,0.0165 -0.0528,0.0102 -0.0215,10e-4 -0.0197,-0.0021 -0.0209,-0.0038 -0.02,-0.0034 -0.116,-0.0129 -0.1202,-0.0093 -0.0153,-9e-4 -0.1383,-0.0018 -0.019,0.0052 -0.0846,0.0295 -0.0111,0.0041 -0.0177,0.0222 -0.023,0.0332 -0.0126,0.0222 -0.003,0.0274 7e-4,0.1087 0.0153,0.0051 0.0403,0.0124 0.1453,0.0432 0.1262,0.0369 0.0616,0.0175 0.0391,0.0107 0.0613,0.0126 0.0409,0.008 0.0817,0.0176 0.0222,0.005 0.0404,0.0108 0.0194,0.0066 0.0199,0.0083 0.0206,0.0118 0.014,0.0141 0.007,0.0095 0.0428,0.0702 0.0461,0.0763 0.0173,0.032 0.005,0.009 0.0675,0.2986 0.0757,0.0479 0.023,0.0212 0.0392,0.0459 0.0889,0.1062 0.0159,0.021 0.0129,0.0209 0.0107,0.0209 0.0569,0.186 0.0167,0.0662 0.008,0.0422 0.0175,0.1062 -0.3104,0.1507 -0.0202,0.0051 -0.0192,-0.003 -0.373,-0.0623 -0.0396,-0.0334 -0.009,-0.0059 -0.0168,-0.0077 -0.0119,-0.0033 -0.009,-0.0026 -0.001,1e-4 -0.0271,0.002 -0.0141,0.0032 -0.0183,0.01 -0.0542,0.0537 -0.3861,-0.1441 -0.0588,-0.3917 -0.0206,-0.0741 -0.003,-0.0072 -0.004,-0.0087 -0.0637,-0.0443 -0.2337,-0.1268 -0.0273,0.0065 -0.0172,0.004 -0.0548,-0.0116 -0.0248,-0.0201 -0.06,-0.0512 -0.0126,-0.0169 -0.0362,-0.0611 -0.169,-0.3096 -0.004,-0.007 -0.003,-0.0077 0.002,-0.0049 0.005,-0.0062 0.033,-0.0195 0.1054,-0.2294 0.0251,-0.0561 -8e-4,-0.0082 -0.0515,-0.0334 -0.0181,0.0029 -0.006,0.001 -0.1446,0.0442 -0.008,0.0027 -0.003,0.002 -0.0455,0.0475 0.003,0.0279 0.004,0.0251 0.002,7e-4 0.005,4e-4 0.005,0.0025 10e-4,0.0033 -10e-4,0.0051 -0.002,0.0068 -0.0152,0.0334 -0.004,0.0047 -0.0101,0.0051 -0.0112,0.0031 -0.1256,0.0276 -0.1504,0.031 -0.4166,0.5067 0.0655,0.0585 0.0379,0.0361 0.006,0.0057 0.0564,0.2488 0.002,0.0115 -0.003,0.0113 -0.0652,0.1103 -0.0741,0.099 -0.0506,0.0737 -0.0794,0.1672 -0.073,0.1888 -0.4562,-0.1168 -0.0432,-0.0078 -0.0201,0.0146 -0.0302,0.0248 -0.1416,0.1201 -0.2461,0.2396 -0.0319,0.0348 -0.0576,-0.0015 -0.0387,0.0436 -0.1198,0.1523 -0.3912,0.3341 -0.1464,0.07 -0.0545,0.0877 -0.0134,0.0232 -0.1977,0.259 -1.3562,0.4704 -0.1611,-0.1395 -0.176,-0.0634 -0.0111,-0.0039 -0.2616,-0.0827 -0.0338,-0.0092 -0.0204,-0.0041 -0.0151,-8e-4 -0.0157,0.0018 -0.008,0.0012 -0.0201,0.0106 -0.0153,0.0093 -0.0109,0.0066 -0.009,0.0044 -0.005,0.0011 -0.004,-0.0016 -0.004,-0.0031 -0.008,-0.006 -0.008,-0.0065 -0.188,-0.1619 -0.004,-0.0046 -0.0102,-0.0141 -0.007,-0.0099 -0.0267,-0.047 -0.0485,-0.0546 0.052,-0.2641 0.1985,-0.4733 0.008,-0.0174 0.008,-0.0167 0.007,-0.0138 0.025,-0.0425 0.005,-0.0072 0.0175,-0.0148 0.0148,-0.012 0.0175,-0.0128 0.0166,-0.0121 0.0115,-0.0078 0.008,-0.0046 0.009,-0.0026 0.0228,-9e-4 0.008,-2e-4 0.0218,0.001 0.009,0.001 0.002,0.0015 0.007,0.0062 0.3708,-0.0558 0.093,-0.0849 -0.1083,-0.0868 -0.2067,0.0066 -0.0442,0.0013 -0.0232,4e-4 -0.5414,-0.0781 -0.009,-0.0014 -0.1043,-0.0543 -0.1988,-0.1317 -0.3311,-0.3658 -0.1027,-0.1826 -0.0709,-0.1526 -0.0162,-0.026 -0.007,-0.0085 -0.0103,-0.0077 -0.1092,-0.0705 -0.008,-0.0049 -0.2476,-0.0743 -0.001,-7e-4 0.005,-0.0136 0.004,-0.0118 0.0516,-0.0788 0.009,-0.0144 0.014,-0.0166 0.0796,-0.0917 0.1284,-0.0073 0.0221,0.0036 0.3348,-0.0364 0.0198,-0.0075 0.0202,-0.0088 0.0162,-0.0107 0.0656,-0.0799 0.0454,-0.0761 0.0278,-0.1278 0.1955,-0.1423 0.2971,-0.3329 0.0475,-0.1809 0.003,-0.0082 0.004,-0.0084 0.085,-0.0906 0.2167,-0.3185 0.0129,-0.1413 0.1347,-0.2316 0.1591,-0.2366 0.088,-0.1948 0.0928,-0.1957 -0.1526,-0.3094 -0.091,-0.177 -0.1144,-0.1082 -0.0345,-0.1381 -0.0101,-0.0291 3e-4,-0.0064 0.0358,-0.1543 0.012,-0.0479 0.002,-0.007 0.004,-0.0053 0.0143,-0.0154 0.004,-0.0037 0.0209,-0.0084 0.0112,-0.0035 0.0631,-0.0045 0.0108,0.0092 0.008,0.0067 0.0111,0.0089 0.005,0.0019 0.005,4e-4 0.006,-3e-4 0.0544,-0.0061 0.0237,-0.0044 0.006,-0.0012 0.0135,-0.0031 0.0287,-0.0078 0.008,-0.0022 0.009,-0.0054 0.0277,-0.0177 0.0283,-0.0182 0.0436,-0.0287 0.0176,-0.0117 0.004,-0.0029 -0.0966,-0.11 -0.0331,-0.228 0.0581,-0.1783 0.1008,-0.2532 0.008,-0.1412 0.0773,-0.0398 0.006,-0.0036 0.007,-0.0045 0.008,-0.0051 0.005,-0.0051 0.0123,-0.0116 0.0514,-0.1562 0.1082,-0.508 0.002,-0.013 0.001,-0.0113 0.005,-0.1064 -0.1991,-0.3321 -0.0713,-0.1086 0.0108,0.0049 0.0106,0.0039 0.0423,-0.0017 0.0789,-0.1197 0.005,-0.0092 3e-4,-7e-4 0.002,-0.0036 0.003,-0.0119 0.003,-0.0163 3e-4,-0.0252 -0.003,-0.0122 -0.0253,-0.0578 -0.003,-0.0036 -0.0745,-0.0821 -0.0421,-0.0391 -0.017,-0.0106 -0.0499,-0.0348 -0.004,-0.0036 -0.004,-0.0055 -0.003,-0.0055 -0.002,-0.0069 -0.002,-0.0095 0,-0.0055 0.0855,-0.1558 0.005,-0.0052 0.01,-0.0099 0.0796,-0.0754 0.0308,-0.0188 0.0256,-0.0084 0.0479,-0.0239 0.0557,-0.0441 0.002,-0.0025 0.009,-0.017 0.007,-0.0162 0.0283,-0.1088 0.042,-0.1854 -0.0258,-0.0849 -0.0388,-0.2351 -0.0966,-0.0723 -0.0198,-0.2157 0.0136,9e-4 0.0136,-0.0019 0.1524,-0.0326 0.01,-0.0031 0.007,-0.0027 0.004,-0.0039 0.005,-0.0055 0.003,-0.0046 0.004,-0.0063 0.0145,-0.0227 0.0316,-0.0889 0.01,-0.0314 0.003,-0.0159 6e-4,-0.0813 -0.002,-0.0283 -0.0216,-0.2344 -0.0627,-0.2219 -0.004,-0.0114 -0.0203,-0.0533 -0.0105,-0.0245 -0.062,-0.1061 -0.0921,-0.008 0.0174,-0.0865 -0.0771,-0.6197 -0.008,-0.0287 -0.005,-0.0118 -0.002,-0.0047 -0.0136,-0.0246 -0.006,-0.0082 -0.0118,-0.0148 -0.006,-0.0076 -0.007,-0.0085 -0.0132,-0.012 -0.3388,-0.2874 -0.279,-0.2022 -0.0955,-0.0861 -0.1403,0.2246 -0.1172,0.1823 -0.0117,0.0174 -0.003,0.0045 -0.006,0.0062 -0.01,0.0094 -0.007,0.0033 -0.0699,0.0313 -0.0216,0.0073 -0.0137,0.0043 -0.08,0.0171 -0.3895,0.3039 -0.0163,0.0448 -0.0119,0.0251 -0.002,0.0048 -0.01,0.0084 -0.004,0.0025 -0.004,0.0021 -0.1479,0.0764 -0.0195,0.0074 -0.0394,0.0135 -0.01,0.0034 -0.0828,0.0278 -0.0102,0.0034 -0.0139,0.0037 -0.0104,0.0011 -0.0132,5e-4 -0.0157,-0.0016 -0.0133,-0.0024 -0.0265,-0.0057 -0.0137,-0.0029 -0.0281,-0.0076 -0.009,-0.0042 -0.0151,-0.0087 -0.2941,0.1052 -0.2557,0.1043 -0.2437,-0.4047 -0.009,-0.0077 -0.3666,-0.2995 -0.007,-0.004 -0.008,-8e-4 -0.012,9e-4 -0.0186,0.0048 -0.0146,0.0049 -0.0176,0.0098 -0.1712,0.036 -0.4879,-0.2461 -0.006,-0.0083 -0.0266,-0.0452 -0.003,-0.0261 -0.001,-0.0135 -8e-4,-0.0184 -0.004,-0.1111 -7e-4,-0.0445 7e-4,-0.025 0.002,-0.0263 0.004,-0.0227 -0.0493,-0.4271 -0.0163,-0.0882 -0.1366,-0.4674 -0.0459,0.0063 -0.0147,0.0027 -0.0114,0.0044 -0.459,0.3095 -0.004,0.0048 -0.0654,0.0771 -0.4269,0.261 -0.0615,-0.0045 -0.1824,-0.0099 -0.0152,9e-4 -0.006,5e-4 -0.3141,0.1226 -0.004,0.0144 0.484,0.3012 0.0133,0.1061 0.001,0.0065 0.002,0.0077 0.1992,0.4896 0.0111,0.0259 0.0148,0.0336 0.006,0.0114 0.0139,0.0225 0.043,0.0601 0.004,0.0052 0.1197,0.116 0.086,0.3413 0.0599,0.277 0.0151,0.1602 0.0266,0.1536 0.005,0.0204 0.003,0.0133 0.003,0.0065 0.0969,0.1097 0.1383,0.3605 0.002,0.0054 0.002,0.0084 0.0535,0.3991 -0.005,0.0218 -0.0244,0.0901 -0.008,0.0285 -0.004,0.0118 -0.002,0.0054 -0.3341,-0.1649 -0.5117,-0.1585 -0.0295,0.0082 -0.0477,0.1317 -0.003,0.0019 -0.006,0.0024 -0.005,9e-4 -0.038,-0.0013 -0.1223,-0.0061 -0.0113,-0.005 -0.0211,-0.019 -0.007,-0.0069 -0.2468,-0.3165 -0.005,-0.0064 -0.0786,-0.1626 -0.0128,-0.0698 -0.002,-0.0123 -0.0118,-0.0333 -0.006,-0.009 -0.0429,-0.0532 -0.2057,-0.1272 -0.0881,-0.0306 -0.1299,-0.0775 -0.1949,-0.1259 -0.1171,-0.2 -0.0472,-0.0957 -0.004,-0.0055 -0.009,-0.006 -0.008,-0.0048 -0.0745,-0.035 -0.2475,-0.113 -0.083,-0.0334 -0.3484,-0.1142 -0.1344,-0.0168 -0.1107,-5e-4 -0.0216,0.0023 -0.019,0.004 -0.3629,0.0813 -0.001,0.0088 -0.009,0.0926 -0.0228,0.0939 -0.004,0.01 -0.0817,0.1616 -0.0916,0.1201 -0.0131,0.0155 -0.0135,0.0134 -0.007,0.0055 -0.0111,0.0058 -0.0156,0.0069 -0.3887,0.163 -0.1728,-0.0075 -0.0188,-0.0065 -0.0322,-0.0108 -0.0105,-0.0018 -0.004,0.0015 -0.0658,0.0986 -0.1164,0.1987 -0.029,0.082 -6e-4,0.004 0.003,0.0655 0.0415,0.1574 -0.1093,0.0642 -0.3236,0.2138 -0.1265,0.0908 -0.0159,0.0166 -0.0179,0.0125 -0.0531,0.0307 -0.0195,0.0072 -0.0159,0.0033 -0.0101,0.001 -0.4737,-0.0166 -0.0293,-0.003 -0.1536,-0.0212 -0.009,-0.0034 -0.0169,-0.0088 -0.1413,-0.087 -0.004,-0.0025 -0.0253,-0.0405 -0.018,-0.0323 -0.0159,-0.0294 -0.0141,-0.0314 -0.1481,-0.0149 -0.427,0.4204 -0.0779,0.1262 -0.1449,0.0856 -0.1338,-0.0356 -0.1791,-0.1059 -0.1945,-0.0147 -0.0469,-0.0022 -0.0719,-0.0032 -0.0609,0.0112 -0.009,0.0039 -0.0234,0.0055 -0.0309,0.005 -0.018,0.002 -0.1167,0.0125 -0.319,-0.075 -0.5741,-0.0739 -0.0276,-0.0018 -0.0438,-0.0037 -0.0364,-0.0032 -0.0215,-0.002 -0.1176,-0.0191 -0.0214,-0.0036 -0.008,-0.0026 -0.0431,-0.0304 -0.0246,-0.0178 -0.0267,-0.02 -0.0172,-0.0157 -0.1815,-0.2587 -0.011,-0.0172 -0.0304,-0.0507 -0.01,-0.0179 -0.009,-0.0176 -0.273,-0.5225 -0.1292,-0.3399 -0.2675,-0.3049 -0.1303,-0.2799 -0.007,-0.0082 -0.009,-0.009 -0.0194,-0.0162 -0.005,-7e-4 -0.0864,-0.0027 -0.2345,0.0145 -0.3452,0.0305 -0.0111,0.0042 -0.006,0.0031 -0.0472,0.0281 -0.017,0.0122 -0.1261,0.1076 -0.0112,0.0131 -0.0887,0.1245 -0.3057,0.3283 -0.1574,0.1203 -0.1072,0.0943 -0.007,0.0067 -0.0318,0.0611 -0.0391,0.0767 -0.006,0.0482 -0.002,0.0202 -0.5915,0.1302 -0.0106,0.001 -0.0846,0.0145 -0.0115,0.003 -0.009,0.0047 -0.1343,0.1075 -0.0619,0.0573 -0.0192,0.0347 -0.1682,0.1133 -0.3912,-0.0218 -0.279,0.0192 -0.3353,0.0756 -0.0899,0.0223 -0.2209,0.0561 -0.1897,0.065 -0.009,0.0036 -0.009,0.0038 -0.009,0.0069 -0.4322,-0.0521 -0.1303,-0.0385 -0.001,6e-4 -0.0105,0.0062 -0.008,0.0069 -0.0732,0.073 -0.0299,0.0312 -0.0401,0.0468 -0.0187,0.0233 -0.005,0.0116 -0.002,0.029 5e-4,0.0216 0.001,0.0214 0.0503,0.1521 -0.004,0.2704 -0.0593,0.131 -9e-4,0.019 0,0.009 6e-4,0.013 0.007,0.0443 0.0374,0.1961 0.0513,0.2362 0.0414,0.1799 0.1399,0.2208 0.1273,0.0687 0.0758,0.2294 -0.037,0.0758 -0.0963,0.079 -0.2701,0.2667 -0.2531,0.2608 -0.0627,0.2214 8e-4,0.0075 -10e-4,0.0071 -0.0471,0.107 -0.008,0.0136 -0.004,0.0044 -0.314,0.0853 -0.1804,0.0105 -0.4582,0.0017 -0.3069,-5e-4 -0.0892,-0.0345 -0.0115,-0.0012 -0.0119,0.0069 -0.1446,0.1006 -0.5118,0.4017 -0.1651,0.2668 0.0435,0.0587 0.0113,0.0191 -0.0234,0.0989 -0.002,0.005 -0.009,0.0084 -0.004,0.0041 -0.002,0.0016 -0.0411,0.0323 -0.0138,0.0106 -0.003,0.0024 -0.0348,0.0216 -0.0192,0.0104 -0.007,0.0039 -0.0149,0.0049 -0.0357,0.0088 -0.0372,6e-4 -0.0222,-4e-4 -0.0472,-0.0022 -0.007,-0.0013 -0.003,-0.0037 -0.002,-0.0082 -0.004,-0.0185 -0.003,-0.0102 -0.006,-0.0137 -0.01,-0.0149 -0.0161,-0.0226 -0.007,-0.0055 -0.1055,-0.0222 -0.0215,-0.0024 -0.2757,0.0333 -0.0161,0.0021 -0.018,0.007 -0.003,0.002 -0.01,0.0077 -0.008,0.0199 -0.1115,0.4013 -0.004,0.0249 -0.003,0.0256 -5e-4,0.09 0.2012,-0.019 0.0509,0.0157 0.1377,0.0481 0.0134,0.0069 1.2793,0.7054 -0.006,0.121 -0.01,0.0316 -0.008,0.0231 -0.0149,0.0203 -0.018,0.0249 -0.01,0.02 6e-4,0.0272 0.0149,0.2482 0.0137,0.0541 0.0116,0.0273 0.0533,0.0622 0.1669,0.192 0.0174,0.012 0.1393,0.0997 0.0959,0.1302 0.011,0.0494 0.0125,0.0905 -0.0665,0.0727 -0.2247,0.1837 -0.2235,0.1811 -0.009,0.0077 -0.0115,0.0162 -0.012,0.0181 -0.1123,0.1833 -0.004,0.0155 -0.006,0.029 0.0211,0.0189 0.2858,0.2501 0.0576,0.0433 0.015,-0.0034 0.0218,-0.0081 0.0231,-0.0072 0.024,-0.0044 0.0281,0.0029 0.0239,0.0049 0.0122,0.007 0.008,0.0073 0.0118,0.011 0.005,0.008 0.006,0.0177 0.009,0.0304 0.003,0.021 0.0721,0.3514 0.1518,0.4846 0.0974,0.3385 10e-4,0.1164 -0.1433,0.2262 -0.009,0.0128 -0.0152,0.0166 -0.0277,0.0227 -0.0659,0.0515 -0.0633,0.0375 -0.0212,0.0069 -0.0143,0.003 -0.0153,-0.0037 -0.0183,-0.0056 -0.0131,6e-4 -0.0348,0.0171 -0.0654,0.0371 -0.0196,0.0194 -0.0637,0.0781 -0.007,0.0199 -0.0124,0.0461 0.006,0.022 0.0115,0.0252 0.0249,0.0521 0.054,0.1283 0.009,0.0207 0.0104,0.0421 -4e-4,0.0119 -0.0106,0.0582 -0.0117,0.0456 -0.0786,0.1349 -0.3327,0.38 -0.1082,0.0762 -0.023,0.0175 -0.0499,0.0471 -0.043,0.0477 -0.0251,0.0314 -0.0368,0.0575 -0.0125,0.0409 -0.004,0.0215 -0.1985,0.5242 -0.0663,0.1709 0.0794,0.053 0.0885,0.0774 0.2407,0.2104 0.0189,0.017 0.0166,0.0167 0.0536,0.075 0.0258,0.0382 0.0375,0.0584 0.2437,0.4206 0.005,0.0103 -2e-4,0.0074 -8e-4,0.0025 -0.0101,0.0115 -0.0312,0.0312 -0.0186,0.0115 -0.0203,0.0099 -0.0219,0.0106 -0.0227,0.0106 -0.0135,0.0083 -0.007,0.0103 -0.0113,0.0173 -0.1101,0.1817 -0.005,0.0113 -0.003,0.0086 -0.0608,0.1799 -0.0158,0.128 -0.0208,0.1695 -0.2226,0.1199 -0.007,0.0063 -0.0124,0.0168 -0.007,0.0128 -0.007,0.0155 -0.004,0.0163 -0.0235,0.1242 0.0118,0.0302 0.0201,0.0312 0.0133,0.0192 0.0139,0.0174 0.0144,0.0166 0.1032,0.6372 -10e-4,0.0245 -0.0546,0.3188 -0.267,0.6332 -0.006,0.0102 -0.0221,0.0283 -0.1534,0.1903 -0.0153,0.0187 -0.0145,0.0163 -0.3569,0.3462 -0.2546,0.4291 -0.2698,0.2172 -0.0486,0.0744 -0.0963,0.0529 -0.0407,0.0052 -0.0246,0.0013 -0.0231,-0.0018 -0.0172,-0.0011 -0.0147,-6e-4 -0.0122,0.0082 -0.2261,0.1557 -0.0949,0.0689 -0.0173,0.0143 -0.007,0.0095 -0.0348,0.0505 -0.01,0.0185 -5e-4,9e-4 -0.0144,0.11 -0.003,0.0225 -0.1971,0.217 -0.1929,0.2661 0.007,0.0088 0.01,0.0072 0.0198,0.0122 0.021,0.0099 0.0224,0.0074 0.0555,0.0179 0.0727,0.2742 0.0911,0.6385 -5e-4,0.0094 -0.004,0.0165 -0.0473,0.1953 -0.005,0.0135 -0.0429,0.1098 -0.008,0.0115 -0.0129,0.0076 -0.021,0.008 -0.0182,0.0061 -0.0245,0.0016 -0.157,-0.0086 -0.1349,-0.0086 -0.009,0.0013 -0.0108,0.0029 -0.0244,0.0125 -0.183,0.1584 -0.0113,0.0109 -0.006,0.0062 -0.006,0.0068 -0.0579,0.0722 -0.0165,0.0231 -0.1417,0.2002 -0.0115,0.0189 -4e-4,8e-4 -0.0127,0.0222 -0.009,0.0199 -0.005,0.0229 -0.002,0.0226 8e-4,0.1616 0.01,0.0734 0.007,0.0411 0.01,0.0918 -0.024,0.1865 -0.0588,0.1381 -0.0104,0.012 -0.0291,0.033 -0.0181,0.015 -0.0151,0.0098 -0.002,0.0053 -0.003,0.0119 -0.002,0.0097 -0.004,0.0226 -0.002,0.0143 -0.0223,0.3234 -0.005,0.122 0.0123,0.0713 0.008,0.0197 0.009,0.0213 0.0134,0.0281 0.1833,0.0596 0.3391,0.1552 0.246,0.0573 0.0696,0.0149 0.0231,0.0043 0.0413,0.0046 0.0804,-0.0156 0.0235,-0.005 0.0471,-0.0118 0.0204,-0.0054 0.0253,-0.0073 0.011,-0.0045 0.009,-0.0044 0.0637,0.0813 0.0475,0.293 10e-4,0.0131 -0.002,0.0103 -0.002,0.0046 -0.0383,0.0667 -0.006,0.0085 -0.0182,0.0154 -0.0179,0.014 -0.0146,0.0151 -0.006,0.0128 -0.088,0.2032 -0.0391,0.1241 0.007,0.0608 0.0501,0.2447 0.014,0.032 0.0197,0.0413 0.01,0.0193 0.005,0.0098 0.165,0.0399 0.0132,-6e-4 5e-4,-7e-4 -0.007,0.39 0.006,0.0109 0.063,0.0624 0.1062,0.0963 0.1378,0.0891 0.1218,0.0526 0.1093,0.0598 0.0407,0.063 0.002,0.0128 0.048,0.2786 -0.0801,0.5256 -0.0512,0.0862 -2e-4,0.0065 -0.003,0.0063 -0.005,0.0056 -0.1192,0.1072 -0.0153,0.0129 -0.0296,0.014 -0.0225,0.0098 -0.022,0.0093 -0.0267,0.0048 -0.1198,-0.012 -0.0112,-0.0021 -0.167,0.5703 -0.002,0.091 -1e-4,0.0198 0.009,0.0316 0.023,0.071 0.1291,0.113 0.0171,0.0148 0.2376,0.3637 -0.01,0.1098 -0.0131,0.1529 -0.006,0.2635 3e-4,0.0479 7e-4,0.0022 0.0334,0.0863 0.002,0.0047 0.002,0.0039 0.002,0.003 0.012,0.0115 0.007,0.0058 0.005,0.0037 0.0768,0.2395 0.006,0.3241 -0.0797,0.2817 -0.002,0.0022 -0.0149,0.0283 -0.002,0.003 -0.002,0.0038 -0.013,0.0474 -0.0172,0.0731 -0.004,0.0583 6e-4,0.0056 0.004,0.0326 0.002,0.0123 0.004,0.0176 0.003,0.0124 0.004,0.0095 0.0115,0.0192 0.1811,0.2689 0.005,0.0041 0.008,0.0024 0.009,-7e-4 0.007,-0.0019 0.063,-0.0201 0.005,-0.0025 0.088,-0.0689 0.004,-0.0045 0.005,-0.003 0.0173,-0.0059 0.1071,-0.0167 0.2243,-0.0343 0.1544,0.0266 0.008,0.0041 0.2588,0.1735 0.1217,0.0968 0.0975,0.0919 0.0121,0.0321 0.005,0.0209 0.001,0.0056 -0.0155,0.0607 -0.004,0.0217 -0.003,0.014 -5e-4,9e-4 -0.204,0.195 -0.0307,0.0173 -0.0762,0.0353 -0.024,0.0024 -0.0246,-0.0011 -0.0239,-0.0024 -0.0233,-0.0032 -0.0454,-0.0045 -0.1057,0.1328 -0.007,0.0101 -0.0113,0.0302 0.001,0.0039 0.1701,0.0524 0.0925,0.1714 -0.0998,0.2132 0.0611,0.3398 0.002,0.01 0.1105,0.0718 0.0596,0.0369 0.0209,0.0051 0.236,0.0385 0.1185,0.0025 0.3281,0.007 0.0325,0.0018 0.0159,0.0073 0.0116,0.0075 0.009,0.005 0.0126,0.0024 0.0121,-1e-4 0.0687,-0.0087 0.3716,-0.1231 0.201,-0.0912 0.01,-0.0087 0.0119,-0.0117 0.0309,-0.112 0.004,-0.0992 0.002,-0.0064 0.1174,-0.0888 0.1154,-0.0757 0.0211,-0.0113 0.0209,-0.0079 0.0235,-0.0073 0.2241,-0.0568 0.095,-0.1386 0.005,-0.0039 0.0119,-0.0042 0.3618,-0.104 0.0961,-0.0144 0.3438,-0.0252 0.3496,-0.0208 0.2121,0.2144 0.0933,-0.0447 0.0184,-0.0113 0.1232,-0.2028 0.0892,-0.2158 -0.002,-0.0737 -0.004,-0.0229 -0.006,-0.0448 -0.001,-0.0964 1e-4,-0.0088 9e-4,-0.0235 4e-4,-0.0049 0.1338,-0.6286 0.4409,0.0166 0.0714,0.0068 0.0479,0.0137 0.0232,0.0069 0.0466,0.0168 0.0197,0.0091 0.0224,0.0101 0.0387,0.0171 0.2334,-0.0957 0.26,-0.1638 0.3086,-0.2425 0.025,0.0038 0.045,0.0193 0.009,0.005 0.008,0.0062 0.1373,0.1056 0.0171,0.0147 0.005,0.0769 0.0704,0.0117 0.0338,0.0051 0.0264,0.0022 0.0114,4e-4 0.2059,-0.0322 0.0516,-0.0496 0.0646,-0.0645 0.03,-0.0311 0.0118,-0.0163 0.0115,-0.02 5e-4,-7e-4 0.0115,-0.0155 0.131,-0.0529 0.1799,-0.0123 0.0492,-0.0026 0.0641,-8e-4 0.0159,0 0.0126,0.0036 0.2473,0.0734 0.0592,0.0226 0.007,0.0028 0.205,0.1736 0.029,0.1049 0.0706,0.1197 0.0709,0.0688 0.1231,-0.3354 0.1028,-0.1095 0.0381,-0.0285 0.0203,-0.0112 0.0213,-0.0102 0.0826,-0.0369 0.0589,-0.0218 0.0313,-0.0108 0.0218,-0.0041 0.0484,-0.0089 0.0673,-0.0072 0.078,-0.0015 0.005,0.001 0.0427,0.0222 0.009,0.0114 0.1225,0.1757 -0.0144,0.0272 -4e-4,8e-4 -0.003,0.0065 0.002,0.0385 0.006,0.0162 0.3116,0.1332 0.2552,-0.1167 0.0201,0.0184 0.0519,0.0394 0.0808,0.0142 0.01,10e-4 0.014,-0.0019 0.0446,-0.0203 0.0238,-0.0112 0.6528,-0.1159 0.0135,0.0021 0.3894,0.1772 0.0871,0.0406 0.008,0.0037 0.0377,0.0171 0.5026,0.2245 0.0295,0.0132 0.4385,0.2214 0.45,0.2313 0.13,0.2123 0.0111,0.0265 -6e-4,0.0218 -0.0291,0.0507 -5e-4,5e-4 -0.0408,0.0392 -0.038,0.0262 -0.0372,0.0274 -0.0437,0.0479 -0.0954,0.0843 -0.0797,0.0751 -0.003,0.0044 -0.0868,0.3443 -0.0311,0.1797 -0.006,0.0448 -0.007,0.0886 0.3074,0.346 0.0506,0.0496 0.0138,0.0187 0.0323,0.0494 0.0207,0.1191 -0.0141,0.0408 -0.0179,0.0413 -0.0113,0.0224 -0.0108,0.0189 -0.0265,0.0353 -0.01,0.0037 -0.0148,-2e-4 -0.0252,-0.0043 -0.0229,-0.005 -0.1717,0.0921 -0.275,0.2276 -0.0133,0.019 -0.009,0.0162 -0.0611,0.1392 0,7e-4 -0.002,0.0158 8e-4,0.0478 -0.009,0.1662 -0.009,0.1032 -0.0283,0.2068 -0.0372,0.2435 -0.1358,-0.009 -0.0112,0.003 -0.0868,0.063 -0.0146,0.0134 -0.008,0.0106 -0.1775,0.2801 -0.1809,0.4806 -0.0381,0.1924 0.019,0.0889 0.454,0.0328 0.0248,0.002 0.1349,0.02 0.3531,0.0712 0.0462,-0.073 0.2387,0.005 0.0175,10e-4 0.1171,0.0343 0.1563,0.0644 0.5065,0.3297 0.4783,0.3213 -0.0962,0.3139 -0.0634,0.0495 -0.0166,0.0153 -0.0107,0.0107 -0.0145,0.0176 -0.0135,0.0189 -0.008,0.0149 -1e-4,8e-4 -0.004,0.0339 -0.002,0.0376 -10e-5,8e-4 -0.001,0.0237 0.002,0.0103 0.2014,0.2069 0.4183,0.2685 0.119,0.0857 0.1201,0.1075 0.0962,0.0109 0.0557,0.004 0.0317,10e-4 0.003,-0.002 0.0508,-0.0424 0.0316,-0.0728 0.004,-0.008 0.0172,-0.105 0.003,-0.0224 -6e-4,-0.0224 0.1754,-0.237 0.3599,-0.0531 0.106,-0.2822 0.006,-0.0157 0.0109,-0.0256 0.009,-0.0169 0.2117,-0.3831 0.0105,0.0187 0.0763,0.2103 0.002,0.007 0.004,0.0204 -7e-4,0.006 -6e-4,0.005 -0.004,0.0124 -0.0215,0.0395 -4e-4,7e-4 -0.0546,0.099 -0.0734,0.1411 -0.009,0.0206 -0.0237,0.0638 -0.0321,0.123 -0.004,0.2052 0.2383,-0.1809 0.1266,-0.068 0.1804,-0.1135 0.0857,-0.0572 0.3574,-0.3377 0.0129,-0.0922 -0.004,-0.0726 -0.003,-0.0568 -0.003,-0.037 -0.015,-0.0145 -0.0537,-0.0446 0.2916,-0.2885 0.254,-0.2284 0.1422,0.0784 0.0129,0.3661 0.0245,-0.0195 0.0153,-0.007 0.008,-0.002 0.1426,0.0373 0.1135,0.0321 0.0242,0.004 0.0337,10e-4 0.0158,-0.002 0.4759,-0.0669 0.1637,-0.1955 0.0836,-0.1118 0.0999,-0.1284 0.0232,-0.0284 0.1073,-0.08 0.007,-0.004 0.009,-0.002 0.009,0.003 0.0296,0.0294 0.006,0.006 0.008,0.0159 0.004,0.0223 0.0107,0.0344 0.0185,0.0456 0.007,0.0169 0.0117,0.0178 0.1843,0.2401 0.0162,0.0155 0.6956,0.4849 0.2715,0.2193 0.006,0.002 0.007,6e-4 0.1211,-0.005 0.0263,-0.0276 0.0175,-0.019 0.0258,-0.0504 0.0516,-0.0405 0.006,-0.002 0.0446,-1e-4 0.1336,0.0108 0.0139,0.002 0.0364,0.0318 0.1518,-0.0701 0.0201,-0.009 0.0118,-0.001 0.008,0.001 0.2151,0.0472 0.0229,0.005 0.0373,0.0158 0.0297,0.0613 0.005,0.0402 -0.0114,0.0879 -0.005,0.0368 -0.002,0.0101 -0.004,0.005 -0.009,0.006 -0.004,0.005 8e-4,0.0155 0.002,0.006 0.0258,-0.0126 0.0206,-0.0114 0.1538,-0.0884 0.165,-0.1029 0.0756,-0.0689 0.0968,-0.0632 -0.008,-0.0105 -0.0768,-0.09 -0.004,-0.0118 -9e-4,-0.0104 0.002,-0.0201 0.009,-0.0442 0.023,-0.1146 0.005,-0.0237 0.0564,-0.2338 0.003,-0.006 0.0155,-0.0176 0.0785,-0.0811 0.02,-0.0205 0.0231,-0.0113 0.027,-0.0111 0.0168,-0.0135 0.009,-0.009 0.0453,-0.0806 0.002,-0.0213 0.004,-0.0704 0.1212,-0.0203 0.0943,-0.0303 0.03,-0.0108 0.6654,-0.6026 0.0288,-0.0178 0.0136,-0.0162 0.0126,-0.0195 0.004,-0.007 0.1274,-0.2223 -0.0438,-0.2983 -0.002,-0.0148 -0.0321,-0.0968 -0.0339,-0.0696 -0.001,-0.0147 0.0903,-0.3426 0.0545,-0.1734 0.0298,-0.0562 0.007,-0.0228 0.007,-0.0244 -0.002,-0.1243 -4e-4,-0.0052 -0.0272,-0.3165 -0.0243,-0.106 -0.0248,-0.0863 -0.0501,-0.158 -0.0559,-0.0969 -0.0544,-0.1655 -5e-4,-0.0067 0.004,-0.0055 0.005,-0.0064 0.005,-0.0064 0.0249,-0.0158 0.0327,-0.0204 0.009,-0.0036 0.0289,-0.0092 0.008,-0.0015 0.0372,0.0029 0.008,0.0012 0.0338,0.0178 0.1751,0.135 0.1258,0.1038 0.0114,0.0117 0.0264,0.0143 0.0217,0.0088 0.0234,0.0018 0.0457,0.0016 0.0304,-3e-4 0.18,-0.0019 0.0128,-3e-4 0.0773,-0.0282 0.059,-0.0516 -0.2334,-0.308 -0.0146,-0.0275 -0.0182,-0.0367 -0.0393,-0.0808 -0.007,-0.0166 -0.007,-0.0214 -0.008,-0.0277 -0.1167,-0.4218 -0.005,-0.024 -0.0322,-0.3126 0.006,-0.0559 0.005,-0.0208 0.0108,-0.0208 0.0656,-0.1214 0.0168,-0.0141 0.008,-0.0062 0.013,-0.0046 0.1825,-0.179 0.0345,-0.1297 0.1509,-0.1306 0.1663,-0.0656 0.1612,-0.0668 0.0682,-0.0289 0.1417,-0.0908 -5e-4,-0.0077 -0.0206,-0.1055 -0.001,-0.0194 -0.004,-0.259 0.006,-0.1122 0.0238,-0.0685 0.0182,-0.0411 0.0161,-0.0346 0.0119,-0.0251 0.0112,-0.0164 0.034,-0.0386 0.0288,0.0022 0.1321,-0.0039 0.0514,-0.0333 0.3763,-0.2796 0.17,-0.9401 -0.0976,0.0517 -0.0208,0.0089 -0.007,0.0019 -0.0101,-0.0053 -0.1817,-0.1099 -7e-4,-7e-4 -0.003,-0.0029 0,-0.065 0.003,-0.0033 0.3876,-0.3006 0.0129,0.0079 0.0372,0.0247 0.0393,0.0256 0.022,0.0142 0.0238,0.0148 0.0422,0.0082 0.046,0.008 0.0234,0.0032 0.0215,0.0022 0.0232,2e-4 -0.008,-0.2075 -0.002,-0.0489 -0.001,-0.0228 -0.002,-0.0229 -0.002,-0.022 -0.0187,-0.0379 -0.0214,-0.0402 -0.0785,-0.141 -0.0591,-0.1053 -0.016,-0.0317 0.003,-0.0032 0.0249,-0.0182 0.0674,-0.0434 0.0955,-0.0594 0.0404,-0.0237 0.0214,-0.0111 0.0199,-0.0081 0.1172,-0.2824 0.0264,-0.4058 -0.0979,-0.1086 0.431,0.1659 -0.007,-0.0198 -0.004,-0.0201 -0.004,-0.0213 -6e-4,-0.0126 0.002,-0.0092 0.004,-0.0128 0.007,-0.006 0.0237,-0.0044 0.0918,-0.0133 0.028,-0.0021 0.216,0.0496 0.0674,0.0497 0.5724,-0.0188 0.0748,-0.0057 0.0298,-0.0096 -0.0117,-0.0545 -0.0542,-0.2347 0.3779,-0.2304 -0.0214,0.0813 0.0455,0.0813 0.0697,0.1233 0.0813,0.097 0.2006,0.1689 0.006,0.0043 0.5174,0.2725 0.1972,0.1002 0.0192,5e-4 0.0238,-0.004 0.0844,-0.0158 0.0298,-0.0561 7e-4,-0.0052 0.0158,-0.1376 -0.02,-0.0235 -4e-4,-5e-4 -0.0209,-0.0253 -0.0166,-0.0227 -0.0145,-0.0207 -0.0197,-0.0306 -0.0367,-0.062 -0.012,-0.0209 -0.008,-0.0141 -0.0119,-0.0248 -0.0303,-0.0678 0.015,-0.0076 0.085,-0.0417 0.1667,-0.0777 0.0219,-0.0095 0.1509,-0.0579 -5e-4,-8e-4 -0.008,-0.0135 -0.006,-0.0106 -0.003,-0.007 -0.008,-0.0214 -0.009,-0.0307 -10e-4,-0.0091 -4e-4,-0.0038 -4e-4,-0.012 -10e-5,-0.0111 8e-4,-0.0054 9e-4,-0.0036 0.004,-0.0144 0.003,-0.0072 0.004,-0.0051 0.0165,-0.0142 0.0929,-0.2405 0.002,-0.0058 5e-4,-0.009 -8e-4,-0.013 -0.017,-0.1358 -0.0622,-0.2497 0.1108,0.0309 0.0632,0.0173 0.0279,0.0071 0.0318,0.006 0.0333,0.0037 0.033,0.0028 0.0228,3e-4 0.064,1e-4 0.0235,-5e-4 0.3473,-0.0231 0.0543,-0.2327 0.0316,-0.1423 -0.1261,-0.1633 -0.0429,-0.0582 -0.007,-0.0177 -0.0668,-0.2038 -0.1252,-0.5496 0.007,-0.1292 0.0213,-0.2834 0.001,-0.0165 0.003,-0.0206 10e-5,-7e-4 0.0123,-0.0128 0.009,-0.0042 0.0116,-0.0033 0.0934,-0.0245 0.0112,-0.0027 0.0156,3e-4 0.009,0.001 0.3117,0.0747 0.1189,0.0351 0.0249,0.009 0.007,0.004 4e-4,4e-4 0.002,0.0019 5e-4,5e-4 0.008,0.0082 0.018,0.0138 0.024,0.0114 0.0105,0.0047 0.0129,0.0018 0.2023,0.0203 0.7507,-0.0033 0.8218,-0.0323 0.2373,-0.1563 0.0195,-0.0191 0.2571,-0.2916 0.0712,-0.1228 0.1319,-0.157 0.5205,-0.1398 0.009,-0.0201 0.0499,-0.103 0.1092,-0.1496 0.005,-0.0065 0.0144,-0.0176 0.0213,-0.0238 0.0514,-0.0323 0.6576,-0.1548 0.0219,0.0605 0.0466,0.0169 0.1508,0.0488 0.0387,-0.0122 0.0145,-0.0306 0.017,-0.0245 0.1134,-0.0431 0.1056,-0.0042 0.0327,-0.001 0.4266,-0.005 0.173,0.0051 0.2656,-4e-4 0.3491,0.1979 0.136,0.0696 0.007,0.0026 0.0401,-0.003 0.0418,-0.0032 0.0923,-0.0511 0.1711,0.0227 0.0876,0.2582 0.0565,0.2846 0.0164,0.0828 0.0733,0.4069 7e-4,0.0042 0.0837,0.4702 0.0311,0.175 0.1397,-0.0216 0.0843,-0.0826 0.1222,-0.0334 0.3784,0.1188 0.3225,-0.0971 0.0766,0.0011 0.329,0.098 -0.1032,0.3915 0.1483,-0.0168 0.1106,-0.0152 0.0662,-0.0145 0.0529,-0.0178 0.2409,-0.0801 0.2141,-0.0705 0.0372,0.0072 0.0398,0.0178 0.0441,0.0082 0.406,0.0384 0.178,-0.0231 0.0399,-0.0201 0.0563,-0.0423 0.0551,-0.043 0.0609,-0.045 0.0749,-0.0388 0.009,-0.0046 0.043,-0.0168 0.001,-3e-4 0.0403,-0.0064 0.043,-0.0034 6e-4,-1e-4 0.005,-0.047 -0.007,-0.0338 -0.007,-0.0185 -0.0598,-0.1218 -0.0501,-0.0751 0.0664,-0.367 0.1926,-0.2122 -0.1045,-0.2226 -0.0124,-0.0262 -9e-4,-10e-4 -0.003,-0.0032 -0.0532,-0.0537 -0.107,-0.1554 -0.0167,-0.0256 -0.0887,-0.1423 -0.0557,-0.1216 -0.0717,-0.2027 -0.1156,-0.1928 -0.158,-0.1212 0.0674,-0.0227 0.0176,-0.0049 0.0209,-0.0149 0.006,-0.0049 0.0713,-0.0623 0.0111,-0.0104 0.2757,-0.2597 0.006,-0.0063 0.0143,-0.0167 0.0228,-0.0273 7e-4,-0.0115 10e-4,-0.0224 5e-4,-0.0223 -0.002,-0.021 -0.009,-0.0023 -0.017,0.0038 -0.0158,0.0056 -0.0163,0.0035 -0.009,-9e-4 -0.126,-0.0163 -0.01,-0.0028 -0.0811,-0.0293 -0.0139,-0.0091 -0.0159,-0.0167 -0.01,-0.012 -4e-4,-5e-4 -0.1911,-0.2339 -0.0124,-0.0324 -0.002,-0.0065 0.0169,-0.0707 0.002,-0.007 0.005,-0.0051 0.4023,-0.3579 0.024,0.0032 0.007,0.002 0.004,0.0019 0.0452,0.0285 0.0717,0.0452 0.009,0.0037 0.0318,8e-4 0.0934,1e-4 0.4498,-0.0166 0.008,-3e-4 0.0102,-0.0015 0.0783,-0.0127 0.01,-0.0025 0.0161,-0.0058 0.0405,-0.0154 0.0155,-0.0067 0.005,-0.0022 0.006,-0.0078 0.006,-0.0115 -0.0711,-0.384 -0.005,-0.0109 -0.01,-0.0144 -0.3891,-0.3205 -0.0761,-0.0187 -0.0811,-0.0716 -0.004,-0.0064 -0.001,-0.0024 -0.0357,-0.0683 -0.004,-0.0114 -0.0975,-0.4493 -0.0197,-0.1237 -0.031,-0.3538 0.005,-0.0761 0.006,-0.0609 0.003,-0.0114 0.0258,-0.0553 0.0231,-0.0356 0.0473,-0.0582 0.0115,-0.0075 0.075,-0.0419 0.0103,-0.0053 0.0147,-0.003 0.0156,-0.0029 0.0966,-0.0028 0.107,0.0235 0.01,0.0062 0.272,0.1714 0.0362,-0.0607 0.0368,-0.0545 0.0397,-0.057 0.1174,-0.1606 0.0401,-0.0538 0.1794,-0.171 0.005,-0.0039 0.037,-0.0138 0.2847,-0.0068 0.7292,-0.0368 0.0172,-0.0033 0.0461,-0.0179 0.0276,-0.0161 0.2668,0.4278 0.1713,-0.1022 0.0563,-0.0357 0.2154,-0.2166 0.0463,-0.1038 0.002,-0.0116 -10e-4,-0.0271 0.01,0.0181 0.0517,0.0852 0.0144,0.0113 0.0564,0.0424 0.0185,0.0054 0.0709,0.0142 0.01,0.0018 0.0546,10e-5 0.0622,-0.0014 0.3516,-0.0176 0.4793,0.0329 0.0593,0.0159 0.1251,-0.0106 0.009,-0.0026 0.0252,-0.0268 0.005,-0.0232 0.004,-0.0211 0.006,-0.0226 0.0107,-0.022 0.0215,-0.0395 0.0126,-0.0181 0.0137,-0.0171 0.031,-0.0286 0.0395,-0.0258 0.0244,-0.0079 0.0473,4e-4 0.0495,0.0028 0.1506,0.0217 0.4897,-0.1697 0.0697,-0.0253 0.0554,-0.0173 0.0368,-0.0111 0.025,-0.007 0.0378,-0.0101 0.9308,-0.2195 0.0175,-0.0029 0.0571,-0.0068 0.0123,7e-4 0.0148,0.0017 0.0236,0.0046 0.0226,0.0046 0.0455,0.011 0.0467,0.0102 0.0424,0.0065 0.2557,-0.1555 0.0556,-0.0301 0.3821,-0.531 0.0283,-0.0675 -0.146,-0.0952 0.0206,-0.0224 0.112,-0.1036 0.2584,-0.1754 0.3008,-0.2688 -0.007,-0.0165 -0.002,-0.004 -0.0312,-0.0482 -0.0253,-0.0371 -4e-4,-5e-4 -0.004,-0.0122 -0.0155,-0.049 -0.005,-0.0147 -0.0264,-0.0838 0.1192,-0.3145 0.0714,-0.0559 0.11,-0.1007 0.0368,-0.0353 0.009,-0.0372 0.006,-0.0228 0.01,-0.0457 0.009,-0.042 0.008,-0.0426 -0.0315,-0.2235 0.0771,0.0106 0.1589,0.0222 0.009,0.007 0.0251,0.0218 0.0209,0.0245 0.0939,0.0386 0.0651,0.0258 0.2151,0.0848 0.0381,0.0094 0.0454,0.0102 0.003,-0.007 0.0414,-0.1089 -0.0139,-0.0662 -0.0103,-0.0476 -0.01,-0.0396 -0.0116,-0.0454 -0.0103,-0.0436 -0.0228,-0.1008 -0.011,-0.0569 0.005,-0.0059 5e-4,-5e-4 0.0127,-0.0145 0.0777,-0.0458 0.0151,-0.0061 0.1549,-0.0391 0.0232,-0.0034 0.0115,-0.0027 0.007,-0.0029 0.0838,-0.095 0.0403,-0.0636 0.002,-0.0068 0.0105,-0.0803 4e-4,-0.0066 7e-4,-0.0267 -0.002,-0.4086 -0.003,-0.0041 -0.008,-0.003 -0.4121,0.0054 -0.0753,0.0068 -0.0816,0.014 -0.0694,0.0339 -0.009,0.002 -0.1179,-0.0148 -0.007,-0.0022 -0.0323,-0.028 -0.1432,-0.125 -0.1348,-0.1902 -0.081,-0.1155 -0.0277,-0.1335 -0.0195,-0.1072 -0.007,-0.0202 -0.004,-0.01 -0.0129,-0.0264 -0.0371,-0.0522 -0.0105,-0.0147 -0.1627,-0.1637 -0.3313,-0.161 0.1617,-0.3566 0.128,-0.296 0.0143,-0.0151 0.0176,-0.0135 0.0261,-0.0199 0.0288,-0.02 0.0367,-0.0183 0.0506,-0.0304 0.0142,-0.0166 0.0355,-0.0448 0.0156,-0.0243 0.0154,-0.0263 0.0154,-0.0275 0.0977,-0.1849 -0.0391,0.0102 -0.1136,0.0222 -0.0576,0.0098 -0.0207,0.003 -0.0206,-4e-4 -0.01,-0.0032 -0.0168,-0.0094 -0.167,-0.1078 -0.0756,-0.0633 -0.4496,-0.0796 -0.2022,0.1189 -0.0785,-0.0708 -0.0258,-0.0242 -0.0581,-0.075 -0.1096,-0.1505 -0.0193,-0.0437 -0.007,-0.0187 -0.008,-0.0229 -0.01,-0.0288 -0.003,-0.0336 0.006,-0.0201 0.009,-0.0243 0.011,-0.0208 0.0121,-0.0156 0.0127,-0.0115 0.0145,-0.0122 0.0134,-0.0116 0.005,-0.0152 0.005,-0.0343 0.004,-0.0393 0.01,-0.1096 0.016,-0.1798 -0.002,-0.0505 -0.007,-0.0226 -10e-4,-0.0045 -0.0112,-0.0299 -0.0391,-0.0957 -0.0439,-0.0791 -0.001,-7e-4 -0.01,-0.0029 -0.0256,-7e-4 -0.0191,6e-4 -0.0195,0.0026 -0.0252,0.0043 -0.0704,0.021 -0.0238,0.0093 -0.3452,0.1377 -0.043,0.0221 -0.037,0.0307 -0.0357,0.0304 -0.0551,0.0472 -0.0423,0.0343 -0.19,0.0315 -0.6221,0.0279 -0.0272,-0.0159 -0.0132,-0.0169 -0.3637,-0.5956 -0.01,-0.0217 -0.01,-0.0215 0.1289,-0.4142 0.1163,-0.2203 0.005,-0.0053 0.0241,-0.0137 0.0636,-0.0455 0.1303,-0.1644 0.008,-0.0138 0.0353,-0.0751 5e-4,-0.0055 -0.1569,-0.0824 -0.0815,-0.0911 -0.0916,-0.1224 -0.01,-0.0197 0.01,-0.1454 0.0211,-0.0812 0.005,-0.02 0.002,-0.0124 0.002,-0.0112 -0.0232,-0.2485 -10e-4,-0.0089 -0.0555,-0.0541 -0.006,-0.0048 -0.052,-0.0155 -0.0273,-0.0077 -0.1197,-0.0314 -0.127,-0.0352 -0.5615,-0.1984 -0.0305,-0.0151 -0.0235,-0.2227 -0.005,-0.0973 0.004,-0.0859 0.008,-0.0263 -0.007,-0.0067 -0.0575,-0.0483 -0.0145,-0.0057 -0.0589,-0.0201 -0.6208,-0.2858 -0.0115,-0.0266 -0.006,-0.0139 -0.0549,-0.1164 -0.0151,-0.0273 -0.0961,-0.1382 0.084,-0.0974 0.0914,-0.0957 0.0223,-0.0175 0.0885,-0.0621 0.0153,-0.0092 0.0132,-0.0072 0.005,-6e-4 0.0131,0.0026 0.0705,0.0249 0.0893,0.0164 0.0326,-0.0447 0.0392,-0.0603 0.002,-0.0044 0.001,-0.008 -0.01,-0.0146 0.001,-0.0109 0.0101,-0.0174 0.01,-0.0128 0.008,-0.0066 0.0122,-0.004 0.0118,-0.0015 0.036,-4e-4 0.0232,3e-4 0.007,5e-4 0.008,0.001 0.003,9e-4 0.009,0.0027 0.0273,0.0134 0.0477,0.0298 0.0153,0.0114 0.008,0.0093 0.007,0.0092 4e-4,5e-4 0.0109,0.0144 0.01,0.009 0.0196,0.0171 0.0102,0.0074 0.008,0.0025 0.0129,10e-4 0.033,0.0011 0.0139,5e-4 0.0125,0 0.008,-0.001 0.0429,-0.0032 0.0141,0.0012 0.0152,-0.0061 0.1671,-0.0682 0.1371,-0.0428 0.001,0.0013 0.002,0.0015 0.003,-9e-4 0.005,-0.0028 0.0116,-0.0061 0.009,-0.0054 0.0116,-0.0083 0.01,-0.0071 0.01,-0.0096 0.0134,-0.0148 0.008,-0.0204 -0.0172,-0.0449 -0.0143,-0.0362 -0.005,-0.0098 -0.005,-0.0151 -0.003,-0.0092 0.007,-0.0458 0.008,-0.0221 0.009,-0.0219 0.0172,-0.0367 0.006,-0.0101 0.0103,-0.013 0.0153,-0.0177 0.007,-0.0074 0.0232,-0.0162 0.0165,-0.0063 0.003,-9e-4 0.0117,-0.0039 0.0146,-0.0045 0.0357,-0.0104 0.162,0.2299 0.1992,0.2045 0.0543,0.0257 0.0243,0.0089 0.0113,0.001 0.0477,-0.0011 0.006,-0.0165 0.004,-0.0247 10e-4,-0.0132 -5e-4,-0.0335 -0.0305,-0.1503 -0.0521,-0.2293 -0.0356,-0.1355 0.007,-0.33 4e-4,-0.0097 0.1593,-0.6337 0.1159,-0.2043 0.0389,-0.0681 0.021,-0.0332 0.0149,-0.0224 0.0429,-0.0576 -0.1135,-0.1365 -0.013,-0.0143 -0.0474,-0.0567 -0.005,-0.0068 -0.007,-0.016 9e-4,-0.0076 0.0212,-0.0542 0.0217,-0.0467 0.0152,-0.029 0.007,-0.013 0.0127,-0.0242 0.2577,-0.4521 0.0714,-0.2293 5e-4,-0.0014 0.007,-0.0053 0.2443,0.0051 0.0669,0.0034 0.0296,0.0093 0.021,0.0089 0.0121,0.0101 0.0247,0.0089 0.029,0.0079 0.2277,-0.0021 0.0314,-0.0024 0.0294,-0.0105 0.0421,-0.0224 0.0302,-0.02 0.5022,-0.3409 0.0107,-0.0333 -0.002,-0.0402 -0.0305,-0.6335 -0.0268,-0.2409 -0.018,-0.0641 -0.1024,-0.0566 -0.0372,-0.0213 -0.0636,-0.0751 -0.0385,-0.0577 -0.0369,-0.0659 -0.0277,-0.0275 -5e-4,-4e-4 -0.0189,-0.0184 -0.0249,-0.0141 -0.0396,-0.0207 -0.0332,-0.014 -0.0724,-0.0079 -0.8352,-0.0847 -0.7767,-0.0259 -0.2362,-0.0491 -0.0176,-0.0052 -0.0172,-0.0053 -0.028,-0.014 -0.0688,-0.0348 -4e-4,-4e-4 -0.008,-0.0089 -5e-4,-5e-4 -0.0873,-0.2736 -0.005,-0.0211 -8e-4,-0.0067 0.1182,-0.4912 0.0442,-0.1744 0.008,-0.027 0.2909,-0.1686 z"
       id="path4"
       style="stroke-width:0.04;stroke-miterlimit:4;stroke-dasharray:none" />
  </g>
  <g
     transform="matrix(50,0,0,50,-11310.725,-1999)"
     id="Bolzano-Bozen"
     style="fill:#e45c36;fill-opacity:1;stroke:#ffffff;stroke-width:0.04;stroke-linejoin:round;stroke-miterlimit:4;stroke-opacity:1;stroke-dasharray:none">
    <path
       d="m 288.3781,40.6002 -0.0114,-0.0252 -0.007,-0.0204 -0.008,-0.0278 -0.004,-0.0119 -0.0129,-0.0271 -0.0236,-0.04 -0.007,-0.008 -0.0189,-0.0218 -0.008,-0.006 -0.0101,-0.0049 -0.0317,-0.0134 -0.3181,-0.1323 -0.011,-0.0036 -0.0282,-0.0028 -0.0939,-0.0042 -0.6992,-0.1981 -0.13,-0.0527 -0.031,0.0053 -0.1983,0.0632 -0.0263,0.0308 -0.0201,0.0239 -0.008,0.0123 -0.019,0.0262 -0.0153,0.0195 -0.008,0.0079 -0.01,0.0065 -0.007,0.0043 -0.5224,0.2573 -0.2575,0.0634 -0.148,0.0194 -0.1624,-0.0232 -0.2327,-0.0148 -0.0253,0.0033 -0.009,0.0039 -0.2518,0.1304 -0.1501,0.0799 -0.0785,0.042 -0.6317,-0.1431 -0.0169,-10e-4 -0.0225,-0.0013 -0.0113,10e-4 -0.0856,0.0112 -0.0564,0.0081 -0.0147,0.0025 -0.1167,0.0397 -0.0232,0.0164 -0.351,0.3123 -0.008,0.0095 -0.008,0.009 -0.009,0.0115 -0.0133,0.018 -0.008,0.0108 -0.0178,0.0256 -0.0195,0.0288 -0.1827,0.3376 -0.3441,0.0023 -0.1699,0.0208 -0.0593,-0.0672 -0.0268,-0.0179 -0.0263,-0.0163 -0.2047,-0.0247 -0.1911,0.0088 -0.0448,0.0046 -0.2604,0.1499 -0.0153,0.0183 -0.0149,0.0227 -0.0112,0.0176 -0.0624,0.1162 3e-4,0.0139 -0.007,0.0591 -0.004,0.0208 -0.007,0.0302 -0.008,0.012 -0.0216,0.0298 -0.006,0.0081 -0.01,0.0045 -0.2993,0.1325 -0.0108,0.0045 -0.0368,0.0099 -0.0738,0.0013 -0.0113,2e-4 -0.0222,-3e-4 -0.0473,-0.0019 -0.0996,-0.0277 -0.1342,-0.0282 -0.1022,-0.0205 -0.2838,-0.0478 -0.009,-9e-4 -0.5704,-0.0141 -0.0347,0.0024 -0.0201,0.0033 -0.011,0.0064 -0.0503,0.0297 -0.0114,0.0101 -0.0856,0.0795 -0.0173,0.0198 -0.0109,0.0135 -0.0172,0.0232 -0.0289,0.0565 -0.0235,0.0452 -0.0483,0.09 -0.006,0.0087 -0.0112,0.0158 -0.0117,0.0117 -0.8681,0.2066 -0.0488,-0.0237 -0.0493,-0.0212 -0.0284,-0.0071 -0.0237,-0.0046 -0.1252,-0.0197 -0.0259,-0.003 -0.0216,-5e-4 -0.0101,6e-4 -0.0154,0.0044 -0.008,0.0028 -0.4958,0.1919 -0.0194,0.008 -0.0348,0.018 -0.0148,0.0087 -0.3924,0.3353 -0.3395,0.2945 -0.5353,0.1629 -0.3547,0.1574 -0.2251,0.1318 -0.0174,0.0149 -0.009,0.0085 -0.0323,0.0556 -0.1937,0.268 -0.003,0.0036 -0.01,0.0089 -0.0265,0.0182 -0.003,-4e-4 -0.0162,-0.0024 -0.018,-0.0026 -0.0265,-0.0029 -0.1787,-0.0163 -0.0871,0.058 -0.0251,0.0174 -0.0259,0.0192 -0.007,0.0067 -0.006,0.0082 -0.006,0.0106 -0.005,0.0084 -0.0134,0.0373 -0.0243,0.0452 -0.0616,0.1061 -0.0141,0.0151 -0.0108,0.0105 -0.01,0.0034 -0.012,0.0035 -0.6706,0.1311 -0.0132,0.0023 -0.0188,0.0029 -0.1715,-0.0056 -0.005,-0.0044 -0.0178,-0.0112 -0.0536,-0.0224 -0.0293,-0.007 -0.0569,-0.0135 -0.0389,-0.0082 -0.7053,-0.0359 -0.0326,0.0026 -0.2982,0.31 -0.0321,0.0369 -0.0954,0.145 -0.0265,0.0405 -0.0537,0.1168 -0.3517,0.2412 -0.1373,0.0311 -0.028,0.0127 -0.1454,0.1038 -0.3536,-0.0968 -0.223,-0.0405 -0.0163,-0.0012 -0.0154,-0.0024 -0.0258,-0.0065 -0.0124,-0.006 -0.01,-0.0092 -0.0144,-0.0183 -0.2249,-0.4035 -0.1172,-0.2403 -0.005,-0.0104 -0.1843,-0.2386 -0.008,-0.0076 -0.7622,-0.1106 -0.2016,0.076 -0.0676,0.027 -0.0251,0.0113 -0.0193,0.0064 -0.0286,0.0072 -0.0286,0.005 -0.0202,0.0015 -0.3167,-0.0104 -0.2236,-0.0867 -0.1677,-0.0655 -0.6495,-0.278 -0.0329,-0.0167 -0.1729,-0.2009 -0.004,-0.0078 -0.0415,-0.0937 -0.0426,-0.1047 -0.008,-0.0191 -0.005,-0.0097 -0.006,-0.0036 -0.0102,-0.0034 -0.3892,0.0238 -0.2095,0.0563 -0.6948,0.275 -0.2321,0.1169 -0.0398,0.025 -0.009,0.0164 -8e-4,0.0309 0.005,0.0217 0.007,0.0429 0.003,0.0215 0.003,0.025 10e-4,0.0138 2e-4,0.0118 -0.008,0.0119 -0.1254,0.0694 -0.1953,0.1019 -0.0202,0.0086 -0.2896,0.0926 -0.1654,0.0172 -0.0155,-0.003 -0.008,-7e-4 -0.0632,0.0128 -0.0335,0.0085 -0.0722,0.0193 -0.0415,0.0209 -0.2723,0.1457 -0.1349,0.09 -0.004,10e-5 -0.0224,-0.0101 -0.0107,-0.0057 -0.0107,-0.0064 -0.0345,-0.0237 -0.0152,-0.0147 -0.0549,-0.0545 -0.005,-0.0168 -0.005,-0.018 0.003,-0.0113 0.005,-0.0201 0.007,-0.0308 0.005,-0.0232 -0.007,-0.0331 -0.009,-0.0196 -0.0258,-0.0389 -0.01,-0.0102 -0.016,-0.016 -0.6528,-0.5685 -0.0232,-0.009 -0.1022,0.0016 -0.0263,0.0015 -0.0123,0.0079 -0.006,-0.0557 -0.2976,-0.1657 -0.2224,-0.0368 -0.0651,-0.0101 -0.0588,-0.0051 -0.1784,-0.0105 -0.0394,-0.0019 -0.0107,-2e-4 -0.0504,-2e-4 -0.0115,3e-4 -0.011,0.0024 -0.007,0.0016 -0.009,0.0036 -0.011,0.0044 -0.0132,0.006 -0.0218,0.0153 -0.0179,0.0209 -0.2124,0.284 -0.006,0.0098 -0.006,0.0119 -0.003,0.0064 -0.0191,0.0509 -0.004,0.0106 -0.005,0.0136 -0.0224,0.0801 -0.003,0.0123 10e-4,0.0198 0.008,0.0502 0.002,0.0123 0.007,0.017 0.0115,0.0296 0.005,0.0185 5e-4,0.028 -0.0257,0.0144 -0.2496,0.09 -0.1231,0.0131 -0.0107,-0.0031 -0.0397,-0.0067 -0.0239,-0.0026 -0.0109,-5e-4 -0.0113,0.001 -0.009,0.0016 -0.0115,0.0023 -0.0302,0.0108 -0.0262,0.0175 -0.0204,0.0278 -0.2223,0.3098 -0.0114,0.0189 -0.0209,0.0371 -0.008,0.0148 -0.0449,0.1106 -0.004,0.0092 -0.002,0.01 -0.001,0.0095 -0.004,0.0287 -0.004,0.0379 -0.004,0.0431 -0.003,0.0102 -0.008,0.022 -0.006,0.01 -0.0306,0.0234 -0.0609,0.0454 -0.01,0.0061 -0.3509,0.1773 -0.1571,0.0785 -0.3207,0.1021 -0.2613,0.0421 -0.1975,0.0297 -0.6793,-0.3492 1e-4,-0.0123 0,-0.0103 -9e-4,-0.0208 -0.004,-0.0208 -0.003,-0.0102 -0.003,-0.0077 -0.1468,-0.1971 -0.0177,-0.0213 -0.3758,-0.3378 -0.0156,-0.0122 -0.1922,-0.1264 -0.0188,-0.0052 -0.011,-5e-4 -0.3425,0.0025 -0.1697,0.1275 -0.2359,0.0451 -0.1032,-0.0838 -0.3767,-0.162 -0.0202,-0.008 -0.0109,-0.004 -0.01,-0.0021 -0.016,-0.002 -0.0167,0.007 -0.0207,0.0113 -0.0131,0.0097 -0.0254,0.021 -0.0274,0.0236 -0.0749,0.0668 -0.024,0.0222 -0.0326,0.0397 -0.0307,0.038 -0.0159,0.0248 -0.0234,0.0385 -0.3364,0.0974 -0.543,0.0263 -0.6865,0.1096 -0.0358,0.006 -0.0199,0.0122 -0.4586,0.2821 -0.1563,0.11 -0.0861,0.0763 -0.032,-0.0075 -0.5067,0.009 -0.0317,0.0043 -0.1468,0.0207 -0.1436,0.0897 -0.0819,0.0567 -0.053,0.0367 -0.1486,0.0928 -0.0199,0.0124 -0.0239,-0.0068 -0.0266,-0.023 -0.0188,-0.0372 -0.004,-0.0393 -0.0195,-0.0583 -0.0212,-0.051 -0.0123,-0.0226 -0.007,-0.0086 -0.0155,-0.0115 -0.2454,-0.0785 -0.2116,-0.002 -0.0372,0.0157 -0.017,0.012 -0.0626,0.0638 -0.0225,0.0293 -0.0556,0.0638 -0.0147,0.0143 -0.1782,0.1196 -0.0243,0.0163 -0.0189,0.0071 -0.0419,-0.003 -0.0252,-0.0073 -0.0822,-0.0273 -0.1621,-0.0632 -0.03,-0.0138 -0.0369,-0.0185 -0.0129,-0.0032 -0.0212,0.2277 -0.0395,0.4632 0.0101,0.0361 0.0558,0.09 0.1204,0.1163 0.003,0.0042 -0.014,0.0271 -0.0557,0.1065 -0.0362,0.0432 -0.015,0.0142 -0.0337,0.0308 -0.2506,0.2177 -0.022,0.019 -0.5435,0.3049 -0.0319,0.0071 -0.2423,-0.0377 -0.1345,-0.03 -0.2628,-0.0725 -0.0302,-0.0083 -0.0207,-0.0049 -0.0468,-0.0086 -0.0213,0 -0.037,0.0036 -0.0945,0.0838 -0.0253,0.0274 -0.0533,0.0755 -0.004,0.0336 4e-4,0.0198 0.007,0.0314 0.0223,0.0853 0.0107,0.1303 -0.004,0.0264 -0.0115,0.0317 -0.026,0.0646 -0.0251,0.0524 -0.008,0.0077 -0.0307,0.0041 -0.0917,0.0184 -0.0906,0.0189 -0.1475,0.0447 -0.0155,0.0079 -0.0562,0.0776 -0.017,0.0762 -0.002,0.0172 -0.0119,0.0944 2e-4,0.0254 0.0235,0.0799 0.0527,0.0774 0.056,0.1174 0.009,0.0216 0.0807,0.493 -0.005,0.0136 -0.0312,0.0592 -0.1171,0.1769 -0.0537,0.0607 -0.0338,0.0271 -0.0727,0.0485 -0.0118,0.0054 -0.0124,0.0087 -0.0141,0.0164 -0.0526,0.0742 -0.0891,0.154 -0.1662,0.3172 -0.023,0.0644 -4e-4,0.0197 0.0119,0.0254 0.002,0.0245 -0.0165,0.0517 -0.0221,0.0503 -0.068,0.1525 -0.0182,0.0346 -0.0138,0.0182 -0.0202,0.0086 -0.0769,0.032 -0.0433,-0.0075 -0.009,-0.0022 -0.0188,0.0074 -0.008,0.0199 -0.0107,0.0335 -0.021,0.1644 6e-4,0.0475 0.008,0.0431 0.1371,0.6696 0.013,0.0122 0.0296,0.0328 0.0273,0.0411 0.007,0.0115 0.1135,0.2676 0.072,0.2192 -0.003,0.029 -0.0253,0.0425 -0.0346,0.0151 -0.0197,0.0075 -0.0382,0.0147 -0.2763,0.1107 -0.2575,0.1461 -0.1272,0.0952 -0.6747,0.3279 -0.0186,0.0086 -0.155,0.6596 -0.2179,0.4827 -0.1058,0.2919 -0.115,0.3529 -0.0718,-0.0811 -0.1676,-0.1816 -0.0328,-0.0335 -0.0166,-0.0107 -0.0204,0.0077 -0.0233,0.0109 -0.1269,0.0628 -0.0214,0.0123 -0.0284,0.0169 -0.0222,0.0109 -0.0184,0.0078 -0.0488,0.0176 -0.0488,0.0164 -0.0959,0.0264 -0.0594,0.0161 -0.0234,0.0051 -0.0249,0.0051 -0.0365,0.0067 -0.008,8e-4 -0.075,-3e-4 -0.3544,-0.0816 -0.2147,-0.0808 -0.0933,-0.0647 -0.7145,-0.1176 -0.0538,-0.0049 -0.0151,-0.0013 -0.07,-0.0043 -0.1518,-0.0058 -0.0126,0.0056 -0.0182,0.0103 -0.0203,0.0116 -0.0182,0.0116 -0.0952,0.0133 -0.3565,0.0456 -0.0993,-0.0137 -0.01,-0.0046 -0.0149,-0.0129 -0.009,-0.0209 -0.009,-0.0217 -0.005,-0.0079 -0.007,-0.0049 -0.0132,-9e-4 -0.0123,-5e-4 -0.1745,0.0063 -0.0173,0.0024 -0.0137,0.0049 -0.0179,0.0065 -0.0106,0.0049 -0.0184,0.01 -0.0256,0.017 -0.0362,0.0308 -0.1,0.0858 -0.1412,0.116 -0.0167,0.0116 -0.0126,0.0057 -0.5482,0.1904 -0.0681,0.0207 -0.0243,0.0063 -0.0237,0.005 -0.0269,0.0049 -0.0238,0.0017 -0.0248,-2e-4 -0.0244,-0.0014 -0.0333,-0.0037 -0.4467,-0.1141 -0.005,-0.0045 -0.005,-0.0046 -0.008,-0.0368 -0.007,-0.0391 -0.007,-0.0439 -0.007,-0.0449 -0.006,-0.043 -0.008,-0.0641 -0.003,-0.0071 -0.007,-0.0095 -0.0104,-0.0076 -0.0134,-0.0022 -0.1892,-0.0273 -0.1221,-0.0173 -0.0498,-0.0064 -0.0695,-0.0099 -0.0246,-0.006 -0.0334,-0.0137 -0.0171,-0.0106 -0.0289,-0.0183 -0.3063,-0.2265 -0.022,-0.0671 -0.005,-0.0048 -0.1321,-0.0112 -0.01,0.0014 -0.0103,0.0026 -0.0109,0.0038 -0.1163,0.052 -0.0121,0.0062 -0.008,0.0136 -0.006,0.0113 -0.0144,0.035 -0.0151,0.0425 -0.008,0.0241 -0.0146,0.0438 -0.009,0.0286 -0.004,0.0108 -0.008,0.0095 -0.0423,0.037 -0.0108,0.007 -0.0167,0.0095 -0.0129,0.0047 -0.088,0.0074 -0.2064,-0.0295 -0.1422,-0.0286 -0.0126,-0.0059 -0.0462,-0.0541 -0.3693,-0.4322 -0.4825,-0.434 -0.0255,-0.0137 -0.0383,0.0078 -0.0654,0.0288 -0.0146,0.0141 -0.003,0.012 -5e-4,0.01 -3e-4,0.012 -0.004,0.0202 -0.006,0.0136 -0.007,0.01 -0.0112,0.0133 -0.1013,0.1189 -0.0148,0.0096 -0.6548,0.2132 -0.0131,0.0034 -0.0367,0.008 -0.0232,0.0042 -0.0296,0.0044 -0.0302,-0.0027 -0.4708,-0.0708 -0.3599,-0.0501 -0.1494,-0.4412 0.2485,-0.0375 0.0188,-0.0089 0.0853,-0.0435 0.0603,-0.0329 0.021,-0.0116 0.0137,-0.0082 0.1261,-0.0861 0.0519,-0.0364 0.0404,-0.0322 0.4351,-0.605 0.1392,-0.1477 0.025,-0.04 0.006,-0.0154 -0.0101,-0.0292 -0.004,-0.0098 -0.005,-0.0095 -0.2536,-0.3844 -0.018,-0.0128 -0.0174,-0.0107 -0.0221,-0.0092 -0.0245,-0.008 -0.009,-0.0028 -0.0685,-0.0128 -0.009,-5e-4 -0.0736,-0.0035 -0.0679,1e-4 -0.0354,0.0017 -0.0219,8e-4 -0.0157,6e-4 -0.0129,2e-4 -0.0587,-0.0032 -0.0971,-0.013 -0.0807,-0.0146 -0.0145,-0.0047 -0.4442,-0.1464 -0.0274,-0.016 -0.0132,-0.0077 -0.2056,-0.2211 -0.001,-0.0136 7e-4,-0.0283 -0.1922,-0.1349 -0.2677,-0.0803 -0.2896,-0.1693 -0.0152,-0.0181 -0.009,-0.0122 0.0356,-0.1575 0.0765,-0.1369 0.004,-0.0089 0.0162,-0.0999 -1e-4,-0.0113 -4e-4,-0.0179 -0.2804,-0.2222 -0.0125,7e-4 -0.0398,-0.0039 -0.01,-0.0016 -0.1424,-0.0263 -0.3298,-0.0834 -0.0162,-0.0081 -0.0288,-0.0146 -0.007,-0.0093 -0.009,-0.0175 -0.0539,-0.1086 -0.0454,-0.0926 -0.003,-0.0047 -0.1337,0.0499 -0.0323,0.0237 -0.0114,0.0104 -0.1347,0.1242 -0.0446,0.0472 -0.0499,0.0557 -0.4043,0.1579 -0.1121,0.0077 -0.3686,0.029 -0.1986,0.0258 -0.2052,0.0778 -0.0192,0.0073 -0.009,0.0097 -0.008,0.0099 -0.0236,0.0297 -0.4458,0.1504 -1.0383,0.6141 -0.0173,0.0291 -0.006,0.0096 -0.0157,0.0213 -0.007,0.0088 -0.0729,0.0316 -0.1302,0.0374 -0.0554,0.0099 -0.3318,0.052 -0.0942,-0.0228 0.0213,-0.0294 0.1348,-0.1865 0.005,-0.0087 0.0238,-0.0376 0.017,-0.0338 0.003,-0.0105 -0.0337,-0.07 -0.0616,-0.0417 -0.0288,-0.0187 -0.0542,-0.005 -0.0101,-2e-4 -0.3974,0.0492 -0.0483,0.0076 -0.0457,0.0078 -0.2241,0.0559 -0.0626,0.0175 -0.0202,0.0067 -0.0527,0.0185 -0.0272,0.0103 -0.0371,0.0127 -0.0292,0.0092 -0.0215,0.0044 -0.0312,0.0062 -0.749,-0.0987 -0.2811,-0.1378 -0.0574,-0.0958 -0.0531,-0.0595 -0.1992,-0.0498 0.0476,-0.0567 -0.002,-0.0116 -0.006,-0.0159 -0.007,-0.0162 -0.005,-0.0085 -0.008,-0.0082 -0.007,-0.0069 -0.007,-0.0064 -0.0229,-0.0151 -0.0273,-0.0141 -0.008,-0.002 -0.0194,-0.0043 -0.0121,-0.0012 -0.0196,0.0075 -0.009,0.0046 -0.208,0.1153 -0.0199,0.0114 -0.0516,0.0359 -0.007,0.0065 -0.0342,0.3475 -0.1269,0.3112 -0.2418,0.5062 0.0416,0.2311 -0.0292,0.3295 -0.001,0.009 -0.006,0.0142 -0.1416,0.3121 -0.0878,0.1773 -0.079,0.1393 -0.007,0.0114 -0.005,0.0082 -0.2044,0.1229 -0.0127,0.0075 -0.0305,0.016 -0.0445,0.0201 -0.0152,0.0034 -0.1759,0.0245 -0.0312,-5e-4 -0.0199,-4e-4 -0.0278,-0.0012 -0.007,-6e-4 -0.0326,0.0117 -0.0106,0.0041 -0.008,0.0055 -0.004,0.0049 -0.0683,0.1156 -0.1029,0.2305 0.109,0.1488 0.2048,0.2531 0.1941,0.2392 0.014,0.0166 0.0129,0.0165 0.005,0.0113 0.0231,0.0556 0.008,0.0192 0.0101,0.0273 0.002,0.008 0.0643,0.3969 6e-4,0.0098 0.002,0.0532 -0.01,0.1115 -0.006,0.0576 -0.002,0.0183 -0.0167,0.0813 -0.008,0.0299 -0.019,0.0567 -0.004,0.0085 -0.0186,0.0256 -0.0188,-0.0086 -0.0107,-0.0037 -0.0159,-0.0054 -0.008,-0.0021 -0.01,-0.0011 -0.0106,-8e-4 -0.0102,0 -0.123,0.0087 -0.0183,0.0089 -0.0149,0.0121 -0.0772,0.0633 -0.274,0.2117 -0.4917,0.3679 -0.13,0.0856 -0.0422,0.0261 -0.0513,0.023 -0.0269,0.0101 -0.0115,0.0043 -0.017,0.0078 -0.003,0.0067 -0.01,0.0255 -0.006,0.018 0.018,0.039 0.3417,0.3813 0.1949,0.1856 0.0444,0.0732 -0.0247,0.1575 -0.0667,0.2365 -0.0106,0.0211 -0.007,0.0092 -0.006,0.0068 -0.0493,0.0479 -0.0206,0.0157 -0.0429,0.0309 -0.0218,0.0122 -0.0213,0.0103 -0.0336,0.0163 -0.009,0.0021 -0.1945,-0.0076 -0.1151,0.2251 -0.418,0.5848 -0.0443,0.3181 0.1298,0.2343 0.0775,0.1652 0.009,0.2781 0.004,0.1844 0.0511,0.2781 0.0546,0.0795 0.1264,0.2768 0.007,0.0165 0.007,0.0193 0.004,0.0101 0.0151,0.0505 0.0396,0.1366 0.001,0.0104 8e-4,0.0084 -1e-4,0.0098 -4e-4,0.0334 -0.0296,0.0419 -0.0136,0.0135 -0.005,0.0074 -0.0105,0.0162 0.0207,0.0325 0.0174,0.0161 0.0169,0.0148 0.0266,0.0191 0.008,0.0054 0.0473,0.0224 0.0214,0.0086 0.01,0.004 0.0538,0.0195 0.0865,0.0144 0.016,-0.0011 0.0216,-0.0037 0.0171,-0.0031 0.5253,-0.1347 0.6616,-0.1326 0.2055,0.108 0.0359,0.0209 0.078,0.0471 0.01,0.0064 0.014,0.0096 0.1411,0.1052 0.0974,0.0835 0.3269,0.2961 0.2621,0.2397 0.0809,0.0867 0.0332,0.0437 0.0107,0.0107 0.0205,0.0205 0.0752,0.0646 0.0241,0.0153 0.0263,0.0078 0.0156,0.0035 0.0165,5e-4 0.0319,-6e-4 0.0533,-0.006 -0.001,0.0664 -10e-4,0.0118 -0.005,0.0229 -0.0148,0.0479 -0.008,0.0224 -0.005,0.0067 -0.007,0.0083 -0.009,0.0096 -0.0392,0.0399 -0.033,0.024 -0.0432,0.0376 -0.01,0.0145 -0.0759,0.1273 -0.006,0.01 -0.003,0.0091 -0.003,0.01 -0.001,0.0105 -7e-4,0.0146 0.0196,0.3946 0.0296,0.2181 0.0112,0.0053 0.0236,0.0141 0.0127,0.0097 0.005,0.0055 0.004,0.0106 9e-4,0.01 -0.002,0.0079 -0.0282,0.0999 -0.004,0.0116 -0.0927,0.3008 -0.1071,0.2439 -0.0411,0.0598 -0.1431,0.2847 -0.002,0.0067 -0.023,0.107 -0.002,0.027 -2e-4,0.0205 3e-4,0.0249 0.008,0.0498 0.002,0.0054 0.0143,0.0234 0.0169,0.0268 0.0183,0.0255 0.0116,0.0147 0.023,0.0419 0.0155,0.0314 -0.004,0.0434 -0.004,0.0137 -0.1568,0.5778 -0.005,0.0101 -0.008,0.0111 -0.0159,0.0198 -0.0408,0.0182 -0.1951,0.0464 -0.1047,0.0044 -0.0848,0.0782 -0.1731,0.2674 -0.008,0.0165 -0.0183,0.0437 -0.002,0.0652 -0.004,0.116 0.002,0.027 0.007,0.042 0.129,0.6176 0.004,0.0146 0.008,0.0292 0.009,0.032 0.007,0.0186 0.007,0.0082 0.0165,0.0178 0.0195,0.0211 0.3388,0.3119 0.0248,0.0215 0.0246,0.0208 0.033,0.0268 0.0214,0.01 0.0164,0.006 0.005,0.0039 0.0193,0.0238 0.035,0.0442 0.005,0.0067 0.005,0.0077 0.005,0.0089 0.0278,0.0576 0.008,0.019 0.001,0.0389 0,0.0178 0.2848,0.0875 0.0136,-0.0145 0.0269,-0.0294 0.005,-0.0057 0.4654,-0.092 0.4576,0.0663 0.6023,0.0812 0.444,0.0495 0.0649,-0.0069 0.012,-0.0012 0.0112,0 0.015,0.0029 0.0494,0.0102 0.0313,0.0102 0.0754,0.0256 0.008,0.0066 0.0672,0.0537 0.01,0.0078 0.0173,0.0405 0.019,0.0397 0.053,0.1099 0.005,0.0109 0.0212,0.0309 0.0185,0.0265 0.0201,0.0256 0.0173,0.0211 0.0148,0.0168 0.008,0.0076 0.008,0.0064 0.009,0.0066 0.5504,0.4002 0.1591,0.0548 0.0493,0.0152 0.3662,0.0719 0.2112,0.0678 0.004,0.0012 0.002,0.0029 0.7046,0.907 0.005,0.0064 0.018,0.0058 0.1303,0.0385 0.4322,0.0521 0.009,-0.0069 0.009,-0.0038 0.009,-0.0036 0.1897,-0.065 0.2209,-0.0561 0.0899,-0.0223 0.3353,-0.0756 0.279,-0.0192 0.3912,0.0218 0.1682,-0.1133 0.0192,-0.0347 0.0619,-0.0573 0.1343,-0.1075 0.009,-0.0047 0.0115,-0.003 0.0846,-0.0145 0.0106,-0.001 0.5915,-0.1302 0.002,-0.0202 0.006,-0.0482 0.0391,-0.0767 0.0318,-0.0611 0.007,-0.0067 0.1072,-0.0943 0.1574,-0.1203 0.3057,-0.3283 0.0887,-0.1245 0.0112,-0.0131 0.1261,-0.1076 0.017,-0.0122 0.0472,-0.0281 0.006,-0.0031 0.0111,-0.0042 0.3452,-0.0305 0.2345,-0.0145 0.0864,0.0027 0.005,7e-4 0.0194,0.0162 0.009,0.009 0.007,0.0082 0.1303,0.2799 0.2675,0.3049 0.1292,0.3399 0.273,0.5225 0.009,0.0176 0.01,0.0179 0.0304,0.0507 0.011,0.0172 0.1815,0.2587 0.0172,0.0157 0.0267,0.02 0.0246,0.0178 0.0431,0.0304 0.008,0.0026 0.0214,0.0036 0.1176,0.0191 0.0215,0.002 0.0364,0.0032 0.0438,0.0037 0.0276,0.0018 0.5741,0.0739 0.319,0.075 0.1167,-0.0125 0.018,-0.002 0.0309,-0.005 0.0234,-0.0055 0.009,-0.0039 0.0609,-0.0112 0.0719,0.0032 0.0469,0.0022 0.1945,0.0147 0.1791,0.1059 0.1338,0.0356 0.1449,-0.0856 0.0779,-0.1262 0.427,-0.4204 0.1481,0.0149 0.0141,0.0314 0.0159,0.0294 0.018,0.0323 0.0253,0.0405 0.004,0.0025 0.1413,0.087 0.0169,0.0088 0.009,0.0034 0.1536,0.0212 0.0293,0.003 0.4737,0.0166 0.0101,-0.001 0.0159,-0.0033 0.0195,-0.0072 0.0531,-0.0307 0.0179,-0.0125 0.0159,-0.0166 0.1265,-0.0908 0.3236,-0.2138 0.1093,-0.0642 -0.0415,-0.1574 -0.003,-0.0655 6e-4,-0.004 0.029,-0.082 0.1164,-0.1987 0.0658,-0.0986 0.004,-0.0015 0.0105,0.0018 0.0322,0.0108 0.0188,0.0065 0.1728,0.0075 0.3887,-0.163 0.0156,-0.0069 0.0111,-0.0058 0.007,-0.0055 0.0135,-0.0134 0.0131,-0.0155 0.0916,-0.1201 0.0817,-0.1616 0.004,-0.01 0.0228,-0.0939 0.009,-0.0926 10e-4,-0.0088 0.3629,-0.0813 0.019,-0.004 0.0216,-0.0023 0.1107,5e-4 0.1344,0.0168 0.3484,0.1142 0.083,0.0334 0.2475,0.113 0.0745,0.035 0.008,0.0048 0.009,0.006 0.004,0.0055 0.0472,0.0957 0.1171,0.2 0.1949,0.1259 0.1299,0.0775 0.0881,0.0306 0.2057,0.1272 0.0429,0.0532 0.006,0.009 0.0118,0.0333 0.002,0.0123 0.0128,0.0698 0.0786,0.1626 0.005,0.0064 0.2468,0.3165 0.007,0.0069 0.0211,0.019 0.0113,0.005 0.1223,0.0061 0.038,0.0013 0.005,-9e-4 0.006,-0.0024 0.003,-0.0019 0.0477,-0.1317 0.0295,-0.0082 0.5117,0.1585 0.3341,0.1649 0.002,-0.0054 0.004,-0.0118 0.008,-0.0285 0.0244,-0.0901 0.005,-0.0218 -0.0535,-0.3991 -0.002,-0.0084 -0.002,-0.0054 -0.1383,-0.3605 -0.0969,-0.1097 -0.003,-0.0065 -0.003,-0.0133 -0.005,-0.0204 -0.0266,-0.1536 -0.0151,-0.1602 -0.0599,-0.277 -0.086,-0.3413 -0.1197,-0.116 -0.004,-0.0052 -0.043,-0.0601 -0.0139,-0.0225 -0.006,-0.0114 -0.0148,-0.0336 -0.0111,-0.0259 -0.1992,-0.4896 -0.002,-0.0077 -0.001,-0.0065 -0.0133,-0.1061 -0.484,-0.3012 0.004,-0.0144 0.3141,-0.1226 0.006,-5e-4 0.0152,-9e-4 0.1824,0.0099 0.0615,0.0045 0.4269,-0.261 0.0654,-0.0771 0.004,-0.0048 0.459,-0.3095 0.0114,-0.0044 0.0147,-0.0027 0.0459,-0.0063 0.1366,0.4674 0.0163,0.0882 0.0493,0.4271 -0.004,0.0227 -0.002,0.0263 -7e-4,0.025 7e-4,0.0445 0.004,0.1111 8e-4,0.0184 0.001,0.0135 0.003,0.0261 0.0266,0.0452 0.006,0.0083 0.4879,0.2461 0.1712,-0.036 0.0176,-0.0098 0.0146,-0.0049 0.0186,-0.0048 0.012,-9e-4 0.008,8e-4 0.007,0.004 0.3666,0.2995 0.009,0.0077 0.2437,0.4047 0.2557,-0.1043 0.2941,-0.1052 0.0151,0.0087 0.009,0.0042 0.0281,0.0076 0.0137,0.0029 0.0265,0.0057 0.0133,0.0024 0.0157,0.0016 0.0132,-5e-4 0.0104,-0.0011 0.0139,-0.0037 0.0102,-0.0034 0.0828,-0.0278 0.01,-0.0034 0.0394,-0.0135 0.0195,-0.0074 0.1479,-0.0764 0.004,-0.0021 0.004,-0.0025 0.01,-0.0084 0.002,-0.0048 0.0119,-0.0251 0.0163,-0.0448 0.3895,-0.3039 0.08,-0.0171 0.0137,-0.0043 0.0216,-0.0073 0.0699,-0.0313 0.007,-0.0033 0.01,-0.0094 0.006,-0.0062 0.003,-0.0045 0.0117,-0.0174 0.1172,-0.1823 0.1403,-0.2246 0.0955,0.0861 0.279,0.2022 0.3388,0.2874 0.0132,0.012 0.007,0.0085 0.006,0.0076 0.0118,0.0148 0.006,0.0082 0.0136,0.0246 0.002,0.0047 0.005,0.0118 0.008,0.0287 0.0771,0.6197 -0.0174,0.0865 0.0921,0.008 0.062,0.1061 0.0105,0.0245 0.0203,0.0533 0.004,0.0114 0.0627,0.2219 0.0216,0.2344 0.002,0.0283 -6e-4,0.0813 -0.003,0.0159 -0.01,0.0314 -0.0316,0.0889 -0.0145,0.0227 -0.004,0.0063 -0.003,0.0046 -0.005,0.0055 -0.004,0.0039 -0.007,0.0027 -0.01,0.0031 -0.1524,0.0326 -0.0136,0.0019 -0.0136,-9e-4 0.0198,0.2157 0.0966,0.0723 0.0388,0.2351 0.0258,0.0849 -0.042,0.1854 -0.0283,0.1088 -0.007,0.0162 -0.009,0.017 -0.002,0.0025 -0.0557,0.0441 -0.0479,0.0239 -0.0256,0.0084 -0.0308,0.0188 -0.0796,0.0754 -0.01,0.0099 -0.005,0.0052 -0.0855,0.1558 0,0.0055 0.002,0.0095 0.002,0.0069 0.003,0.0055 0.004,0.0055 0.004,0.0036 0.0499,0.0348 0.017,0.0106 0.0421,0.0391 0.0745,0.0821 0.003,0.0036 0.0253,0.0578 0.003,0.0122 -3e-4,0.0252 -0.003,0.0163 -0.003,0.0119 -0.002,0.0036 -3e-4,7e-4 -0.005,0.0092 -0.0789,0.1197 -0.0423,0.0017 -0.0106,-0.0039 -0.0108,-0.0049 0.0713,0.1086 0.1991,0.3321 -0.005,0.1064 -0.001,0.0113 -0.002,0.013 -0.1082,0.508 -0.0514,0.1562 -0.0123,0.0116 -0.005,0.0051 -0.008,0.0051 -0.007,0.0045 -0.006,0.0036 -0.0773,0.0398 -0.008,0.1412 -0.1008,0.2532 -0.0581,0.1783 0.0331,0.228 0.0966,0.11 -0.004,0.0029 -0.0176,0.0117 -0.0436,0.0287 -0.0283,0.0182 -0.0277,0.0177 -0.009,0.0054 -0.008,0.0022 -0.0287,0.0078 -0.0135,0.0031 -0.006,0.0012 -0.0237,0.0044 -0.0544,0.0061 -0.006,3e-4 -0.005,-4e-4 -0.005,-0.0019 -0.0111,-0.0089 -0.008,-0.0067 -0.0108,-0.0092 -0.0631,0.0045 -0.0112,0.0035 -0.0209,0.0084 -0.004,0.0037 -0.0143,0.0154 -0.004,0.0053 -0.002,0.007 -0.012,0.0479 -0.0358,0.1543 -3e-4,0.0064 0.0101,0.0291 0.0345,0.1381 0.1144,0.1082 0.091,0.177 0.1526,0.3094 -0.0928,0.1957 -0.088,0.1948 -0.1591,0.2366 -0.1347,0.2316 -0.0129,0.1413 -0.2167,0.3185 -0.085,0.0906 -0.004,0.0084 -0.003,0.0082 -0.0475,0.1809 -0.2971,0.3329 -0.1955,0.1423 -0.0278,0.1278 -0.0454,0.0761 -0.0656,0.0799 -0.0162,0.0107 -0.0202,0.0088 -0.0198,0.0075 -0.3348,0.0364 -0.0221,-0.0036 -0.1284,0.0073 -0.0796,0.0917 -0.014,0.0166 -0.009,0.0144 -0.0516,0.0788 -0.004,0.0118 -0.005,0.0136 0.001,7e-4 0.2476,0.0743 0.008,0.0049 0.1092,0.0705 0.0103,0.0077 0.007,0.0085 0.0162,0.026 0.0709,0.1526 0.1027,0.1826 0.3311,0.3658 0.1988,0.1317 0.1043,0.0543 0.009,0.0014 0.5414,0.0781 0.0232,-4e-4 0.0442,-0.0013 0.2067,-0.0066 0.1083,0.0868 -0.093,0.0849 -0.3708,0.0558 -0.007,-0.0062 -0.002,-0.0015 -0.009,-0.001 -0.0218,-0.001 -0.008,2e-4 -0.0228,9e-4 -0.009,0.0026 -0.008,0.0046 -0.0115,0.0078 -0.0166,0.0121 -0.0175,0.0128 -0.0148,0.012 -0.0175,0.0148 -0.005,0.0072 -0.025,0.0425 -0.007,0.0138 -0.008,0.0167 -0.008,0.0174 -0.1985,0.4733 -0.052,0.2641 0.0485,0.0546 0.0267,0.047 0.007,0.0099 0.0102,0.0141 0.004,0.0046 0.188,0.1619 0.008,0.0065 0.008,0.006 0.004,0.0031 0.004,0.0016 0.005,-0.0011 0.009,-0.0044 0.0109,-0.0066 0.0153,-0.0093 0.0201,-0.0106 0.008,-0.0012 0.0157,-0.0018 0.0151,8e-4 0.0204,0.0041 0.0338,0.0092 0.2616,0.0827 0.0111,0.0039 0.176,0.0634 0.1611,0.1395 1.3562,-0.4704 0.1977,-0.259 0.0134,-0.0232 0.0545,-0.0877 0.1464,-0.07 0.3912,-0.3341 0.1198,-0.1523 0.0387,-0.0436 0.0576,0.0015 0.0319,-0.0348 0.2461,-0.2396 0.1416,-0.1201 0.0302,-0.0248 0.0201,-0.0146 0.0432,0.0078 0.4562,0.1168 0.073,-0.1888 0.0794,-0.1672 0.0506,-0.0737 0.0741,-0.099 0.0652,-0.1103 0.003,-0.0113 -0.002,-0.0115 -0.0564,-0.2488 -0.006,-0.0057 -0.0379,-0.0361 -0.0655,-0.0585 0.4166,-0.5067 0.1504,-0.031 0.1256,-0.0276 0.0112,-0.0031 0.0101,-0.0051 0.004,-0.0047 0.0152,-0.0334 0.002,-0.0068 10e-4,-0.0051 -10e-4,-0.0033 -0.005,-0.0025 -0.005,-4e-4 -0.002,-7e-4 -0.004,-0.0251 -0.003,-0.0279 0.0455,-0.0475 0.003,-0.002 0.008,-0.0027 0.1446,-0.0442 0.006,-0.001 0.0181,-0.0029 0.0515,0.0334 8e-4,0.0082 -0.0251,0.0561 -0.1054,0.2294 -0.033,0.0195 -0.005,0.0062 -0.002,0.0049 0.003,0.0077 0.004,0.007 0.169,0.3096 0.0362,0.0611 0.0126,0.0169 0.06,0.0512 0.0248,0.0201 0.0548,0.0116 0.0172,-0.004 0.0273,-0.0065 0.2337,0.1268 0.0637,0.0443 0.004,0.0087 0.003,0.0072 0.0206,0.0741 0.0588,0.3917 0.3861,0.1441 0.0542,-0.0537 0.0183,-0.01 0.0141,-0.0032 0.0271,-0.002 10e-4,-1e-4 0.009,0.0026 0.0119,0.0033 0.0168,0.0077 0.009,0.0059 0.0396,0.0334 0.373,0.0623 0.0192,0.003 0.0202,-0.0051 0.3104,-0.1507 -0.0175,-0.1062 -0.008,-0.0422 -0.0167,-0.0662 -0.0569,-0.186 -0.0107,-0.0209 -0.0129,-0.0209 -0.0159,-0.021 -0.0889,-0.1062 -0.0392,-0.0459 -0.023,-0.0212 -0.0757,-0.0479 -0.0675,-0.2986 -0.005,-0.009 -0.0173,-0.032 -0.0461,-0.0763 -0.0428,-0.0702 -0.007,-0.0095 -0.014,-0.0141 -0.0206,-0.0118 -0.0199,-0.0083 -0.0194,-0.0066 -0.0404,-0.0108 -0.0222,-0.005 -0.0817,-0.0176 -0.0409,-0.008 -0.0613,-0.0126 -0.0391,-0.0107 -0.0616,-0.0175 -0.1262,-0.0369 -0.1453,-0.0432 -0.0403,-0.0124 -0.0153,-0.0051 -7e-4,-0.1087 0.003,-0.0274 0.0126,-0.0222 0.023,-0.0332 0.0177,-0.0222 0.0111,-0.0041 0.0846,-0.0295 0.019,-0.0052 0.1383,0.0018 0.0153,9e-4 0.1202,0.0093 0.116,0.0129 0.02,0.0034 0.0209,0.0038 0.0197,0.0021 0.0215,-10e-4 0.0528,-0.0102 0.0606,-0.0165 0.1142,-0.0392 0.0153,-0.0101 0.0224,-0.0171 0.0319,-0.0245 0.298,-0.2863 0.0506,-0.2213 0.0157,-0.0363 0.2066,-0.3948 0.0125,-0.0199 0.007,-0.001 0.013,0.001 0.2485,0.0277 0.3996,-0.094 0.2755,-0.1024 0.1748,-0.0669 0.0662,-0.0267 0.0778,-0.0333 0.0358,-0.0232 0.029,-0.0149 0.04,-0.017 0.0585,-0.019 0.0481,-0.0111 0.1474,-0.0317 0.0208,-0.0071 0.051,-0.0175 0.0104,-0.0094 0.0459,-0.0882 0.0866,-0.1767 0.0162,-0.0641 0.003,-0.0854 0.002,-0.0504 -0.003,-0.0345 -4e-4,-0.0044 0.0649,-0.1323 0.009,-0.0116 0.0219,-0.0256 0.0162,-0.0141 0.0424,-0.033 0.0246,-0.0171 0.0153,-0.0104 0.1068,-0.0087 0.0355,-0.001 0.0364,3e-4 0.0556,0.0012 0.0227,0.003 0.0411,-0.0218 0.0723,-0.0399 0.0166,-0.0096 0.0157,-0.0108 0.0169,-0.0205 0.0581,-0.0718 0.0135,-0.0226 -0.0448,-0.2813 -0.008,-0.0216 -0.01,-0.0164 -0.0265,-0.0304 -0.003,-0.0076 10e-4,-0.0028 0.008,7e-4 0.0245,0.0023 0.0375,0.0051 0.075,0.013 0.0574,0.0118 0.6773,0.1416 0.3054,0.0727 0.4717,0.1214 0.002,0.0798 0.3106,0.0625 0.1354,0.0771 0.0226,0.0184 0.0782,0.0677 0.0193,0.0251 0.0126,0.0165 0.34,-0.0092 0.1337,-0.1143 -0.005,-0.0078 -0.004,-0.0109 -0.008,-0.0217 -0.004,-0.028 0.001,-0.2674 7e-4,-0.006 0.0663,-0.4153 0.1256,-0.4991 0.0261,-0.0563 0.006,-0.0118 0.005,-0.0094 0.005,-0.0069 0.0182,-0.0192 0.004,-0.0031 0.008,-0.0047 0.009,-0.005 0.1433,0.004 0.1587,10e-5 0.0816,0 0.01,-8e-4 0.0114,-0.0012 0.0109,-0.0029 0.0122,-0.005 0.0769,-0.0321 0.0639,-0.0291 0.0212,-0.007 0.2363,-0.0171 0.0453,-0.0031 0.0299,-0.0015 0.0193,6e-4 0.015,0.0021 0.0147,-0.0104 0.062,-0.044 0.1508,-0.1108 0.0168,-0.02 0.0131,-0.017 0.0258,-0.0352 0.012,-0.017 0.0133,-0.021 0.0495,-0.5125 0.1907,-0.5009 0.007,-0.0151 0.1289,-0.2127 0.028,-0.0459 0.1256,-0.2028 0.065,-0.0983 -0.0726,-0.539 0.003,-0.0085 0.008,-0.0064 0.0588,-0.0472 -0.0407,-0.1018 -0.0164,-0.1377 0.1536,-0.5643 0.1349,-0.2033 0.0462,-0.0662 0.0101,-0.0183 0.008,-0.0168 0.006,-0.013 0.003,-0.0059 0,-0.0084 -0.0106,-0.1396 -0.005,-0.0324 -0.0213,-0.0276 -0.012,-0.0153 -0.0123,-0.0123 -0.0122,-0.0173 -0.0127,-0.0182 -0.0264,-0.0438 -0.007,-0.0135 0.0201,-0.0146 0.0156,-0.0103 0.0176,-0.0109 0.355,-0.1225 0.1978,-0.059 0.0621,0.1399 0.01,-0.0433 0.0804,-0.3404 0.008,-0.0205 0.0123,-0.0098 0.0161,-0.0102 0.0222,-0.0096 0.0368,-0.0167 0.007,-0.0089 -0.007,-0.0307 -0.0421,-0.0543 -0.0303,-0.036 -0.0299,-0.0208 -0.0621,-0.0414 -0.0184,-0.0111 -0.0342,-0.0092 -0.0406,-0.193 -0.005,-0.0172 -0.0115,-0.0154 -0.27,-0.175 -0.0383,-0.1231 0.1304,-0.0577 0.2814,0.0898 0.0177,0.0043 0.2421,0.0358 0.0274,0.0016 0.4235,0.0106 0.0257,-0.0052 0.0201,-0.0103 0.0153,-0.0096 0.008,-0.0086 0.0568,-0.0435 0.1677,-0.0572 0.0202,-0.0055 0.0704,-0.019 0.3993,-0.1063 0.2027,-0.0197 0.3728,-0.2996 0.0211,-0.0133 0.2629,-0.124 0.0339,-0.015 0.0652,0.1011 0.0269,0.0331 0.0435,0.0298 0.1991,0.0119 0.2618,0.0338 0.3402,0.1887 0.1819,-0.04 0.2512,-0.0331 0.6139,-0.117 0.3045,-0.0717 0.0222,-0.0065 0.0135,-0.0052 0.2026,-0.1356 0.0972,-0.3242 0.2409,-0.2848 0.0395,-0.039 0.0438,-0.0384 0.0886,-0.0624 0.0465,-0.0291 0.032,-0.0199 0.1005,-0.04 0.0133,0.0055 0.0101,0.0099 0.0282,0.1106 0.005,0.0135 0.0798,0.0374 0.0928,0.0432 0.0109,0.0054 0.0112,0.0103 0.0144,0.0146 0.0734,0.0797 0.1437,0.1623 0.001,0.0984 -8e-4,0.0262 -0.002,0.0248 -0.006,0.0325 -0.005,0.0222 -0.005,0.0203 -0.007,0.0323 -0.002,0.099 0.005,0.0209 0.009,0.0188 0.1067,0.1822 0.5422,-0.2886 0.1229,-0.0625 0.1123,-0.0495 0.0622,-0.0165 0.7577,-0.1721 0.0421,-0.0082 0.0998,-0.0096 0.172,-0.0128 0.4645,-0.2466 0.0725,-0.0537 0.2381,-0.1053 0.1324,-0.0532 0.0411,-0.0067 0.0472,0.0077 8e-4,1e-4 0.1061,0.02 0.152,0.0597 0.0542,0.0305 0.0692,0.0394 0.0585,0.0311 0.06,0.0161 0.1528,0.029 0.2218,-0.0166 0.1697,-0.0515 0.0174,-0.0393 0.0395,-0.1286 0.0367,-0.1218 0.0148,-0.0624 0.0122,-0.0504 0.0156,-0.0374 0.0178,-0.0151 0.0407,-0.0277 0.0255,-0.0161 0.4098,-0.163 0.0664,-0.0223 0.6604,-0.0256 0.0617,-0.0023 0.0462,0.0432 0.0531,0.0769 0.0457,0.0746 0.2212,0.3632 0.023,-0.025 0.0166,-0.0188 0.0283,-0.0366 0.0442,-0.0573 0.0449,-0.0763 0.0824,-0.1404 0.0468,-0.0883 0.1977,-0.3106 0.0333,-0.0497 0.007,-0.0063 0.2572,-0.3924 0.0368,0.0151 0.0367,0.0073 0.0384,-0.0152 0.0403,-0.0377 0.0368,-0.0592 0.022,-0.0614 0.003,-0.0669 0.0739,-0.2415 0.1048,-0.2537 0.0322,-0.0545 0.0326,-0.0413 0.053,-0.0473 0.0727,-0.0434 0.0683,-0.0327 0.0547,-0.0352 0.0423,-0.0304 0.0376,-0.0366 0.0484,-0.0632 0.0126,-0.0258 0.013,-0.0379 0.0771,-0.2942 0.0136,-0.0725 -0.005,-0.2556 -0.0104,-0.0548 -0.0197,-0.0447 -0.1106,-0.2815 0.2552,-0.4509 0.0378,-0.0201 0.1187,-0.0559 0.0413,-0.0094 0.0754,-0.0118 0.0542,-0.0211 0.0452,-0.0468 0.0244,-0.0677 0.013,-0.0662 0.0111,-0.0653 0.0107,-0.0767 0.0567,-0.2969 0.0371,-0.1775 0.0212,-0.0738 0.0176,-0.0309 0.0545,-0.0376 0.0657,-0.0307 0.03,-0.0148 -0.2587,-0.4521 -0.002,-0.0239 0.0824,-0.5898 -0.0215,-0.3887 0.0669,0.0066 0.151,0.0151 0.0262,0.0066 0.035,0.0267 0.0421,0.0668 0.0231,0.0372 0.0184,0.0353 0.01,0.0351 0.02,0.0366 0.0342,0.0359 0.0388,0.0383 0.3108,0.1272 0.2915,0.1497 0.2061,0.1063 0.048,0.0336 0.0304,0.041 0.0193,0.0326 0.006,0.0353 0.006,0.0386 0.023,0.048 0.0341,0.0372 0.061,0.0466 0.4227,0.2848 0.0587,0.038 0.4462,0.3193 0.1622,0.1589 0.1211,-6e-4 0.417,-0.1225 0.0307,0.0027 0.3147,0.1193 0.0449,0.0509 0.1016,0.1534 0.0317,0.0496 0.0299,0.052 0.002,0.0029 0.0423,0.0802 0.0292,0.0576 0.0282,0.0494 0.0573,0.0905 0.0366,0.012 0.005,0.0017 0.0576,0.0033 0.3236,0.0066 -0.0472,0.8053 -0.0565,0.2629 0.004,0.0386 0.008,0.0281 0.008,0.0278 0.0481,-0.0023 0.0441,-0.0117 0.0235,-0.014 0.2737,-0.1839 0.1916,-0.2398 0.0215,-0.0286 0.009,-0.0501 0.0174,-0.0656 0.0516,-0.0497 0.062,-0.0275 0.1213,-0.0439 0.1091,-0.0367 0.1233,-0.0397 0.2507,-0.0802 0.2099,-0.0647 0.0637,-0.0178 0.052,-0.0194 0.095,-0.3486 0.5586,-0.2258 0.0995,0.0602 0.0867,0.0594 0.0188,0.0338 0.022,0.0593 0.0272,0.0592 0.0439,0.0912 0.0459,0.0171 0.4175,0.1176 0.0642,0.0032 0.2405,-0.0089 0.0614,-0.0037 0.3641,-0.0461 0.053,-0.0315 0.3097,-0.1875 -0.0261,-0.0404 -0.0214,-0.0335 1e-4,-0.0012 0.003,-0.0407 1e-4,-0.0012 0.01,-0.0508 0.008,-0.034 0.005,-0.0228 0.0104,-0.037 0.2264,0.0227 0.3625,0.031 0.1686,-0.0532 0.2031,0.1503 0.1199,0.1136 0.4078,0.2016 0.0695,7e-4 0.1521,-0.0022 0.1298,-0.0167 0.4929,-0.1307 0.0906,-0.0525 0.0309,-0.021 0.0156,-0.0316 0.0208,-0.0852 0.003,-0.0158 -0.0263,-0.0472 -0.0407,-0.0458 -0.004,-0.0042 -0.1656,-0.1088 -0.1511,-0.2065 -0.0129,-0.0546 0.005,-0.0334 0.0218,-0.0833 0.0347,-0.107 0.0614,-0.0304 0.0483,-0.0054 0.0694,0.014 0.047,0.0192 0.0684,0.0271 0.0867,0.0341 0.043,-0.0058 0.3219,-0.053 0.1599,-0.0598 0.2034,-0.2109 0.1686,-0.1863 0.3459,-0.4057 0.0491,-0.0618 0.1248,-0.1765 0.0199,-0.0228 0.0155,-0.0176 0.0182,-0.0083 0.0496,-0.017 0.3421,-0.0987 0.4205,-0.1358 0.4572,-0.1688 0.0965,-0.0417 0.0439,-0.0214 0.0235,-0.013 0.0107,-0.01 0.002,-0.0104 -0.003,-0.1247 -0.0352,-0.0871 -0.0201,-0.0372 -0.0106,-0.0152 -0.0333,-0.0277 -0.033,-0.0115 -0.7534,-0.1279 -0.1317,-0.0083 -0.0414,-0.0014 -0.0288,0.0098 -0.0254,0.0273 -0.0425,0.0414 -0.0106,0.0032 -0.1474,-0.0905 -0.2735,-0.1915 -0.3066,-0.2102 -0.0456,0.0016 -0.0741,-0.0124 -0.0201,-0.0059 -0.0428,-0.0138 -0.0369,-0.0197 -0.0322,-0.0192 -0.4388,-0.3104 -0.3545,-0.2652 -0.2275,-0.1412 -0.1537,-0.1787 -0.0117,-0.0167 -0.0261,-0.0417 -0.2965,-0.8284 -0.002,-0.0053 -0.0188,-0.077 -0.003,-0.0117 -0.042,-0.2562 -0.0362,-0.2053 -0.0568,-0.1472 -0.0847,-0.1726 -0.0735,-0.19 -0.005,-0.019 -0.0115,-0.119 -0.0142,-0.1811 0.003,-0.0205 4e-4,-0.0108 1e-4,-0.0442 -0.0147,-0.0314 -0.0117,-0.0178 -0.0248,-0.0265 -0.1955,-0.101 -0.0148,-0.0068 -0.1572,0.0179 -0.4945,-0.1114 -0.054,-0.0163 -0.0122,-0.0085 -0.0295,-0.0251 -0.0755,-0.045 -0.0219,-0.0092 -0.0458,-0.0176 -0.0149,-0.0046 -0.0115,-0.0035 -0.453,-0.1161 -0.013,-0.0027 -0.019,-0.0033 -0.021,-0.0027 -0.0104,6e-4 -0.0126,0.007 -0.0165,0.0109 -0.007,0.0052 -0.0111,0.0078 -0.017,0.0238 -0.0117,0.0172 -0.0159,0.0225 -0.138,0.0212 -0.5441,-0.0078 -0.0162,-6e-4 -0.0102,-0.003 -0.008,-0.0031 -0.0105,-0.0048 -0.009,-0.0045 -0.008,-0.0059 -0.005,-0.0071 -0.005,-0.0093 -0.0768,-0.2486 -0.01,-0.0416 -0.0113,-0.0624 -0.002,-0.0154 0.145,-0.0927 0.2477,-0.3604 0.005,-0.0177 0.005,-0.0231 -0.1131,-0.3001 -0.1508,-0.1906 -0.0308,-0.038 -0.008,-0.0069 -0.008,-0.0062 -0.009,-0.0039 -0.009,-0.0055 -0.0117,-0.009 0.31,-0.3521 0.1012,-0.0955 0.1107,-0.0975 0.1112,-0.1167 0.1677,-0.1877 0.01,-0.0212 0.0152,-0.2928 -0.002,-0.0139 -0.008,-0.0182 -0.0324,-0.0197 -0.0377,-0.0199 -0.0224,-0.0085 -0.0193,-0.0032 -0.0199,-0.0021 -0.018,-6e-4 -0.0949,-0.0108 -0.1093,-0.0161 -0.1346,-0.2827 -0.0345,-0.0906 -0.0632,-0.2265 0.0571,-0.1801 0.0362,-0.1905 -0.007,-0.0069 -0.166,-0.1167 -0.0224,-0.0039 -0.0194,-8e-4 -0.0106,0.0012 -0.0127,7e-4 -0.0422,-0.0065 -0.0929,-0.0517 -0.172,-0.1539 -0.008,-0.0091 -0.005,-0.0172 -0.002,-0.0108 -10e-4,-0.0198 -6e-4,-0.0385 0.0377,-0.062 0.0215,-0.0331 0.0124,-0.012 0.0228,-0.0647 -0.005,-0.0282 -0.004,-0.0201 -0.005,-0.01 -0.1232,-0.2005 -0.2539,-0.1231 -0.6657,-0.0873 -0.3523,0.1744 -0.003,0.0147 -0.004,0.01 -0.005,0.0115 -0.004,0.0082 -0.005,0.0074 -0.1108,0.1438 -0.006,0.0075 -0.008,0.0077 -0.1393,0.0705 -0.0716,0.0121 -0.0101,-0.0013 -0.0106,-0.0018 -0.0191,-0.006 -0.0331,-0.0127 -0.009,-0.0067 -0.017,-0.0116 -0.0292,-0.016 -0.0104,0.011 -0.0189,0.0298 -0.0394,0.0726 -0.003,0.0089 -0.007,0.0201 -0.0327,0.1248 -0.001,0.0025 -0.0219,0.0033 -0.0458,-0.0019 -0.0117,-5e-4 -0.0404,-0.0145 -0.1881,-0.2055 -0.0131,-0.0163 -0.1499,-0.1957 -0.1528,-0.219 -0.0744,-0.1563 0.052,-0.1778 7e-4,-0.0076 -0.004,-0.0128 -0.0215,-0.0484 -0.1717,-0.2708 -0.1155,-0.1263 -0.3285,-0.0815 -0.3266,-0.0521 -0.3989,-0.0102 -0.472,-0.2055 -0.0135,-0.0035 -0.0127,0.0043 0.0962,-0.0762 0.2641,-0.2212 0.0309,-0.0668 0.1914,-0.3374 0.0124,-0.0118 0.0796,-0.0722 0.0284,-0.0152 0.028,-0.0147 0.0206,-0.0103 0.0152,-0.0082 0.018,-0.01 0.007,-0.0232 0.005,-0.021 0.005,-0.0293 0.0126,-0.1261 -0.002,-0.0269 -0.0853,-0.1804 -0.0242,-0.0424 -0.1516,-0.2486 -0.0497,-0.0705 -0.0261,-0.0308 -0.2123,-0.088 -0.0678,-0.0254 -0.1904,-0.0677 -0.2087,-0.0888 -0.009,-0.009 -0.1845,-0.2272 -0.0231,-0.0367 -0.005,-0.0079 -0.0155,-0.0434 0.0161,-0.009 0.0202,-0.0055 0.1271,-0.2405 0.0517,-0.4435 -0.0245,-0.1573 -0.4005,-0.8789 -0.0296,-0.044 -0.004,-0.0064 -0.0939,-0.1366 0.1308,-0.2234 0.009,-0.0116 0.0135,-0.0156 0.0172,-0.0187 0.0153,-0.0146 0.02,-0.019 0.5307,-0.3899 0.0152,-0.0102 0.0731,-0.0484 0.0483,-0.0315 0.041,-0.0056 0.7341,0.1069 0.083,-0.0458 0.0203,-0.0095 0.0124,-0.0051 0.008,-0.0028 0.2848,-0.0699 0.4419,-0.0898 0.1408,-0.0097 0.0217,8e-4 0.009,6e-4 0.1541,-0.0336 0.0738,-0.1162 0.042,-0.0691 0.0993,-0.1888 0.006,-0.0118 0.168,-0.3852 0.003,-0.0095 0.001,-0.009 0.0122,-0.1886 -0.0324,-0.1345 -0.004,-0.0196 -0.002,-0.0182 -8e-4,-0.0296 0,-0.0082 7e-4,-0.0085 0.0367,-0.1756 0.0427,-0.0179 0.01,-0.0018 0.1062,-0.0311 0.1464,-0.0475 0.0196,-0.0101 0.3864,-0.2113 0.0393,-0.0455 0.0206,-0.026 0.0106,-0.0159 0.009,-0.0159 0.003,-0.03 -8e-4,-0.0126 -0.002,-0.0111 -0.003,-0.009 -0.0122,-0.0186 -0.007,-0.0065 -0.0163,10e-5 -0.0146,-0.0016 -0.0217,-0.0079 -0.008,-0.0085 -0.1979,-0.217 -0.049,-0.058 -0.0134,-0.0168 -0.008,-0.0109 -0.0309,-0.0604 z"
       id="path7"
       style="stroke-width:0.04;stroke-miterlimit:4;stroke-dasharray:none" />
  </g>
</svg>
