<?xml version="1.0" encoding="UTF-8" standalone="no"?>
<!-- Created with Inkscape (http://www.inkscape.org/) -->

<svg
   xmlns:svg="http://www.w3.org/2000/svg"
   xmlns="http://www.w3.org/2000/svg"
   version="1.1"
   width="3704.6721"
   height="4496.4082"
   id="svg2">
  <defs
     id="defs15" />
  <g
     transform="matrix(80,0,0,80,-22159.748,-15659.252)"
     id="Perugia"
     style="fill:#e45c36;fill-opacity:1;stroke:#ffffff;stroke-width:0.0375;stroke-linejoin:round;stroke-miterlimit:4;stroke-opacity:1;stroke-dasharray:none">
    <path
       d="m 295.201,196.9231 10e-4,-2e-4 0.0258,-0.007 0.0176,-0.01 0.0224,-0.0247 0.008,-0.0183 0.0433,-0.2815 0.003,-0.0226 -0.005,-0.0134 -0.0448,-0.0528 -0.05,-0.0558 -0.0145,-0.027 -0.0263,-0.1611 -0.1794,-0.1202 -0.039,-0.0154 -0.1026,0.004 -0.1315,0.0342 -0.032,0.0268 -0.0676,0.0786 9e-4,0.0144 0.0114,0.005 0.0149,0.005 0.009,0.002 0.004,0.007 -10e-4,0.009 -0.0101,0.0108 -0.1128,0.0686 -0.1336,0.0613 0.3432,0.1686 0.011,0.007 0.0662,0.0504 0.0239,0.0321 0.1202,0.1795 0.004,0.0188 0.0134,0.01 0.1264,0.016 0.0498,0.005 0.0302,-0.005 z"
       id="path4"
       style="stroke-width:0.0375;stroke-miterlimit:4;stroke-dasharray:none" />
    <path
       d="m 293.2552,197.2405 -0.2811,-0.3525 -0.0933,-0.1117 -0.0107,-0.0128 -0.009,-0.0118 -0.009,-0.0242 -0.008,-0.0361 0.0109,-0.2138 0.002,-0.029 0.1941,-0.3039 0.009,-0.0118 0.009,-0.0107 0.0117,-0.0123 0.0993,-0.0743 -0.4466,-0.239 -0.004,-0.004 -0.0267,-0.0262 -0.0112,-0.004 -0.0224,-0.003 -0.005,0 -0.0198,2e-4 -0.0226,0.002 -0.0147,0.0103 -0.011,0.0141 -0.0736,0.0978 -0.0217,0.0618 -0.0146,0.0432 0.015,0.0334 -0.341,0.1242 -0.3605,0.0846 -0.1268,0.147 -0.5133,0.2417 -0.1309,0.2854 -0.0119,0.058 -0.004,0.009 -0.0285,0.0421 -0.0122,0.0116 -0.2118,0.1439 -0.0586,0.003 -0.0125,-5e-4 -0.1399,-0.0138 -0.009,-0.005 -0.02,-0.0115 -0.002,-0.009 0.0318,-0.1376 0.005,-0.0177 0.008,-0.017 0.0163,-0.01 0.0134,-0.006 10e-4,-0.0976 -4e-4,-0.009 -0.007,-0.005 -0.222,-0.0569 -0.0109,-6e-4 -0.0583,-0.003 -0.0264,4e-4 -0.4909,0.0234 -0.0849,0.0142 -0.0371,0.0137 -0.009,0.004 -0.0219,0.0217 -0.004,0.004 -10e-4,0.002 -0.0181,0.0459 2e-4,0.002 9e-4,0.003 0.002,0.005 0.002,0.005 2e-4,0.005 -0.0124,0.0424 -0.009,0.017 -0.0116,0.0161 -0.0164,0.0127 -0.0223,0.0149 -0.0148,0.005 -0.0189,0.002 -0.0243,7e-4 -0.0922,-0.01 -0.0162,-0.003 -0.029,-0.006 -0.0226,-0.0101 -0.0475,-0.029 -0.0643,-0.006 -0.7434,-0.1379 -0.1986,0.003 -0.1388,-0.2347 -0.0619,-0.1052 -0.179,-0.4263 -0.0138,-0.0205 -0.3579,0.2102 -0.0685,0.0736 -0.0454,0.0578 -0.0989,0.1634 -0.0207,0.129 0.0244,0.104 0,0.002 -9e-4,0.0224 -0.008,0.0343 -0.0106,0.0339 -0.0684,0.1609 -0.0106,0.0132 -0.0196,0.0219 -0.0577,0.0313 -0.0286,0.0151 -0.0271,0.0112 -0.0241,0.007 -0.0195,0.007 -0.0237,0.009 -0.0215,0.0138 -0.0966,0.0818 -0.1171,0.2063 -0.0183,0.0569 -0.0626,0.1442 -0.3556,0.4343 -0.1407,0.1233 -0.0459,0.0518 -0.1524,0.5869 0.002,0.0281 0.01,0.0375 0.0406,0.0494 0.02,0.0219 -0.0266,0.0722 -0.1193,0.2818 -0.0286,0.0615 -0.0421,0.204 -0.0174,0.1057 -0.004,0.0149 -0.1257,-0.0459 -0.043,-0.0266 -0.0338,-0.0217 -0.0862,-0.0776 -0.0326,-0.0361 -0.0245,-0.0365 -0.5471,0.1171 -0.6484,0.0383 -0.1621,0.0343 -0.1525,0.2139 -0.0825,0.089 -0.0122,0.0254 -0.135,0.4389 -0.0105,0.0379 -0.006,0.0332 7e-4,0.1142 0.002,0.0207 0.003,0.0145 0.003,0.01 0.001,0.1925 10e-4,0.0188 0.0225,0.0529 0.008,0.0118 0.0133,0.0204 0.0141,0.0155 0.0424,0.0405 0.0311,0.0293 0.0279,0.019 0.0532,0.0195 0.0663,0.0112 0.2995,0.1053 0.0727,0.0975 0.0217,0.0387 0.2494,0.1971 0.4187,0.2526 0.0518,0.009 0.1344,-0.001 0.1413,-3e-4 0.1226,0.1177 0.0175,0.0121 10e-4,0.0135 0.002,0.0263 0.002,0.0231 -0.002,0.0316 -0.0207,0.1677 -0.0269,0.1147 -0.01,0.0392 -0.0677,0.0612 -0.1414,0.0313 -0.037,-0.0152 -0.4069,0.0685 -0.4853,0.2009 -0.0353,0.0169 -0.1489,0.0776 -0.0777,0.1199 -0.0182,0.0349 -0.0566,0.1181 -0.004,0.0245 0.002,0.0326 0.006,0.0361 0.0179,0.051 -0.1244,0.2481 -0.2968,0.3341 -0.004,0.004 -0.1773,0.1561 -0.0308,0.0238 -0.0356,0.009 -0.0906,0.004 -0.022,-0.004 -0.0389,-0.007 -0.0296,-0.0151 -0.0945,-0.044 -0.1283,-0.0504 -0.2109,-0.0714 -0.0529,-0.0162 -0.0271,-0.004 -0.0138,-0.002 -0.0478,0.002 -0.0336,0.0105 -0.1097,0.1489 -0.0262,0.1309 -0.007,0.0308 -0.0243,0.027 -0.0242,0.0217 -0.3439,0.1866 -0.1839,0.0512 -0.0641,0.0196 -0.0508,0.0355 -0.0849,0.1066 -0.0931,0.1463 -0.0556,0.1121 4e-4,0.0224 0.0498,0.2156 0.1597,0.4113 0.007,0.008 0.0158,0.0175 0.0278,0.0131 0.6464,0.0855 0.1896,-0.0928 0.2788,-0.1394 0.0508,-0.0238 0.0464,-0.0206 0.0455,-0.0181 0.0247,-0.005 0.0395,0.0203 0.0531,0.0329 0.002,0.001 0.1199,0.0733 0.005,0.016 0.003,0.0156 0.003,0.0233 0.003,0.0307 0.002,0.0354 0.002,0.0338 0,0.0171 -0.002,0.0137 -0.005,0.0239 -0.009,0.0303 -0.0318,0.0329 -0.0229,0.0429 -0.0393,0.0944 -0.0135,0.0375 -0.004,0.013 -0.0104,0.0401 -0.003,0.0132 -0.0125,0.0571 -10e-4,0.0135 -0.007,0.0691 -0.003,0.0645 -0.005,0.1746 -8e-4,0.0436 0.009,0.4861 0.01,0.0467 0.0139,0.0349 0.0574,0.0702 0.0144,0.016 0.002,0.002 0.0204,0.02 0.0158,0.0154 0.0135,0.0106 10e-4,2e-4 0.1072,0.0107 0.4317,-0.048 0.0431,-0.0184 0.0259,-0.034 0.008,-0.0107 0.0278,-0.049 0.007,-0.01 0.1023,-0.1172 0.044,-0.0386 0.0509,0.007 0.0356,0.0158 0.1543,0.0786 0.0474,0.0248 0.0562,0.0311 0.0396,0.0317 0.2131,0.1808 0.0899,0.1209 0.0347,0.0499 0.0524,0.0755 0.0289,0.0422 0.0236,0.0368 0.0788,0.1255 0.023,0.0406 0.002,0.004 0.0472,0.0873 0.0203,0.0407 0.1335,0.3062 0.0108,0.0279 0.0177,0.0586 0.0285,0.4473 -0.022,0.2468 -0.0609,0.4613 -0.0915,0.1864 -0.02,0.0392 -0.0196,0.028 -0.0324,0.0361 -0.0285,0.0257 -0.0111,0.005 -0.0334,0.0266 -0.0212,0.0223 -0.0107,0.0258 -0.002,0.0137 0.002,0.0325 0.007,0.0269 0.1907,0.4949 0.1169,0.0729 0.5645,0.3137 0.429,0.1587 0.3147,0.0378 0.0507,-9e-4 0.0261,-0.007 0.0255,-0.008 0.009,-0.0106 0.0289,-0.0473 0.0631,-0.1307 0.1749,-0.3765 -4e-4,-0.0176 -0.006,-0.0671 -0.0626,-0.2046 0.3593,-0.5486 0.0367,4e-4 0.2414,0.1598 0.0365,0.0794 0.0738,0.1128 0.0163,0.0149 0.3107,0.2099 0.0717,0.0426 0.0334,0.01 0.002,4e-4 0.0355,0.007 9e-4,0 0.0244,0.001 0.0432,0.0379 0.0813,0.0773 0.006,0.0211 -0.0145,0.0351 -0.0188,0.0289 -0.4334,0.5217 -0.0475,0.0344 -0.0122,0.004 -0.0409,0.0124 -0.0432,0.0149 -0.2508,0.0926 -0.104,0.0706 -0.3009,0.167 -0.0881,0.0143 -0.0464,-0.005 -0.007,-8e-4 -0.0556,-0.005 -0.1101,-0.001 -0.0387,0.0102 -0.0121,0.003 -0.0347,0.0205 -0.2791,0.1957 -0.01,0.008 -0.1362,0.1273 -0.064,0.0697 -0.196,0.2145 -0.009,0.0108 -0.0761,0.0963 -0.041,0.0391 -0.0699,0.0665 -0.1402,0.0516 -0.0776,0.0203 -0.0526,0.006 -0.0507,-2e-4 -0.231,-0.0342 -0.1543,-0.0238 -0.001,-5e-4 -0.0507,-0.023 -0.0605,-0.0151 -0.0837,-0.007 -0.0258,0.0107 -0.0587,0.0351 -0.1924,0.1286 -0.5247,0.4898 -0.1084,0.1421 -0.007,0.0162 -0.0302,0.0187 -0.025,0.0128 -0.0216,0.0105 -0.0287,0.003 -0.1885,-0.0225 -0.021,-0.005 -0.0127,-0.006 -0.0191,-0.0112 -0.0337,-0.0201 -0.0131,-0.0146 -0.0133,-0.0211 -0.008,-0.0192 -0.1425,-0.1517 -0.0822,-0.0775 -0.033,-0.0295 -0.0269,-0.0123 -0.039,-0.0135 -0.0442,-0.005 -0.0545,9e-4 -0.0872,-0.01 -0.0817,-0.0162 -0.0987,-0.0241 -0.0644,-0.0237 -0.0514,-0.0232 -0.0251,-0.0179 -0.0259,-0.0296 -0.0433,-0.062 -0.0374,-0.0526 -0.0168,-0.0142 -0.1739,-0.0933 -0.1655,0.0936 -0.3381,0.1935 -0.0125,0.0137 0.0553,0.2516 0.005,0.0161 0.0142,0.0429 0.005,0.0121 0.0358,0.0624 0.0886,0.3951 -0.1035,0.1873 -0.0424,0.1676 0.0284,0.2069 0.004,0.0259 -0.1795,0.4172 -0.1259,0.1856 -0.0125,0.1368 0.0196,0.0176 0.0319,0.0306 0.009,0.0266 0.0136,0.0495 -0.0524,0.224 -0.009,0.0168 -0.1065,0.1382 -0.1453,0.1327 -0.0308,0.0474 -0.002,0.002 -0.1865,0.0736 -0.2297,0.086 -0.0501,0.008 -0.0459,0.006 -0.0582,0.002 -0.1984,0.004 -0.0666,-0.007 -0.0284,-0.007 -0.1915,-0.007 -0.3658,0.2426 -0.0252,0.0279 -0.0168,0.0195 -0.008,0.0102 -0.0149,0.0211 -0.0136,0.0313 -0.005,0.0123 -0.008,0.0185 -0.0264,0.0469 -0.0703,0.0596 -0.03,0.0188 -0.1936,0.0864 -0.0755,0.013 -0.019,0.001 -0.0132,9e-4 -0.4526,0.2045 -0.4744,0.3079 -0.1689,0.128 -0.0243,0.0257 -0.009,0.01 -0.034,0.0405 -0.0352,0.0435 -0.0246,0.0317 -0.0321,0.0662 -0.0582,0.2852 -0.005,0.2024 0.006,0.0404 -0.0107,0.0417 -0.0535,0.1525 -0.024,0.0225 -0.0565,0.026 -0.0419,0.014 -0.0452,0.0178 -0.0373,0.0201 -0.0272,0.0157 -0.0217,0.0133 -0.0184,0.0171 0.002,0.004 0.1141,0.1766 0.1151,0.1946 0.003,0.006 0.0241,0.0436 0.002,0.004 0.027,0.0523 0.3197,1.0441 0.0107,0.0405 0.007,0.0445 0.005,0.0383 0.004,0.0345 -0.004,0.0303 -0.002,0.0125 -0.003,0.009 -0.003,0.01 -0.009,0.0256 -0.0174,0.0377 -0.0676,0.0593 -0.0404,0.0346 -0.0201,0.0174 -0.0243,0.0228 -0.0471,0.0523 -0.0162,0.0236 -0.007,0.0117 -0.0167,0.0295 -0.015,0.0431 0.046,0.2562 0.067,0.0491 0.2107,0.3144 0.0113,0.0297 0.0787,0.2539 0.0177,0.0733 0.0101,0.0516 0.006,0.03 0.002,0.015 4e-4,0.0164 0.005,0.0448 0.004,0.0126 0.01,0.0129 0.1245,0.1055 0.0256,0.0134 0.0407,-0.006 0.0157,-0.004 0.0214,-0.008 0.0123,-0.006 0.0727,-0.0415 0.0816,-0.0517 0.0212,-0.0292 0.082,-0.1629 0.004,-0.0174 -0.0149,-0.0348 -0.012,-0.0456 -0.009,-0.0419 -0.005,-0.0307 0.0122,-0.0326 0.0211,-0.0357 0.007,-0.0104 0.008,-0.0113 10e-4,-0.001 0.0196,-0.0203 0.1187,-0.098 0.0145,-0.006 0.0189,-0.008 0.0186,0.003 0.1474,0.0334 0.0259,0.007 0.0213,0.007 0.0539,0.0202 0.0293,0.0127 0.0508,0.0264 0.1906,0.0994 0.0197,0.0168 0.0192,0.018 0.0838,0.0869 0.0552,0.0649 0.017,0.0215 0.0135,0.0179 0.0557,0.083 0.008,0.0136 0.008,0.0201 0.0491,0.2221 0.004,0.0209 10e-4,0.0174 -6e-4,0.0266 -0.007,0.0488 -0.0289,0.0906 -0.0109,0.0309 -0.007,0.0175 -0.007,0.0121 -0.002,0.003 -0.0143,0.0241 -0.007,0.0121 -0.0139,0.0124 -0.0168,0.0103 -0.0229,0.0136 -0.0221,0.0125 -0.0293,0.0256 -0.0152,0.0185 -0.0124,0.0177 -0.0112,0.0202 -0.009,0.0189 -0.057,0.1346 -0.009,0.0256 -0.035,0.1069 -0.04,0.4723 -0.002,0.0202 7e-4,0.0165 0.005,0.0172 0.007,0.0204 0.008,0.0144 0.007,0.0236 7e-4,0.0154 -0.0199,0.0576 -0.0117,0.0301 -0.0186,0.0458 -0.0175,0.0399 -0.0196,0.0393 -0.0395,0.0766 -0.0553,0.149 -0.0829,0.2565 -0.0548,0.2046 -0.0623,0.2901 -0.0321,0.1452 -0.009,0.0354 -0.1131,0.3867 -0.0479,0.1459 -0.006,0.0174 -0.006,0.0169 -0.0175,0.0137 -0.1434,0.0857 0.0145,0.0622 0.0161,0.1173 0.008,0.0992 -0.0396,0.0164 -0.017,0.0454 -0.0277,0.1089 0.0103,0.1731 0.003,0.0305 0.0203,0.0489 0.0398,0.0904 0.0112,0.0238 0.0185,0.0291 0.0114,0.0137 0.0334,0.1269 -0.0158,0.2171 -0.0141,0.0583 -0.008,0.0144 -0.2601,0.4098 -0.0386,0.0294 -0.1353,0.4527 -0.0383,0.297 -0.0738,0.2728 -0.0846,0.3128 0.005,0.0394 0.0215,0.0984 0.0711,0.0637 0.0378,0.024 0.0358,0.015 0.0535,0.006 0.0624,0.003 0.3013,0.0601 0.0647,0.0272 -0.01,-0.5482 0.0104,-0.01 0.1355,-0.1179 0.0507,-0.0325 0.006,0.004 0.01,0.0218 0.0164,0.0716 0.2868,0.1802 0.168,-0.01 0.1632,-0.0332 0.006,-0.003 0.018,-0.007 0.0265,1e-4 0.3314,0.0519 0.0312,0.006 0.2406,0.0511 0.0555,0.0286 -0.0866,0.2021 -0.2135,0.3484 -0.1234,0.1707 -0.0752,0.0676 -0.0981,0.0289 -0.1873,0.0294 -0.0453,-0.003 -0.0275,0.006 -0.0181,0.0108 -0.0114,0.007 -0.0384,0.0346 -0.0302,0.0485 -0.0667,0.1072 -0.1226,0.2057 -0.116,0.1936 -0.0667,0.0833 0.002,0.1463 -0.0445,0.0432 -0.2152,0.0113 -0.0409,-0.002 -0.116,-0.0419 -0.0761,-0.0433 -0.0372,1e-4 -0.209,0.0607 -0.1015,0.0318 -0.0149,0.0166 0.003,0.0738 0.0153,0.0567 0.0213,0.0641 0.0375,0.0582 0.0443,0.0434 0.0561,0.0213 0.1449,-0.001 0.0574,-0.01 0.036,-0.0157 0.0387,-0.0205 0.5707,-0.1102 0.5803,-0.1466 0.3367,-0.1317 0.2749,-0.1241 0.2152,-0.1476 0.1104,-0.0741 0.0475,-0.0106 0.1382,-0.008 0.0246,0.004 0.0501,0.004 0.043,9e-4 0.1797,-0.0131 0.2385,-0.0499 -0.3699,-0.2165 -0.3135,-0.2782 0.0614,-0.2893 -0.009,-0.303 -0.226,-0.0778 -0.1546,-0.0532 -0.0133,-0.0644 0.0402,-0.0673 0.0491,-0.002 0.0444,0.006 0.1831,0.0298 0.0289,0.0123 0.1871,0.0619 0.2553,-0.32 0.0434,-0.1232 0.1085,-0.2324 0.1158,-0.1481 0.037,-0.0388 0.1611,-0.1665 0.0307,-0.0151 0.1494,-0.05 0.0384,-0.01 0.0579,-10e-4 0.1327,-0.0117 0.0264,-0.01 0.0342,-0.2956 0.0308,0.0365 0.0578,0.057 0.2741,0.2079 0.0195,-0.002 0.1452,-0.0713 0.1386,-0.0704 0.2688,-0.1254 0.0408,-0.009 0.2066,-0.0324 0.1207,-0.0203 0.0575,-0.002 0.0496,-6e-4 0.3797,0.004 0.1305,0.0241 0.1749,0.0305 0.1526,-0.0227 0.005,-0.001 0.0299,-0.006 0.0971,-0.0207 0.156,-0.0492 0.1801,0.103 0.0794,0.063 0.2091,0.1405 0.0886,0.0282 0.087,-0.0259 0.0694,-0.087 0.4767,0.0514 0.0409,0.0107 0.1397,0.0433 0.0669,0.0229 0.128,0.0467 0.1369,-0.0587 0.3921,-0.2067 0.0167,-0.005 0.4533,0.1593 0.1003,0.0918 0.0131,0.0159 0.0253,0.1215 0.2357,0.2395 0.3993,-0.138 0.0106,-6e-4 0.0111,-6e-4 0.0296,0.0144 0.0591,0.0339 0.0194,0.0161 0.003,0.005 0.002,0.005 0.002,0.006 -0.002,0.0111 -0.009,0.023 -0.004,0.008 -0.006,0.007 0.0604,0.1694 0.0147,0.0266 0.1602,0.0116 0.6652,0.0461 0.248,-0.0418 0.1103,-0.1561 0.0385,-0.0157 0.5057,0.038 0.1003,0.0339 0.0215,0.0111 0.0212,0.0158 0.008,0.008 0.1681,0.2195 0.702,0.1876 0.0333,0.002 0.016,-0.01 0.0226,-0.0134 0.0411,-0.0255 0.0369,-0.0349 0.0301,-0.0241 0.0294,0.005 0.0329,0.014 0.0361,0.0274 0.002,0.0103 0.01,0.0475 -0.0709,0.2524 -0.0239,0.0679 -0.0347,0.0608 -0.063,0.0971 -0.0333,0.0489 -0.1707,0.1751 -0.0623,0.009 -0.0274,0.002 -0.0122,0.0157 -0.0574,0.134 -0.005,0.0196 0.0156,0.1838 0.005,0.0144 0.0933,0.0728 0.0311,0.007 0.0366,0.006 0.1489,0.0138 0.0846,-0.0597 0.0253,-0.0233 0.0333,-0.0463 0.0299,-0.0352 0.0258,-0.016 0.1559,-0.002 0.2016,0.0707 0.002,0.011 -0.0911,0.1378 -0.01,0.1734 0.008,0.0786 0.0563,0.1254 -0.0237,0.3027 -0.1908,0.3362 -0.0147,0.0357 -0.003,0.0576 0.005,0.049 0.0112,0.0408 0.0163,0.0348 0.0216,0.0293 0.059,0.0764 0.0201,0.0483 0.0236,0.2229 -0.01,0.0408 -0.1322,0.4517 -0.0241,0.0243 -0.1066,0.0721 -0.1962,0.1578 -0.1438,0.5388 -0.0528,0.3265 -0.0351,0.278 -0.004,0.0101 -0.0423,0.1167 -0.1183,0.3256 -0.0798,0.137 -0.003,0.004 0.0887,0.2486 0.0133,0.1398 -0.0429,0.1947 -0.01,0.022 -0.0267,0.0192 -0.3069,-0.007 0.0294,0.2114 0.0135,0.4452 0.1426,0.6583 0.009,0.0424 0.0257,0.089 0.0758,0.0404 0.018,0.003 0.0262,-0.005 0.0303,-0.005 0.0197,0.002 0.0608,0.0132 0.0449,0.0132 0.0351,0.0183 0.166,0.1039 0.0168,0.0129 0.0505,0.0557 0.0738,0.1096 0.0895,-0.0309 0.0771,-0.0828 0.0611,-0.0836 0.0407,-0.0614 0.0219,-0.0722 0.3437,0.051 0.5782,0.656 0.0624,0.1488 0.002,0.0195 0.078,0.2179 0.0489,0.0839 0.0419,0.0638 0.3175,0.3646 0.008,0.007 0.009,0.001 0.058,-0.0175 0.0148,-0.0103 0.0145,-0.01 0.012,-0.003 0.0299,0.002 0.007,0.003 0.007,0.003 0.0407,0.0615 0.0962,0.1746 -5e-4,6e-4 -0.0112,0.0138 -0.098,0.0812 -0.1336,0.0434 0.086,0.5122 -0.1122,0.155 -9e-4,0.0141 -4e-4,0.1094 0.5179,0.4005 0.0189,0.0827 0.0272,0.097 0.0177,0.0309 0.0227,-7e-4 0.3282,-0.1532 0.0152,-0.0191 0.0151,-0.0356 0.0527,-0.1997 0.0151,-0.0848 0.005,-0.0624 -0.0172,-0.0711 -0.009,-0.0288 -0.004,-0.0413 -0.004,-0.0573 0.005,-0.0751 0.003,-0.0342 0.0126,-0.1046 0.0676,-0.1621 0.0209,-0.046 0.0844,-0.0481 0.037,-0.008 0.0817,-0.0141 0.1051,-0.0128 0.0529,0.005 0.058,0.0108 0.005,0.002 0.006,0.002 0.0105,0.0154 -0.013,0.0144 -0.0133,0.0142 -0.0173,0.1584 0.0486,0.4736 0.0255,0.2315 0.0505,0.0119 0.1511,-0.0897 0.0263,-0.0191 0.0125,-0.0123 0.0622,-0.0707 0.1183,-0.1219 0.2334,-0.2147 0.4124,-0.3658 0.0978,-0.0853 0.2132,-0.1044 0.1664,-0.0129 0.0382,0.009 0.257,-0.3332 0.1318,-0.1598 0.2819,-0.2346 0.0421,-0.0259 0.1279,-0.0441 0.0535,-0.0582 0.002,-0.0558 10e-4,-0.0597 0.0398,-0.1566 0.0179,-0.0627 0.006,-0.0162 0.0731,-0.139 0.0605,0.007 0.2459,0.126 0.0545,0.0275 0.0634,0.0107 0.0674,-0.0164 0.0308,-0.0176 0.027,-0.0205 0.0494,-0.026 0.0321,0.01 0.075,0.0983 0.0354,0.0523 0.009,0.0884 0.003,0.1073 -10e-4,0.001 -0.01,0.009 -0.0317,0.0155 -0.0205,0.0155 0.008,0.119 0.0549,0.1268 0.0176,0.0257 0.5518,0.3025 0.1309,0.0129 0.1945,-0.0766 -10e-4,-0.0226 0.0656,-0.1219 0.3498,-0.0198 0.0154,-4e-4 0.1492,-0.001 0.0446,2e-4 0.0456,0.0122 0.0536,0.0149 0.095,0.0248 0.1171,0.0274 0.1184,0.0277 0.0131,-0.005 0.1148,-0.1147 0.1144,-0.1274 -0.01,-0.0624 -0.0875,-0.5592 -0.0171,-0.1176 -0.0164,-0.1379 0.011,-0.046 0.005,-0.006 0.2252,-0.2404 7e-4,-7e-4 0.0262,-0.1675 0.0137,-0.004 0.0474,-0.002 0.0561,0.004 0.0367,0.004 0.0635,0.0144 0.0952,0.0413 0.0384,0.0192 0.0444,0.0224 0.0755,0.0488 0.0346,0.0269 0.0308,0.0251 0.0255,0.0275 0.0358,0.0402 0.0267,0.0405 0.0177,0.0397 0.0151,0.0537 0.009,0.0438 10e-4,0.0428 -0.0118,0.0762 -0.008,0.0473 7e-4,0.0537 0.003,0.0637 0.0137,0.049 0.0187,0.06 0.0631,0.131 0.0217,0.0418 0.0191,0.0325 0.0254,0.0394 0.0437,0.0586 0.0673,0.0896 0.0204,0.022 0.0398,0.008 0.2925,-0.0113 0.1854,-0.012 0.0148,-6e-4 -0.1619,0.4891 -5e-4,8e-4 -0.0169,0.0231 -0.0204,0.0187 -0.0103,0.008 -5e-4,4e-4 -0.017,0.0127 -0.0324,0.0202 -0.0467,0.0225 -0.0814,0.0309 -0.0448,0.003 -0.055,-0.006 -0.0954,-0.0119 -0.0717,-0.0153 -0.0514,-0.0247 -0.1085,-0.0512 -0.0448,-0.009 -0.2372,-0.0456 -0.0812,-0.004 -0.0407,0.002 -0.0706,0.008 -0.0512,0.01 -0.0502,0.0304 -0.2448,0.2043 -0.004,0.0174 0.0409,0.3133 0.0404,0.2003 0.0479,0.2292 0.01,0.0186 0.0304,1e-4 0.1151,-0.034 0.0526,-0.0176 0.2374,-0.1455 0.3913,-0.1053 0.1983,0.0126 0.0848,0.34 0.003,0.0354 -0.012,0.0512 -0.0114,0.0504 -0.002,0.0352 -0.001,0.0363 0.0121,0.0521 0.1952,0.3475 0.0312,0.01 0.0601,-0.0104 0.1311,-0.008 0.3645,0.124 0.1748,0.231 0.2986,0.0989 0.2876,0.1581 0.029,0.0218 0.0219,0.0179 0.0169,0.0161 0.0243,0.0317 0.0911,0.1522 0.0101,0.0206 0.009,0.0228 0.1037,0.2063 0.135,0.2197 0.0103,0.0161 0.0117,0.007 0.0637,0.0128 0.0161,0.002 0.0288,-0.001 0.0155,-0.004 0.1626,0.0186 0.1392,0.0371 0.1499,0.0952 0.157,0.1299 0.3064,0.4004 0.18,0.2649 0.0807,0.2445 0.0195,0.0785 0.0673,0.28 0.0356,0.2777 0.0429,0.2317 0.0123,0.0134 0.0118,0.0119 0.0113,0.006 0.0132,0.002 0.0205,-0.002 0.034,-0.005 0.0221,-0.003 0.0183,-0.007 0.0162,-0.009 0.0658,-0.058 0.003,-0.0112 -0.0286,-0.1288 -0.002,-0.0132 9e-4,-0.0264 0.005,-0.0158 0.0263,-0.0467 0.0111,-0.0144 0.1996,-0.1724 0.0698,-0.0353 0.0207,-0.008 0.0216,-0.0364 0.0131,-0.0331 0.002,-0.0182 4e-4,-0.004 -0.0201,-0.1337 -0.0162,-0.0649 -0.0219,-0.0786 -0.0169,-0.0343 -0.009,-0.022 -0.006,-0.0285 -0.005,-0.1818 0.002,-0.0171 0.0106,-0.0167 0.5376,-0.4327 0.0146,-0.009 0.2326,-0.0684 0.0683,-0.0137 0.1413,-0.007 0.0797,-5e-4 0.0194,0.003 0.1378,0.015 0.1595,-0.0171 0.0731,-0.0833 0.26,-0.5186 0.003,-0.0295 0.0392,-0.3059 0.003,-0.0146 0.009,-0.0406 0.003,-0.01 0.1948,-0.2094 0.0182,-0.0117 0.0151,-0.005 0.0133,0.004 0.0346,0.0334 0.0365,0.0569 0.0256,0.0377 0.0343,0.0499 0.0438,0.0534 0.008,0.007 0.0224,0.0117 0.0166,0.006 0.1969,0.0378 0.0309,0.001 0.0319,-0.008 0.135,-0.1198 0.1536,-0.0927 0.3393,-0.2586 0.003,-0.009 -1e-4,-0.007 -7e-4,-0.0252 -0.01,-0.0788 0.0544,-0.0436 0.2595,0.0225 0.8041,0.1413 0.0191,0.0118 0.0122,0.009 0.006,0.006 0.008,0.0145 0.007,0.0284 0.002,0.0309 0.006,0.0322 0.008,0.0238 0.052,0.1008 0.0692,0.1306 0.0362,0.0646 0.0258,0.0418 0.3088,0.3636 0.1601,0.1314 0.1285,0.0946 0.0642,0.0432 0.095,0.061 0.1051,0.3039 -0.1292,0.1729 -0.0678,0.0365 -0.0105,0.007 -0.0359,0.0412 -0.0171,0.0424 -0.0162,0.057 -0.004,0.0533 0.0824,0.2318 0.0313,0.0347 0.09,0.0793 0.0308,0.0129 0.1707,0.0214 0.1269,0.1075 0.1008,0.0827 0.0209,-0.002 0.0233,-0.004 0.0458,0.004 0.0471,0.0123 0.0489,0.0137 0.2647,0.0956 0.0183,0.0156 0.0154,0.0325 0.027,0.0579 3e-4,7e-4 0.0105,0.0335 1e-4,7e-4 0.005,0.0406 0,8e-4 0.1303,0.063 0.2545,0.052 0.0266,-0.009 0.0213,-0.023 0.0756,-0.1673 0.0121,-0.0565 0.009,-0.0652 0.1022,-0.2385 0.3817,-0.125 0.1127,-0.0318 0.0131,-0.003 0.0299,-0.004 0.2553,0.007 0.0579,0.004 0.0511,0.007 0.1033,0.0213 0.0365,0.0122 0.1844,0.0412 0.2967,0.0436 0.1081,0.0155 0.4339,0.0241 0.1902,-0.006 0.031,-0.01 0.1332,-0.0467 0.0445,-0.0167 0.0241,-0.0104 0.1054,-0.1287 0.0241,-0.0402 -10e-4,-0.0313 0,-7e-4 -0.0287,-0.0817 -0.009,-0.0203 -0.0103,-0.1434 0.0231,-0.1481 0.0177,-0.0353 3e-4,-6e-4 0.0171,-0.033 0.132,-0.1351 0.1162,-0.1442 0.0236,-0.0276 0.0306,-0.0121 0.0447,-0.004 0.0112,9e-4 0.0534,0.005 0.1071,0.0709 0.0564,0.1424 0.007,0.0265 -5e-4,0.0262 -0.004,0.0523 0,9e-4 0.0115,0.0484 3e-4,8e-4 0.017,0.0408 0.0163,0.0227 0.0359,0.0409 0.0299,0.0202 0.0295,0.0153 0.4879,0.1485 0.0526,0.0158 0.1561,0.0441 0.0442,0.007 0.0639,-0.006 0.0501,-0.005 0.0454,-0.009 0.0343,-0.0117 0.2349,-0.1375 0.1118,-0.0915 0.0273,-0.0286 0.0209,-0.0206 0.0189,-0.0145 0.0688,-0.0508 0.2533,-0.1256 0.0603,-0.0252 0.0568,-0.0144 0.0647,-0.0145 0.0692,-0.0133 0.052,-0.008 0.0507,-0.0139 0.0396,-0.0123 0.0343,-0.0157 0.107,-0.0607 0.1054,-0.0739 0.1322,-0.0998 0.0165,-0.0166 0.1319,-0.2215 0.1247,-0.2407 -0.0125,-0.0384 -3e-4,-8e-4 -0.007,-0.0334 -1e-4,-9e-4 -0.0147,-0.0783 1e-4,-8e-4 0.003,-0.0255 0.022,-0.025 0.0456,-0.0249 0.0641,-0.0191 0.303,-0.0668 0.0298,-0.004 0.172,0.2074 0.1267,0.1583 0.1821,0.2322 0.0189,0.0109 0.0249,-0.004 0.0195,-0.0122 0.3691,-0.2903 0.0201,-0.0218 0.0288,-0.0378 0.0627,-0.0893 0.1469,-0.1254 0.0298,-0.0266 0.1585,-0.1471 0.1099,-0.1105 0.0198,-0.0328 0.1387,-0.7684 -0.0238,0.003 -0.0292,0.003 -0.0264,-10e-4 -0.0125,-0.0132 -8e-4,-9e-4 -0.0185,-0.023 -0.0167,-0.0313 -0.0175,-0.0332 -0.0121,-0.0315 -0.009,-0.0313 0,-0.001 8e-4,-0.0208 0.0112,-0.0332 0.0291,-0.0807 0.0297,-0.0753 0.0411,-0.0944 0.0154,-0.0304 0.2063,-0.3542 0.1093,-0.1795 0.0536,-0.0525 0.0405,-0.0312 0.011,-0.0174 0.0156,-0.0246 0.0173,-0.0404 0.006,-0.0231 0.003,-0.0219 -10e-5,-0.0351 -0.005,-0.047 -0.01,-0.0528 -0.0125,-0.0575 -0.0386,-0.1357 -0.0405,-0.0936 -0.0154,-0.0629 -3e-4,-0.001 -0.002,-0.0175 -0.005,-0.0562 0,-0.001 0.002,-0.0405 0.006,-0.0622 0.0183,-0.0843 0.068,-0.263 -0.07,-0.005 -0.003,-0.004 -0.001,-0.01 9e-4,-0.0332 9e-4,-0.0149 0.003,-0.0296 0.003,-0.0149 0.0161,-0.0556 0.004,-0.008 0.007,-0.0146 0.007,-0.016 0.008,-0.0149 0.01,-0.0153 0.0113,-0.0143 0.0853,-0.1091 0.053,-0.063 0.0367,-0.0192 0.0167,-0.0101 0.009,-0.007 0.1124,-0.1937 0.007,-0.0148 0.004,-0.0129 0.002,-0.0175 0.008,-0.0741 4e-4,-0.0113 -1e-4,-0.008 -10e-4,-0.0249 -0.0101,-0.0665 -0.003,-0.0141 -0.008,-0.026 -0.004,-0.0121 -0.009,-0.0148 -0.0781,-0.1013 -0.0828,-0.0741 -0.008,-0.004 -0.007,-0.008 -0.001,-0.0141 6e-4,-0.0105 0.003,-0.009 0.0297,-0.0583 0.008,-0.0148 0.006,-0.01 0.007,-0.0111 0.008,-0.0105 0.006,-0.004 0.1396,-0.0465 0.1295,-0.0174 0.345,-0.2265 0.01,-0.0177 0.0785,-0.1041 0.0109,-0.0136 0.0231,-0.0171 0.0151,-0.007 0.1152,-0.0295 0.0172,-0.001 0.4304,-0.019 0.01,0.002 0.0158,0.009 0.0103,0.0152 0.006,0.0111 0.007,0.0185 0.0274,0.0704 0.008,0.0221 -6e-4,0.0254 -0.003,0.0158 -6e-4,0.0137 -10e-4,0.0413 10e-5,0.0654 0.002,0.0245 0.0579,0.2015 0.004,0.011 0.0665,-0.0573 0.0274,-0.0259 0.1239,-0.1838 0.0108,-0.0188 0.009,-0.02 -7e-4,-0.0723 -0.001,-0.026 -0.002,-0.0324 -0.003,-0.0238 -0.005,-0.0361 -0.006,-0.0273 0.0354,-0.1571 0.1559,-0.5635 0.008,-0.022 0.1244,-0.2963 0.1252,-0.084 0.0337,-0.027 0.1551,-0.4468 0.005,-0.0232 10e-4,-0.0233 -8e-4,-0.0223 -0.0306,-0.1981 -0.004,-0.0248 -0.009,-0.0305 -0.007,-0.0197 -0.009,-0.0123 -0.0319,-0.0193 -0.0153,-0.0116 -0.0172,-0.0138 -0.0362,-0.0296 -0.07,-0.0592 -0.0124,-0.017 -0.0129,-0.026 -0.0257,-0.062 -0.0179,-0.0494 -0.1437,-0.4957 -0.042,-0.3235 -2e-4,-0.0291 -0.004,-0.025 -0.0118,-0.0736 -0.0464,-0.2586 -0.007,-0.0222 -0.142,-0.3894 -0.004,-0.006 -0.1228,-0.2004 -0.0363,-0.0554 -0.0565,-0.0759 -0.0302,-0.0402 -0.007,-0.007 -0.0223,-0.0196 -0.0767,0.2719 -0.0266,0.2416 -0.003,0.0231 -0.007,0.0219 -0.0115,0.022 -0.0103,0.0185 -0.0129,0.0147 -0.0175,0.0108 -0.0208,0.0109 -0.0229,0.0106 -0.0544,0.0213 -0.0345,0.0109 -0.0177,3e-4 -0.0137,-0.002 -0.0173,8e-4 -0.0217,0.006 -0.0453,0.026 -0.0261,0.0171 -0.0422,0.0324 -0.1414,0.2165 -0.1535,0.1884 -0.0139,0.009 -0.8187,0.3158 -0.0115,-0.001 -0.2749,-0.0741 -0.3063,0.0953 -0.2355,0.0844 -0.0127,0.007 -0.016,0.004 -0.0152,0.002 -0.0157,-1e-4 -0.012,-0.002 -0.1767,-0.0955 -0.0268,-0.0192 -0.009,-0.007 -0.3439,-0.5583 -0.0103,-0.0187 -0.008,-0.0191 -0.022,-0.0594 -0.0541,-0.1497 -0.0384,-0.1115 -0.376,-0.5256 -0.0433,-0.0528 -0.084,-0.1038 -0.0519,-0.0651 -0.0693,-0.0869 -0.1336,-0.2454 -0.0906,-0.1869 -0.0858,-0.2306 -0.0162,-0.0392 -0.0162,-0.005 -0.1011,-0.0304 -10e-4,-3e-4 -0.0217,-0.008 -0.0162,-0.008 -0.079,-0.0395 -0.4226,-0.2184 -0.4045,-0.1479 -0.0625,-0.0411 -0.0602,-0.0408 -0.1081,-0.0741 -0.0424,-0.0293 -0.1063,-0.0771 -0.01,-0.008 -0.007,-0.006 -0.01,-0.008 -0.01,-0.012 -0.006,-0.0103 -0.01,-0.0203 -0.008,-0.0137 -0.009,-0.0151 -0.0205,-0.0297 -0.0239,-0.0326 -0.0773,-0.1045 -0.0273,-0.0364 -0.1035,-0.1335 -0.1909,-0.2301 -0.0501,0.014 -0.007,0.003 -0.1336,0.0773 -0.1206,0.075 -0.01,0.008 -0.0538,0.0473 -0.007,0.0102 -0.01,0.0215 -0.0125,0.0319 -0.1776,0.2793 -0.407,0.2185 -0.4487,-0.008 -0.0244,-0.001 -0.0133,-10e-4 -0.0124,-0.002 -0.0179,-0.005 -0.0129,-0.004 -0.013,-0.0103 -0.023,-0.0265 -0.0473,-0.0593 -0.0256,-0.0327 -0.009,-0.0141 -0.1651,-0.0968 -0.2962,0.34 8e-4,0.0123 0.0118,0.0119 0.0102,0.01 0.0151,0.01 0.0922,0.0365 0.0408,0.0155 0.0274,0.007 0.0376,0.009 0.001,2e-4 0.007,0.004 0.01,0.007 0.011,0.009 0.0427,0.0439 0.028,0.0312 0.007,0.008 0.008,0.0115 0.003,0.006 -5e-4,0.0104 -0.002,0.0284 -0.002,0.0181 -0.007,0.0524 -0.0505,0.1798 -0.0707,0.0825 -0.0513,0.0475 -0.0118,0.006 -0.0285,0.0178 -0.008,0.01 -0.005,0.0103 -0.0215,0.0511 -0.007,0.023 -0.0537,0.1838 -0.0945,0.3749 -0.005,0.0112 -0.0327,0.0615 -0.0151,0.01 -0.0566,0.032 -0.3651,-0.0554 -0.0229,-0.1164 -0.019,-0.0467 -0.0573,-0.1788 -3e-4,-0.0305 0.002,-0.0135 0.004,-0.0183 0.0364,-0.1465 0.0328,-0.1264 3e-4,-0.0202 -0.002,-0.0128 -0.005,-0.0383 -0.0468,-0.1398 -0.004,-0.01 -0.008,-0.01 -0.008,-0.009 -0.0555,-0.0567 -0.1097,-0.4113 0.0211,-0.1151 0.0479,-0.2175 0.0848,-0.2797 0.0816,-0.2595 0.004,-0.0154 0.004,-0.0155 0.003,-0.0118 0.0229,-0.1265 0.0119,-0.0709 10e-4,-0.009 -6e-4,-0.009 -0.002,-0.01 -0.0112,-0.0165 -0.006,-0.005 -0.005,-0.004 -0.007,-0.004 -0.0461,-0.026 -0.0339,-0.0181 -0.0138,-0.005 -0.0166,-0.005 -0.0299,-0.006 -0.0789,-0.015 -0.2466,-0.0136 -0.1154,-0.004 -0.0597,-0.009 -0.2518,-0.0417 -0.0443,-0.5161 -0.0426,0.001 -0.022,-2e-4 -0.0152,-9e-4 -0.0464,-0.003 -0.0649,-0.0147 -0.0249,-0.008 -0.0223,-0.009 -0.2089,-0.1433 -0.0157,-0.0131 -0.0482,-0.079 -0.0195,-0.0354 -0.009,-0.02 -0.0198,-0.0488 -0.005,-0.0157 -0.01,-0.0231 -0.0169,-0.0294 -0.0379,-0.0593 -0.022,-0.0222 -0.0123,-0.0118 -0.0148,-0.0114 -0.0253,-0.0183 -0.0259,-0.0131 -0.0138,-0.006 -0.194,-0.0377 -0.0315,-0.004 -0.0166,-0.002 -0.0128,0.001 -0.2462,-0.0897 -0.284,-0.1639 -0.2057,-0.1257 -0.0262,-0.0301 0.0229,-0.1249 0.0353,-0.1703 0.0185,-0.0674 0.007,-0.0201 0.008,-0.0192 0.0194,-0.0342 0.007,-0.0128 0.0303,-0.0456 0.007,-0.0102 0.0174,-0.017 0.0125,-0.0119 0.0385,-0.0326 0.0276,-0.0187 0.0486,-0.042 0.038,-0.0336 0.0771,-0.2485 0.002,-0.0199 -0.003,-0.0117 -0.007,-0.0179 -0.008,-0.0155 -0.0123,-0.0177 -0.0491,-0.0514 -0.0552,-0.0573 -0.3351,-0.4997 -0.0129,-0.0194 -0.1552,-0.2918 -0.0114,-0.0223 -0.007,-0.0138 -0.012,-0.0292 -0.007,-0.0189 -0.006,-0.0184 -0.002,-0.0128 -6e-4,-0.023 8e-4,-0.0166 0.003,-0.0174 0.004,-0.0151 0.005,-0.0158 0.007,-0.0208 0.1215,-0.2488 0.0622,-0.109 0.0147,-0.0246 0.1107,-0.1826 0.191,-0.1072 0.1127,-0.3664 -0.0709,-0.1179 -0.0249,-0.034 -0.1825,-0.2248 -0.012,-0.0135 -0.0193,-0.018 -0.005,0.0512 -0.1142,-0.0818 -0.007,-0.007 -0.006,-0.01 -0.0187,-0.0333 -0.031,-0.0632 -0.003,-0.0145 -0.005,-0.0244 -0.004,-0.0218 -0.0405,-0.2682 -0.0172,-0.1372 -0.004,-0.0345 0.005,-0.028 0.0469,-0.1384 0.0121,-0.0444 0.01,-0.0515 0.0315,-0.1747 0.0633,-0.3875 0.0452,-0.546 0.0355,-0.1809 -0.1209,0.0505 -0.0116,-0.001 -0.0134,-0.003 -0.008,-0.003 -0.0197,-0.009 -0.0144,-0.011 -0.1852,-0.2249 -0.0281,-0.0465 -0.005,-0.009 -0.008,-0.0191 -0.002,-0.013 -0.035,-0.3447 -9e-4,-0.0172 1e-4,-0.0133 0.003,-0.0122 0.005,-0.0163 0.008,-0.102 -0.0349,-0.2789 -0.003,-0.0177 -0.003,-0.014 -0.006,-0.0269 -0.0115,-0.0308 -0.015,-0.035 -0.008,-0.0137 -0.008,-0.0131 -0.0137,-0.0181 -0.0169,-0.0125 -0.0148,-0.009 -0.0159,-0.009 -0.0367,-0.0208 -0.0168,-0.008 -0.0339,-0.0151 -0.0478,-0.0197 -0.0142,-0.005 -0.0647,-0.0166 -0.0429,-0.01 -0.0246,-0.004 -0.439,-0.0492 -0.0172,0.0105 -0.0772,0.0436 -0.1258,0.0538 -0.0226,0.008 -0.0239,0.006 -0.2063,0.0196 -0.0104,-4e-4 -0.0108,-0.001 -0.0117,-0.003 -0.0113,-0.005 -0.006,-0.003 -0.0244,-0.0296 -0.0207,-0.0281 -0.0114,-0.0223 -0.0184,-0.0392 -0.009,-0.0188 -0.007,-0.0195 -0.004,-0.0124 -0.006,-0.0326 -0.004,-0.025 -10e-4,-0.022 4e-4,-0.0158 -0.007,-0.0762 -0.0337,-0.1294 -0.008,-0.0222 -0.007,-0.0134 -0.0357,-0.065 -0.008,-0.0147 -0.0585,-0.0793 -0.0124,-0.0162 -0.0569,-0.0635 -0.047,-0.055 -0.009,-0.0111 -0.0155,-0.033 -0.005,-0.0166 -0.0397,-0.166 -0.002,-0.0116 0.007,-0.0269 0.0105,-0.0104 0.0379,-0.0256 0.0188,-0.01 0.0172,-0.008 0.0469,-0.016 0.1258,-0.0404 0.103,-0.0416 0.1112,-0.0461 0.1227,-0.0611 0.0364,-0.0184 0.0749,-0.0422 0.0121,-0.01 0.0131,-0.0105 0.0125,-0.0107 0.0101,-0.0103 0.0133,-0.0137 0.01,-0.0115 0.009,-0.0125 0.0164,-0.0225 0.2987,-0.4697 0.004,-0.0101 0.0499,-0.3461 0.1051,-0.6011 0.0113,-0.013 0.0149,-0.0199 0.007,-0.0179 0.002,-0.303 -0.0962,-0.4863 -0.0684,-0.1758 -0.0217,-0.0436 -0.003,-0.004 -0.01,-0.009 -0.3809,0.0599 -0.0158,-0.001 -0.0823,-0.0515 -0.0832,-0.0533 -0.085,-0.0612 -0.2214,-0.1753 0.0412,-0.0587 0.0218,-0.0402 6e-4,-0.008 -8e-4,-0.0121 -0.002,-0.0108 -0.0409,-0.2123 -0.0839,-0.1704 -0.01,-0.0176 -5e-4,-8e-4 -0.01,-0.0162 -0.0207,-0.0298 -0.008,-0.0107 -0.0103,-0.0131 -0.018,-0.0202 -0.0453,-0.0501 -0.01,-0.01 -0.033,-0.0354 -0.0262,-0.0328 -0.0237,-0.0326 -0.007,-0.0128 -4e-4,-8e-4 -0.0862,-0.6133 0.002,-0.0142 0.0235,-0.1322 0.005,-0.0296 0.005,-0.0191 0.002,-0.007 0.0518,-0.0986 0.0107,-0.0195 -0.0107,-0.2001 -0.1183,-0.2683 -0.5723,-0.1961 -0.0159,-0.003 -0.0103,0.002 -0.0333,0.0122 -0.3604,-0.3424 -0.1374,-0.1312 -0.0411,-0.0418 -0.0271,-0.0332 -0.009,-0.0144 -0.002,-0.016 0.003,-0.0206 0.008,-0.0197 0.0821,-0.113 0.0174,-0.0186 0.0121,-0.0126 0.0347,-0.0251 0.0474,-0.0294 0.0259,-0.01 0.0255,-0.007 0.0305,-0.0132 0.0249,-0.0148 0.0302,-0.0215 0.0182,-0.0173 0.005,-0.0172 0.0421,-0.1624 0.006,-0.0441 0.0326,-0.2569 0.004,-0.0513 0.006,-0.0925 2e-4,-0.008 -4e-4,-0.0295 -10e-4,-0.0408 -0.006,-0.0499 -0.115,-0.7582 -0.1587,-0.4288 -0.004,-0.009 -0.0222,-0.0395 -0.006,-0.01 -4e-4,-7e-4 -0.005,-0.008 -0.0246,-0.0327 -0.0185,-0.0231 -0.0112,-0.0118 -0.0102,-0.0103 -0.0495,-0.038 -0.2409,-0.1356 0.0179,-0.1161 4e-4,-0.0173 -0.002,-0.0209 -0.003,-0.0173 -0.003,-0.0135 -0.3406,-0.3614 -0.0565,-0.1964 -0.0319,-0.0997 -0.0718,-0.0704 -0.006,-0.005 -0.0832,-0.0571 -0.0156,-0.009 -0.0757,-0.0293 -0.0282,-0.0103 -0.0809,-0.0157 -0.0242,-0.0544 0.0296,-0.0878 0.004,-0.0117 6e-4,-0.009 -8e-4,-0.0129 -0.0424,-0.1783 -0.003,-0.0126 -0.003,-0.008 -0.005,-0.008 -0.0234,-0.0369 -0.0291,-0.0397 -0.006,-0.007 -0.0128,-0.0119 -0.2121,-0.2625 -0.079,-0.3538 -0.0151,-0.0758 0.2532,-0.224 0.0247,0.002 0.0142,8e-4 0.0149,-7e-4 0.017,-0.003 0.0356,-0.01 0.1337,-0.0422 0.0136,-0.006 0.0464,-0.0218 0.3663,-0.205 0.0118,-0.007 0.004,-0.004 0.006,-0.01 0.002,-0.007 0.1719,-0.5343 -0.062,-0.1038 -0.1111,-0.1615 -0.115,-0.1233 -0.0643,-0.0194 -0.0269,-0.009 -0.0132,-0.008 -0.0279,-0.0307 -0.0328,-0.0424 -0.008,-0.0107 -0.01,-0.0139 -0.0118,-0.0486 -0.002,-0.014 -0.0245,-0.2509 0.0514,-0.5543 0.005,-0.01 0.0637,-0.0473 0.0278,-0.0189 0.0896,-0.0597 0.0523,-0.0239 0.0287,-0.0185 0.0747,-0.0517 -0.1138,-0.217 -0.0629,-0.0887 -0.1264,-0.1128 -0.0439,0.0143 -0.2599,0.035 -0.0263,-2e-4 -0.0176,-0.004 -0.0542,-0.0126 -0.0149,-0.01 -0.008,-0.008 -0.0341,-0.0434 -0.0566,-0.0693 -0.0619,-0.0257 -0.239,-0.0657 -0.2909,-0.0121 -0.0238,0.0159 -0.0122,0.008 -0.01,0.007 -0.0159,0.0145 -0.0193,0.0252 -0.005,0.0126 -0.004,0.017 10e-4,0.0114 -0.0375,0.074 -0.2043,0.2804 -0.0305,0.0257 -0.0127,0.0101 -0.008,0.005 -0.0103,0.004 -0.0152,-2e-4 -0.2454,0.3069 -0.006,0.0362 -0.0227,0.1269 -0.004,0.0216 -0.1648,0.7555 -0.008,0.0128 -0.009,0.007 -0.119,-0.0268 -0.2275,-0.0592 -0.3006,-0.0791 -0.247,-0.1291 -0.0143,-0.021 -0.0151,-0.0152 -0.0521,-0.0478 -0.0187,-0.0141 -0.0409,-0.0288 -0.0186,-0.008 -0.4061,-0.0973 -0.0805,-0.0179 -0.6568,0.1397 -0.0173,0.006 -0.1981,0.0931 -0.0135,0.009 -0.009,0.008 -0.0104,0.0135 -0.3567,0.439 -0.2144,0.1996 0.1013,-0.1638 0.0134,-0.0291 0.002,-0.0161 5e-4,-0.0518 -10e-4,-0.0277 -0.005,-0.0291 -0.005,-0.0172 -0.009,-0.0151 -0.0793,-0.105 -0.0117,-0.0138 -0.1098,-0.1201 -0.2585,-0.248 -0.1252,-0.1173 -0.006,-0.006 -0.0477,-0.0347 -0.0162,-0.0111 -0.1924,-0.1244 -0.1575,-0.0838 -0.0193,-0.005 -0.0208,4e-4 -0.0179,0.002 -0.02,0.001 -0.0575,-0.001 -0.02,-0.001 -0.0227,-0.007 -0.0845,-0.0524 -0.1753,-0.1477 -0.0629,-0.0547 -0.338,-0.3428 -0.1131,-0.1159 -0.3215,-0.3909 -0.1121,-0.1599 -0.0761,-0.1181 -0.2115,-0.2229 -0.324,-0.3697 -0.3062,-0.3686 -0.008,-0.0122 -0.0502,-0.1008 -0.006,-0.0131 -0.004,-0.0129 -0.002,-0.0891 4e-4,-0.0117 10e-4,-0.0167 -0.002,-0.0111 -0.004,-0.0156 -0.0265,-0.0638 -0.0101,-0.0172 -0.1269,-0.205 -0.0134,-0.0136 -0.1976,-0.1974 -0.1717,-0.1566 -0.0544,-0.0472 -0.0179,-0.0116 -0.095,-0.0564 -0.0251,-0.0736 -0.009,-0.009 -0.5317,-0.2589 -0.0216,-0.009 -0.0227,-0.005 -0.0459,5e-4 -0.0282,0.004 -0.0869,0.0764 -0.0138,0.0162 -0.1398,0.1966 -0.1805,0.1378 -0.2979,0.0657 -0.0617,-0.0378 -0.1031,-0.1466 -0.011,-0.0174 -0.008,-0.0137 -0.0567,-0.104 -0.02,-0.0886 -0.007,-0.0125 -0.009,-0.0151 -0.0199,-0.0242 -0.0939,-0.1073 -0.0331,-0.0359 -0.2813,-0.2633 -0.259,-0.0152 -0.3266,-0.006 -0.01,0.004 -0.0107,0.006 -0.0188,0.011 -0.0438,0.0271 -0.0189,0.013 -0.0165,0.0156 -0.0107,0.0117 -0.2221,0.2616 -0.1426,0.1752 -0.0337,0.0611 -0.0788,0.1485 -0.1328,0.2983 0.0183,0.0721 0.0211,0.0823 -0.0297,0.0106 -0.1518,0.031 -0.0254,-0.002 -0.0437,-0.003 -0.0626,-0.01 -0.0281,-0.006 -0.0244,-0.006 -0.0226,-0.008 -0.0202,-0.007 -0.0393,-0.0424 -0.0293,-0.0332 -0.0334,-0.039 -0.007,-0.0193 -0.0495,-0.1604 -2e-4,-0.0165 0.0597,-0.131 0.009,-0.0189 0.0123,-0.0122 0.0354,-0.009 0.0166,-0.0108 0.004,-0.0139 -0.004,-0.0121 -0.0637,-0.0635 -0.0184,-0.0162 -0.6131,-0.4916 -0.3592,0.2659 -0.0152,0.012 -0.013,0.0125 -0.0411,0.05 -0.004,0.0154 -10e-4,0.005 -0.003,0.0138 6e-4,0.014 4e-4,0.005 10e-5,0.002 -0.006,0.0147 -0.009,0.0119 -0.0772,0.1037 -0.0147,0.0138 -0.0188,0.01 -0.1345,0.0334 -0.0113,7e-4 -0.2661,-0.065 -0.1594,-0.0477 -0.009,-0.005 -0.0377,-0.0362 -0.0107,-0.0123 -0.1626,-0.1962 -0.4636,-0.6251 -0.004,-0.0126 -10e-4,-0.0366 0.005,-0.014 0.0554,-0.1639 0.005,-0.0151 0.009,-0.0195 0.0112,-0.0207 0.1349,-0.153 0.0165,-0.0156 0.0153,-0.006 0.4508,-0.0297 0.0147,-7e-4 0.0144,0.003 0.055,0.0142 0.0205,0.008 0.0157,0.006 0.0231,0.005 0.1005,0.0221 0.0212,0.003 0.0221,0.002 0.0231,-0.002 0.0188,-0.002 0.022,-0.009 0.0218,-0.0206 0.009,-0.0138 0.33,-0.5079 0.2216,-0.4143 0.0682,-0.0531 0.0532,-0.0343 0.0553,-0.0326 0.117,-0.1003 0.009,-0.013 0.008,-0.014 0.0993,-0.2052 z"
       id="path6"
       style="stroke-width:0.0375;stroke-miterlimit:4;stroke-dasharray:none" />
  </g>
  <g
     transform="matrix(80,0,0,80,-22159.748,-15659.252)"
     id="Terni"
     style="fill:#e45c36;fill-opacity:1;stroke:#ffffff;stroke-width:0.0375;stroke-linejoin:round;stroke-miterlimit:4;stroke-opacity:1;stroke-dasharray:none">
    <path
       d="m 279.2637,227.2626 -0.0164,-0.0716 -0.01,-0.0218 -0.006,-0.004 -0.0507,0.0325 -0.1355,0.1179 -0.0104,0.01 0.01,0.5482 0.153,0.3051 0.0744,0.1132 0.007,0.4448 -0.005,0.0128 -0.006,0.0135 -0.0355,0.0516 0.0316,0.2539 0.0667,-0.0833 0.116,-0.1936 0.1226,-0.2057 0.0667,-0.1072 0.0302,-0.0485 0.0384,-0.0346 0.0114,-0.007 0.0181,-0.0108 0.0275,-0.006 0.0453,0.003 0.1873,-0.0294 0.0981,-0.0289 0.0752,-0.0676 0.1234,-0.1707 0.2135,-0.3484 0.0866,-0.2021 -0.0555,-0.0286 -0.2406,-0.0511 -0.0312,-0.006 -0.3314,-0.0519 -0.0265,-1e-4 -0.018,0.007 -0.006,0.003 -0.1632,0.0332 -0.168,0.01 -0.2868,-0.1802 z"
       id="path9"
       style="stroke-width:0.0375;stroke-miterlimit:4;stroke-dasharray:none" />
    <path
       d="m 285.0906,226.121 -0.1801,-0.103 -0.156,0.0492 -0.0971,0.0207 -0.0299,0.006 -0.005,0.001 -0.1526,0.0227 -0.1749,-0.0305 -0.1305,-0.0241 -0.3797,-0.004 -0.0496,6e-4 -0.0575,0.002 -0.1207,0.0203 -0.2066,0.0324 -0.0408,0.009 -0.2688,0.1254 -0.1386,0.0704 -0.1452,0.0713 -0.0195,0.002 -0.2741,-0.2079 -0.0578,-0.057 -0.0308,-0.0365 -0.0342,0.2956 -0.0264,0.01 -0.1327,0.0117 -0.0579,0.001 -0.0384,0.01 -0.1494,0.05 -0.0307,0.0151 -0.1611,0.1665 -0.037,0.0388 -0.1158,0.1481 -0.1085,0.2324 -0.0434,0.1232 -0.2553,0.32 -0.1871,-0.0619 -0.0289,-0.0123 -0.1831,-0.0298 -0.0444,-0.006 -0.0491,0.002 -0.0402,0.0673 0.0133,0.0644 0.1546,0.0532 0.226,0.0778 0.009,0.303 -0.0614,0.2893 0.3135,0.2782 0.3699,0.2165 -0.2385,0.0499 -0.1797,0.0131 -0.043,-9e-4 -0.0501,-0.004 -0.0246,-0.004 -0.1382,0.008 -0.0475,0.0106 -0.1104,0.0741 -0.2152,0.1476 -0.2749,0.1241 -0.3367,0.1317 -0.5803,0.1466 -0.5707,0.1102 -0.0387,0.0205 -0.036,0.0157 -0.0574,0.01 -0.1449,10e-4 -0.0561,-0.0213 -0.0443,-0.0434 -0.0375,-0.0582 -0.0213,-0.0641 -0.0153,-0.0567 -0.003,-0.0738 -0.0584,-0.0201 -0.0356,0.004 -0.0505,0.0193 -0.101,0.0939 -0.022,0.0431 -0.0457,0.1243 -0.0272,0.0793 -0.0151,0.0514 -0.0101,0.0281 -0.0571,0.1212 -0.224,0.2667 -0.0307,0.0318 -0.0483,0.0405 -0.0123,0.005 -0.0305,0.0127 -0.0324,0.005 -0.1611,0.0527 -0.387,0.1821 -0.0107,0.009 -0.0263,0.0265 -0.0102,0.0104 0.0351,0.1413 0.0684,0.2267 0.2315,0.1392 0.1045,0.1648 0.0502,0.2086 0.0508,0.2867 0.008,0.0277 0.008,0.0207 0.0552,0.0965 0.0181,0.0258 0.0811,0.1118 0.0408,0.0478 0.0547,0.0517 0.0193,0.015 0.0144,0.0146 0.0798,0.2923 0.01,0.0912 0.001,0.0466 0.002,0.0354 0.0267,0.1236 0.145,0.4449 0.0932,0.1651 0.0369,0.041 0.0448,0.0401 0.0492,0.0299 0.3667,0.1114 0.0544,-0.0135 0.231,0.0606 0.2629,0.0815 0.0392,0.0238 0.0213,0.0253 0.012,0.0339 0.0169,0.0333 0.0469,0.0698 0.0455,0.0412 0.0526,0.0393 0.0353,0.0158 0.3564,0.0825 0.0835,0.0162 0.0382,0.2504 0.0416,0.17 0.003,0.0162 0.001,0.0378 -0.004,0.0189 -0.0132,0.033 -0.0746,0.0447 -0.0874,0.0472 -0.0729,0.0387 -0.0134,0.0249 -0.0545,0.2444 -0.0859,0.2332 -0.0413,0.1858 -0.3148,0.2286 -0.3455,0.0931 -0.0592,0.0536 -0.0607,0.0726 -0.0614,0.2165 -0.007,0.0246 -0.004,0.009 -0.1349,0.0472 -0.2009,0.1022 -0.0777,0.0591 -0.0202,0.0336 -0.0158,0.0299 0.002,0.0146 0.0119,0.0107 0.0188,0.0184 -0.009,0.0236 -0.1413,0.2783 -0.0115,0.0223 -0.006,0.0195 0.003,0.0199 0.002,0.002 0.009,0.0104 0.2022,0.1401 0.1132,0.0478 0.0627,0.006 0.0241,0.003 0.0153,0.002 0.0732,0.0267 0.0658,0.0261 0.0353,0.0141 0.1575,0.0744 -0.002,0.021 -0.0315,0.0907 -0.0153,0.0239 -0.006,0.009 -0.0511,0.0598 -0.1415,0.2812 -0.0129,0.0491 -6e-4,0.0182 3e-4,6e-4 0.005,0.009 0.005,0.007 0.0878,0.0307 0.2085,0.0703 0.6204,0.159 0.1363,0.0307 0.1827,0.0578 0.3622,0.2159 0.231,0.1377 0.0165,0.0117 0.2136,0.1332 0.1581,0.0876 0.2281,0.1806 0.3664,0.3109 0.0556,0.0347 0.0961,0.012 0.0196,0.001 0.005,0.006 2e-4,0.0257 0.002,0.2906 0.009,-10e-4 0.011,-0.005 0.008,-0.004 0.022,-0.012 0.0264,-0.0148 0.006,-0.005 0.0853,-0.0791 0.063,-0.0701 0.0566,-0.044 0.0255,-0.016 0.0149,-0.006 0.0215,-0.002 0.0198,-0.002 0.2414,-0.0173 0.5798,-0.1235 0.031,-0.01 0.1162,-0.077 0.1365,-0.1136 0.1722,0.0475 0.0171,0.004 0.4383,0.001 0.0736,0 0.0717,-0.0816 0.008,-0.0146 0.0103,-0.0225 0.0245,-0.0483 0.1194,-0.1303 0.0426,-0.0354 0.133,-0.0776 0.005,0.0179 0.0203,0.0712 0.0236,0.0828 0.01,0.0191 0.052,0.0752 0.2443,0.3465 0.022,0.0189 0.0571,0.0326 0.1524,0.0241 0.009,-0.005 0.0147,-0.009 0.0194,-0.0116 0.007,-0.0133 0.005,-0.0131 0.002,-0.0223 -0.005,-0.0153 -0.002,-0.0225 0.0204,-0.1353 0.0294,-0.0607 0.0653,-0.1133 0.0462,-0.0788 0.0663,-0.0551 0.209,0.1725 0.0758,0.0679 0.2111,-0.1358 0.028,-0.0312 0.0284,-0.0438 0.005,-0.0117 0.0231,-0.0541 -0.002,-0.043 -0.006,-0.0402 -0.01,-0.0466 0.1839,-0.2669 0.2203,-0.2503 0.0321,-0.004 0.0218,-2e-4 0.0806,0.01 0.2798,0.1337 0.0986,0.0512 0.1552,0.128 0.5678,0.2742 0.225,0.1446 0.1551,0.1913 0.4429,0.4295 0.1636,0.1405 0.037,0.2408 -0.003,0.0225 -0.0373,0.0494 -0.0391,0.0428 0.0118,0.002 0.0306,0.008 0.1155,0.0421 0.285,0.1225 0.1392,0.1155 0.0143,0.0437 -0.1248,0.2246 -0.0214,0.008 -0.01,0.004 -0.0469,0.0233 -0.0224,0.0157 -0.022,0.0254 -0.1849,0.341 -0.009,0.0187 -0.0377,0.1021 0.002,0.031 0.0714,0.0599 0.0135,0.009 0.0539,0.0319 0.119,0.037 0.0632,0.0158 0.0117,7e-4 0.2323,0.3144 0.0542,0.1459 -0.1361,-0.0558 -0.0182,-0.003 -0.0247,0.01 -0.0488,0.0199 -0.008,0.0153 -0.0216,0.0876 -0.003,0.0118 0.0865,0.088 -0.0563,0.168 -0.0129,0.0345 -0.01,0.0188 -0.1421,0.2047 0.0699,0.1746 0.0246,0.2896 -0.001,0.0205 0.001,0.0144 0.002,0.008 0.006,0.0128 0.0228,0.034 0.0885,0.0661 0.6613,0.4258 0.1547,0.025 0.1175,-0.0313 0.0451,-0.008 0.0453,-0.003 0.0834,0.021 0.003,0.007 0.0243,0.0603 0.002,0.008 0.072,0.2274 0.0253,0.1025 0.009,0.061 -0.002,0.0316 -0.0381,0.1128 0.0231,0.2128 -0.1818,0.0651 0.009,0.081 0.009,0.0782 -0.239,0.001 -0.0139,0.0128 -7e-4,0.007 0.002,0.0177 0.004,0.0363 0.005,0.0284 0.008,0.035 0.0139,0.0381 0.0621,0.141 0.0515,0.0964 0.1319,0.1544 0.0235,0.009 0.05,0.0118 0.0439,0.002 0.3057,0.0563 0.0198,0.006 0.007,0.002 0.0192,0.0219 0.004,0.006 0.0603,0.1007 -0.1037,0.0362 -0.0693,0.0176 -0.0551,0.0138 -0.2697,0.0691 -0.0367,0.1683 0.003,0.0871 0.003,0.0211 0.002,0.0142 0.005,0.0137 0.008,0.0114 0.1013,0.0899 0.004,0.003 0.0206,0.015 0.0134,10e-4 0.003,4e-4 0.1227,-0.0501 0.0648,-0.0409 0.0257,-0.0244 0.0894,-0.0509 6e-4,-2e-4 0.0527,-0.0171 0.0191,-5e-4 0.0185,0.017 0.2382,0.2556 0.0861,0.0414 0.099,0.1824 0.0381,0.0298 0.0287,0.009 0.0406,0.0105 0.006,0.002 0.0104,0.015 0.007,0.0342 -0.1474,0.268 -0.1418,-0.1578 -0.0389,-0.002 -0.1812,0.005 -0.0925,0.003 -0.009,0.009 0.0108,0.071 0.001,0.009 0.0274,0.0489 0.0364,0.0405 0.0543,0.0451 0.025,0.0193 0.0678,0.04 0.0594,0.0226 0.0658,0.0167 0.0102,0.001 0.1845,-0.0182 0.2504,0.003 0.0468,-0.001 0.0331,-0.005 0.0237,-0.008 0.0205,-0.009 0.1374,-0.1306 0.062,-0.0815 0.0216,-0.0365 0.0134,-0.0272 0.0173,-0.0116 0.009,-0.003 0.01,-0.001 0.0152,-4e-4 0.015,0.005 0.0165,0.007 0.1227,0.0729 0.0395,0.0262 0.1521,0.1015 0.1013,0.0871 0.2244,0.145 0.0186,0.0249 0.003,0.009 10e-4,0.004 0.0109,0.0354 0.002,0.0437 0.013,0.0734 0.015,0.0448 0.0161,0.0474 0.0275,0.0574 0.032,0.0555 0.0759,0.1104 0.006,-0.002 0.0412,-0.0132 0.271,-0.0946 0.0363,-0.015 0.419,-0.2102 0.0252,-0.0245 9e-4,-0.0542 -0.004,-0.0458 -10e-4,-0.0158 -6e-4,-0.0103 0.009,-0.0455 0.003,-0.01 0.0207,-0.0246 0.0626,-0.0373 0.2183,-0.0881 0.0766,-0.2642 0.1292,-0.1447 0.0566,-0.0254 0.0863,-0.0241 0.0173,-7e-4 0.3357,0.0657 0.0134,0.004 0.1626,0.0625 0.381,0.1716 0.217,0.2504 -0.0142,0.0249 -0.0358,0.043 -0.0624,0.0685 -0.0422,0.0286 -0.0536,0.035 -0.0163,0.006 -0.0554,0.0196 -0.0446,0.0176 -0.1804,0.1225 -0.009,0.0254 -7e-4,0.0168 -0.006,0.4179 6e-4,0.0121 0.002,0.0306 0.0137,0.0171 0.0121,0.005 0.0138,0.004 0.0203,0.003 0.0302,0.004 0.0174,-0.002 0.0347,0.004 0.1984,0.0238 0.033,0.006 0.134,0.034 0.002,4e-4 0.0914,0.3002 0.002,0.015 0.002,0.013 -0.0348,0.0289 -0.0339,0.0154 -0.038,0.006 -0.0284,0.003 -0.0242,7e-4 -0.0373,-0.001 -0.0573,-0.0134 -0.0247,-0.008 -0.0284,-0.009 -0.0499,-0.0222 -0.0411,-0.019 -0.0229,-1e-4 -0.0165,0.0125 -0.0687,0.0635 -0.035,0.0422 -0.0222,0.0292 -0.0258,0.0813 -0.004,0.0202 -0.0475,0.3092 -4e-4,0.0114 0.001,0.0292 0.0161,0.0545 0.0277,0.0457 0.002,0.004 0.026,0.016 0.0229,0.002 0.0394,0.008 0.038,0.0249 0.0352,0.0305 0.0515,0.0955 0.005,0.0293 0.002,0.0121 0.006,0.0529 4e-4,0.0116 -0.004,0.0444 -0.009,0.0529 -0.048,0.1205 -0.007,0.01 -0.0548,0.0743 -0.0304,0.0301 -0.0424,0.0374 -0.005,0.0109 -0.0178,0.0488 0.0221,0.0584 0.1142,0.1426 0.0662,0.0258 0.0565,0.0115 0.0538,-9e-4 0.0563,-0.0149 0.2457,-0.0895 0.1051,-0.0481 0.009,-0.004 0.0488,-0.0223 0.0731,-0.0318 0.026,-0.005 0.0153,-6e-4 0.0642,0.004 0.0146,0.003 0.0931,0.0272 0.0586,0.0306 0.087,0.0567 0.1456,-0.1035 0.0377,-0.0411 0.0356,-0.0307 0.0204,-0.0151 0.1085,-0.0455 0.0223,-0.009 0.044,-0.009 0.0146,-0.002 0.019,10e-4 0.014,0.003 0.0189,0.005 0.0163,0.007 0.0234,0.0296 0.0986,0.209 0.0131,0.0817 -0.01,0.0692 -0.0204,0.0418 -0.019,0.0233 -0.1808,0.1473 -0.0718,0.3885 -0.004,0.091 -0.001,0.0182 -0.002,0.0126 -0.007,0.0167 -0.011,0.0157 -0.0575,0.0498 -0.0564,0.0306 -0.0283,0.0126 -0.0359,0.0137 -0.0184,0.005 -0.1714,0.0261 -0.0785,0.0749 0.0237,0.0183 0.0234,0.0171 0.0467,0.0228 0.1334,0.0585 0.0655,0.0124 0.1044,-0.0487 0.1059,-0.0352 0.1239,9e-4 0.1001,0.1298 0.002,-0.0167 0.003,-0.0174 0.007,-0.0118 0.0799,-0.1223 0.0454,-0.0543 0.0279,-0.0257 0.0811,-0.0694 0.025,-0.0149 0.0415,-0.0206 0.0947,-0.0395 0.0659,-0.0182 0.0351,-0.005 0.1743,0.2125 0.0513,0.0338 0.031,0.0297 0.0128,0.006 0.0753,0.02 0.1058,-0.0345 0.0991,-0.0844 0.1434,-0.0993 0.1507,-0.0276 0.0482,-0.006 0.131,-0.004 0.051,0.0411 0.1485,0.1751 0.006,0.009 0.003,0.004 0.005,0.0138 0.002,0.005 0.005,0.0139 -0.0457,0.0858 -0.012,0.004 -0.0246,0.002 -0.0327,0.006 -0.0122,0.004 -0.0366,0.0209 -0.004,0.0125 -0.002,0.0224 0.008,0.3386 0.0392,0.4072 0.0858,0.3008 0.0217,0.0638 0.0329,0.0619 0.1077,0.0621 0.1306,0.0557 0.031,0.0118 0.0441,0.008 0.0231,0.004 0.0559,-0.008 0.0267,-0.0153 0.0337,-0.0878 0.0306,-0.1126 0.0291,-0.0444 0.1186,-0.1689 0.0178,-0.0227 0.2781,-0.267 0.0908,-0.0746 0.4884,-0.0823 0.1228,0.0367 0.2683,-0.1887 0.0702,-0.0565 0.6965,-0.5367 0.0382,-0.0244 0.0271,-0.0126 0.0432,-0.005 0.1717,-0.0812 -0.0246,-0.1617 0.002,-0.0172 0.1748,-0.1789 0.0933,-0.076 0.0205,-0.0119 0.014,-0.003 0.0127,-0.0234 0.005,-0.0192 0.002,-0.1293 -0.0104,-0.1934 -0.003,-0.0327 -0.0111,-0.0908 -0.006,-0.0298 -0.0144,-0.0278 -0.014,-0.0247 -0.0751,-0.0762 0.0136,-0.1541 0.0197,-0.2165 0.1464,-0.4297 0.093,-0.2152 0.0116,-0.0262 0.004,-0.0309 -0.009,-0.2472 -0.009,-0.1657 -0.0129,-0.0164 -0.0762,-0.0454 -0.0671,-0.0618 -0.0101,-0.0101 0.003,-0.0187 0.0222,-0.0265 0.2078,-0.1503 0.0137,-0.009 0.0162,-0.006 0.0191,-0.007 0.086,-0.008 0.2104,2e-4 0.1545,0.006 0.1094,0.0252 0.0688,0.0273 0.004,0.0102 0.0503,0.1369 -0.01,0.0425 -0.0583,0.1158 -0.0365,0.057 -0.008,0.014 -5e-4,0.0125 0.0372,0.1183 0.025,0.0663 0.0189,0.0451 0.0815,0.0588 0.0462,0.0352 0.0331,0.0363 0.1258,0.1698 0.004,0.008 7e-4,0.0174 -0.0315,0.1429 0.002,0.0104 0.0115,0.01 0.2014,0.06 0.1616,0.0179 0.1111,0.0132 0.0698,0.004 0.0902,-0.0169 0.1696,-0.0338 0.0328,-0.0141 0.1622,-0.094 0.3773,-0.2188 0.1394,-0.1363 0.1526,-0.1606 0.0345,-0.0441 0.0829,-0.1747 0.2618,-0.1166 0.0675,0.0757 0.0594,0.0654 0.0221,0.0159 0.3278,-0.0186 0.0627,-0.1145 0.2281,-0.2229 0.0501,7e-4 0.0768,-0.0276 0.0743,-0.0287 0.0772,-0.0608 -0.006,-0.0149 -0.0125,-0.0191 -0.0658,-0.0819 -0.01,-0.0119 -0.1832,-0.194 -0.007,-0.008 -0.0577,-0.041 -0.1364,-0.0962 -0.0906,-0.0639 -0.0121,-0.009 -0.1325,-0.1311 -0.123,-0.2003 -0.0434,-0.0955 -0.0227,-0.0899 -0.0275,-0.1091 -0.0488,-0.0965 -0.0477,-0.0942 0.2353,-0.1043 0.0511,-0.0233 0.0401,-0.0255 0.1025,-0.086 0.117,-0.1257 0.009,-0.009 0.1079,0.01 0.3424,0.003 0.1497,-0.01 0.0134,0.0536 0.1911,-0.1576 0.215,-0.0443 0.2494,0.024 0.0422,-7e-4 0.1391,-0.02 0.0306,-0.005 0.0567,-0.0261 0.0123,-0.004 0.0191,-0.1379 -0.0159,-0.1637 -0.007,-0.0131 -0.0238,-0.0363 -0.01,-0.0139 0.018,-0.4343 0.008,-0.016 0.1062,-0.0184 0.1039,-0.0152 0.1426,-0.0291 0.0298,-0.0507 0.0657,0.0338 0.0325,-7e-4 0.3229,-0.0416 0.0367,-0.009 0.0726,-0.0196 0.0256,-0.012 0.0794,-0.0229 0.0571,-0.0132 0.0283,-0.003 0.0911,-0.006 0.143,0.0378 0.1743,0.0947 0.0784,-0.1342 0.0243,-0.0268 0.0234,-0.0163 0.4272,-0.2805 0.2889,-0.2152 0.0842,-0.1418 0.013,-0.0192 0.0267,-0.0319 0.0385,-0.0248 0.5316,-0.2445 0.274,-0.1283 0.1808,0.004 0.0304,-0.004 0.0545,-0.0349 0.0751,-0.037 0.0382,-0.0174 0.1943,-0.0334 0.0487,0.003 0.056,0.005 0.0308,0.007 0.0194,-0.1087 0.0172,-0.1809 0.009,-0.1136 0.003,-0.2289 -0.0251,-0.0819 -0.1236,-0.2092 -0.0953,-0.1608 -0.0328,-0.0751 -0.0273,-0.0737 -0.121,-0.3267 -0.0502,-0.1829 0.0161,-0.2383 -0.002,-0.0749 0.3068,-0.1868 0.2261,-0.1311 -0.1707,-0.0214 -0.0308,-0.0129 -0.09,-0.0793 -0.0313,-0.0347 -0.0824,-0.2318 0.004,-0.0533 0.0162,-0.057 0.0171,-0.0424 0.0359,-0.0412 0.0105,-0.007 0.0678,-0.0365 0.1292,-0.1729 -0.1051,-0.3039 -0.095,-0.061 -0.0642,-0.0432 -0.1285,-0.0946 -0.1601,-0.1314 -0.3088,-0.3636 -0.0258,-0.0418 -0.0362,-0.0646 -0.0692,-0.1306 -0.052,-0.1008 -0.008,-0.0238 -0.006,-0.0322 -0.002,-0.0309 -0.007,-0.0284 -0.008,-0.0145 -0.006,-0.006 -0.0122,-0.009 -0.0191,-0.0118 -0.8041,-0.1413 -0.2595,-0.0225 -0.0544,0.0436 0.01,0.0788 7e-4,0.0252 10e-5,0.007 -0.003,0.009 -0.3393,0.2586 -0.1536,0.0927 -0.135,0.1198 -0.0319,0.008 -0.0309,-10e-4 -0.1969,-0.0378 -0.0166,-0.006 -0.0224,-0.0117 -0.008,-0.007 -0.0438,-0.0534 -0.0343,-0.0499 -0.0256,-0.0377 -0.0365,-0.0569 -0.0346,-0.0334 -0.0133,-0.004 -0.0151,0.005 -0.0182,0.0117 -0.1948,0.2094 -0.003,0.01 -0.009,0.0406 -0.003,0.0146 -0.0392,0.3059 -0.003,0.0295 -0.26,0.5186 -0.0731,0.0833 -0.1595,0.0171 -0.1378,-0.015 -0.0194,-0.003 -0.0797,5e-4 -0.1413,0.007 -0.0683,0.0137 -0.2326,0.0684 -0.0146,0.009 -0.5376,0.4327 -0.0106,0.0167 -0.002,0.0171 0.005,0.1818 0.006,0.0285 0.009,0.022 0.0169,0.0343 0.0219,0.0786 0.0162,0.0649 0.0201,0.1337 -4e-4,0.004 -0.002,0.0182 -0.0131,0.0331 -0.0216,0.0364 -0.0207,0.008 -0.0698,0.0353 -0.1996,0.1724 -0.0111,0.0144 -0.0263,0.0467 -0.005,0.0158 -9e-4,0.0264 0.002,0.0132 0.0286,0.1288 -0.003,0.0112 -0.0658,0.058 -0.0162,0.009 -0.0183,0.007 -0.0221,0.003 -0.034,0.005 -0.0205,0.002 -0.0132,-0.002 -0.0113,-0.006 -0.0118,-0.0119 -0.0123,-0.0134 -0.0429,-0.2317 -0.0356,-0.2777 -0.0673,-0.28 -0.0195,-0.0785 -0.0807,-0.2445 -0.18,-0.2649 -0.3064,-0.4004 -0.157,-0.1299 -0.1499,-0.0952 -0.1392,-0.0371 -0.1626,-0.0186 -0.0155,0.004 -0.0288,0.001 -0.0161,-0.002 -0.0637,-0.0128 -0.0117,-0.007 -0.0103,-0.0161 -0.135,-0.2197 -0.1037,-0.2063 -0.009,-0.0228 -0.0101,-0.0206 -0.0911,-0.1522 -0.0243,-0.0317 -0.0169,-0.0161 -0.0219,-0.0179 -0.029,-0.0218 -0.2876,-0.1581 -0.2986,-0.0989 -0.1748,-0.231 -0.3645,-0.124 -0.1311,0.008 -0.0601,0.0104 -0.0312,-0.01 -0.1952,-0.3475 -0.0121,-0.0521 0.001,-0.0363 0.002,-0.0352 0.0114,-0.0504 0.012,-0.0512 -0.003,-0.0354 -0.0848,-0.34 -0.1983,-0.0126 -0.3913,0.1053 -0.2374,0.1455 -0.0526,0.0176 -0.1151,0.034 -0.0304,-1e-4 -0.01,-0.0186 -0.0479,-0.2292 -0.0404,-0.2003 -0.0409,-0.3133 0.004,-0.0174 0.2448,-0.2043 0.0502,-0.0304 0.0512,-0.01 0.0706,-0.008 0.0407,-0.002 0.0812,0.004 0.2372,0.0456 0.0448,0.009 0.1085,0.0512 0.0514,0.0247 0.0717,0.0153 0.0954,0.0119 0.055,0.006 0.0448,-0.003 0.0814,-0.0309 0.0467,-0.0225 0.0324,-0.0202 0.017,-0.0127 5e-4,-4e-4 0.0103,-0.008 0.0204,-0.0187 0.0169,-0.0231 5e-4,-8e-4 0.1619,-0.4891 -0.0148,6e-4 -0.1854,0.012 -0.2925,0.0113 -0.0398,-0.008 -0.0204,-0.022 -0.0673,-0.0896 -0.0437,-0.0586 -0.0254,-0.0394 -0.0191,-0.0325 -0.0217,-0.0418 -0.0631,-0.131 -0.0187,-0.06 -0.0137,-0.049 -0.003,-0.0637 -7e-4,-0.0537 0.008,-0.0473 0.0118,-0.0762 -0.001,-0.0428 -0.009,-0.0438 -0.0151,-0.0537 -0.0177,-0.0397 -0.0267,-0.0405 -0.0358,-0.0402 -0.0255,-0.0275 -0.0308,-0.0251 -0.0346,-0.0269 -0.0755,-0.0488 -0.0444,-0.0224 -0.0384,-0.0192 -0.0952,-0.0413 -0.0635,-0.0144 -0.0367,-0.004 -0.0561,-0.004 -0.0474,0.002 -0.0137,0.004 -0.0262,0.1675 -7e-4,7e-4 -0.2252,0.2404 -0.005,0.006 -0.011,0.046 0.0164,0.1379 0.0171,0.1176 0.0875,0.5592 0.01,0.0624 -0.1144,0.1274 -0.1148,0.1147 -0.0131,0.005 -0.1184,-0.0277 -0.1171,-0.0274 -0.095,-0.0248 -0.0536,-0.0149 -0.0456,-0.0122 -0.0446,-2e-4 -0.1492,0.001 -0.0154,4e-4 -0.3498,0.0198 -0.0656,0.1219 10e-4,0.0226 -0.1945,0.0766 -0.1309,-0.0129 -0.5518,-0.3025 -0.0176,-0.0257 -0.0549,-0.1268 -0.008,-0.119 0.0205,-0.0155 0.0317,-0.0155 0.01,-0.009 10e-4,-0.001 -0.003,-0.1073 -0.009,-0.0884 -0.0354,-0.0523 -0.075,-0.0983 -0.0321,-0.01 -0.0494,0.026 -0.027,0.0205 -0.0308,0.0176 -0.0674,0.0164 -0.0634,-0.0107 -0.0545,-0.0275 -0.2459,-0.126 -0.0605,-0.007 -0.0731,0.139 -0.006,0.0162 -0.0179,0.0627 -0.0398,0.1566 -10e-4,0.0597 -0.002,0.0558 -0.0535,0.0582 -0.1279,0.0441 -0.0421,0.0259 -0.2819,0.2346 -0.1318,0.1598 -0.257,0.3332 -0.0382,-0.009 -0.1664,0.0129 -0.2132,0.1044 -0.0978,0.0853 -0.4124,0.3658 -0.2334,0.2147 -0.1183,0.1219 -0.0622,0.0707 -0.0125,0.0123 -0.0263,0.0191 -0.1511,0.0897 -0.0505,-0.0119 -0.0255,-0.2315 -0.0486,-0.4736 0.0173,-0.1584 0.0133,-0.0142 0.013,-0.0144 -0.0105,-0.0154 -0.006,-0.002 -0.005,-0.002 -0.058,-0.0108 -0.0529,-0.005 -0.1051,0.0128 -0.0817,0.0141 -0.037,0.008 -0.0844,0.0481 -0.0209,0.046 -0.0676,0.1621 -0.0126,0.1046 -0.003,0.0342 -0.005,0.0751 0.004,0.0573 0.004,0.0413 0.009,0.0288 0.0172,0.0711 -0.005,0.0624 -0.0151,0.0848 -0.0527,0.1997 -0.0151,0.0356 -0.0152,0.0191 -0.3282,0.1532 -0.0227,7e-4 -0.0177,-0.0309 -0.0272,-0.097 -0.0189,-0.0827 -0.5179,-0.4005 4e-4,-0.1094 9e-4,-0.0141 0.1122,-0.155 -0.086,-0.5122 0.1336,-0.0434 0.098,-0.0812 0.0112,-0.0138 5e-4,-6e-4 -0.0962,-0.1746 -0.0407,-0.0615 -0.007,-0.003 -0.007,-0.003 -0.0299,-0.002 -0.012,0.003 -0.0145,0.01 -0.0148,0.0103 -0.058,0.0175 -0.009,-0.001 -0.008,-0.007 -0.3175,-0.3646 -0.0419,-0.0638 -0.0489,-0.0839 -0.078,-0.2179 -0.002,-0.0195 -0.0624,-0.1488 -0.5782,-0.656 -0.3437,-0.051 -0.0219,0.0722 -0.0407,0.0614 -0.0611,0.0836 -0.0771,0.0828 -0.0895,0.0309 -0.0738,-0.1096 -0.0505,-0.0557 -0.0168,-0.0129 -0.166,-0.1039 -0.0351,-0.0183 -0.0449,-0.0132 -0.0608,-0.0132 -0.0197,-0.002 -0.0303,0.005 -0.0262,0.005 -0.018,-0.003 -0.0758,-0.0404 -0.0257,-0.089 -0.009,-0.0424 -0.1426,-0.6583 -0.0135,-0.4452 -0.0294,-0.2114 0.3069,0.007 0.0267,-0.0192 0.01,-0.022 0.0429,-0.1947 -0.0133,-0.1398 -0.0887,-0.2486 0.003,-0.004 0.0798,-0.137 0.1183,-0.3256 0.0423,-0.1167 0.004,-0.0101 0.0351,-0.278 0.0528,-0.3265 0.1438,-0.5388 0.1962,-0.1578 0.1066,-0.0721 0.0241,-0.0243 0.1322,-0.4517 0.01,-0.0408 -0.0236,-0.2229 -0.0201,-0.0483 -0.059,-0.0764 -0.0216,-0.0293 -0.0163,-0.0348 -0.0112,-0.0408 -0.005,-0.049 0.003,-0.0576 0.0147,-0.0357 0.1908,-0.3362 0.0237,-0.3027 -0.0563,-0.1254 -0.008,-0.0786 0.01,-0.1734 0.0911,-0.1378 -0.002,-0.011 -0.2016,-0.0707 -0.1559,0.002 -0.0258,0.016 -0.0299,0.0352 -0.0333,0.0463 -0.0253,0.0233 -0.0846,0.0597 -0.1489,-0.0138 -0.0366,-0.006 -0.0311,-0.007 -0.0933,-0.0728 -0.005,-0.0144 -0.0156,-0.1838 0.005,-0.0196 0.0574,-0.134 0.0122,-0.0157 0.0274,-0.002 0.0623,-0.009 0.1707,-0.1751 0.0333,-0.0489 0.063,-0.0971 0.0347,-0.0608 0.0239,-0.0679 0.0709,-0.2524 -0.01,-0.0475 -0.002,-0.0103 -0.0361,-0.0274 -0.0329,-0.014 -0.0294,-0.005 -0.0301,0.0241 -0.0369,0.0349 -0.0411,0.0255 -0.0226,0.0134 -0.016,0.01 -0.0333,-0.002 -0.702,-0.1876 -0.1681,-0.2195 -0.008,-0.008 -0.0212,-0.0158 -0.0215,-0.0111 -0.1003,-0.0339 -0.5057,-0.038 -0.0385,0.0157 -0.1103,0.1561 -0.248,0.0418 -0.6652,-0.0461 -0.1602,-0.0116 -0.0147,-0.0266 -0.0604,-0.1694 0.006,-0.007 0.004,-0.008 0.009,-0.023 0.002,-0.0111 -0.002,-0.006 -0.002,-0.005 -0.003,-0.005 -0.0194,-0.0161 -0.0591,-0.0339 -0.0296,-0.0144 -0.0111,6e-4 -0.0106,6e-4 -0.3993,0.138 -0.2357,-0.2395 -0.0253,-0.1215 -0.0131,-0.0159 -0.1003,-0.0918 -0.4533,-0.1593 -0.0167,0.005 -0.3921,0.2067 -0.1369,0.0587 -0.128,-0.0467 -0.0669,-0.0229 -0.1397,-0.0433 -0.0409,-0.0107 -0.4767,-0.0514 -0.0694,0.087 -0.087,0.0259 -0.0886,-0.0282 -0.2091,-0.1405 -0.0794,-0.063 z"
       id="path11"
       style="stroke-width:0.0375;stroke-miterlimit:4;stroke-dasharray:none" />
  </g>
</svg>
