<?xml version="1.0" encoding="UTF-8" standalone="no"?>
<!-- Created with Inkscape (http://www.inkscape.org/) -->

<svg
   xmlns:svg="http://www.w3.org/2000/svg"
   xmlns="http://www.w3.org/2000/svg"
   version="1.1"
   width="729.33502"
   height="471.97964"
   id="svg3336">
  <defs
     id="defs3338" />
  <g
     transform="translate(-40.6222,-9.811608)"
     id="layer2">
    <path
       d="m 114.67006,133.18126 -1.98778,1.61507 -4.59674,-0.49694 -6.08758,-1.11813 -1.86354,-2.23625 -2.236253,-1.73931 -2.484725,-2.36049 -2.360489,-0.74541 -1.242362,1.49083 -2.236253,1.3666 0.248473,4.84521 -1.863544,2.60896 -2.112016,1.86355 -2.112017,2.98167 -3.97556,0 -1.490835,-1.11813 -4.348269,-4.09979 -1.615071,-1.24237 -1.615071,-0.99389 -3.105907,-0.12423 -8.572301,2.11201 -5.466395,2.11202 -2.360489,6.46028 c 0,0 -0.496945,2.36049 -1.242362,2.7332 -0.745418,0.37271 -1.98778,4.0998 -1.98778,4.0998 l -0.372709,3.47861 1.490835,6.46029 0.621181,4.96945 -0.99389,2.98167 -0.621181,5.59063 -0.869654,2.36049 -2.98167,1.86354 -1.739308,6.33605 -1.366598,5.09369 1.242362,4.84521 1.615071,7.70265 0.496945,2.7332 -0.745417,1.73931 -0.621181,1.49083 -0.621182,3.10591 0.496945,3.1059 0.869654,5.09369 0.869654,1.98778 3.727088,1.3666 2.112016,2.23625 -0.248473,2.85743 -1.242362,2.98167 -0.621181,2.36049 -3.230143,3.10591 -0.621181,1.98778 0.372708,1.86354 1.863544,1.3666 2.112017,1.61507 2.112016,1.49084 1.118126,5.71487 4.96945,10.06313 7.702648,4.22404 3.97556,7.45417 2.484725,0.99389 1.615071,2.23625 3.727088,2.11202 3.478615,1.86354 2.236253,1.3666 1.242362,0.74542 1.490835,1.11813 4.348269,0.74541 2.733198,1.3666 3.851323,0.99389 3.105907,-0.24847 0.745417,-1.98778 1.366603,-1.49084 2.60896,-0.24847 1.3666,2.60896 1.24236,1.49084 0.49694,4.09979 -0.74541,2.11202 -0.62119,1.86354 0.74542,0.86966 1.49084,3.47861 2.85743,0.99389 1.3666,1.3666 0,1.3666 -0.37271,1.61507 -0.49694,3.60285 0.74541,1.24237 3.97556,1.86354 4.0998,2.23625 3.72709,-0.12423 2.23625,-0.74542 2.23625,-0.99389 1.98778,-1.3666 2.60896,-0.74542 2.85744,-1.11812 3.35438,-0.86966 2.36049,-0.49694 2.85743,0 2.7332,0.86965 0.12423,2.23625 1.11813,3.23015 0.86965,1.36659 1.49084,0.86966 4.22403,0.74542 4.34827,0.99389 5.8391,2.85743 0.99389,1.24236 0.24848,3.47862 -0.74542,1.49083 -1.11813,1.61507 -0.86965,1.73931 -1.98778,2.11202 -2.48473,1.3666 -2.73319,0.99389 -1.49084,0.49694 -0.12424,7.70265 0.74542,3.47861 0,5.96334 -2.11201,4.22404 -1.3666,3.97556 -0.99389,4.84521 -0.12424,4.47251 0,2.36048 1.3666,0.86966 1.61507,1.3666 3.10591,2.11201 3.1059,2.98167 0.37271,4.84522 -0.49694,4.09979 -1.3666,1.73931 -0.99389,2.36049 0.62118,7.2057 0.99389,5.83911 1.11813,2.23625 0,3.47861 -1.11813,1.11813 -0.62118,3.10591 0.49694,2.98167 0.99389,6.33605 2.7332,2.73319 1.11813,1.73931 1.24236,1.86354 0,3.10591 0,2.48473 -1.73931,2.48472 -0.74542,1.3666 0,5.59063 1.73931,1.98778 2.7332,1.3666 6.33605,2.85743 7.57841,0.99389 1.73931,0.12424 4.22403,1.11813 2.36049,-0.74542 4.59674,-0.49695 2.98167,2.11202 0.62118,2.85743 -0.37271,2.36049 -1.61507,1.86355 -1.61507,1.61507 -2.60896,4.22403 -0.86965,1.24236 0.3727,2.23626 1.11813,3.47861 4.84521,0.86965 3.35438,-0.49694 1.3666,-1.49084 5.34216,0 9.19348,2.36049 7.95112,2.11202 2.98167,1.73931 1.3666,1.49083 0.6833,-0.24847 0.93177,-0.90071 2.11202,-1.08707 1.02495,-1.05601 1.70825,-4.00662 0.80261,-10.15064 1.75697,-2.7233 0.61494,-2.3719 2.3719,-3.68963 0.43924,-9.66331 1.31773,-2.63545 1.84481,-2.7233 5.62229,-2.89899 1.31773,-0.3514 1.14202,3.33824 1.05418,1.40557 1.05418,2.89899 0.26355,6.67648 -0.52709,5.0952 -1.05418,0.87848 -2.19621,1.49342 0,2.63545 0.43924,2.19621 1.22988,2.02051 0.43924,4.56811 1.05418,1.40557 2.28406,0.52709 0.70278,0.43924 0.43924,-0.43924 0.96633,-1.84481 1.05418,-3.07469 1.93267,-2.02051 4.7438,-0.70279 1.14203,0.70279 3.42609,0.79063 6.23722,1.31773 6.06154,0.79063 5.35874,1.05418 2.37191,0.79063 0.70278,1.58127 3.07469,2.899 1.14203,0.52709 0.79064,1.22987 0.61493,1.49342 1.40558,0.61494 1.66912,0.96633 3.60178,0.3514 3.42608,-0.52709 0.96633,-1.93267 0.96633,-0.61493 4.91951,-10.10256 7.81849,-8.08204 4.30457,-2.02051 6.50078,-1.66912 3.42608,-14.05573 1.40557,-0.79063 0.61494,0.52709 4.83166,1.31772 1.31772,-0.61494 4.04102,-0.79063 5.71014,-0.70279 6.50078,0 3.77747,0.61494 2.899,1.05418 1.84481,0.61494 1.84481,-0.26355 0.43925,-1.31772 1.84481,-1.14203 1.05418,-1.49342 0.96633,-0.52709 2.19621,-0.87848 1.58127,-1.40557 1.84481,0 0.61494,0.43924 0.79063,0.61494 1.14203,-0.52709 5.88584,-1.14203 4.12887,-1.84482 0.96633,-1.31772 0.61494,0.0879 3.07469,1.05418 1.49342,1.22987 1.84481,4.56811 1.22988,1.40558 3.51393,-0.1757 3.77748,-1.84481 3.95317,-4.04103 1.93266,-1.22987 2.19621,-1.93266 0.35139,-2.72335 -0.52709,-0.96633 1.49343,-1.22988 2.1962,-1.40557 5.62229,-0.61494 1.58127,-1.40557 0.61494,-1.66912 7.02787,-6.94002 3.86532,-1.84481 1.22988,-0.70279 1.93266,-1.66911 2.7233,-1.58127 4.39241,-2.45976 1.75697,-2.3719 0.79063,-2.19621 2.5476,-2.10836 0.3514,-1.93266 11.15673,-11.50813 2.45975,-0.43924 2.7233,-0.87848 2.5476,-1.49342 c 0,0 2.10836,-0.26355 2.45975,-0.43924 0.35139,-0.1757 4.65596,-1.22988 4.65596,-1.22988 l 6.23723,0.0879 1.05418,0.70279 3.95317,2.02051 2.81115,0.96633 1.31772,0.79063 0.87849,1.22988 2.02051,0.79063 5.18305,0 1.84481,-0.70278 3.95317,-4.12887 1.14203,-1.66912 0.61494,-1.22988 1.31772,-0.96633 0.87849,-0.96633 5.97368,-2.10836 4.12887,-1.05418 3.25039,-0.43924 2.45975,0.1757 2.63545,1.31767 2.63545,2.10836 1.75696,1.05418 3.42609,1.93266 2.81114,2.10836 1.84482,0.70279 1.22987,0.79063 2.02052,1.49342 0.35139,0.96634 1.84481,0.70278 0.87849,2.19621 1.05417,1.14203 1.22988,0.79063 0.79064,7.20356 0.61493,2.10836 1.05418,-0.0879 2.28406,-0.96633 2.63545,-0.96633 6.23723,-3.16254 2.89899,-1.22987 1.49342,-0.1757 1.49342,0.1757 2.10836,1.22987 0.61494,0.52709 0.43924,-0.43924 2.45975,-0.35139 1.49343,1.49342 1.84481,1.58127 1.75697,0.96633 2.3719,2.10836 2.02051,0.96633 6.23723,6.23723 3.51393,1.93266 0.61494,0.35139 0.61494,-0.26354 1.84481,-1.22988 1.14203,-1.14202 1.58127,-0.79064 1.49342,-0.61494 1.22988,0 0.70278,0.96633 4.30457,0.52709 5.00735,-0.35139 0.79064,-0.43924 2.02051,-1.05418 3.07469,-0.96633 1.58127,-0.52709 1.75696,0.26354 1.75697,0.96633 0.87848,1.31773 2.899,2.98684 0.96633,1.75697 1.49342,0.52709 2.5476,-0.1757 1.75696,-0.79063 0.96634,-1.40558 2.28405,-0.87848 1.14203,-1.31772 0.70279,-1.75697 3.07469,-3.25039 12.03521,-5.79799 2.899,-0.96633 1.05418,-1.05418 2.02051,-0.87848 1.05418,-1.05418 3.95317,-2.10836 2.98684,-2.89899 1.05418,-1.93266 2.02051,-2.10836 0.52709,-3.25039 4.30457,-0.70279 1.31772,-0.70278 0.70279,-0.79064 1.05418,-0.43924 1.05418,-1.05418 2.19621,-1.05418 0.79063,-0.96633 3.95317,-2.02051 2.899,-0.87848 1.05418,-0.43924 0.96633,-0.87849 10.10255,-0.87843 1.05418,-0.43924 0.70279,-0.79064 0.61494,-0.26354 0.61493,-1.49342 0.43925,-0.43924 8.69698,4.39241 1.05418,0.43924 0.87848,-0.35139 1.93266,-0.87848 2.81115,-1.05418 2.7233,-0.61494 2.72329,0 0.96633,0.52709 3.95318,2.02051 1.05418,0.35139 0.0879,2.37191 1.14202,2.02051 0.87849,1.49342 0.96633,0.61494 1.82761,-0.65698 1.67719,-0.6833 -0.49695,-2.48472 -1.18024,-2.79532 -0.86966,-2.54684 -0.62118,-1.42872 0.55906,-0.93177 0.12424,-5.09369 0.80754,-3.41649 0.31059,-0.18636 0.6833,-1.49083 2.85743,-6.39817 3.10591,-2.36049 c 0,0 2.79531,-5.52851 2.85743,-5.77698 0.0621,-0.24848 2.23625,-2.48473 2.23625,-2.48473 l 1.92566,-0.93177 2.91956,-1.24236 6.02545,-0.55907 2.79532,-1.30448 1.18024,-4.09979 0.37271,-1.49084 0.0621,-1.3666 -8.38595,-8.13747 -0.55906,-1.55296 -1.24236,-1.24236 -0.99389,-2.91955 -0.24847,-0.80754 0.31059,-1.61507 -0.24848,-3.85132 c 0,0 -0.68329,-0.6833 -0.99389,-0.80754 -0.31059,-0.12423 -4.09979,-1.92566 -4.09979,-1.92566 l -0.86966,-0.43482 -0.0621,-1.55296 0.43482,-0.74542 -0.31059,-3.35437 -0.86965,-3.97556 -2.0499,-1.18025 -1.80142,-1.49083 0.49694,-4.28615 3.16802,-9.25561 1.05601,-1.18024 2.91955,-2.0499 3.04379,-0.80753 1.18025,-1.67719 1.7393,-2.48473 7.20571,-13.91446 0.24847,-1.67719 -2.17413,-3.91344 -0.93178,-0.99389 -2.36049,-4.22403 -0.68329,-0.93177 0.74541,-2.79532 0.62118,-1.42872 -0.12423,-2.4226 -1.18025,0 -0.31059,0.49694 -0.93177,0.55906 -1.11813,-0.3727 -1.7393,-0.86966 -3.04379,-0.99389 -8.13748,-3.91344 -0.86965,-0.49695 -1.11813,-1.61507 -3.1059,-3.29226 -1.92566,-0.93177 -2.11202,-2.23625 -0.6833,-1.80143 -1.55295,-0.55906 -0.62118,-1.11813 -0.99389,-3.1059 -0.31059,-1.18025 0.31059,-2.98167 0.24847,-2.0499 -0.37271,-1.98778 -1.86354,-1.7393 -2.23626,-1.11813 -2.98167,-3.16802 -2.73319,-5.77699 -0.99389,-3.04379 -1.05601,-1.80142 -0.43483,-0.62118 0.0621,-0.74542 1.30448,-2.91955 0.93177,-0.86966 c 0,0 0.6833,-5.09368 0.6833,-5.34216 0,-0.24847 0,-4.72097 0,-4.72097 l -0.49694,-0.99389 -1.18025,-7.39206 -0.37271,-0.99389 0.12424,-1.80143 0.37271,-1.18024 0.80753,-0.74542 1.05601,-2.11202 1.92566,-0.93177 2.42261,-0.55906 -0.18635,-3.60285 -0.55907,-2.98167 -1.3666,-0.86966 -1.24236,-1.30448 -0.6833,-0.55906 -0.12423,-1.18024 -1.30448,-0.80754 -0.24848,-2.48472 0.37271,-2.60897 0.93177,-3.16802 1.05601,-1.42872 0.55906,-0.31059 0.74542,-0.6833 0.74542,-0.24847 0.99389,-1.30448 0.31059,-1.3666 0.99389,-0.0621 0.43483,-4.41038 0.62118,-3.91345 -1.05601,-0.80753 -2.42261,-2.36049 -1.92563,-4.84523 -1.11813,-4.84522 -0.24847,-7.95112 -0.62118,-10.435844 -0.74542,-3.851323 -0.37271,-4.348269 -0.12423,-3.105907 0.12423,-3.602851 0.62119,-2.733198 1.36659,-0.745417 -0.24847,-0.99389 -1.98778,-0.869654 -1.49083,-1.739307 -4.84522,-0.621182 -6.70875,-0.496945 -3.60286,-0.869653 -0.62118,-0.99389 -0.62118,-0.496945 -0.74542,-0.99389 -4.96945,-1.615072 -1.86354,-0.621181 -1.49083,0.745417 -0.99389,0.993891 -1.73931,1.118126 -1.86355,1.739307 -1.7393,0.99389 -1.11813,0.99389 -2.23625,1.118127 -1.24236,0.745417 -0.37271,0.869654 -0.74542,0 -0.74542,-0.496945 -5.71487,-5.96334 -1.86354,-1.118126 -11.05703,-10.808554 -3.60285,-1.490835 -4.84521,-0.993891 -3.23014,0 -5.21793,4.969451 -0.86965,2.236252 -2.36049,2.112016 -1.24236,0.621182 -0.49695,1.863543 -0.99389,2.112017 -1.24236,0.372709 -0.62118,0.745417 -2.36049,-0.621181 -2.85743,-0.869654 -3.35438,-0.372709 -0.86966,-0.99389 -0.62118,-1.366599 -1.61507,-1.490835 -0.37271,-1.739307 -1.61507,-1.118126 -1.24236,-2.236253 0,-1.863544 0,-2.236252 1.49083,-4.96945 0,-1.490835 0.12424,-3.230143 -2.23625,-1.863544 -1.98778,-1.242362 -0.86966,-1.118127 -1.61507,-0.745417 -1.61507,-0.745418 -5.96334,-0.621181 -4.22403,-1.615071 -1.3666,-2.857434 -1.86354,-4.099796 -1.86355,-3.105907 -1.11812,-2.112016 c 0,0 -0.49695,-2.857434 -0.99389,-2.857434 -0.49695,0 -3.97556,-2.360489 -3.97556,-2.360489 l -4.22404,-0.621181 -0.86965,0.869654 -1.49084,1.118126 -3.1059,0.745418 -1.61507,2.112016 -2.7332,0.99389 -0.99389,0.372709 -1.73931,-0.496945 -7.82688,-0.745418 -4.72098,-0.745417 -0.99389,0.745417 -2.11202,0.869654 -1.61507,0.621181 -1.98778,-0.745417 -11.18126,-0.621181 -1.11813,-1.242363 -1.86354,-1.118126 -1.24236,-1.98778 -1.11813,-6.584522 -1.24236,-2.608961 -0.86966,-1.490835 -4.09979,-0.869654 -5.96334,0.248473 -0.99389,0.745417 -6.833,0.124236 -0.74541,0.496945 -1.24237,0.869654 -1.24236,2.236253 -0.74542,2.857434 -0.12423,2.608961 0.24847,3.97556 0.86965,3.478615 0.62119,1.366599 0.12423,5.96334 -1.86354,1.490835 -0.37271,1.242363 -2.11202,0.745417 -0.99389,0.745418 -1.49083,-0.372709 -3.72709,-1.242363 -4.34827,-0.745417 -4.84521,-1.242363 -6.08758,-0.99389 -1.86354,-0.372709 -2.23626,0.496946 -1.61507,1.118126 -3.47861,1.242362 -1.3666,0.496945 -3.23014,1.242363 -2.11202,0.99389 -5.96334,5.96334 -0.37271,0.99389 0,0.869654 1.3666,2.98167 0.99389,2.112016 -0.37271,3.851324 -1.61507,0.745418 -1.73931,0.496945 -1.24236,-0.124237 -2.48472,-0.745417 -2.7332,-0.621182 -1.61507,0.372709 -6.08758,3.105907 -3.85132,3.602851 -3.35438,2.857434 -0.62118,2.112016 -2.36049,2.484725 -0.49695,1.98778 -2.36049,1.490835 -9.56619,4.845214 -1.3666,1.118126 -0.99389,0.869654 -1.3666,-0.745417 -1.7393,-0.124237 -3.47862,2.236253 -1.11812,1.863544 -5.09369,5.466395 -2.85743,0.621181 -1.98778,0.496945 -1.11813,-2.112016 -0.74542,-0.99389 -3.72709,-1.490835 -0.62118,-0.496945 -5.59063,-2.98167 -1.24236,-0.99389 -2.23625,-0.99389 -2.60896,-2.236253 -1.49084,-1.366599 -2.60896,-2.360489 -1.61507,-1.118126 -0.86966,-0.869654 -1.24236,0.496945 -1.3666,1.615072 -1.24236,0.372708 -3.85132,2.484725 -5.21793,0 -2.11201,-1.490835 -1.73931,-1.863543 -2.60896,-0.869654 -0.86966,-0.869654 -2.11201,-1.118126 -0.37271,-0.869654 -2.48473,-1.118126 -3.23014,-1.98778 -1.73931,-0.372709 -1.49083,0.124236 -1.98778,1.118126 -1.24236,0.993891 -1.11813,1.863543 -0.99389,0.869654 -1.3666,3.230143 -0.37271,1.863543 -0.86965,2.360489 -2.36049,3.97556 -0.37271,1.118127 -0.12423,1.118126 -2.85744,0.372709 -1.73931,0.869653 -5.96334,6.708758 -1.11812,1.366599 -3.97556,-0.372709 -0.99389,-1.366599 -3.47862,-0.248472 -1.49083,1.242362 -1.73931,0.496945 -2.98167,-0.310591 -3.29226,-0.99389 -2.85743,-0.807535 -0.55907,1.428717 -2.85743,0.248472 -1.67719,0.869654 -1.67719,2.174134 0,2.422608 -0.86965,1.49083 -2.41515,1.28862 -2.81115,1.75697 -1.58127,1.58127 -1.93266,1.05418 -1.58127,2.28405 -0.87848,2.45975 0.70278,5.62229 1.05418,1.05418 -0.52709,0.87849 -0.70278,0.87848 -2.63545,1.05418 -1.75697,1.22988 -0.87848,0.52709 -1.93266,-0.3514 -2.63545,-1.22987 -2.45976,-1.40558 -1.05418,-0.87848 -1.93266,-0.87848 -7.20356,-6.85217 -1.58127,-0.70279 -0.26354,-0.26354 1.47146,-0.74671 1.18595,-0.54905 0.10981,-3.22843 -2.28406,-1.55931 -2.1962,-0.50512 -3.95318,0.61493 -3.29431,1.75697 -2.59152,1.2738 -3.11862,0.87848 -1.53734,1.14203 -0.96633,3.8214 -1.05418,1.18595 -2.10836,0.79064 -3.03077,3.29431 -2.19621,0.96633 -1.84481,1.80089 -0.70279,0.35139 -4.34849,0.0439 -4.04102,-0.43924 -1.62519,-0.92241 -1.09811,-1.75697 -1.01025,-3.51393 -0.96633,-2.59152 -0.65887,-4.34849 -0.39531,-2.76722 -2.15229,-1.88874 -1.0981,-2.10836 -3.6457,-3.821403 -1.2738,-2.152283 -3.20647,-3.074691 -0.87848,-2.108359 -2.94292,-2.635449 -1.14203,-2.240131 -2.02051,-2.064435 c 0,0 -0.0439,-2.811146 -0.0439,-3.118615 0,-0.307469 0,-3.645704 0,-3.645704 l -0.87848,-3.074691 -0.74671,-2.240131 -4.04103,-3.777477 -2.3719,-1.010255 -3.77748,-3.90925 -1.84481,-0.922407 -3.25039,0.131773 -1.14203,0.614938 -2.63544,1.010255 -4.26065,1.932663 -0.9224,0.834559 -1.75697,1.2738 -0.35139,1.010255 -1.58127,0.834559 -1.14203,2.152283 -0.87848,0.966332 -1.01026,1.932662 -1.14203,1.098104 -1.84481,3.953173 -1.05418,0.966332 -1.0981,2.02051 -0.52709,0.307469 -1.14203,0.263545 -0.13177,4.304567 0.43924,3.382159 0.26354,0.746711 1.01026,2.064435 0.35139,2.108359 -0.30747,1.010255 -0.79063,1.756966 -2.28406,4.172797 -0.70279,1.88874 -1.14202,2.15228 -1.01026,0.79063 -3.07469,3.07469 c 0,0 -5.9737,0.35143 -6.28117,0.35143 -0.30747,0 -4.87558,0.65886 -4.87558,0.65886 l -3.77748,1.01025 -1.93266,0.79064 -4.04102,2.15228 -2.06444,1.18595 -3.86532,1.97659 -1.14203,0.87848 -2.06444,3.95318 -1.93266,3.95317 -0.57101,1.22988 -0.74671,0.48316 -0.13178,0.70279 -3.33823,0.65886 -2.15228,0.48317 -1.14203,-0.0879 -0.57102,-0.83456 -1.95462,0.12079 -0.10976,0.4063 -2.50368,0.57101 -1.88874,0.43925 -1.01025,0.61493 -1.88874,0.26355 -1.37754,0.22015 -5e-5,5e-5 z"
       id="path3361"
       style="color:#ffffff;fill:#e45c36;fill-opacity:1;stroke:#ffffff;stroke-width:2;stroke-linecap:butt;stroke-linejoin:round;stroke-miterlimit:4;stroke-opacity:1;stroke-dasharray:none;stroke-dashoffset:0;marker:none;visibility:visible;display:inline;overflow:visible;enable-background:accumulate" />
  </g>
</svg>
